G04 #@! TF.GenerationSoftware,KiCad,Pcbnew,(5.1.5)-2*
G04 #@! TF.CreationDate,2021-04-18T14:05:11+02:00*
G04 #@! TF.ProjectId,Versie2,56657273-6965-4322-9e6b-696361645f70,rev?*
G04 #@! TF.SameCoordinates,Original*
G04 #@! TF.FileFunction,Profile,NP*
%FSLAX46Y46*%
G04 Gerber Fmt 4.6, Leading zero omitted, Abs format (unit mm)*
G04 Created by KiCad (PCBNEW (5.1.5)-2) date 2021-04-18 14:05:11*
%MOMM*%
%LPD*%
G04 APERTURE LIST*
%ADD10C,0.050000*%
G04 APERTURE END LIST*
D10*
X116200000Y-49400000D02*
X115400000Y-49400000D01*
X116200000Y-51100000D02*
X116200000Y-49400000D01*
X116200000Y-64300000D02*
X116200000Y-51100000D01*
X116200000Y-84800000D02*
X116200000Y-64300000D01*
X116200000Y-94800000D02*
X115400000Y-94800000D01*
X116200000Y-84800000D02*
X116200000Y-94800000D01*
X110000000Y-94800000D02*
X115400000Y-94800000D01*
X93700000Y-94800000D02*
X110000000Y-94800000D01*
X78000000Y-94800000D02*
X93700000Y-94800000D01*
X69100000Y-94800000D02*
X78000000Y-94800000D01*
X59900000Y-94800000D02*
X59900000Y-94100000D01*
X69100000Y-94800000D02*
X59900000Y-94800000D01*
X61100000Y-49400000D02*
X59900000Y-49400000D01*
X87500000Y-49400000D02*
X61100000Y-49400000D01*
X115400000Y-49400000D02*
X104300000Y-49400000D01*
X104300000Y-49400000D02*
X87500000Y-49400000D01*
X59900000Y-49400000D02*
X59900000Y-59200000D01*
X59900000Y-89700000D02*
X59900000Y-94100000D01*
X59900000Y-83200000D02*
X59900000Y-89700000D01*
X59900000Y-71400000D02*
X59900000Y-83200000D01*
X59900000Y-59200000D02*
X59900000Y-71400000D01*
M02*
