G04 #@! TF.GenerationSoftware,KiCad,Pcbnew,(5.1.5)-2*
G04 #@! TF.CreationDate,2021-04-18T14:05:11+02:00*
G04 #@! TF.ProjectId,Versie2,56657273-6965-4322-9e6b-696361645f70,rev?*
G04 #@! TF.SameCoordinates,Original*
G04 #@! TF.FileFunction,Soldermask,Bot*
G04 #@! TF.FilePolarity,Negative*
%FSLAX46Y46*%
G04 Gerber Fmt 4.6, Leading zero omitted, Abs format (unit mm)*
G04 Created by KiCad (PCBNEW (5.1.5)-2) date 2021-04-18 14:05:11*
%MOMM*%
%LPD*%
G04 APERTURE LIST*
%ADD10C,0.100000*%
G04 APERTURE END LIST*
D10*
G36*
X94164200Y-94007900D02*
G01*
X91762200Y-94007900D01*
X91762200Y-92405900D01*
X94164200Y-92405900D01*
X94164200Y-94007900D01*
G37*
G36*
X78659800Y-93728500D02*
G01*
X76257800Y-93728500D01*
X76257800Y-92126500D01*
X78659800Y-92126500D01*
X78659800Y-93728500D01*
G37*
G36*
X89812000Y-91640900D02*
G01*
X87610000Y-91640900D01*
X87610000Y-89438900D01*
X89812000Y-89438900D01*
X89812000Y-91640900D01*
G37*
G36*
X91465794Y-89460055D02*
G01*
X91572150Y-89481211D01*
X91772520Y-89564207D01*
X91952844Y-89684695D01*
X92106205Y-89838056D01*
X92226693Y-90018380D01*
X92309689Y-90218751D01*
X92352000Y-90431460D01*
X92352000Y-90648340D01*
X92309689Y-90861049D01*
X92226693Y-91061420D01*
X92106205Y-91241744D01*
X91952844Y-91395105D01*
X91772520Y-91515593D01*
X91572150Y-91598589D01*
X91465794Y-91619745D01*
X91359440Y-91640900D01*
X91142560Y-91640900D01*
X91036206Y-91619745D01*
X90929850Y-91598589D01*
X90829666Y-91557091D01*
X90729480Y-91515593D01*
X90549156Y-91395105D01*
X90395795Y-91241744D01*
X90275307Y-91061420D01*
X90192311Y-90861049D01*
X90150000Y-90648340D01*
X90150000Y-90431460D01*
X90192311Y-90218751D01*
X90275307Y-90018380D01*
X90395795Y-89838056D01*
X90549156Y-89684695D01*
X90729480Y-89564207D01*
X90829666Y-89522709D01*
X90929850Y-89481211D01*
X91036205Y-89460056D01*
X91142560Y-89438900D01*
X91359440Y-89438900D01*
X91465794Y-89460055D01*
G37*
G36*
X75603494Y-89409255D02*
G01*
X75709850Y-89430411D01*
X75810034Y-89471909D01*
X75910220Y-89513407D01*
X76090544Y-89633895D01*
X76243905Y-89787256D01*
X76364393Y-89967580D01*
X76447389Y-90167951D01*
X76489700Y-90380660D01*
X76489700Y-90597540D01*
X76447389Y-90810249D01*
X76364393Y-91010620D01*
X76243905Y-91190944D01*
X76090544Y-91344305D01*
X75910220Y-91464793D01*
X75709850Y-91547789D01*
X75603494Y-91568945D01*
X75497140Y-91590100D01*
X75280260Y-91590100D01*
X75173906Y-91568945D01*
X75067550Y-91547789D01*
X74867180Y-91464793D01*
X74686856Y-91344305D01*
X74533495Y-91190944D01*
X74413007Y-91010620D01*
X74330011Y-90810249D01*
X74287700Y-90597540D01*
X74287700Y-90380660D01*
X74330011Y-90167951D01*
X74413007Y-89967580D01*
X74533495Y-89787256D01*
X74686856Y-89633895D01*
X74867180Y-89513407D01*
X74967366Y-89471909D01*
X75067550Y-89430411D01*
X75173906Y-89409255D01*
X75280260Y-89388100D01*
X75497140Y-89388100D01*
X75603494Y-89409255D01*
G37*
G36*
X73949700Y-91590100D02*
G01*
X71747700Y-91590100D01*
X71747700Y-89388100D01*
X73949700Y-89388100D01*
X73949700Y-91590100D01*
G37*
G36*
X69647194Y-89409255D02*
G01*
X69753550Y-89430411D01*
X69853734Y-89471909D01*
X69953920Y-89513407D01*
X70134244Y-89633895D01*
X70287605Y-89787256D01*
X70408093Y-89967580D01*
X70491089Y-90167951D01*
X70533400Y-90380660D01*
X70533400Y-90597540D01*
X70491089Y-90810249D01*
X70408093Y-91010620D01*
X70287605Y-91190944D01*
X70134244Y-91344305D01*
X69953920Y-91464793D01*
X69753550Y-91547789D01*
X69647194Y-91568945D01*
X69540840Y-91590100D01*
X69323960Y-91590100D01*
X69217606Y-91568945D01*
X69111250Y-91547789D01*
X68910880Y-91464793D01*
X68730556Y-91344305D01*
X68577195Y-91190944D01*
X68456707Y-91010620D01*
X68373711Y-90810249D01*
X68331400Y-90597540D01*
X68331400Y-90380660D01*
X68373711Y-90167951D01*
X68456707Y-89967580D01*
X68577195Y-89787256D01*
X68730556Y-89633895D01*
X68910880Y-89513407D01*
X69011066Y-89471909D01*
X69111250Y-89430411D01*
X69217606Y-89409255D01*
X69323960Y-89388100D01*
X69540840Y-89388100D01*
X69647194Y-89409255D01*
G37*
G36*
X67993400Y-91590100D02*
G01*
X65791400Y-91590100D01*
X65791400Y-89388100D01*
X67993400Y-89388100D01*
X67993400Y-91590100D01*
G37*
G36*
X105115500Y-91577400D02*
G01*
X102913500Y-91577400D01*
X102913500Y-89375400D01*
X105115500Y-89375400D01*
X105115500Y-91577400D01*
G37*
G36*
X106726786Y-89388100D02*
G01*
X106875650Y-89417711D01*
X106906310Y-89430411D01*
X107076020Y-89500707D01*
X107256344Y-89621195D01*
X107409705Y-89774556D01*
X107530193Y-89954880D01*
X107613189Y-90155251D01*
X107655500Y-90367960D01*
X107655500Y-90584840D01*
X107613189Y-90797549D01*
X107530193Y-90997920D01*
X107409705Y-91178244D01*
X107256344Y-91331605D01*
X107076020Y-91452093D01*
X107045359Y-91464793D01*
X106875650Y-91535089D01*
X106811803Y-91547789D01*
X106662940Y-91577400D01*
X106446060Y-91577400D01*
X106297197Y-91547789D01*
X106233350Y-91535089D01*
X106063641Y-91464793D01*
X106032980Y-91452093D01*
X105852656Y-91331605D01*
X105699295Y-91178244D01*
X105578807Y-90997920D01*
X105495811Y-90797549D01*
X105453500Y-90584840D01*
X105453500Y-90367960D01*
X105495811Y-90155251D01*
X105578807Y-89954880D01*
X105699295Y-89774556D01*
X105852656Y-89621195D01*
X106032980Y-89500707D01*
X106202690Y-89430411D01*
X106233350Y-89417711D01*
X106382214Y-89388100D01*
X106446060Y-89375400D01*
X106662940Y-89375400D01*
X106726786Y-89388100D01*
G37*
G36*
X114896200Y-88632600D02*
G01*
X113094200Y-88632600D01*
X113094200Y-86830600D01*
X114896200Y-86830600D01*
X114896200Y-88632600D01*
G37*
G36*
X89410400Y-88631700D02*
G01*
X87808400Y-88631700D01*
X87808400Y-86229700D01*
X89410400Y-86229700D01*
X89410400Y-88631700D01*
G37*
G36*
X73662400Y-88601700D02*
G01*
X72060400Y-88601700D01*
X72060400Y-86199700D01*
X73662400Y-86199700D01*
X73662400Y-88601700D01*
G37*
G36*
X101742100Y-88390400D02*
G01*
X100140100Y-88390400D01*
X100140100Y-85988400D01*
X101742100Y-85988400D01*
X101742100Y-88390400D01*
G37*
G36*
X86032200Y-88195300D02*
G01*
X84430200Y-88195300D01*
X84430200Y-85793300D01*
X86032200Y-85793300D01*
X86032200Y-88195300D01*
G37*
G36*
X77008800Y-87556300D02*
G01*
X74606800Y-87556300D01*
X74606800Y-85954300D01*
X77008800Y-85954300D01*
X77008800Y-87556300D01*
G37*
G36*
X92807600Y-87480100D02*
G01*
X90405600Y-87480100D01*
X90405600Y-85878100D01*
X92807600Y-85878100D01*
X92807600Y-87480100D01*
G37*
G36*
X113001000Y-86001000D02*
G01*
X110799000Y-86001000D01*
X110799000Y-83799000D01*
X113001000Y-83799000D01*
X113001000Y-86001000D01*
G37*
G36*
X112114795Y-81280156D02*
G01*
X112221150Y-81301311D01*
X112421520Y-81384307D01*
X112601844Y-81504795D01*
X112755205Y-81658156D01*
X112875693Y-81838480D01*
X112958689Y-82038851D01*
X113001000Y-82251560D01*
X113001000Y-82468440D01*
X112958689Y-82681149D01*
X112875693Y-82881520D01*
X112755205Y-83061844D01*
X112601844Y-83215205D01*
X112421520Y-83335693D01*
X112221150Y-83418689D01*
X112114795Y-83439844D01*
X112008440Y-83461000D01*
X111791560Y-83461000D01*
X111685205Y-83439844D01*
X111578850Y-83418689D01*
X111378480Y-83335693D01*
X111198156Y-83215205D01*
X111044795Y-83061844D01*
X110924307Y-82881520D01*
X110841311Y-82681149D01*
X110799000Y-82468440D01*
X110799000Y-82251560D01*
X110841311Y-82038851D01*
X110924307Y-81838480D01*
X111044795Y-81658156D01*
X111198156Y-81504795D01*
X111378480Y-81384307D01*
X111578850Y-81301311D01*
X111685205Y-81280156D01*
X111791560Y-81259000D01*
X112008440Y-81259000D01*
X112114795Y-81280156D01*
G37*
G36*
X91275256Y-78591298D02*
G01*
X91381579Y-78612447D01*
X91682042Y-78736903D01*
X91952451Y-78917585D01*
X92182415Y-79147549D01*
X92182416Y-79147551D01*
X92363098Y-79417960D01*
X92487553Y-79718422D01*
X92543762Y-80001000D01*
X92551000Y-80037391D01*
X92551000Y-80362609D01*
X92487553Y-80681579D01*
X92363097Y-80982042D01*
X92182415Y-81252451D01*
X91952451Y-81482415D01*
X91682042Y-81663097D01*
X91381579Y-81787553D01*
X91275256Y-81808702D01*
X91062611Y-81851000D01*
X90737389Y-81851000D01*
X90524744Y-81808702D01*
X90418421Y-81787553D01*
X90117958Y-81663097D01*
X89847549Y-81482415D01*
X89617585Y-81252451D01*
X89436903Y-80982042D01*
X89312447Y-80681579D01*
X89249000Y-80362609D01*
X89249000Y-80037391D01*
X89256239Y-80001000D01*
X89312447Y-79718422D01*
X89436902Y-79417960D01*
X89617584Y-79147551D01*
X89617585Y-79147549D01*
X89847549Y-78917585D01*
X90117958Y-78736903D01*
X90418421Y-78612447D01*
X90524744Y-78591298D01*
X90737389Y-78549000D01*
X91062611Y-78549000D01*
X91275256Y-78591298D01*
G37*
G36*
X113001000Y-80001000D02*
G01*
X110799000Y-80001000D01*
X110799000Y-77799000D01*
X113001000Y-77799000D01*
X113001000Y-80001000D01*
G37*
G36*
X112114795Y-75280156D02*
G01*
X112221150Y-75301311D01*
X112321334Y-75342809D01*
X112421520Y-75384307D01*
X112601844Y-75504795D01*
X112755205Y-75658156D01*
X112875693Y-75838480D01*
X112958689Y-76038851D01*
X113001000Y-76251560D01*
X113001000Y-76468440D01*
X112958689Y-76681149D01*
X112875693Y-76881520D01*
X112755205Y-77061844D01*
X112601844Y-77215205D01*
X112421520Y-77335693D01*
X112321334Y-77377191D01*
X112221150Y-77418689D01*
X112114794Y-77439845D01*
X112008440Y-77461000D01*
X111791560Y-77461000D01*
X111685206Y-77439845D01*
X111578850Y-77418689D01*
X111478666Y-77377191D01*
X111378480Y-77335693D01*
X111198156Y-77215205D01*
X111044795Y-77061844D01*
X110924307Y-76881520D01*
X110841311Y-76681149D01*
X110799000Y-76468440D01*
X110799000Y-76251560D01*
X110841311Y-76038851D01*
X110924307Y-75838480D01*
X111044795Y-75658156D01*
X111198156Y-75504795D01*
X111378480Y-75384307D01*
X111478666Y-75342809D01*
X111578850Y-75301311D01*
X111685205Y-75280156D01*
X111791560Y-75259000D01*
X112008440Y-75259000D01*
X112114795Y-75280156D01*
G37*
G36*
X94078500Y-74567400D02*
G01*
X91976500Y-74567400D01*
X91976500Y-73565400D01*
X94078500Y-73565400D01*
X94078500Y-74567400D01*
G37*
G36*
X94078500Y-73297400D02*
G01*
X91976500Y-73297400D01*
X91976500Y-72295400D01*
X94078500Y-72295400D01*
X94078500Y-73297400D01*
G37*
G36*
X105515000Y-72100800D02*
G01*
X104413000Y-72100800D01*
X104413000Y-70798800D01*
X105515000Y-70798800D01*
X105515000Y-72100800D01*
G37*
G36*
X101815000Y-72100800D02*
G01*
X100713000Y-72100800D01*
X100713000Y-70798800D01*
X101815000Y-70798800D01*
X101815000Y-72100800D01*
G37*
G36*
X111715000Y-72100800D02*
G01*
X110263000Y-72100800D01*
X110263000Y-70448800D01*
X111715000Y-70448800D01*
X111715000Y-72100800D01*
G37*
G36*
X94078500Y-72027400D02*
G01*
X91976500Y-72027400D01*
X91976500Y-71025400D01*
X94078500Y-71025400D01*
X94078500Y-72027400D01*
G37*
G36*
X94078500Y-70757400D02*
G01*
X91976500Y-70757400D01*
X91976500Y-69755400D01*
X94078500Y-69755400D01*
X94078500Y-70757400D01*
G37*
G36*
X94078500Y-69487400D02*
G01*
X91976500Y-69487400D01*
X91976500Y-68485400D01*
X94078500Y-68485400D01*
X94078500Y-69487400D01*
G37*
G36*
X111715000Y-69290800D02*
G01*
X110513000Y-69290800D01*
X110513000Y-60715799D01*
X110510598Y-60691413D01*
X110503485Y-60667964D01*
X110491934Y-60646353D01*
X110476389Y-60627411D01*
X110457447Y-60611866D01*
X110435836Y-60600315D01*
X110412387Y-60593202D01*
X110388001Y-60590800D01*
X109813000Y-60590800D01*
X109813000Y-59318800D01*
X111715000Y-59318800D01*
X111715000Y-69290800D01*
G37*
G36*
X101015000Y-68950800D02*
G01*
X99563000Y-68950800D01*
X99563000Y-66948800D01*
X101015000Y-66948800D01*
X101015000Y-68950800D01*
G37*
G36*
X94078500Y-68217400D02*
G01*
X91976500Y-68217400D01*
X91976500Y-67215400D01*
X94078500Y-67215400D01*
X94078500Y-68217400D01*
G37*
G36*
X95092100Y-65126500D02*
G01*
X92690100Y-65126500D01*
X92690100Y-63524500D01*
X95092100Y-63524500D01*
X95092100Y-65126500D01*
G37*
G36*
X101015000Y-62980800D02*
G01*
X99563000Y-62980800D01*
X99563000Y-60978800D01*
X101015000Y-60978800D01*
X101015000Y-62980800D01*
G37*
G36*
X95089800Y-62548400D02*
G01*
X92687800Y-62548400D01*
X92687800Y-60946400D01*
X95089800Y-60946400D01*
X95089800Y-62548400D01*
G37*
G36*
X94711213Y-55369249D02*
G01*
X94805652Y-55397897D01*
X94892687Y-55444418D01*
X94968975Y-55507025D01*
X95031582Y-55583313D01*
X95078103Y-55670348D01*
X95106751Y-55764787D01*
X95114000Y-55838388D01*
X95114000Y-56987612D01*
X95106751Y-57061213D01*
X95078103Y-57155652D01*
X95031582Y-57242687D01*
X94968975Y-57318975D01*
X94892687Y-57381582D01*
X94805651Y-57428103D01*
X94711212Y-57456751D01*
X94613000Y-57466424D01*
X94514787Y-57456751D01*
X94420348Y-57428103D01*
X94333313Y-57381582D01*
X94257025Y-57318975D01*
X94194418Y-57242687D01*
X94147897Y-57155651D01*
X94119249Y-57061212D01*
X94112000Y-56987611D01*
X94112001Y-55838388D01*
X94119250Y-55764787D01*
X94147898Y-55670348D01*
X94194419Y-55583313D01*
X94257026Y-55507025D01*
X94333314Y-55444418D01*
X94420349Y-55397897D01*
X94514788Y-55369249D01*
X94613000Y-55359576D01*
X94711213Y-55369249D01*
G37*
G36*
X103351213Y-55369249D02*
G01*
X103445652Y-55397897D01*
X103532687Y-55444418D01*
X103608975Y-55507025D01*
X103671582Y-55583313D01*
X103718103Y-55670348D01*
X103746751Y-55764787D01*
X103754000Y-55838388D01*
X103754000Y-56987612D01*
X103746751Y-57061213D01*
X103718103Y-57155652D01*
X103671582Y-57242687D01*
X103608975Y-57318975D01*
X103532687Y-57381582D01*
X103445651Y-57428103D01*
X103351212Y-57456751D01*
X103253000Y-57466424D01*
X103154787Y-57456751D01*
X103060348Y-57428103D01*
X102973313Y-57381582D01*
X102897025Y-57318975D01*
X102834418Y-57242687D01*
X102787897Y-57155651D01*
X102759249Y-57061212D01*
X102752000Y-56987611D01*
X102752001Y-55838388D01*
X102759250Y-55764787D01*
X102787898Y-55670348D01*
X102834419Y-55583313D01*
X102897026Y-55507025D01*
X102973314Y-55444418D01*
X103060349Y-55397897D01*
X103154788Y-55369249D01*
X103253000Y-55359576D01*
X103351213Y-55369249D01*
G37*
G36*
X101925383Y-55595489D02*
G01*
X101925386Y-55595490D01*
X101925385Y-55595490D01*
X101989258Y-55621946D01*
X102046748Y-55660360D01*
X102095640Y-55709252D01*
X102134054Y-55766742D01*
X102155624Y-55818818D01*
X102160511Y-55830617D01*
X102174000Y-55898430D01*
X102174000Y-55967570D01*
X102160511Y-56035383D01*
X102160510Y-56035385D01*
X102134054Y-56099258D01*
X102095640Y-56156748D01*
X102046748Y-56205640D01*
X101989258Y-56244054D01*
X101937182Y-56265624D01*
X101925383Y-56270511D01*
X101857570Y-56284000D01*
X101788430Y-56284000D01*
X101720617Y-56270511D01*
X101708818Y-56265624D01*
X101656742Y-56244054D01*
X101599252Y-56205640D01*
X101550360Y-56156748D01*
X101511946Y-56099258D01*
X101485490Y-56035385D01*
X101485489Y-56035383D01*
X101472000Y-55967570D01*
X101472000Y-55898430D01*
X101485489Y-55830617D01*
X101490376Y-55818818D01*
X101511946Y-55766742D01*
X101550360Y-55709252D01*
X101599252Y-55660360D01*
X101656742Y-55621946D01*
X101720615Y-55595490D01*
X101720614Y-55595490D01*
X101720617Y-55595489D01*
X101788430Y-55582000D01*
X101857570Y-55582000D01*
X101925383Y-55595489D01*
G37*
G36*
X96145383Y-55595489D02*
G01*
X96145386Y-55595490D01*
X96145385Y-55595490D01*
X96209258Y-55621946D01*
X96266748Y-55660360D01*
X96315640Y-55709252D01*
X96354054Y-55766742D01*
X96375624Y-55818818D01*
X96380511Y-55830617D01*
X96394000Y-55898430D01*
X96394000Y-55967570D01*
X96380511Y-56035383D01*
X96380510Y-56035385D01*
X96354054Y-56099258D01*
X96315640Y-56156748D01*
X96266748Y-56205640D01*
X96209258Y-56244054D01*
X96157182Y-56265624D01*
X96145383Y-56270511D01*
X96077570Y-56284000D01*
X96008430Y-56284000D01*
X95940617Y-56270511D01*
X95928818Y-56265624D01*
X95876742Y-56244054D01*
X95819252Y-56205640D01*
X95770360Y-56156748D01*
X95731946Y-56099258D01*
X95705490Y-56035385D01*
X95705489Y-56035383D01*
X95692000Y-55967570D01*
X95692000Y-55898430D01*
X95705489Y-55830617D01*
X95710376Y-55818818D01*
X95731946Y-55766742D01*
X95770360Y-55709252D01*
X95819252Y-55660360D01*
X95876742Y-55621946D01*
X95940615Y-55595490D01*
X95940614Y-55595490D01*
X95940617Y-55595489D01*
X96008430Y-55582000D01*
X96077570Y-55582000D01*
X96145383Y-55595489D01*
G37*
G36*
X84159000Y-54695000D02*
G01*
X81957000Y-54695000D01*
X81957000Y-52493000D01*
X84159000Y-52493000D01*
X84159000Y-54695000D01*
G37*
G36*
X74763794Y-52514155D02*
G01*
X74870150Y-52535311D01*
X74970334Y-52576809D01*
X75070520Y-52618307D01*
X75250844Y-52738795D01*
X75404205Y-52892156D01*
X75524693Y-53072480D01*
X75607689Y-53272851D01*
X75650000Y-53485560D01*
X75650000Y-53702440D01*
X75607689Y-53915149D01*
X75524693Y-54115520D01*
X75404205Y-54295844D01*
X75250844Y-54449205D01*
X75070520Y-54569693D01*
X74970334Y-54611191D01*
X74870150Y-54652689D01*
X74763795Y-54673844D01*
X74657440Y-54695000D01*
X74440560Y-54695000D01*
X74334205Y-54673844D01*
X74227850Y-54652689D01*
X74027480Y-54569693D01*
X73847156Y-54449205D01*
X73693795Y-54295844D01*
X73573307Y-54115520D01*
X73490311Y-53915149D01*
X73448000Y-53702440D01*
X73448000Y-53485560D01*
X73490311Y-53272851D01*
X73573307Y-53072480D01*
X73693795Y-52892156D01*
X73847156Y-52738795D01*
X74027480Y-52618307D01*
X74227850Y-52535311D01*
X74334206Y-52514155D01*
X74440560Y-52493000D01*
X74657440Y-52493000D01*
X74763794Y-52514155D01*
G37*
G36*
X78190000Y-54695000D02*
G01*
X75988000Y-54695000D01*
X75988000Y-52493000D01*
X78190000Y-52493000D01*
X78190000Y-54695000D01*
G37*
G36*
X80732794Y-52514155D02*
G01*
X80839150Y-52535311D01*
X80939334Y-52576809D01*
X81039520Y-52618307D01*
X81219844Y-52738795D01*
X81373205Y-52892156D01*
X81493693Y-53072480D01*
X81576689Y-53272851D01*
X81619000Y-53485560D01*
X81619000Y-53702440D01*
X81576689Y-53915149D01*
X81493693Y-54115520D01*
X81373205Y-54295844D01*
X81219844Y-54449205D01*
X81039520Y-54569693D01*
X80939334Y-54611191D01*
X80839150Y-54652689D01*
X80732795Y-54673844D01*
X80626440Y-54695000D01*
X80409560Y-54695000D01*
X80303205Y-54673844D01*
X80196850Y-54652689D01*
X79996480Y-54569693D01*
X79816156Y-54449205D01*
X79662795Y-54295844D01*
X79542307Y-54115520D01*
X79459311Y-53915149D01*
X79417000Y-53702440D01*
X79417000Y-53485560D01*
X79459311Y-53272851D01*
X79542307Y-53072480D01*
X79662795Y-52892156D01*
X79816156Y-52738795D01*
X79996480Y-52618307D01*
X80196850Y-52535311D01*
X80303206Y-52514155D01*
X80409560Y-52493000D01*
X80626440Y-52493000D01*
X80732794Y-52514155D01*
G37*
G36*
X103351213Y-51349249D02*
G01*
X103445652Y-51377897D01*
X103532687Y-51424418D01*
X103608975Y-51487025D01*
X103671582Y-51563313D01*
X103718103Y-51650348D01*
X103746751Y-51744787D01*
X103754000Y-51818388D01*
X103754000Y-52667612D01*
X103746751Y-52741213D01*
X103718103Y-52835652D01*
X103671582Y-52922687D01*
X103608975Y-52998975D01*
X103532687Y-53061582D01*
X103445651Y-53108103D01*
X103351212Y-53136751D01*
X103253000Y-53146424D01*
X103154787Y-53136751D01*
X103060348Y-53108103D01*
X102973313Y-53061582D01*
X102897025Y-52998975D01*
X102834418Y-52922687D01*
X102787897Y-52835651D01*
X102759249Y-52741212D01*
X102752000Y-52667611D01*
X102752000Y-51818398D01*
X102759250Y-51744786D01*
X102769846Y-51709856D01*
X102787898Y-51650348D01*
X102834419Y-51563313D01*
X102897026Y-51487025D01*
X102973314Y-51424418D01*
X103060349Y-51377897D01*
X103154788Y-51349249D01*
X103253000Y-51339576D01*
X103351213Y-51349249D01*
G37*
G36*
X94711213Y-51349249D02*
G01*
X94805652Y-51377897D01*
X94892687Y-51424418D01*
X94968975Y-51487025D01*
X95031582Y-51563313D01*
X95078103Y-51650348D01*
X95106751Y-51744787D01*
X95114000Y-51818388D01*
X95114000Y-52667612D01*
X95106751Y-52741213D01*
X95078103Y-52835652D01*
X95031582Y-52922687D01*
X94968975Y-52998975D01*
X94892687Y-53061582D01*
X94805651Y-53108103D01*
X94711212Y-53136751D01*
X94613000Y-53146424D01*
X94514787Y-53136751D01*
X94420348Y-53108103D01*
X94333313Y-53061582D01*
X94257025Y-52998975D01*
X94194418Y-52922687D01*
X94147897Y-52835651D01*
X94119249Y-52741212D01*
X94112000Y-52667611D01*
X94112000Y-51818398D01*
X94119250Y-51744786D01*
X94129846Y-51709856D01*
X94147898Y-51650348D01*
X94194419Y-51563313D01*
X94257026Y-51487025D01*
X94333314Y-51424418D01*
X94420349Y-51377897D01*
X94514788Y-51349249D01*
X94613000Y-51339576D01*
X94711213Y-51349249D01*
G37*
M02*
