G04 #@! TF.GenerationSoftware,KiCad,Pcbnew,(5.1.5)-2*
G04 #@! TF.CreationDate,2021-05-19T15:06:28+02:00*
G04 #@! TF.ProjectId,Versie2,56657273-6965-4322-9e6b-696361645f70,rev?*
G04 #@! TF.SameCoordinates,Original*
G04 #@! TF.FileFunction,Soldermask,Top*
G04 #@! TF.FilePolarity,Negative*
%FSLAX46Y46*%
G04 Gerber Fmt 4.6, Leading zero omitted, Abs format (unit mm)*
G04 Created by KiCad (PCBNEW (5.1.5)-2) date 2021-05-19 15:06:28*
%MOMM*%
%LPD*%
G04 APERTURE LIST*
%ADD10C,0.100000*%
G04 APERTURE END LIST*
D10*
G36*
X101383491Y-92824685D02*
G01*
X101417469Y-92834993D01*
X101448790Y-92851734D01*
X101476239Y-92874261D01*
X101498766Y-92901710D01*
X101515507Y-92933031D01*
X101525815Y-92967009D01*
X101529900Y-93008490D01*
X101529900Y-93684710D01*
X101525815Y-93726191D01*
X101515507Y-93760169D01*
X101498766Y-93791490D01*
X101476239Y-93818939D01*
X101448790Y-93841466D01*
X101417469Y-93858207D01*
X101383491Y-93868515D01*
X101342010Y-93872600D01*
X100740790Y-93872600D01*
X100699309Y-93868515D01*
X100665331Y-93858207D01*
X100634010Y-93841466D01*
X100606561Y-93818939D01*
X100584034Y-93791490D01*
X100567293Y-93760169D01*
X100556985Y-93726191D01*
X100552900Y-93684710D01*
X100552900Y-93008490D01*
X100556985Y-92967009D01*
X100567293Y-92933031D01*
X100584034Y-92901710D01*
X100606561Y-92874261D01*
X100634010Y-92851734D01*
X100665331Y-92834993D01*
X100699309Y-92824685D01*
X100740790Y-92820600D01*
X101342010Y-92820600D01*
X101383491Y-92824685D01*
G37*
G36*
X99808491Y-92824685D02*
G01*
X99842469Y-92834993D01*
X99873790Y-92851734D01*
X99901239Y-92874261D01*
X99923766Y-92901710D01*
X99940507Y-92933031D01*
X99950815Y-92967009D01*
X99954900Y-93008490D01*
X99954900Y-93684710D01*
X99950815Y-93726191D01*
X99940507Y-93760169D01*
X99923766Y-93791490D01*
X99901239Y-93818939D01*
X99873790Y-93841466D01*
X99842469Y-93858207D01*
X99808491Y-93868515D01*
X99767010Y-93872600D01*
X99165790Y-93872600D01*
X99124309Y-93868515D01*
X99090331Y-93858207D01*
X99059010Y-93841466D01*
X99031561Y-93818939D01*
X99009034Y-93791490D01*
X98992293Y-93760169D01*
X98981985Y-93726191D01*
X98977900Y-93684710D01*
X98977900Y-93008490D01*
X98981985Y-92967009D01*
X98992293Y-92933031D01*
X99009034Y-92901710D01*
X99031561Y-92874261D01*
X99059010Y-92851734D01*
X99090331Y-92834993D01*
X99124309Y-92824685D01*
X99165790Y-92820600D01*
X99767010Y-92820600D01*
X99808491Y-92824685D01*
G37*
G36*
X96811291Y-92824685D02*
G01*
X96845269Y-92834993D01*
X96876590Y-92851734D01*
X96904039Y-92874261D01*
X96926566Y-92901710D01*
X96943307Y-92933031D01*
X96953615Y-92967009D01*
X96957700Y-93008490D01*
X96957700Y-93684710D01*
X96953615Y-93726191D01*
X96943307Y-93760169D01*
X96926566Y-93791490D01*
X96904039Y-93818939D01*
X96876590Y-93841466D01*
X96845269Y-93858207D01*
X96811291Y-93868515D01*
X96769810Y-93872600D01*
X96168590Y-93872600D01*
X96127109Y-93868515D01*
X96093131Y-93858207D01*
X96061810Y-93841466D01*
X96034361Y-93818939D01*
X96011834Y-93791490D01*
X95995093Y-93760169D01*
X95984785Y-93726191D01*
X95980700Y-93684710D01*
X95980700Y-93008490D01*
X95984785Y-92967009D01*
X95995093Y-92933031D01*
X96011834Y-92901710D01*
X96034361Y-92874261D01*
X96061810Y-92851734D01*
X96093131Y-92834993D01*
X96127109Y-92824685D01*
X96168590Y-92820600D01*
X96769810Y-92820600D01*
X96811291Y-92824685D01*
G37*
G36*
X98386291Y-92824685D02*
G01*
X98420269Y-92834993D01*
X98451590Y-92851734D01*
X98479039Y-92874261D01*
X98501566Y-92901710D01*
X98518307Y-92933031D01*
X98528615Y-92967009D01*
X98532700Y-93008490D01*
X98532700Y-93684710D01*
X98528615Y-93726191D01*
X98518307Y-93760169D01*
X98501566Y-93791490D01*
X98479039Y-93818939D01*
X98451590Y-93841466D01*
X98420269Y-93858207D01*
X98386291Y-93868515D01*
X98344810Y-93872600D01*
X97743590Y-93872600D01*
X97702109Y-93868515D01*
X97668131Y-93858207D01*
X97636810Y-93841466D01*
X97609361Y-93818939D01*
X97586834Y-93791490D01*
X97570093Y-93760169D01*
X97559785Y-93726191D01*
X97555700Y-93684710D01*
X97555700Y-93008490D01*
X97559785Y-92967009D01*
X97570093Y-92933031D01*
X97586834Y-92901710D01*
X97609361Y-92874261D01*
X97636810Y-92851734D01*
X97668131Y-92834993D01*
X97702109Y-92824685D01*
X97743590Y-92820600D01*
X98344810Y-92820600D01*
X98386291Y-92824685D01*
G37*
G36*
X81229791Y-92656785D02*
G01*
X81263769Y-92667093D01*
X81295090Y-92683834D01*
X81322539Y-92706361D01*
X81345066Y-92733810D01*
X81361807Y-92765131D01*
X81372115Y-92799109D01*
X81376200Y-92840590D01*
X81376200Y-93516810D01*
X81372115Y-93558291D01*
X81361807Y-93592269D01*
X81345066Y-93623590D01*
X81322539Y-93651039D01*
X81295090Y-93673566D01*
X81263769Y-93690307D01*
X81229791Y-93700615D01*
X81188310Y-93704700D01*
X80587090Y-93704700D01*
X80545609Y-93700615D01*
X80511631Y-93690307D01*
X80480310Y-93673566D01*
X80452861Y-93651039D01*
X80430334Y-93623590D01*
X80413593Y-93592269D01*
X80403285Y-93558291D01*
X80399200Y-93516810D01*
X80399200Y-92840590D01*
X80403285Y-92799109D01*
X80413593Y-92765131D01*
X80430334Y-92733810D01*
X80452861Y-92706361D01*
X80480310Y-92683834D01*
X80511631Y-92667093D01*
X80545609Y-92656785D01*
X80587090Y-92652700D01*
X81188310Y-92652700D01*
X81229791Y-92656785D01*
G37*
G36*
X85751291Y-92656785D02*
G01*
X85785269Y-92667093D01*
X85816590Y-92683834D01*
X85844039Y-92706361D01*
X85866566Y-92733810D01*
X85883307Y-92765131D01*
X85893615Y-92799109D01*
X85897700Y-92840590D01*
X85897700Y-93516810D01*
X85893615Y-93558291D01*
X85883307Y-93592269D01*
X85866566Y-93623590D01*
X85844039Y-93651039D01*
X85816590Y-93673566D01*
X85785269Y-93690307D01*
X85751291Y-93700615D01*
X85709810Y-93704700D01*
X85108590Y-93704700D01*
X85067109Y-93700615D01*
X85033131Y-93690307D01*
X85001810Y-93673566D01*
X84974361Y-93651039D01*
X84951834Y-93623590D01*
X84935093Y-93592269D01*
X84924785Y-93558291D01*
X84920700Y-93516810D01*
X84920700Y-92840590D01*
X84924785Y-92799109D01*
X84935093Y-92765131D01*
X84951834Y-92733810D01*
X84974361Y-92706361D01*
X85001810Y-92683834D01*
X85033131Y-92667093D01*
X85067109Y-92656785D01*
X85108590Y-92652700D01*
X85709810Y-92652700D01*
X85751291Y-92656785D01*
G37*
G36*
X84176291Y-92656785D02*
G01*
X84210269Y-92667093D01*
X84241590Y-92683834D01*
X84269039Y-92706361D01*
X84291566Y-92733810D01*
X84308307Y-92765131D01*
X84318615Y-92799109D01*
X84322700Y-92840590D01*
X84322700Y-93516810D01*
X84318615Y-93558291D01*
X84308307Y-93592269D01*
X84291566Y-93623590D01*
X84269039Y-93651039D01*
X84241590Y-93673566D01*
X84210269Y-93690307D01*
X84176291Y-93700615D01*
X84134810Y-93704700D01*
X83533590Y-93704700D01*
X83492109Y-93700615D01*
X83458131Y-93690307D01*
X83426810Y-93673566D01*
X83399361Y-93651039D01*
X83376834Y-93623590D01*
X83360093Y-93592269D01*
X83349785Y-93558291D01*
X83345700Y-93516810D01*
X83345700Y-92840590D01*
X83349785Y-92799109D01*
X83360093Y-92765131D01*
X83376834Y-92733810D01*
X83399361Y-92706361D01*
X83426810Y-92683834D01*
X83458131Y-92667093D01*
X83492109Y-92656785D01*
X83533590Y-92652700D01*
X84134810Y-92652700D01*
X84176291Y-92656785D01*
G37*
G36*
X82804791Y-92656785D02*
G01*
X82838769Y-92667093D01*
X82870090Y-92683834D01*
X82897539Y-92706361D01*
X82920066Y-92733810D01*
X82936807Y-92765131D01*
X82947115Y-92799109D01*
X82951200Y-92840590D01*
X82951200Y-93516810D01*
X82947115Y-93558291D01*
X82936807Y-93592269D01*
X82920066Y-93623590D01*
X82897539Y-93651039D01*
X82870090Y-93673566D01*
X82838769Y-93690307D01*
X82804791Y-93700615D01*
X82763310Y-93704700D01*
X82162090Y-93704700D01*
X82120609Y-93700615D01*
X82086631Y-93690307D01*
X82055310Y-93673566D01*
X82027861Y-93651039D01*
X82005334Y-93623590D01*
X81988593Y-93592269D01*
X81978285Y-93558291D01*
X81974200Y-93516810D01*
X81974200Y-92840590D01*
X81978285Y-92799109D01*
X81988593Y-92765131D01*
X82005334Y-92733810D01*
X82027861Y-92706361D01*
X82055310Y-92683834D01*
X82086631Y-92667093D01*
X82120609Y-92656785D01*
X82162090Y-92652700D01*
X82763310Y-92652700D01*
X82804791Y-92656785D01*
G37*
G36*
X109479591Y-91690585D02*
G01*
X109513569Y-91700893D01*
X109544890Y-91717634D01*
X109572339Y-91740161D01*
X109594866Y-91767610D01*
X109611607Y-91798931D01*
X109621915Y-91832909D01*
X109626000Y-91874390D01*
X109626000Y-92475610D01*
X109621915Y-92517091D01*
X109611607Y-92551069D01*
X109594866Y-92582390D01*
X109572339Y-92609839D01*
X109544890Y-92632366D01*
X109513569Y-92649107D01*
X109479591Y-92659415D01*
X109438110Y-92663500D01*
X108761890Y-92663500D01*
X108720409Y-92659415D01*
X108686431Y-92649107D01*
X108655110Y-92632366D01*
X108627661Y-92609839D01*
X108605134Y-92582390D01*
X108588393Y-92551069D01*
X108578085Y-92517091D01*
X108574000Y-92475610D01*
X108574000Y-91874390D01*
X108578085Y-91832909D01*
X108588393Y-91798931D01*
X108605134Y-91767610D01*
X108627661Y-91740161D01*
X108655110Y-91717634D01*
X108686431Y-91700893D01*
X108720409Y-91690585D01*
X108761890Y-91686500D01*
X109438110Y-91686500D01*
X109479591Y-91690585D01*
G37*
G36*
X95689228Y-90327964D02*
G01*
X95710309Y-90334360D01*
X95729745Y-90344748D01*
X95746776Y-90358724D01*
X95760752Y-90375755D01*
X95771140Y-90395191D01*
X95777536Y-90416272D01*
X95780300Y-90444340D01*
X95780300Y-92258060D01*
X95777536Y-92286128D01*
X95771140Y-92307209D01*
X95760752Y-92326645D01*
X95746776Y-92343676D01*
X95729745Y-92357652D01*
X95710309Y-92368040D01*
X95689228Y-92374436D01*
X95661160Y-92377200D01*
X95197440Y-92377200D01*
X95169372Y-92374436D01*
X95148291Y-92368040D01*
X95128855Y-92357652D01*
X95111824Y-92343676D01*
X95097848Y-92326645D01*
X95087460Y-92307209D01*
X95081064Y-92286128D01*
X95078300Y-92258060D01*
X95078300Y-90444340D01*
X95081064Y-90416272D01*
X95087460Y-90395191D01*
X95097848Y-90375755D01*
X95111824Y-90358724D01*
X95128855Y-90344748D01*
X95148291Y-90334360D01*
X95169372Y-90327964D01*
X95197440Y-90325200D01*
X95661160Y-90325200D01*
X95689228Y-90327964D01*
G37*
G36*
X96959228Y-90327964D02*
G01*
X96980309Y-90334360D01*
X96999745Y-90344748D01*
X97016776Y-90358724D01*
X97030752Y-90375755D01*
X97041140Y-90395191D01*
X97047536Y-90416272D01*
X97050300Y-90444340D01*
X97050300Y-92258060D01*
X97047536Y-92286128D01*
X97041140Y-92307209D01*
X97030752Y-92326645D01*
X97016776Y-92343676D01*
X96999745Y-92357652D01*
X96980309Y-92368040D01*
X96959228Y-92374436D01*
X96931160Y-92377200D01*
X96467440Y-92377200D01*
X96439372Y-92374436D01*
X96418291Y-92368040D01*
X96398855Y-92357652D01*
X96381824Y-92343676D01*
X96367848Y-92326645D01*
X96357460Y-92307209D01*
X96351064Y-92286128D01*
X96348300Y-92258060D01*
X96348300Y-90444340D01*
X96351064Y-90416272D01*
X96357460Y-90395191D01*
X96367848Y-90375755D01*
X96381824Y-90358724D01*
X96398855Y-90344748D01*
X96418291Y-90334360D01*
X96439372Y-90327964D01*
X96467440Y-90325200D01*
X96931160Y-90325200D01*
X96959228Y-90327964D01*
G37*
G36*
X98229228Y-90327964D02*
G01*
X98250309Y-90334360D01*
X98269745Y-90344748D01*
X98286776Y-90358724D01*
X98300752Y-90375755D01*
X98311140Y-90395191D01*
X98317536Y-90416272D01*
X98320300Y-90444340D01*
X98320300Y-92258060D01*
X98317536Y-92286128D01*
X98311140Y-92307209D01*
X98300752Y-92326645D01*
X98286776Y-92343676D01*
X98269745Y-92357652D01*
X98250309Y-92368040D01*
X98229228Y-92374436D01*
X98201160Y-92377200D01*
X97737440Y-92377200D01*
X97709372Y-92374436D01*
X97688291Y-92368040D01*
X97668855Y-92357652D01*
X97651824Y-92343676D01*
X97637848Y-92326645D01*
X97627460Y-92307209D01*
X97621064Y-92286128D01*
X97618300Y-92258060D01*
X97618300Y-90444340D01*
X97621064Y-90416272D01*
X97627460Y-90395191D01*
X97637848Y-90375755D01*
X97651824Y-90358724D01*
X97668855Y-90344748D01*
X97688291Y-90334360D01*
X97709372Y-90327964D01*
X97737440Y-90325200D01*
X98201160Y-90325200D01*
X98229228Y-90327964D01*
G37*
G36*
X99499228Y-90327964D02*
G01*
X99520309Y-90334360D01*
X99539745Y-90344748D01*
X99556776Y-90358724D01*
X99570752Y-90375755D01*
X99581140Y-90395191D01*
X99587536Y-90416272D01*
X99590300Y-90444340D01*
X99590300Y-92258060D01*
X99587536Y-92286128D01*
X99581140Y-92307209D01*
X99570752Y-92326645D01*
X99556776Y-92343676D01*
X99539745Y-92357652D01*
X99520309Y-92368040D01*
X99499228Y-92374436D01*
X99471160Y-92377200D01*
X99007440Y-92377200D01*
X98979372Y-92374436D01*
X98958291Y-92368040D01*
X98938855Y-92357652D01*
X98921824Y-92343676D01*
X98907848Y-92326645D01*
X98897460Y-92307209D01*
X98891064Y-92286128D01*
X98888300Y-92258060D01*
X98888300Y-90444340D01*
X98891064Y-90416272D01*
X98897460Y-90395191D01*
X98907848Y-90375755D01*
X98921824Y-90358724D01*
X98938855Y-90344748D01*
X98958291Y-90334360D01*
X98979372Y-90327964D01*
X99007440Y-90325200D01*
X99471160Y-90325200D01*
X99499228Y-90327964D01*
G37*
G36*
X101168291Y-91389185D02*
G01*
X101202269Y-91399493D01*
X101233590Y-91416234D01*
X101261039Y-91438761D01*
X101283566Y-91466210D01*
X101300307Y-91497531D01*
X101310615Y-91531509D01*
X101314700Y-91572990D01*
X101314700Y-92174210D01*
X101310615Y-92215691D01*
X101300307Y-92249669D01*
X101283566Y-92280990D01*
X101261039Y-92308439D01*
X101233590Y-92330966D01*
X101202269Y-92347707D01*
X101168291Y-92358015D01*
X101126810Y-92362100D01*
X100450590Y-92362100D01*
X100409109Y-92358015D01*
X100375131Y-92347707D01*
X100343810Y-92330966D01*
X100316361Y-92308439D01*
X100293834Y-92280990D01*
X100277093Y-92249669D01*
X100266785Y-92215691D01*
X100262700Y-92174210D01*
X100262700Y-91572990D01*
X100266785Y-91531509D01*
X100277093Y-91497531D01*
X100293834Y-91466210D01*
X100316361Y-91438761D01*
X100343810Y-91416234D01*
X100375131Y-91399493D01*
X100409109Y-91389185D01*
X100450590Y-91385100D01*
X101126810Y-91385100D01*
X101168291Y-91389185D01*
G37*
G36*
X81369127Y-90185464D02*
G01*
X81390208Y-90191860D01*
X81409644Y-90202248D01*
X81426675Y-90216224D01*
X81440651Y-90233255D01*
X81451039Y-90252691D01*
X81457435Y-90273772D01*
X81460199Y-90301840D01*
X81460199Y-92115560D01*
X81457435Y-92143628D01*
X81451039Y-92164709D01*
X81440651Y-92184145D01*
X81426675Y-92201176D01*
X81409644Y-92215152D01*
X81390208Y-92225540D01*
X81369127Y-92231936D01*
X81341059Y-92234700D01*
X80877339Y-92234700D01*
X80849271Y-92231936D01*
X80828190Y-92225540D01*
X80808754Y-92215152D01*
X80791723Y-92201176D01*
X80777747Y-92184145D01*
X80767359Y-92164709D01*
X80760963Y-92143628D01*
X80758199Y-92115560D01*
X80758199Y-90301840D01*
X80760963Y-90273772D01*
X80767359Y-90252691D01*
X80777747Y-90233255D01*
X80791723Y-90216224D01*
X80808754Y-90202248D01*
X80828190Y-90191860D01*
X80849271Y-90185464D01*
X80877339Y-90182700D01*
X81341059Y-90182700D01*
X81369127Y-90185464D01*
G37*
G36*
X82639127Y-90185464D02*
G01*
X82660208Y-90191860D01*
X82679644Y-90202248D01*
X82696675Y-90216224D01*
X82710651Y-90233255D01*
X82721039Y-90252691D01*
X82727435Y-90273772D01*
X82730199Y-90301840D01*
X82730199Y-92115560D01*
X82727435Y-92143628D01*
X82721039Y-92164709D01*
X82710651Y-92184145D01*
X82696675Y-92201176D01*
X82679644Y-92215152D01*
X82660208Y-92225540D01*
X82639127Y-92231936D01*
X82611059Y-92234700D01*
X82147339Y-92234700D01*
X82119271Y-92231936D01*
X82098190Y-92225540D01*
X82078754Y-92215152D01*
X82061723Y-92201176D01*
X82047747Y-92184145D01*
X82037359Y-92164709D01*
X82030963Y-92143628D01*
X82028199Y-92115560D01*
X82028199Y-90301840D01*
X82030963Y-90273772D01*
X82037359Y-90252691D01*
X82047747Y-90233255D01*
X82061723Y-90216224D01*
X82078754Y-90202248D01*
X82098190Y-90191860D01*
X82119271Y-90185464D01*
X82147339Y-90182700D01*
X82611059Y-90182700D01*
X82639127Y-90185464D01*
G37*
G36*
X83909127Y-90185464D02*
G01*
X83930208Y-90191860D01*
X83949644Y-90202248D01*
X83966675Y-90216224D01*
X83980651Y-90233255D01*
X83991039Y-90252691D01*
X83997435Y-90273772D01*
X84000199Y-90301840D01*
X84000199Y-92115560D01*
X83997435Y-92143628D01*
X83991039Y-92164709D01*
X83980651Y-92184145D01*
X83966675Y-92201176D01*
X83949644Y-92215152D01*
X83930208Y-92225540D01*
X83909127Y-92231936D01*
X83881059Y-92234700D01*
X83417339Y-92234700D01*
X83389271Y-92231936D01*
X83368190Y-92225540D01*
X83348754Y-92215152D01*
X83331723Y-92201176D01*
X83317747Y-92184145D01*
X83307359Y-92164709D01*
X83300963Y-92143628D01*
X83298199Y-92115560D01*
X83298199Y-90301840D01*
X83300963Y-90273772D01*
X83307359Y-90252691D01*
X83317747Y-90233255D01*
X83331723Y-90216224D01*
X83348754Y-90202248D01*
X83368190Y-90191860D01*
X83389271Y-90185464D01*
X83417339Y-90182700D01*
X83881059Y-90182700D01*
X83909127Y-90185464D01*
G37*
G36*
X80099127Y-90185464D02*
G01*
X80120208Y-90191860D01*
X80139644Y-90202248D01*
X80156675Y-90216224D01*
X80170651Y-90233255D01*
X80181039Y-90252691D01*
X80187435Y-90273772D01*
X80190199Y-90301840D01*
X80190199Y-92115560D01*
X80187435Y-92143628D01*
X80181039Y-92164709D01*
X80170651Y-92184145D01*
X80156675Y-92201176D01*
X80139644Y-92215152D01*
X80120208Y-92225540D01*
X80099127Y-92231936D01*
X80071059Y-92234700D01*
X79607339Y-92234700D01*
X79579271Y-92231936D01*
X79558190Y-92225540D01*
X79538754Y-92215152D01*
X79521723Y-92201176D01*
X79507747Y-92184145D01*
X79497359Y-92164709D01*
X79490963Y-92143628D01*
X79488199Y-92115560D01*
X79488199Y-90301840D01*
X79490963Y-90273772D01*
X79497359Y-90252691D01*
X79507747Y-90233255D01*
X79521723Y-90216224D01*
X79538754Y-90202248D01*
X79558190Y-90191860D01*
X79579271Y-90185464D01*
X79607339Y-90182700D01*
X80071059Y-90182700D01*
X80099127Y-90185464D01*
G37*
G36*
X85610791Y-91224085D02*
G01*
X85644769Y-91234393D01*
X85676090Y-91251134D01*
X85703539Y-91273661D01*
X85726066Y-91301110D01*
X85742807Y-91332431D01*
X85753115Y-91366409D01*
X85757200Y-91407890D01*
X85757200Y-92009110D01*
X85753115Y-92050591D01*
X85742807Y-92084569D01*
X85726066Y-92115890D01*
X85703539Y-92143339D01*
X85676090Y-92165866D01*
X85644769Y-92182607D01*
X85610791Y-92192915D01*
X85569310Y-92197000D01*
X84893090Y-92197000D01*
X84851609Y-92192915D01*
X84817631Y-92182607D01*
X84786310Y-92165866D01*
X84758861Y-92143339D01*
X84736334Y-92115890D01*
X84719593Y-92084569D01*
X84709285Y-92050591D01*
X84705200Y-92009110D01*
X84705200Y-91407890D01*
X84709285Y-91366409D01*
X84719593Y-91332431D01*
X84736334Y-91301110D01*
X84758861Y-91273661D01*
X84786310Y-91251134D01*
X84817631Y-91234393D01*
X84851609Y-91224085D01*
X84893090Y-91220000D01*
X85569310Y-91220000D01*
X85610791Y-91224085D01*
G37*
G36*
X94272191Y-90919085D02*
G01*
X94306169Y-90929393D01*
X94337490Y-90946134D01*
X94364939Y-90968661D01*
X94387466Y-90996110D01*
X94404207Y-91027431D01*
X94414515Y-91061409D01*
X94418600Y-91102890D01*
X94418600Y-91704110D01*
X94414515Y-91745591D01*
X94404207Y-91779569D01*
X94387466Y-91810890D01*
X94364939Y-91838339D01*
X94337490Y-91860866D01*
X94306169Y-91877607D01*
X94272191Y-91887915D01*
X94230710Y-91892000D01*
X93554490Y-91892000D01*
X93513009Y-91887915D01*
X93479031Y-91877607D01*
X93447710Y-91860866D01*
X93420261Y-91838339D01*
X93397734Y-91810890D01*
X93380993Y-91779569D01*
X93370685Y-91745591D01*
X93366600Y-91704110D01*
X93366600Y-91102890D01*
X93370685Y-91061409D01*
X93380993Y-91027431D01*
X93397734Y-90996110D01*
X93420261Y-90968661D01*
X93447710Y-90946134D01*
X93479031Y-90929393D01*
X93513009Y-90919085D01*
X93554490Y-90915000D01*
X94230710Y-90915000D01*
X94272191Y-90919085D01*
G37*
G36*
X78574991Y-90716085D02*
G01*
X78608969Y-90726393D01*
X78640290Y-90743134D01*
X78667739Y-90765661D01*
X78690266Y-90793110D01*
X78707007Y-90824431D01*
X78717315Y-90858409D01*
X78721400Y-90899890D01*
X78721400Y-91501110D01*
X78717315Y-91542591D01*
X78707007Y-91576569D01*
X78690266Y-91607890D01*
X78667739Y-91635339D01*
X78640290Y-91657866D01*
X78608969Y-91674607D01*
X78574991Y-91684915D01*
X78533510Y-91689000D01*
X77857290Y-91689000D01*
X77815809Y-91684915D01*
X77781831Y-91674607D01*
X77750510Y-91657866D01*
X77723061Y-91635339D01*
X77700534Y-91607890D01*
X77683793Y-91576569D01*
X77673485Y-91542591D01*
X77669400Y-91501110D01*
X77669400Y-90899890D01*
X77673485Y-90858409D01*
X77683793Y-90824431D01*
X77700534Y-90793110D01*
X77723061Y-90765661D01*
X77750510Y-90743134D01*
X77781831Y-90726393D01*
X77815809Y-90716085D01*
X77857290Y-90712000D01*
X78533510Y-90712000D01*
X78574991Y-90716085D01*
G37*
G36*
X91407963Y-89448552D02*
G01*
X91572150Y-89481211D01*
X91772520Y-89564207D01*
X91952844Y-89684695D01*
X92106205Y-89838056D01*
X92226693Y-90018380D01*
X92249249Y-90072836D01*
X92309689Y-90218750D01*
X92321044Y-90275836D01*
X92352000Y-90431460D01*
X92352000Y-90648340D01*
X92333144Y-90743134D01*
X92309689Y-90861050D01*
X92274446Y-90946134D01*
X92226693Y-91061420D01*
X92106205Y-91241744D01*
X91952844Y-91395105D01*
X91772520Y-91515593D01*
X91572150Y-91598589D01*
X91477274Y-91617461D01*
X91359440Y-91640900D01*
X91142560Y-91640900D01*
X91024726Y-91617461D01*
X90929850Y-91598589D01*
X90829666Y-91557091D01*
X90729480Y-91515593D01*
X90549156Y-91395105D01*
X90395795Y-91241744D01*
X90275307Y-91061420D01*
X90227554Y-90946134D01*
X90192311Y-90861050D01*
X90168856Y-90743134D01*
X90150000Y-90648340D01*
X90150000Y-90431460D01*
X90180956Y-90275836D01*
X90192311Y-90218750D01*
X90252751Y-90072836D01*
X90275307Y-90018380D01*
X90395795Y-89838056D01*
X90549156Y-89684695D01*
X90729480Y-89564207D01*
X90829666Y-89522709D01*
X90929850Y-89481211D01*
X91094037Y-89448552D01*
X91142560Y-89438900D01*
X91359440Y-89438900D01*
X91407963Y-89448552D01*
G37*
G36*
X89812000Y-91640900D02*
G01*
X87610000Y-91640900D01*
X87610000Y-89438900D01*
X89812000Y-89438900D01*
X89812000Y-91640900D01*
G37*
G36*
X67993400Y-91590100D02*
G01*
X65791400Y-91590100D01*
X65791400Y-89388100D01*
X67993400Y-89388100D01*
X67993400Y-91590100D01*
G37*
G36*
X69647194Y-89409255D02*
G01*
X69753550Y-89430411D01*
X69853734Y-89471909D01*
X69953920Y-89513407D01*
X70134244Y-89633895D01*
X70287605Y-89787256D01*
X70408093Y-89967580D01*
X70444034Y-90054350D01*
X70491089Y-90167950D01*
X70499906Y-90212277D01*
X70533400Y-90380660D01*
X70533400Y-90597540D01*
X70525686Y-90636320D01*
X70491089Y-90810250D01*
X70471141Y-90858409D01*
X70408093Y-91010620D01*
X70287605Y-91190944D01*
X70134244Y-91344305D01*
X69953920Y-91464793D01*
X69753550Y-91547789D01*
X69647194Y-91568945D01*
X69540840Y-91590100D01*
X69323960Y-91590100D01*
X69217606Y-91568945D01*
X69111250Y-91547789D01*
X68910880Y-91464793D01*
X68730556Y-91344305D01*
X68577195Y-91190944D01*
X68456707Y-91010620D01*
X68393659Y-90858409D01*
X68373711Y-90810250D01*
X68339114Y-90636320D01*
X68331400Y-90597540D01*
X68331400Y-90380660D01*
X68364894Y-90212277D01*
X68373711Y-90167950D01*
X68420766Y-90054350D01*
X68456707Y-89967580D01*
X68577195Y-89787256D01*
X68730556Y-89633895D01*
X68910880Y-89513407D01*
X69011066Y-89471909D01*
X69111250Y-89430411D01*
X69217606Y-89409255D01*
X69323960Y-89388100D01*
X69540840Y-89388100D01*
X69647194Y-89409255D01*
G37*
G36*
X73949700Y-91590100D02*
G01*
X71747700Y-91590100D01*
X71747700Y-89388100D01*
X73949700Y-89388100D01*
X73949700Y-91590100D01*
G37*
G36*
X75603494Y-89409255D02*
G01*
X75709850Y-89430411D01*
X75810034Y-89471909D01*
X75910220Y-89513407D01*
X76090544Y-89633895D01*
X76243905Y-89787256D01*
X76364393Y-89967580D01*
X76400334Y-90054350D01*
X76447389Y-90167950D01*
X76456206Y-90212277D01*
X76489700Y-90380660D01*
X76489700Y-90597540D01*
X76481986Y-90636320D01*
X76447389Y-90810250D01*
X76427441Y-90858409D01*
X76364393Y-91010620D01*
X76243905Y-91190944D01*
X76090544Y-91344305D01*
X75910220Y-91464793D01*
X75709850Y-91547789D01*
X75603494Y-91568945D01*
X75497140Y-91590100D01*
X75280260Y-91590100D01*
X75173906Y-91568945D01*
X75067550Y-91547789D01*
X74867180Y-91464793D01*
X74686856Y-91344305D01*
X74533495Y-91190944D01*
X74413007Y-91010620D01*
X74349959Y-90858409D01*
X74330011Y-90810250D01*
X74295414Y-90636320D01*
X74287700Y-90597540D01*
X74287700Y-90380660D01*
X74321194Y-90212277D01*
X74330011Y-90167950D01*
X74377066Y-90054350D01*
X74413007Y-89967580D01*
X74533495Y-89787256D01*
X74686856Y-89633895D01*
X74867180Y-89513407D01*
X74967366Y-89471909D01*
X75067550Y-89430411D01*
X75173906Y-89409255D01*
X75280260Y-89388100D01*
X75497140Y-89388100D01*
X75603494Y-89409255D01*
G37*
G36*
X105115500Y-91577400D02*
G01*
X102913500Y-91577400D01*
X102913500Y-89375400D01*
X105115500Y-89375400D01*
X105115500Y-91577400D01*
G37*
G36*
X106726786Y-89388100D02*
G01*
X106875650Y-89417711D01*
X106906310Y-89430411D01*
X107076020Y-89500707D01*
X107256344Y-89621195D01*
X107409705Y-89774556D01*
X107530193Y-89954880D01*
X107549532Y-90001569D01*
X107613189Y-90155250D01*
X107628705Y-90233255D01*
X107655500Y-90367960D01*
X107655500Y-90584840D01*
X107650971Y-90607607D01*
X107615268Y-90787100D01*
X107613189Y-90797549D01*
X107530193Y-90997920D01*
X107409705Y-91178244D01*
X107256344Y-91331605D01*
X107076020Y-91452093D01*
X107046670Y-91464250D01*
X106875650Y-91535089D01*
X106811803Y-91547789D01*
X106662940Y-91577400D01*
X106446060Y-91577400D01*
X106297197Y-91547789D01*
X106233350Y-91535089D01*
X106062330Y-91464250D01*
X106032980Y-91452093D01*
X105852656Y-91331605D01*
X105699295Y-91178244D01*
X105578807Y-90997920D01*
X105495811Y-90797549D01*
X105493733Y-90787100D01*
X105458029Y-90607607D01*
X105453500Y-90584840D01*
X105453500Y-90367960D01*
X105480295Y-90233255D01*
X105495811Y-90155250D01*
X105559468Y-90001569D01*
X105578807Y-89954880D01*
X105699295Y-89774556D01*
X105852656Y-89621195D01*
X106032980Y-89500707D01*
X106202690Y-89430411D01*
X106233350Y-89417711D01*
X106382214Y-89388100D01*
X106446060Y-89375400D01*
X106662940Y-89375400D01*
X106726786Y-89388100D01*
G37*
G36*
X109479591Y-90115585D02*
G01*
X109513569Y-90125893D01*
X109544890Y-90142634D01*
X109572339Y-90165161D01*
X109594866Y-90192610D01*
X109611607Y-90223931D01*
X109621915Y-90257909D01*
X109626000Y-90299390D01*
X109626000Y-90900610D01*
X109621915Y-90942091D01*
X109611607Y-90976069D01*
X109594866Y-91007390D01*
X109572339Y-91034839D01*
X109544890Y-91057366D01*
X109513569Y-91074107D01*
X109479591Y-91084415D01*
X109438110Y-91088500D01*
X108761890Y-91088500D01*
X108720409Y-91084415D01*
X108686431Y-91074107D01*
X108655110Y-91057366D01*
X108627661Y-91034839D01*
X108605134Y-91007390D01*
X108588393Y-90976069D01*
X108578085Y-90942091D01*
X108574000Y-90900610D01*
X108574000Y-90299390D01*
X108578085Y-90257909D01*
X108588393Y-90223931D01*
X108605134Y-90192610D01*
X108627661Y-90165161D01*
X108655110Y-90142634D01*
X108686431Y-90125893D01*
X108720409Y-90115585D01*
X108761890Y-90111500D01*
X109438110Y-90111500D01*
X109479591Y-90115585D01*
G37*
G36*
X101168291Y-89814185D02*
G01*
X101202269Y-89824493D01*
X101233590Y-89841234D01*
X101261039Y-89863761D01*
X101283566Y-89891210D01*
X101300307Y-89922531D01*
X101310615Y-89956509D01*
X101314700Y-89997990D01*
X101314700Y-90599210D01*
X101310615Y-90640691D01*
X101300307Y-90674669D01*
X101283566Y-90705990D01*
X101261039Y-90733439D01*
X101233590Y-90755966D01*
X101202269Y-90772707D01*
X101168291Y-90783015D01*
X101126810Y-90787100D01*
X100450590Y-90787100D01*
X100409109Y-90783015D01*
X100375131Y-90772707D01*
X100343810Y-90755966D01*
X100316361Y-90733439D01*
X100293834Y-90705990D01*
X100277093Y-90674669D01*
X100266785Y-90640691D01*
X100262700Y-90599210D01*
X100262700Y-89997990D01*
X100266785Y-89956509D01*
X100277093Y-89922531D01*
X100293834Y-89891210D01*
X100316361Y-89863761D01*
X100343810Y-89841234D01*
X100375131Y-89824493D01*
X100409109Y-89814185D01*
X100450590Y-89810100D01*
X101126810Y-89810100D01*
X101168291Y-89814185D01*
G37*
G36*
X85610791Y-89649085D02*
G01*
X85644769Y-89659393D01*
X85676090Y-89676134D01*
X85703539Y-89698661D01*
X85726066Y-89726110D01*
X85742807Y-89757431D01*
X85753115Y-89791409D01*
X85757200Y-89832890D01*
X85757200Y-90434110D01*
X85753115Y-90475591D01*
X85742807Y-90509569D01*
X85726066Y-90540890D01*
X85703539Y-90568339D01*
X85676090Y-90590866D01*
X85644769Y-90607607D01*
X85610791Y-90617915D01*
X85569310Y-90622000D01*
X84893090Y-90622000D01*
X84851609Y-90617915D01*
X84817631Y-90607607D01*
X84786310Y-90590866D01*
X84758861Y-90568339D01*
X84736334Y-90540890D01*
X84719593Y-90509569D01*
X84709285Y-90475591D01*
X84705200Y-90434110D01*
X84705200Y-89832890D01*
X84709285Y-89791409D01*
X84719593Y-89757431D01*
X84736334Y-89726110D01*
X84758861Y-89698661D01*
X84786310Y-89676134D01*
X84817631Y-89659393D01*
X84851609Y-89649085D01*
X84893090Y-89645000D01*
X85569310Y-89645000D01*
X85610791Y-89649085D01*
G37*
G36*
X94272191Y-89344085D02*
G01*
X94306169Y-89354393D01*
X94337490Y-89371134D01*
X94364939Y-89393661D01*
X94387466Y-89421110D01*
X94404207Y-89452431D01*
X94414515Y-89486409D01*
X94418600Y-89527890D01*
X94418600Y-90129110D01*
X94414515Y-90170591D01*
X94404207Y-90204569D01*
X94387466Y-90235890D01*
X94364939Y-90263339D01*
X94337490Y-90285866D01*
X94306169Y-90302607D01*
X94272191Y-90312915D01*
X94230710Y-90317000D01*
X93554490Y-90317000D01*
X93513009Y-90312915D01*
X93479031Y-90302607D01*
X93447710Y-90285866D01*
X93420261Y-90263339D01*
X93397734Y-90235890D01*
X93380993Y-90204569D01*
X93370685Y-90170591D01*
X93366600Y-90129110D01*
X93366600Y-89527890D01*
X93370685Y-89486409D01*
X93380993Y-89452431D01*
X93397734Y-89421110D01*
X93420261Y-89393661D01*
X93447710Y-89371134D01*
X93479031Y-89354393D01*
X93513009Y-89344085D01*
X93554490Y-89340000D01*
X94230710Y-89340000D01*
X94272191Y-89344085D01*
G37*
G36*
X78574991Y-89141085D02*
G01*
X78608969Y-89151393D01*
X78640290Y-89168134D01*
X78667739Y-89190661D01*
X78690266Y-89218110D01*
X78707007Y-89249431D01*
X78717315Y-89283409D01*
X78721400Y-89324890D01*
X78721400Y-89926110D01*
X78717315Y-89967591D01*
X78707007Y-90001569D01*
X78690266Y-90032890D01*
X78667739Y-90060339D01*
X78640290Y-90082866D01*
X78608969Y-90099607D01*
X78574991Y-90109915D01*
X78533510Y-90114000D01*
X77857290Y-90114000D01*
X77815809Y-90109915D01*
X77781831Y-90099607D01*
X77750510Y-90082866D01*
X77723061Y-90060339D01*
X77700534Y-90032890D01*
X77683793Y-90001569D01*
X77673485Y-89967591D01*
X77669400Y-89926110D01*
X77669400Y-89324890D01*
X77673485Y-89283409D01*
X77683793Y-89249431D01*
X77700534Y-89218110D01*
X77723061Y-89190661D01*
X77750510Y-89168134D01*
X77781831Y-89151393D01*
X77815809Y-89141085D01*
X77857290Y-89137000D01*
X78533510Y-89137000D01*
X78574991Y-89141085D01*
G37*
G36*
X114896200Y-88632600D02*
G01*
X113094200Y-88632600D01*
X113094200Y-86830600D01*
X114896200Y-86830600D01*
X114896200Y-88632600D01*
G37*
G36*
X95689228Y-85377964D02*
G01*
X95710309Y-85384360D01*
X95729745Y-85394748D01*
X95746776Y-85408724D01*
X95760752Y-85425755D01*
X95771140Y-85445191D01*
X95777536Y-85466272D01*
X95780300Y-85494340D01*
X95780300Y-87308060D01*
X95777536Y-87336128D01*
X95771140Y-87357209D01*
X95760752Y-87376645D01*
X95746776Y-87393676D01*
X95729745Y-87407652D01*
X95710309Y-87418040D01*
X95689228Y-87424436D01*
X95661160Y-87427200D01*
X95197440Y-87427200D01*
X95169372Y-87424436D01*
X95148291Y-87418040D01*
X95128855Y-87407652D01*
X95111824Y-87393676D01*
X95097848Y-87376645D01*
X95087460Y-87357209D01*
X95081064Y-87336128D01*
X95078300Y-87308060D01*
X95078300Y-85494340D01*
X95081064Y-85466272D01*
X95087460Y-85445191D01*
X95097848Y-85425755D01*
X95111824Y-85408724D01*
X95128855Y-85394748D01*
X95148291Y-85384360D01*
X95169372Y-85377964D01*
X95197440Y-85375200D01*
X95661160Y-85375200D01*
X95689228Y-85377964D01*
G37*
G36*
X98229228Y-85377964D02*
G01*
X98250309Y-85384360D01*
X98269745Y-85394748D01*
X98286776Y-85408724D01*
X98300752Y-85425755D01*
X98311140Y-85445191D01*
X98317536Y-85466272D01*
X98320300Y-85494340D01*
X98320300Y-87308060D01*
X98317536Y-87336128D01*
X98311140Y-87357209D01*
X98300752Y-87376645D01*
X98286776Y-87393676D01*
X98269745Y-87407652D01*
X98250309Y-87418040D01*
X98229228Y-87424436D01*
X98201160Y-87427200D01*
X97737440Y-87427200D01*
X97709372Y-87424436D01*
X97688291Y-87418040D01*
X97668855Y-87407652D01*
X97651824Y-87393676D01*
X97637848Y-87376645D01*
X97627460Y-87357209D01*
X97621064Y-87336128D01*
X97618300Y-87308060D01*
X97618300Y-85494340D01*
X97621064Y-85466272D01*
X97627460Y-85445191D01*
X97637848Y-85425755D01*
X97651824Y-85408724D01*
X97668855Y-85394748D01*
X97688291Y-85384360D01*
X97709372Y-85377964D01*
X97737440Y-85375200D01*
X98201160Y-85375200D01*
X98229228Y-85377964D01*
G37*
G36*
X96959228Y-85377964D02*
G01*
X96980309Y-85384360D01*
X96999745Y-85394748D01*
X97016776Y-85408724D01*
X97030752Y-85425755D01*
X97041140Y-85445191D01*
X97047536Y-85466272D01*
X97050300Y-85494340D01*
X97050300Y-87308060D01*
X97047536Y-87336128D01*
X97041140Y-87357209D01*
X97030752Y-87376645D01*
X97016776Y-87393676D01*
X96999745Y-87407652D01*
X96980309Y-87418040D01*
X96959228Y-87424436D01*
X96931160Y-87427200D01*
X96467440Y-87427200D01*
X96439372Y-87424436D01*
X96418291Y-87418040D01*
X96398855Y-87407652D01*
X96381824Y-87393676D01*
X96367848Y-87376645D01*
X96357460Y-87357209D01*
X96351064Y-87336128D01*
X96348300Y-87308060D01*
X96348300Y-85494340D01*
X96351064Y-85466272D01*
X96357460Y-85445191D01*
X96367848Y-85425755D01*
X96381824Y-85408724D01*
X96398855Y-85394748D01*
X96418291Y-85384360D01*
X96439372Y-85377964D01*
X96467440Y-85375200D01*
X96931160Y-85375200D01*
X96959228Y-85377964D01*
G37*
G36*
X99499228Y-85377964D02*
G01*
X99520309Y-85384360D01*
X99539745Y-85394748D01*
X99556776Y-85408724D01*
X99570752Y-85425755D01*
X99581140Y-85445191D01*
X99587536Y-85466272D01*
X99590300Y-85494340D01*
X99590300Y-87308060D01*
X99587536Y-87336128D01*
X99581140Y-87357209D01*
X99570752Y-87376645D01*
X99556776Y-87393676D01*
X99539745Y-87407652D01*
X99520309Y-87418040D01*
X99499228Y-87424436D01*
X99471160Y-87427200D01*
X99007440Y-87427200D01*
X98979372Y-87424436D01*
X98958291Y-87418040D01*
X98938855Y-87407652D01*
X98921824Y-87393676D01*
X98907848Y-87376645D01*
X98897460Y-87357209D01*
X98891064Y-87336128D01*
X98888300Y-87308060D01*
X98888300Y-85494340D01*
X98891064Y-85466272D01*
X98897460Y-85445191D01*
X98907848Y-85425755D01*
X98921824Y-85408724D01*
X98938855Y-85394748D01*
X98958291Y-85384360D01*
X98979372Y-85377964D01*
X99007440Y-85375200D01*
X99471160Y-85375200D01*
X99499228Y-85377964D01*
G37*
G36*
X101344591Y-86383585D02*
G01*
X101378569Y-86393893D01*
X101409890Y-86410634D01*
X101437339Y-86433161D01*
X101459866Y-86460610D01*
X101476607Y-86491931D01*
X101486915Y-86525909D01*
X101491000Y-86567390D01*
X101491000Y-87168610D01*
X101486915Y-87210091D01*
X101476607Y-87244069D01*
X101459866Y-87275390D01*
X101437339Y-87302839D01*
X101409890Y-87325366D01*
X101378569Y-87342107D01*
X101344591Y-87352415D01*
X101303110Y-87356500D01*
X100626890Y-87356500D01*
X100585409Y-87352415D01*
X100551431Y-87342107D01*
X100520110Y-87325366D01*
X100492661Y-87302839D01*
X100470134Y-87275390D01*
X100453393Y-87244069D01*
X100443085Y-87210091D01*
X100439000Y-87168610D01*
X100439000Y-86567390D01*
X100443085Y-86525909D01*
X100453393Y-86491931D01*
X100470134Y-86460610D01*
X100492661Y-86433161D01*
X100520110Y-86410634D01*
X100551431Y-86393893D01*
X100585409Y-86383585D01*
X100626890Y-86379500D01*
X101303110Y-86379500D01*
X101344591Y-86383585D01*
G37*
G36*
X83909127Y-85235464D02*
G01*
X83930208Y-85241860D01*
X83949644Y-85252248D01*
X83966675Y-85266224D01*
X83980651Y-85283255D01*
X83991039Y-85302691D01*
X83997435Y-85323772D01*
X84000199Y-85351840D01*
X84000199Y-87165560D01*
X83997435Y-87193628D01*
X83991039Y-87214709D01*
X83980651Y-87234145D01*
X83966675Y-87251176D01*
X83949644Y-87265152D01*
X83930208Y-87275540D01*
X83909127Y-87281936D01*
X83881059Y-87284700D01*
X83417339Y-87284700D01*
X83389271Y-87281936D01*
X83368190Y-87275540D01*
X83348754Y-87265152D01*
X83331723Y-87251176D01*
X83317747Y-87234145D01*
X83307359Y-87214709D01*
X83300963Y-87193628D01*
X83298199Y-87165560D01*
X83298199Y-85351840D01*
X83300963Y-85323772D01*
X83307359Y-85302691D01*
X83317747Y-85283255D01*
X83331723Y-85266224D01*
X83348754Y-85252248D01*
X83368190Y-85241860D01*
X83389271Y-85235464D01*
X83417339Y-85232700D01*
X83881059Y-85232700D01*
X83909127Y-85235464D01*
G37*
G36*
X82639127Y-85235464D02*
G01*
X82660208Y-85241860D01*
X82679644Y-85252248D01*
X82696675Y-85266224D01*
X82710651Y-85283255D01*
X82721039Y-85302691D01*
X82727435Y-85323772D01*
X82730199Y-85351840D01*
X82730199Y-87165560D01*
X82727435Y-87193628D01*
X82721039Y-87214709D01*
X82710651Y-87234145D01*
X82696675Y-87251176D01*
X82679644Y-87265152D01*
X82660208Y-87275540D01*
X82639127Y-87281936D01*
X82611059Y-87284700D01*
X82147339Y-87284700D01*
X82119271Y-87281936D01*
X82098190Y-87275540D01*
X82078754Y-87265152D01*
X82061723Y-87251176D01*
X82047747Y-87234145D01*
X82037359Y-87214709D01*
X82030963Y-87193628D01*
X82028199Y-87165560D01*
X82028199Y-85351840D01*
X82030963Y-85323772D01*
X82037359Y-85302691D01*
X82047747Y-85283255D01*
X82061723Y-85266224D01*
X82078754Y-85252248D01*
X82098190Y-85241860D01*
X82119271Y-85235464D01*
X82147339Y-85232700D01*
X82611059Y-85232700D01*
X82639127Y-85235464D01*
G37*
G36*
X81369127Y-85235464D02*
G01*
X81390208Y-85241860D01*
X81409644Y-85252248D01*
X81426675Y-85266224D01*
X81440651Y-85283255D01*
X81451039Y-85302691D01*
X81457435Y-85323772D01*
X81460199Y-85351840D01*
X81460199Y-87165560D01*
X81457435Y-87193628D01*
X81451039Y-87214709D01*
X81440651Y-87234145D01*
X81426675Y-87251176D01*
X81409644Y-87265152D01*
X81390208Y-87275540D01*
X81369127Y-87281936D01*
X81341059Y-87284700D01*
X80877339Y-87284700D01*
X80849271Y-87281936D01*
X80828190Y-87275540D01*
X80808754Y-87265152D01*
X80791723Y-87251176D01*
X80777747Y-87234145D01*
X80767359Y-87214709D01*
X80760963Y-87193628D01*
X80758199Y-87165560D01*
X80758199Y-85351840D01*
X80760963Y-85323772D01*
X80767359Y-85302691D01*
X80777747Y-85283255D01*
X80791723Y-85266224D01*
X80808754Y-85252248D01*
X80828190Y-85241860D01*
X80849271Y-85235464D01*
X80877339Y-85232700D01*
X81341059Y-85232700D01*
X81369127Y-85235464D01*
G37*
G36*
X80099127Y-85235464D02*
G01*
X80120208Y-85241860D01*
X80139644Y-85252248D01*
X80156675Y-85266224D01*
X80170651Y-85283255D01*
X80181039Y-85302691D01*
X80187435Y-85323772D01*
X80190199Y-85351840D01*
X80190199Y-87165560D01*
X80187435Y-87193628D01*
X80181039Y-87214709D01*
X80170651Y-87234145D01*
X80156675Y-87251176D01*
X80139644Y-87265152D01*
X80120208Y-87275540D01*
X80099127Y-87281936D01*
X80071059Y-87284700D01*
X79607339Y-87284700D01*
X79579271Y-87281936D01*
X79558190Y-87275540D01*
X79538754Y-87265152D01*
X79521723Y-87251176D01*
X79507747Y-87234145D01*
X79497359Y-87214709D01*
X79490963Y-87193628D01*
X79488199Y-87165560D01*
X79488199Y-85351840D01*
X79490963Y-85323772D01*
X79497359Y-85302691D01*
X79507747Y-85283255D01*
X79521723Y-85266224D01*
X79538754Y-85252248D01*
X79558190Y-85241860D01*
X79579271Y-85235464D01*
X79607339Y-85232700D01*
X80071059Y-85232700D01*
X80099127Y-85235464D01*
G37*
G36*
X67767991Y-85649185D02*
G01*
X67801969Y-85659493D01*
X67833290Y-85676234D01*
X67860739Y-85698761D01*
X67883266Y-85726210D01*
X67900007Y-85757531D01*
X67910315Y-85791509D01*
X67914400Y-85832990D01*
X67914400Y-86509210D01*
X67910315Y-86550691D01*
X67900007Y-86584669D01*
X67883266Y-86615990D01*
X67860739Y-86643439D01*
X67833290Y-86665966D01*
X67801969Y-86682707D01*
X67767991Y-86693015D01*
X67726510Y-86697100D01*
X67125290Y-86697100D01*
X67083809Y-86693015D01*
X67049831Y-86682707D01*
X67018510Y-86665966D01*
X66991061Y-86643439D01*
X66968534Y-86615990D01*
X66951793Y-86584669D01*
X66941485Y-86550691D01*
X66937400Y-86509210D01*
X66937400Y-85832990D01*
X66941485Y-85791509D01*
X66951793Y-85757531D01*
X66968534Y-85726210D01*
X66991061Y-85698761D01*
X67018510Y-85676234D01*
X67049831Y-85659493D01*
X67083809Y-85649185D01*
X67125290Y-85645100D01*
X67726510Y-85645100D01*
X67767991Y-85649185D01*
G37*
G36*
X66192991Y-85649185D02*
G01*
X66226969Y-85659493D01*
X66258290Y-85676234D01*
X66285739Y-85698761D01*
X66308266Y-85726210D01*
X66325007Y-85757531D01*
X66335315Y-85791509D01*
X66339400Y-85832990D01*
X66339400Y-86509210D01*
X66335315Y-86550691D01*
X66325007Y-86584669D01*
X66308266Y-86615990D01*
X66285739Y-86643439D01*
X66258290Y-86665966D01*
X66226969Y-86682707D01*
X66192991Y-86693015D01*
X66151510Y-86697100D01*
X65550290Y-86697100D01*
X65508809Y-86693015D01*
X65474831Y-86682707D01*
X65443510Y-86665966D01*
X65416061Y-86643439D01*
X65393534Y-86615990D01*
X65376793Y-86584669D01*
X65366485Y-86550691D01*
X65362400Y-86509210D01*
X65362400Y-85832990D01*
X65366485Y-85791509D01*
X65376793Y-85757531D01*
X65393534Y-85726210D01*
X65416061Y-85698761D01*
X65443510Y-85676234D01*
X65474831Y-85659493D01*
X65508809Y-85649185D01*
X65550290Y-85645100D01*
X66151510Y-85645100D01*
X66192991Y-85649185D01*
G37*
G36*
X70765091Y-85649185D02*
G01*
X70799069Y-85659493D01*
X70830390Y-85676234D01*
X70857839Y-85698761D01*
X70880366Y-85726210D01*
X70897107Y-85757531D01*
X70907415Y-85791509D01*
X70911500Y-85832990D01*
X70911500Y-86509210D01*
X70907415Y-86550691D01*
X70897107Y-86584669D01*
X70880366Y-86615990D01*
X70857839Y-86643439D01*
X70830390Y-86665966D01*
X70799069Y-86682707D01*
X70765091Y-86693015D01*
X70723610Y-86697100D01*
X70122390Y-86697100D01*
X70080909Y-86693015D01*
X70046931Y-86682707D01*
X70015610Y-86665966D01*
X69988161Y-86643439D01*
X69965634Y-86615990D01*
X69948893Y-86584669D01*
X69938585Y-86550691D01*
X69934500Y-86509210D01*
X69934500Y-85832990D01*
X69938585Y-85791509D01*
X69948893Y-85757531D01*
X69965634Y-85726210D01*
X69988161Y-85698761D01*
X70015610Y-85676234D01*
X70046931Y-85659493D01*
X70080909Y-85649185D01*
X70122390Y-85645100D01*
X70723610Y-85645100D01*
X70765091Y-85649185D01*
G37*
G36*
X69190091Y-85649185D02*
G01*
X69224069Y-85659493D01*
X69255390Y-85676234D01*
X69282839Y-85698761D01*
X69305366Y-85726210D01*
X69322107Y-85757531D01*
X69332415Y-85791509D01*
X69336500Y-85832990D01*
X69336500Y-86509210D01*
X69332415Y-86550691D01*
X69322107Y-86584669D01*
X69305366Y-86615990D01*
X69282839Y-86643439D01*
X69255390Y-86665966D01*
X69224069Y-86682707D01*
X69190091Y-86693015D01*
X69148610Y-86697100D01*
X68547390Y-86697100D01*
X68505909Y-86693015D01*
X68471931Y-86682707D01*
X68440610Y-86665966D01*
X68413161Y-86643439D01*
X68390634Y-86615990D01*
X68373893Y-86584669D01*
X68363585Y-86550691D01*
X68359500Y-86509210D01*
X68359500Y-85832990D01*
X68363585Y-85791509D01*
X68373893Y-85757531D01*
X68390634Y-85726210D01*
X68413161Y-85698761D01*
X68440610Y-85676234D01*
X68471931Y-85659493D01*
X68505909Y-85649185D01*
X68547390Y-85645100D01*
X69148610Y-85645100D01*
X69190091Y-85649185D01*
G37*
G36*
X105801000Y-86201000D02*
G01*
X104799000Y-86201000D01*
X104799000Y-85299000D01*
X105801000Y-85299000D01*
X105801000Y-86201000D01*
G37*
G36*
X113001000Y-86001000D02*
G01*
X110799000Y-86001000D01*
X110799000Y-83799000D01*
X113001000Y-83799000D01*
X113001000Y-86001000D01*
G37*
G36*
X101344591Y-84808585D02*
G01*
X101378569Y-84818893D01*
X101409890Y-84835634D01*
X101437339Y-84858161D01*
X101459866Y-84885610D01*
X101476607Y-84916931D01*
X101486915Y-84950909D01*
X101491000Y-84992390D01*
X101491000Y-85593610D01*
X101486915Y-85635091D01*
X101476607Y-85669069D01*
X101459866Y-85700390D01*
X101437339Y-85727839D01*
X101409890Y-85750366D01*
X101378569Y-85767107D01*
X101344591Y-85777415D01*
X101303110Y-85781500D01*
X100626890Y-85781500D01*
X100585409Y-85777415D01*
X100551431Y-85767107D01*
X100520110Y-85750366D01*
X100492661Y-85727839D01*
X100470134Y-85700390D01*
X100453393Y-85669069D01*
X100443085Y-85635091D01*
X100439000Y-85593610D01*
X100439000Y-84992390D01*
X100443085Y-84950909D01*
X100453393Y-84916931D01*
X100470134Y-84885610D01*
X100492661Y-84858161D01*
X100520110Y-84835634D01*
X100551431Y-84818893D01*
X100585409Y-84808585D01*
X100626890Y-84804500D01*
X101303110Y-84804500D01*
X101344591Y-84808585D01*
G37*
G36*
X107801000Y-85251000D02*
G01*
X106799000Y-85251000D01*
X106799000Y-84349000D01*
X107801000Y-84349000D01*
X107801000Y-85251000D01*
G37*
G36*
X105801000Y-84301000D02*
G01*
X104799000Y-84301000D01*
X104799000Y-83399000D01*
X105801000Y-83399000D01*
X105801000Y-84301000D01*
G37*
G36*
X101431200Y-84014500D02*
G01*
X100429200Y-84014500D01*
X100429200Y-83112500D01*
X101431200Y-83112500D01*
X101431200Y-84014500D01*
G37*
G36*
X102865791Y-82930585D02*
G01*
X102899769Y-82940893D01*
X102931090Y-82957634D01*
X102958539Y-82980161D01*
X102981066Y-83007610D01*
X102997807Y-83038931D01*
X103008115Y-83072909D01*
X103012200Y-83114390D01*
X103012200Y-83715610D01*
X103008115Y-83757091D01*
X102997807Y-83791069D01*
X102981066Y-83822390D01*
X102958539Y-83849839D01*
X102931090Y-83872366D01*
X102899769Y-83889107D01*
X102865791Y-83899415D01*
X102824310Y-83903500D01*
X102148090Y-83903500D01*
X102106609Y-83899415D01*
X102072631Y-83889107D01*
X102041310Y-83872366D01*
X102013861Y-83849839D01*
X101991334Y-83822390D01*
X101974593Y-83791069D01*
X101964285Y-83757091D01*
X101960200Y-83715610D01*
X101960200Y-83114390D01*
X101964285Y-83072909D01*
X101974593Y-83038931D01*
X101991334Y-83007610D01*
X102013861Y-82980161D01*
X102041310Y-82957634D01*
X102072631Y-82940893D01*
X102106609Y-82930585D01*
X102148090Y-82926500D01*
X102824310Y-82926500D01*
X102865791Y-82930585D01*
G37*
G36*
X97785791Y-82902585D02*
G01*
X97819769Y-82912893D01*
X97851090Y-82929634D01*
X97878539Y-82952161D01*
X97901066Y-82979610D01*
X97917807Y-83010931D01*
X97928115Y-83044909D01*
X97932200Y-83086390D01*
X97932200Y-83687610D01*
X97928115Y-83729091D01*
X97917807Y-83763069D01*
X97901066Y-83794390D01*
X97878539Y-83821839D01*
X97851090Y-83844366D01*
X97819769Y-83861107D01*
X97785791Y-83871415D01*
X97744310Y-83875500D01*
X97068090Y-83875500D01*
X97026609Y-83871415D01*
X96992631Y-83861107D01*
X96961310Y-83844366D01*
X96933861Y-83821839D01*
X96911334Y-83794390D01*
X96894593Y-83763069D01*
X96884285Y-83729091D01*
X96880200Y-83687610D01*
X96880200Y-83086390D01*
X96884285Y-83044909D01*
X96894593Y-83010931D01*
X96911334Y-82979610D01*
X96933861Y-82952161D01*
X96961310Y-82929634D01*
X96992631Y-82912893D01*
X97026609Y-82902585D01*
X97068090Y-82898500D01*
X97744310Y-82898500D01*
X97785791Y-82902585D01*
G37*
G36*
X112114184Y-81280034D02*
G01*
X112221150Y-81301311D01*
X112290435Y-81330010D01*
X112421520Y-81384307D01*
X112601844Y-81504795D01*
X112755205Y-81658156D01*
X112875693Y-81838480D01*
X112875693Y-81838481D01*
X112958689Y-82038850D01*
X112966773Y-82079491D01*
X113000612Y-82249607D01*
X113001000Y-82251561D01*
X113001000Y-82468439D01*
X112958689Y-82681150D01*
X112917191Y-82781334D01*
X112875693Y-82881520D01*
X112755205Y-83061844D01*
X112601844Y-83215205D01*
X112421520Y-83335693D01*
X112221150Y-83418689D01*
X112114795Y-83439844D01*
X112008440Y-83461000D01*
X111791560Y-83461000D01*
X111685205Y-83439844D01*
X111578850Y-83418689D01*
X111378480Y-83335693D01*
X111198156Y-83215205D01*
X111044795Y-83061844D01*
X110924307Y-82881520D01*
X110882809Y-82781334D01*
X110841311Y-82681150D01*
X110799000Y-82468439D01*
X110799000Y-82251561D01*
X110799389Y-82249607D01*
X110833227Y-82079491D01*
X110841311Y-82038850D01*
X110924307Y-81838481D01*
X110924307Y-81838480D01*
X111044795Y-81658156D01*
X111198156Y-81504795D01*
X111378480Y-81384307D01*
X111509565Y-81330010D01*
X111578850Y-81301311D01*
X111685816Y-81280034D01*
X111791560Y-81259000D01*
X112008440Y-81259000D01*
X112114184Y-81280034D01*
G37*
G36*
X99431200Y-83064500D02*
G01*
X98429200Y-83064500D01*
X98429200Y-82162500D01*
X99431200Y-82162500D01*
X99431200Y-83064500D01*
G37*
G36*
X105801000Y-82701000D02*
G01*
X104799000Y-82701000D01*
X104799000Y-81799000D01*
X105801000Y-81799000D01*
X105801000Y-82701000D01*
G37*
G36*
X102865791Y-81355585D02*
G01*
X102899769Y-81365893D01*
X102931090Y-81382634D01*
X102958539Y-81405161D01*
X102981066Y-81432610D01*
X102997807Y-81463931D01*
X103008115Y-81497909D01*
X103012200Y-81539390D01*
X103012200Y-82140610D01*
X103008115Y-82182091D01*
X102997807Y-82216069D01*
X102981066Y-82247390D01*
X102958539Y-82274839D01*
X102931090Y-82297366D01*
X102899769Y-82314107D01*
X102865791Y-82324415D01*
X102824310Y-82328500D01*
X102148090Y-82328500D01*
X102106609Y-82324415D01*
X102072631Y-82314107D01*
X102041310Y-82297366D01*
X102013861Y-82274839D01*
X101991334Y-82247390D01*
X101974593Y-82216069D01*
X101964285Y-82182091D01*
X101960200Y-82140610D01*
X101960200Y-81539390D01*
X101964285Y-81497909D01*
X101974593Y-81463931D01*
X101991334Y-81432610D01*
X102013861Y-81405161D01*
X102041310Y-81382634D01*
X102072631Y-81365893D01*
X102106609Y-81355585D01*
X102148090Y-81351500D01*
X102824310Y-81351500D01*
X102865791Y-81355585D01*
G37*
G36*
X97785791Y-81327585D02*
G01*
X97819769Y-81337893D01*
X97851090Y-81354634D01*
X97878539Y-81377161D01*
X97901066Y-81404610D01*
X97917807Y-81435931D01*
X97928115Y-81469909D01*
X97932200Y-81511390D01*
X97932200Y-82112610D01*
X97928115Y-82154091D01*
X97917807Y-82188069D01*
X97901066Y-82219390D01*
X97878539Y-82246839D01*
X97851090Y-82269366D01*
X97819769Y-82286107D01*
X97785791Y-82296415D01*
X97744310Y-82300500D01*
X97068090Y-82300500D01*
X97026609Y-82296415D01*
X96992631Y-82286107D01*
X96961310Y-82269366D01*
X96933861Y-82246839D01*
X96911334Y-82219390D01*
X96894593Y-82188069D01*
X96884285Y-82154091D01*
X96880200Y-82112610D01*
X96880200Y-81511390D01*
X96884285Y-81469909D01*
X96894593Y-81435931D01*
X96911334Y-81404610D01*
X96933861Y-81377161D01*
X96961310Y-81354634D01*
X96992631Y-81337893D01*
X97026609Y-81327585D01*
X97068090Y-81323500D01*
X97744310Y-81323500D01*
X97785791Y-81327585D01*
G37*
G36*
X70305791Y-81291085D02*
G01*
X70339769Y-81301393D01*
X70371090Y-81318134D01*
X70398539Y-81340661D01*
X70421066Y-81368110D01*
X70437807Y-81399431D01*
X70448115Y-81433409D01*
X70452200Y-81474890D01*
X70452200Y-82076110D01*
X70448115Y-82117591D01*
X70437807Y-82151569D01*
X70421066Y-82182890D01*
X70398539Y-82210339D01*
X70371090Y-82232866D01*
X70339769Y-82249607D01*
X70305791Y-82259915D01*
X70264310Y-82264000D01*
X69588090Y-82264000D01*
X69546609Y-82259915D01*
X69512631Y-82249607D01*
X69481310Y-82232866D01*
X69453861Y-82210339D01*
X69431334Y-82182890D01*
X69414593Y-82151569D01*
X69404285Y-82117591D01*
X69400200Y-82076110D01*
X69400200Y-81474890D01*
X69404285Y-81433409D01*
X69414593Y-81399431D01*
X69431334Y-81368110D01*
X69453861Y-81340661D01*
X69481310Y-81318134D01*
X69512631Y-81301393D01*
X69546609Y-81291085D01*
X69588090Y-81287000D01*
X70264310Y-81287000D01*
X70305791Y-81291085D01*
G37*
G36*
X71829791Y-81291085D02*
G01*
X71863769Y-81301393D01*
X71895090Y-81318134D01*
X71922539Y-81340661D01*
X71945066Y-81368110D01*
X71961807Y-81399431D01*
X71972115Y-81433409D01*
X71976200Y-81474890D01*
X71976200Y-82076110D01*
X71972115Y-82117591D01*
X71961807Y-82151569D01*
X71945066Y-82182890D01*
X71922539Y-82210339D01*
X71895090Y-82232866D01*
X71863769Y-82249607D01*
X71829791Y-82259915D01*
X71788310Y-82264000D01*
X71112090Y-82264000D01*
X71070609Y-82259915D01*
X71036631Y-82249607D01*
X71005310Y-82232866D01*
X70977861Y-82210339D01*
X70955334Y-82182890D01*
X70938593Y-82151569D01*
X70928285Y-82117591D01*
X70924200Y-82076110D01*
X70924200Y-81474890D01*
X70928285Y-81433409D01*
X70938593Y-81399431D01*
X70955334Y-81368110D01*
X70977861Y-81340661D01*
X71005310Y-81318134D01*
X71036631Y-81301393D01*
X71070609Y-81291085D01*
X71112090Y-81287000D01*
X71788310Y-81287000D01*
X71829791Y-81291085D01*
G37*
G36*
X67207591Y-81215285D02*
G01*
X67241569Y-81225593D01*
X67272890Y-81242334D01*
X67300339Y-81264861D01*
X67322866Y-81292310D01*
X67339607Y-81323631D01*
X67349915Y-81357609D01*
X67354000Y-81399090D01*
X67354000Y-82075310D01*
X67349915Y-82116791D01*
X67339607Y-82150769D01*
X67322866Y-82182090D01*
X67300339Y-82209539D01*
X67272890Y-82232066D01*
X67241569Y-82248807D01*
X67207591Y-82259115D01*
X67166110Y-82263200D01*
X66564890Y-82263200D01*
X66523409Y-82259115D01*
X66489431Y-82248807D01*
X66458110Y-82232066D01*
X66430661Y-82209539D01*
X66408134Y-82182090D01*
X66391393Y-82150769D01*
X66381085Y-82116791D01*
X66377000Y-82075310D01*
X66377000Y-81399090D01*
X66381085Y-81357609D01*
X66391393Y-81323631D01*
X66408134Y-81292310D01*
X66430661Y-81264861D01*
X66458110Y-81242334D01*
X66489431Y-81225593D01*
X66523409Y-81215285D01*
X66564890Y-81211200D01*
X67166110Y-81211200D01*
X67207591Y-81215285D01*
G37*
G36*
X68782591Y-81215285D02*
G01*
X68816569Y-81225593D01*
X68847890Y-81242334D01*
X68875339Y-81264861D01*
X68897866Y-81292310D01*
X68914607Y-81323631D01*
X68924915Y-81357609D01*
X68929000Y-81399090D01*
X68929000Y-82075310D01*
X68924915Y-82116791D01*
X68914607Y-82150769D01*
X68897866Y-82182090D01*
X68875339Y-82209539D01*
X68847890Y-82232066D01*
X68816569Y-82248807D01*
X68782591Y-82259115D01*
X68741110Y-82263200D01*
X68139890Y-82263200D01*
X68098409Y-82259115D01*
X68064431Y-82248807D01*
X68033110Y-82232066D01*
X68005661Y-82209539D01*
X67983134Y-82182090D01*
X67966393Y-82150769D01*
X67956085Y-82116791D01*
X67952000Y-82075310D01*
X67952000Y-81399090D01*
X67956085Y-81357609D01*
X67966393Y-81323631D01*
X67983134Y-81292310D01*
X68005661Y-81264861D01*
X68033110Y-81242334D01*
X68064431Y-81225593D01*
X68098409Y-81215285D01*
X68139890Y-81211200D01*
X68741110Y-81211200D01*
X68782591Y-81215285D01*
G37*
G36*
X84605991Y-81252985D02*
G01*
X84639969Y-81263293D01*
X84671290Y-81280034D01*
X84698739Y-81302561D01*
X84721266Y-81330010D01*
X84738007Y-81361331D01*
X84748315Y-81395309D01*
X84752400Y-81436790D01*
X84752400Y-82038010D01*
X84748315Y-82079491D01*
X84738007Y-82113469D01*
X84721266Y-82144790D01*
X84698739Y-82172239D01*
X84671290Y-82194766D01*
X84639969Y-82211507D01*
X84605991Y-82221815D01*
X84564510Y-82225900D01*
X83888290Y-82225900D01*
X83846809Y-82221815D01*
X83812831Y-82211507D01*
X83781510Y-82194766D01*
X83754061Y-82172239D01*
X83731534Y-82144790D01*
X83714793Y-82113469D01*
X83704485Y-82079491D01*
X83700400Y-82038010D01*
X83700400Y-81436790D01*
X83704485Y-81395309D01*
X83714793Y-81361331D01*
X83731534Y-81330010D01*
X83754061Y-81302561D01*
X83781510Y-81280034D01*
X83812831Y-81263293D01*
X83846809Y-81252985D01*
X83888290Y-81248900D01*
X84564510Y-81248900D01*
X84605991Y-81252985D01*
G37*
G36*
X83132791Y-81252985D02*
G01*
X83166769Y-81263293D01*
X83198090Y-81280034D01*
X83225539Y-81302561D01*
X83248066Y-81330010D01*
X83264807Y-81361331D01*
X83275115Y-81395309D01*
X83279200Y-81436790D01*
X83279200Y-82038010D01*
X83275115Y-82079491D01*
X83264807Y-82113469D01*
X83248066Y-82144790D01*
X83225539Y-82172239D01*
X83198090Y-82194766D01*
X83166769Y-82211507D01*
X83132791Y-82221815D01*
X83091310Y-82225900D01*
X82415090Y-82225900D01*
X82373609Y-82221815D01*
X82339631Y-82211507D01*
X82308310Y-82194766D01*
X82280861Y-82172239D01*
X82258334Y-82144790D01*
X82241593Y-82113469D01*
X82231285Y-82079491D01*
X82227200Y-82038010D01*
X82227200Y-81436790D01*
X82231285Y-81395309D01*
X82241593Y-81361331D01*
X82258334Y-81330010D01*
X82280861Y-81302561D01*
X82308310Y-81280034D01*
X82339631Y-81263293D01*
X82373609Y-81252985D01*
X82415090Y-81248900D01*
X83091310Y-81248900D01*
X83132791Y-81252985D01*
G37*
G36*
X101431200Y-82114500D02*
G01*
X100429200Y-82114500D01*
X100429200Y-81212500D01*
X101431200Y-81212500D01*
X101431200Y-82114500D01*
G37*
G36*
X91275256Y-78591298D02*
G01*
X91381579Y-78612447D01*
X91682042Y-78736903D01*
X91952451Y-78917585D01*
X92182415Y-79147549D01*
X92363097Y-79417958D01*
X92487553Y-79718421D01*
X92502529Y-79793710D01*
X92551000Y-80037389D01*
X92551000Y-80362611D01*
X92516069Y-80538220D01*
X92487553Y-80681579D01*
X92363097Y-80982042D01*
X92182415Y-81252451D01*
X91952451Y-81482415D01*
X91682042Y-81663097D01*
X91381579Y-81787553D01*
X91324031Y-81799000D01*
X91062611Y-81851000D01*
X90737389Y-81851000D01*
X90475969Y-81799000D01*
X90418421Y-81787553D01*
X90117958Y-81663097D01*
X89847549Y-81482415D01*
X89617585Y-81252451D01*
X89436903Y-80982042D01*
X89312447Y-80681579D01*
X89283931Y-80538220D01*
X89249000Y-80362611D01*
X89249000Y-80037389D01*
X89297471Y-79793710D01*
X89312447Y-79718421D01*
X89436903Y-79417958D01*
X89617585Y-79147549D01*
X89847549Y-78917585D01*
X90117958Y-78736903D01*
X90418421Y-78612447D01*
X90524744Y-78591298D01*
X90737389Y-78549000D01*
X91062611Y-78549000D01*
X91275256Y-78591298D01*
G37*
G36*
X107801000Y-81751000D02*
G01*
X106799000Y-81751000D01*
X106799000Y-80849000D01*
X107801000Y-80849000D01*
X107801000Y-81751000D01*
G37*
G36*
X105801000Y-80801000D02*
G01*
X104799000Y-80801000D01*
X104799000Y-79899000D01*
X105801000Y-79899000D01*
X105801000Y-80801000D01*
G37*
G36*
X68782391Y-79716685D02*
G01*
X68816369Y-79726993D01*
X68847690Y-79743734D01*
X68875139Y-79766261D01*
X68897666Y-79793710D01*
X68914407Y-79825031D01*
X68924715Y-79859009D01*
X68928800Y-79900490D01*
X68928800Y-80576710D01*
X68924715Y-80618191D01*
X68914407Y-80652169D01*
X68897666Y-80683490D01*
X68875139Y-80710939D01*
X68847690Y-80733466D01*
X68816369Y-80750207D01*
X68782391Y-80760515D01*
X68740910Y-80764600D01*
X68139690Y-80764600D01*
X68098209Y-80760515D01*
X68064231Y-80750207D01*
X68032910Y-80733466D01*
X68005461Y-80710939D01*
X67982934Y-80683490D01*
X67966193Y-80652169D01*
X67955885Y-80618191D01*
X67951800Y-80576710D01*
X67951800Y-79900490D01*
X67955885Y-79859009D01*
X67966193Y-79825031D01*
X67982934Y-79793710D01*
X68005461Y-79766261D01*
X68032910Y-79743734D01*
X68064231Y-79726993D01*
X68098209Y-79716685D01*
X68139690Y-79712600D01*
X68740910Y-79712600D01*
X68782391Y-79716685D01*
G37*
G36*
X67207391Y-79716685D02*
G01*
X67241369Y-79726993D01*
X67272690Y-79743734D01*
X67300139Y-79766261D01*
X67322666Y-79793710D01*
X67339407Y-79825031D01*
X67349715Y-79859009D01*
X67353800Y-79900490D01*
X67353800Y-80576710D01*
X67349715Y-80618191D01*
X67339407Y-80652169D01*
X67322666Y-80683490D01*
X67300139Y-80710939D01*
X67272690Y-80733466D01*
X67241369Y-80750207D01*
X67207391Y-80760515D01*
X67165910Y-80764600D01*
X66564690Y-80764600D01*
X66523209Y-80760515D01*
X66489231Y-80750207D01*
X66457910Y-80733466D01*
X66430461Y-80710939D01*
X66407934Y-80683490D01*
X66391193Y-80652169D01*
X66380885Y-80618191D01*
X66376800Y-80576710D01*
X66376800Y-79900490D01*
X66380885Y-79859009D01*
X66391193Y-79825031D01*
X66407934Y-79793710D01*
X66430461Y-79766261D01*
X66457910Y-79743734D01*
X66489231Y-79726993D01*
X66523209Y-79716685D01*
X66564690Y-79712600D01*
X67165910Y-79712600D01*
X67207391Y-79716685D01*
G37*
G36*
X71829791Y-79716085D02*
G01*
X71863769Y-79726393D01*
X71895090Y-79743134D01*
X71922539Y-79765661D01*
X71945066Y-79793110D01*
X71961807Y-79824431D01*
X71972115Y-79858409D01*
X71976200Y-79899890D01*
X71976200Y-80501110D01*
X71972115Y-80542591D01*
X71961807Y-80576569D01*
X71945066Y-80607890D01*
X71922539Y-80635339D01*
X71895090Y-80657866D01*
X71863769Y-80674607D01*
X71829791Y-80684915D01*
X71788310Y-80689000D01*
X71112090Y-80689000D01*
X71070609Y-80684915D01*
X71036631Y-80674607D01*
X71005310Y-80657866D01*
X70977861Y-80635339D01*
X70955334Y-80607890D01*
X70938593Y-80576569D01*
X70928285Y-80542591D01*
X70924200Y-80501110D01*
X70924200Y-79899890D01*
X70928285Y-79858409D01*
X70938593Y-79824431D01*
X70955334Y-79793110D01*
X70977861Y-79765661D01*
X71005310Y-79743134D01*
X71036631Y-79726393D01*
X71070609Y-79716085D01*
X71112090Y-79712000D01*
X71788310Y-79712000D01*
X71829791Y-79716085D01*
G37*
G36*
X70305791Y-79716085D02*
G01*
X70339769Y-79726393D01*
X70371090Y-79743134D01*
X70398539Y-79765661D01*
X70421066Y-79793110D01*
X70437807Y-79824431D01*
X70448115Y-79858409D01*
X70452200Y-79899890D01*
X70452200Y-80501110D01*
X70448115Y-80542591D01*
X70437807Y-80576569D01*
X70421066Y-80607890D01*
X70398539Y-80635339D01*
X70371090Y-80657866D01*
X70339769Y-80674607D01*
X70305791Y-80684915D01*
X70264310Y-80689000D01*
X69588090Y-80689000D01*
X69546609Y-80684915D01*
X69512631Y-80674607D01*
X69481310Y-80657866D01*
X69453861Y-80635339D01*
X69431334Y-80607890D01*
X69414593Y-80576569D01*
X69404285Y-80542591D01*
X69400200Y-80501110D01*
X69400200Y-79899890D01*
X69404285Y-79858409D01*
X69414593Y-79824431D01*
X69431334Y-79793110D01*
X69453861Y-79765661D01*
X69481310Y-79743134D01*
X69512631Y-79726393D01*
X69546609Y-79716085D01*
X69588090Y-79712000D01*
X70264310Y-79712000D01*
X70305791Y-79716085D01*
G37*
G36*
X84605991Y-79677985D02*
G01*
X84639969Y-79688293D01*
X84671290Y-79705034D01*
X84698739Y-79727561D01*
X84721266Y-79755010D01*
X84738007Y-79786331D01*
X84748315Y-79820309D01*
X84752400Y-79861790D01*
X84752400Y-80463010D01*
X84748315Y-80504491D01*
X84738007Y-80538469D01*
X84721266Y-80569790D01*
X84698739Y-80597239D01*
X84671290Y-80619766D01*
X84639969Y-80636507D01*
X84605991Y-80646815D01*
X84564510Y-80650900D01*
X83888290Y-80650900D01*
X83846809Y-80646815D01*
X83812831Y-80636507D01*
X83781510Y-80619766D01*
X83754061Y-80597239D01*
X83731534Y-80569790D01*
X83714793Y-80538469D01*
X83704485Y-80504491D01*
X83700400Y-80463010D01*
X83700400Y-79861790D01*
X83704485Y-79820309D01*
X83714793Y-79786331D01*
X83731534Y-79755010D01*
X83754061Y-79727561D01*
X83781510Y-79705034D01*
X83812831Y-79688293D01*
X83846809Y-79677985D01*
X83888290Y-79673900D01*
X84564510Y-79673900D01*
X84605991Y-79677985D01*
G37*
G36*
X83132791Y-79677985D02*
G01*
X83166769Y-79688293D01*
X83198090Y-79705034D01*
X83225539Y-79727561D01*
X83248066Y-79755010D01*
X83264807Y-79786331D01*
X83275115Y-79820309D01*
X83279200Y-79861790D01*
X83279200Y-80463010D01*
X83275115Y-80504491D01*
X83264807Y-80538469D01*
X83248066Y-80569790D01*
X83225539Y-80597239D01*
X83198090Y-80619766D01*
X83166769Y-80636507D01*
X83132791Y-80646815D01*
X83091310Y-80650900D01*
X82415090Y-80650900D01*
X82373609Y-80646815D01*
X82339631Y-80636507D01*
X82308310Y-80619766D01*
X82280861Y-80597239D01*
X82258334Y-80569790D01*
X82241593Y-80538469D01*
X82231285Y-80504491D01*
X82227200Y-80463010D01*
X82227200Y-79861790D01*
X82231285Y-79820309D01*
X82241593Y-79786331D01*
X82258334Y-79755010D01*
X82280861Y-79727561D01*
X82308310Y-79705034D01*
X82339631Y-79688293D01*
X82373609Y-79677985D01*
X82415090Y-79673900D01*
X83091310Y-79673900D01*
X83132791Y-79677985D01*
G37*
G36*
X101431200Y-80458500D02*
G01*
X100429200Y-80458500D01*
X100429200Y-79556500D01*
X101431200Y-79556500D01*
X101431200Y-80458500D01*
G37*
G36*
X97785791Y-79346585D02*
G01*
X97819769Y-79356893D01*
X97851090Y-79373634D01*
X97878539Y-79396161D01*
X97901066Y-79423610D01*
X97917807Y-79454931D01*
X97928115Y-79488909D01*
X97932200Y-79530390D01*
X97932200Y-80131610D01*
X97928115Y-80173091D01*
X97917807Y-80207069D01*
X97901066Y-80238390D01*
X97878539Y-80265839D01*
X97851090Y-80288366D01*
X97819769Y-80305107D01*
X97785791Y-80315415D01*
X97744310Y-80319500D01*
X97068090Y-80319500D01*
X97026609Y-80315415D01*
X96992631Y-80305107D01*
X96961310Y-80288366D01*
X96933861Y-80265839D01*
X96911334Y-80238390D01*
X96894593Y-80207069D01*
X96884285Y-80173091D01*
X96880200Y-80131610D01*
X96880200Y-79530390D01*
X96884285Y-79488909D01*
X96894593Y-79454931D01*
X96911334Y-79423610D01*
X96933861Y-79396161D01*
X96961310Y-79373634D01*
X96992631Y-79356893D01*
X97026609Y-79346585D01*
X97068090Y-79342500D01*
X97744310Y-79342500D01*
X97785791Y-79346585D01*
G37*
G36*
X102865791Y-79346585D02*
G01*
X102899769Y-79356893D01*
X102931090Y-79373634D01*
X102958539Y-79396161D01*
X102981066Y-79423610D01*
X102997807Y-79454931D01*
X103008115Y-79488909D01*
X103012200Y-79530390D01*
X103012200Y-80131610D01*
X103008115Y-80173091D01*
X102997807Y-80207069D01*
X102981066Y-80238390D01*
X102958539Y-80265839D01*
X102931090Y-80288366D01*
X102899769Y-80305107D01*
X102865791Y-80315415D01*
X102824310Y-80319500D01*
X102148090Y-80319500D01*
X102106609Y-80315415D01*
X102072631Y-80305107D01*
X102041310Y-80288366D01*
X102013861Y-80265839D01*
X101991334Y-80238390D01*
X101974593Y-80207069D01*
X101964285Y-80173091D01*
X101960200Y-80131610D01*
X101960200Y-79530390D01*
X101964285Y-79488909D01*
X101974593Y-79454931D01*
X101991334Y-79423610D01*
X102013861Y-79396161D01*
X102041310Y-79373634D01*
X102072631Y-79356893D01*
X102106609Y-79346585D01*
X102148090Y-79342500D01*
X102824310Y-79342500D01*
X102865791Y-79346585D01*
G37*
G36*
X113001000Y-80001000D02*
G01*
X110799000Y-80001000D01*
X110799000Y-77799000D01*
X113001000Y-77799000D01*
X113001000Y-80001000D01*
G37*
G36*
X99431200Y-79508500D02*
G01*
X98429200Y-79508500D01*
X98429200Y-78606500D01*
X99431200Y-78606500D01*
X99431200Y-79508500D01*
G37*
G36*
X71875000Y-79195000D02*
G01*
X70873000Y-79195000D01*
X70873000Y-77093000D01*
X71875000Y-77093000D01*
X71875000Y-79195000D01*
G37*
G36*
X84575000Y-79195000D02*
G01*
X83573000Y-79195000D01*
X83573000Y-77093000D01*
X84575000Y-77093000D01*
X84575000Y-79195000D01*
G37*
G36*
X83305000Y-79195000D02*
G01*
X82303000Y-79195000D01*
X82303000Y-77093000D01*
X83305000Y-77093000D01*
X83305000Y-79195000D01*
G37*
G36*
X82035000Y-79195000D02*
G01*
X81033000Y-79195000D01*
X81033000Y-77093000D01*
X82035000Y-77093000D01*
X82035000Y-79195000D01*
G37*
G36*
X80765000Y-79195000D02*
G01*
X79763000Y-79195000D01*
X79763000Y-77093000D01*
X80765000Y-77093000D01*
X80765000Y-79195000D01*
G37*
G36*
X79495000Y-79195000D02*
G01*
X78493000Y-79195000D01*
X78493000Y-77093000D01*
X79495000Y-77093000D01*
X79495000Y-79195000D01*
G37*
G36*
X78225000Y-79195000D02*
G01*
X77223000Y-79195000D01*
X77223000Y-77093000D01*
X78225000Y-77093000D01*
X78225000Y-79195000D01*
G37*
G36*
X76955000Y-79195000D02*
G01*
X75953000Y-79195000D01*
X75953000Y-77093000D01*
X76955000Y-77093000D01*
X76955000Y-79195000D01*
G37*
G36*
X74415000Y-79195000D02*
G01*
X73413000Y-79195000D01*
X73413000Y-77093000D01*
X74415000Y-77093000D01*
X74415000Y-79195000D01*
G37*
G36*
X73145000Y-79195000D02*
G01*
X72143000Y-79195000D01*
X72143000Y-77093000D01*
X73145000Y-77093000D01*
X73145000Y-79195000D01*
G37*
G36*
X68065000Y-79195000D02*
G01*
X67063000Y-79195000D01*
X67063000Y-77093000D01*
X68065000Y-77093000D01*
X68065000Y-79195000D01*
G37*
G36*
X69335000Y-79195000D02*
G01*
X68333000Y-79195000D01*
X68333000Y-77093000D01*
X69335000Y-77093000D01*
X69335000Y-79195000D01*
G37*
G36*
X75685000Y-79195000D02*
G01*
X74683000Y-79195000D01*
X74683000Y-77093000D01*
X75685000Y-77093000D01*
X75685000Y-79195000D01*
G37*
G36*
X70605000Y-79195000D02*
G01*
X69603000Y-79195000D01*
X69603000Y-77093000D01*
X70605000Y-77093000D01*
X70605000Y-79195000D01*
G37*
G36*
X97785791Y-77771585D02*
G01*
X97819769Y-77781893D01*
X97851090Y-77798634D01*
X97878539Y-77821161D01*
X97901066Y-77848610D01*
X97917807Y-77879931D01*
X97928115Y-77913909D01*
X97932200Y-77955390D01*
X97932200Y-78556610D01*
X97928115Y-78598091D01*
X97917807Y-78632069D01*
X97901066Y-78663390D01*
X97878539Y-78690839D01*
X97851090Y-78713366D01*
X97819769Y-78730107D01*
X97785791Y-78740415D01*
X97744310Y-78744500D01*
X97068090Y-78744500D01*
X97026609Y-78740415D01*
X96992631Y-78730107D01*
X96961310Y-78713366D01*
X96933861Y-78690839D01*
X96911334Y-78663390D01*
X96894593Y-78632069D01*
X96884285Y-78598091D01*
X96880200Y-78556610D01*
X96880200Y-77955390D01*
X96884285Y-77913909D01*
X96894593Y-77879931D01*
X96911334Y-77848610D01*
X96933861Y-77821161D01*
X96961310Y-77798634D01*
X96992631Y-77781893D01*
X97026609Y-77771585D01*
X97068090Y-77767500D01*
X97744310Y-77767500D01*
X97785791Y-77771585D01*
G37*
G36*
X102865791Y-77771585D02*
G01*
X102899769Y-77781893D01*
X102931090Y-77798634D01*
X102958539Y-77821161D01*
X102981066Y-77848610D01*
X102997807Y-77879931D01*
X103008115Y-77913909D01*
X103012200Y-77955390D01*
X103012200Y-78556610D01*
X103008115Y-78598091D01*
X102997807Y-78632069D01*
X102981066Y-78663390D01*
X102958539Y-78690839D01*
X102931090Y-78713366D01*
X102899769Y-78730107D01*
X102865791Y-78740415D01*
X102824310Y-78744500D01*
X102148090Y-78744500D01*
X102106609Y-78740415D01*
X102072631Y-78730107D01*
X102041310Y-78713366D01*
X102013861Y-78690839D01*
X101991334Y-78663390D01*
X101974593Y-78632069D01*
X101964285Y-78598091D01*
X101960200Y-78556610D01*
X101960200Y-77955390D01*
X101964285Y-77913909D01*
X101974593Y-77879931D01*
X101991334Y-77848610D01*
X102013861Y-77821161D01*
X102041310Y-77798634D01*
X102072631Y-77781893D01*
X102106609Y-77771585D01*
X102148090Y-77767500D01*
X102824310Y-77767500D01*
X102865791Y-77771585D01*
G37*
G36*
X101431200Y-78558500D02*
G01*
X100429200Y-78558500D01*
X100429200Y-77656500D01*
X101431200Y-77656500D01*
X101431200Y-78558500D01*
G37*
G36*
X105140416Y-74474843D02*
G01*
X105144556Y-74476099D01*
X105163716Y-74484035D01*
X105187750Y-74488815D01*
X105212254Y-74488815D01*
X105236287Y-74484034D01*
X105255445Y-74476099D01*
X105259584Y-74474843D01*
X105268143Y-74474000D01*
X105531857Y-74474000D01*
X105540416Y-74474843D01*
X105544556Y-74476099D01*
X105563716Y-74484035D01*
X105587750Y-74488815D01*
X105612254Y-74488815D01*
X105636287Y-74484034D01*
X105655445Y-74476099D01*
X105659584Y-74474843D01*
X105668143Y-74474000D01*
X105931857Y-74474000D01*
X105940416Y-74474843D01*
X105944556Y-74476099D01*
X105963716Y-74484035D01*
X105987750Y-74488815D01*
X106012254Y-74488815D01*
X106036287Y-74484034D01*
X106055445Y-74476099D01*
X106059584Y-74474843D01*
X106068143Y-74474000D01*
X106331857Y-74474000D01*
X106340416Y-74474843D01*
X106344556Y-74476099D01*
X106363716Y-74484035D01*
X106387750Y-74488815D01*
X106412254Y-74488815D01*
X106436287Y-74484034D01*
X106455445Y-74476099D01*
X106459584Y-74474843D01*
X106468143Y-74474000D01*
X106731857Y-74474000D01*
X106740416Y-74474843D01*
X106744556Y-74476099D01*
X106763716Y-74484035D01*
X106787750Y-74488815D01*
X106812254Y-74488815D01*
X106836287Y-74484034D01*
X106855445Y-74476099D01*
X106859584Y-74474843D01*
X106868143Y-74474000D01*
X107131857Y-74474000D01*
X107140416Y-74474843D01*
X107142745Y-74475550D01*
X107144887Y-74476695D01*
X107146765Y-74478235D01*
X107148305Y-74480113D01*
X107149450Y-74482255D01*
X107150157Y-74484584D01*
X107151000Y-74493143D01*
X107151000Y-75024001D01*
X107153402Y-75048387D01*
X107160515Y-75071836D01*
X107172066Y-75093447D01*
X107187611Y-75112389D01*
X107206553Y-75127934D01*
X107228164Y-75139485D01*
X107251613Y-75146598D01*
X107275999Y-75149000D01*
X107806857Y-75149000D01*
X107815416Y-75149843D01*
X107817745Y-75150550D01*
X107819887Y-75151695D01*
X107821765Y-75153235D01*
X107823305Y-75155113D01*
X107824450Y-75157255D01*
X107825157Y-75159584D01*
X107826000Y-75168143D01*
X107826000Y-75431857D01*
X107825157Y-75440416D01*
X107823901Y-75444556D01*
X107815965Y-75463716D01*
X107811185Y-75487750D01*
X107811185Y-75512254D01*
X107815966Y-75536287D01*
X107823901Y-75555445D01*
X107825157Y-75559584D01*
X107826000Y-75568143D01*
X107826000Y-75831857D01*
X107825157Y-75840416D01*
X107823901Y-75844556D01*
X107815965Y-75863716D01*
X107811185Y-75887750D01*
X107811185Y-75912254D01*
X107815966Y-75936287D01*
X107823901Y-75955445D01*
X107825157Y-75959584D01*
X107826000Y-75968143D01*
X107826000Y-76231857D01*
X107825157Y-76240416D01*
X107823901Y-76244556D01*
X107815965Y-76263716D01*
X107811185Y-76287750D01*
X107811185Y-76312254D01*
X107815966Y-76336287D01*
X107823901Y-76355445D01*
X107825157Y-76359584D01*
X107826000Y-76368143D01*
X107826000Y-76631857D01*
X107825157Y-76640416D01*
X107823901Y-76644556D01*
X107815965Y-76663716D01*
X107811185Y-76687750D01*
X107811185Y-76712254D01*
X107815966Y-76736287D01*
X107823901Y-76755445D01*
X107825157Y-76759584D01*
X107826000Y-76768143D01*
X107826000Y-77031857D01*
X107825157Y-77040416D01*
X107823901Y-77044556D01*
X107815965Y-77063716D01*
X107811185Y-77087750D01*
X107811185Y-77112254D01*
X107815966Y-77136287D01*
X107823901Y-77155445D01*
X107825157Y-77159584D01*
X107826000Y-77168143D01*
X107826000Y-77431857D01*
X107825157Y-77440416D01*
X107824450Y-77442745D01*
X107823305Y-77444887D01*
X107821765Y-77446765D01*
X107819887Y-77448305D01*
X107817745Y-77449450D01*
X107815416Y-77450157D01*
X107806857Y-77451000D01*
X107275999Y-77451000D01*
X107251613Y-77453402D01*
X107228164Y-77460515D01*
X107206553Y-77472066D01*
X107187611Y-77487611D01*
X107172066Y-77506553D01*
X107160515Y-77528164D01*
X107153402Y-77551613D01*
X107151000Y-77575999D01*
X107151000Y-78106857D01*
X107150157Y-78115416D01*
X107149450Y-78117745D01*
X107148305Y-78119887D01*
X107146765Y-78121765D01*
X107144887Y-78123305D01*
X107142745Y-78124450D01*
X107140416Y-78125157D01*
X107131857Y-78126000D01*
X106868143Y-78126000D01*
X106859584Y-78125157D01*
X106855444Y-78123901D01*
X106836284Y-78115965D01*
X106812250Y-78111185D01*
X106787746Y-78111185D01*
X106763713Y-78115966D01*
X106744555Y-78123901D01*
X106740416Y-78125157D01*
X106731857Y-78126000D01*
X106468143Y-78126000D01*
X106459584Y-78125157D01*
X106455444Y-78123901D01*
X106436284Y-78115965D01*
X106412250Y-78111185D01*
X106387746Y-78111185D01*
X106363713Y-78115966D01*
X106344555Y-78123901D01*
X106340416Y-78125157D01*
X106331857Y-78126000D01*
X106068143Y-78126000D01*
X106059584Y-78125157D01*
X106055444Y-78123901D01*
X106036284Y-78115965D01*
X106012250Y-78111185D01*
X105987746Y-78111185D01*
X105963713Y-78115966D01*
X105944555Y-78123901D01*
X105940416Y-78125157D01*
X105931857Y-78126000D01*
X105668143Y-78126000D01*
X105659584Y-78125157D01*
X105655444Y-78123901D01*
X105636284Y-78115965D01*
X105612250Y-78111185D01*
X105587746Y-78111185D01*
X105563713Y-78115966D01*
X105544555Y-78123901D01*
X105540416Y-78125157D01*
X105531857Y-78126000D01*
X105268143Y-78126000D01*
X105259584Y-78125157D01*
X105255444Y-78123901D01*
X105236284Y-78115965D01*
X105212250Y-78111185D01*
X105187746Y-78111185D01*
X105163713Y-78115966D01*
X105144555Y-78123901D01*
X105140416Y-78125157D01*
X105131857Y-78126000D01*
X104868143Y-78126000D01*
X104859584Y-78125157D01*
X104857255Y-78124450D01*
X104855113Y-78123305D01*
X104853235Y-78121765D01*
X104851695Y-78119887D01*
X104850550Y-78117745D01*
X104849843Y-78115416D01*
X104849000Y-78106857D01*
X104849000Y-77575999D01*
X104846598Y-77551613D01*
X104839485Y-77528164D01*
X104827934Y-77506553D01*
X104812389Y-77487611D01*
X104793447Y-77472066D01*
X104771836Y-77460515D01*
X104748387Y-77453402D01*
X104724001Y-77451000D01*
X104193143Y-77451000D01*
X104184584Y-77450157D01*
X104182255Y-77449450D01*
X104180113Y-77448305D01*
X104178235Y-77446765D01*
X104176695Y-77444887D01*
X104175550Y-77442745D01*
X104174843Y-77440416D01*
X104174000Y-77431857D01*
X104174000Y-77168143D01*
X104174843Y-77159584D01*
X104176099Y-77155444D01*
X104184035Y-77136284D01*
X104188815Y-77112250D01*
X104188815Y-77087746D01*
X104184034Y-77063713D01*
X104176099Y-77044555D01*
X104174843Y-77040416D01*
X104174000Y-77031857D01*
X104174000Y-76768143D01*
X104174843Y-76759584D01*
X104176099Y-76755444D01*
X104184035Y-76736284D01*
X104188815Y-76712250D01*
X104188815Y-76687746D01*
X104184034Y-76663713D01*
X104176099Y-76644555D01*
X104174843Y-76640416D01*
X104174000Y-76631857D01*
X104174000Y-76368143D01*
X104174843Y-76359584D01*
X104176099Y-76355444D01*
X104184035Y-76336284D01*
X104188815Y-76312250D01*
X104188815Y-76287746D01*
X104184034Y-76263713D01*
X104176099Y-76244555D01*
X104174843Y-76240416D01*
X104174000Y-76231857D01*
X104174000Y-75968143D01*
X104174843Y-75959584D01*
X104176099Y-75955444D01*
X104184035Y-75936284D01*
X104188815Y-75912250D01*
X104188815Y-75887746D01*
X104184034Y-75863713D01*
X104176099Y-75844555D01*
X104174843Y-75840416D01*
X104174000Y-75831857D01*
X104174000Y-75568143D01*
X104174843Y-75559584D01*
X104176099Y-75555444D01*
X104184035Y-75536284D01*
X104188815Y-75512250D01*
X104188815Y-75487750D01*
X104811185Y-75487750D01*
X104811185Y-75512254D01*
X104815966Y-75536287D01*
X104823901Y-75555445D01*
X104825157Y-75559584D01*
X104826000Y-75568143D01*
X104826000Y-75831857D01*
X104825157Y-75840416D01*
X104823901Y-75844556D01*
X104815965Y-75863716D01*
X104811185Y-75887750D01*
X104811185Y-75912254D01*
X104815966Y-75936287D01*
X104823901Y-75955445D01*
X104825157Y-75959584D01*
X104826000Y-75968143D01*
X104826000Y-76231857D01*
X104825157Y-76240416D01*
X104823901Y-76244556D01*
X104815965Y-76263716D01*
X104811185Y-76287750D01*
X104811185Y-76312254D01*
X104815966Y-76336287D01*
X104823901Y-76355445D01*
X104825157Y-76359584D01*
X104826000Y-76368143D01*
X104826000Y-76631857D01*
X104825157Y-76640416D01*
X104823901Y-76644556D01*
X104815965Y-76663716D01*
X104811185Y-76687750D01*
X104811185Y-76712254D01*
X104815966Y-76736287D01*
X104823901Y-76755445D01*
X104825157Y-76759584D01*
X104826000Y-76768143D01*
X104826000Y-77031857D01*
X104825157Y-77040416D01*
X104823901Y-77044556D01*
X104815965Y-77063716D01*
X104811185Y-77087750D01*
X104811185Y-77112254D01*
X104815966Y-77136287D01*
X104823901Y-77155445D01*
X104825157Y-77159584D01*
X104826000Y-77168143D01*
X104826000Y-77349001D01*
X104828402Y-77373387D01*
X104835515Y-77396836D01*
X104847066Y-77418447D01*
X104862611Y-77437389D01*
X104881553Y-77452934D01*
X104903164Y-77464485D01*
X104926613Y-77471598D01*
X104950999Y-77474000D01*
X105131857Y-77474000D01*
X105140416Y-77474843D01*
X105144556Y-77476099D01*
X105163716Y-77484035D01*
X105187750Y-77488815D01*
X105212254Y-77488815D01*
X105236287Y-77484034D01*
X105255445Y-77476099D01*
X105259584Y-77474843D01*
X105268143Y-77474000D01*
X105531857Y-77474000D01*
X105540416Y-77474843D01*
X105544556Y-77476099D01*
X105563716Y-77484035D01*
X105587750Y-77488815D01*
X105612254Y-77488815D01*
X105636287Y-77484034D01*
X105655445Y-77476099D01*
X105659584Y-77474843D01*
X105668143Y-77474000D01*
X105931857Y-77474000D01*
X105940416Y-77474843D01*
X105944556Y-77476099D01*
X105963716Y-77484035D01*
X105987750Y-77488815D01*
X106012254Y-77488815D01*
X106036287Y-77484034D01*
X106055445Y-77476099D01*
X106059584Y-77474843D01*
X106068143Y-77474000D01*
X106331857Y-77474000D01*
X106340416Y-77474843D01*
X106344556Y-77476099D01*
X106363716Y-77484035D01*
X106387750Y-77488815D01*
X106412254Y-77488815D01*
X106436287Y-77484034D01*
X106455445Y-77476099D01*
X106459584Y-77474843D01*
X106468143Y-77474000D01*
X106731857Y-77474000D01*
X106740416Y-77474843D01*
X106744556Y-77476099D01*
X106763716Y-77484035D01*
X106787750Y-77488815D01*
X106812254Y-77488815D01*
X106836287Y-77484034D01*
X106855445Y-77476099D01*
X106859584Y-77474843D01*
X106868143Y-77474000D01*
X107049001Y-77474000D01*
X107073387Y-77471598D01*
X107096836Y-77464485D01*
X107118447Y-77452934D01*
X107137389Y-77437389D01*
X107152934Y-77418447D01*
X107164485Y-77396836D01*
X107171598Y-77373387D01*
X107174000Y-77349001D01*
X107174000Y-77168143D01*
X107174843Y-77159584D01*
X107176099Y-77155444D01*
X107184035Y-77136284D01*
X107188815Y-77112250D01*
X107188815Y-77087746D01*
X107184034Y-77063713D01*
X107176099Y-77044555D01*
X107174843Y-77040416D01*
X107174000Y-77031857D01*
X107174000Y-76768143D01*
X107174843Y-76759584D01*
X107176099Y-76755444D01*
X107184035Y-76736284D01*
X107188815Y-76712250D01*
X107188815Y-76687746D01*
X107184034Y-76663713D01*
X107176099Y-76644555D01*
X107174843Y-76640416D01*
X107174000Y-76631857D01*
X107174000Y-76368143D01*
X107174843Y-76359584D01*
X107176099Y-76355444D01*
X107184035Y-76336284D01*
X107188815Y-76312250D01*
X107188815Y-76287746D01*
X107184034Y-76263713D01*
X107176099Y-76244555D01*
X107174843Y-76240416D01*
X107174000Y-76231857D01*
X107174000Y-75968143D01*
X107174843Y-75959584D01*
X107176099Y-75955444D01*
X107184035Y-75936284D01*
X107188815Y-75912250D01*
X107188815Y-75887746D01*
X107184034Y-75863713D01*
X107176099Y-75844555D01*
X107174843Y-75840416D01*
X107174000Y-75831857D01*
X107174000Y-75568143D01*
X107174843Y-75559584D01*
X107176099Y-75555444D01*
X107184035Y-75536284D01*
X107188815Y-75512250D01*
X107188815Y-75487746D01*
X107184034Y-75463713D01*
X107176099Y-75444555D01*
X107174843Y-75440416D01*
X107174000Y-75431857D01*
X107174000Y-75250999D01*
X107171598Y-75226613D01*
X107164485Y-75203164D01*
X107152934Y-75181553D01*
X107137389Y-75162611D01*
X107118447Y-75147066D01*
X107096836Y-75135515D01*
X107073387Y-75128402D01*
X107049001Y-75126000D01*
X106868143Y-75126000D01*
X106859584Y-75125157D01*
X106855444Y-75123901D01*
X106836284Y-75115965D01*
X106812250Y-75111185D01*
X106787746Y-75111185D01*
X106763713Y-75115966D01*
X106744555Y-75123901D01*
X106740416Y-75125157D01*
X106731857Y-75126000D01*
X106468143Y-75126000D01*
X106459584Y-75125157D01*
X106455444Y-75123901D01*
X106436284Y-75115965D01*
X106412250Y-75111185D01*
X106387746Y-75111185D01*
X106363713Y-75115966D01*
X106344555Y-75123901D01*
X106340416Y-75125157D01*
X106331857Y-75126000D01*
X106068143Y-75126000D01*
X106059584Y-75125157D01*
X106055444Y-75123901D01*
X106036284Y-75115965D01*
X106012250Y-75111185D01*
X105987746Y-75111185D01*
X105963713Y-75115966D01*
X105944555Y-75123901D01*
X105940416Y-75125157D01*
X105931857Y-75126000D01*
X105668143Y-75126000D01*
X105659584Y-75125157D01*
X105655444Y-75123901D01*
X105636284Y-75115965D01*
X105612250Y-75111185D01*
X105587746Y-75111185D01*
X105563713Y-75115966D01*
X105544555Y-75123901D01*
X105540416Y-75125157D01*
X105531857Y-75126000D01*
X105268143Y-75126000D01*
X105259584Y-75125157D01*
X105255444Y-75123901D01*
X105236284Y-75115965D01*
X105212250Y-75111185D01*
X105187746Y-75111185D01*
X105163713Y-75115966D01*
X105144555Y-75123901D01*
X105140416Y-75125157D01*
X105131857Y-75126000D01*
X104950999Y-75126000D01*
X104926613Y-75128402D01*
X104903164Y-75135515D01*
X104881553Y-75147066D01*
X104862611Y-75162611D01*
X104847066Y-75181553D01*
X104835515Y-75203164D01*
X104828402Y-75226613D01*
X104826000Y-75250999D01*
X104826000Y-75431857D01*
X104825157Y-75440416D01*
X104823901Y-75444556D01*
X104815965Y-75463716D01*
X104811185Y-75487750D01*
X104188815Y-75487750D01*
X104188815Y-75487746D01*
X104184034Y-75463713D01*
X104176099Y-75444555D01*
X104174843Y-75440416D01*
X104174000Y-75431857D01*
X104174000Y-75168143D01*
X104174843Y-75159584D01*
X104175550Y-75157255D01*
X104176695Y-75155113D01*
X104178235Y-75153235D01*
X104180113Y-75151695D01*
X104182255Y-75150550D01*
X104184584Y-75149843D01*
X104193143Y-75149000D01*
X104724001Y-75149000D01*
X104748387Y-75146598D01*
X104771836Y-75139485D01*
X104793447Y-75127934D01*
X104812389Y-75112389D01*
X104827934Y-75093447D01*
X104839485Y-75071836D01*
X104846598Y-75048387D01*
X104849000Y-75024001D01*
X104849000Y-74493143D01*
X104849843Y-74484584D01*
X104850550Y-74482255D01*
X104851695Y-74480113D01*
X104853235Y-74478235D01*
X104855113Y-74476695D01*
X104857255Y-74475550D01*
X104859584Y-74474843D01*
X104868143Y-74474000D01*
X105131857Y-74474000D01*
X105140416Y-74474843D01*
G37*
G36*
X112114795Y-75280156D02*
G01*
X112221150Y-75301311D01*
X112321334Y-75342809D01*
X112421520Y-75384307D01*
X112601844Y-75504795D01*
X112755205Y-75658156D01*
X112875693Y-75838480D01*
X112906249Y-75912250D01*
X112955334Y-76030750D01*
X112958689Y-76038851D01*
X113001000Y-76251560D01*
X113001000Y-76468440D01*
X112981415Y-76566901D01*
X112958689Y-76681150D01*
X112932279Y-76744908D01*
X112875693Y-76881520D01*
X112755205Y-77061844D01*
X112601844Y-77215205D01*
X112421520Y-77335693D01*
X112389391Y-77349001D01*
X112221150Y-77418689D01*
X112169881Y-77428887D01*
X112008440Y-77461000D01*
X111791560Y-77461000D01*
X111630119Y-77428887D01*
X111578850Y-77418689D01*
X111410609Y-77349001D01*
X111378480Y-77335693D01*
X111198156Y-77215205D01*
X111044795Y-77061844D01*
X110924307Y-76881520D01*
X110867721Y-76744908D01*
X110841311Y-76681150D01*
X110818585Y-76566901D01*
X110799000Y-76468440D01*
X110799000Y-76251560D01*
X110841311Y-76038851D01*
X110844667Y-76030750D01*
X110893751Y-75912250D01*
X110924307Y-75838480D01*
X111044795Y-75658156D01*
X111198156Y-75504795D01*
X111378480Y-75384307D01*
X111478666Y-75342809D01*
X111578850Y-75301311D01*
X111685205Y-75280156D01*
X111791560Y-75259000D01*
X112008440Y-75259000D01*
X112114795Y-75280156D01*
G37*
G36*
X101431200Y-76902500D02*
G01*
X100429200Y-76902500D01*
X100429200Y-76000500D01*
X101431200Y-76000500D01*
X101431200Y-76902500D01*
G37*
G36*
X102865791Y-75818585D02*
G01*
X102899769Y-75828893D01*
X102931090Y-75845634D01*
X102958539Y-75868161D01*
X102981066Y-75895610D01*
X102997807Y-75926931D01*
X103008115Y-75960909D01*
X103012200Y-76002389D01*
X103012200Y-76603610D01*
X103008115Y-76645091D01*
X102997807Y-76679069D01*
X102981066Y-76710390D01*
X102958539Y-76737839D01*
X102931090Y-76760366D01*
X102899769Y-76777107D01*
X102865791Y-76787415D01*
X102824310Y-76791500D01*
X102148090Y-76791500D01*
X102106609Y-76787415D01*
X102072631Y-76777107D01*
X102041310Y-76760366D01*
X102013861Y-76737839D01*
X101991334Y-76710390D01*
X101974593Y-76679069D01*
X101964285Y-76645091D01*
X101960200Y-76603610D01*
X101960200Y-76002389D01*
X101964285Y-75960909D01*
X101974593Y-75926931D01*
X101991334Y-75895610D01*
X102013861Y-75868161D01*
X102041310Y-75845634D01*
X102072631Y-75828893D01*
X102106609Y-75818585D01*
X102148090Y-75814500D01*
X102824310Y-75814500D01*
X102865791Y-75818585D01*
G37*
G36*
X97785791Y-75790585D02*
G01*
X97819769Y-75800893D01*
X97851090Y-75817634D01*
X97878539Y-75840161D01*
X97901066Y-75867610D01*
X97917807Y-75898931D01*
X97928115Y-75932909D01*
X97932200Y-75974390D01*
X97932200Y-76575610D01*
X97928115Y-76617091D01*
X97917807Y-76651069D01*
X97901066Y-76682390D01*
X97878539Y-76709839D01*
X97851090Y-76732366D01*
X97819769Y-76749107D01*
X97785791Y-76759415D01*
X97744310Y-76763500D01*
X97068090Y-76763500D01*
X97026609Y-76759415D01*
X96992631Y-76749107D01*
X96961310Y-76732366D01*
X96933861Y-76709839D01*
X96911334Y-76682390D01*
X96894593Y-76651069D01*
X96884285Y-76617091D01*
X96880200Y-76575610D01*
X96880200Y-75974390D01*
X96884285Y-75932909D01*
X96894593Y-75898931D01*
X96911334Y-75867610D01*
X96933861Y-75840161D01*
X96961310Y-75817634D01*
X96992631Y-75800893D01*
X97026609Y-75790585D01*
X97068090Y-75786500D01*
X97744310Y-75786500D01*
X97785791Y-75790585D01*
G37*
G36*
X99431200Y-75952500D02*
G01*
X98429200Y-75952500D01*
X98429200Y-75050500D01*
X99431200Y-75050500D01*
X99431200Y-75952500D01*
G37*
G36*
X86125000Y-75860000D02*
G01*
X84023000Y-75860000D01*
X84023000Y-74858000D01*
X86125000Y-74858000D01*
X86125000Y-75860000D01*
G37*
G36*
X102865791Y-74243585D02*
G01*
X102899769Y-74253893D01*
X102931090Y-74270634D01*
X102958539Y-74293161D01*
X102981066Y-74320610D01*
X102997807Y-74351931D01*
X103008115Y-74385909D01*
X103012200Y-74427390D01*
X103012200Y-75028610D01*
X103008115Y-75070091D01*
X102997807Y-75104069D01*
X102981066Y-75135390D01*
X102958539Y-75162839D01*
X102931090Y-75185366D01*
X102899769Y-75202107D01*
X102865791Y-75212415D01*
X102824310Y-75216500D01*
X102148090Y-75216500D01*
X102106609Y-75212415D01*
X102072631Y-75202107D01*
X102041310Y-75185366D01*
X102013861Y-75162839D01*
X101991334Y-75135390D01*
X101974593Y-75104069D01*
X101964285Y-75070091D01*
X101960200Y-75028610D01*
X101960200Y-74427390D01*
X101964285Y-74385909D01*
X101974593Y-74351931D01*
X101991334Y-74320610D01*
X102013861Y-74293161D01*
X102041310Y-74270634D01*
X102072631Y-74253893D01*
X102106609Y-74243585D01*
X102148090Y-74239500D01*
X102824310Y-74239500D01*
X102865791Y-74243585D01*
G37*
G36*
X97785791Y-74215585D02*
G01*
X97819769Y-74225893D01*
X97851090Y-74242634D01*
X97878539Y-74265161D01*
X97901066Y-74292610D01*
X97917807Y-74323931D01*
X97928115Y-74357909D01*
X97932200Y-74399390D01*
X97932200Y-75000610D01*
X97928115Y-75042091D01*
X97917807Y-75076069D01*
X97901066Y-75107390D01*
X97878539Y-75134839D01*
X97851090Y-75157366D01*
X97819769Y-75174107D01*
X97785791Y-75184415D01*
X97744310Y-75188500D01*
X97068090Y-75188500D01*
X97026609Y-75184415D01*
X96992631Y-75174107D01*
X96961310Y-75157366D01*
X96933861Y-75134839D01*
X96911334Y-75107390D01*
X96894593Y-75076069D01*
X96884285Y-75042091D01*
X96880200Y-75000610D01*
X96880200Y-74399390D01*
X96884285Y-74357909D01*
X96894593Y-74323931D01*
X96911334Y-74292610D01*
X96933861Y-74265161D01*
X96961310Y-74242634D01*
X96992631Y-74225893D01*
X97026609Y-74215585D01*
X97068090Y-74211500D01*
X97744310Y-74211500D01*
X97785791Y-74215585D01*
G37*
G36*
X101431200Y-75002500D02*
G01*
X100429200Y-75002500D01*
X100429200Y-74100500D01*
X101431200Y-74100500D01*
X101431200Y-75002500D01*
G37*
G36*
X86125000Y-74590000D02*
G01*
X84023000Y-74590000D01*
X84023000Y-73588000D01*
X86125000Y-73588000D01*
X86125000Y-74590000D01*
G37*
G36*
X109257091Y-73328585D02*
G01*
X109291069Y-73338893D01*
X109322390Y-73355634D01*
X109349839Y-73378161D01*
X109372366Y-73405610D01*
X109389107Y-73436931D01*
X109399415Y-73470909D01*
X109403500Y-73512390D01*
X109403500Y-74188610D01*
X109399415Y-74230091D01*
X109389107Y-74264069D01*
X109372366Y-74295390D01*
X109349839Y-74322839D01*
X109322390Y-74345366D01*
X109291069Y-74362107D01*
X109257091Y-74372415D01*
X109215610Y-74376500D01*
X108614390Y-74376500D01*
X108572909Y-74372415D01*
X108538931Y-74362107D01*
X108507610Y-74345366D01*
X108480161Y-74322839D01*
X108457634Y-74295390D01*
X108440893Y-74264069D01*
X108430585Y-74230091D01*
X108426500Y-74188610D01*
X108426500Y-73512390D01*
X108430585Y-73470909D01*
X108440893Y-73436931D01*
X108457634Y-73405610D01*
X108480161Y-73378161D01*
X108507610Y-73355634D01*
X108538931Y-73338893D01*
X108572909Y-73328585D01*
X108614390Y-73324500D01*
X109215610Y-73324500D01*
X109257091Y-73328585D01*
G37*
G36*
X110832091Y-73328585D02*
G01*
X110866069Y-73338893D01*
X110897390Y-73355634D01*
X110924839Y-73378161D01*
X110947366Y-73405610D01*
X110964107Y-73436931D01*
X110974415Y-73470909D01*
X110978500Y-73512390D01*
X110978500Y-74188610D01*
X110974415Y-74230091D01*
X110964107Y-74264069D01*
X110947366Y-74295390D01*
X110924839Y-74322839D01*
X110897390Y-74345366D01*
X110866069Y-74362107D01*
X110832091Y-74372415D01*
X110790610Y-74376500D01*
X110189390Y-74376500D01*
X110147909Y-74372415D01*
X110113931Y-74362107D01*
X110082610Y-74345366D01*
X110055161Y-74322839D01*
X110032634Y-74295390D01*
X110015893Y-74264069D01*
X110005585Y-74230091D01*
X110001500Y-74188610D01*
X110001500Y-73512390D01*
X110005585Y-73470909D01*
X110015893Y-73436931D01*
X110032634Y-73405610D01*
X110055161Y-73378161D01*
X110082610Y-73355634D01*
X110113931Y-73338893D01*
X110147909Y-73328585D01*
X110189390Y-73324500D01*
X110790610Y-73324500D01*
X110832091Y-73328585D01*
G37*
G36*
X101431200Y-73346500D02*
G01*
X100429200Y-73346500D01*
X100429200Y-72444500D01*
X101431200Y-72444500D01*
X101431200Y-73346500D01*
G37*
G36*
X86125000Y-73320000D02*
G01*
X84023000Y-73320000D01*
X84023000Y-72318000D01*
X86125000Y-72318000D01*
X86125000Y-73320000D01*
G37*
G36*
X97785791Y-72234585D02*
G01*
X97819769Y-72244893D01*
X97851090Y-72261634D01*
X97878539Y-72284161D01*
X97901066Y-72311610D01*
X97917807Y-72342931D01*
X97928115Y-72376909D01*
X97932200Y-72418390D01*
X97932200Y-73019610D01*
X97928115Y-73061091D01*
X97917807Y-73095069D01*
X97901066Y-73126390D01*
X97878539Y-73153839D01*
X97851090Y-73176366D01*
X97819769Y-73193107D01*
X97785791Y-73203415D01*
X97744310Y-73207500D01*
X97068090Y-73207500D01*
X97026609Y-73203415D01*
X96992631Y-73193107D01*
X96961310Y-73176366D01*
X96933861Y-73153839D01*
X96911334Y-73126390D01*
X96894593Y-73095069D01*
X96884285Y-73061091D01*
X96880200Y-73019610D01*
X96880200Y-72418390D01*
X96884285Y-72376909D01*
X96894593Y-72342931D01*
X96911334Y-72311610D01*
X96933861Y-72284161D01*
X96961310Y-72261634D01*
X96992631Y-72244893D01*
X97026609Y-72234585D01*
X97068090Y-72230500D01*
X97744310Y-72230500D01*
X97785791Y-72234585D01*
G37*
G36*
X102865791Y-72234585D02*
G01*
X102899769Y-72244893D01*
X102931090Y-72261634D01*
X102958539Y-72284161D01*
X102981066Y-72311610D01*
X102997807Y-72342931D01*
X103008115Y-72376909D01*
X103012200Y-72418390D01*
X103012200Y-73019610D01*
X103008115Y-73061091D01*
X102997807Y-73095069D01*
X102981066Y-73126390D01*
X102958539Y-73153839D01*
X102931090Y-73176366D01*
X102899769Y-73193107D01*
X102865791Y-73203415D01*
X102824310Y-73207500D01*
X102148090Y-73207500D01*
X102106609Y-73203415D01*
X102072631Y-73193107D01*
X102041310Y-73176366D01*
X102013861Y-73153839D01*
X101991334Y-73126390D01*
X101974593Y-73095069D01*
X101964285Y-73061091D01*
X101960200Y-73019610D01*
X101960200Y-72418390D01*
X101964285Y-72376909D01*
X101974593Y-72342931D01*
X101991334Y-72311610D01*
X102013861Y-72284161D01*
X102041310Y-72261634D01*
X102072631Y-72244893D01*
X102106609Y-72234585D01*
X102148090Y-72230500D01*
X102824310Y-72230500D01*
X102865791Y-72234585D01*
G37*
G36*
X77615000Y-73195000D02*
G01*
X72513000Y-73195000D01*
X72513000Y-68093000D01*
X77615000Y-68093000D01*
X77615000Y-73195000D01*
G37*
G36*
X106345591Y-71825985D02*
G01*
X106379569Y-71836293D01*
X106410890Y-71853034D01*
X106438339Y-71875561D01*
X106460866Y-71903010D01*
X106477607Y-71934331D01*
X106487915Y-71968309D01*
X106492000Y-72009790D01*
X106492000Y-72611010D01*
X106487915Y-72652491D01*
X106477607Y-72686469D01*
X106460866Y-72717790D01*
X106438339Y-72745239D01*
X106410890Y-72767766D01*
X106379569Y-72784507D01*
X106345591Y-72794815D01*
X106304110Y-72798900D01*
X105627890Y-72798900D01*
X105586409Y-72794815D01*
X105552431Y-72784507D01*
X105521110Y-72767766D01*
X105493661Y-72745239D01*
X105471134Y-72717790D01*
X105454393Y-72686469D01*
X105444085Y-72652491D01*
X105440000Y-72611010D01*
X105440000Y-72009790D01*
X105444085Y-71968309D01*
X105454393Y-71934331D01*
X105471134Y-71903010D01*
X105493661Y-71875561D01*
X105521110Y-71853034D01*
X105552431Y-71836293D01*
X105586409Y-71825985D01*
X105627890Y-71821900D01*
X106304110Y-71821900D01*
X106345591Y-71825985D01*
G37*
G36*
X107869591Y-71825985D02*
G01*
X107903569Y-71836293D01*
X107934890Y-71853034D01*
X107962339Y-71875561D01*
X107984866Y-71903010D01*
X108001607Y-71934331D01*
X108011915Y-71968309D01*
X108016000Y-72009790D01*
X108016000Y-72611010D01*
X108011915Y-72652491D01*
X108001607Y-72686469D01*
X107984866Y-72717790D01*
X107962339Y-72745239D01*
X107934890Y-72767766D01*
X107903569Y-72784507D01*
X107869591Y-72794815D01*
X107828110Y-72798900D01*
X107151890Y-72798900D01*
X107110409Y-72794815D01*
X107076431Y-72784507D01*
X107045110Y-72767766D01*
X107017661Y-72745239D01*
X106995134Y-72717790D01*
X106978393Y-72686469D01*
X106968085Y-72652491D01*
X106964000Y-72611010D01*
X106964000Y-72009790D01*
X106968085Y-71968309D01*
X106978393Y-71934331D01*
X106995134Y-71903010D01*
X107017661Y-71875561D01*
X107045110Y-71853034D01*
X107076431Y-71836293D01*
X107110409Y-71825985D01*
X107151890Y-71821900D01*
X107828110Y-71821900D01*
X107869591Y-71825985D01*
G37*
G36*
X104821591Y-71811985D02*
G01*
X104855569Y-71822293D01*
X104886890Y-71839034D01*
X104914339Y-71861561D01*
X104936866Y-71889010D01*
X104953607Y-71920331D01*
X104963915Y-71954309D01*
X104968000Y-71995790D01*
X104968000Y-72597010D01*
X104963915Y-72638491D01*
X104953607Y-72672469D01*
X104936866Y-72703790D01*
X104914339Y-72731239D01*
X104886890Y-72753766D01*
X104855569Y-72770507D01*
X104821591Y-72780815D01*
X104780110Y-72784900D01*
X104103890Y-72784900D01*
X104062409Y-72780815D01*
X104028431Y-72770507D01*
X103997110Y-72753766D01*
X103969661Y-72731239D01*
X103947134Y-72703790D01*
X103930393Y-72672469D01*
X103920085Y-72638491D01*
X103916000Y-72597010D01*
X103916000Y-71995790D01*
X103920085Y-71954309D01*
X103930393Y-71920331D01*
X103947134Y-71889010D01*
X103969661Y-71861561D01*
X103997110Y-71839034D01*
X104028431Y-71822293D01*
X104062409Y-71811985D01*
X104103890Y-71807900D01*
X104780110Y-71807900D01*
X104821591Y-71811985D01*
G37*
G36*
X99431200Y-72396500D02*
G01*
X98429200Y-72396500D01*
X98429200Y-71494500D01*
X99431200Y-71494500D01*
X99431200Y-72396500D01*
G37*
G36*
X86125000Y-72050000D02*
G01*
X84023000Y-72050000D01*
X84023000Y-71048000D01*
X86125000Y-71048000D01*
X86125000Y-72050000D01*
G37*
G36*
X89090000Y-71871000D02*
G01*
X86588000Y-71871000D01*
X86588000Y-71009000D01*
X89090000Y-71009000D01*
X89090000Y-71871000D01*
G37*
G36*
X92990000Y-71871000D02*
G01*
X90488000Y-71871000D01*
X90488000Y-71009000D01*
X92990000Y-71009000D01*
X92990000Y-71871000D01*
G37*
G36*
X102865791Y-70659585D02*
G01*
X102899769Y-70669893D01*
X102931090Y-70686634D01*
X102958539Y-70709161D01*
X102981066Y-70736610D01*
X102997807Y-70767931D01*
X103008115Y-70801909D01*
X103012200Y-70843390D01*
X103012200Y-71444610D01*
X103008115Y-71486091D01*
X102997807Y-71520069D01*
X102981066Y-71551390D01*
X102958539Y-71578839D01*
X102931090Y-71601366D01*
X102899769Y-71618107D01*
X102865791Y-71628415D01*
X102824310Y-71632500D01*
X102148090Y-71632500D01*
X102106609Y-71628415D01*
X102072631Y-71618107D01*
X102041310Y-71601366D01*
X102013861Y-71578839D01*
X101991334Y-71551390D01*
X101974593Y-71520069D01*
X101964285Y-71486091D01*
X101960200Y-71444610D01*
X101960200Y-70843390D01*
X101964285Y-70801909D01*
X101974593Y-70767931D01*
X101991334Y-70736610D01*
X102013861Y-70709161D01*
X102041310Y-70686634D01*
X102072631Y-70669893D01*
X102106609Y-70659585D01*
X102148090Y-70655500D01*
X102824310Y-70655500D01*
X102865791Y-70659585D01*
G37*
G36*
X97785791Y-70659585D02*
G01*
X97819769Y-70669893D01*
X97851090Y-70686634D01*
X97878539Y-70709161D01*
X97901066Y-70736610D01*
X97917807Y-70767931D01*
X97928115Y-70801909D01*
X97932200Y-70843390D01*
X97932200Y-71444610D01*
X97928115Y-71486091D01*
X97917807Y-71520069D01*
X97901066Y-71551390D01*
X97878539Y-71578839D01*
X97851090Y-71601366D01*
X97819769Y-71618107D01*
X97785791Y-71628415D01*
X97744310Y-71632500D01*
X97068090Y-71632500D01*
X97026609Y-71628415D01*
X96992631Y-71618107D01*
X96961310Y-71601366D01*
X96933861Y-71578839D01*
X96911334Y-71551390D01*
X96894593Y-71520069D01*
X96884285Y-71486091D01*
X96880200Y-71444610D01*
X96880200Y-70843390D01*
X96884285Y-70801909D01*
X96894593Y-70767931D01*
X96911334Y-70736610D01*
X96933861Y-70709161D01*
X96961310Y-70686634D01*
X96992631Y-70669893D01*
X97026609Y-70659585D01*
X97068090Y-70655500D01*
X97744310Y-70655500D01*
X97785791Y-70659585D01*
G37*
G36*
X101431200Y-71446500D02*
G01*
X100429200Y-71446500D01*
X100429200Y-70544500D01*
X101431200Y-70544500D01*
X101431200Y-71446500D01*
G37*
G36*
X106345591Y-70250985D02*
G01*
X106379569Y-70261293D01*
X106410890Y-70278034D01*
X106438339Y-70300561D01*
X106460866Y-70328010D01*
X106477607Y-70359331D01*
X106487915Y-70393309D01*
X106492000Y-70434790D01*
X106492000Y-71036010D01*
X106487915Y-71077491D01*
X106477607Y-71111469D01*
X106460866Y-71142790D01*
X106438339Y-71170239D01*
X106410890Y-71192766D01*
X106379569Y-71209507D01*
X106345591Y-71219815D01*
X106304110Y-71223900D01*
X105627890Y-71223900D01*
X105586409Y-71219815D01*
X105552431Y-71209507D01*
X105521110Y-71192766D01*
X105493661Y-71170239D01*
X105471134Y-71142790D01*
X105454393Y-71111469D01*
X105444085Y-71077491D01*
X105440000Y-71036010D01*
X105440000Y-70434790D01*
X105444085Y-70393309D01*
X105454393Y-70359331D01*
X105471134Y-70328010D01*
X105493661Y-70300561D01*
X105521110Y-70278034D01*
X105552431Y-70261293D01*
X105586409Y-70250985D01*
X105627890Y-70246900D01*
X106304110Y-70246900D01*
X106345591Y-70250985D01*
G37*
G36*
X107869591Y-70250985D02*
G01*
X107903569Y-70261293D01*
X107934890Y-70278034D01*
X107962339Y-70300561D01*
X107984866Y-70328010D01*
X108001607Y-70359331D01*
X108011915Y-70393309D01*
X108016000Y-70434790D01*
X108016000Y-71036010D01*
X108011915Y-71077491D01*
X108001607Y-71111469D01*
X107984866Y-71142790D01*
X107962339Y-71170239D01*
X107934890Y-71192766D01*
X107903569Y-71209507D01*
X107869591Y-71219815D01*
X107828110Y-71223900D01*
X107151890Y-71223900D01*
X107110409Y-71219815D01*
X107076431Y-71209507D01*
X107045110Y-71192766D01*
X107017661Y-71170239D01*
X106995134Y-71142790D01*
X106978393Y-71111469D01*
X106968085Y-71077491D01*
X106964000Y-71036010D01*
X106964000Y-70434790D01*
X106968085Y-70393309D01*
X106978393Y-70359331D01*
X106995134Y-70328010D01*
X107017661Y-70300561D01*
X107045110Y-70278034D01*
X107076431Y-70261293D01*
X107110409Y-70250985D01*
X107151890Y-70246900D01*
X107828110Y-70246900D01*
X107869591Y-70250985D01*
G37*
G36*
X104821591Y-70236985D02*
G01*
X104855569Y-70247293D01*
X104886890Y-70264034D01*
X104914339Y-70286561D01*
X104936866Y-70314010D01*
X104953607Y-70345331D01*
X104963915Y-70379309D01*
X104968000Y-70420790D01*
X104968000Y-71022010D01*
X104963915Y-71063491D01*
X104953607Y-71097469D01*
X104936866Y-71128790D01*
X104914339Y-71156239D01*
X104886890Y-71178766D01*
X104855569Y-71195507D01*
X104821591Y-71205815D01*
X104780110Y-71209900D01*
X104103890Y-71209900D01*
X104062409Y-71205815D01*
X104028431Y-71195507D01*
X103997110Y-71178766D01*
X103969661Y-71156239D01*
X103947134Y-71128790D01*
X103930393Y-71097469D01*
X103920085Y-71063491D01*
X103916000Y-71022010D01*
X103916000Y-70420790D01*
X103920085Y-70379309D01*
X103930393Y-70345331D01*
X103947134Y-70314010D01*
X103969661Y-70286561D01*
X103997110Y-70264034D01*
X104028431Y-70247293D01*
X104062409Y-70236985D01*
X104103890Y-70232900D01*
X104780110Y-70232900D01*
X104821591Y-70236985D01*
G37*
G36*
X110997191Y-69997685D02*
G01*
X111031169Y-70007993D01*
X111062490Y-70024734D01*
X111089939Y-70047261D01*
X111112466Y-70074710D01*
X111129207Y-70106031D01*
X111139515Y-70140009D01*
X111143600Y-70181490D01*
X111143600Y-70857710D01*
X111139515Y-70899191D01*
X111129207Y-70933169D01*
X111112466Y-70964490D01*
X111089939Y-70991939D01*
X111062490Y-71014466D01*
X111031169Y-71031207D01*
X110997191Y-71041515D01*
X110955710Y-71045600D01*
X110354490Y-71045600D01*
X110313009Y-71041515D01*
X110279031Y-71031207D01*
X110247710Y-71014466D01*
X110220261Y-70991939D01*
X110197734Y-70964490D01*
X110180993Y-70933169D01*
X110170685Y-70899191D01*
X110166600Y-70857710D01*
X110166600Y-70181490D01*
X110170685Y-70140009D01*
X110180993Y-70106031D01*
X110197734Y-70074710D01*
X110220261Y-70047261D01*
X110247710Y-70024734D01*
X110279031Y-70007993D01*
X110313009Y-69997685D01*
X110354490Y-69993600D01*
X110955710Y-69993600D01*
X110997191Y-69997685D01*
G37*
G36*
X109422191Y-69997685D02*
G01*
X109456169Y-70007993D01*
X109487490Y-70024734D01*
X109514939Y-70047261D01*
X109537466Y-70074710D01*
X109554207Y-70106031D01*
X109564515Y-70140009D01*
X109568600Y-70181490D01*
X109568600Y-70857710D01*
X109564515Y-70899191D01*
X109554207Y-70933169D01*
X109537466Y-70964490D01*
X109514939Y-70991939D01*
X109487490Y-71014466D01*
X109456169Y-71031207D01*
X109422191Y-71041515D01*
X109380710Y-71045600D01*
X108779490Y-71045600D01*
X108738009Y-71041515D01*
X108704031Y-71031207D01*
X108672710Y-71014466D01*
X108645261Y-70991939D01*
X108622734Y-70964490D01*
X108605993Y-70933169D01*
X108595685Y-70899191D01*
X108591600Y-70857710D01*
X108591600Y-70181490D01*
X108595685Y-70140009D01*
X108605993Y-70106031D01*
X108622734Y-70074710D01*
X108645261Y-70047261D01*
X108672710Y-70024734D01*
X108704031Y-70007993D01*
X108738009Y-69997685D01*
X108779490Y-69993600D01*
X109380710Y-69993600D01*
X109422191Y-69997685D01*
G37*
G36*
X86125000Y-70780000D02*
G01*
X84023000Y-70780000D01*
X84023000Y-69778000D01*
X86125000Y-69778000D01*
X86125000Y-70780000D01*
G37*
G36*
X89090000Y-70601000D02*
G01*
X86588000Y-70601000D01*
X86588000Y-69739000D01*
X89090000Y-69739000D01*
X89090000Y-70601000D01*
G37*
G36*
X92990000Y-70601000D02*
G01*
X90488000Y-70601000D01*
X90488000Y-69739000D01*
X92990000Y-69739000D01*
X92990000Y-70601000D01*
G37*
G36*
X102679591Y-68960585D02*
G01*
X102713569Y-68970893D01*
X102744890Y-68987634D01*
X102772339Y-69010161D01*
X102794866Y-69037610D01*
X102811607Y-69068931D01*
X102821915Y-69102909D01*
X102826000Y-69144390D01*
X102826000Y-69745610D01*
X102821915Y-69787091D01*
X102811607Y-69821069D01*
X102794866Y-69852390D01*
X102772339Y-69879839D01*
X102744890Y-69902366D01*
X102713569Y-69919107D01*
X102679591Y-69929415D01*
X102638110Y-69933500D01*
X101961890Y-69933500D01*
X101920409Y-69929415D01*
X101886431Y-69919107D01*
X101855110Y-69902366D01*
X101827661Y-69879839D01*
X101805134Y-69852390D01*
X101788393Y-69821069D01*
X101778085Y-69787091D01*
X101774000Y-69745610D01*
X101774000Y-69144390D01*
X101778085Y-69102909D01*
X101788393Y-69068931D01*
X101805134Y-69037610D01*
X101827661Y-69010161D01*
X101855110Y-68987634D01*
X101886431Y-68970893D01*
X101920409Y-68960585D01*
X101961890Y-68956500D01*
X102638110Y-68956500D01*
X102679591Y-68960585D01*
G37*
G36*
X97879591Y-68915585D02*
G01*
X97913569Y-68925893D01*
X97944890Y-68942634D01*
X97972339Y-68965161D01*
X97994866Y-68992610D01*
X98011607Y-69023931D01*
X98021915Y-69057909D01*
X98026000Y-69099390D01*
X98026000Y-69700610D01*
X98021915Y-69742091D01*
X98011607Y-69776069D01*
X97994866Y-69807390D01*
X97972339Y-69834839D01*
X97944890Y-69857366D01*
X97913569Y-69874107D01*
X97879591Y-69884415D01*
X97838110Y-69888500D01*
X97161890Y-69888500D01*
X97120409Y-69884415D01*
X97086431Y-69874107D01*
X97055110Y-69857366D01*
X97027661Y-69834839D01*
X97005134Y-69807390D01*
X96988393Y-69776069D01*
X96978085Y-69742091D01*
X96974000Y-69700610D01*
X96974000Y-69099390D01*
X96978085Y-69057909D01*
X96988393Y-69023931D01*
X97005134Y-68992610D01*
X97027661Y-68965161D01*
X97055110Y-68942634D01*
X97086431Y-68925893D01*
X97120409Y-68915585D01*
X97161890Y-68911500D01*
X97838110Y-68911500D01*
X97879591Y-68915585D01*
G37*
G36*
X99326000Y-69701000D02*
G01*
X98574000Y-69701000D01*
X98574000Y-67899000D01*
X99326000Y-67899000D01*
X99326000Y-69701000D01*
G37*
G36*
X101226000Y-69701000D02*
G01*
X100474000Y-69701000D01*
X100474000Y-69199000D01*
X101226000Y-69199000D01*
X101226000Y-69701000D01*
G37*
G36*
X86125000Y-69510000D02*
G01*
X84023000Y-69510000D01*
X84023000Y-68508000D01*
X86125000Y-68508000D01*
X86125000Y-69510000D01*
G37*
G36*
X106082091Y-68333985D02*
G01*
X106116069Y-68344293D01*
X106147390Y-68361034D01*
X106174839Y-68383561D01*
X106197366Y-68411010D01*
X106214107Y-68442331D01*
X106224415Y-68476309D01*
X106228500Y-68517790D01*
X106228500Y-69194010D01*
X106224415Y-69235491D01*
X106214107Y-69269469D01*
X106197366Y-69300790D01*
X106174839Y-69328239D01*
X106147390Y-69350766D01*
X106116069Y-69367507D01*
X106082091Y-69377815D01*
X106040610Y-69381900D01*
X105439390Y-69381900D01*
X105397909Y-69377815D01*
X105363931Y-69367507D01*
X105332610Y-69350766D01*
X105305161Y-69328239D01*
X105282634Y-69300790D01*
X105265893Y-69269469D01*
X105255585Y-69235491D01*
X105251500Y-69194010D01*
X105251500Y-68517790D01*
X105255585Y-68476309D01*
X105265893Y-68442331D01*
X105282634Y-68411010D01*
X105305161Y-68383561D01*
X105332610Y-68361034D01*
X105363931Y-68344293D01*
X105397909Y-68333985D01*
X105439390Y-68329900D01*
X106040610Y-68329900D01*
X106082091Y-68333985D01*
G37*
G36*
X107657091Y-68333985D02*
G01*
X107691069Y-68344293D01*
X107722390Y-68361034D01*
X107749839Y-68383561D01*
X107772366Y-68411010D01*
X107789107Y-68442331D01*
X107799415Y-68476309D01*
X107803500Y-68517790D01*
X107803500Y-69194010D01*
X107799415Y-69235491D01*
X107789107Y-69269469D01*
X107772366Y-69300790D01*
X107749839Y-69328239D01*
X107722390Y-69350766D01*
X107691069Y-69367507D01*
X107657091Y-69377815D01*
X107615610Y-69381900D01*
X107014390Y-69381900D01*
X106972909Y-69377815D01*
X106938931Y-69367507D01*
X106907610Y-69350766D01*
X106880161Y-69328239D01*
X106857634Y-69300790D01*
X106840893Y-69269469D01*
X106830585Y-69235491D01*
X106826500Y-69194010D01*
X106826500Y-68517790D01*
X106830585Y-68476309D01*
X106840893Y-68442331D01*
X106857634Y-68411010D01*
X106880161Y-68383561D01*
X106907610Y-68361034D01*
X106938931Y-68344293D01*
X106972909Y-68333985D01*
X107014390Y-68329900D01*
X107615610Y-68329900D01*
X107657091Y-68333985D01*
G37*
G36*
X110641591Y-68333985D02*
G01*
X110675569Y-68344293D01*
X110706890Y-68361034D01*
X110734339Y-68383561D01*
X110756866Y-68411010D01*
X110773607Y-68442331D01*
X110783915Y-68476309D01*
X110788000Y-68517790D01*
X110788000Y-69194010D01*
X110783915Y-69235491D01*
X110773607Y-69269469D01*
X110756866Y-69300790D01*
X110734339Y-69328239D01*
X110706890Y-69350766D01*
X110675569Y-69367507D01*
X110641591Y-69377815D01*
X110600110Y-69381900D01*
X109998890Y-69381900D01*
X109957409Y-69377815D01*
X109923431Y-69367507D01*
X109892110Y-69350766D01*
X109864661Y-69328239D01*
X109842134Y-69300790D01*
X109825393Y-69269469D01*
X109815085Y-69235491D01*
X109811000Y-69194010D01*
X109811000Y-68517790D01*
X109815085Y-68476309D01*
X109825393Y-68442331D01*
X109842134Y-68411010D01*
X109864661Y-68383561D01*
X109892110Y-68361034D01*
X109923431Y-68344293D01*
X109957409Y-68333985D01*
X109998890Y-68329900D01*
X110600110Y-68329900D01*
X110641591Y-68333985D01*
G37*
G36*
X109066591Y-68333985D02*
G01*
X109100569Y-68344293D01*
X109131890Y-68361034D01*
X109159339Y-68383561D01*
X109181866Y-68411010D01*
X109198607Y-68442331D01*
X109208915Y-68476309D01*
X109213000Y-68517790D01*
X109213000Y-69194010D01*
X109208915Y-69235491D01*
X109198607Y-69269469D01*
X109181866Y-69300790D01*
X109159339Y-69328239D01*
X109131890Y-69350766D01*
X109100569Y-69367507D01*
X109066591Y-69377815D01*
X109025110Y-69381900D01*
X108423890Y-69381900D01*
X108382409Y-69377815D01*
X108348431Y-69367507D01*
X108317110Y-69350766D01*
X108289661Y-69328239D01*
X108267134Y-69300790D01*
X108250393Y-69269469D01*
X108240085Y-69235491D01*
X108236000Y-69194010D01*
X108236000Y-68517790D01*
X108240085Y-68476309D01*
X108250393Y-68442331D01*
X108267134Y-68411010D01*
X108289661Y-68383561D01*
X108317110Y-68361034D01*
X108348431Y-68344293D01*
X108382409Y-68333985D01*
X108423890Y-68329900D01*
X109025110Y-68329900D01*
X109066591Y-68333985D01*
G37*
G36*
X92990000Y-69331000D02*
G01*
X90488000Y-69331000D01*
X90488000Y-68469000D01*
X92990000Y-68469000D01*
X92990000Y-69331000D01*
G37*
G36*
X89090000Y-69331000D02*
G01*
X86588000Y-69331000D01*
X86588000Y-68469000D01*
X89090000Y-68469000D01*
X89090000Y-69331000D01*
G37*
G36*
X101226000Y-68401000D02*
G01*
X100474000Y-68401000D01*
X100474000Y-67899000D01*
X101226000Y-67899000D01*
X101226000Y-68401000D01*
G37*
G36*
X102679591Y-67385585D02*
G01*
X102713569Y-67395893D01*
X102744890Y-67412634D01*
X102772339Y-67435161D01*
X102794866Y-67462610D01*
X102811607Y-67493931D01*
X102821915Y-67527909D01*
X102826000Y-67569390D01*
X102826000Y-68170610D01*
X102821915Y-68212091D01*
X102811607Y-68246069D01*
X102794866Y-68277390D01*
X102772339Y-68304839D01*
X102744890Y-68327366D01*
X102713569Y-68344107D01*
X102679591Y-68354415D01*
X102638110Y-68358500D01*
X101961890Y-68358500D01*
X101920409Y-68354415D01*
X101886431Y-68344107D01*
X101855110Y-68327366D01*
X101827661Y-68304839D01*
X101805134Y-68277390D01*
X101788393Y-68246069D01*
X101778085Y-68212091D01*
X101774000Y-68170610D01*
X101774000Y-67569390D01*
X101778085Y-67527909D01*
X101788393Y-67493931D01*
X101805134Y-67462610D01*
X101827661Y-67435161D01*
X101855110Y-67412634D01*
X101886431Y-67395893D01*
X101920409Y-67385585D01*
X101961890Y-67381500D01*
X102638110Y-67381500D01*
X102679591Y-67385585D01*
G37*
G36*
X97879591Y-67340585D02*
G01*
X97913569Y-67350893D01*
X97944890Y-67367634D01*
X97972339Y-67390161D01*
X97994866Y-67417610D01*
X98011607Y-67448931D01*
X98021915Y-67482909D01*
X98026000Y-67524390D01*
X98026000Y-68125610D01*
X98021915Y-68167091D01*
X98011607Y-68201069D01*
X97994866Y-68232390D01*
X97972339Y-68259839D01*
X97944890Y-68282366D01*
X97913569Y-68299107D01*
X97879591Y-68309415D01*
X97838110Y-68313500D01*
X97161890Y-68313500D01*
X97120409Y-68309415D01*
X97086431Y-68299107D01*
X97055110Y-68282366D01*
X97027661Y-68259839D01*
X97005134Y-68232390D01*
X96988393Y-68201069D01*
X96978085Y-68167091D01*
X96974000Y-68125610D01*
X96974000Y-67524390D01*
X96978085Y-67482909D01*
X96988393Y-67448931D01*
X97005134Y-67417610D01*
X97027661Y-67390161D01*
X97055110Y-67367634D01*
X97086431Y-67350893D01*
X97120409Y-67340585D01*
X97161890Y-67336500D01*
X97838110Y-67336500D01*
X97879591Y-67340585D01*
G37*
G36*
X86125000Y-68240000D02*
G01*
X84023000Y-68240000D01*
X84023000Y-67238000D01*
X86125000Y-67238000D01*
X86125000Y-68240000D01*
G37*
G36*
X94017291Y-67092885D02*
G01*
X94051269Y-67103193D01*
X94082590Y-67119934D01*
X94110039Y-67142461D01*
X94132566Y-67169910D01*
X94149307Y-67201231D01*
X94159615Y-67235209D01*
X94163700Y-67276690D01*
X94163700Y-67952910D01*
X94159615Y-67994391D01*
X94149307Y-68028369D01*
X94132566Y-68059690D01*
X94110039Y-68087139D01*
X94082590Y-68109666D01*
X94051269Y-68126407D01*
X94017291Y-68136715D01*
X93975810Y-68140800D01*
X93374590Y-68140800D01*
X93333109Y-68136715D01*
X93299131Y-68126407D01*
X93267810Y-68109666D01*
X93240361Y-68087139D01*
X93211624Y-68052123D01*
X93194297Y-68034796D01*
X93173922Y-68021182D01*
X93151283Y-68011805D01*
X93127250Y-68007025D01*
X93102746Y-68007025D01*
X93078713Y-68011806D01*
X93056074Y-68021183D01*
X93035700Y-68034797D01*
X93018373Y-68052124D01*
X93012442Y-68061000D01*
X90488000Y-68061000D01*
X90488000Y-67199000D01*
X93041762Y-67199000D01*
X93045553Y-67202111D01*
X93067164Y-67213662D01*
X93090613Y-67220775D01*
X93114999Y-67223177D01*
X93139385Y-67220775D01*
X93162834Y-67213662D01*
X93184445Y-67202111D01*
X93211624Y-67177477D01*
X93240361Y-67142461D01*
X93267810Y-67119934D01*
X93299131Y-67103193D01*
X93333109Y-67092885D01*
X93374590Y-67088800D01*
X93975810Y-67088800D01*
X94017291Y-67092885D01*
G37*
G36*
X95592291Y-67092885D02*
G01*
X95626269Y-67103193D01*
X95657590Y-67119934D01*
X95685039Y-67142461D01*
X95707566Y-67169910D01*
X95724307Y-67201231D01*
X95734615Y-67235209D01*
X95738700Y-67276690D01*
X95738700Y-67952910D01*
X95734615Y-67994391D01*
X95724307Y-68028369D01*
X95707566Y-68059690D01*
X95685039Y-68087139D01*
X95657590Y-68109666D01*
X95626269Y-68126407D01*
X95592291Y-68136715D01*
X95550810Y-68140800D01*
X94949590Y-68140800D01*
X94908109Y-68136715D01*
X94874131Y-68126407D01*
X94842810Y-68109666D01*
X94815361Y-68087139D01*
X94792834Y-68059690D01*
X94776093Y-68028369D01*
X94765785Y-67994391D01*
X94761700Y-67952910D01*
X94761700Y-67276690D01*
X94765785Y-67235209D01*
X94776093Y-67201231D01*
X94792834Y-67169910D01*
X94815361Y-67142461D01*
X94842810Y-67119934D01*
X94874131Y-67103193D01*
X94908109Y-67092885D01*
X94949590Y-67088800D01*
X95550810Y-67088800D01*
X95592291Y-67092885D01*
G37*
G36*
X89090000Y-68061000D02*
G01*
X86588000Y-68061000D01*
X86588000Y-67199000D01*
X89090000Y-67199000D01*
X89090000Y-68061000D01*
G37*
G36*
X110806000Y-63898901D02*
G01*
X110808402Y-63923287D01*
X110815515Y-63946736D01*
X110827066Y-63968347D01*
X110842611Y-63987289D01*
X110861553Y-64002834D01*
X110883164Y-64014385D01*
X110906613Y-64021498D01*
X110930999Y-64023900D01*
X111806000Y-64023900D01*
X111806000Y-66925900D01*
X110930999Y-66925900D01*
X110906613Y-66928302D01*
X110883164Y-66935415D01*
X110861553Y-66946966D01*
X110842611Y-66962511D01*
X110827066Y-66981453D01*
X110815515Y-67003064D01*
X110808402Y-67026513D01*
X110806000Y-67050899D01*
X110806000Y-67925900D01*
X108904000Y-67925900D01*
X108904000Y-67050899D01*
X108901598Y-67026513D01*
X108894485Y-67003064D01*
X108882934Y-66981453D01*
X108867389Y-66962511D01*
X108848447Y-66946966D01*
X108826836Y-66935415D01*
X108803387Y-66928302D01*
X108779001Y-66925900D01*
X107904000Y-66925900D01*
X107904000Y-64023900D01*
X108779001Y-64023900D01*
X108803387Y-64021498D01*
X108826836Y-64014385D01*
X108848447Y-64002834D01*
X108867389Y-63987289D01*
X108882934Y-63968347D01*
X108894485Y-63946736D01*
X108901598Y-63923287D01*
X108904000Y-63898901D01*
X108904000Y-63023900D01*
X110806000Y-63023900D01*
X110806000Y-63898901D01*
G37*
G36*
X114890562Y-66166581D02*
G01*
X114925481Y-66177174D01*
X114957663Y-66194376D01*
X114985873Y-66217527D01*
X115009024Y-66245737D01*
X115026226Y-66277919D01*
X115036819Y-66312838D01*
X115041000Y-66355295D01*
X115041000Y-67496505D01*
X115036819Y-67538962D01*
X115026226Y-67573881D01*
X115009024Y-67606063D01*
X114985873Y-67634273D01*
X114957663Y-67657424D01*
X114925481Y-67674626D01*
X114890562Y-67685219D01*
X114848105Y-67689400D01*
X112481895Y-67689400D01*
X112439438Y-67685219D01*
X112404519Y-67674626D01*
X112372337Y-67657424D01*
X112344127Y-67634273D01*
X112320976Y-67606063D01*
X112303774Y-67573881D01*
X112293181Y-67538962D01*
X112289000Y-67496505D01*
X112289000Y-66355295D01*
X112293181Y-66312838D01*
X112303774Y-66277919D01*
X112320976Y-66245737D01*
X112344127Y-66217527D01*
X112372337Y-66194376D01*
X112404519Y-66177174D01*
X112439438Y-66166581D01*
X112481895Y-66162400D01*
X114848105Y-66162400D01*
X114890562Y-66166581D01*
G37*
G36*
X86125000Y-66970000D02*
G01*
X84023000Y-66970000D01*
X84023000Y-65968000D01*
X86125000Y-65968000D01*
X86125000Y-66970000D01*
G37*
G36*
X92990000Y-66791000D02*
G01*
X90488000Y-66791000D01*
X90488000Y-65929000D01*
X92990000Y-65929000D01*
X92990000Y-66791000D01*
G37*
G36*
X89090000Y-66791000D02*
G01*
X86588000Y-66791000D01*
X86588000Y-65929000D01*
X89090000Y-65929000D01*
X89090000Y-66791000D01*
G37*
G36*
X86125000Y-65700000D02*
G01*
X84023000Y-65700000D01*
X84023000Y-64698000D01*
X86125000Y-64698000D01*
X86125000Y-65700000D01*
G37*
G36*
X98144191Y-64689385D02*
G01*
X98178169Y-64699693D01*
X98209490Y-64716434D01*
X98236939Y-64738961D01*
X98259466Y-64766410D01*
X98276207Y-64797731D01*
X98286515Y-64831709D01*
X98290600Y-64873190D01*
X98290600Y-65474410D01*
X98286515Y-65515891D01*
X98276207Y-65549869D01*
X98259466Y-65581190D01*
X98236939Y-65608639D01*
X98209490Y-65631166D01*
X98178169Y-65647907D01*
X98144191Y-65658215D01*
X98102710Y-65662300D01*
X97426490Y-65662300D01*
X97385009Y-65658215D01*
X97351031Y-65647907D01*
X97319710Y-65631166D01*
X97292261Y-65608639D01*
X97269734Y-65581190D01*
X97252993Y-65549869D01*
X97242685Y-65515891D01*
X97238600Y-65474410D01*
X97238600Y-64873190D01*
X97242685Y-64831709D01*
X97252993Y-64797731D01*
X97269734Y-64766410D01*
X97292261Y-64738961D01*
X97319710Y-64716434D01*
X97351031Y-64699693D01*
X97385009Y-64689385D01*
X97426490Y-64685300D01*
X98102710Y-64685300D01*
X98144191Y-64689385D01*
G37*
G36*
X114890562Y-63191581D02*
G01*
X114925481Y-63202174D01*
X114957663Y-63219376D01*
X114985873Y-63242527D01*
X115009024Y-63270737D01*
X115026226Y-63302919D01*
X115036819Y-63337838D01*
X115041000Y-63380295D01*
X115041000Y-64521505D01*
X115036819Y-64563962D01*
X115026226Y-64598881D01*
X115009024Y-64631063D01*
X114985873Y-64659273D01*
X114957663Y-64682424D01*
X114925481Y-64699626D01*
X114890562Y-64710219D01*
X114848105Y-64714400D01*
X112481895Y-64714400D01*
X112439438Y-64710219D01*
X112404519Y-64699626D01*
X112372337Y-64682424D01*
X112344127Y-64659273D01*
X112320976Y-64631063D01*
X112303774Y-64598881D01*
X112293181Y-64563962D01*
X112289000Y-64521505D01*
X112289000Y-63380295D01*
X112293181Y-63337838D01*
X112303774Y-63302919D01*
X112320976Y-63270737D01*
X112344127Y-63242527D01*
X112372337Y-63219376D01*
X112404519Y-63202174D01*
X112439438Y-63191581D01*
X112481895Y-63187400D01*
X114848105Y-63187400D01*
X114890562Y-63191581D01*
G37*
G36*
X104126600Y-64479800D02*
G01*
X102324600Y-64479800D01*
X102324600Y-63577800D01*
X104126600Y-63577800D01*
X104126600Y-64479800D01*
G37*
G36*
X86125000Y-64430000D02*
G01*
X84023000Y-64430000D01*
X84023000Y-63428000D01*
X86125000Y-63428000D01*
X86125000Y-64430000D01*
G37*
G36*
X99630691Y-63203885D02*
G01*
X99664669Y-63214193D01*
X99695990Y-63230934D01*
X99723439Y-63253461D01*
X99745966Y-63280910D01*
X99762707Y-63312231D01*
X99773015Y-63346209D01*
X99777100Y-63387690D01*
X99777100Y-64063910D01*
X99773015Y-64105391D01*
X99762707Y-64139369D01*
X99745966Y-64170690D01*
X99723439Y-64198139D01*
X99695990Y-64220666D01*
X99664669Y-64237407D01*
X99630691Y-64247715D01*
X99589210Y-64251800D01*
X98987990Y-64251800D01*
X98946509Y-64247715D01*
X98912531Y-64237407D01*
X98881210Y-64220666D01*
X98853761Y-64198139D01*
X98831234Y-64170690D01*
X98814493Y-64139369D01*
X98804185Y-64105391D01*
X98800100Y-64063910D01*
X98800100Y-63387690D01*
X98804185Y-63346209D01*
X98814493Y-63312231D01*
X98831234Y-63280910D01*
X98853761Y-63253461D01*
X98881210Y-63230934D01*
X98912531Y-63214193D01*
X98946509Y-63203885D01*
X98987990Y-63199800D01*
X99589210Y-63199800D01*
X99630691Y-63203885D01*
G37*
G36*
X101205691Y-63203885D02*
G01*
X101239669Y-63214193D01*
X101270990Y-63230934D01*
X101298439Y-63253461D01*
X101320966Y-63280910D01*
X101337707Y-63312231D01*
X101348015Y-63346209D01*
X101352100Y-63387690D01*
X101352100Y-64063910D01*
X101348015Y-64105391D01*
X101337707Y-64139369D01*
X101320966Y-64170690D01*
X101298439Y-64198139D01*
X101270990Y-64220666D01*
X101239669Y-64237407D01*
X101205691Y-64247715D01*
X101164210Y-64251800D01*
X100562990Y-64251800D01*
X100521509Y-64247715D01*
X100487531Y-64237407D01*
X100456210Y-64220666D01*
X100428761Y-64198139D01*
X100406234Y-64170690D01*
X100389493Y-64139369D01*
X100379185Y-64105391D01*
X100375100Y-64063910D01*
X100375100Y-63387690D01*
X100379185Y-63346209D01*
X100389493Y-63312231D01*
X100406234Y-63280910D01*
X100428761Y-63253461D01*
X100456210Y-63230934D01*
X100487531Y-63214193D01*
X100521509Y-63203885D01*
X100562990Y-63199800D01*
X101164210Y-63199800D01*
X101205691Y-63203885D01*
G37*
G36*
X98144191Y-63114385D02*
G01*
X98178169Y-63124693D01*
X98209490Y-63141434D01*
X98236939Y-63163961D01*
X98259466Y-63191410D01*
X98276207Y-63222731D01*
X98286515Y-63256709D01*
X98290600Y-63298190D01*
X98290600Y-63899410D01*
X98286515Y-63940891D01*
X98276207Y-63974869D01*
X98259466Y-64006190D01*
X98236939Y-64033639D01*
X98209490Y-64056166D01*
X98178169Y-64072907D01*
X98144191Y-64083215D01*
X98102710Y-64087300D01*
X97426490Y-64087300D01*
X97385009Y-64083215D01*
X97351031Y-64072907D01*
X97319710Y-64056166D01*
X97292261Y-64033639D01*
X97269734Y-64006190D01*
X97252993Y-63974869D01*
X97242685Y-63940891D01*
X97238600Y-63899410D01*
X97238600Y-63298190D01*
X97242685Y-63256709D01*
X97252993Y-63222731D01*
X97269734Y-63191410D01*
X97292261Y-63163961D01*
X97319710Y-63141434D01*
X97351031Y-63124693D01*
X97385009Y-63114385D01*
X97426490Y-63110300D01*
X98102710Y-63110300D01*
X98144191Y-63114385D01*
G37*
G36*
X98144191Y-61742885D02*
G01*
X98178169Y-61753193D01*
X98209490Y-61769934D01*
X98236939Y-61792461D01*
X98259466Y-61819910D01*
X98276207Y-61851231D01*
X98286515Y-61885209D01*
X98290600Y-61926690D01*
X98290600Y-62527910D01*
X98286515Y-62569391D01*
X98276207Y-62603369D01*
X98259466Y-62634690D01*
X98236939Y-62662139D01*
X98209490Y-62684666D01*
X98178169Y-62701407D01*
X98144191Y-62711715D01*
X98102710Y-62715800D01*
X97426490Y-62715800D01*
X97385009Y-62711715D01*
X97351031Y-62701407D01*
X97319710Y-62684666D01*
X97292261Y-62662139D01*
X97269734Y-62634690D01*
X97252993Y-62603369D01*
X97242685Y-62569391D01*
X97238600Y-62527910D01*
X97238600Y-61926690D01*
X97242685Y-61885209D01*
X97252993Y-61851231D01*
X97269734Y-61819910D01*
X97292261Y-61792461D01*
X97319710Y-61769934D01*
X97351031Y-61753193D01*
X97385009Y-61742885D01*
X97426490Y-61738800D01*
X98102710Y-61738800D01*
X98144191Y-61742885D01*
G37*
G36*
X101319191Y-61742885D02*
G01*
X101353169Y-61753193D01*
X101384490Y-61769934D01*
X101411939Y-61792461D01*
X101434466Y-61819910D01*
X101451207Y-61851231D01*
X101461515Y-61885209D01*
X101465600Y-61926690D01*
X101465600Y-62527910D01*
X101461515Y-62569391D01*
X101451207Y-62603369D01*
X101434466Y-62634690D01*
X101411939Y-62662139D01*
X101384490Y-62684666D01*
X101353169Y-62701407D01*
X101319191Y-62711715D01*
X101277710Y-62715800D01*
X100601490Y-62715800D01*
X100560009Y-62711715D01*
X100526031Y-62701407D01*
X100494710Y-62684666D01*
X100467261Y-62662139D01*
X100444734Y-62634690D01*
X100427993Y-62603369D01*
X100417685Y-62569391D01*
X100413600Y-62527910D01*
X100413600Y-61926690D01*
X100417685Y-61885209D01*
X100427993Y-61851231D01*
X100444734Y-61819910D01*
X100467261Y-61792461D01*
X100494710Y-61769934D01*
X100526031Y-61753193D01*
X100560009Y-61742885D01*
X100601490Y-61738800D01*
X101277710Y-61738800D01*
X101319191Y-61742885D01*
G37*
G36*
X99668191Y-61728885D02*
G01*
X99702169Y-61739193D01*
X99733490Y-61755934D01*
X99760939Y-61778461D01*
X99783466Y-61805910D01*
X99800207Y-61837231D01*
X99810515Y-61871209D01*
X99814600Y-61912690D01*
X99814600Y-62513910D01*
X99810515Y-62555391D01*
X99800207Y-62589369D01*
X99783466Y-62620690D01*
X99760939Y-62648139D01*
X99733490Y-62670666D01*
X99702169Y-62687407D01*
X99668191Y-62697715D01*
X99626710Y-62701800D01*
X98950490Y-62701800D01*
X98909009Y-62697715D01*
X98875031Y-62687407D01*
X98843710Y-62670666D01*
X98816261Y-62648139D01*
X98793734Y-62620690D01*
X98776993Y-62589369D01*
X98766685Y-62555391D01*
X98762600Y-62513910D01*
X98762600Y-61912690D01*
X98766685Y-61871209D01*
X98776993Y-61837231D01*
X98793734Y-61805910D01*
X98816261Y-61778461D01*
X98843710Y-61755934D01*
X98875031Y-61739193D01*
X98909009Y-61728885D01*
X98950490Y-61724800D01*
X99626710Y-61724800D01*
X99668191Y-61728885D01*
G37*
G36*
X110867091Y-61498585D02*
G01*
X110901069Y-61508893D01*
X110932390Y-61525634D01*
X110959839Y-61548161D01*
X110982366Y-61575610D01*
X110999107Y-61606931D01*
X111009415Y-61640909D01*
X111013500Y-61682390D01*
X111013500Y-62358610D01*
X111009415Y-62400091D01*
X110999107Y-62434069D01*
X110982366Y-62465390D01*
X110959839Y-62492839D01*
X110932390Y-62515366D01*
X110901069Y-62532107D01*
X110867091Y-62542415D01*
X110825610Y-62546500D01*
X110224390Y-62546500D01*
X110182909Y-62542415D01*
X110148931Y-62532107D01*
X110117610Y-62515366D01*
X110090161Y-62492839D01*
X110067634Y-62465390D01*
X110050893Y-62434069D01*
X110040585Y-62400091D01*
X110036500Y-62358610D01*
X110036500Y-61682390D01*
X110040585Y-61640909D01*
X110050893Y-61606931D01*
X110067634Y-61575610D01*
X110090161Y-61548161D01*
X110117610Y-61525634D01*
X110148931Y-61508893D01*
X110182909Y-61498585D01*
X110224390Y-61494500D01*
X110825610Y-61494500D01*
X110867091Y-61498585D01*
G37*
G36*
X112442091Y-61498585D02*
G01*
X112476069Y-61508893D01*
X112507390Y-61525634D01*
X112534839Y-61548161D01*
X112557366Y-61575610D01*
X112574107Y-61606931D01*
X112584415Y-61640909D01*
X112588500Y-61682390D01*
X112588500Y-62358610D01*
X112584415Y-62400091D01*
X112574107Y-62434069D01*
X112557366Y-62465390D01*
X112534839Y-62492839D01*
X112507390Y-62515366D01*
X112476069Y-62532107D01*
X112442091Y-62542415D01*
X112400610Y-62546500D01*
X111799390Y-62546500D01*
X111757909Y-62542415D01*
X111723931Y-62532107D01*
X111692610Y-62515366D01*
X111665161Y-62492839D01*
X111642634Y-62465390D01*
X111625893Y-62434069D01*
X111615585Y-62400091D01*
X111611500Y-62358610D01*
X111611500Y-61682390D01*
X111615585Y-61640909D01*
X111625893Y-61606931D01*
X111642634Y-61575610D01*
X111665161Y-61548161D01*
X111692610Y-61525634D01*
X111723931Y-61508893D01*
X111757909Y-61498585D01*
X111799390Y-61494500D01*
X112400610Y-61494500D01*
X112442091Y-61498585D01*
G37*
G36*
X75685000Y-62195000D02*
G01*
X74683000Y-62195000D01*
X74683000Y-60093000D01*
X75685000Y-60093000D01*
X75685000Y-62195000D01*
G37*
G36*
X74415000Y-62195000D02*
G01*
X73413000Y-62195000D01*
X73413000Y-60093000D01*
X74415000Y-60093000D01*
X74415000Y-62195000D01*
G37*
G36*
X73145000Y-62195000D02*
G01*
X72143000Y-62195000D01*
X72143000Y-60093000D01*
X73145000Y-60093000D01*
X73145000Y-62195000D01*
G37*
G36*
X71875000Y-62195000D02*
G01*
X70873000Y-62195000D01*
X70873000Y-60093000D01*
X71875000Y-60093000D01*
X71875000Y-62195000D01*
G37*
G36*
X76955000Y-62195000D02*
G01*
X75953000Y-62195000D01*
X75953000Y-60093000D01*
X76955000Y-60093000D01*
X76955000Y-62195000D01*
G37*
G36*
X78225000Y-62195000D02*
G01*
X77223000Y-62195000D01*
X77223000Y-60093000D01*
X78225000Y-60093000D01*
X78225000Y-62195000D01*
G37*
G36*
X79495000Y-62195000D02*
G01*
X78493000Y-62195000D01*
X78493000Y-60093000D01*
X79495000Y-60093000D01*
X79495000Y-62195000D01*
G37*
G36*
X83305000Y-62195000D02*
G01*
X82303000Y-62195000D01*
X82303000Y-60093000D01*
X83305000Y-60093000D01*
X83305000Y-62195000D01*
G37*
G36*
X80765000Y-62195000D02*
G01*
X79763000Y-62195000D01*
X79763000Y-60093000D01*
X80765000Y-60093000D01*
X80765000Y-62195000D01*
G37*
G36*
X84575000Y-62195000D02*
G01*
X83573000Y-62195000D01*
X83573000Y-60093000D01*
X84575000Y-60093000D01*
X84575000Y-62195000D01*
G37*
G36*
X70605000Y-62195000D02*
G01*
X69603000Y-62195000D01*
X69603000Y-60093000D01*
X70605000Y-60093000D01*
X70605000Y-62195000D01*
G37*
G36*
X68065000Y-62195000D02*
G01*
X67063000Y-62195000D01*
X67063000Y-60093000D01*
X68065000Y-60093000D01*
X68065000Y-62195000D01*
G37*
G36*
X82035000Y-62195000D02*
G01*
X81033000Y-62195000D01*
X81033000Y-60093000D01*
X82035000Y-60093000D01*
X82035000Y-62195000D01*
G37*
G36*
X69335000Y-62195000D02*
G01*
X68333000Y-62195000D01*
X68333000Y-60093000D01*
X69335000Y-60093000D01*
X69335000Y-62195000D01*
G37*
G36*
X87831791Y-60869485D02*
G01*
X87865769Y-60879793D01*
X87897090Y-60896534D01*
X87924539Y-60919061D01*
X87947066Y-60946510D01*
X87963807Y-60977831D01*
X87974115Y-61011809D01*
X87978200Y-61053290D01*
X87978200Y-61654510D01*
X87974115Y-61695991D01*
X87963807Y-61729969D01*
X87947066Y-61761290D01*
X87924539Y-61788739D01*
X87897090Y-61811266D01*
X87865769Y-61828007D01*
X87831791Y-61838315D01*
X87790310Y-61842400D01*
X87114090Y-61842400D01*
X87072609Y-61838315D01*
X87038631Y-61828007D01*
X87007310Y-61811266D01*
X86979861Y-61788739D01*
X86957334Y-61761290D01*
X86940593Y-61729969D01*
X86930285Y-61695991D01*
X86926200Y-61654510D01*
X86926200Y-61053290D01*
X86930285Y-61011809D01*
X86940593Y-60977831D01*
X86957334Y-60946510D01*
X86979861Y-60919061D01*
X87007310Y-60896534D01*
X87038631Y-60879793D01*
X87072609Y-60869485D01*
X87114090Y-60865400D01*
X87790310Y-60865400D01*
X87831791Y-60869485D01*
G37*
G36*
X89381191Y-60869485D02*
G01*
X89415169Y-60879793D01*
X89446490Y-60896534D01*
X89473939Y-60919061D01*
X89496466Y-60946510D01*
X89513207Y-60977831D01*
X89523515Y-61011809D01*
X89527600Y-61053290D01*
X89527600Y-61654510D01*
X89523515Y-61695991D01*
X89513207Y-61729969D01*
X89496466Y-61761290D01*
X89473939Y-61788739D01*
X89446490Y-61811266D01*
X89415169Y-61828007D01*
X89381191Y-61838315D01*
X89339710Y-61842400D01*
X88663490Y-61842400D01*
X88622009Y-61838315D01*
X88588031Y-61828007D01*
X88556710Y-61811266D01*
X88529261Y-61788739D01*
X88506734Y-61761290D01*
X88489993Y-61729969D01*
X88479685Y-61695991D01*
X88475600Y-61654510D01*
X88475600Y-61053290D01*
X88479685Y-61011809D01*
X88489993Y-60977831D01*
X88506734Y-60946510D01*
X88529261Y-60919061D01*
X88556710Y-60896534D01*
X88588031Y-60879793D01*
X88622009Y-60869485D01*
X88663490Y-60865400D01*
X89339710Y-60865400D01*
X89381191Y-60869485D01*
G37*
G36*
X92417091Y-60778085D02*
G01*
X92451069Y-60788393D01*
X92482390Y-60805134D01*
X92509839Y-60827661D01*
X92532366Y-60855110D01*
X92549107Y-60886431D01*
X92559415Y-60920409D01*
X92563500Y-60961890D01*
X92563500Y-61638110D01*
X92559415Y-61679591D01*
X92549107Y-61713569D01*
X92532366Y-61744890D01*
X92509839Y-61772339D01*
X92482390Y-61794866D01*
X92451069Y-61811607D01*
X92417091Y-61821915D01*
X92375610Y-61826000D01*
X91774390Y-61826000D01*
X91732909Y-61821915D01*
X91698931Y-61811607D01*
X91667610Y-61794866D01*
X91640161Y-61772339D01*
X91617634Y-61744890D01*
X91600893Y-61713569D01*
X91590585Y-61679591D01*
X91586500Y-61638110D01*
X91586500Y-60961890D01*
X91590585Y-60920409D01*
X91600893Y-60886431D01*
X91617634Y-60855110D01*
X91640161Y-60827661D01*
X91667610Y-60805134D01*
X91698931Y-60788393D01*
X91732909Y-60778085D01*
X91774390Y-60774000D01*
X92375610Y-60774000D01*
X92417091Y-60778085D01*
G37*
G36*
X90842091Y-60778085D02*
G01*
X90876069Y-60788393D01*
X90907390Y-60805134D01*
X90934839Y-60827661D01*
X90957366Y-60855110D01*
X90974107Y-60886431D01*
X90984415Y-60920409D01*
X90988500Y-60961890D01*
X90988500Y-61638110D01*
X90984415Y-61679591D01*
X90974107Y-61713569D01*
X90957366Y-61744890D01*
X90934839Y-61772339D01*
X90907390Y-61794866D01*
X90876069Y-61811607D01*
X90842091Y-61821915D01*
X90800610Y-61826000D01*
X90199390Y-61826000D01*
X90157909Y-61821915D01*
X90123931Y-61811607D01*
X90092610Y-61794866D01*
X90065161Y-61772339D01*
X90042634Y-61744890D01*
X90025893Y-61713569D01*
X90015585Y-61679591D01*
X90011500Y-61638110D01*
X90011500Y-60961890D01*
X90015585Y-60920409D01*
X90025893Y-60886431D01*
X90042634Y-60855110D01*
X90065161Y-60827661D01*
X90092610Y-60805134D01*
X90123931Y-60788393D01*
X90157909Y-60778085D01*
X90199390Y-60774000D01*
X90800610Y-60774000D01*
X90842091Y-60778085D01*
G37*
G36*
X98144191Y-60167885D02*
G01*
X98178169Y-60178193D01*
X98209490Y-60194934D01*
X98236939Y-60217461D01*
X98259466Y-60244910D01*
X98276207Y-60276231D01*
X98286515Y-60310209D01*
X98290600Y-60351690D01*
X98290600Y-60952910D01*
X98286515Y-60994391D01*
X98276207Y-61028369D01*
X98259466Y-61059690D01*
X98236939Y-61087139D01*
X98209490Y-61109666D01*
X98178169Y-61126407D01*
X98144191Y-61136715D01*
X98102710Y-61140800D01*
X97426490Y-61140800D01*
X97385009Y-61136715D01*
X97351031Y-61126407D01*
X97319710Y-61109666D01*
X97292261Y-61087139D01*
X97269734Y-61059690D01*
X97252993Y-61028369D01*
X97242685Y-60994391D01*
X97238600Y-60952910D01*
X97238600Y-60351690D01*
X97242685Y-60310209D01*
X97252993Y-60276231D01*
X97269734Y-60244910D01*
X97292261Y-60217461D01*
X97319710Y-60194934D01*
X97351031Y-60178193D01*
X97385009Y-60167885D01*
X97426490Y-60163800D01*
X98102710Y-60163800D01*
X98144191Y-60167885D01*
G37*
G36*
X101319191Y-60167885D02*
G01*
X101353169Y-60178193D01*
X101384490Y-60194934D01*
X101411939Y-60217461D01*
X101434466Y-60244910D01*
X101451207Y-60276231D01*
X101461515Y-60310209D01*
X101465600Y-60351690D01*
X101465600Y-60952910D01*
X101461515Y-60994391D01*
X101451207Y-61028369D01*
X101434466Y-61059690D01*
X101411939Y-61087139D01*
X101384490Y-61109666D01*
X101353169Y-61126407D01*
X101319191Y-61136715D01*
X101277710Y-61140800D01*
X100601490Y-61140800D01*
X100560009Y-61136715D01*
X100526031Y-61126407D01*
X100494710Y-61109666D01*
X100467261Y-61087139D01*
X100444734Y-61059690D01*
X100427993Y-61028369D01*
X100417685Y-60994391D01*
X100413600Y-60952910D01*
X100413600Y-60351690D01*
X100417685Y-60310209D01*
X100427993Y-60276231D01*
X100444734Y-60244910D01*
X100467261Y-60217461D01*
X100494710Y-60194934D01*
X100526031Y-60178193D01*
X100560009Y-60167885D01*
X100601490Y-60163800D01*
X101277710Y-60163800D01*
X101319191Y-60167885D01*
G37*
G36*
X99668191Y-60153885D02*
G01*
X99702169Y-60164193D01*
X99733490Y-60180934D01*
X99760939Y-60203461D01*
X99783466Y-60230910D01*
X99800207Y-60262231D01*
X99810515Y-60296209D01*
X99814600Y-60337690D01*
X99814600Y-60938910D01*
X99810515Y-60980391D01*
X99800207Y-61014369D01*
X99783466Y-61045690D01*
X99760939Y-61073139D01*
X99733490Y-61095666D01*
X99702169Y-61112407D01*
X99668191Y-61122715D01*
X99626710Y-61126800D01*
X98950490Y-61126800D01*
X98909009Y-61122715D01*
X98875031Y-61112407D01*
X98843710Y-61095666D01*
X98816261Y-61073139D01*
X98793734Y-61045690D01*
X98776993Y-61014369D01*
X98766685Y-60980391D01*
X98762600Y-60938910D01*
X98762600Y-60337690D01*
X98766685Y-60296209D01*
X98776993Y-60262231D01*
X98793734Y-60230910D01*
X98816261Y-60203461D01*
X98843710Y-60180934D01*
X98875031Y-60164193D01*
X98909009Y-60153885D01*
X98950490Y-60149800D01*
X99626710Y-60149800D01*
X99668191Y-60153885D01*
G37*
G36*
X104126600Y-61079800D02*
G01*
X102324600Y-61079800D01*
X102324600Y-60177800D01*
X104126600Y-60177800D01*
X104126600Y-61079800D01*
G37*
G36*
X89381191Y-59294485D02*
G01*
X89415169Y-59304793D01*
X89446490Y-59321534D01*
X89473939Y-59344061D01*
X89496466Y-59371510D01*
X89513207Y-59402831D01*
X89523515Y-59436809D01*
X89527600Y-59478290D01*
X89527600Y-60079510D01*
X89523515Y-60120991D01*
X89513207Y-60154969D01*
X89496466Y-60186290D01*
X89473939Y-60213739D01*
X89446490Y-60236266D01*
X89415169Y-60253007D01*
X89381191Y-60263315D01*
X89339710Y-60267400D01*
X88663490Y-60267400D01*
X88622009Y-60263315D01*
X88588031Y-60253007D01*
X88556710Y-60236266D01*
X88529261Y-60213739D01*
X88506734Y-60186290D01*
X88489993Y-60154969D01*
X88479685Y-60120991D01*
X88475600Y-60079510D01*
X88475600Y-59478290D01*
X88479685Y-59436809D01*
X88489993Y-59402831D01*
X88506734Y-59371510D01*
X88529261Y-59344061D01*
X88556710Y-59321534D01*
X88588031Y-59304793D01*
X88622009Y-59294485D01*
X88663490Y-59290400D01*
X89339710Y-59290400D01*
X89381191Y-59294485D01*
G37*
G36*
X87831791Y-59294485D02*
G01*
X87865769Y-59304793D01*
X87897090Y-59321534D01*
X87924539Y-59344061D01*
X87947066Y-59371510D01*
X87963807Y-59402831D01*
X87974115Y-59436809D01*
X87978200Y-59478290D01*
X87978200Y-60079510D01*
X87974115Y-60120991D01*
X87963807Y-60154969D01*
X87947066Y-60186290D01*
X87924539Y-60213739D01*
X87897090Y-60236266D01*
X87865769Y-60253007D01*
X87831791Y-60263315D01*
X87790310Y-60267400D01*
X87114090Y-60267400D01*
X87072609Y-60263315D01*
X87038631Y-60253007D01*
X87007310Y-60236266D01*
X86979861Y-60213739D01*
X86957334Y-60186290D01*
X86940593Y-60154969D01*
X86930285Y-60120991D01*
X86926200Y-60079510D01*
X86926200Y-59478290D01*
X86930285Y-59436809D01*
X86940593Y-59402831D01*
X86957334Y-59371510D01*
X86979861Y-59344061D01*
X87007310Y-59321534D01*
X87038631Y-59304793D01*
X87072609Y-59294485D01*
X87114090Y-59290400D01*
X87790310Y-59290400D01*
X87831791Y-59294485D01*
G37*
G36*
X114090500Y-60136000D02*
G01*
X113088500Y-60136000D01*
X113088500Y-58534000D01*
X114090500Y-58534000D01*
X114090500Y-60136000D01*
G37*
G36*
X112590500Y-60136000D02*
G01*
X111588500Y-60136000D01*
X111588500Y-58534000D01*
X112590500Y-58534000D01*
X112590500Y-60136000D01*
G37*
G36*
X107951200Y-59578100D02*
G01*
X107049200Y-59578100D01*
X107049200Y-58576100D01*
X107951200Y-58576100D01*
X107951200Y-59578100D01*
G37*
G36*
X106051200Y-59578100D02*
G01*
X105149200Y-59578100D01*
X105149200Y-58576100D01*
X106051200Y-58576100D01*
X106051200Y-59578100D01*
G37*
G36*
X109469791Y-58267185D02*
G01*
X109503769Y-58277493D01*
X109535090Y-58294234D01*
X109562539Y-58316761D01*
X109585066Y-58344210D01*
X109601807Y-58375531D01*
X109612115Y-58409509D01*
X109616200Y-58450990D01*
X109616200Y-59052210D01*
X109612115Y-59093691D01*
X109601807Y-59127669D01*
X109585066Y-59158990D01*
X109562539Y-59186439D01*
X109535090Y-59208966D01*
X109503769Y-59225707D01*
X109469791Y-59236015D01*
X109428310Y-59240100D01*
X108752090Y-59240100D01*
X108710609Y-59236015D01*
X108676631Y-59225707D01*
X108645310Y-59208966D01*
X108617861Y-59186439D01*
X108595334Y-59158990D01*
X108578593Y-59127669D01*
X108568285Y-59093691D01*
X108564200Y-59052210D01*
X108564200Y-58450990D01*
X108568285Y-58409509D01*
X108578593Y-58375531D01*
X108595334Y-58344210D01*
X108617861Y-58316761D01*
X108645310Y-58294234D01*
X108676631Y-58277493D01*
X108710609Y-58267185D01*
X108752090Y-58263100D01*
X109428310Y-58263100D01*
X109469791Y-58267185D01*
G37*
G36*
X84352591Y-57199585D02*
G01*
X84386569Y-57209893D01*
X84417890Y-57226634D01*
X84445339Y-57249161D01*
X84467866Y-57276610D01*
X84484607Y-57307931D01*
X84494915Y-57341909D01*
X84499000Y-57383390D01*
X84499000Y-58059610D01*
X84494915Y-58101091D01*
X84484607Y-58135069D01*
X84467866Y-58166390D01*
X84445339Y-58193839D01*
X84417890Y-58216366D01*
X84386569Y-58233107D01*
X84352591Y-58243415D01*
X84311110Y-58247500D01*
X83709890Y-58247500D01*
X83668409Y-58243415D01*
X83634431Y-58233107D01*
X83603110Y-58216366D01*
X83575661Y-58193839D01*
X83553134Y-58166390D01*
X83536393Y-58135069D01*
X83526085Y-58101091D01*
X83522000Y-58059610D01*
X83522000Y-57383390D01*
X83526085Y-57341909D01*
X83536393Y-57307931D01*
X83553134Y-57276610D01*
X83575661Y-57249161D01*
X83603110Y-57226634D01*
X83634431Y-57209893D01*
X83668409Y-57199585D01*
X83709890Y-57195500D01*
X84311110Y-57195500D01*
X84352591Y-57199585D01*
G37*
G36*
X85927591Y-57199585D02*
G01*
X85961569Y-57209893D01*
X85992890Y-57226634D01*
X86020339Y-57249161D01*
X86042866Y-57276610D01*
X86059607Y-57307931D01*
X86069915Y-57341909D01*
X86074000Y-57383390D01*
X86074000Y-58059610D01*
X86069915Y-58101091D01*
X86059607Y-58135069D01*
X86042866Y-58166390D01*
X86020339Y-58193839D01*
X85992890Y-58216366D01*
X85961569Y-58233107D01*
X85927591Y-58243415D01*
X85886110Y-58247500D01*
X85284890Y-58247500D01*
X85243409Y-58243415D01*
X85209431Y-58233107D01*
X85178110Y-58216366D01*
X85150661Y-58193839D01*
X85128134Y-58166390D01*
X85111393Y-58135069D01*
X85101085Y-58101091D01*
X85097000Y-58059610D01*
X85097000Y-57383390D01*
X85101085Y-57341909D01*
X85111393Y-57307931D01*
X85128134Y-57276610D01*
X85150661Y-57249161D01*
X85178110Y-57226634D01*
X85209431Y-57209893D01*
X85243409Y-57199585D01*
X85284890Y-57195500D01*
X85886110Y-57195500D01*
X85927591Y-57199585D01*
G37*
G36*
X92950591Y-56882085D02*
G01*
X92984569Y-56892393D01*
X93015890Y-56909134D01*
X93043339Y-56931661D01*
X93065866Y-56959110D01*
X93082607Y-56990431D01*
X93092915Y-57024409D01*
X93097000Y-57065890D01*
X93097000Y-57742110D01*
X93092915Y-57783591D01*
X93082607Y-57817569D01*
X93065866Y-57848890D01*
X93043339Y-57876339D01*
X93015890Y-57898866D01*
X92984569Y-57915607D01*
X92950591Y-57925915D01*
X92909110Y-57930000D01*
X92307890Y-57930000D01*
X92266409Y-57925915D01*
X92232431Y-57915607D01*
X92201110Y-57898866D01*
X92173661Y-57876339D01*
X92151134Y-57848890D01*
X92134393Y-57817569D01*
X92124085Y-57783591D01*
X92120000Y-57742110D01*
X92120000Y-57065890D01*
X92124085Y-57024409D01*
X92134393Y-56990431D01*
X92151134Y-56959110D01*
X92173661Y-56931661D01*
X92201110Y-56909134D01*
X92232431Y-56892393D01*
X92266409Y-56882085D01*
X92307890Y-56878000D01*
X92909110Y-56878000D01*
X92950591Y-56882085D01*
G37*
G36*
X91375591Y-56882085D02*
G01*
X91409569Y-56892393D01*
X91440890Y-56909134D01*
X91468339Y-56931661D01*
X91490866Y-56959110D01*
X91507607Y-56990431D01*
X91517915Y-57024409D01*
X91522000Y-57065890D01*
X91522000Y-57742110D01*
X91517915Y-57783591D01*
X91507607Y-57817569D01*
X91490866Y-57848890D01*
X91468339Y-57876339D01*
X91440890Y-57898866D01*
X91409569Y-57915607D01*
X91375591Y-57925915D01*
X91334110Y-57930000D01*
X90732890Y-57930000D01*
X90691409Y-57925915D01*
X90657431Y-57915607D01*
X90626110Y-57898866D01*
X90598661Y-57876339D01*
X90576134Y-57848890D01*
X90559393Y-57817569D01*
X90549085Y-57783591D01*
X90545000Y-57742110D01*
X90545000Y-57065890D01*
X90549085Y-57024409D01*
X90559393Y-56990431D01*
X90576134Y-56959110D01*
X90598661Y-56931661D01*
X90626110Y-56909134D01*
X90657431Y-56892393D01*
X90691409Y-56882085D01*
X90732890Y-56878000D01*
X91334110Y-56878000D01*
X91375591Y-56882085D01*
G37*
G36*
X109469791Y-56692185D02*
G01*
X109503769Y-56702493D01*
X109535090Y-56719234D01*
X109562539Y-56741761D01*
X109585066Y-56769210D01*
X109601807Y-56800531D01*
X109612115Y-56834509D01*
X109616200Y-56875990D01*
X109616200Y-57477210D01*
X109612115Y-57518691D01*
X109601807Y-57552669D01*
X109585066Y-57583990D01*
X109562539Y-57611439D01*
X109535090Y-57633966D01*
X109503769Y-57650707D01*
X109469791Y-57661015D01*
X109428310Y-57665100D01*
X108752090Y-57665100D01*
X108710609Y-57661015D01*
X108676631Y-57650707D01*
X108645310Y-57633966D01*
X108617861Y-57611439D01*
X108595334Y-57583990D01*
X108578593Y-57552669D01*
X108568285Y-57518691D01*
X108564200Y-57477210D01*
X108564200Y-56875990D01*
X108568285Y-56834509D01*
X108578593Y-56800531D01*
X108595334Y-56769210D01*
X108617861Y-56741761D01*
X108645310Y-56719234D01*
X108676631Y-56702493D01*
X108710609Y-56692185D01*
X108752090Y-56688100D01*
X109428310Y-56688100D01*
X109469791Y-56692185D01*
G37*
G36*
X96145383Y-55595489D02*
G01*
X96145386Y-55595490D01*
X96145385Y-55595490D01*
X96209258Y-55621946D01*
X96266748Y-55660360D01*
X96315640Y-55709252D01*
X96354054Y-55766742D01*
X96375624Y-55818818D01*
X96380511Y-55830617D01*
X96394000Y-55898430D01*
X96394000Y-55967570D01*
X96380511Y-56035383D01*
X96380510Y-56035385D01*
X96354054Y-56099258D01*
X96309246Y-56166317D01*
X96308230Y-56167555D01*
X96296679Y-56189166D01*
X96289566Y-56212615D01*
X96287164Y-56237001D01*
X96289566Y-56261387D01*
X96296679Y-56284836D01*
X96308230Y-56306447D01*
X96323775Y-56325389D01*
X96342717Y-56340934D01*
X96364328Y-56352485D01*
X96387777Y-56359598D01*
X96412163Y-56362000D01*
X101453837Y-56362000D01*
X101478223Y-56359598D01*
X101501672Y-56352485D01*
X101523283Y-56340934D01*
X101542225Y-56325389D01*
X101557770Y-56306447D01*
X101569321Y-56284836D01*
X101576434Y-56261387D01*
X101578836Y-56237001D01*
X101576434Y-56212615D01*
X101569321Y-56189166D01*
X101557770Y-56167555D01*
X101556754Y-56166317D01*
X101511946Y-56099258D01*
X101485490Y-56035385D01*
X101485489Y-56035383D01*
X101472000Y-55967570D01*
X101472000Y-55898430D01*
X101485489Y-55830617D01*
X101490376Y-55818818D01*
X101511946Y-55766742D01*
X101550360Y-55709252D01*
X101599252Y-55660360D01*
X101656742Y-55621946D01*
X101720615Y-55595490D01*
X101720614Y-55595490D01*
X101720617Y-55595489D01*
X101788430Y-55582000D01*
X101857570Y-55582000D01*
X101925383Y-55595489D01*
X101925386Y-55595490D01*
X101925385Y-55595490D01*
X101989258Y-55621946D01*
X102046748Y-55660360D01*
X102095640Y-55709252D01*
X102134054Y-55766742D01*
X102155624Y-55818818D01*
X102160511Y-55830617D01*
X102174000Y-55898430D01*
X102174000Y-55967570D01*
X102160511Y-56035383D01*
X102160510Y-56035385D01*
X102134054Y-56099258D01*
X102089246Y-56166317D01*
X102088230Y-56167555D01*
X102076679Y-56189166D01*
X102069566Y-56212615D01*
X102067164Y-56237001D01*
X102069566Y-56261387D01*
X102076679Y-56284836D01*
X102088230Y-56306447D01*
X102103775Y-56325389D01*
X102122717Y-56340934D01*
X102144328Y-56352485D01*
X102167777Y-56359598D01*
X102192163Y-56362000D01*
X102484000Y-56362000D01*
X102484000Y-57624000D01*
X95382000Y-57624000D01*
X95382000Y-56362000D01*
X95673837Y-56362000D01*
X95698223Y-56359598D01*
X95721672Y-56352485D01*
X95743283Y-56340934D01*
X95762225Y-56325389D01*
X95777770Y-56306447D01*
X95789321Y-56284836D01*
X95796434Y-56261387D01*
X95798836Y-56237001D01*
X95796434Y-56212615D01*
X95789321Y-56189166D01*
X95777770Y-56167555D01*
X95776754Y-56166317D01*
X95731946Y-56099258D01*
X95705490Y-56035385D01*
X95705489Y-56035383D01*
X95692000Y-55967570D01*
X95692000Y-55898430D01*
X95705489Y-55830617D01*
X95710376Y-55818818D01*
X95731946Y-55766742D01*
X95770360Y-55709252D01*
X95819252Y-55660360D01*
X95876742Y-55621946D01*
X95940615Y-55595490D01*
X95940614Y-55595490D01*
X95940617Y-55595489D01*
X96008430Y-55582000D01*
X96077570Y-55582000D01*
X96145383Y-55595489D01*
G37*
G36*
X107001200Y-57578100D02*
G01*
X106099200Y-57578100D01*
X106099200Y-56576100D01*
X107001200Y-56576100D01*
X107001200Y-57578100D01*
G37*
G36*
X88917091Y-56478085D02*
G01*
X88951069Y-56488393D01*
X88982390Y-56505134D01*
X89009839Y-56527661D01*
X89032366Y-56555110D01*
X89049107Y-56586431D01*
X89059415Y-56620409D01*
X89063500Y-56661890D01*
X89063500Y-57338110D01*
X89059415Y-57379591D01*
X89049107Y-57413569D01*
X89032366Y-57444890D01*
X89009839Y-57472339D01*
X88982390Y-57494866D01*
X88951069Y-57511607D01*
X88917091Y-57521915D01*
X88875610Y-57526000D01*
X88274390Y-57526000D01*
X88232909Y-57521915D01*
X88198931Y-57511607D01*
X88167610Y-57494866D01*
X88140161Y-57472339D01*
X88117634Y-57444890D01*
X88100893Y-57413569D01*
X88090585Y-57379591D01*
X88086500Y-57338110D01*
X88086500Y-56661890D01*
X88090585Y-56620409D01*
X88100893Y-56586431D01*
X88117634Y-56555110D01*
X88140161Y-56527661D01*
X88167610Y-56505134D01*
X88198931Y-56488393D01*
X88232909Y-56478085D01*
X88274390Y-56474000D01*
X88875610Y-56474000D01*
X88917091Y-56478085D01*
G37*
G36*
X87342091Y-56478085D02*
G01*
X87376069Y-56488393D01*
X87407390Y-56505134D01*
X87434839Y-56527661D01*
X87457366Y-56555110D01*
X87474107Y-56586431D01*
X87484415Y-56620409D01*
X87488500Y-56661890D01*
X87488500Y-57338110D01*
X87484415Y-57379591D01*
X87474107Y-57413569D01*
X87457366Y-57444890D01*
X87434839Y-57472339D01*
X87407390Y-57494866D01*
X87376069Y-57511607D01*
X87342091Y-57521915D01*
X87300610Y-57526000D01*
X86699390Y-57526000D01*
X86657909Y-57521915D01*
X86623931Y-57511607D01*
X86592610Y-57494866D01*
X86565161Y-57472339D01*
X86542634Y-57444890D01*
X86525893Y-57413569D01*
X86515585Y-57379591D01*
X86511500Y-57338110D01*
X86511500Y-56661890D01*
X86515585Y-56620409D01*
X86525893Y-56586431D01*
X86542634Y-56555110D01*
X86565161Y-56527661D01*
X86592610Y-56505134D01*
X86623931Y-56488393D01*
X86657909Y-56478085D01*
X86699390Y-56474000D01*
X87300610Y-56474000D01*
X87342091Y-56478085D01*
G37*
G36*
X103351213Y-55369249D02*
G01*
X103445652Y-55397897D01*
X103532687Y-55444418D01*
X103608975Y-55507025D01*
X103671582Y-55583313D01*
X103718103Y-55670348D01*
X103746751Y-55764787D01*
X103754000Y-55838388D01*
X103754000Y-56987612D01*
X103746751Y-57061213D01*
X103718103Y-57155652D01*
X103671582Y-57242687D01*
X103608975Y-57318975D01*
X103532687Y-57381582D01*
X103445651Y-57428103D01*
X103351212Y-57456751D01*
X103253000Y-57466424D01*
X103154787Y-57456751D01*
X103060348Y-57428103D01*
X102973313Y-57381582D01*
X102897025Y-57318975D01*
X102834418Y-57242687D01*
X102787897Y-57155651D01*
X102759249Y-57061212D01*
X102752000Y-56987611D01*
X102752001Y-55838388D01*
X102759250Y-55764787D01*
X102787898Y-55670348D01*
X102834419Y-55583313D01*
X102897026Y-55507025D01*
X102973314Y-55444418D01*
X103060349Y-55397897D01*
X103154788Y-55369249D01*
X103253000Y-55359576D01*
X103351213Y-55369249D01*
G37*
G36*
X94711213Y-55369249D02*
G01*
X94805652Y-55397897D01*
X94892687Y-55444418D01*
X94968975Y-55507025D01*
X95031582Y-55583313D01*
X95078103Y-55670348D01*
X95106751Y-55764787D01*
X95114000Y-55838388D01*
X95114000Y-56987612D01*
X95106751Y-57061213D01*
X95078103Y-57155652D01*
X95031582Y-57242687D01*
X94968975Y-57318975D01*
X94892687Y-57381582D01*
X94805651Y-57428103D01*
X94711212Y-57456751D01*
X94613000Y-57466424D01*
X94514787Y-57456751D01*
X94420348Y-57428103D01*
X94333313Y-57381582D01*
X94257025Y-57318975D01*
X94194418Y-57242687D01*
X94147897Y-57155651D01*
X94119249Y-57061212D01*
X94112000Y-56987611D01*
X94112001Y-55838388D01*
X94119250Y-55764787D01*
X94147898Y-55670348D01*
X94194419Y-55583313D01*
X94257026Y-55507025D01*
X94333314Y-55444418D01*
X94420349Y-55397897D01*
X94514788Y-55369249D01*
X94613000Y-55359576D01*
X94711213Y-55369249D01*
G37*
G36*
X114090500Y-57036000D02*
G01*
X113088500Y-57036000D01*
X113088500Y-55434000D01*
X114090500Y-55434000D01*
X114090500Y-57036000D01*
G37*
G36*
X112590500Y-57036000D02*
G01*
X111588500Y-57036000D01*
X111588500Y-55434000D01*
X112590500Y-55434000D01*
X112590500Y-57036000D01*
G37*
G36*
X92950591Y-55421585D02*
G01*
X92984569Y-55431893D01*
X93015890Y-55448634D01*
X93043339Y-55471161D01*
X93065866Y-55498610D01*
X93082607Y-55529931D01*
X93092915Y-55563909D01*
X93097000Y-55605390D01*
X93097000Y-56281610D01*
X93092915Y-56323091D01*
X93082607Y-56357069D01*
X93065866Y-56388390D01*
X93043339Y-56415839D01*
X93015890Y-56438366D01*
X92984569Y-56455107D01*
X92950591Y-56465415D01*
X92909110Y-56469500D01*
X92307890Y-56469500D01*
X92266409Y-56465415D01*
X92232431Y-56455107D01*
X92201110Y-56438366D01*
X92173661Y-56415839D01*
X92151134Y-56388390D01*
X92134393Y-56357069D01*
X92124085Y-56323091D01*
X92120000Y-56281610D01*
X92120000Y-55605390D01*
X92124085Y-55563909D01*
X92134393Y-55529931D01*
X92151134Y-55498610D01*
X92173661Y-55471161D01*
X92201110Y-55448634D01*
X92232431Y-55431893D01*
X92266409Y-55421585D01*
X92307890Y-55417500D01*
X92909110Y-55417500D01*
X92950591Y-55421585D01*
G37*
G36*
X91375591Y-55421585D02*
G01*
X91409569Y-55431893D01*
X91440890Y-55448634D01*
X91468339Y-55471161D01*
X91490866Y-55498610D01*
X91507607Y-55529931D01*
X91517915Y-55563909D01*
X91522000Y-55605390D01*
X91522000Y-56281610D01*
X91517915Y-56323091D01*
X91507607Y-56357069D01*
X91490866Y-56388390D01*
X91468339Y-56415839D01*
X91440890Y-56438366D01*
X91409569Y-56455107D01*
X91375591Y-56465415D01*
X91334110Y-56469500D01*
X90732890Y-56469500D01*
X90691409Y-56465415D01*
X90657431Y-56455107D01*
X90626110Y-56438366D01*
X90598661Y-56415839D01*
X90576134Y-56388390D01*
X90559393Y-56357069D01*
X90549085Y-56323091D01*
X90545000Y-56281610D01*
X90545000Y-55605390D01*
X90549085Y-55563909D01*
X90559393Y-55529931D01*
X90576134Y-55498610D01*
X90598661Y-55471161D01*
X90626110Y-55448634D01*
X90657431Y-55431893D01*
X90691409Y-55421585D01*
X90732890Y-55417500D01*
X91334110Y-55417500D01*
X91375591Y-55421585D01*
G37*
G36*
X72746200Y-56311000D02*
G01*
X70244200Y-56311000D01*
X70244200Y-55449000D01*
X72746200Y-55449000D01*
X72746200Y-56311000D01*
G37*
G36*
X68846200Y-56311000D02*
G01*
X66344200Y-56311000D01*
X66344200Y-55449000D01*
X68846200Y-55449000D01*
X68846200Y-56311000D01*
G37*
G36*
X106051200Y-56149100D02*
G01*
X105149200Y-56149100D01*
X105149200Y-55147100D01*
X106051200Y-55147100D01*
X106051200Y-56149100D01*
G37*
G36*
X107951200Y-56149100D02*
G01*
X107049200Y-56149100D01*
X107049200Y-55147100D01*
X107951200Y-55147100D01*
X107951200Y-56149100D01*
G37*
G36*
X87311591Y-54977085D02*
G01*
X87345569Y-54987393D01*
X87376890Y-55004134D01*
X87404339Y-55026661D01*
X87426866Y-55054110D01*
X87443607Y-55085431D01*
X87453915Y-55119409D01*
X87458000Y-55160890D01*
X87458000Y-55837110D01*
X87453915Y-55878591D01*
X87443607Y-55912569D01*
X87426866Y-55943890D01*
X87404339Y-55971339D01*
X87376890Y-55993866D01*
X87345569Y-56010607D01*
X87311591Y-56020915D01*
X87270110Y-56025000D01*
X86668890Y-56025000D01*
X86627409Y-56020915D01*
X86593431Y-56010607D01*
X86562110Y-55993866D01*
X86534661Y-55971339D01*
X86512134Y-55943890D01*
X86495393Y-55912569D01*
X86485085Y-55878591D01*
X86481000Y-55837110D01*
X86481000Y-55160890D01*
X86485085Y-55119409D01*
X86495393Y-55085431D01*
X86512134Y-55054110D01*
X86534661Y-55026661D01*
X86562110Y-55004134D01*
X86593431Y-54987393D01*
X86627409Y-54977085D01*
X86668890Y-54973000D01*
X87270110Y-54973000D01*
X87311591Y-54977085D01*
G37*
G36*
X88886591Y-54977085D02*
G01*
X88920569Y-54987393D01*
X88951890Y-55004134D01*
X88979339Y-55026661D01*
X89001866Y-55054110D01*
X89018607Y-55085431D01*
X89028915Y-55119409D01*
X89033000Y-55160890D01*
X89033000Y-55837110D01*
X89028915Y-55878591D01*
X89018607Y-55912569D01*
X89001866Y-55943890D01*
X88979339Y-55971339D01*
X88951890Y-55993866D01*
X88920569Y-56010607D01*
X88886591Y-56020915D01*
X88845110Y-56025000D01*
X88243890Y-56025000D01*
X88202409Y-56020915D01*
X88168431Y-56010607D01*
X88137110Y-55993866D01*
X88109661Y-55971339D01*
X88087134Y-55943890D01*
X88070393Y-55912569D01*
X88060085Y-55878591D01*
X88056000Y-55837110D01*
X88056000Y-55160890D01*
X88060085Y-55119409D01*
X88070393Y-55085431D01*
X88087134Y-55054110D01*
X88109661Y-55026661D01*
X88137110Y-55004134D01*
X88168431Y-54987393D01*
X88202409Y-54977085D01*
X88243890Y-54973000D01*
X88845110Y-54973000D01*
X88886591Y-54977085D01*
G37*
G36*
X109469791Y-54965185D02*
G01*
X109503769Y-54975493D01*
X109535090Y-54992234D01*
X109562539Y-55014761D01*
X109585066Y-55042210D01*
X109601807Y-55073531D01*
X109612115Y-55107509D01*
X109616200Y-55148990D01*
X109616200Y-55750210D01*
X109612115Y-55791691D01*
X109601807Y-55825669D01*
X109585066Y-55856990D01*
X109562539Y-55884439D01*
X109535090Y-55906966D01*
X109503769Y-55923707D01*
X109469791Y-55934015D01*
X109428310Y-55938100D01*
X108752090Y-55938100D01*
X108710609Y-55934015D01*
X108676631Y-55923707D01*
X108645310Y-55906966D01*
X108617861Y-55884439D01*
X108595334Y-55856990D01*
X108578593Y-55825669D01*
X108568285Y-55791691D01*
X108564200Y-55750210D01*
X108564200Y-55148990D01*
X108568285Y-55107509D01*
X108578593Y-55073531D01*
X108595334Y-55042210D01*
X108617861Y-55014761D01*
X108645310Y-54992234D01*
X108676631Y-54975493D01*
X108710609Y-54965185D01*
X108752090Y-54961100D01*
X109428310Y-54961100D01*
X109469791Y-54965185D01*
G37*
G36*
X68846200Y-55041000D02*
G01*
X66344200Y-55041000D01*
X66344200Y-54179000D01*
X68846200Y-54179000D01*
X68846200Y-55041000D01*
G37*
G36*
X72746200Y-55041000D02*
G01*
X70244200Y-55041000D01*
X70244200Y-54179000D01*
X72746200Y-54179000D01*
X72746200Y-55041000D01*
G37*
G36*
X92012401Y-52158536D02*
G01*
X92010713Y-52158702D01*
X91987264Y-52165815D01*
X91965653Y-52177366D01*
X91946711Y-52192911D01*
X91931166Y-52211853D01*
X91919615Y-52233464D01*
X91912502Y-52256913D01*
X91910100Y-52281299D01*
X91910100Y-53910501D01*
X91912502Y-53934887D01*
X91919615Y-53958336D01*
X91931166Y-53979947D01*
X91946711Y-53998889D01*
X91965653Y-54014434D01*
X91987264Y-54025985D01*
X92010713Y-54033098D01*
X92012401Y-54033264D01*
X92012401Y-54950300D01*
X90156399Y-54950300D01*
X90156399Y-54033264D01*
X90158087Y-54033098D01*
X90181536Y-54025985D01*
X90203147Y-54014434D01*
X90222089Y-53998889D01*
X90237634Y-53979947D01*
X90249185Y-53958336D01*
X90256298Y-53934887D01*
X90258700Y-53910501D01*
X90258700Y-52281299D01*
X90256298Y-52256913D01*
X90249185Y-52233464D01*
X90237634Y-52211853D01*
X90222089Y-52192911D01*
X90203147Y-52177366D01*
X90181536Y-52165815D01*
X90158087Y-52158702D01*
X90156399Y-52158536D01*
X90156399Y-51241500D01*
X92012401Y-51241500D01*
X92012401Y-52158536D01*
G37*
G36*
X74763794Y-52514155D02*
G01*
X74870150Y-52535311D01*
X74946499Y-52566936D01*
X75070520Y-52618307D01*
X75250844Y-52738795D01*
X75404205Y-52892156D01*
X75524693Y-53072480D01*
X75545994Y-53123905D01*
X75603568Y-53262900D01*
X75607689Y-53272851D01*
X75650000Y-53485560D01*
X75650000Y-53702440D01*
X75647006Y-53717491D01*
X75607689Y-53915150D01*
X75580849Y-53979947D01*
X75524693Y-54115520D01*
X75404205Y-54295844D01*
X75250844Y-54449205D01*
X75070520Y-54569693D01*
X74970334Y-54611191D01*
X74870150Y-54652689D01*
X74763795Y-54673844D01*
X74657440Y-54695000D01*
X74440560Y-54695000D01*
X74334205Y-54673844D01*
X74227850Y-54652689D01*
X74027480Y-54569693D01*
X73847156Y-54449205D01*
X73693795Y-54295844D01*
X73573307Y-54115520D01*
X73517151Y-53979947D01*
X73490311Y-53915150D01*
X73450994Y-53717491D01*
X73448000Y-53702440D01*
X73448000Y-53485560D01*
X73490311Y-53272851D01*
X73494433Y-53262900D01*
X73552006Y-53123905D01*
X73573307Y-53072480D01*
X73693795Y-52892156D01*
X73847156Y-52738795D01*
X74027480Y-52618307D01*
X74151501Y-52566936D01*
X74227850Y-52535311D01*
X74334206Y-52514155D01*
X74440560Y-52493000D01*
X74657440Y-52493000D01*
X74763794Y-52514155D01*
G37*
G36*
X78190000Y-54695000D02*
G01*
X75988000Y-54695000D01*
X75988000Y-52493000D01*
X78190000Y-52493000D01*
X78190000Y-54695000D01*
G37*
G36*
X80732794Y-52514155D02*
G01*
X80839150Y-52535311D01*
X80915499Y-52566936D01*
X81039520Y-52618307D01*
X81219844Y-52738795D01*
X81373205Y-52892156D01*
X81493693Y-53072480D01*
X81514994Y-53123905D01*
X81572568Y-53262900D01*
X81576689Y-53272851D01*
X81619000Y-53485560D01*
X81619000Y-53702440D01*
X81616006Y-53717491D01*
X81576689Y-53915150D01*
X81549849Y-53979947D01*
X81493693Y-54115520D01*
X81373205Y-54295844D01*
X81219844Y-54449205D01*
X81039520Y-54569693D01*
X80939334Y-54611191D01*
X80839150Y-54652689D01*
X80732795Y-54673844D01*
X80626440Y-54695000D01*
X80409560Y-54695000D01*
X80303205Y-54673844D01*
X80196850Y-54652689D01*
X79996480Y-54569693D01*
X79816156Y-54449205D01*
X79662795Y-54295844D01*
X79542307Y-54115520D01*
X79486151Y-53979947D01*
X79459311Y-53915150D01*
X79419994Y-53717491D01*
X79417000Y-53702440D01*
X79417000Y-53485560D01*
X79459311Y-53272851D01*
X79463433Y-53262900D01*
X79521006Y-53123905D01*
X79542307Y-53072480D01*
X79662795Y-52892156D01*
X79816156Y-52738795D01*
X79996480Y-52618307D01*
X80120501Y-52566936D01*
X80196850Y-52535311D01*
X80303206Y-52514155D01*
X80409560Y-52493000D01*
X80626440Y-52493000D01*
X80732794Y-52514155D01*
G37*
G36*
X84159000Y-54695000D02*
G01*
X81957000Y-54695000D01*
X81957000Y-52493000D01*
X84159000Y-52493000D01*
X84159000Y-54695000D01*
G37*
G36*
X87934900Y-51831772D02*
G01*
X87915453Y-51842166D01*
X87896511Y-51857711D01*
X87880966Y-51876653D01*
X87869415Y-51898264D01*
X87862302Y-51921713D01*
X87859900Y-51946099D01*
X87859900Y-53794101D01*
X87862302Y-53818487D01*
X87869415Y-53841936D01*
X87880966Y-53863547D01*
X87896511Y-53882489D01*
X87915453Y-53898034D01*
X87934900Y-53908428D01*
X87934900Y-54521100D01*
X85882900Y-54521100D01*
X85882900Y-53908428D01*
X85902347Y-53898034D01*
X85921289Y-53882489D01*
X85936834Y-53863547D01*
X85948385Y-53841936D01*
X85955498Y-53818487D01*
X85957900Y-53794101D01*
X85957900Y-51946099D01*
X85955498Y-51921713D01*
X85948385Y-51898264D01*
X85936834Y-51876653D01*
X85921289Y-51857711D01*
X85902347Y-51842166D01*
X85882900Y-51831772D01*
X85882900Y-51219100D01*
X87934900Y-51219100D01*
X87934900Y-51831772D01*
G37*
G36*
X109469791Y-53390185D02*
G01*
X109503769Y-53400493D01*
X109535090Y-53417234D01*
X109562539Y-53439761D01*
X109585066Y-53467210D01*
X109601807Y-53498531D01*
X109612115Y-53532509D01*
X109616200Y-53573990D01*
X109616200Y-54175210D01*
X109612115Y-54216691D01*
X109601807Y-54250669D01*
X109585066Y-54281990D01*
X109562539Y-54309439D01*
X109535090Y-54331966D01*
X109503769Y-54348707D01*
X109469791Y-54359015D01*
X109428310Y-54363100D01*
X108752090Y-54363100D01*
X108710609Y-54359015D01*
X108676631Y-54348707D01*
X108645310Y-54331966D01*
X108617861Y-54309439D01*
X108595334Y-54281990D01*
X108578593Y-54250669D01*
X108568285Y-54216691D01*
X108564200Y-54175210D01*
X108564200Y-53573990D01*
X108568285Y-53532509D01*
X108578593Y-53498531D01*
X108595334Y-53467210D01*
X108617861Y-53439761D01*
X108645310Y-53417234D01*
X108676631Y-53400493D01*
X108710609Y-53390185D01*
X108752090Y-53386100D01*
X109428310Y-53386100D01*
X109469791Y-53390185D01*
G37*
G36*
X93480899Y-53004345D02*
G01*
X93518395Y-53015720D01*
X93552954Y-53034192D01*
X93583247Y-53059053D01*
X93608108Y-53089346D01*
X93626580Y-53123905D01*
X93637955Y-53161401D01*
X93642400Y-53206538D01*
X93642400Y-53945262D01*
X93637955Y-53990399D01*
X93626580Y-54027895D01*
X93608108Y-54062454D01*
X93583247Y-54092747D01*
X93552954Y-54117608D01*
X93518395Y-54136080D01*
X93480899Y-54147455D01*
X93435762Y-54151900D01*
X92797038Y-54151900D01*
X92751901Y-54147455D01*
X92714405Y-54136080D01*
X92679846Y-54117608D01*
X92649553Y-54092747D01*
X92624692Y-54062454D01*
X92606220Y-54027895D01*
X92594845Y-53990399D01*
X92590400Y-53945262D01*
X92590400Y-53206538D01*
X92594845Y-53161401D01*
X92606220Y-53123905D01*
X92624692Y-53089346D01*
X92649553Y-53059053D01*
X92679846Y-53034192D01*
X92714405Y-53015720D01*
X92751901Y-53004345D01*
X92797038Y-52999900D01*
X93435762Y-52999900D01*
X93480899Y-53004345D01*
G37*
G36*
X107001200Y-54149100D02*
G01*
X106099200Y-54149100D01*
X106099200Y-53147100D01*
X107001200Y-53147100D01*
X107001200Y-54149100D01*
G37*
G36*
X89431991Y-52890985D02*
G01*
X89465969Y-52901293D01*
X89497290Y-52918034D01*
X89524739Y-52940561D01*
X89547266Y-52968010D01*
X89564007Y-52999331D01*
X89574315Y-53033309D01*
X89578400Y-53074790D01*
X89578400Y-53676010D01*
X89574315Y-53717491D01*
X89564007Y-53751469D01*
X89547266Y-53782790D01*
X89524739Y-53810239D01*
X89497290Y-53832766D01*
X89465969Y-53849507D01*
X89431991Y-53859815D01*
X89390510Y-53863900D01*
X88714290Y-53863900D01*
X88672809Y-53859815D01*
X88638831Y-53849507D01*
X88607510Y-53832766D01*
X88580061Y-53810239D01*
X88557534Y-53782790D01*
X88540793Y-53751469D01*
X88530485Y-53717491D01*
X88526400Y-53676010D01*
X88526400Y-53074790D01*
X88530485Y-53033309D01*
X88540793Y-52999331D01*
X88557534Y-52968010D01*
X88580061Y-52940561D01*
X88607510Y-52918034D01*
X88638831Y-52901293D01*
X88672809Y-52890985D01*
X88714290Y-52886900D01*
X89390510Y-52886900D01*
X89431991Y-52890985D01*
G37*
G36*
X68846200Y-53771000D02*
G01*
X66344200Y-53771000D01*
X66344200Y-52909000D01*
X68846200Y-52909000D01*
X68846200Y-53771000D01*
G37*
G36*
X72746200Y-53771000D02*
G01*
X70244200Y-53771000D01*
X70244200Y-52909000D01*
X72746200Y-52909000D01*
X72746200Y-53771000D01*
G37*
G36*
X103351213Y-51349249D02*
G01*
X103445652Y-51377897D01*
X103532687Y-51424418D01*
X103608975Y-51487025D01*
X103671582Y-51563313D01*
X103718103Y-51650348D01*
X103746751Y-51744787D01*
X103754000Y-51818388D01*
X103754000Y-52667612D01*
X103746751Y-52741213D01*
X103718103Y-52835652D01*
X103671582Y-52922687D01*
X103608975Y-52998975D01*
X103532687Y-53061582D01*
X103445651Y-53108103D01*
X103351212Y-53136751D01*
X103253000Y-53146424D01*
X103154787Y-53136751D01*
X103060348Y-53108103D01*
X102973313Y-53061582D01*
X102897025Y-52998975D01*
X102834418Y-52922687D01*
X102787897Y-52835651D01*
X102759249Y-52741212D01*
X102752000Y-52667611D01*
X102752000Y-51818398D01*
X102759250Y-51744786D01*
X102781250Y-51672264D01*
X102787898Y-51650348D01*
X102834419Y-51563313D01*
X102897026Y-51487025D01*
X102973314Y-51424418D01*
X103060349Y-51377897D01*
X103154788Y-51349249D01*
X103253000Y-51339576D01*
X103351213Y-51349249D01*
G37*
G36*
X94711213Y-51349249D02*
G01*
X94805652Y-51377897D01*
X94892687Y-51424418D01*
X94968975Y-51487025D01*
X95031582Y-51563313D01*
X95078103Y-51650348D01*
X95106751Y-51744787D01*
X95114000Y-51818388D01*
X95114000Y-52667612D01*
X95106751Y-52741213D01*
X95078103Y-52835652D01*
X95031582Y-52922687D01*
X94968975Y-52998975D01*
X94892687Y-53061582D01*
X94805651Y-53108103D01*
X94711212Y-53136751D01*
X94613000Y-53146424D01*
X94514787Y-53136751D01*
X94420348Y-53108103D01*
X94333313Y-53061582D01*
X94257025Y-52998975D01*
X94194418Y-52922687D01*
X94147897Y-52835651D01*
X94119249Y-52741212D01*
X94112000Y-52667611D01*
X94112000Y-51818398D01*
X94119250Y-51744786D01*
X94141250Y-51672264D01*
X94147898Y-51650348D01*
X94194419Y-51563313D01*
X94257026Y-51487025D01*
X94333314Y-51424418D01*
X94420349Y-51377897D01*
X94514788Y-51349249D01*
X94613000Y-51339576D01*
X94711213Y-51349249D01*
G37*
G36*
X106051200Y-52720100D02*
G01*
X105149200Y-52720100D01*
X105149200Y-51718100D01*
X106051200Y-51718100D01*
X106051200Y-52720100D01*
G37*
G36*
X107951200Y-52720100D02*
G01*
X107049200Y-52720100D01*
X107049200Y-51718100D01*
X107951200Y-51718100D01*
X107951200Y-52720100D01*
G37*
G36*
X109469791Y-51635185D02*
G01*
X109503769Y-51645493D01*
X109535090Y-51662234D01*
X109562539Y-51684761D01*
X109585066Y-51712210D01*
X109601807Y-51743531D01*
X109612115Y-51777509D01*
X109616200Y-51818990D01*
X109616200Y-52420210D01*
X109612115Y-52461691D01*
X109601807Y-52495669D01*
X109585066Y-52526990D01*
X109562539Y-52554439D01*
X109535090Y-52576966D01*
X109503769Y-52593707D01*
X109469791Y-52604015D01*
X109428310Y-52608100D01*
X108752090Y-52608100D01*
X108710609Y-52604015D01*
X108676631Y-52593707D01*
X108645310Y-52576966D01*
X108617861Y-52554439D01*
X108595334Y-52526990D01*
X108578593Y-52495669D01*
X108568285Y-52461691D01*
X108564200Y-52420210D01*
X108564200Y-51818990D01*
X108568285Y-51777509D01*
X108578593Y-51743531D01*
X108595334Y-51712210D01*
X108617861Y-51684761D01*
X108645310Y-51662234D01*
X108676631Y-51645493D01*
X108710609Y-51635185D01*
X108752090Y-51631100D01*
X109428310Y-51631100D01*
X109469791Y-51635185D01*
G37*
G36*
X93480899Y-51254345D02*
G01*
X93518395Y-51265720D01*
X93552954Y-51284192D01*
X93583247Y-51309053D01*
X93608108Y-51339346D01*
X93626580Y-51373905D01*
X93637955Y-51411401D01*
X93642400Y-51456538D01*
X93642400Y-52195262D01*
X93637955Y-52240399D01*
X93626580Y-52277895D01*
X93608108Y-52312454D01*
X93583247Y-52342747D01*
X93552954Y-52367608D01*
X93518395Y-52386080D01*
X93480899Y-52397455D01*
X93435762Y-52401900D01*
X92797038Y-52401900D01*
X92751901Y-52397455D01*
X92714405Y-52386080D01*
X92679846Y-52367608D01*
X92649553Y-52342747D01*
X92624692Y-52312454D01*
X92606220Y-52277895D01*
X92594845Y-52240399D01*
X92590400Y-52195262D01*
X92590400Y-51456538D01*
X92594845Y-51411401D01*
X92606220Y-51373905D01*
X92624692Y-51339346D01*
X92649553Y-51309053D01*
X92679846Y-51284192D01*
X92714405Y-51265720D01*
X92751901Y-51254345D01*
X92797038Y-51249900D01*
X93435762Y-51249900D01*
X93480899Y-51254345D01*
G37*
G36*
X89431991Y-51315985D02*
G01*
X89465969Y-51326293D01*
X89497290Y-51343034D01*
X89524739Y-51365561D01*
X89547266Y-51393010D01*
X89564007Y-51424331D01*
X89574315Y-51458309D01*
X89578400Y-51499790D01*
X89578400Y-52101010D01*
X89574315Y-52142491D01*
X89564007Y-52176469D01*
X89547266Y-52207790D01*
X89524739Y-52235239D01*
X89497290Y-52257766D01*
X89465969Y-52274507D01*
X89431991Y-52284815D01*
X89390510Y-52288900D01*
X88714290Y-52288900D01*
X88672809Y-52284815D01*
X88638831Y-52274507D01*
X88607510Y-52257766D01*
X88580061Y-52235239D01*
X88557534Y-52207790D01*
X88540793Y-52176469D01*
X88530485Y-52142491D01*
X88526400Y-52101010D01*
X88526400Y-51499790D01*
X88530485Y-51458309D01*
X88540793Y-51424331D01*
X88557534Y-51393010D01*
X88580061Y-51365561D01*
X88607510Y-51343034D01*
X88638831Y-51326293D01*
X88672809Y-51315985D01*
X88714290Y-51311900D01*
X89390510Y-51311900D01*
X89431991Y-51315985D01*
G37*
G36*
X109469791Y-50060185D02*
G01*
X109503769Y-50070493D01*
X109535090Y-50087234D01*
X109562539Y-50109761D01*
X109585066Y-50137210D01*
X109601807Y-50168531D01*
X109612115Y-50202509D01*
X109616200Y-50243990D01*
X109616200Y-50845210D01*
X109612115Y-50886691D01*
X109601807Y-50920669D01*
X109585066Y-50951990D01*
X109562539Y-50979439D01*
X109535090Y-51001966D01*
X109503769Y-51018707D01*
X109469791Y-51029015D01*
X109428310Y-51033100D01*
X108752090Y-51033100D01*
X108710609Y-51029015D01*
X108676631Y-51018707D01*
X108645310Y-51001966D01*
X108617861Y-50979439D01*
X108595334Y-50951990D01*
X108578593Y-50920669D01*
X108568285Y-50886691D01*
X108564200Y-50845210D01*
X108564200Y-50243990D01*
X108568285Y-50202509D01*
X108578593Y-50168531D01*
X108595334Y-50137210D01*
X108617861Y-50109761D01*
X108645310Y-50087234D01*
X108676631Y-50070493D01*
X108710609Y-50060185D01*
X108752090Y-50056100D01*
X109428310Y-50056100D01*
X109469791Y-50060185D01*
G37*
G36*
X87489491Y-49744685D02*
G01*
X87523469Y-49754993D01*
X87554790Y-49771734D01*
X87582239Y-49794261D01*
X87604766Y-49821710D01*
X87621507Y-49853031D01*
X87631815Y-49887009D01*
X87635900Y-49928490D01*
X87635900Y-50604710D01*
X87631815Y-50646191D01*
X87621507Y-50680169D01*
X87604766Y-50711490D01*
X87582239Y-50738939D01*
X87554790Y-50761466D01*
X87523469Y-50778207D01*
X87489491Y-50788515D01*
X87448010Y-50792600D01*
X86846790Y-50792600D01*
X86805309Y-50788515D01*
X86771331Y-50778207D01*
X86740010Y-50761466D01*
X86712561Y-50738939D01*
X86690034Y-50711490D01*
X86673293Y-50680169D01*
X86662985Y-50646191D01*
X86658900Y-50604710D01*
X86658900Y-49928490D01*
X86662985Y-49887009D01*
X86673293Y-49853031D01*
X86690034Y-49821710D01*
X86712561Y-49794261D01*
X86740010Y-49771734D01*
X86771331Y-49754993D01*
X86805309Y-49744685D01*
X86846790Y-49740600D01*
X87448010Y-49740600D01*
X87489491Y-49744685D01*
G37*
G36*
X85914491Y-49744685D02*
G01*
X85948469Y-49754993D01*
X85979790Y-49771734D01*
X86007239Y-49794261D01*
X86029766Y-49821710D01*
X86046507Y-49853031D01*
X86056815Y-49887009D01*
X86060900Y-49928490D01*
X86060900Y-50604710D01*
X86056815Y-50646191D01*
X86046507Y-50680169D01*
X86029766Y-50711490D01*
X86007239Y-50738939D01*
X85979790Y-50761466D01*
X85948469Y-50778207D01*
X85914491Y-50788515D01*
X85873010Y-50792600D01*
X85271790Y-50792600D01*
X85230309Y-50788515D01*
X85196331Y-50778207D01*
X85165010Y-50761466D01*
X85137561Y-50738939D01*
X85115034Y-50711490D01*
X85098293Y-50680169D01*
X85087985Y-50646191D01*
X85083900Y-50604710D01*
X85083900Y-49928490D01*
X85087985Y-49887009D01*
X85098293Y-49853031D01*
X85115034Y-49821710D01*
X85137561Y-49794261D01*
X85165010Y-49771734D01*
X85196331Y-49754993D01*
X85230309Y-49744685D01*
X85271790Y-49740600D01*
X85873010Y-49740600D01*
X85914491Y-49744685D01*
G37*
G36*
X91867091Y-49678085D02*
G01*
X91901069Y-49688393D01*
X91932390Y-49705134D01*
X91959839Y-49727661D01*
X91982366Y-49755110D01*
X91999107Y-49786431D01*
X92009415Y-49820409D01*
X92013500Y-49861890D01*
X92013500Y-50538110D01*
X92009415Y-50579591D01*
X91999107Y-50613569D01*
X91982366Y-50644890D01*
X91959839Y-50672339D01*
X91932390Y-50694866D01*
X91901069Y-50711607D01*
X91867091Y-50721915D01*
X91825610Y-50726000D01*
X91224390Y-50726000D01*
X91182909Y-50721915D01*
X91148931Y-50711607D01*
X91117610Y-50694866D01*
X91090161Y-50672339D01*
X91067634Y-50644890D01*
X91050893Y-50613569D01*
X91040585Y-50579591D01*
X91036500Y-50538110D01*
X91036500Y-49861890D01*
X91040585Y-49820409D01*
X91050893Y-49786431D01*
X91067634Y-49755110D01*
X91090161Y-49727661D01*
X91117610Y-49705134D01*
X91148931Y-49688393D01*
X91182909Y-49678085D01*
X91224390Y-49674000D01*
X91825610Y-49674000D01*
X91867091Y-49678085D01*
G37*
G36*
X93442091Y-49678085D02*
G01*
X93476069Y-49688393D01*
X93507390Y-49705134D01*
X93534839Y-49727661D01*
X93557366Y-49755110D01*
X93574107Y-49786431D01*
X93584415Y-49820409D01*
X93588500Y-49861890D01*
X93588500Y-50538110D01*
X93584415Y-50579591D01*
X93574107Y-50613569D01*
X93557366Y-50644890D01*
X93534839Y-50672339D01*
X93507390Y-50694866D01*
X93476069Y-50711607D01*
X93442091Y-50721915D01*
X93400610Y-50726000D01*
X92799390Y-50726000D01*
X92757909Y-50721915D01*
X92723931Y-50711607D01*
X92692610Y-50694866D01*
X92665161Y-50672339D01*
X92642634Y-50644890D01*
X92625893Y-50613569D01*
X92615585Y-50579591D01*
X92611500Y-50538110D01*
X92611500Y-49861890D01*
X92615585Y-49820409D01*
X92625893Y-49786431D01*
X92642634Y-49755110D01*
X92665161Y-49727661D01*
X92692610Y-49705134D01*
X92723931Y-49688393D01*
X92757909Y-49678085D01*
X92799390Y-49674000D01*
X93400610Y-49674000D01*
X93442091Y-49678085D01*
G37*
G36*
X107001200Y-50720100D02*
G01*
X106099200Y-50720100D01*
X106099200Y-49718100D01*
X107001200Y-49718100D01*
X107001200Y-50720100D01*
G37*
M02*
