M48
; DRILL file {KiCad (5.1.5)-2} date 19-5-2021 15:06:42
; FORMAT={-:-/ absolute / inch / decimal}
; #@! TF.CreationDate,2021-05-19T15:06:42+02:00
; #@! TF.GenerationSoftware,Kicad,Pcbnew,(5.1.5)-2
; #@! TF.FileFunction,Plated,1,4,PTH
FMAT,2
INCH
T1C0.0118
T2C0.0157
T3C0.0236
T4C0.0394
T5C0.0433
%
G90
G05
T1
X2.71Y-2.468
X2.76Y-2.568
X2.832Y-2.506
X2.832Y-2.658
X2.91Y-2.628
X3.01Y-2.468
X3.026Y-2.572
X3.036Y-2.622
X3.06Y-2.468
X3.084Y-2.67
X3.136Y-2.558
X3.152Y-3.168
X3.16Y-3.016
X3.174Y-2.554
X3.228Y-2.606
X3.238Y-2.544
X3.26Y-2.468
X3.272Y-2.636
X3.392Y-2.442
X3.438Y-3.358
X3.4575Y-2.2825
X3.534Y-2.748
X3.562Y-2.456
X3.562Y-2.508
X3.602Y-2.508
X3.624Y-2.454
X3.65Y-2.358
X3.662Y-2.956
X3.696Y-2.376
X3.696Y-2.598
X3.698Y-3.412
X3.706Y-2.308
X3.722Y-2.766
X3.722Y-2.816
X3.764Y-2.534
X3.766Y-2.432
X3.774Y-2.766
X3.786Y-2.334
X3.794Y-2.866
X3.894Y-2.932
X3.912Y-2.788
X4.038Y-2.9
X4.074Y-2.942
X4.08Y-3.005
X4.08Y-3.0438
X4.08Y-3.08
X4.08Y-3.328
X4.098Y-2.884
X4.104Y-2.164
X4.114Y-2.332
X4.116Y-3.196
X4.124Y-2.096
X4.13Y-3.095
X4.1499Y-2.9039
X4.196Y-3.146
X4.226Y-3.106
X4.2423Y-2.9091
X4.278Y-2.864
T2
X2.594Y-3.348
X2.6325Y-3.2625
X2.655Y-3.4375
X2.66Y-2.242
X2.66Y-2.4725
X2.66Y-3.0125
X2.662Y-2.058
X2.695Y-3.2625
X2.71Y-3.01
X2.736Y-2.2863
X2.752Y-3.304
X2.7525Y-3.2625
X2.76Y-3.012
X2.7725Y-3.4375
X2.81Y-2.342
X2.81Y-3.01
X2.8125Y-3.2625
X2.8225Y-2.78
X2.86Y-2.96
X2.862Y-2.342
X2.884Y-2.252
X2.912Y-2.21
X2.955Y-2.655
X2.955Y-2.9125
X3.01Y-3.142
X3.01Y-3.36
X3.08Y-3.485
X3.0875Y-2.7775
X3.118Y-3.662
X3.145Y-3.4625
X3.175Y-2.2475
X3.21Y-3.144
X3.21Y-3.256
X3.2244Y-2.3386
X3.26Y-2.2725
X3.2775Y-2.9675
X3.2925Y-3.515
X3.295Y-3.3325
X3.325Y-1.98
X3.37Y-2.19
X3.3975Y-2.355
X3.41Y-3.4
X3.4575Y-2.8525
X3.488Y-3.288
X3.505Y-2.14
X3.505Y-2.4525
X3.5079Y-1.9961
X3.526Y-3.318
X3.54Y-2.26
X3.56Y-1.9775
X3.632Y-3.356
X3.6975Y-3.4925
X3.728Y-2.718
X3.728Y-3.67
X3.7525Y-2.3
X3.7575Y-3.4675
X3.772Y-2.588
X3.7756Y-2.0
X3.79Y-2.8025
X3.79Y-2.94
X3.79Y-3.0825
X3.79Y-3.2225
X3.7925Y-2.7325
X3.815Y-2.3
X3.836Y-2.632
X3.85Y-2.345
X3.895Y-2.565
X3.9075Y-3.3375
X3.9075Y-3.5075
X3.948Y-2.612
X3.965Y-2.3
X4.03Y-3.4075
X4.042Y-3.35
X4.045Y-2.3
X4.065Y-2.5625
X4.08Y-3.1425
X4.08Y-3.285
X4.0827Y-2.6772
X4.1025Y-3.2375
X4.1025Y-3.3775
X4.1125Y-2.74
X4.1625Y-2.57
X4.1625Y-2.6675
X4.1925Y-2.6269
X4.2175Y-2.53
X4.225Y-2.665
X4.228Y-2.472
X4.2325Y-2.0125
X4.2325Y-2.1475
X4.2325Y-2.2825
X4.288Y-2.378
X4.295Y-2.8225
X4.295Y-3.6725
X4.3075Y-2.44
X4.37Y-2.862
X4.412Y-2.268
X4.4275Y-2.775
X4.4325Y-2.7125
X4.4575Y-2.44
T4
X4.488Y-3.454
T5
X2.8681Y-3.5626
X2.9681Y-3.5626
X2.6336Y-3.5626
X2.7336Y-3.5626
X2.935Y-2.11
X3.035Y-2.11
X3.17Y-2.11
X3.27Y-2.11
X3.4926Y-3.5646
X3.5926Y-3.5646
X4.4055Y-3.0063
X4.4055Y-3.1063
X4.0951Y-3.5621
X4.1951Y-3.5621
X4.4055Y-3.2425
X4.4055Y-3.3425
T3
G00X3.7249Y-2.0411
M15
G01X3.7249Y-2.0726
M16
G05
G00X3.7249Y-2.1993
M15
G01X3.7249Y-2.2426
M16
G05
G00X4.0651Y-2.0411
M15
G01X4.0651Y-2.0726
M16
G05
G00X4.0651Y-2.1993
M15
G01X4.0651Y-2.2426
M16
G05
T0
M30
