G04 #@! TF.GenerationSoftware,KiCad,Pcbnew,(5.1.5)-2*
G04 #@! TF.CreationDate,2021-03-13T02:14:36+01:00*
G04 #@! TF.ProjectId,Versie1,56657273-6965-4312-9e6b-696361645f70,rev?*
G04 #@! TF.SameCoordinates,Original*
G04 #@! TF.FileFunction,Soldermask,Top*
G04 #@! TF.FilePolarity,Negative*
%FSLAX46Y46*%
G04 Gerber Fmt 4.6, Leading zero omitted, Abs format (unit mm)*
G04 Created by KiCad (PCBNEW (5.1.5)-2) date 2021-03-13 02:14:36*
%MOMM*%
%LPD*%
G04 APERTURE LIST*
%ADD10C,0.100000*%
G04 APERTURE END LIST*
D10*
G36*
X115375256Y-118391298D02*
G01*
X115481579Y-118412447D01*
X115782042Y-118536903D01*
X116052451Y-118717585D01*
X116282415Y-118947549D01*
X116463097Y-119217958D01*
X116587553Y-119518421D01*
X116606277Y-119612554D01*
X116651000Y-119837389D01*
X116651000Y-120162611D01*
X116619689Y-120320020D01*
X116587553Y-120481579D01*
X116463097Y-120782042D01*
X116282415Y-121052451D01*
X116052451Y-121282415D01*
X115782042Y-121463097D01*
X115782041Y-121463098D01*
X115782040Y-121463098D01*
X115753434Y-121474947D01*
X115481579Y-121587553D01*
X115375256Y-121608702D01*
X115162611Y-121651000D01*
X114837389Y-121651000D01*
X114624744Y-121608702D01*
X114518421Y-121587553D01*
X114246566Y-121474947D01*
X114217960Y-121463098D01*
X114217959Y-121463098D01*
X114217958Y-121463097D01*
X113947549Y-121282415D01*
X113717585Y-121052451D01*
X113536903Y-120782042D01*
X113412447Y-120481579D01*
X113380311Y-120320020D01*
X113349000Y-120162611D01*
X113349000Y-119837389D01*
X113393723Y-119612554D01*
X113412447Y-119518421D01*
X113536903Y-119217958D01*
X113717585Y-118947549D01*
X113947549Y-118717585D01*
X114217958Y-118536903D01*
X114518421Y-118412447D01*
X114624744Y-118391298D01*
X114837389Y-118349000D01*
X115162611Y-118349000D01*
X115375256Y-118391298D01*
G37*
G36*
X63375256Y-118391298D02*
G01*
X63481579Y-118412447D01*
X63782042Y-118536903D01*
X64052451Y-118717585D01*
X64282415Y-118947549D01*
X64463097Y-119217958D01*
X64587553Y-119518421D01*
X64606277Y-119612554D01*
X64651000Y-119837389D01*
X64651000Y-120162611D01*
X64619689Y-120320020D01*
X64587553Y-120481579D01*
X64463097Y-120782042D01*
X64282415Y-121052451D01*
X64052451Y-121282415D01*
X63782042Y-121463097D01*
X63782041Y-121463098D01*
X63782040Y-121463098D01*
X63753434Y-121474947D01*
X63481579Y-121587553D01*
X63375256Y-121608702D01*
X63162611Y-121651000D01*
X62837389Y-121651000D01*
X62624744Y-121608702D01*
X62518421Y-121587553D01*
X62246566Y-121474947D01*
X62217960Y-121463098D01*
X62217959Y-121463098D01*
X62217958Y-121463097D01*
X61947549Y-121282415D01*
X61717585Y-121052451D01*
X61536903Y-120782042D01*
X61412447Y-120481579D01*
X61380311Y-120320020D01*
X61349000Y-120162611D01*
X61349000Y-119837389D01*
X61393723Y-119612554D01*
X61412447Y-119518421D01*
X61536903Y-119217958D01*
X61717585Y-118947549D01*
X61947549Y-118717585D01*
X62217958Y-118536903D01*
X62518421Y-118412447D01*
X62624744Y-118391298D01*
X62837389Y-118349000D01*
X63162611Y-118349000D01*
X63375256Y-118391298D01*
G37*
G36*
X80755499Y-120332445D02*
G01*
X80792995Y-120343820D01*
X80827554Y-120362292D01*
X80857847Y-120387153D01*
X80882708Y-120417446D01*
X80901180Y-120452005D01*
X80912555Y-120489501D01*
X80917000Y-120534638D01*
X80917000Y-121273362D01*
X80912555Y-121318499D01*
X80901180Y-121355995D01*
X80882708Y-121390554D01*
X80857847Y-121420847D01*
X80827554Y-121445708D01*
X80792995Y-121464180D01*
X80755499Y-121475555D01*
X80710362Y-121480000D01*
X80071638Y-121480000D01*
X80026501Y-121475555D01*
X79989005Y-121464180D01*
X79954446Y-121445708D01*
X79924153Y-121420847D01*
X79899292Y-121390554D01*
X79880820Y-121355995D01*
X79869445Y-121318499D01*
X79865000Y-121273362D01*
X79865000Y-120534638D01*
X79869445Y-120489501D01*
X79880820Y-120452005D01*
X79899292Y-120417446D01*
X79924153Y-120387153D01*
X79954446Y-120362292D01*
X79989005Y-120343820D01*
X80026501Y-120332445D01*
X80071638Y-120328000D01*
X80710362Y-120328000D01*
X80755499Y-120332445D01*
G37*
G36*
X82279499Y-120304445D02*
G01*
X82316995Y-120315820D01*
X82351554Y-120334292D01*
X82381847Y-120359153D01*
X82406708Y-120389446D01*
X82425180Y-120424005D01*
X82436555Y-120461501D01*
X82441000Y-120506638D01*
X82441000Y-121245362D01*
X82436555Y-121290499D01*
X82425180Y-121327995D01*
X82406708Y-121362554D01*
X82381847Y-121392847D01*
X82351554Y-121417708D01*
X82316995Y-121436180D01*
X82279499Y-121447555D01*
X82234362Y-121452000D01*
X81595638Y-121452000D01*
X81550501Y-121447555D01*
X81513005Y-121436180D01*
X81478446Y-121417708D01*
X81448153Y-121392847D01*
X81423292Y-121362554D01*
X81404820Y-121327995D01*
X81393445Y-121290499D01*
X81389000Y-121245362D01*
X81389000Y-120506638D01*
X81393445Y-120461501D01*
X81404820Y-120424005D01*
X81423292Y-120389446D01*
X81448153Y-120359153D01*
X81478446Y-120334292D01*
X81513005Y-120315820D01*
X81550501Y-120304445D01*
X81595638Y-120300000D01*
X82234362Y-120300000D01*
X82279499Y-120304445D01*
G37*
G36*
X88901000Y-120643000D02*
G01*
X87299000Y-120643000D01*
X87299000Y-119641000D01*
X88901000Y-119641000D01*
X88901000Y-120643000D01*
G37*
G36*
X85801000Y-120643000D02*
G01*
X84199000Y-120643000D01*
X84199000Y-119641000D01*
X85801000Y-119641000D01*
X85801000Y-120643000D01*
G37*
G36*
X80755499Y-118582445D02*
G01*
X80792995Y-118593820D01*
X80827554Y-118612292D01*
X80857847Y-118637153D01*
X80882708Y-118667446D01*
X80901180Y-118702005D01*
X80912555Y-118739501D01*
X80917000Y-118784638D01*
X80917000Y-119523362D01*
X80912555Y-119568499D01*
X80901180Y-119605995D01*
X80882708Y-119640554D01*
X80857847Y-119670847D01*
X80827554Y-119695708D01*
X80792995Y-119714180D01*
X80755499Y-119725555D01*
X80710362Y-119730000D01*
X80071638Y-119730000D01*
X80026501Y-119725555D01*
X79989005Y-119714180D01*
X79954446Y-119695708D01*
X79924153Y-119670847D01*
X79899292Y-119640554D01*
X79880820Y-119605995D01*
X79869445Y-119568499D01*
X79865000Y-119523362D01*
X79865000Y-118784638D01*
X79869445Y-118739501D01*
X79880820Y-118702005D01*
X79899292Y-118667446D01*
X79924153Y-118637153D01*
X79954446Y-118612292D01*
X79989005Y-118593820D01*
X80026501Y-118582445D01*
X80071638Y-118578000D01*
X80710362Y-118578000D01*
X80755499Y-118582445D01*
G37*
G36*
X82279499Y-118554445D02*
G01*
X82316995Y-118565820D01*
X82351554Y-118584292D01*
X82381847Y-118609153D01*
X82406708Y-118639446D01*
X82425180Y-118674005D01*
X82436555Y-118711501D01*
X82441000Y-118756638D01*
X82441000Y-119495362D01*
X82436555Y-119540499D01*
X82425180Y-119577995D01*
X82406708Y-119612554D01*
X82381847Y-119642847D01*
X82351554Y-119667708D01*
X82316995Y-119686180D01*
X82279499Y-119697555D01*
X82234362Y-119702000D01*
X81595638Y-119702000D01*
X81550501Y-119697555D01*
X81513005Y-119686180D01*
X81478446Y-119667708D01*
X81448153Y-119642847D01*
X81423292Y-119612554D01*
X81404820Y-119577995D01*
X81393445Y-119540499D01*
X81389000Y-119495362D01*
X81389000Y-118756638D01*
X81393445Y-118711501D01*
X81404820Y-118674005D01*
X81423292Y-118639446D01*
X81448153Y-118609153D01*
X81478446Y-118584292D01*
X81513005Y-118565820D01*
X81550501Y-118554445D01*
X81595638Y-118550000D01*
X82234362Y-118550000D01*
X82279499Y-118554445D01*
G37*
G36*
X88901000Y-119143000D02*
G01*
X87299000Y-119143000D01*
X87299000Y-118141000D01*
X88901000Y-118141000D01*
X88901000Y-119143000D01*
G37*
G36*
X85801000Y-119143000D02*
G01*
X84199000Y-119143000D01*
X84199000Y-118141000D01*
X85801000Y-118141000D01*
X85801000Y-119143000D01*
G37*
G36*
X75003484Y-116900309D02*
G01*
X75124150Y-116924311D01*
X75187373Y-116950499D01*
X75324520Y-117007307D01*
X75504844Y-117127795D01*
X75658205Y-117281156D01*
X75778693Y-117461480D01*
X75778693Y-117461481D01*
X75861689Y-117661850D01*
X75904000Y-117874561D01*
X75904000Y-118091439D01*
X75861689Y-118304150D01*
X75833248Y-118372812D01*
X75778693Y-118504520D01*
X75658205Y-118684844D01*
X75504844Y-118838205D01*
X75324520Y-118958693D01*
X75281829Y-118976376D01*
X75124150Y-119041689D01*
X75017794Y-119062845D01*
X74911440Y-119084000D01*
X74694560Y-119084000D01*
X74588206Y-119062845D01*
X74481850Y-119041689D01*
X74324171Y-118976376D01*
X74281480Y-118958693D01*
X74101156Y-118838205D01*
X73947795Y-118684844D01*
X73827307Y-118504520D01*
X73772752Y-118372812D01*
X73744311Y-118304150D01*
X73702000Y-118091439D01*
X73702000Y-117874561D01*
X73744311Y-117661850D01*
X73827307Y-117461481D01*
X73827307Y-117461480D01*
X73947795Y-117281156D01*
X74101156Y-117127795D01*
X74281480Y-117007307D01*
X74418627Y-116950499D01*
X74481850Y-116924311D01*
X74602516Y-116900309D01*
X74694560Y-116882000D01*
X74911440Y-116882000D01*
X75003484Y-116900309D01*
G37*
G36*
X78444000Y-119084000D02*
G01*
X76242000Y-119084000D01*
X76242000Y-116882000D01*
X78444000Y-116882000D01*
X78444000Y-119084000D01*
G37*
G36*
X71840000Y-119084000D02*
G01*
X69638000Y-119084000D01*
X69638000Y-116882000D01*
X71840000Y-116882000D01*
X71840000Y-119084000D01*
G37*
G36*
X68399484Y-116900309D02*
G01*
X68520150Y-116924311D01*
X68583373Y-116950499D01*
X68720520Y-117007307D01*
X68900844Y-117127795D01*
X69054205Y-117281156D01*
X69174693Y-117461480D01*
X69174693Y-117461481D01*
X69257689Y-117661850D01*
X69300000Y-117874561D01*
X69300000Y-118091439D01*
X69257689Y-118304150D01*
X69229248Y-118372812D01*
X69174693Y-118504520D01*
X69054205Y-118684844D01*
X68900844Y-118838205D01*
X68720520Y-118958693D01*
X68677829Y-118976376D01*
X68520150Y-119041689D01*
X68413794Y-119062845D01*
X68307440Y-119084000D01*
X68090560Y-119084000D01*
X67984206Y-119062845D01*
X67877850Y-119041689D01*
X67720171Y-118976376D01*
X67677480Y-118958693D01*
X67497156Y-118838205D01*
X67343795Y-118684844D01*
X67223307Y-118504520D01*
X67168752Y-118372812D01*
X67140311Y-118304150D01*
X67098000Y-118091439D01*
X67098000Y-117874561D01*
X67140311Y-117661850D01*
X67223307Y-117461481D01*
X67223307Y-117461480D01*
X67343795Y-117281156D01*
X67497156Y-117127795D01*
X67677480Y-117007307D01*
X67814627Y-116950499D01*
X67877850Y-116924311D01*
X67998516Y-116900309D01*
X68090560Y-116882000D01*
X68307440Y-116882000D01*
X68399484Y-116900309D01*
G37*
G36*
X91934512Y-117213927D02*
G01*
X92083812Y-117243624D01*
X92247784Y-117311544D01*
X92395354Y-117410147D01*
X92520853Y-117535646D01*
X92619456Y-117683216D01*
X92687376Y-117847188D01*
X92722000Y-118021259D01*
X92722000Y-118198741D01*
X92687376Y-118372812D01*
X92619456Y-118536784D01*
X92520853Y-118684354D01*
X92395354Y-118809853D01*
X92247784Y-118908456D01*
X92083812Y-118976376D01*
X91934512Y-119006073D01*
X91909742Y-119011000D01*
X91732258Y-119011000D01*
X91707488Y-119006073D01*
X91558188Y-118976376D01*
X91394216Y-118908456D01*
X91246646Y-118809853D01*
X91121147Y-118684354D01*
X91022544Y-118536784D01*
X90954624Y-118372812D01*
X90920000Y-118198741D01*
X90920000Y-118021259D01*
X90954624Y-117847188D01*
X91022544Y-117683216D01*
X91121147Y-117535646D01*
X91246646Y-117410147D01*
X91394216Y-117311544D01*
X91558188Y-117243624D01*
X91707488Y-117213927D01*
X91732258Y-117209000D01*
X91909742Y-117209000D01*
X91934512Y-117213927D01*
G37*
G36*
X84262499Y-116064445D02*
G01*
X84299995Y-116075820D01*
X84334554Y-116094292D01*
X84364847Y-116119153D01*
X84389708Y-116149446D01*
X84408180Y-116184005D01*
X84419555Y-116221501D01*
X84424000Y-116266638D01*
X84424000Y-116905362D01*
X84419555Y-116950499D01*
X84408180Y-116987995D01*
X84389708Y-117022554D01*
X84364847Y-117052847D01*
X84334554Y-117077708D01*
X84299995Y-117096180D01*
X84262499Y-117107555D01*
X84217362Y-117112000D01*
X83478638Y-117112000D01*
X83433501Y-117107555D01*
X83396005Y-117096180D01*
X83361446Y-117077708D01*
X83331153Y-117052847D01*
X83306292Y-117022554D01*
X83287820Y-116987995D01*
X83276445Y-116950499D01*
X83272000Y-116905362D01*
X83272000Y-116266638D01*
X83276445Y-116221501D01*
X83287820Y-116184005D01*
X83306292Y-116149446D01*
X83331153Y-116119153D01*
X83361446Y-116094292D01*
X83396005Y-116075820D01*
X83433501Y-116064445D01*
X83478638Y-116060000D01*
X84217362Y-116060000D01*
X84262499Y-116064445D01*
G37*
G36*
X89554499Y-116064445D02*
G01*
X89591995Y-116075820D01*
X89626554Y-116094292D01*
X89656847Y-116119153D01*
X89681708Y-116149446D01*
X89700180Y-116184005D01*
X89711555Y-116221501D01*
X89716000Y-116266638D01*
X89716000Y-116905362D01*
X89711555Y-116950499D01*
X89700180Y-116987995D01*
X89681708Y-117022554D01*
X89656847Y-117052847D01*
X89626554Y-117077708D01*
X89591995Y-117096180D01*
X89554499Y-117107555D01*
X89509362Y-117112000D01*
X88770638Y-117112000D01*
X88725501Y-117107555D01*
X88688005Y-117096180D01*
X88653446Y-117077708D01*
X88623153Y-117052847D01*
X88598292Y-117022554D01*
X88579820Y-116987995D01*
X88568445Y-116950499D01*
X88564000Y-116905362D01*
X88564000Y-116266638D01*
X88568445Y-116221501D01*
X88579820Y-116184005D01*
X88598292Y-116149446D01*
X88623153Y-116119153D01*
X88653446Y-116094292D01*
X88688005Y-116075820D01*
X88725501Y-116064445D01*
X88770638Y-116060000D01*
X89509362Y-116060000D01*
X89554499Y-116064445D01*
G37*
G36*
X80805499Y-116064445D02*
G01*
X80842995Y-116075820D01*
X80877554Y-116094292D01*
X80907847Y-116119153D01*
X80932708Y-116149446D01*
X80951180Y-116184005D01*
X80962555Y-116221501D01*
X80967000Y-116266638D01*
X80967000Y-116905362D01*
X80962555Y-116950499D01*
X80951180Y-116987995D01*
X80932708Y-117022554D01*
X80907847Y-117052847D01*
X80877554Y-117077708D01*
X80842995Y-117096180D01*
X80805499Y-117107555D01*
X80760362Y-117112000D01*
X80021638Y-117112000D01*
X79976501Y-117107555D01*
X79939005Y-117096180D01*
X79904446Y-117077708D01*
X79874153Y-117052847D01*
X79849292Y-117022554D01*
X79830820Y-116987995D01*
X79819445Y-116950499D01*
X79815000Y-116905362D01*
X79815000Y-116266638D01*
X79819445Y-116221501D01*
X79830820Y-116184005D01*
X79849292Y-116149446D01*
X79874153Y-116119153D01*
X79904446Y-116094292D01*
X79939005Y-116075820D01*
X79976501Y-116064445D01*
X80021638Y-116060000D01*
X80760362Y-116060000D01*
X80805499Y-116064445D01*
G37*
G36*
X82555499Y-116064445D02*
G01*
X82592995Y-116075820D01*
X82627554Y-116094292D01*
X82657847Y-116119153D01*
X82682708Y-116149446D01*
X82701180Y-116184005D01*
X82712555Y-116221501D01*
X82717000Y-116266638D01*
X82717000Y-116905362D01*
X82712555Y-116950499D01*
X82701180Y-116987995D01*
X82682708Y-117022554D01*
X82657847Y-117052847D01*
X82627554Y-117077708D01*
X82592995Y-117096180D01*
X82555499Y-117107555D01*
X82510362Y-117112000D01*
X81771638Y-117112000D01*
X81726501Y-117107555D01*
X81689005Y-117096180D01*
X81654446Y-117077708D01*
X81624153Y-117052847D01*
X81599292Y-117022554D01*
X81580820Y-116987995D01*
X81569445Y-116950499D01*
X81565000Y-116905362D01*
X81565000Y-116266638D01*
X81569445Y-116221501D01*
X81580820Y-116184005D01*
X81599292Y-116149446D01*
X81624153Y-116119153D01*
X81654446Y-116094292D01*
X81689005Y-116075820D01*
X81726501Y-116064445D01*
X81771638Y-116060000D01*
X82510362Y-116060000D01*
X82555499Y-116064445D01*
G37*
G36*
X86012499Y-116064445D02*
G01*
X86049995Y-116075820D01*
X86084554Y-116094292D01*
X86114847Y-116119153D01*
X86139708Y-116149446D01*
X86158180Y-116184005D01*
X86169555Y-116221501D01*
X86174000Y-116266638D01*
X86174000Y-116905362D01*
X86169555Y-116950499D01*
X86158180Y-116987995D01*
X86139708Y-117022554D01*
X86114847Y-117052847D01*
X86084554Y-117077708D01*
X86049995Y-117096180D01*
X86012499Y-117107555D01*
X85967362Y-117112000D01*
X85228638Y-117112000D01*
X85183501Y-117107555D01*
X85146005Y-117096180D01*
X85111446Y-117077708D01*
X85081153Y-117052847D01*
X85056292Y-117022554D01*
X85037820Y-116987995D01*
X85026445Y-116950499D01*
X85022000Y-116905362D01*
X85022000Y-116266638D01*
X85026445Y-116221501D01*
X85037820Y-116184005D01*
X85056292Y-116149446D01*
X85081153Y-116119153D01*
X85111446Y-116094292D01*
X85146005Y-116075820D01*
X85183501Y-116064445D01*
X85228638Y-116060000D01*
X85967362Y-116060000D01*
X86012499Y-116064445D01*
G37*
G36*
X87804499Y-116064445D02*
G01*
X87841995Y-116075820D01*
X87876554Y-116094292D01*
X87906847Y-116119153D01*
X87931708Y-116149446D01*
X87950180Y-116184005D01*
X87961555Y-116221501D01*
X87966000Y-116266638D01*
X87966000Y-116905362D01*
X87961555Y-116950499D01*
X87950180Y-116987995D01*
X87931708Y-117022554D01*
X87906847Y-117052847D01*
X87876554Y-117077708D01*
X87841995Y-117096180D01*
X87804499Y-117107555D01*
X87759362Y-117112000D01*
X87020638Y-117112000D01*
X86975501Y-117107555D01*
X86938005Y-117096180D01*
X86903446Y-117077708D01*
X86873153Y-117052847D01*
X86848292Y-117022554D01*
X86829820Y-116987995D01*
X86818445Y-116950499D01*
X86814000Y-116905362D01*
X86814000Y-116266638D01*
X86818445Y-116221501D01*
X86829820Y-116184005D01*
X86848292Y-116149446D01*
X86873153Y-116119153D01*
X86903446Y-116094292D01*
X86938005Y-116075820D01*
X86975501Y-116064445D01*
X87020638Y-116060000D01*
X87759362Y-116060000D01*
X87804499Y-116064445D01*
G37*
G36*
X91934512Y-114673927D02*
G01*
X92083812Y-114703624D01*
X92247784Y-114771544D01*
X92395354Y-114870147D01*
X92520853Y-114995646D01*
X92619456Y-115143216D01*
X92687376Y-115307188D01*
X92722000Y-115481259D01*
X92722000Y-115658741D01*
X92687376Y-115832812D01*
X92619456Y-115996784D01*
X92520853Y-116144354D01*
X92395354Y-116269853D01*
X92247784Y-116368456D01*
X92083812Y-116436376D01*
X91934512Y-116466073D01*
X91909742Y-116471000D01*
X91732258Y-116471000D01*
X91707488Y-116466073D01*
X91558188Y-116436376D01*
X91394216Y-116368456D01*
X91246646Y-116269853D01*
X91121147Y-116144354D01*
X91022544Y-115996784D01*
X90954624Y-115832812D01*
X90920000Y-115658741D01*
X90920000Y-115481259D01*
X90954624Y-115307188D01*
X91022544Y-115143216D01*
X91121147Y-114995646D01*
X91246646Y-114870147D01*
X91394216Y-114771544D01*
X91558188Y-114703624D01*
X91707488Y-114673927D01*
X91732258Y-114669000D01*
X91909742Y-114669000D01*
X91934512Y-114673927D01*
G37*
G36*
X87766000Y-115386000D02*
G01*
X86764000Y-115386000D01*
X86764000Y-114484000D01*
X87766000Y-114484000D01*
X87766000Y-115386000D01*
G37*
G36*
X84273500Y-115381000D02*
G01*
X83271500Y-115381000D01*
X83271500Y-114479000D01*
X84273500Y-114479000D01*
X84273500Y-115381000D01*
G37*
G36*
X80765000Y-115381000D02*
G01*
X79763000Y-115381000D01*
X79763000Y-114479000D01*
X80765000Y-114479000D01*
X80765000Y-115381000D01*
G37*
G36*
X89766000Y-114436000D02*
G01*
X88764000Y-114436000D01*
X88764000Y-113534000D01*
X89766000Y-113534000D01*
X89766000Y-114436000D01*
G37*
G36*
X82765000Y-114431000D02*
G01*
X81763000Y-114431000D01*
X81763000Y-113529000D01*
X82765000Y-113529000D01*
X82765000Y-114431000D01*
G37*
G36*
X86273500Y-114431000D02*
G01*
X85271500Y-114431000D01*
X85271500Y-113529000D01*
X86273500Y-113529000D01*
X86273500Y-114431000D01*
G37*
G36*
X77413000Y-114023000D02*
G01*
X76511000Y-114023000D01*
X76511000Y-113021000D01*
X77413000Y-113021000D01*
X77413000Y-114023000D01*
G37*
G36*
X74405499Y-112825445D02*
G01*
X74442995Y-112836820D01*
X74477554Y-112855292D01*
X74507847Y-112880153D01*
X74532708Y-112910446D01*
X74551180Y-112945005D01*
X74562555Y-112982501D01*
X74567000Y-113027638D01*
X74567000Y-113766362D01*
X74562555Y-113811499D01*
X74551180Y-113848995D01*
X74532708Y-113883554D01*
X74507847Y-113913847D01*
X74477554Y-113938708D01*
X74442995Y-113957180D01*
X74405499Y-113968555D01*
X74360362Y-113973000D01*
X73721638Y-113973000D01*
X73676501Y-113968555D01*
X73639005Y-113957180D01*
X73604446Y-113938708D01*
X73574153Y-113913847D01*
X73549292Y-113883554D01*
X73530820Y-113848995D01*
X73519445Y-113811499D01*
X73515000Y-113766362D01*
X73515000Y-113027638D01*
X73519445Y-112982501D01*
X73530820Y-112945005D01*
X73549292Y-112910446D01*
X73574153Y-112880153D01*
X73604446Y-112855292D01*
X73639005Y-112836820D01*
X73676501Y-112825445D01*
X73721638Y-112821000D01*
X74360362Y-112821000D01*
X74405499Y-112825445D01*
G37*
G36*
X72136499Y-112825445D02*
G01*
X72173995Y-112836820D01*
X72208554Y-112855292D01*
X72238847Y-112880153D01*
X72263708Y-112910446D01*
X72282180Y-112945005D01*
X72293555Y-112982501D01*
X72298000Y-113027638D01*
X72298000Y-113766362D01*
X72293555Y-113811499D01*
X72282180Y-113848995D01*
X72263708Y-113883554D01*
X72238847Y-113913847D01*
X72208554Y-113938708D01*
X72173995Y-113957180D01*
X72136499Y-113968555D01*
X72091362Y-113973000D01*
X71452638Y-113973000D01*
X71407501Y-113968555D01*
X71370005Y-113957180D01*
X71335446Y-113938708D01*
X71305153Y-113913847D01*
X71280292Y-113883554D01*
X71261820Y-113848995D01*
X71250445Y-113811499D01*
X71246000Y-113766362D01*
X71246000Y-113027638D01*
X71250445Y-112982501D01*
X71261820Y-112945005D01*
X71280292Y-112910446D01*
X71305153Y-112880153D01*
X71335446Y-112855292D01*
X71370005Y-112836820D01*
X71407501Y-112825445D01*
X71452638Y-112821000D01*
X72091362Y-112821000D01*
X72136499Y-112825445D01*
G37*
G36*
X70612499Y-112825445D02*
G01*
X70649995Y-112836820D01*
X70684554Y-112855292D01*
X70714847Y-112880153D01*
X70739708Y-112910446D01*
X70758180Y-112945005D01*
X70769555Y-112982501D01*
X70774000Y-113027638D01*
X70774000Y-113766362D01*
X70769555Y-113811499D01*
X70758180Y-113848995D01*
X70739708Y-113883554D01*
X70714847Y-113913847D01*
X70684554Y-113938708D01*
X70649995Y-113957180D01*
X70612499Y-113968555D01*
X70567362Y-113973000D01*
X69928638Y-113973000D01*
X69883501Y-113968555D01*
X69846005Y-113957180D01*
X69811446Y-113938708D01*
X69781153Y-113913847D01*
X69756292Y-113883554D01*
X69737820Y-113848995D01*
X69726445Y-113811499D01*
X69722000Y-113766362D01*
X69722000Y-113027638D01*
X69726445Y-112982501D01*
X69737820Y-112945005D01*
X69756292Y-112910446D01*
X69781153Y-112880153D01*
X69811446Y-112855292D01*
X69846005Y-112836820D01*
X69883501Y-112825445D01*
X69928638Y-112821000D01*
X70567362Y-112821000D01*
X70612499Y-112825445D01*
G37*
G36*
X67547499Y-112825445D02*
G01*
X67584995Y-112836820D01*
X67619554Y-112855292D01*
X67649847Y-112880153D01*
X67674708Y-112910446D01*
X67693180Y-112945005D01*
X67704555Y-112982501D01*
X67709000Y-113027638D01*
X67709000Y-113766362D01*
X67704555Y-113811499D01*
X67693180Y-113848995D01*
X67674708Y-113883554D01*
X67649847Y-113913847D01*
X67619554Y-113938708D01*
X67584995Y-113957180D01*
X67547499Y-113968555D01*
X67502362Y-113973000D01*
X66863638Y-113973000D01*
X66818501Y-113968555D01*
X66781005Y-113957180D01*
X66746446Y-113938708D01*
X66716153Y-113913847D01*
X66691292Y-113883554D01*
X66672820Y-113848995D01*
X66661445Y-113811499D01*
X66657000Y-113766362D01*
X66657000Y-113027638D01*
X66661445Y-112982501D01*
X66672820Y-112945005D01*
X66691292Y-112910446D01*
X66716153Y-112880153D01*
X66746446Y-112855292D01*
X66781005Y-112836820D01*
X66818501Y-112825445D01*
X66863638Y-112821000D01*
X67502362Y-112821000D01*
X67547499Y-112825445D01*
G37*
G36*
X69071499Y-112811445D02*
G01*
X69108995Y-112822820D01*
X69143554Y-112841292D01*
X69173847Y-112866153D01*
X69198708Y-112896446D01*
X69217180Y-112931005D01*
X69228555Y-112968501D01*
X69233000Y-113013638D01*
X69233000Y-113752362D01*
X69228555Y-113797499D01*
X69217180Y-113834995D01*
X69198708Y-113869554D01*
X69173847Y-113899847D01*
X69143554Y-113924708D01*
X69108995Y-113943180D01*
X69071499Y-113954555D01*
X69026362Y-113959000D01*
X68387638Y-113959000D01*
X68342501Y-113954555D01*
X68305005Y-113943180D01*
X68270446Y-113924708D01*
X68240153Y-113899847D01*
X68215292Y-113869554D01*
X68196820Y-113834995D01*
X68185445Y-113797499D01*
X68181000Y-113752362D01*
X68181000Y-113013638D01*
X68185445Y-112968501D01*
X68196820Y-112931005D01*
X68215292Y-112896446D01*
X68240153Y-112866153D01*
X68270446Y-112841292D01*
X68305005Y-112822820D01*
X68342501Y-112811445D01*
X68387638Y-112807000D01*
X69026362Y-112807000D01*
X69071499Y-112811445D01*
G37*
G36*
X91924668Y-112131969D02*
G01*
X92083812Y-112163624D01*
X92247784Y-112231544D01*
X92395354Y-112330147D01*
X92520853Y-112455646D01*
X92619456Y-112603216D01*
X92687376Y-112767188D01*
X92715871Y-112910446D01*
X92719961Y-112931005D01*
X92722000Y-112941259D01*
X92722000Y-113118741D01*
X92687376Y-113292812D01*
X92619456Y-113456784D01*
X92520853Y-113604354D01*
X92395354Y-113729853D01*
X92247784Y-113828456D01*
X92083812Y-113896376D01*
X91941374Y-113924708D01*
X91909742Y-113931000D01*
X91732258Y-113931000D01*
X91700626Y-113924708D01*
X91558188Y-113896376D01*
X91394216Y-113828456D01*
X91246646Y-113729853D01*
X91121147Y-113604354D01*
X91022544Y-113456784D01*
X90954624Y-113292812D01*
X90920000Y-113118741D01*
X90920000Y-112941259D01*
X90922040Y-112931005D01*
X90926129Y-112910446D01*
X90954624Y-112767188D01*
X91022544Y-112603216D01*
X91121147Y-112455646D01*
X91246646Y-112330147D01*
X91394216Y-112231544D01*
X91558188Y-112163624D01*
X91717332Y-112131969D01*
X91732258Y-112129000D01*
X91909742Y-112129000D01*
X91924668Y-112131969D01*
G37*
G36*
X87766000Y-113486000D02*
G01*
X86764000Y-113486000D01*
X86764000Y-112584000D01*
X87766000Y-112584000D01*
X87766000Y-113486000D01*
G37*
G36*
X80765000Y-113481000D02*
G01*
X79763000Y-113481000D01*
X79763000Y-112579000D01*
X80765000Y-112579000D01*
X80765000Y-113481000D01*
G37*
G36*
X84273500Y-113481000D02*
G01*
X83271500Y-113481000D01*
X83271500Y-112579000D01*
X84273500Y-112579000D01*
X84273500Y-113481000D01*
G37*
G36*
X103568512Y-110640427D02*
G01*
X103717812Y-110670124D01*
X103881784Y-110738044D01*
X104029354Y-110836647D01*
X104154853Y-110962146D01*
X104253456Y-111109716D01*
X104321376Y-111273688D01*
X104356000Y-111447759D01*
X104356000Y-111625241D01*
X104321376Y-111799312D01*
X104253456Y-111963284D01*
X104154853Y-112110854D01*
X104029354Y-112236353D01*
X103881784Y-112334956D01*
X103717812Y-112402876D01*
X103568512Y-112432573D01*
X103543742Y-112437500D01*
X103366258Y-112437500D01*
X103341488Y-112432573D01*
X103192188Y-112402876D01*
X103028216Y-112334956D01*
X102880646Y-112236353D01*
X102755147Y-112110854D01*
X102656544Y-111963284D01*
X102588624Y-111799312D01*
X102554000Y-111625241D01*
X102554000Y-111447759D01*
X102588624Y-111273688D01*
X102656544Y-111109716D01*
X102755147Y-110962146D01*
X102880646Y-110836647D01*
X103028216Y-110738044D01*
X103192188Y-110670124D01*
X103341488Y-110640427D01*
X103366258Y-110635500D01*
X103543742Y-110635500D01*
X103568512Y-110640427D01*
G37*
G36*
X113728512Y-110640427D02*
G01*
X113877812Y-110670124D01*
X114041784Y-110738044D01*
X114189354Y-110836647D01*
X114314853Y-110962146D01*
X114413456Y-111109716D01*
X114481376Y-111273688D01*
X114516000Y-111447759D01*
X114516000Y-111625241D01*
X114481376Y-111799312D01*
X114413456Y-111963284D01*
X114314853Y-112110854D01*
X114189354Y-112236353D01*
X114041784Y-112334956D01*
X113877812Y-112402876D01*
X113728512Y-112432573D01*
X113703742Y-112437500D01*
X113526258Y-112437500D01*
X113501488Y-112432573D01*
X113352188Y-112402876D01*
X113188216Y-112334956D01*
X113040646Y-112236353D01*
X112915147Y-112110854D01*
X112816544Y-111963284D01*
X112748624Y-111799312D01*
X112714000Y-111625241D01*
X112714000Y-111447759D01*
X112748624Y-111273688D01*
X112816544Y-111109716D01*
X112915147Y-110962146D01*
X113040646Y-110836647D01*
X113188216Y-110738044D01*
X113352188Y-110670124D01*
X113501488Y-110640427D01*
X113526258Y-110635500D01*
X113703742Y-110635500D01*
X113728512Y-110640427D01*
G37*
G36*
X96736000Y-112437500D02*
G01*
X94934000Y-112437500D01*
X94934000Y-110635500D01*
X96736000Y-110635500D01*
X96736000Y-112437500D01*
G37*
G36*
X101028512Y-110640427D02*
G01*
X101177812Y-110670124D01*
X101341784Y-110738044D01*
X101489354Y-110836647D01*
X101614853Y-110962146D01*
X101713456Y-111109716D01*
X101781376Y-111273688D01*
X101816000Y-111447759D01*
X101816000Y-111625241D01*
X101781376Y-111799312D01*
X101713456Y-111963284D01*
X101614853Y-112110854D01*
X101489354Y-112236353D01*
X101341784Y-112334956D01*
X101177812Y-112402876D01*
X101028512Y-112432573D01*
X101003742Y-112437500D01*
X100826258Y-112437500D01*
X100801488Y-112432573D01*
X100652188Y-112402876D01*
X100488216Y-112334956D01*
X100340646Y-112236353D01*
X100215147Y-112110854D01*
X100116544Y-111963284D01*
X100048624Y-111799312D01*
X100014000Y-111625241D01*
X100014000Y-111447759D01*
X100048624Y-111273688D01*
X100116544Y-111109716D01*
X100215147Y-110962146D01*
X100340646Y-110836647D01*
X100488216Y-110738044D01*
X100652188Y-110670124D01*
X100801488Y-110640427D01*
X100826258Y-110635500D01*
X101003742Y-110635500D01*
X101028512Y-110640427D01*
G37*
G36*
X108648512Y-110640427D02*
G01*
X108797812Y-110670124D01*
X108961784Y-110738044D01*
X109109354Y-110836647D01*
X109234853Y-110962146D01*
X109333456Y-111109716D01*
X109401376Y-111273688D01*
X109436000Y-111447759D01*
X109436000Y-111625241D01*
X109401376Y-111799312D01*
X109333456Y-111963284D01*
X109234853Y-112110854D01*
X109109354Y-112236353D01*
X108961784Y-112334956D01*
X108797812Y-112402876D01*
X108648512Y-112432573D01*
X108623742Y-112437500D01*
X108446258Y-112437500D01*
X108421488Y-112432573D01*
X108272188Y-112402876D01*
X108108216Y-112334956D01*
X107960646Y-112236353D01*
X107835147Y-112110854D01*
X107736544Y-111963284D01*
X107668624Y-111799312D01*
X107634000Y-111625241D01*
X107634000Y-111447759D01*
X107668624Y-111273688D01*
X107736544Y-111109716D01*
X107835147Y-110962146D01*
X107960646Y-110836647D01*
X108108216Y-110738044D01*
X108272188Y-110670124D01*
X108421488Y-110640427D01*
X108446258Y-110635500D01*
X108623742Y-110635500D01*
X108648512Y-110640427D01*
G37*
G36*
X106108512Y-110640427D02*
G01*
X106257812Y-110670124D01*
X106421784Y-110738044D01*
X106569354Y-110836647D01*
X106694853Y-110962146D01*
X106793456Y-111109716D01*
X106861376Y-111273688D01*
X106896000Y-111447759D01*
X106896000Y-111625241D01*
X106861376Y-111799312D01*
X106793456Y-111963284D01*
X106694853Y-112110854D01*
X106569354Y-112236353D01*
X106421784Y-112334956D01*
X106257812Y-112402876D01*
X106108512Y-112432573D01*
X106083742Y-112437500D01*
X105906258Y-112437500D01*
X105881488Y-112432573D01*
X105732188Y-112402876D01*
X105568216Y-112334956D01*
X105420646Y-112236353D01*
X105295147Y-112110854D01*
X105196544Y-111963284D01*
X105128624Y-111799312D01*
X105094000Y-111625241D01*
X105094000Y-111447759D01*
X105128624Y-111273688D01*
X105196544Y-111109716D01*
X105295147Y-110962146D01*
X105420646Y-110836647D01*
X105568216Y-110738044D01*
X105732188Y-110670124D01*
X105881488Y-110640427D01*
X105906258Y-110635500D01*
X106083742Y-110635500D01*
X106108512Y-110640427D01*
G37*
G36*
X98488512Y-110640427D02*
G01*
X98637812Y-110670124D01*
X98801784Y-110738044D01*
X98949354Y-110836647D01*
X99074853Y-110962146D01*
X99173456Y-111109716D01*
X99241376Y-111273688D01*
X99276000Y-111447759D01*
X99276000Y-111625241D01*
X99241376Y-111799312D01*
X99173456Y-111963284D01*
X99074853Y-112110854D01*
X98949354Y-112236353D01*
X98801784Y-112334956D01*
X98637812Y-112402876D01*
X98488512Y-112432573D01*
X98463742Y-112437500D01*
X98286258Y-112437500D01*
X98261488Y-112432573D01*
X98112188Y-112402876D01*
X97948216Y-112334956D01*
X97800646Y-112236353D01*
X97675147Y-112110854D01*
X97576544Y-111963284D01*
X97508624Y-111799312D01*
X97474000Y-111625241D01*
X97474000Y-111447759D01*
X97508624Y-111273688D01*
X97576544Y-111109716D01*
X97675147Y-110962146D01*
X97800646Y-110836647D01*
X97948216Y-110738044D01*
X98112188Y-110670124D01*
X98261488Y-110640427D01*
X98286258Y-110635500D01*
X98463742Y-110635500D01*
X98488512Y-110640427D01*
G37*
G36*
X111188512Y-110640427D02*
G01*
X111337812Y-110670124D01*
X111501784Y-110738044D01*
X111649354Y-110836647D01*
X111774853Y-110962146D01*
X111873456Y-111109716D01*
X111941376Y-111273688D01*
X111976000Y-111447759D01*
X111976000Y-111625241D01*
X111941376Y-111799312D01*
X111873456Y-111963284D01*
X111774853Y-112110854D01*
X111649354Y-112236353D01*
X111501784Y-112334956D01*
X111337812Y-112402876D01*
X111188512Y-112432573D01*
X111163742Y-112437500D01*
X110986258Y-112437500D01*
X110961488Y-112432573D01*
X110812188Y-112402876D01*
X110648216Y-112334956D01*
X110500646Y-112236353D01*
X110375147Y-112110854D01*
X110276544Y-111963284D01*
X110208624Y-111799312D01*
X110174000Y-111625241D01*
X110174000Y-111447759D01*
X110208624Y-111273688D01*
X110276544Y-111109716D01*
X110375147Y-110962146D01*
X110500646Y-110836647D01*
X110648216Y-110738044D01*
X110812188Y-110670124D01*
X110961488Y-110640427D01*
X110986258Y-110635500D01*
X111163742Y-110635500D01*
X111188512Y-110640427D01*
G37*
G36*
X74405499Y-111075445D02*
G01*
X74442995Y-111086820D01*
X74477554Y-111105292D01*
X74507847Y-111130153D01*
X74532708Y-111160446D01*
X74551180Y-111195005D01*
X74562555Y-111232501D01*
X74567000Y-111277638D01*
X74567000Y-112016362D01*
X74562555Y-112061499D01*
X74551180Y-112098995D01*
X74532708Y-112133554D01*
X74507847Y-112163847D01*
X74477554Y-112188708D01*
X74442995Y-112207180D01*
X74405499Y-112218555D01*
X74360362Y-112223000D01*
X73721638Y-112223000D01*
X73676501Y-112218555D01*
X73639005Y-112207180D01*
X73604446Y-112188708D01*
X73574153Y-112163847D01*
X73549292Y-112133554D01*
X73530820Y-112098995D01*
X73519445Y-112061499D01*
X73515000Y-112016362D01*
X73515000Y-111277638D01*
X73519445Y-111232501D01*
X73530820Y-111195005D01*
X73549292Y-111160446D01*
X73574153Y-111130153D01*
X73604446Y-111105292D01*
X73639005Y-111086820D01*
X73676501Y-111075445D01*
X73721638Y-111071000D01*
X74360362Y-111071000D01*
X74405499Y-111075445D01*
G37*
G36*
X67547499Y-111075445D02*
G01*
X67584995Y-111086820D01*
X67619554Y-111105292D01*
X67649847Y-111130153D01*
X67674708Y-111160446D01*
X67693180Y-111195005D01*
X67704555Y-111232501D01*
X67709000Y-111277638D01*
X67709000Y-112016362D01*
X67704555Y-112061499D01*
X67693180Y-112098995D01*
X67674708Y-112133554D01*
X67649847Y-112163847D01*
X67619554Y-112188708D01*
X67584995Y-112207180D01*
X67547499Y-112218555D01*
X67502362Y-112223000D01*
X66863638Y-112223000D01*
X66818501Y-112218555D01*
X66781005Y-112207180D01*
X66746446Y-112188708D01*
X66716153Y-112163847D01*
X66691292Y-112133554D01*
X66672820Y-112098995D01*
X66661445Y-112061499D01*
X66657000Y-112016362D01*
X66657000Y-111277638D01*
X66661445Y-111232501D01*
X66672820Y-111195005D01*
X66691292Y-111160446D01*
X66716153Y-111130153D01*
X66746446Y-111105292D01*
X66781005Y-111086820D01*
X66818501Y-111075445D01*
X66863638Y-111071000D01*
X67502362Y-111071000D01*
X67547499Y-111075445D01*
G37*
G36*
X70612499Y-111075445D02*
G01*
X70649995Y-111086820D01*
X70684554Y-111105292D01*
X70714847Y-111130153D01*
X70739708Y-111160446D01*
X70758180Y-111195005D01*
X70769555Y-111232501D01*
X70774000Y-111277638D01*
X70774000Y-112016362D01*
X70769555Y-112061499D01*
X70758180Y-112098995D01*
X70739708Y-112133554D01*
X70714847Y-112163847D01*
X70684554Y-112188708D01*
X70649995Y-112207180D01*
X70612499Y-112218555D01*
X70567362Y-112223000D01*
X69928638Y-112223000D01*
X69883501Y-112218555D01*
X69846005Y-112207180D01*
X69811446Y-112188708D01*
X69781153Y-112163847D01*
X69756292Y-112133554D01*
X69737820Y-112098995D01*
X69726445Y-112061499D01*
X69722000Y-112016362D01*
X69722000Y-111277638D01*
X69726445Y-111232501D01*
X69737820Y-111195005D01*
X69756292Y-111160446D01*
X69781153Y-111130153D01*
X69811446Y-111105292D01*
X69846005Y-111086820D01*
X69883501Y-111075445D01*
X69928638Y-111071000D01*
X70567362Y-111071000D01*
X70612499Y-111075445D01*
G37*
G36*
X72136499Y-111075445D02*
G01*
X72173995Y-111086820D01*
X72208554Y-111105292D01*
X72238847Y-111130153D01*
X72263708Y-111160446D01*
X72282180Y-111195005D01*
X72293555Y-111232501D01*
X72298000Y-111277638D01*
X72298000Y-112016362D01*
X72293555Y-112061499D01*
X72282180Y-112098995D01*
X72263708Y-112133554D01*
X72238847Y-112163847D01*
X72208554Y-112188708D01*
X72173995Y-112207180D01*
X72136499Y-112218555D01*
X72091362Y-112223000D01*
X71452638Y-112223000D01*
X71407501Y-112218555D01*
X71370005Y-112207180D01*
X71335446Y-112188708D01*
X71305153Y-112163847D01*
X71280292Y-112133554D01*
X71261820Y-112098995D01*
X71250445Y-112061499D01*
X71246000Y-112016362D01*
X71246000Y-111277638D01*
X71250445Y-111232501D01*
X71261820Y-111195005D01*
X71280292Y-111160446D01*
X71305153Y-111130153D01*
X71335446Y-111105292D01*
X71370005Y-111086820D01*
X71407501Y-111075445D01*
X71452638Y-111071000D01*
X72091362Y-111071000D01*
X72136499Y-111075445D01*
G37*
G36*
X69071499Y-111061445D02*
G01*
X69108995Y-111072820D01*
X69143554Y-111091292D01*
X69173847Y-111116153D01*
X69198708Y-111146446D01*
X69217180Y-111181005D01*
X69228555Y-111218501D01*
X69233000Y-111263638D01*
X69233000Y-112002362D01*
X69228555Y-112047499D01*
X69217180Y-112084995D01*
X69198708Y-112119554D01*
X69173847Y-112149847D01*
X69143554Y-112174708D01*
X69108995Y-112193180D01*
X69071499Y-112204555D01*
X69026362Y-112209000D01*
X68387638Y-112209000D01*
X68342501Y-112204555D01*
X68305005Y-112193180D01*
X68270446Y-112174708D01*
X68240153Y-112149847D01*
X68215292Y-112119554D01*
X68196820Y-112084995D01*
X68185445Y-112047499D01*
X68181000Y-112002362D01*
X68181000Y-111263638D01*
X68185445Y-111218501D01*
X68196820Y-111181005D01*
X68215292Y-111146446D01*
X68240153Y-111116153D01*
X68270446Y-111091292D01*
X68305005Y-111072820D01*
X68342501Y-111061445D01*
X68387638Y-111057000D01*
X69026362Y-111057000D01*
X69071499Y-111061445D01*
G37*
G36*
X76463000Y-112023000D02*
G01*
X75561000Y-112023000D01*
X75561000Y-111021000D01*
X76463000Y-111021000D01*
X76463000Y-112023000D01*
G37*
G36*
X78363000Y-112023000D02*
G01*
X77461000Y-112023000D01*
X77461000Y-111021000D01*
X78363000Y-111021000D01*
X78363000Y-112023000D01*
G37*
G36*
X89568499Y-110349445D02*
G01*
X89605995Y-110360820D01*
X89640554Y-110379292D01*
X89670847Y-110404153D01*
X89695708Y-110434446D01*
X89714180Y-110469005D01*
X89725555Y-110506501D01*
X89730000Y-110551638D01*
X89730000Y-111190362D01*
X89725555Y-111235499D01*
X89714180Y-111272995D01*
X89695708Y-111307554D01*
X89670847Y-111337847D01*
X89640554Y-111362708D01*
X89605995Y-111381180D01*
X89568499Y-111392555D01*
X89523362Y-111397000D01*
X88784638Y-111397000D01*
X88739501Y-111392555D01*
X88702005Y-111381180D01*
X88667446Y-111362708D01*
X88637153Y-111337847D01*
X88612292Y-111307554D01*
X88593820Y-111272995D01*
X88582445Y-111235499D01*
X88578000Y-111190362D01*
X88578000Y-110551638D01*
X88582445Y-110506501D01*
X88593820Y-110469005D01*
X88612292Y-110434446D01*
X88637153Y-110404153D01*
X88667446Y-110379292D01*
X88702005Y-110360820D01*
X88739501Y-110349445D01*
X88784638Y-110345000D01*
X89523362Y-110345000D01*
X89568499Y-110349445D01*
G37*
G36*
X87818499Y-110349445D02*
G01*
X87855995Y-110360820D01*
X87890554Y-110379292D01*
X87920847Y-110404153D01*
X87945708Y-110434446D01*
X87964180Y-110469005D01*
X87975555Y-110506501D01*
X87980000Y-110551638D01*
X87980000Y-111190362D01*
X87975555Y-111235499D01*
X87964180Y-111272995D01*
X87945708Y-111307554D01*
X87920847Y-111337847D01*
X87890554Y-111362708D01*
X87855995Y-111381180D01*
X87818499Y-111392555D01*
X87773362Y-111397000D01*
X87034638Y-111397000D01*
X86989501Y-111392555D01*
X86952005Y-111381180D01*
X86917446Y-111362708D01*
X86887153Y-111337847D01*
X86862292Y-111307554D01*
X86843820Y-111272995D01*
X86832445Y-111235499D01*
X86828000Y-111190362D01*
X86828000Y-110551638D01*
X86832445Y-110506501D01*
X86843820Y-110469005D01*
X86862292Y-110434446D01*
X86887153Y-110404153D01*
X86917446Y-110379292D01*
X86952005Y-110360820D01*
X86989501Y-110349445D01*
X87034638Y-110345000D01*
X87773362Y-110345000D01*
X87818499Y-110349445D01*
G37*
G36*
X92722000Y-111391000D02*
G01*
X90920000Y-111391000D01*
X90920000Y-109589000D01*
X92722000Y-109589000D01*
X92722000Y-111391000D01*
G37*
G36*
X79676000Y-110551000D02*
G01*
X78674000Y-110551000D01*
X78674000Y-108449000D01*
X79676000Y-108449000D01*
X79676000Y-110551000D01*
G37*
G36*
X82216000Y-110551000D02*
G01*
X81214000Y-110551000D01*
X81214000Y-108449000D01*
X82216000Y-108449000D01*
X82216000Y-110551000D01*
G37*
G36*
X83486000Y-110551000D02*
G01*
X82484000Y-110551000D01*
X82484000Y-108449000D01*
X83486000Y-108449000D01*
X83486000Y-110551000D01*
G37*
G36*
X84756000Y-110551000D02*
G01*
X83754000Y-110551000D01*
X83754000Y-108449000D01*
X84756000Y-108449000D01*
X84756000Y-110551000D01*
G37*
G36*
X80946000Y-110551000D02*
G01*
X79944000Y-110551000D01*
X79944000Y-108449000D01*
X80946000Y-108449000D01*
X80946000Y-110551000D01*
G37*
G36*
X78406000Y-110551000D02*
G01*
X77404000Y-110551000D01*
X77404000Y-108449000D01*
X78406000Y-108449000D01*
X78406000Y-110551000D01*
G37*
G36*
X77136000Y-110551000D02*
G01*
X76134000Y-110551000D01*
X76134000Y-108449000D01*
X77136000Y-108449000D01*
X77136000Y-110551000D01*
G37*
G36*
X75866000Y-110551000D02*
G01*
X74864000Y-110551000D01*
X74864000Y-108449000D01*
X75866000Y-108449000D01*
X75866000Y-110551000D01*
G37*
G36*
X73326000Y-110551000D02*
G01*
X72324000Y-110551000D01*
X72324000Y-108449000D01*
X73326000Y-108449000D01*
X73326000Y-110551000D01*
G37*
G36*
X72056000Y-110551000D02*
G01*
X71054000Y-110551000D01*
X71054000Y-108449000D01*
X72056000Y-108449000D01*
X72056000Y-110551000D01*
G37*
G36*
X74596000Y-110551000D02*
G01*
X73594000Y-110551000D01*
X73594000Y-108449000D01*
X74596000Y-108449000D01*
X74596000Y-110551000D01*
G37*
G36*
X69516000Y-110551000D02*
G01*
X68514000Y-110551000D01*
X68514000Y-108449000D01*
X69516000Y-108449000D01*
X69516000Y-110551000D01*
G37*
G36*
X70786000Y-110551000D02*
G01*
X69784000Y-110551000D01*
X69784000Y-108449000D01*
X70786000Y-108449000D01*
X70786000Y-110551000D01*
G37*
G36*
X68246000Y-110551000D02*
G01*
X67244000Y-110551000D01*
X67244000Y-108449000D01*
X68246000Y-108449000D01*
X68246000Y-110551000D01*
G37*
G36*
X87818499Y-108825445D02*
G01*
X87855995Y-108836820D01*
X87890554Y-108855292D01*
X87920847Y-108880153D01*
X87945708Y-108910446D01*
X87964180Y-108945005D01*
X87975555Y-108982501D01*
X87980000Y-109027638D01*
X87980000Y-109666362D01*
X87975555Y-109711499D01*
X87964180Y-109748995D01*
X87945708Y-109783554D01*
X87920847Y-109813847D01*
X87890554Y-109838708D01*
X87855995Y-109857180D01*
X87818499Y-109868555D01*
X87773362Y-109873000D01*
X87034638Y-109873000D01*
X86989501Y-109868555D01*
X86952005Y-109857180D01*
X86917446Y-109838708D01*
X86887153Y-109813847D01*
X86862292Y-109783554D01*
X86843820Y-109748995D01*
X86832445Y-109711499D01*
X86828000Y-109666362D01*
X86828000Y-109027638D01*
X86832445Y-108982501D01*
X86843820Y-108945005D01*
X86862292Y-108910446D01*
X86887153Y-108880153D01*
X86917446Y-108855292D01*
X86952005Y-108836820D01*
X86989501Y-108825445D01*
X87034638Y-108821000D01*
X87773362Y-108821000D01*
X87818499Y-108825445D01*
G37*
G36*
X89568499Y-108825445D02*
G01*
X89605995Y-108836820D01*
X89640554Y-108855292D01*
X89670847Y-108880153D01*
X89695708Y-108910446D01*
X89714180Y-108945005D01*
X89725555Y-108982501D01*
X89730000Y-109027638D01*
X89730000Y-109666362D01*
X89725555Y-109711499D01*
X89714180Y-109748995D01*
X89695708Y-109783554D01*
X89670847Y-109813847D01*
X89640554Y-109838708D01*
X89605995Y-109857180D01*
X89568499Y-109868555D01*
X89523362Y-109873000D01*
X88784638Y-109873000D01*
X88739501Y-109868555D01*
X88702005Y-109857180D01*
X88667446Y-109838708D01*
X88637153Y-109813847D01*
X88612292Y-109783554D01*
X88593820Y-109748995D01*
X88582445Y-109711499D01*
X88578000Y-109666362D01*
X88578000Y-109027638D01*
X88582445Y-108982501D01*
X88593820Y-108945005D01*
X88612292Y-108910446D01*
X88637153Y-108880153D01*
X88667446Y-108855292D01*
X88702005Y-108836820D01*
X88739501Y-108825445D01*
X88784638Y-108821000D01*
X89523362Y-108821000D01*
X89568499Y-108825445D01*
G37*
G36*
X104581499Y-107521945D02*
G01*
X104618995Y-107533320D01*
X104653554Y-107551792D01*
X104683847Y-107576653D01*
X104708708Y-107606946D01*
X104727180Y-107641505D01*
X104738555Y-107679001D01*
X104743000Y-107724138D01*
X104743000Y-108462862D01*
X104738555Y-108507999D01*
X104727180Y-108545495D01*
X104708708Y-108580054D01*
X104683847Y-108610347D01*
X104653554Y-108635208D01*
X104618995Y-108653680D01*
X104581499Y-108665055D01*
X104536362Y-108669500D01*
X103897638Y-108669500D01*
X103852501Y-108665055D01*
X103815005Y-108653680D01*
X103780446Y-108635208D01*
X103750153Y-108610347D01*
X103725292Y-108580054D01*
X103706820Y-108545495D01*
X103695445Y-108507999D01*
X103691000Y-108462862D01*
X103691000Y-107724138D01*
X103695445Y-107679001D01*
X103706820Y-107641505D01*
X103725292Y-107606946D01*
X103750153Y-107576653D01*
X103780446Y-107551792D01*
X103815005Y-107533320D01*
X103852501Y-107521945D01*
X103897638Y-107517500D01*
X104536362Y-107517500D01*
X104581499Y-107521945D01*
G37*
G36*
X102295499Y-107521945D02*
G01*
X102332995Y-107533320D01*
X102367554Y-107551792D01*
X102397847Y-107576653D01*
X102422708Y-107606946D01*
X102441180Y-107641505D01*
X102452555Y-107679001D01*
X102457000Y-107724138D01*
X102457000Y-108462862D01*
X102452555Y-108507999D01*
X102441180Y-108545495D01*
X102422708Y-108580054D01*
X102397847Y-108610347D01*
X102367554Y-108635208D01*
X102332995Y-108653680D01*
X102295499Y-108665055D01*
X102250362Y-108669500D01*
X101611638Y-108669500D01*
X101566501Y-108665055D01*
X101529005Y-108653680D01*
X101494446Y-108635208D01*
X101464153Y-108610347D01*
X101439292Y-108580054D01*
X101420820Y-108545495D01*
X101409445Y-108507999D01*
X101405000Y-108462862D01*
X101405000Y-107724138D01*
X101409445Y-107679001D01*
X101420820Y-107641505D01*
X101439292Y-107606946D01*
X101464153Y-107576653D01*
X101494446Y-107551792D01*
X101529005Y-107533320D01*
X101566501Y-107521945D01*
X101611638Y-107517500D01*
X102250362Y-107517500D01*
X102295499Y-107521945D01*
G37*
G36*
X97723499Y-107521945D02*
G01*
X97760995Y-107533320D01*
X97795554Y-107551792D01*
X97825847Y-107576653D01*
X97850708Y-107606946D01*
X97869180Y-107641505D01*
X97880555Y-107679001D01*
X97885000Y-107724138D01*
X97885000Y-108462862D01*
X97880555Y-108507999D01*
X97869180Y-108545495D01*
X97850708Y-108580054D01*
X97825847Y-108610347D01*
X97795554Y-108635208D01*
X97760995Y-108653680D01*
X97723499Y-108665055D01*
X97678362Y-108669500D01*
X97039638Y-108669500D01*
X96994501Y-108665055D01*
X96957005Y-108653680D01*
X96922446Y-108635208D01*
X96892153Y-108610347D01*
X96867292Y-108580054D01*
X96848820Y-108545495D01*
X96837445Y-108507999D01*
X96833000Y-108462862D01*
X96833000Y-107724138D01*
X96837445Y-107679001D01*
X96848820Y-107641505D01*
X96867292Y-107606946D01*
X96892153Y-107576653D01*
X96922446Y-107551792D01*
X96957005Y-107533320D01*
X96994501Y-107521945D01*
X97039638Y-107517500D01*
X97678362Y-107517500D01*
X97723499Y-107521945D01*
G37*
G36*
X110727499Y-107521945D02*
G01*
X110764995Y-107533320D01*
X110799554Y-107551792D01*
X110829847Y-107576653D01*
X110854708Y-107606946D01*
X110873180Y-107641505D01*
X110884555Y-107679001D01*
X110889000Y-107724138D01*
X110889000Y-108462862D01*
X110884555Y-108507999D01*
X110873180Y-108545495D01*
X110854708Y-108580054D01*
X110829847Y-108610347D01*
X110799554Y-108635208D01*
X110764995Y-108653680D01*
X110727499Y-108665055D01*
X110682362Y-108669500D01*
X110043638Y-108669500D01*
X109998501Y-108665055D01*
X109961005Y-108653680D01*
X109926446Y-108635208D01*
X109896153Y-108610347D01*
X109871292Y-108580054D01*
X109852820Y-108545495D01*
X109841445Y-108507999D01*
X109837000Y-108462862D01*
X109837000Y-107724138D01*
X109841445Y-107679001D01*
X109852820Y-107641505D01*
X109871292Y-107606946D01*
X109896153Y-107576653D01*
X109926446Y-107551792D01*
X109961005Y-107533320D01*
X109998501Y-107521945D01*
X110043638Y-107517500D01*
X110682362Y-107517500D01*
X110727499Y-107521945D01*
G37*
G36*
X106867499Y-107521945D02*
G01*
X106904995Y-107533320D01*
X106939554Y-107551792D01*
X106969847Y-107576653D01*
X106994708Y-107606946D01*
X107013180Y-107641505D01*
X107024555Y-107679001D01*
X107029000Y-107724138D01*
X107029000Y-108462862D01*
X107024555Y-108507999D01*
X107013180Y-108545495D01*
X106994708Y-108580054D01*
X106969847Y-108610347D01*
X106939554Y-108635208D01*
X106904995Y-108653680D01*
X106867499Y-108665055D01*
X106822362Y-108669500D01*
X106183638Y-108669500D01*
X106138501Y-108665055D01*
X106101005Y-108653680D01*
X106066446Y-108635208D01*
X106036153Y-108610347D01*
X106011292Y-108580054D01*
X105992820Y-108545495D01*
X105981445Y-108507999D01*
X105977000Y-108462862D01*
X105977000Y-107724138D01*
X105981445Y-107679001D01*
X105992820Y-107641505D01*
X106011292Y-107606946D01*
X106036153Y-107576653D01*
X106066446Y-107551792D01*
X106101005Y-107533320D01*
X106138501Y-107521945D01*
X106183638Y-107517500D01*
X106822362Y-107517500D01*
X106867499Y-107521945D01*
G37*
G36*
X109153499Y-107521945D02*
G01*
X109190995Y-107533320D01*
X109225554Y-107551792D01*
X109255847Y-107576653D01*
X109280708Y-107606946D01*
X109299180Y-107641505D01*
X109310555Y-107679001D01*
X109315000Y-107724138D01*
X109315000Y-108462862D01*
X109310555Y-108507999D01*
X109299180Y-108545495D01*
X109280708Y-108580054D01*
X109255847Y-108610347D01*
X109225554Y-108635208D01*
X109190995Y-108653680D01*
X109153499Y-108665055D01*
X109108362Y-108669500D01*
X108469638Y-108669500D01*
X108424501Y-108665055D01*
X108387005Y-108653680D01*
X108352446Y-108635208D01*
X108322153Y-108610347D01*
X108297292Y-108580054D01*
X108278820Y-108545495D01*
X108267445Y-108507999D01*
X108263000Y-108462862D01*
X108263000Y-107724138D01*
X108267445Y-107679001D01*
X108278820Y-107641505D01*
X108297292Y-107606946D01*
X108322153Y-107576653D01*
X108352446Y-107551792D01*
X108387005Y-107533320D01*
X108424501Y-107521945D01*
X108469638Y-107517500D01*
X109108362Y-107517500D01*
X109153499Y-107521945D01*
G37*
G36*
X100009499Y-107521945D02*
G01*
X100046995Y-107533320D01*
X100081554Y-107551792D01*
X100111847Y-107576653D01*
X100136708Y-107606946D01*
X100155180Y-107641505D01*
X100166555Y-107679001D01*
X100171000Y-107724138D01*
X100171000Y-108462862D01*
X100166555Y-108507999D01*
X100155180Y-108545495D01*
X100136708Y-108580054D01*
X100111847Y-108610347D01*
X100081554Y-108635208D01*
X100046995Y-108653680D01*
X100009499Y-108665055D01*
X99964362Y-108669500D01*
X99325638Y-108669500D01*
X99280501Y-108665055D01*
X99243005Y-108653680D01*
X99208446Y-108635208D01*
X99178153Y-108610347D01*
X99153292Y-108580054D01*
X99134820Y-108545495D01*
X99123445Y-108507999D01*
X99119000Y-108462862D01*
X99119000Y-107724138D01*
X99123445Y-107679001D01*
X99134820Y-107641505D01*
X99153292Y-107606946D01*
X99178153Y-107576653D01*
X99208446Y-107551792D01*
X99243005Y-107533320D01*
X99280501Y-107521945D01*
X99325638Y-107517500D01*
X99964362Y-107517500D01*
X100009499Y-107521945D01*
G37*
G36*
X112251499Y-107521945D02*
G01*
X112288995Y-107533320D01*
X112323554Y-107551792D01*
X112353847Y-107576653D01*
X112378708Y-107606946D01*
X112397180Y-107641505D01*
X112408555Y-107679001D01*
X112413000Y-107724138D01*
X112413000Y-108462862D01*
X112408555Y-108507999D01*
X112397180Y-108545495D01*
X112378708Y-108580054D01*
X112353847Y-108610347D01*
X112323554Y-108635208D01*
X112288995Y-108653680D01*
X112251499Y-108665055D01*
X112206362Y-108669500D01*
X111567638Y-108669500D01*
X111522501Y-108665055D01*
X111485005Y-108653680D01*
X111450446Y-108635208D01*
X111420153Y-108610347D01*
X111395292Y-108580054D01*
X111376820Y-108545495D01*
X111365445Y-108507999D01*
X111361000Y-108462862D01*
X111361000Y-107724138D01*
X111365445Y-107679001D01*
X111376820Y-107641505D01*
X111395292Y-107606946D01*
X111420153Y-107576653D01*
X111450446Y-107551792D01*
X111485005Y-107533320D01*
X111522501Y-107521945D01*
X111567638Y-107517500D01*
X112206362Y-107517500D01*
X112251499Y-107521945D01*
G37*
G36*
X86306000Y-107216000D02*
G01*
X84204000Y-107216000D01*
X84204000Y-106214000D01*
X86306000Y-106214000D01*
X86306000Y-107216000D01*
G37*
G36*
X97723499Y-105771945D02*
G01*
X97760995Y-105783320D01*
X97795554Y-105801792D01*
X97825847Y-105826653D01*
X97850708Y-105856946D01*
X97869180Y-105891505D01*
X97880555Y-105929001D01*
X97885000Y-105974138D01*
X97885000Y-106712862D01*
X97880555Y-106757999D01*
X97869180Y-106795495D01*
X97850708Y-106830054D01*
X97825847Y-106860347D01*
X97795554Y-106885208D01*
X97760995Y-106903680D01*
X97723499Y-106915055D01*
X97678362Y-106919500D01*
X97039638Y-106919500D01*
X96994501Y-106915055D01*
X96957005Y-106903680D01*
X96922446Y-106885208D01*
X96892153Y-106860347D01*
X96867292Y-106830054D01*
X96848820Y-106795495D01*
X96837445Y-106757999D01*
X96833000Y-106712862D01*
X96833000Y-105974138D01*
X96837445Y-105929001D01*
X96848820Y-105891505D01*
X96867292Y-105856946D01*
X96892153Y-105826653D01*
X96922446Y-105801792D01*
X96957005Y-105783320D01*
X96994501Y-105771945D01*
X97039638Y-105767500D01*
X97678362Y-105767500D01*
X97723499Y-105771945D01*
G37*
G36*
X100009499Y-105771945D02*
G01*
X100046995Y-105783320D01*
X100081554Y-105801792D01*
X100111847Y-105826653D01*
X100136708Y-105856946D01*
X100155180Y-105891505D01*
X100166555Y-105929001D01*
X100171000Y-105974138D01*
X100171000Y-106712862D01*
X100166555Y-106757999D01*
X100155180Y-106795495D01*
X100136708Y-106830054D01*
X100111847Y-106860347D01*
X100081554Y-106885208D01*
X100046995Y-106903680D01*
X100009499Y-106915055D01*
X99964362Y-106919500D01*
X99325638Y-106919500D01*
X99280501Y-106915055D01*
X99243005Y-106903680D01*
X99208446Y-106885208D01*
X99178153Y-106860347D01*
X99153292Y-106830054D01*
X99134820Y-106795495D01*
X99123445Y-106757999D01*
X99119000Y-106712862D01*
X99119000Y-105974138D01*
X99123445Y-105929001D01*
X99134820Y-105891505D01*
X99153292Y-105856946D01*
X99178153Y-105826653D01*
X99208446Y-105801792D01*
X99243005Y-105783320D01*
X99280501Y-105771945D01*
X99325638Y-105767500D01*
X99964362Y-105767500D01*
X100009499Y-105771945D01*
G37*
G36*
X102295499Y-105771945D02*
G01*
X102332995Y-105783320D01*
X102367554Y-105801792D01*
X102397847Y-105826653D01*
X102422708Y-105856946D01*
X102441180Y-105891505D01*
X102452555Y-105929001D01*
X102457000Y-105974138D01*
X102457000Y-106712862D01*
X102452555Y-106757999D01*
X102441180Y-106795495D01*
X102422708Y-106830054D01*
X102397847Y-106860347D01*
X102367554Y-106885208D01*
X102332995Y-106903680D01*
X102295499Y-106915055D01*
X102250362Y-106919500D01*
X101611638Y-106919500D01*
X101566501Y-106915055D01*
X101529005Y-106903680D01*
X101494446Y-106885208D01*
X101464153Y-106860347D01*
X101439292Y-106830054D01*
X101420820Y-106795495D01*
X101409445Y-106757999D01*
X101405000Y-106712862D01*
X101405000Y-105974138D01*
X101409445Y-105929001D01*
X101420820Y-105891505D01*
X101439292Y-105856946D01*
X101464153Y-105826653D01*
X101494446Y-105801792D01*
X101529005Y-105783320D01*
X101566501Y-105771945D01*
X101611638Y-105767500D01*
X102250362Y-105767500D01*
X102295499Y-105771945D01*
G37*
G36*
X112251499Y-105771945D02*
G01*
X112288995Y-105783320D01*
X112323554Y-105801792D01*
X112353847Y-105826653D01*
X112378708Y-105856946D01*
X112397180Y-105891505D01*
X112408555Y-105929001D01*
X112413000Y-105974138D01*
X112413000Y-106712862D01*
X112408555Y-106757999D01*
X112397180Y-106795495D01*
X112378708Y-106830054D01*
X112353847Y-106860347D01*
X112323554Y-106885208D01*
X112288995Y-106903680D01*
X112251499Y-106915055D01*
X112206362Y-106919500D01*
X111567638Y-106919500D01*
X111522501Y-106915055D01*
X111485005Y-106903680D01*
X111450446Y-106885208D01*
X111420153Y-106860347D01*
X111395292Y-106830054D01*
X111376820Y-106795495D01*
X111365445Y-106757999D01*
X111361000Y-106712862D01*
X111361000Y-105974138D01*
X111365445Y-105929001D01*
X111376820Y-105891505D01*
X111395292Y-105856946D01*
X111420153Y-105826653D01*
X111450446Y-105801792D01*
X111485005Y-105783320D01*
X111522501Y-105771945D01*
X111567638Y-105767500D01*
X112206362Y-105767500D01*
X112251499Y-105771945D01*
G37*
G36*
X110727499Y-105771945D02*
G01*
X110764995Y-105783320D01*
X110799554Y-105801792D01*
X110829847Y-105826653D01*
X110854708Y-105856946D01*
X110873180Y-105891505D01*
X110884555Y-105929001D01*
X110889000Y-105974138D01*
X110889000Y-106712862D01*
X110884555Y-106757999D01*
X110873180Y-106795495D01*
X110854708Y-106830054D01*
X110829847Y-106860347D01*
X110799554Y-106885208D01*
X110764995Y-106903680D01*
X110727499Y-106915055D01*
X110682362Y-106919500D01*
X110043638Y-106919500D01*
X109998501Y-106915055D01*
X109961005Y-106903680D01*
X109926446Y-106885208D01*
X109896153Y-106860347D01*
X109871292Y-106830054D01*
X109852820Y-106795495D01*
X109841445Y-106757999D01*
X109837000Y-106712862D01*
X109837000Y-105974138D01*
X109841445Y-105929001D01*
X109852820Y-105891505D01*
X109871292Y-105856946D01*
X109896153Y-105826653D01*
X109926446Y-105801792D01*
X109961005Y-105783320D01*
X109998501Y-105771945D01*
X110043638Y-105767500D01*
X110682362Y-105767500D01*
X110727499Y-105771945D01*
G37*
G36*
X109153499Y-105771945D02*
G01*
X109190995Y-105783320D01*
X109225554Y-105801792D01*
X109255847Y-105826653D01*
X109280708Y-105856946D01*
X109299180Y-105891505D01*
X109310555Y-105929001D01*
X109315000Y-105974138D01*
X109315000Y-106712862D01*
X109310555Y-106757999D01*
X109299180Y-106795495D01*
X109280708Y-106830054D01*
X109255847Y-106860347D01*
X109225554Y-106885208D01*
X109190995Y-106903680D01*
X109153499Y-106915055D01*
X109108362Y-106919500D01*
X108469638Y-106919500D01*
X108424501Y-106915055D01*
X108387005Y-106903680D01*
X108352446Y-106885208D01*
X108322153Y-106860347D01*
X108297292Y-106830054D01*
X108278820Y-106795495D01*
X108267445Y-106757999D01*
X108263000Y-106712862D01*
X108263000Y-105974138D01*
X108267445Y-105929001D01*
X108278820Y-105891505D01*
X108297292Y-105856946D01*
X108322153Y-105826653D01*
X108352446Y-105801792D01*
X108387005Y-105783320D01*
X108424501Y-105771945D01*
X108469638Y-105767500D01*
X109108362Y-105767500D01*
X109153499Y-105771945D01*
G37*
G36*
X106867499Y-105771945D02*
G01*
X106904995Y-105783320D01*
X106939554Y-105801792D01*
X106969847Y-105826653D01*
X106994708Y-105856946D01*
X107013180Y-105891505D01*
X107024555Y-105929001D01*
X107029000Y-105974138D01*
X107029000Y-106712862D01*
X107024555Y-106757999D01*
X107013180Y-106795495D01*
X106994708Y-106830054D01*
X106969847Y-106860347D01*
X106939554Y-106885208D01*
X106904995Y-106903680D01*
X106867499Y-106915055D01*
X106822362Y-106919500D01*
X106183638Y-106919500D01*
X106138501Y-106915055D01*
X106101005Y-106903680D01*
X106066446Y-106885208D01*
X106036153Y-106860347D01*
X106011292Y-106830054D01*
X105992820Y-106795495D01*
X105981445Y-106757999D01*
X105977000Y-106712862D01*
X105977000Y-105974138D01*
X105981445Y-105929001D01*
X105992820Y-105891505D01*
X106011292Y-105856946D01*
X106036153Y-105826653D01*
X106066446Y-105801792D01*
X106101005Y-105783320D01*
X106138501Y-105771945D01*
X106183638Y-105767500D01*
X106822362Y-105767500D01*
X106867499Y-105771945D01*
G37*
G36*
X104581499Y-105771945D02*
G01*
X104618995Y-105783320D01*
X104653554Y-105801792D01*
X104683847Y-105826653D01*
X104708708Y-105856946D01*
X104727180Y-105891505D01*
X104738555Y-105929001D01*
X104743000Y-105974138D01*
X104743000Y-106712862D01*
X104738555Y-106757999D01*
X104727180Y-106795495D01*
X104708708Y-106830054D01*
X104683847Y-106860347D01*
X104653554Y-106885208D01*
X104618995Y-106903680D01*
X104581499Y-106915055D01*
X104536362Y-106919500D01*
X103897638Y-106919500D01*
X103852501Y-106915055D01*
X103815005Y-106903680D01*
X103780446Y-106885208D01*
X103750153Y-106860347D01*
X103725292Y-106830054D01*
X103706820Y-106795495D01*
X103695445Y-106757999D01*
X103691000Y-106712862D01*
X103691000Y-105974138D01*
X103695445Y-105929001D01*
X103706820Y-105891505D01*
X103725292Y-105856946D01*
X103750153Y-105826653D01*
X103780446Y-105801792D01*
X103815005Y-105783320D01*
X103852501Y-105771945D01*
X103897638Y-105767500D01*
X104536362Y-105767500D01*
X104581499Y-105771945D01*
G37*
G36*
X89667499Y-105396445D02*
G01*
X89704995Y-105407820D01*
X89739554Y-105426292D01*
X89769847Y-105451153D01*
X89794708Y-105481446D01*
X89813180Y-105516005D01*
X89824555Y-105553501D01*
X89829000Y-105598638D01*
X89829000Y-106237362D01*
X89824555Y-106282499D01*
X89813180Y-106319995D01*
X89794708Y-106354554D01*
X89769847Y-106384847D01*
X89739554Y-106409708D01*
X89704995Y-106428180D01*
X89667499Y-106439555D01*
X89622362Y-106444000D01*
X88883638Y-106444000D01*
X88838501Y-106439555D01*
X88801005Y-106428180D01*
X88766446Y-106409708D01*
X88736153Y-106384847D01*
X88711292Y-106354554D01*
X88692820Y-106319995D01*
X88681445Y-106282499D01*
X88677000Y-106237362D01*
X88677000Y-105598638D01*
X88681445Y-105553501D01*
X88692820Y-105516005D01*
X88711292Y-105481446D01*
X88736153Y-105451153D01*
X88766446Y-105426292D01*
X88801005Y-105407820D01*
X88838501Y-105396445D01*
X88883638Y-105392000D01*
X89622362Y-105392000D01*
X89667499Y-105396445D01*
G37*
G36*
X87917499Y-105396445D02*
G01*
X87954995Y-105407820D01*
X87989554Y-105426292D01*
X88019847Y-105451153D01*
X88044708Y-105481446D01*
X88063180Y-105516005D01*
X88074555Y-105553501D01*
X88079000Y-105598638D01*
X88079000Y-106237362D01*
X88074555Y-106282499D01*
X88063180Y-106319995D01*
X88044708Y-106354554D01*
X88019847Y-106384847D01*
X87989554Y-106409708D01*
X87954995Y-106428180D01*
X87917499Y-106439555D01*
X87872362Y-106444000D01*
X87133638Y-106444000D01*
X87088501Y-106439555D01*
X87051005Y-106428180D01*
X87016446Y-106409708D01*
X86986153Y-106384847D01*
X86961292Y-106354554D01*
X86942820Y-106319995D01*
X86931445Y-106282499D01*
X86927000Y-106237362D01*
X86927000Y-105598638D01*
X86931445Y-105553501D01*
X86942820Y-105516005D01*
X86961292Y-105481446D01*
X86986153Y-105451153D01*
X87016446Y-105426292D01*
X87051005Y-105407820D01*
X87088501Y-105396445D01*
X87133638Y-105392000D01*
X87872362Y-105392000D01*
X87917499Y-105396445D01*
G37*
G36*
X86306000Y-105946000D02*
G01*
X84204000Y-105946000D01*
X84204000Y-104944000D01*
X86306000Y-104944000D01*
X86306000Y-105946000D01*
G37*
G36*
X86306000Y-104676000D02*
G01*
X84204000Y-104676000D01*
X84204000Y-103674000D01*
X86306000Y-103674000D01*
X86306000Y-104676000D01*
G37*
G36*
X77796000Y-104551000D02*
G01*
X72694000Y-104551000D01*
X72694000Y-99449000D01*
X77796000Y-99449000D01*
X77796000Y-104551000D01*
G37*
G36*
X107722000Y-101262501D02*
G01*
X107724402Y-101286887D01*
X107731515Y-101310336D01*
X107743066Y-101331947D01*
X107758611Y-101350889D01*
X107777553Y-101366434D01*
X107799164Y-101377985D01*
X107822613Y-101385098D01*
X107846999Y-101387500D01*
X107884500Y-101387500D01*
X107884500Y-103239500D01*
X107796999Y-103239500D01*
X107772613Y-103241902D01*
X107749164Y-103249015D01*
X107727553Y-103260566D01*
X107708611Y-103276111D01*
X107693066Y-103295053D01*
X107681515Y-103316664D01*
X107674402Y-103340113D01*
X107672000Y-103364499D01*
X107672000Y-104265000D01*
X102744000Y-104265000D01*
X102744000Y-103364499D01*
X102741598Y-103340113D01*
X102734485Y-103316664D01*
X102722934Y-103295053D01*
X102707389Y-103276111D01*
X102688447Y-103260566D01*
X102666836Y-103249015D01*
X102643387Y-103241902D01*
X102619001Y-103239500D01*
X102581500Y-103239500D01*
X102581500Y-101387500D01*
X102682001Y-101387500D01*
X102706387Y-101385098D01*
X102729836Y-101377985D01*
X102751447Y-101366434D01*
X102770389Y-101350889D01*
X102785934Y-101331947D01*
X102797485Y-101310336D01*
X102804598Y-101286887D01*
X102806753Y-101264999D01*
X103258500Y-101264999D01*
X103258500Y-103363001D01*
X103260902Y-103387387D01*
X103268015Y-103410836D01*
X103279566Y-103432447D01*
X103295111Y-103451389D01*
X103314053Y-103466934D01*
X103335664Y-103478485D01*
X103359113Y-103485598D01*
X103383499Y-103488000D01*
X107082501Y-103488000D01*
X107106887Y-103485598D01*
X107130336Y-103478485D01*
X107151947Y-103466934D01*
X107170889Y-103451389D01*
X107186434Y-103432447D01*
X107197985Y-103410836D01*
X107205098Y-103387387D01*
X107207500Y-103363001D01*
X107207500Y-101264999D01*
X107205098Y-101240613D01*
X107197985Y-101217164D01*
X107186434Y-101195553D01*
X107170889Y-101176611D01*
X107151947Y-101161066D01*
X107130336Y-101149515D01*
X107106887Y-101142402D01*
X107082501Y-101140000D01*
X103383499Y-101140000D01*
X103359113Y-101142402D01*
X103335664Y-101149515D01*
X103314053Y-101161066D01*
X103295111Y-101176611D01*
X103279566Y-101195553D01*
X103268015Y-101217164D01*
X103260902Y-101240613D01*
X103258500Y-101264999D01*
X102806753Y-101264999D01*
X102807000Y-101262501D01*
X102807000Y-100363000D01*
X107722000Y-100363000D01*
X107722000Y-101262501D01*
G37*
G36*
X99755499Y-103090945D02*
G01*
X99792995Y-103102320D01*
X99827554Y-103120792D01*
X99857847Y-103145653D01*
X99882708Y-103175946D01*
X99901180Y-103210505D01*
X99912555Y-103248001D01*
X99917000Y-103293138D01*
X99917000Y-104031862D01*
X99912555Y-104076999D01*
X99901180Y-104114495D01*
X99882708Y-104149054D01*
X99857847Y-104179347D01*
X99827554Y-104204208D01*
X99792995Y-104222680D01*
X99755499Y-104234055D01*
X99710362Y-104238500D01*
X99071638Y-104238500D01*
X99026501Y-104234055D01*
X98989005Y-104222680D01*
X98954446Y-104204208D01*
X98924153Y-104179347D01*
X98899292Y-104149054D01*
X98880820Y-104114495D01*
X98869445Y-104076999D01*
X98865000Y-104031862D01*
X98865000Y-103293138D01*
X98869445Y-103248001D01*
X98880820Y-103210505D01*
X98899292Y-103175946D01*
X98924153Y-103145653D01*
X98954446Y-103120792D01*
X98989005Y-103102320D01*
X99026501Y-103090945D01*
X99071638Y-103086500D01*
X99710362Y-103086500D01*
X99755499Y-103090945D01*
G37*
G36*
X91426512Y-102354927D02*
G01*
X91575812Y-102384624D01*
X91739784Y-102452544D01*
X91887354Y-102551147D01*
X92012853Y-102676646D01*
X92111456Y-102824216D01*
X92179376Y-102988188D01*
X92214000Y-103162259D01*
X92214000Y-103339741D01*
X92179376Y-103513812D01*
X92111456Y-103677784D01*
X92012853Y-103825354D01*
X91887354Y-103950853D01*
X91739784Y-104049456D01*
X91575812Y-104117376D01*
X91426512Y-104147073D01*
X91401742Y-104152000D01*
X91224258Y-104152000D01*
X91199488Y-104147073D01*
X91050188Y-104117376D01*
X90886216Y-104049456D01*
X90738646Y-103950853D01*
X90613147Y-103825354D01*
X90514544Y-103677784D01*
X90446624Y-103513812D01*
X90412000Y-103339741D01*
X90412000Y-103162259D01*
X90446624Y-102988188D01*
X90514544Y-102824216D01*
X90613147Y-102676646D01*
X90738646Y-102551147D01*
X90886216Y-102452544D01*
X91050188Y-102384624D01*
X91199488Y-102354927D01*
X91224258Y-102350000D01*
X91401742Y-102350000D01*
X91426512Y-102354927D01*
G37*
G36*
X88886512Y-102354927D02*
G01*
X89035812Y-102384624D01*
X89199784Y-102452544D01*
X89347354Y-102551147D01*
X89472853Y-102676646D01*
X89571456Y-102824216D01*
X89639376Y-102988188D01*
X89674000Y-103162259D01*
X89674000Y-103339741D01*
X89639376Y-103513812D01*
X89571456Y-103677784D01*
X89472853Y-103825354D01*
X89347354Y-103950853D01*
X89199784Y-104049456D01*
X89035812Y-104117376D01*
X88886512Y-104147073D01*
X88861742Y-104152000D01*
X88684258Y-104152000D01*
X88659488Y-104147073D01*
X88510188Y-104117376D01*
X88346216Y-104049456D01*
X88198646Y-103950853D01*
X88073147Y-103825354D01*
X87974544Y-103677784D01*
X87906624Y-103513812D01*
X87872000Y-103339741D01*
X87872000Y-103162259D01*
X87906624Y-102988188D01*
X87974544Y-102824216D01*
X88073147Y-102676646D01*
X88198646Y-102551147D01*
X88346216Y-102452544D01*
X88510188Y-102384624D01*
X88659488Y-102354927D01*
X88684258Y-102350000D01*
X88861742Y-102350000D01*
X88886512Y-102354927D01*
G37*
G36*
X86306000Y-103406000D02*
G01*
X84204000Y-103406000D01*
X84204000Y-102404000D01*
X86306000Y-102404000D01*
X86306000Y-103406000D01*
G37*
G36*
X99755499Y-101340945D02*
G01*
X99792995Y-101352320D01*
X99827554Y-101370792D01*
X99857847Y-101395653D01*
X99882708Y-101425946D01*
X99901180Y-101460505D01*
X99912555Y-101498001D01*
X99917000Y-101543138D01*
X99917000Y-102281862D01*
X99912555Y-102326999D01*
X99901180Y-102364495D01*
X99882708Y-102399054D01*
X99857847Y-102429347D01*
X99827554Y-102454208D01*
X99792995Y-102472680D01*
X99755499Y-102484055D01*
X99710362Y-102488500D01*
X99071638Y-102488500D01*
X99026501Y-102484055D01*
X98989005Y-102472680D01*
X98954446Y-102454208D01*
X98924153Y-102429347D01*
X98899292Y-102399054D01*
X98880820Y-102364495D01*
X98869445Y-102326999D01*
X98865000Y-102281862D01*
X98865000Y-101543138D01*
X98869445Y-101498001D01*
X98880820Y-101460505D01*
X98899292Y-101425946D01*
X98924153Y-101395653D01*
X98954446Y-101370792D01*
X98989005Y-101352320D01*
X99026501Y-101340945D01*
X99071638Y-101336500D01*
X99710362Y-101336500D01*
X99755499Y-101340945D01*
G37*
G36*
X86306000Y-102136000D02*
G01*
X84204000Y-102136000D01*
X84204000Y-101134000D01*
X86306000Y-101134000D01*
X86306000Y-102136000D01*
G37*
G36*
X88886512Y-99814927D02*
G01*
X89035812Y-99844624D01*
X89199784Y-99912544D01*
X89347354Y-100011147D01*
X89472853Y-100136646D01*
X89571456Y-100284216D01*
X89639376Y-100448188D01*
X89674000Y-100622259D01*
X89674000Y-100799741D01*
X89639376Y-100973812D01*
X89571456Y-101137784D01*
X89472853Y-101285354D01*
X89347354Y-101410853D01*
X89199784Y-101509456D01*
X89035812Y-101577376D01*
X88886512Y-101607073D01*
X88861742Y-101612000D01*
X88684258Y-101612000D01*
X88659488Y-101607073D01*
X88510188Y-101577376D01*
X88346216Y-101509456D01*
X88198646Y-101410853D01*
X88073147Y-101285354D01*
X87974544Y-101137784D01*
X87906624Y-100973812D01*
X87872000Y-100799741D01*
X87872000Y-100622259D01*
X87906624Y-100448188D01*
X87974544Y-100284216D01*
X88073147Y-100136646D01*
X88198646Y-100011147D01*
X88346216Y-99912544D01*
X88510188Y-99844624D01*
X88659488Y-99814927D01*
X88684258Y-99810000D01*
X88861742Y-99810000D01*
X88886512Y-99814927D01*
G37*
G36*
X91426512Y-99814927D02*
G01*
X91575812Y-99844624D01*
X91739784Y-99912544D01*
X91887354Y-100011147D01*
X92012853Y-100136646D01*
X92111456Y-100284216D01*
X92179376Y-100448188D01*
X92214000Y-100622259D01*
X92214000Y-100799741D01*
X92179376Y-100973812D01*
X92111456Y-101137784D01*
X92012853Y-101285354D01*
X91887354Y-101410853D01*
X91739784Y-101509456D01*
X91575812Y-101577376D01*
X91426512Y-101607073D01*
X91401742Y-101612000D01*
X91224258Y-101612000D01*
X91199488Y-101607073D01*
X91050188Y-101577376D01*
X90886216Y-101509456D01*
X90738646Y-101410853D01*
X90613147Y-101285354D01*
X90514544Y-101137784D01*
X90446624Y-100973812D01*
X90412000Y-100799741D01*
X90412000Y-100622259D01*
X90446624Y-100448188D01*
X90514544Y-100284216D01*
X90613147Y-100136646D01*
X90738646Y-100011147D01*
X90886216Y-99912544D01*
X91050188Y-99844624D01*
X91199488Y-99814927D01*
X91224258Y-99810000D01*
X91401742Y-99810000D01*
X91426512Y-99814927D01*
G37*
G36*
X86306000Y-100866000D02*
G01*
X84204000Y-100866000D01*
X84204000Y-99864000D01*
X86306000Y-99864000D01*
X86306000Y-100866000D01*
G37*
G36*
X113267499Y-99504445D02*
G01*
X113304995Y-99515820D01*
X113339554Y-99534292D01*
X113369847Y-99559153D01*
X113394708Y-99589446D01*
X113413180Y-99624005D01*
X113424555Y-99661501D01*
X113429000Y-99706638D01*
X113429000Y-100445362D01*
X113424555Y-100490499D01*
X113413180Y-100527995D01*
X113394708Y-100562554D01*
X113369847Y-100592847D01*
X113339554Y-100617708D01*
X113304995Y-100636180D01*
X113267499Y-100647555D01*
X113222362Y-100652000D01*
X112583638Y-100652000D01*
X112538501Y-100647555D01*
X112501005Y-100636180D01*
X112466446Y-100617708D01*
X112436153Y-100592847D01*
X112411292Y-100562554D01*
X112392820Y-100527995D01*
X112381445Y-100490499D01*
X112377000Y-100445362D01*
X112377000Y-99706638D01*
X112381445Y-99661501D01*
X112392820Y-99624005D01*
X112411292Y-99589446D01*
X112436153Y-99559153D01*
X112466446Y-99534292D01*
X112501005Y-99515820D01*
X112538501Y-99504445D01*
X112583638Y-99500000D01*
X113222362Y-99500000D01*
X113267499Y-99504445D01*
G37*
G36*
X96532000Y-100596000D02*
G01*
X94730000Y-100596000D01*
X94730000Y-98794000D01*
X96532000Y-98794000D01*
X96532000Y-100596000D01*
G37*
G36*
X111743499Y-98982445D02*
G01*
X111780995Y-98993820D01*
X111815554Y-99012292D01*
X111845847Y-99037153D01*
X111870708Y-99067446D01*
X111889180Y-99102005D01*
X111900555Y-99139501D01*
X111905000Y-99184638D01*
X111905000Y-99923362D01*
X111900555Y-99968499D01*
X111889180Y-100005995D01*
X111870708Y-100040554D01*
X111845847Y-100070847D01*
X111815554Y-100095708D01*
X111780995Y-100114180D01*
X111743499Y-100125555D01*
X111698362Y-100130000D01*
X111059638Y-100130000D01*
X111014501Y-100125555D01*
X110977005Y-100114180D01*
X110942446Y-100095708D01*
X110912153Y-100070847D01*
X110887292Y-100040554D01*
X110868820Y-100005995D01*
X110857445Y-99968499D01*
X110853000Y-99923362D01*
X110853000Y-99184638D01*
X110857445Y-99139501D01*
X110868820Y-99102005D01*
X110887292Y-99067446D01*
X110912153Y-99037153D01*
X110942446Y-99012292D01*
X110977005Y-98993820D01*
X111014501Y-98982445D01*
X111059638Y-98978000D01*
X111698362Y-98978000D01*
X111743499Y-98982445D01*
G37*
G36*
X86306000Y-99596000D02*
G01*
X84204000Y-99596000D01*
X84204000Y-98594000D01*
X86306000Y-98594000D01*
X86306000Y-99596000D01*
G37*
G36*
X99755499Y-98010945D02*
G01*
X99792995Y-98022320D01*
X99827554Y-98040792D01*
X99857847Y-98065653D01*
X99882708Y-98095946D01*
X99901180Y-98130505D01*
X99912555Y-98168001D01*
X99917000Y-98213138D01*
X99917000Y-98951862D01*
X99912555Y-98996999D01*
X99901180Y-99034495D01*
X99882708Y-99069054D01*
X99857847Y-99099347D01*
X99827554Y-99124208D01*
X99792995Y-99142680D01*
X99755499Y-99154055D01*
X99710362Y-99158500D01*
X99071638Y-99158500D01*
X99026501Y-99154055D01*
X98989005Y-99142680D01*
X98954446Y-99124208D01*
X98924153Y-99099347D01*
X98899292Y-99069054D01*
X98880820Y-99034495D01*
X98869445Y-98996999D01*
X98865000Y-98951862D01*
X98865000Y-98213138D01*
X98869445Y-98168001D01*
X98880820Y-98130505D01*
X98899292Y-98095946D01*
X98924153Y-98065653D01*
X98954446Y-98040792D01*
X98989005Y-98022320D01*
X99026501Y-98010945D01*
X99071638Y-98006500D01*
X99710362Y-98006500D01*
X99755499Y-98010945D01*
G37*
G36*
X108187499Y-97996945D02*
G01*
X108224995Y-98008320D01*
X108259554Y-98026792D01*
X108289847Y-98051653D01*
X108314708Y-98081946D01*
X108333180Y-98116505D01*
X108344555Y-98154001D01*
X108349000Y-98199138D01*
X108349000Y-98937862D01*
X108344555Y-98982999D01*
X108333180Y-99020495D01*
X108314708Y-99055054D01*
X108289847Y-99085347D01*
X108259554Y-99110208D01*
X108224995Y-99128680D01*
X108187499Y-99140055D01*
X108142362Y-99144500D01*
X107503638Y-99144500D01*
X107458501Y-99140055D01*
X107421005Y-99128680D01*
X107386446Y-99110208D01*
X107356153Y-99085347D01*
X107331292Y-99055054D01*
X107312820Y-99020495D01*
X107301445Y-98982999D01*
X107297000Y-98937862D01*
X107297000Y-98199138D01*
X107301445Y-98154001D01*
X107312820Y-98116505D01*
X107331292Y-98081946D01*
X107356153Y-98051653D01*
X107386446Y-98026792D01*
X107421005Y-98008320D01*
X107458501Y-97996945D01*
X107503638Y-97992500D01*
X108142362Y-97992500D01*
X108187499Y-97996945D01*
G37*
G36*
X102549499Y-97996945D02*
G01*
X102586995Y-98008320D01*
X102621554Y-98026792D01*
X102651847Y-98051653D01*
X102676708Y-98081946D01*
X102695180Y-98116505D01*
X102706555Y-98154001D01*
X102711000Y-98199138D01*
X102711000Y-98937862D01*
X102706555Y-98982999D01*
X102695180Y-99020495D01*
X102676708Y-99055054D01*
X102651847Y-99085347D01*
X102621554Y-99110208D01*
X102586995Y-99128680D01*
X102549499Y-99140055D01*
X102504362Y-99144500D01*
X101865638Y-99144500D01*
X101820501Y-99140055D01*
X101783005Y-99128680D01*
X101748446Y-99110208D01*
X101718153Y-99085347D01*
X101693292Y-99055054D01*
X101674820Y-99020495D01*
X101663445Y-98982999D01*
X101659000Y-98937862D01*
X101659000Y-98199138D01*
X101663445Y-98154001D01*
X101674820Y-98116505D01*
X101693292Y-98081946D01*
X101718153Y-98051653D01*
X101748446Y-98026792D01*
X101783005Y-98008320D01*
X101820501Y-97996945D01*
X101865638Y-97992500D01*
X102504362Y-97992500D01*
X102549499Y-97996945D01*
G37*
G36*
X91404230Y-97270495D02*
G01*
X91575812Y-97304624D01*
X91739784Y-97372544D01*
X91887354Y-97471147D01*
X92012853Y-97596646D01*
X92111456Y-97744216D01*
X92179376Y-97908188D01*
X92214000Y-98082259D01*
X92214000Y-98259741D01*
X92179376Y-98433812D01*
X92111456Y-98597784D01*
X92012853Y-98745354D01*
X91887354Y-98870853D01*
X91739784Y-98969456D01*
X91575812Y-99037376D01*
X91426512Y-99067073D01*
X91401742Y-99072000D01*
X91224258Y-99072000D01*
X91199488Y-99067073D01*
X91050188Y-99037376D01*
X90886216Y-98969456D01*
X90738646Y-98870853D01*
X90613147Y-98745354D01*
X90514544Y-98597784D01*
X90446624Y-98433812D01*
X90412000Y-98259741D01*
X90412000Y-98082259D01*
X90446624Y-97908188D01*
X90514544Y-97744216D01*
X90613147Y-97596646D01*
X90738646Y-97471147D01*
X90886216Y-97372544D01*
X91050188Y-97304624D01*
X91221770Y-97270495D01*
X91224258Y-97270000D01*
X91401742Y-97270000D01*
X91404230Y-97270495D01*
G37*
G36*
X88864230Y-97270495D02*
G01*
X89035812Y-97304624D01*
X89199784Y-97372544D01*
X89347354Y-97471147D01*
X89472853Y-97596646D01*
X89571456Y-97744216D01*
X89639376Y-97908188D01*
X89674000Y-98082259D01*
X89674000Y-98259741D01*
X89639376Y-98433812D01*
X89571456Y-98597784D01*
X89472853Y-98745354D01*
X89347354Y-98870853D01*
X89199784Y-98969456D01*
X89035812Y-99037376D01*
X88886512Y-99067073D01*
X88861742Y-99072000D01*
X88684258Y-99072000D01*
X88659488Y-99067073D01*
X88510188Y-99037376D01*
X88346216Y-98969456D01*
X88198646Y-98870853D01*
X88073147Y-98745354D01*
X87974544Y-98597784D01*
X87906624Y-98433812D01*
X87872000Y-98259741D01*
X87872000Y-98082259D01*
X87906624Y-97908188D01*
X87974544Y-97744216D01*
X88073147Y-97596646D01*
X88198646Y-97471147D01*
X88346216Y-97372544D01*
X88510188Y-97304624D01*
X88681770Y-97270495D01*
X88684258Y-97270000D01*
X88861742Y-97270000D01*
X88864230Y-97270495D01*
G37*
G36*
X113267499Y-97754445D02*
G01*
X113304995Y-97765820D01*
X113339554Y-97784292D01*
X113369847Y-97809153D01*
X113394708Y-97839446D01*
X113413180Y-97874005D01*
X113424555Y-97911501D01*
X113429000Y-97956638D01*
X113429000Y-98695362D01*
X113424555Y-98740499D01*
X113413180Y-98777995D01*
X113394708Y-98812554D01*
X113369847Y-98842847D01*
X113339554Y-98867708D01*
X113304995Y-98886180D01*
X113267499Y-98897555D01*
X113222362Y-98902000D01*
X112583638Y-98902000D01*
X112538501Y-98897555D01*
X112501005Y-98886180D01*
X112466446Y-98867708D01*
X112436153Y-98842847D01*
X112411292Y-98812554D01*
X112392820Y-98777995D01*
X112381445Y-98740499D01*
X112377000Y-98695362D01*
X112377000Y-97956638D01*
X112381445Y-97911501D01*
X112392820Y-97874005D01*
X112411292Y-97839446D01*
X112436153Y-97809153D01*
X112466446Y-97784292D01*
X112501005Y-97765820D01*
X112538501Y-97754445D01*
X112583638Y-97750000D01*
X113222362Y-97750000D01*
X113267499Y-97754445D01*
G37*
G36*
X104310000Y-98741000D02*
G01*
X103208000Y-98741000D01*
X103208000Y-96839000D01*
X104310000Y-96839000D01*
X104310000Y-98741000D01*
G37*
G36*
X106810000Y-98741000D02*
G01*
X105708000Y-98741000D01*
X105708000Y-96839000D01*
X106810000Y-96839000D01*
X106810000Y-98741000D01*
G37*
G36*
X111743499Y-97232445D02*
G01*
X111780995Y-97243820D01*
X111815554Y-97262292D01*
X111845847Y-97287153D01*
X111870708Y-97317446D01*
X111889180Y-97352005D01*
X111900555Y-97389501D01*
X111905000Y-97434638D01*
X111905000Y-98173362D01*
X111900555Y-98218499D01*
X111889180Y-98255995D01*
X111870708Y-98290554D01*
X111845847Y-98320847D01*
X111815554Y-98345708D01*
X111780995Y-98364180D01*
X111743499Y-98375555D01*
X111698362Y-98380000D01*
X111059638Y-98380000D01*
X111014501Y-98375555D01*
X110977005Y-98364180D01*
X110942446Y-98345708D01*
X110912153Y-98320847D01*
X110887292Y-98290554D01*
X110868820Y-98255995D01*
X110857445Y-98218499D01*
X110853000Y-98173362D01*
X110853000Y-97434638D01*
X110857445Y-97389501D01*
X110868820Y-97352005D01*
X110887292Y-97317446D01*
X110912153Y-97287153D01*
X110942446Y-97262292D01*
X110977005Y-97243820D01*
X111014501Y-97232445D01*
X111059638Y-97228000D01*
X111698362Y-97228000D01*
X111743499Y-97232445D01*
G37*
G36*
X86306000Y-98326000D02*
G01*
X84204000Y-98326000D01*
X84204000Y-97324000D01*
X86306000Y-97324000D01*
X86306000Y-98326000D01*
G37*
G36*
X94471499Y-96428445D02*
G01*
X94508995Y-96439820D01*
X94543554Y-96458292D01*
X94573847Y-96483153D01*
X94598708Y-96513446D01*
X94617180Y-96548005D01*
X94628555Y-96585501D01*
X94633000Y-96630638D01*
X94633000Y-97369362D01*
X94628555Y-97414499D01*
X94617180Y-97451995D01*
X94598708Y-97486554D01*
X94573847Y-97516847D01*
X94543554Y-97541708D01*
X94508995Y-97560180D01*
X94471499Y-97571555D01*
X94426362Y-97576000D01*
X93787638Y-97576000D01*
X93742501Y-97571555D01*
X93705005Y-97560180D01*
X93670446Y-97541708D01*
X93640153Y-97516847D01*
X93615292Y-97486554D01*
X93596820Y-97451995D01*
X93585445Y-97414499D01*
X93581000Y-97369362D01*
X93581000Y-96630638D01*
X93585445Y-96585501D01*
X93596820Y-96548005D01*
X93615292Y-96513446D01*
X93640153Y-96483153D01*
X93670446Y-96458292D01*
X93705005Y-96439820D01*
X93742501Y-96428445D01*
X93787638Y-96424000D01*
X94426362Y-96424000D01*
X94471499Y-96428445D01*
G37*
G36*
X99755499Y-96260945D02*
G01*
X99792995Y-96272320D01*
X99827554Y-96290792D01*
X99857847Y-96315653D01*
X99882708Y-96345946D01*
X99901180Y-96380505D01*
X99912555Y-96418001D01*
X99917000Y-96463138D01*
X99917000Y-97201862D01*
X99912555Y-97246999D01*
X99901180Y-97284495D01*
X99882708Y-97319054D01*
X99857847Y-97349347D01*
X99827554Y-97374208D01*
X99792995Y-97392680D01*
X99755499Y-97404055D01*
X99710362Y-97408500D01*
X99071638Y-97408500D01*
X99026501Y-97404055D01*
X98989005Y-97392680D01*
X98954446Y-97374208D01*
X98924153Y-97349347D01*
X98899292Y-97319054D01*
X98880820Y-97284495D01*
X98869445Y-97246999D01*
X98865000Y-97201862D01*
X98865000Y-96463138D01*
X98869445Y-96418001D01*
X98880820Y-96380505D01*
X98899292Y-96345946D01*
X98924153Y-96315653D01*
X98954446Y-96290792D01*
X98989005Y-96272320D01*
X99026501Y-96260945D01*
X99071638Y-96256500D01*
X99710362Y-96256500D01*
X99755499Y-96260945D01*
G37*
G36*
X108187499Y-96246945D02*
G01*
X108224995Y-96258320D01*
X108259554Y-96276792D01*
X108289847Y-96301653D01*
X108314708Y-96331946D01*
X108333180Y-96366505D01*
X108344555Y-96404001D01*
X108349000Y-96449138D01*
X108349000Y-97187862D01*
X108344555Y-97232999D01*
X108333180Y-97270495D01*
X108314708Y-97305054D01*
X108289847Y-97335347D01*
X108259554Y-97360208D01*
X108224995Y-97378680D01*
X108187499Y-97390055D01*
X108142362Y-97394500D01*
X107503638Y-97394500D01*
X107458501Y-97390055D01*
X107421005Y-97378680D01*
X107386446Y-97360208D01*
X107356153Y-97335347D01*
X107331292Y-97305054D01*
X107312820Y-97270495D01*
X107301445Y-97232999D01*
X107297000Y-97187862D01*
X107297000Y-96449138D01*
X107301445Y-96404001D01*
X107312820Y-96366505D01*
X107331292Y-96331946D01*
X107356153Y-96301653D01*
X107386446Y-96276792D01*
X107421005Y-96258320D01*
X107458501Y-96246945D01*
X107503638Y-96242500D01*
X108142362Y-96242500D01*
X108187499Y-96246945D01*
G37*
G36*
X102549499Y-96246945D02*
G01*
X102586995Y-96258320D01*
X102621554Y-96276792D01*
X102651847Y-96301653D01*
X102676708Y-96331946D01*
X102695180Y-96366505D01*
X102706555Y-96404001D01*
X102711000Y-96449138D01*
X102711000Y-97187862D01*
X102706555Y-97232999D01*
X102695180Y-97270495D01*
X102676708Y-97305054D01*
X102651847Y-97335347D01*
X102621554Y-97360208D01*
X102586995Y-97378680D01*
X102549499Y-97390055D01*
X102504362Y-97394500D01*
X101865638Y-97394500D01*
X101820501Y-97390055D01*
X101783005Y-97378680D01*
X101748446Y-97360208D01*
X101718153Y-97335347D01*
X101693292Y-97305054D01*
X101674820Y-97270495D01*
X101663445Y-97232999D01*
X101659000Y-97187862D01*
X101659000Y-96449138D01*
X101663445Y-96404001D01*
X101674820Y-96366505D01*
X101693292Y-96331946D01*
X101718153Y-96301653D01*
X101748446Y-96276792D01*
X101783005Y-96258320D01*
X101820501Y-96246945D01*
X101865638Y-96242500D01*
X102504362Y-96242500D01*
X102549499Y-96246945D01*
G37*
G36*
X86306000Y-97056000D02*
G01*
X84204000Y-97056000D01*
X84204000Y-96054000D01*
X86306000Y-96054000D01*
X86306000Y-97056000D01*
G37*
G36*
X88877593Y-94733153D02*
G01*
X89035812Y-94764624D01*
X89199784Y-94832544D01*
X89347354Y-94931147D01*
X89472853Y-95056646D01*
X89571456Y-95204216D01*
X89639376Y-95368188D01*
X89674000Y-95542259D01*
X89674000Y-95719741D01*
X89639376Y-95893812D01*
X89571456Y-96057784D01*
X89472853Y-96205354D01*
X89347354Y-96330853D01*
X89199784Y-96429456D01*
X89035812Y-96497376D01*
X88886512Y-96527073D01*
X88861742Y-96532000D01*
X88684258Y-96532000D01*
X88659488Y-96527073D01*
X88510188Y-96497376D01*
X88346216Y-96429456D01*
X88198646Y-96330853D01*
X88073147Y-96205354D01*
X87974544Y-96057784D01*
X87906624Y-95893812D01*
X87872000Y-95719741D01*
X87872000Y-95542259D01*
X87906624Y-95368188D01*
X87974544Y-95204216D01*
X88073147Y-95056646D01*
X88198646Y-94931147D01*
X88346216Y-94832544D01*
X88510188Y-94764624D01*
X88668407Y-94733153D01*
X88684258Y-94730000D01*
X88861742Y-94730000D01*
X88877593Y-94733153D01*
G37*
G36*
X91417593Y-94733153D02*
G01*
X91575812Y-94764624D01*
X91739784Y-94832544D01*
X91887354Y-94931147D01*
X92012853Y-95056646D01*
X92111456Y-95204216D01*
X92179376Y-95368188D01*
X92214000Y-95542259D01*
X92214000Y-95719741D01*
X92179376Y-95893812D01*
X92111456Y-96057784D01*
X92012853Y-96205354D01*
X91887354Y-96330853D01*
X91739784Y-96429456D01*
X91575812Y-96497376D01*
X91426512Y-96527073D01*
X91401742Y-96532000D01*
X91224258Y-96532000D01*
X91199488Y-96527073D01*
X91050188Y-96497376D01*
X90886216Y-96429456D01*
X90738646Y-96330853D01*
X90613147Y-96205354D01*
X90514544Y-96057784D01*
X90446624Y-95893812D01*
X90412000Y-95719741D01*
X90412000Y-95542259D01*
X90446624Y-95368188D01*
X90514544Y-95204216D01*
X90613147Y-95056646D01*
X90738646Y-94931147D01*
X90886216Y-94832544D01*
X91050188Y-94764624D01*
X91208407Y-94733153D01*
X91224258Y-94730000D01*
X91401742Y-94730000D01*
X91417593Y-94733153D01*
G37*
G36*
X94471499Y-94678445D02*
G01*
X94508995Y-94689820D01*
X94543554Y-94708292D01*
X94573847Y-94733153D01*
X94598708Y-94763446D01*
X94617180Y-94798005D01*
X94628555Y-94835501D01*
X94633000Y-94880638D01*
X94633000Y-95619362D01*
X94628555Y-95664499D01*
X94617180Y-95701995D01*
X94598708Y-95736554D01*
X94573847Y-95766847D01*
X94543554Y-95791708D01*
X94508995Y-95810180D01*
X94471499Y-95821555D01*
X94426362Y-95826000D01*
X93787638Y-95826000D01*
X93742501Y-95821555D01*
X93705005Y-95810180D01*
X93670446Y-95791708D01*
X93640153Y-95766847D01*
X93615292Y-95736554D01*
X93596820Y-95701995D01*
X93585445Y-95664499D01*
X93581000Y-95619362D01*
X93581000Y-94880638D01*
X93585445Y-94835501D01*
X93596820Y-94798005D01*
X93615292Y-94763446D01*
X93640153Y-94733153D01*
X93670446Y-94708292D01*
X93705005Y-94689820D01*
X93742501Y-94678445D01*
X93787638Y-94674000D01*
X94426362Y-94674000D01*
X94471499Y-94678445D01*
G37*
G36*
X86306000Y-95786000D02*
G01*
X84204000Y-95786000D01*
X84204000Y-94784000D01*
X86306000Y-94784000D01*
X86306000Y-95786000D01*
G37*
G36*
X91426512Y-92194927D02*
G01*
X91575812Y-92224624D01*
X91739784Y-92292544D01*
X91887354Y-92391147D01*
X92012853Y-92516646D01*
X92111456Y-92664216D01*
X92179376Y-92828188D01*
X92209073Y-92977488D01*
X92214000Y-93002258D01*
X92214000Y-93179742D01*
X92212386Y-93187854D01*
X92179376Y-93353812D01*
X92111456Y-93517784D01*
X92012853Y-93665354D01*
X91887354Y-93790853D01*
X91739784Y-93889456D01*
X91575812Y-93957376D01*
X91426512Y-93987073D01*
X91401742Y-93992000D01*
X91224258Y-93992000D01*
X91199488Y-93987073D01*
X91050188Y-93957376D01*
X90886216Y-93889456D01*
X90738646Y-93790853D01*
X90613147Y-93665354D01*
X90514544Y-93517784D01*
X90446624Y-93353812D01*
X90413614Y-93187854D01*
X90412000Y-93179742D01*
X90412000Y-93002258D01*
X90416927Y-92977488D01*
X90446624Y-92828188D01*
X90514544Y-92664216D01*
X90613147Y-92516646D01*
X90738646Y-92391147D01*
X90886216Y-92292544D01*
X91050188Y-92224624D01*
X91199488Y-92194927D01*
X91224258Y-92190000D01*
X91401742Y-92190000D01*
X91426512Y-92194927D01*
G37*
G36*
X89674000Y-93992000D02*
G01*
X87872000Y-93992000D01*
X87872000Y-92190000D01*
X89674000Y-92190000D01*
X89674000Y-93992000D01*
G37*
G36*
X69516000Y-93551000D02*
G01*
X68514000Y-93551000D01*
X68514000Y-91449000D01*
X69516000Y-91449000D01*
X69516000Y-93551000D01*
G37*
G36*
X82216000Y-93551000D02*
G01*
X81214000Y-93551000D01*
X81214000Y-91449000D01*
X82216000Y-91449000D01*
X82216000Y-93551000D01*
G37*
G36*
X83486000Y-93551000D02*
G01*
X82484000Y-93551000D01*
X82484000Y-91449000D01*
X83486000Y-91449000D01*
X83486000Y-93551000D01*
G37*
G36*
X84756000Y-93551000D02*
G01*
X83754000Y-93551000D01*
X83754000Y-91449000D01*
X84756000Y-91449000D01*
X84756000Y-93551000D01*
G37*
G36*
X79676000Y-93551000D02*
G01*
X78674000Y-93551000D01*
X78674000Y-91449000D01*
X79676000Y-91449000D01*
X79676000Y-93551000D01*
G37*
G36*
X80946000Y-93551000D02*
G01*
X79944000Y-93551000D01*
X79944000Y-91449000D01*
X80946000Y-91449000D01*
X80946000Y-93551000D01*
G37*
G36*
X77136000Y-93551000D02*
G01*
X76134000Y-93551000D01*
X76134000Y-91449000D01*
X77136000Y-91449000D01*
X77136000Y-93551000D01*
G37*
G36*
X74596000Y-93551000D02*
G01*
X73594000Y-93551000D01*
X73594000Y-91449000D01*
X74596000Y-91449000D01*
X74596000Y-93551000D01*
G37*
G36*
X73326000Y-93551000D02*
G01*
X72324000Y-93551000D01*
X72324000Y-91449000D01*
X73326000Y-91449000D01*
X73326000Y-93551000D01*
G37*
G36*
X72056000Y-93551000D02*
G01*
X71054000Y-93551000D01*
X71054000Y-91449000D01*
X72056000Y-91449000D01*
X72056000Y-93551000D01*
G37*
G36*
X70786000Y-93551000D02*
G01*
X69784000Y-93551000D01*
X69784000Y-91449000D01*
X70786000Y-91449000D01*
X70786000Y-93551000D01*
G37*
G36*
X78406000Y-93551000D02*
G01*
X77404000Y-93551000D01*
X77404000Y-91449000D01*
X78406000Y-91449000D01*
X78406000Y-93551000D01*
G37*
G36*
X68246000Y-93551000D02*
G01*
X67244000Y-93551000D01*
X67244000Y-91449000D01*
X68246000Y-91449000D01*
X68246000Y-93551000D01*
G37*
G36*
X75866000Y-93551000D02*
G01*
X74864000Y-93551000D01*
X74864000Y-91449000D01*
X75866000Y-91449000D01*
X75866000Y-93551000D01*
G37*
G36*
X101028512Y-91717427D02*
G01*
X101177812Y-91747124D01*
X101341784Y-91815044D01*
X101489354Y-91913647D01*
X101614853Y-92039146D01*
X101713456Y-92186716D01*
X101781376Y-92350688D01*
X101811073Y-92499988D01*
X101814387Y-92516647D01*
X101816000Y-92524759D01*
X101816000Y-92702241D01*
X101781376Y-92876312D01*
X101713456Y-93040284D01*
X101614853Y-93187854D01*
X101489354Y-93313353D01*
X101341784Y-93411956D01*
X101177812Y-93479876D01*
X101028512Y-93509573D01*
X101003742Y-93514500D01*
X100826258Y-93514500D01*
X100801488Y-93509573D01*
X100652188Y-93479876D01*
X100488216Y-93411956D01*
X100340646Y-93313353D01*
X100215147Y-93187854D01*
X100116544Y-93040284D01*
X100048624Y-92876312D01*
X100014000Y-92702241D01*
X100014000Y-92524759D01*
X100015614Y-92516647D01*
X100018927Y-92499988D01*
X100048624Y-92350688D01*
X100116544Y-92186716D01*
X100215147Y-92039146D01*
X100340646Y-91913647D01*
X100488216Y-91815044D01*
X100652188Y-91747124D01*
X100801488Y-91717427D01*
X100826258Y-91712500D01*
X101003742Y-91712500D01*
X101028512Y-91717427D01*
G37*
G36*
X113728512Y-91717427D02*
G01*
X113877812Y-91747124D01*
X114041784Y-91815044D01*
X114189354Y-91913647D01*
X114314853Y-92039146D01*
X114413456Y-92186716D01*
X114481376Y-92350688D01*
X114511073Y-92499988D01*
X114514387Y-92516647D01*
X114516000Y-92524759D01*
X114516000Y-92702241D01*
X114481376Y-92876312D01*
X114413456Y-93040284D01*
X114314853Y-93187854D01*
X114189354Y-93313353D01*
X114041784Y-93411956D01*
X113877812Y-93479876D01*
X113728512Y-93509573D01*
X113703742Y-93514500D01*
X113526258Y-93514500D01*
X113501488Y-93509573D01*
X113352188Y-93479876D01*
X113188216Y-93411956D01*
X113040646Y-93313353D01*
X112915147Y-93187854D01*
X112816544Y-93040284D01*
X112748624Y-92876312D01*
X112714000Y-92702241D01*
X112714000Y-92524759D01*
X112715614Y-92516647D01*
X112718927Y-92499988D01*
X112748624Y-92350688D01*
X112816544Y-92186716D01*
X112915147Y-92039146D01*
X113040646Y-91913647D01*
X113188216Y-91815044D01*
X113352188Y-91747124D01*
X113501488Y-91717427D01*
X113526258Y-91712500D01*
X113703742Y-91712500D01*
X113728512Y-91717427D01*
G37*
G36*
X108648512Y-91717427D02*
G01*
X108797812Y-91747124D01*
X108961784Y-91815044D01*
X109109354Y-91913647D01*
X109234853Y-92039146D01*
X109333456Y-92186716D01*
X109401376Y-92350688D01*
X109431073Y-92499988D01*
X109434387Y-92516647D01*
X109436000Y-92524759D01*
X109436000Y-92702241D01*
X109401376Y-92876312D01*
X109333456Y-93040284D01*
X109234853Y-93187854D01*
X109109354Y-93313353D01*
X108961784Y-93411956D01*
X108797812Y-93479876D01*
X108648512Y-93509573D01*
X108623742Y-93514500D01*
X108446258Y-93514500D01*
X108421488Y-93509573D01*
X108272188Y-93479876D01*
X108108216Y-93411956D01*
X107960646Y-93313353D01*
X107835147Y-93187854D01*
X107736544Y-93040284D01*
X107668624Y-92876312D01*
X107634000Y-92702241D01*
X107634000Y-92524759D01*
X107635614Y-92516647D01*
X107638927Y-92499988D01*
X107668624Y-92350688D01*
X107736544Y-92186716D01*
X107835147Y-92039146D01*
X107960646Y-91913647D01*
X108108216Y-91815044D01*
X108272188Y-91747124D01*
X108421488Y-91717427D01*
X108446258Y-91712500D01*
X108623742Y-91712500D01*
X108648512Y-91717427D01*
G37*
G36*
X106108512Y-91717427D02*
G01*
X106257812Y-91747124D01*
X106421784Y-91815044D01*
X106569354Y-91913647D01*
X106694853Y-92039146D01*
X106793456Y-92186716D01*
X106861376Y-92350688D01*
X106891073Y-92499988D01*
X106894387Y-92516647D01*
X106896000Y-92524759D01*
X106896000Y-92702241D01*
X106861376Y-92876312D01*
X106793456Y-93040284D01*
X106694853Y-93187854D01*
X106569354Y-93313353D01*
X106421784Y-93411956D01*
X106257812Y-93479876D01*
X106108512Y-93509573D01*
X106083742Y-93514500D01*
X105906258Y-93514500D01*
X105881488Y-93509573D01*
X105732188Y-93479876D01*
X105568216Y-93411956D01*
X105420646Y-93313353D01*
X105295147Y-93187854D01*
X105196544Y-93040284D01*
X105128624Y-92876312D01*
X105094000Y-92702241D01*
X105094000Y-92524759D01*
X105095614Y-92516647D01*
X105098927Y-92499988D01*
X105128624Y-92350688D01*
X105196544Y-92186716D01*
X105295147Y-92039146D01*
X105420646Y-91913647D01*
X105568216Y-91815044D01*
X105732188Y-91747124D01*
X105881488Y-91717427D01*
X105906258Y-91712500D01*
X106083742Y-91712500D01*
X106108512Y-91717427D01*
G37*
G36*
X103568512Y-91717427D02*
G01*
X103717812Y-91747124D01*
X103881784Y-91815044D01*
X104029354Y-91913647D01*
X104154853Y-92039146D01*
X104253456Y-92186716D01*
X104321376Y-92350688D01*
X104351073Y-92499988D01*
X104354387Y-92516647D01*
X104356000Y-92524759D01*
X104356000Y-92702241D01*
X104321376Y-92876312D01*
X104253456Y-93040284D01*
X104154853Y-93187854D01*
X104029354Y-93313353D01*
X103881784Y-93411956D01*
X103717812Y-93479876D01*
X103568512Y-93509573D01*
X103543742Y-93514500D01*
X103366258Y-93514500D01*
X103341488Y-93509573D01*
X103192188Y-93479876D01*
X103028216Y-93411956D01*
X102880646Y-93313353D01*
X102755147Y-93187854D01*
X102656544Y-93040284D01*
X102588624Y-92876312D01*
X102554000Y-92702241D01*
X102554000Y-92524759D01*
X102555614Y-92516647D01*
X102558927Y-92499988D01*
X102588624Y-92350688D01*
X102656544Y-92186716D01*
X102755147Y-92039146D01*
X102880646Y-91913647D01*
X103028216Y-91815044D01*
X103192188Y-91747124D01*
X103341488Y-91717427D01*
X103366258Y-91712500D01*
X103543742Y-91712500D01*
X103568512Y-91717427D01*
G37*
G36*
X111188512Y-91717427D02*
G01*
X111337812Y-91747124D01*
X111501784Y-91815044D01*
X111649354Y-91913647D01*
X111774853Y-92039146D01*
X111873456Y-92186716D01*
X111941376Y-92350688D01*
X111971073Y-92499988D01*
X111974387Y-92516647D01*
X111976000Y-92524759D01*
X111976000Y-92702241D01*
X111941376Y-92876312D01*
X111873456Y-93040284D01*
X111774853Y-93187854D01*
X111649354Y-93313353D01*
X111501784Y-93411956D01*
X111337812Y-93479876D01*
X111188512Y-93509573D01*
X111163742Y-93514500D01*
X110986258Y-93514500D01*
X110961488Y-93509573D01*
X110812188Y-93479876D01*
X110648216Y-93411956D01*
X110500646Y-93313353D01*
X110375147Y-93187854D01*
X110276544Y-93040284D01*
X110208624Y-92876312D01*
X110174000Y-92702241D01*
X110174000Y-92524759D01*
X110175614Y-92516647D01*
X110178927Y-92499988D01*
X110208624Y-92350688D01*
X110276544Y-92186716D01*
X110375147Y-92039146D01*
X110500646Y-91913647D01*
X110648216Y-91815044D01*
X110812188Y-91747124D01*
X110961488Y-91717427D01*
X110986258Y-91712500D01*
X111163742Y-91712500D01*
X111188512Y-91717427D01*
G37*
G36*
X98488512Y-91717427D02*
G01*
X98637812Y-91747124D01*
X98801784Y-91815044D01*
X98949354Y-91913647D01*
X99074853Y-92039146D01*
X99173456Y-92186716D01*
X99241376Y-92350688D01*
X99271073Y-92499988D01*
X99274387Y-92516647D01*
X99276000Y-92524759D01*
X99276000Y-92702241D01*
X99241376Y-92876312D01*
X99173456Y-93040284D01*
X99074853Y-93187854D01*
X98949354Y-93313353D01*
X98801784Y-93411956D01*
X98637812Y-93479876D01*
X98488512Y-93509573D01*
X98463742Y-93514500D01*
X98286258Y-93514500D01*
X98261488Y-93509573D01*
X98112188Y-93479876D01*
X97948216Y-93411956D01*
X97800646Y-93313353D01*
X97675147Y-93187854D01*
X97576544Y-93040284D01*
X97508624Y-92876312D01*
X97474000Y-92702241D01*
X97474000Y-92524759D01*
X97475614Y-92516647D01*
X97478927Y-92499988D01*
X97508624Y-92350688D01*
X97576544Y-92186716D01*
X97675147Y-92039146D01*
X97800646Y-91913647D01*
X97948216Y-91815044D01*
X98112188Y-91747124D01*
X98261488Y-91717427D01*
X98286258Y-91712500D01*
X98463742Y-91712500D01*
X98488512Y-91717427D01*
G37*
G36*
X96736000Y-93514500D02*
G01*
X94934000Y-93514500D01*
X94934000Y-91712500D01*
X96736000Y-91712500D01*
X96736000Y-93514500D01*
G37*
G36*
X109976256Y-85386298D02*
G01*
X110082579Y-85407447D01*
X110291167Y-85493847D01*
X110359183Y-85522020D01*
X110383042Y-85531903D01*
X110653451Y-85712585D01*
X110883415Y-85942549D01*
X111064097Y-86212958D01*
X111064098Y-86212960D01*
X111075483Y-86240446D01*
X111188553Y-86513421D01*
X111204750Y-86594847D01*
X111252000Y-86832389D01*
X111252000Y-87157611D01*
X111229901Y-87268708D01*
X111188553Y-87476579D01*
X111064097Y-87777042D01*
X110883415Y-88047451D01*
X110653451Y-88277415D01*
X110383042Y-88458097D01*
X110383041Y-88458098D01*
X110383040Y-88458098D01*
X110325410Y-88481969D01*
X110082579Y-88582553D01*
X109976256Y-88603702D01*
X109763611Y-88646000D01*
X109438389Y-88646000D01*
X109225744Y-88603702D01*
X109119421Y-88582553D01*
X108876590Y-88481969D01*
X108818960Y-88458098D01*
X108818959Y-88458098D01*
X108818958Y-88458097D01*
X108548549Y-88277415D01*
X108318585Y-88047451D01*
X108137903Y-87777042D01*
X108013447Y-87476579D01*
X107972099Y-87268708D01*
X107950000Y-87157611D01*
X107950000Y-86832389D01*
X107997250Y-86594847D01*
X108013447Y-86513421D01*
X108126517Y-86240446D01*
X108137902Y-86212960D01*
X108137903Y-86212958D01*
X108318585Y-85942549D01*
X108548549Y-85712585D01*
X108818958Y-85531903D01*
X108842818Y-85522020D01*
X108910833Y-85493847D01*
X109119421Y-85407447D01*
X109225744Y-85386298D01*
X109438389Y-85344000D01*
X109763611Y-85344000D01*
X109976256Y-85386298D01*
G37*
G36*
X114156499Y-87411445D02*
G01*
X114193995Y-87422820D01*
X114228554Y-87441292D01*
X114258847Y-87466153D01*
X114283708Y-87496446D01*
X114302180Y-87531005D01*
X114313555Y-87568501D01*
X114318000Y-87613638D01*
X114318000Y-88352362D01*
X114313555Y-88397499D01*
X114302180Y-88434995D01*
X114283708Y-88469554D01*
X114258847Y-88499847D01*
X114228554Y-88524708D01*
X114193995Y-88543180D01*
X114156499Y-88554555D01*
X114111362Y-88559000D01*
X113472638Y-88559000D01*
X113427501Y-88554555D01*
X113390005Y-88543180D01*
X113355446Y-88524708D01*
X113325153Y-88499847D01*
X113300292Y-88469554D01*
X113281820Y-88434995D01*
X113270445Y-88397499D01*
X113266000Y-88352362D01*
X113266000Y-87613638D01*
X113270445Y-87568501D01*
X113281820Y-87531005D01*
X113300292Y-87496446D01*
X113325153Y-87466153D01*
X113355446Y-87441292D01*
X113390005Y-87422820D01*
X113427501Y-87411445D01*
X113472638Y-87407000D01*
X114111362Y-87407000D01*
X114156499Y-87411445D01*
G37*
G36*
X75802499Y-86155445D02*
G01*
X75839995Y-86166820D01*
X75874554Y-86185292D01*
X75904847Y-86210153D01*
X75929708Y-86240446D01*
X75948180Y-86275005D01*
X75959555Y-86312501D01*
X75964000Y-86357638D01*
X75964000Y-87096362D01*
X75959555Y-87141499D01*
X75948180Y-87178995D01*
X75929708Y-87213554D01*
X75904847Y-87243847D01*
X75874554Y-87268708D01*
X75839995Y-87287180D01*
X75802499Y-87298555D01*
X75757362Y-87303000D01*
X75118638Y-87303000D01*
X75073501Y-87298555D01*
X75036005Y-87287180D01*
X75001446Y-87268708D01*
X74971153Y-87243847D01*
X74946292Y-87213554D01*
X74927820Y-87178995D01*
X74916445Y-87141499D01*
X74912000Y-87096362D01*
X74912000Y-86357638D01*
X74916445Y-86312501D01*
X74927820Y-86275005D01*
X74946292Y-86240446D01*
X74971153Y-86210153D01*
X75001446Y-86185292D01*
X75036005Y-86166820D01*
X75073501Y-86155445D01*
X75118638Y-86151000D01*
X75757362Y-86151000D01*
X75802499Y-86155445D01*
G37*
G36*
X114156499Y-85661445D02*
G01*
X114193995Y-85672820D01*
X114228554Y-85691292D01*
X114258847Y-85716153D01*
X114283708Y-85746446D01*
X114302180Y-85781005D01*
X114313555Y-85818501D01*
X114318000Y-85863638D01*
X114318000Y-86602362D01*
X114313555Y-86647499D01*
X114302180Y-86684995D01*
X114283708Y-86719554D01*
X114258847Y-86749847D01*
X114228554Y-86774708D01*
X114193995Y-86793180D01*
X114156499Y-86804555D01*
X114111362Y-86809000D01*
X113472638Y-86809000D01*
X113427501Y-86804555D01*
X113390005Y-86793180D01*
X113355446Y-86774708D01*
X113325153Y-86749847D01*
X113300292Y-86719554D01*
X113281820Y-86684995D01*
X113270445Y-86647499D01*
X113266000Y-86602362D01*
X113266000Y-85863638D01*
X113270445Y-85818501D01*
X113281820Y-85781005D01*
X113300292Y-85746446D01*
X113325153Y-85716153D01*
X113355446Y-85691292D01*
X113390005Y-85672820D01*
X113427501Y-85661445D01*
X113472638Y-85657000D01*
X114111362Y-85657000D01*
X114156499Y-85661445D01*
G37*
G36*
X81136499Y-85534445D02*
G01*
X81173995Y-85545820D01*
X81208554Y-85564292D01*
X81238847Y-85589153D01*
X81263708Y-85619446D01*
X81282180Y-85654005D01*
X81293555Y-85691501D01*
X81298000Y-85736638D01*
X81298000Y-86475362D01*
X81293555Y-86520499D01*
X81282180Y-86557995D01*
X81263708Y-86592554D01*
X81238847Y-86622847D01*
X81208554Y-86647708D01*
X81173995Y-86666180D01*
X81136499Y-86677555D01*
X81091362Y-86682000D01*
X80452638Y-86682000D01*
X80407501Y-86677555D01*
X80370005Y-86666180D01*
X80335446Y-86647708D01*
X80305153Y-86622847D01*
X80280292Y-86592554D01*
X80261820Y-86557995D01*
X80250445Y-86520499D01*
X80246000Y-86475362D01*
X80246000Y-85736638D01*
X80250445Y-85691501D01*
X80261820Y-85654005D01*
X80280292Y-85619446D01*
X80305153Y-85589153D01*
X80335446Y-85564292D01*
X80370005Y-85545820D01*
X80407501Y-85534445D01*
X80452638Y-85530000D01*
X81091362Y-85530000D01*
X81136499Y-85534445D01*
G37*
G36*
X82660499Y-85506445D02*
G01*
X82697995Y-85517820D01*
X82732554Y-85536292D01*
X82762847Y-85561153D01*
X82787708Y-85591446D01*
X82806180Y-85626005D01*
X82817555Y-85663501D01*
X82822000Y-85708638D01*
X82822000Y-86447362D01*
X82817555Y-86492499D01*
X82806180Y-86529995D01*
X82787708Y-86564554D01*
X82762847Y-86594847D01*
X82732554Y-86619708D01*
X82697995Y-86638180D01*
X82660499Y-86649555D01*
X82615362Y-86654000D01*
X81976638Y-86654000D01*
X81931501Y-86649555D01*
X81894005Y-86638180D01*
X81859446Y-86619708D01*
X81829153Y-86594847D01*
X81804292Y-86564554D01*
X81785820Y-86529995D01*
X81774445Y-86492499D01*
X81770000Y-86447362D01*
X81770000Y-85708638D01*
X81774445Y-85663501D01*
X81785820Y-85626005D01*
X81804292Y-85591446D01*
X81829153Y-85561153D01*
X81859446Y-85536292D01*
X81894005Y-85517820D01*
X81931501Y-85506445D01*
X81976638Y-85502000D01*
X82615362Y-85502000D01*
X82660499Y-85506445D01*
G37*
G36*
X77109066Y-84106447D02*
G01*
X77124611Y-84125389D01*
X77143553Y-84140934D01*
X77165164Y-84152485D01*
X77188613Y-84159598D01*
X77212999Y-84162000D01*
X79061001Y-84162000D01*
X79085387Y-84159598D01*
X79108836Y-84152485D01*
X79130447Y-84140934D01*
X79149389Y-84125389D01*
X79164934Y-84106447D01*
X79175328Y-84087000D01*
X79788000Y-84087000D01*
X79788000Y-86139000D01*
X79175328Y-86139000D01*
X79164934Y-86119553D01*
X79149389Y-86100611D01*
X79130447Y-86085066D01*
X79108836Y-86073515D01*
X79085387Y-86066402D01*
X79061001Y-86064000D01*
X77212999Y-86064000D01*
X77188613Y-86066402D01*
X77165164Y-86073515D01*
X77143553Y-86085066D01*
X77124611Y-86100611D01*
X77109066Y-86119553D01*
X77098672Y-86139000D01*
X76486000Y-86139000D01*
X76486000Y-84087000D01*
X77098672Y-84087000D01*
X77109066Y-84106447D01*
G37*
G36*
X75802499Y-84405445D02*
G01*
X75839995Y-84416820D01*
X75874554Y-84435292D01*
X75904847Y-84460153D01*
X75929708Y-84490446D01*
X75948180Y-84525005D01*
X75959555Y-84562501D01*
X75964000Y-84607638D01*
X75964000Y-85346362D01*
X75959555Y-85391499D01*
X75948180Y-85428995D01*
X75929708Y-85463554D01*
X75904847Y-85493847D01*
X75874554Y-85518708D01*
X75839995Y-85537180D01*
X75802499Y-85548555D01*
X75757362Y-85553000D01*
X75118638Y-85553000D01*
X75073501Y-85548555D01*
X75036005Y-85537180D01*
X75001446Y-85518708D01*
X74971153Y-85493847D01*
X74946292Y-85463554D01*
X74927820Y-85428995D01*
X74916445Y-85391499D01*
X74912000Y-85346362D01*
X74912000Y-84607638D01*
X74916445Y-84562501D01*
X74927820Y-84525005D01*
X74946292Y-84490446D01*
X74971153Y-84460153D01*
X75001446Y-84435292D01*
X75036005Y-84416820D01*
X75073501Y-84405445D01*
X75118638Y-84401000D01*
X75757362Y-84401000D01*
X75802499Y-84405445D01*
G37*
G36*
X114156499Y-83982445D02*
G01*
X114193995Y-83993820D01*
X114228554Y-84012292D01*
X114258847Y-84037153D01*
X114283708Y-84067446D01*
X114302180Y-84102005D01*
X114313555Y-84139501D01*
X114318000Y-84184638D01*
X114318000Y-84923362D01*
X114313555Y-84968499D01*
X114302180Y-85005995D01*
X114283708Y-85040554D01*
X114258847Y-85070847D01*
X114228554Y-85095708D01*
X114193995Y-85114180D01*
X114156499Y-85125555D01*
X114111362Y-85130000D01*
X113472638Y-85130000D01*
X113427501Y-85125555D01*
X113390005Y-85114180D01*
X113355446Y-85095708D01*
X113325153Y-85070847D01*
X113300292Y-85040554D01*
X113281820Y-85005995D01*
X113270445Y-84968499D01*
X113266000Y-84923362D01*
X113266000Y-84184638D01*
X113270445Y-84139501D01*
X113281820Y-84102005D01*
X113300292Y-84067446D01*
X113325153Y-84037153D01*
X113355446Y-84012292D01*
X113390005Y-83993820D01*
X113427501Y-83982445D01*
X113472638Y-83978000D01*
X114111362Y-83978000D01*
X114156499Y-83982445D01*
G37*
G36*
X81136499Y-83784445D02*
G01*
X81173995Y-83795820D01*
X81208554Y-83814292D01*
X81238847Y-83839153D01*
X81263708Y-83869446D01*
X81282180Y-83904005D01*
X81293555Y-83941501D01*
X81298000Y-83986638D01*
X81298000Y-84725362D01*
X81293555Y-84770499D01*
X81282180Y-84807995D01*
X81263708Y-84842554D01*
X81238847Y-84872847D01*
X81208554Y-84897708D01*
X81173995Y-84916180D01*
X81136499Y-84927555D01*
X81091362Y-84932000D01*
X80452638Y-84932000D01*
X80407501Y-84927555D01*
X80370005Y-84916180D01*
X80335446Y-84897708D01*
X80305153Y-84872847D01*
X80280292Y-84842554D01*
X80261820Y-84807995D01*
X80250445Y-84770499D01*
X80246000Y-84725362D01*
X80246000Y-83986638D01*
X80250445Y-83941501D01*
X80261820Y-83904005D01*
X80280292Y-83869446D01*
X80305153Y-83839153D01*
X80335446Y-83814292D01*
X80370005Y-83795820D01*
X80407501Y-83784445D01*
X80452638Y-83780000D01*
X81091362Y-83780000D01*
X81136499Y-83784445D01*
G37*
G36*
X82660499Y-83756445D02*
G01*
X82697995Y-83767820D01*
X82732554Y-83786292D01*
X82762847Y-83811153D01*
X82787708Y-83841446D01*
X82806180Y-83876005D01*
X82817555Y-83913501D01*
X82822000Y-83958638D01*
X82822000Y-84697362D01*
X82817555Y-84742499D01*
X82806180Y-84779995D01*
X82787708Y-84814554D01*
X82762847Y-84844847D01*
X82732554Y-84869708D01*
X82697995Y-84888180D01*
X82660499Y-84899555D01*
X82615362Y-84904000D01*
X81976638Y-84904000D01*
X81931501Y-84899555D01*
X81894005Y-84888180D01*
X81859446Y-84869708D01*
X81829153Y-84844847D01*
X81804292Y-84814554D01*
X81785820Y-84779995D01*
X81774445Y-84742499D01*
X81770000Y-84697362D01*
X81770000Y-83958638D01*
X81774445Y-83913501D01*
X81785820Y-83876005D01*
X81804292Y-83841446D01*
X81829153Y-83811153D01*
X81859446Y-83786292D01*
X81894005Y-83767820D01*
X81931501Y-83756445D01*
X81976638Y-83752000D01*
X82615362Y-83752000D01*
X82660499Y-83756445D01*
G37*
G36*
X68820512Y-81780927D02*
G01*
X68969812Y-81810624D01*
X69133784Y-81878544D01*
X69281354Y-81977147D01*
X69406853Y-82102646D01*
X69505456Y-82250216D01*
X69573376Y-82414188D01*
X69608000Y-82588259D01*
X69608000Y-82765741D01*
X69573376Y-82939812D01*
X69505456Y-83103784D01*
X69406853Y-83251354D01*
X69281354Y-83376853D01*
X69133784Y-83475456D01*
X68969812Y-83543376D01*
X68820512Y-83573073D01*
X68795742Y-83578000D01*
X68618258Y-83578000D01*
X68593488Y-83573073D01*
X68444188Y-83543376D01*
X68280216Y-83475456D01*
X68132646Y-83376853D01*
X68007147Y-83251354D01*
X67908544Y-83103784D01*
X67840624Y-82939812D01*
X67806000Y-82765741D01*
X67806000Y-82588259D01*
X67840624Y-82414188D01*
X67908544Y-82250216D01*
X68007147Y-82102646D01*
X68132646Y-81977147D01*
X68280216Y-81878544D01*
X68444188Y-81810624D01*
X68593488Y-81780927D01*
X68618258Y-81776000D01*
X68795742Y-81776000D01*
X68820512Y-81780927D01*
G37*
G36*
X72148000Y-83578000D02*
G01*
X70346000Y-83578000D01*
X70346000Y-81776000D01*
X72148000Y-81776000D01*
X72148000Y-83578000D01*
G37*
G36*
X114156499Y-82232445D02*
G01*
X114193995Y-82243820D01*
X114228554Y-82262292D01*
X114258847Y-82287153D01*
X114283708Y-82317446D01*
X114302180Y-82352005D01*
X114313555Y-82389501D01*
X114318000Y-82434638D01*
X114318000Y-83173362D01*
X114313555Y-83218499D01*
X114302180Y-83255995D01*
X114283708Y-83290554D01*
X114258847Y-83320847D01*
X114228554Y-83345708D01*
X114193995Y-83364180D01*
X114156499Y-83375555D01*
X114111362Y-83380000D01*
X113472638Y-83380000D01*
X113427501Y-83375555D01*
X113390005Y-83364180D01*
X113355446Y-83345708D01*
X113325153Y-83320847D01*
X113300292Y-83290554D01*
X113281820Y-83255995D01*
X113270445Y-83218499D01*
X113266000Y-83173362D01*
X113266000Y-82434638D01*
X113270445Y-82389501D01*
X113281820Y-82352005D01*
X113300292Y-82317446D01*
X113325153Y-82287153D01*
X113355446Y-82262292D01*
X113390005Y-82243820D01*
X113427501Y-82232445D01*
X113472638Y-82228000D01*
X114111362Y-82228000D01*
X114156499Y-82232445D01*
G37*
G36*
X90811383Y-80868489D02*
G01*
X90811386Y-80868490D01*
X90811385Y-80868490D01*
X90875258Y-80894946D01*
X90932748Y-80933360D01*
X90981640Y-80982252D01*
X91020054Y-81039742D01*
X91039342Y-81086309D01*
X91046511Y-81103617D01*
X91060000Y-81171430D01*
X91060000Y-81240570D01*
X91046511Y-81308383D01*
X91046510Y-81308385D01*
X91020054Y-81372258D01*
X90975246Y-81439317D01*
X90974230Y-81440555D01*
X90962679Y-81462166D01*
X90955566Y-81485615D01*
X90953164Y-81510001D01*
X90955566Y-81534387D01*
X90962679Y-81557836D01*
X90974230Y-81579447D01*
X90989775Y-81598389D01*
X91008717Y-81613934D01*
X91030328Y-81625485D01*
X91053777Y-81632598D01*
X91078163Y-81635000D01*
X96119837Y-81635000D01*
X96144223Y-81632598D01*
X96167672Y-81625485D01*
X96189283Y-81613934D01*
X96208225Y-81598389D01*
X96223770Y-81579447D01*
X96235321Y-81557836D01*
X96242434Y-81534387D01*
X96244836Y-81510001D01*
X96242434Y-81485615D01*
X96235321Y-81462166D01*
X96223770Y-81440555D01*
X96222754Y-81439317D01*
X96177946Y-81372258D01*
X96151490Y-81308385D01*
X96151489Y-81308383D01*
X96138000Y-81240570D01*
X96138000Y-81171430D01*
X96151489Y-81103617D01*
X96158658Y-81086309D01*
X96177946Y-81039742D01*
X96216360Y-80982252D01*
X96265252Y-80933360D01*
X96322742Y-80894946D01*
X96386615Y-80868490D01*
X96386614Y-80868490D01*
X96386617Y-80868489D01*
X96454430Y-80855000D01*
X96523570Y-80855000D01*
X96591383Y-80868489D01*
X96591386Y-80868490D01*
X96591385Y-80868490D01*
X96655258Y-80894946D01*
X96712748Y-80933360D01*
X96761640Y-80982252D01*
X96800054Y-81039742D01*
X96819342Y-81086309D01*
X96826511Y-81103617D01*
X96840000Y-81171430D01*
X96840000Y-81240570D01*
X96826511Y-81308383D01*
X96826510Y-81308385D01*
X96800054Y-81372258D01*
X96755246Y-81439317D01*
X96754230Y-81440555D01*
X96742679Y-81462166D01*
X96735566Y-81485615D01*
X96733164Y-81510001D01*
X96735566Y-81534387D01*
X96742679Y-81557836D01*
X96754230Y-81579447D01*
X96769775Y-81598389D01*
X96788717Y-81613934D01*
X96810328Y-81625485D01*
X96833777Y-81632598D01*
X96858163Y-81635000D01*
X97150000Y-81635000D01*
X97150000Y-82897000D01*
X90048000Y-82897000D01*
X90048000Y-81635000D01*
X90339837Y-81635000D01*
X90364223Y-81632598D01*
X90387672Y-81625485D01*
X90409283Y-81613934D01*
X90428225Y-81598389D01*
X90443770Y-81579447D01*
X90455321Y-81557836D01*
X90462434Y-81534387D01*
X90464836Y-81510001D01*
X90462434Y-81485615D01*
X90455321Y-81462166D01*
X90443770Y-81440555D01*
X90442754Y-81439317D01*
X90397946Y-81372258D01*
X90371490Y-81308385D01*
X90371489Y-81308383D01*
X90358000Y-81240570D01*
X90358000Y-81171430D01*
X90371489Y-81103617D01*
X90378658Y-81086309D01*
X90397946Y-81039742D01*
X90436360Y-80982252D01*
X90485252Y-80933360D01*
X90542742Y-80894946D01*
X90606615Y-80868490D01*
X90606614Y-80868490D01*
X90606617Y-80868489D01*
X90674430Y-80855000D01*
X90743570Y-80855000D01*
X90811383Y-80868489D01*
G37*
G36*
X86520499Y-81774445D02*
G01*
X86557995Y-81785820D01*
X86592554Y-81804292D01*
X86622847Y-81829153D01*
X86647708Y-81859446D01*
X86666180Y-81894005D01*
X86677555Y-81931501D01*
X86682000Y-81976638D01*
X86682000Y-82615362D01*
X86677555Y-82660499D01*
X86666180Y-82697995D01*
X86647708Y-82732554D01*
X86622847Y-82762847D01*
X86592554Y-82787708D01*
X86557995Y-82806180D01*
X86520499Y-82817555D01*
X86475362Y-82822000D01*
X85736638Y-82822000D01*
X85691501Y-82817555D01*
X85654005Y-82806180D01*
X85619446Y-82787708D01*
X85589153Y-82762847D01*
X85564292Y-82732554D01*
X85545820Y-82697995D01*
X85534445Y-82660499D01*
X85530000Y-82615362D01*
X85530000Y-81976638D01*
X85534445Y-81931501D01*
X85545820Y-81894005D01*
X85564292Y-81859446D01*
X85589153Y-81829153D01*
X85619446Y-81804292D01*
X85654005Y-81785820D01*
X85691501Y-81774445D01*
X85736638Y-81770000D01*
X86475362Y-81770000D01*
X86520499Y-81774445D01*
G37*
G36*
X84770499Y-81774445D02*
G01*
X84807995Y-81785820D01*
X84842554Y-81804292D01*
X84872847Y-81829153D01*
X84897708Y-81859446D01*
X84916180Y-81894005D01*
X84927555Y-81931501D01*
X84932000Y-81976638D01*
X84932000Y-82615362D01*
X84927555Y-82660499D01*
X84916180Y-82697995D01*
X84897708Y-82732554D01*
X84872847Y-82762847D01*
X84842554Y-82787708D01*
X84807995Y-82806180D01*
X84770499Y-82817555D01*
X84725362Y-82822000D01*
X83986638Y-82822000D01*
X83941501Y-82817555D01*
X83904005Y-82806180D01*
X83869446Y-82787708D01*
X83839153Y-82762847D01*
X83814292Y-82732554D01*
X83795820Y-82697995D01*
X83784445Y-82660499D01*
X83780000Y-82615362D01*
X83780000Y-81976638D01*
X83784445Y-81931501D01*
X83795820Y-81894005D01*
X83814292Y-81859446D01*
X83839153Y-81829153D01*
X83869446Y-81804292D01*
X83904005Y-81785820D01*
X83941501Y-81774445D01*
X83986638Y-81770000D01*
X84725362Y-81770000D01*
X84770499Y-81774445D01*
G37*
G36*
X98017213Y-80642249D02*
G01*
X98111652Y-80670897D01*
X98198687Y-80717418D01*
X98274975Y-80780025D01*
X98337582Y-80856313D01*
X98384103Y-80943348D01*
X98412751Y-81037787D01*
X98420000Y-81111388D01*
X98420000Y-82260612D01*
X98412751Y-82334213D01*
X98384103Y-82428652D01*
X98337582Y-82515687D01*
X98274975Y-82591975D01*
X98198687Y-82654582D01*
X98111651Y-82701103D01*
X98017212Y-82729751D01*
X97919000Y-82739424D01*
X97820787Y-82729751D01*
X97726348Y-82701103D01*
X97639313Y-82654582D01*
X97563025Y-82591975D01*
X97500418Y-82515687D01*
X97453897Y-82428651D01*
X97425249Y-82334212D01*
X97418000Y-82260611D01*
X97418001Y-81111388D01*
X97425250Y-81037787D01*
X97453898Y-80943348D01*
X97500419Y-80856313D01*
X97563026Y-80780025D01*
X97639314Y-80717418D01*
X97726349Y-80670897D01*
X97820788Y-80642249D01*
X97919000Y-80632576D01*
X98017213Y-80642249D01*
G37*
G36*
X89377213Y-80642249D02*
G01*
X89471652Y-80670897D01*
X89558687Y-80717418D01*
X89634975Y-80780025D01*
X89697582Y-80856313D01*
X89744103Y-80943348D01*
X89772751Y-81037787D01*
X89780000Y-81111388D01*
X89780000Y-82260612D01*
X89772751Y-82334213D01*
X89744103Y-82428652D01*
X89697582Y-82515687D01*
X89634975Y-82591975D01*
X89558687Y-82654582D01*
X89471651Y-82701103D01*
X89377212Y-82729751D01*
X89279000Y-82739424D01*
X89180787Y-82729751D01*
X89086348Y-82701103D01*
X88999313Y-82654582D01*
X88923025Y-82591975D01*
X88860418Y-82515687D01*
X88813897Y-82428651D01*
X88785249Y-82334212D01*
X88778000Y-82260611D01*
X88778001Y-81111388D01*
X88785250Y-81037787D01*
X88813898Y-80943348D01*
X88860419Y-80856313D01*
X88923026Y-80780025D01*
X88999314Y-80717418D01*
X89086349Y-80670897D01*
X89180788Y-80642249D01*
X89279000Y-80632576D01*
X89377213Y-80642249D01*
G37*
G36*
X113465000Y-78553001D02*
G01*
X113467402Y-78577387D01*
X113474515Y-78600836D01*
X113486066Y-78622447D01*
X113501611Y-78641389D01*
X113520553Y-78656934D01*
X113542164Y-78668485D01*
X113565613Y-78675598D01*
X113589999Y-78678000D01*
X114465000Y-78678000D01*
X114465000Y-80580000D01*
X113589999Y-80580000D01*
X113565613Y-80582402D01*
X113542164Y-80589515D01*
X113520553Y-80601066D01*
X113501611Y-80616611D01*
X113486066Y-80635553D01*
X113474515Y-80657164D01*
X113467402Y-80680613D01*
X113465000Y-80704999D01*
X113465000Y-81580000D01*
X110563000Y-81580000D01*
X110563000Y-80704999D01*
X110560598Y-80680613D01*
X110553485Y-80657164D01*
X110541934Y-80635553D01*
X110526389Y-80616611D01*
X110507447Y-80601066D01*
X110485836Y-80589515D01*
X110462387Y-80582402D01*
X110438001Y-80580000D01*
X109563000Y-80580000D01*
X109563000Y-78678000D01*
X110438001Y-78678000D01*
X110462387Y-78675598D01*
X110485836Y-78668485D01*
X110507447Y-78656934D01*
X110526389Y-78641389D01*
X110541934Y-78622447D01*
X110553485Y-78600836D01*
X110560598Y-78577387D01*
X110563000Y-78553001D01*
X110563000Y-77678000D01*
X113465000Y-77678000D01*
X113465000Y-78553001D01*
G37*
G36*
X102213062Y-79596181D02*
G01*
X102247981Y-79606774D01*
X102280163Y-79623976D01*
X102308373Y-79647127D01*
X102331524Y-79675337D01*
X102348726Y-79707519D01*
X102359319Y-79742438D01*
X102363500Y-79784895D01*
X102363500Y-81251105D01*
X102359319Y-81293562D01*
X102348726Y-81328481D01*
X102331524Y-81360663D01*
X102308373Y-81388873D01*
X102280163Y-81412024D01*
X102247981Y-81429226D01*
X102213062Y-81439819D01*
X102170605Y-81444000D01*
X101029395Y-81444000D01*
X100986938Y-81439819D01*
X100952019Y-81429226D01*
X100919837Y-81412024D01*
X100891627Y-81388873D01*
X100868476Y-81360663D01*
X100851274Y-81328481D01*
X100840681Y-81293562D01*
X100836500Y-81251105D01*
X100836500Y-79784895D01*
X100840681Y-79742438D01*
X100851274Y-79707519D01*
X100868476Y-79675337D01*
X100891627Y-79647127D01*
X100919837Y-79623976D01*
X100952019Y-79606774D01*
X100986938Y-79596181D01*
X101029395Y-79592000D01*
X102170605Y-79592000D01*
X102213062Y-79596181D01*
G37*
G36*
X105188062Y-79596181D02*
G01*
X105222981Y-79606774D01*
X105255163Y-79623976D01*
X105283373Y-79647127D01*
X105306524Y-79675337D01*
X105323726Y-79707519D01*
X105334319Y-79742438D01*
X105338500Y-79784895D01*
X105338500Y-81251105D01*
X105334319Y-81293562D01*
X105323726Y-81328481D01*
X105306524Y-81360663D01*
X105283373Y-81388873D01*
X105255163Y-81412024D01*
X105222981Y-81429226D01*
X105188062Y-81439819D01*
X105145605Y-81444000D01*
X104004395Y-81444000D01*
X103961938Y-81439819D01*
X103927019Y-81429226D01*
X103894837Y-81412024D01*
X103866627Y-81388873D01*
X103843476Y-81360663D01*
X103826274Y-81328481D01*
X103815681Y-81293562D01*
X103811500Y-81251105D01*
X103811500Y-79784895D01*
X103815681Y-79742438D01*
X103826274Y-79707519D01*
X103843476Y-79675337D01*
X103866627Y-79647127D01*
X103894837Y-79623976D01*
X103927019Y-79606774D01*
X103961938Y-79596181D01*
X104004395Y-79592000D01*
X105145605Y-79592000D01*
X105188062Y-79596181D01*
G37*
G36*
X84770499Y-80250445D02*
G01*
X84807995Y-80261820D01*
X84842554Y-80280292D01*
X84872847Y-80305153D01*
X84897708Y-80335446D01*
X84916180Y-80370005D01*
X84927555Y-80407501D01*
X84932000Y-80452638D01*
X84932000Y-81091362D01*
X84927555Y-81136499D01*
X84916180Y-81173995D01*
X84897708Y-81208554D01*
X84872847Y-81238847D01*
X84842554Y-81263708D01*
X84807995Y-81282180D01*
X84770499Y-81293555D01*
X84725362Y-81298000D01*
X83986638Y-81298000D01*
X83941501Y-81293555D01*
X83904005Y-81282180D01*
X83869446Y-81263708D01*
X83839153Y-81238847D01*
X83814292Y-81208554D01*
X83795820Y-81173995D01*
X83784445Y-81136499D01*
X83780000Y-81091362D01*
X83780000Y-80452638D01*
X83784445Y-80407501D01*
X83795820Y-80370005D01*
X83814292Y-80335446D01*
X83839153Y-80305153D01*
X83869446Y-80280292D01*
X83904005Y-80261820D01*
X83941501Y-80250445D01*
X83986638Y-80246000D01*
X84725362Y-80246000D01*
X84770499Y-80250445D01*
G37*
G36*
X86520499Y-80250445D02*
G01*
X86557995Y-80261820D01*
X86592554Y-80280292D01*
X86622847Y-80305153D01*
X86647708Y-80335446D01*
X86666180Y-80370005D01*
X86677555Y-80407501D01*
X86682000Y-80452638D01*
X86682000Y-81091362D01*
X86677555Y-81136499D01*
X86666180Y-81173995D01*
X86647708Y-81208554D01*
X86622847Y-81238847D01*
X86592554Y-81263708D01*
X86557995Y-81282180D01*
X86520499Y-81293555D01*
X86475362Y-81298000D01*
X85736638Y-81298000D01*
X85691501Y-81293555D01*
X85654005Y-81282180D01*
X85619446Y-81263708D01*
X85589153Y-81238847D01*
X85564292Y-81208554D01*
X85545820Y-81173995D01*
X85534445Y-81136499D01*
X85530000Y-81091362D01*
X85530000Y-80452638D01*
X85534445Y-80407501D01*
X85545820Y-80370005D01*
X85564292Y-80335446D01*
X85589153Y-80305153D01*
X85619446Y-80280292D01*
X85654005Y-80261820D01*
X85691501Y-80250445D01*
X85736638Y-80246000D01*
X86475362Y-80246000D01*
X86520499Y-80250445D01*
G37*
G36*
X108949499Y-80045445D02*
G01*
X108986995Y-80056820D01*
X109021554Y-80075292D01*
X109051847Y-80100153D01*
X109076708Y-80130446D01*
X109095180Y-80165005D01*
X109106555Y-80202501D01*
X109111000Y-80247638D01*
X109111000Y-80986362D01*
X109106555Y-81031499D01*
X109095180Y-81068995D01*
X109076708Y-81103554D01*
X109051847Y-81133847D01*
X109021554Y-81158708D01*
X108986995Y-81177180D01*
X108949499Y-81188555D01*
X108904362Y-81193000D01*
X108265638Y-81193000D01*
X108220501Y-81188555D01*
X108183005Y-81177180D01*
X108148446Y-81158708D01*
X108118153Y-81133847D01*
X108093292Y-81103554D01*
X108074820Y-81068995D01*
X108063445Y-81031499D01*
X108059000Y-80986362D01*
X108059000Y-80247638D01*
X108063445Y-80202501D01*
X108074820Y-80165005D01*
X108093292Y-80130446D01*
X108118153Y-80100153D01*
X108148446Y-80075292D01*
X108183005Y-80056820D01*
X108220501Y-80045445D01*
X108265638Y-80041000D01*
X108904362Y-80041000D01*
X108949499Y-80045445D01*
G37*
G36*
X71360512Y-79240927D02*
G01*
X71509812Y-79270624D01*
X71673784Y-79338544D01*
X71821354Y-79437147D01*
X71946853Y-79562646D01*
X72045456Y-79710216D01*
X72113376Y-79874188D01*
X72148000Y-80048259D01*
X72148000Y-80225741D01*
X72113376Y-80399812D01*
X72045456Y-80563784D01*
X71946853Y-80711354D01*
X71821354Y-80836853D01*
X71673784Y-80935456D01*
X71509812Y-81003376D01*
X71360512Y-81033073D01*
X71335742Y-81038000D01*
X71158258Y-81038000D01*
X71133488Y-81033073D01*
X70984188Y-81003376D01*
X70820216Y-80935456D01*
X70672646Y-80836853D01*
X70547147Y-80711354D01*
X70448544Y-80563784D01*
X70380624Y-80399812D01*
X70346000Y-80225741D01*
X70346000Y-80048259D01*
X70380624Y-79874188D01*
X70448544Y-79710216D01*
X70547147Y-79562646D01*
X70672646Y-79437147D01*
X70820216Y-79338544D01*
X70984188Y-79270624D01*
X71133488Y-79240927D01*
X71158258Y-79236000D01*
X71335742Y-79236000D01*
X71360512Y-79240927D01*
G37*
G36*
X68820512Y-79240927D02*
G01*
X68969812Y-79270624D01*
X69133784Y-79338544D01*
X69281354Y-79437147D01*
X69406853Y-79562646D01*
X69505456Y-79710216D01*
X69573376Y-79874188D01*
X69608000Y-80048259D01*
X69608000Y-80225741D01*
X69573376Y-80399812D01*
X69505456Y-80563784D01*
X69406853Y-80711354D01*
X69281354Y-80836853D01*
X69133784Y-80935456D01*
X68969812Y-81003376D01*
X68820512Y-81033073D01*
X68795742Y-81038000D01*
X68618258Y-81038000D01*
X68593488Y-81033073D01*
X68444188Y-81003376D01*
X68280216Y-80935456D01*
X68132646Y-80836853D01*
X68007147Y-80711354D01*
X67908544Y-80563784D01*
X67840624Y-80399812D01*
X67806000Y-80225741D01*
X67806000Y-80048259D01*
X67840624Y-79874188D01*
X67908544Y-79710216D01*
X68007147Y-79562646D01*
X68132646Y-79437147D01*
X68280216Y-79338544D01*
X68444188Y-79270624D01*
X68593488Y-79240927D01*
X68618258Y-79236000D01*
X68795742Y-79236000D01*
X68820512Y-79240927D01*
G37*
G36*
X100059499Y-79805445D02*
G01*
X100096995Y-79816820D01*
X100131554Y-79835292D01*
X100161847Y-79860153D01*
X100186708Y-79890446D01*
X100205180Y-79925005D01*
X100216555Y-79962501D01*
X100221000Y-80007638D01*
X100221000Y-80746362D01*
X100216555Y-80791499D01*
X100205180Y-80828995D01*
X100186708Y-80863554D01*
X100161847Y-80893847D01*
X100131554Y-80918708D01*
X100096995Y-80937180D01*
X100059499Y-80948555D01*
X100014362Y-80953000D01*
X99375638Y-80953000D01*
X99330501Y-80948555D01*
X99293005Y-80937180D01*
X99258446Y-80918708D01*
X99228153Y-80893847D01*
X99203292Y-80863554D01*
X99184820Y-80828995D01*
X99173445Y-80791499D01*
X99169000Y-80746362D01*
X99169000Y-80007638D01*
X99173445Y-79962501D01*
X99184820Y-79925005D01*
X99203292Y-79890446D01*
X99228153Y-79860153D01*
X99258446Y-79835292D01*
X99293005Y-79816820D01*
X99330501Y-79805445D01*
X99375638Y-79801000D01*
X100014362Y-79801000D01*
X100059499Y-79805445D01*
G37*
G36*
X78825000Y-80603000D02*
G01*
X76623000Y-80603000D01*
X76623000Y-78401000D01*
X78825000Y-78401000D01*
X78825000Y-80603000D01*
G37*
G36*
X75398794Y-78422155D02*
G01*
X75505150Y-78443311D01*
X75597534Y-78481578D01*
X75705520Y-78526307D01*
X75885844Y-78646795D01*
X76039205Y-78800156D01*
X76159693Y-78980480D01*
X76184614Y-79040646D01*
X76242689Y-79180850D01*
X76285000Y-79393561D01*
X76285000Y-79610439D01*
X76242689Y-79823150D01*
X76227362Y-79860153D01*
X76159693Y-80023520D01*
X76039205Y-80203844D01*
X75885844Y-80357205D01*
X75705520Y-80477693D01*
X75629938Y-80509000D01*
X75505150Y-80560689D01*
X75489600Y-80563782D01*
X75292440Y-80603000D01*
X75075560Y-80603000D01*
X74878400Y-80563782D01*
X74862850Y-80560689D01*
X74738062Y-80509000D01*
X74662480Y-80477693D01*
X74482156Y-80357205D01*
X74328795Y-80203844D01*
X74208307Y-80023520D01*
X74140638Y-79860153D01*
X74125311Y-79823150D01*
X74083000Y-79610439D01*
X74083000Y-79393561D01*
X74125311Y-79180850D01*
X74183386Y-79040646D01*
X74208307Y-78980480D01*
X74328795Y-78800156D01*
X74482156Y-78646795D01*
X74662480Y-78526307D01*
X74770466Y-78481578D01*
X74862850Y-78443311D01*
X74969206Y-78422155D01*
X75075560Y-78401000D01*
X75292440Y-78401000D01*
X75398794Y-78422155D01*
G37*
G36*
X85573500Y-77022383D02*
G01*
X85571812Y-77022549D01*
X85548363Y-77029662D01*
X85526752Y-77041213D01*
X85507810Y-77056758D01*
X85492265Y-77075700D01*
X85480714Y-77097311D01*
X85473601Y-77120760D01*
X85471199Y-77145146D01*
X85471199Y-78774348D01*
X85473601Y-78798734D01*
X85480714Y-78822183D01*
X85492265Y-78843794D01*
X85507810Y-78862736D01*
X85526752Y-78878281D01*
X85548363Y-78889832D01*
X85571812Y-78896945D01*
X85573500Y-78897111D01*
X85573500Y-79814147D01*
X83717498Y-79814147D01*
X83717498Y-78897111D01*
X83719186Y-78896945D01*
X83742635Y-78889832D01*
X83764246Y-78878281D01*
X83783188Y-78862736D01*
X83798733Y-78843794D01*
X83810284Y-78822183D01*
X83817397Y-78798734D01*
X83819799Y-78774348D01*
X83819799Y-77145146D01*
X83817397Y-77120760D01*
X83810284Y-77097311D01*
X83798733Y-77075700D01*
X83783188Y-77056758D01*
X83764246Y-77041213D01*
X83742635Y-77029662D01*
X83719186Y-77022549D01*
X83717498Y-77022383D01*
X83717498Y-76105347D01*
X85573500Y-76105347D01*
X85573500Y-77022383D01*
G37*
G36*
X63348621Y-76386000D02*
G01*
X63481579Y-76412447D01*
X63603699Y-76463031D01*
X63775889Y-76534354D01*
X63782042Y-76536903D01*
X64052451Y-76717585D01*
X64282415Y-76947549D01*
X64463097Y-77217958D01*
X64587553Y-77518421D01*
X64593026Y-77545938D01*
X64651000Y-77837389D01*
X64651000Y-78162611D01*
X64616645Y-78335323D01*
X64587553Y-78481579D01*
X64538155Y-78600836D01*
X64473419Y-78757124D01*
X64463097Y-78782042D01*
X64282415Y-79052451D01*
X64052451Y-79282415D01*
X63782042Y-79463097D01*
X63481579Y-79587553D01*
X63384948Y-79606774D01*
X63162611Y-79651000D01*
X62837389Y-79651000D01*
X62615052Y-79606774D01*
X62518421Y-79587553D01*
X62217958Y-79463097D01*
X61947549Y-79282415D01*
X61717585Y-79052451D01*
X61536903Y-78782042D01*
X61526582Y-78757124D01*
X61461845Y-78600836D01*
X61412447Y-78481579D01*
X61383355Y-78335323D01*
X61349000Y-78162611D01*
X61349000Y-77837389D01*
X61406974Y-77545938D01*
X61412447Y-77518421D01*
X61536903Y-77217958D01*
X61717585Y-76947549D01*
X61947549Y-76717585D01*
X62217958Y-76536903D01*
X62224112Y-76534354D01*
X62396301Y-76463031D01*
X62518421Y-76412447D01*
X62651379Y-76386000D01*
X62837389Y-76349000D01*
X63162611Y-76349000D01*
X63348621Y-76386000D01*
G37*
G36*
X108949499Y-78295445D02*
G01*
X108986995Y-78306820D01*
X109021554Y-78325292D01*
X109051847Y-78350153D01*
X109076708Y-78380446D01*
X109095180Y-78415005D01*
X109106555Y-78452501D01*
X109111000Y-78497638D01*
X109111000Y-79236362D01*
X109106555Y-79281499D01*
X109095180Y-79318995D01*
X109076708Y-79353554D01*
X109051847Y-79383847D01*
X109021554Y-79408708D01*
X108986995Y-79427180D01*
X108949499Y-79438555D01*
X108904362Y-79443000D01*
X108265638Y-79443000D01*
X108220501Y-79438555D01*
X108183005Y-79427180D01*
X108148446Y-79408708D01*
X108118153Y-79383847D01*
X108093292Y-79353554D01*
X108074820Y-79318995D01*
X108063445Y-79281499D01*
X108059000Y-79236362D01*
X108059000Y-78497638D01*
X108063445Y-78452501D01*
X108074820Y-78415005D01*
X108093292Y-78380446D01*
X108118153Y-78350153D01*
X108148446Y-78325292D01*
X108183005Y-78306820D01*
X108220501Y-78295445D01*
X108265638Y-78291000D01*
X108904362Y-78291000D01*
X108949499Y-78295445D01*
G37*
G36*
X86978499Y-78281445D02*
G01*
X87015995Y-78292820D01*
X87050554Y-78311292D01*
X87080847Y-78336153D01*
X87105708Y-78366446D01*
X87124180Y-78401005D01*
X87135555Y-78438501D01*
X87140000Y-78483638D01*
X87140000Y-79222362D01*
X87135555Y-79267499D01*
X87124180Y-79304995D01*
X87105708Y-79339554D01*
X87080847Y-79369847D01*
X87050554Y-79394708D01*
X87015995Y-79413180D01*
X86978499Y-79424555D01*
X86933362Y-79429000D01*
X86294638Y-79429000D01*
X86249501Y-79424555D01*
X86212005Y-79413180D01*
X86177446Y-79394708D01*
X86147153Y-79369847D01*
X86122292Y-79339554D01*
X86103820Y-79304995D01*
X86092445Y-79267499D01*
X86088000Y-79222362D01*
X86088000Y-78483638D01*
X86092445Y-78438501D01*
X86103820Y-78401005D01*
X86122292Y-78366446D01*
X86147153Y-78336153D01*
X86177446Y-78311292D01*
X86212005Y-78292820D01*
X86249501Y-78281445D01*
X86294638Y-78277000D01*
X86933362Y-78277000D01*
X86978499Y-78281445D01*
G37*
G36*
X100059499Y-78055445D02*
G01*
X100096995Y-78066820D01*
X100131554Y-78085292D01*
X100161847Y-78110153D01*
X100186708Y-78140446D01*
X100205180Y-78175005D01*
X100216555Y-78212501D01*
X100221000Y-78257638D01*
X100221000Y-78996362D01*
X100216555Y-79041499D01*
X100205180Y-79078995D01*
X100186708Y-79113554D01*
X100161847Y-79143847D01*
X100131554Y-79168708D01*
X100096995Y-79187180D01*
X100059499Y-79198555D01*
X100014362Y-79203000D01*
X99375638Y-79203000D01*
X99330501Y-79198555D01*
X99293005Y-79187180D01*
X99258446Y-79168708D01*
X99228153Y-79143847D01*
X99203292Y-79113554D01*
X99184820Y-79078995D01*
X99173445Y-79041499D01*
X99169000Y-78996362D01*
X99169000Y-78257638D01*
X99173445Y-78212501D01*
X99184820Y-78175005D01*
X99203292Y-78140446D01*
X99228153Y-78110153D01*
X99258446Y-78085292D01*
X99293005Y-78066820D01*
X99330501Y-78055445D01*
X99375638Y-78051000D01*
X100014362Y-78051000D01*
X100059499Y-78055445D01*
G37*
G36*
X104026562Y-77399681D02*
G01*
X104061481Y-77410274D01*
X104093663Y-77427476D01*
X104121873Y-77450627D01*
X104145024Y-77478837D01*
X104162226Y-77511019D01*
X104172819Y-77545938D01*
X104177000Y-77588395D01*
X104177000Y-78729605D01*
X104172819Y-78772062D01*
X104162226Y-78806981D01*
X104145024Y-78839163D01*
X104121873Y-78867373D01*
X104093663Y-78890524D01*
X104061481Y-78907726D01*
X104026562Y-78918319D01*
X103984105Y-78922500D01*
X102517895Y-78922500D01*
X102475438Y-78918319D01*
X102440519Y-78907726D01*
X102408337Y-78890524D01*
X102380127Y-78867373D01*
X102356976Y-78839163D01*
X102339774Y-78806981D01*
X102329181Y-78772062D01*
X102325000Y-78729605D01*
X102325000Y-77588395D01*
X102329181Y-77545938D01*
X102339774Y-77511019D01*
X102356976Y-77478837D01*
X102380127Y-77450627D01*
X102408337Y-77427476D01*
X102440519Y-77410274D01*
X102475438Y-77399681D01*
X102517895Y-77395500D01*
X103984105Y-77395500D01*
X104026562Y-77399681D01*
G37*
G36*
X83041499Y-77759445D02*
G01*
X83078995Y-77770820D01*
X83113554Y-77789292D01*
X83143847Y-77814153D01*
X83168708Y-77844446D01*
X83187180Y-77879005D01*
X83198555Y-77916501D01*
X83203000Y-77961638D01*
X83203000Y-78700362D01*
X83198555Y-78745499D01*
X83187180Y-78782995D01*
X83168708Y-78817554D01*
X83143847Y-78847847D01*
X83113554Y-78872708D01*
X83078995Y-78891180D01*
X83041499Y-78902555D01*
X82996362Y-78907000D01*
X82357638Y-78907000D01*
X82312501Y-78902555D01*
X82275005Y-78891180D01*
X82240446Y-78872708D01*
X82210153Y-78847847D01*
X82185292Y-78817554D01*
X82166820Y-78782995D01*
X82155445Y-78745499D01*
X82151000Y-78700362D01*
X82151000Y-77961638D01*
X82155445Y-77916501D01*
X82166820Y-77879005D01*
X82185292Y-77844446D01*
X82210153Y-77814153D01*
X82240446Y-77789292D01*
X82275005Y-77770820D01*
X82312501Y-77759445D01*
X82357638Y-77755000D01*
X82996362Y-77755000D01*
X83041499Y-77759445D01*
G37*
G36*
X71360512Y-76700927D02*
G01*
X71509812Y-76730624D01*
X71673784Y-76798544D01*
X71821354Y-76897147D01*
X71946853Y-77022646D01*
X72045456Y-77170216D01*
X72113376Y-77334188D01*
X72148000Y-77508259D01*
X72148000Y-77685741D01*
X72113376Y-77859812D01*
X72045456Y-78023784D01*
X71946853Y-78171354D01*
X71821354Y-78296853D01*
X71673784Y-78395456D01*
X71509812Y-78463376D01*
X71360512Y-78493073D01*
X71335742Y-78498000D01*
X71158258Y-78498000D01*
X71133488Y-78493073D01*
X70984188Y-78463376D01*
X70820216Y-78395456D01*
X70672646Y-78296853D01*
X70547147Y-78171354D01*
X70448544Y-78023784D01*
X70380624Y-77859812D01*
X70346000Y-77685741D01*
X70346000Y-77508259D01*
X70380624Y-77334188D01*
X70448544Y-77170216D01*
X70547147Y-77022646D01*
X70672646Y-76897147D01*
X70820216Y-76798544D01*
X70984188Y-76730624D01*
X71133488Y-76700927D01*
X71158258Y-76696000D01*
X71335742Y-76696000D01*
X71360512Y-76700927D01*
G37*
G36*
X68820512Y-76700927D02*
G01*
X68969812Y-76730624D01*
X69133784Y-76798544D01*
X69281354Y-76897147D01*
X69406853Y-77022646D01*
X69505456Y-77170216D01*
X69573376Y-77334188D01*
X69608000Y-77508259D01*
X69608000Y-77685741D01*
X69573376Y-77859812D01*
X69505456Y-78023784D01*
X69406853Y-78171354D01*
X69281354Y-78296853D01*
X69133784Y-78395456D01*
X68969812Y-78463376D01*
X68820512Y-78493073D01*
X68795742Y-78498000D01*
X68618258Y-78498000D01*
X68593488Y-78493073D01*
X68444188Y-78463376D01*
X68280216Y-78395456D01*
X68132646Y-78296853D01*
X68007147Y-78171354D01*
X67908544Y-78023784D01*
X67840624Y-77859812D01*
X67806000Y-77685741D01*
X67806000Y-77508259D01*
X67840624Y-77334188D01*
X67908544Y-77170216D01*
X68007147Y-77022646D01*
X68132646Y-76897147D01*
X68280216Y-76798544D01*
X68444188Y-76730624D01*
X68593488Y-76700927D01*
X68618258Y-76696000D01*
X68795742Y-76696000D01*
X68820512Y-76700927D01*
G37*
G36*
X98017213Y-76622249D02*
G01*
X98111652Y-76650897D01*
X98198687Y-76697418D01*
X98274975Y-76760025D01*
X98337582Y-76836313D01*
X98384103Y-76923348D01*
X98412751Y-77017787D01*
X98420000Y-77091388D01*
X98420000Y-77940612D01*
X98412751Y-78014213D01*
X98384103Y-78108652D01*
X98337582Y-78195687D01*
X98274975Y-78271975D01*
X98198687Y-78334582D01*
X98111651Y-78381103D01*
X98017212Y-78409751D01*
X97919000Y-78419424D01*
X97820787Y-78409751D01*
X97726348Y-78381103D01*
X97639313Y-78334582D01*
X97563025Y-78271975D01*
X97500418Y-78195687D01*
X97453897Y-78108651D01*
X97425249Y-78014212D01*
X97418000Y-77940611D01*
X97418000Y-77091398D01*
X97425250Y-77017786D01*
X97436904Y-76979369D01*
X97453898Y-76923348D01*
X97500419Y-76836313D01*
X97563026Y-76760025D01*
X97639314Y-76697418D01*
X97726349Y-76650897D01*
X97820788Y-76622249D01*
X97919000Y-76612576D01*
X98017213Y-76622249D01*
G37*
G36*
X89377213Y-76622249D02*
G01*
X89471652Y-76650897D01*
X89558687Y-76697418D01*
X89634975Y-76760025D01*
X89697582Y-76836313D01*
X89744103Y-76923348D01*
X89772751Y-77017787D01*
X89780000Y-77091388D01*
X89780000Y-77940612D01*
X89772751Y-78014213D01*
X89744103Y-78108652D01*
X89697582Y-78195687D01*
X89634975Y-78271975D01*
X89558687Y-78334582D01*
X89471651Y-78381103D01*
X89377212Y-78409751D01*
X89279000Y-78419424D01*
X89180787Y-78409751D01*
X89086348Y-78381103D01*
X88999313Y-78334582D01*
X88923025Y-78271975D01*
X88860418Y-78195687D01*
X88813897Y-78108651D01*
X88785249Y-78014212D01*
X88778000Y-77940611D01*
X88778000Y-77091398D01*
X88785250Y-77017786D01*
X88796904Y-76979369D01*
X88813898Y-76923348D01*
X88860419Y-76836313D01*
X88923026Y-76760025D01*
X88999314Y-76697418D01*
X89086349Y-76650897D01*
X89180788Y-76622249D01*
X89279000Y-76612576D01*
X89377213Y-76622249D01*
G37*
G36*
X86978499Y-76531445D02*
G01*
X87015995Y-76542820D01*
X87050554Y-76561292D01*
X87080847Y-76586153D01*
X87105708Y-76616446D01*
X87124180Y-76651005D01*
X87135555Y-76688501D01*
X87140000Y-76733638D01*
X87140000Y-77472362D01*
X87135555Y-77517499D01*
X87124180Y-77554995D01*
X87105708Y-77589554D01*
X87080847Y-77619847D01*
X87050554Y-77644708D01*
X87015995Y-77663180D01*
X86978499Y-77674555D01*
X86933362Y-77679000D01*
X86294638Y-77679000D01*
X86249501Y-77674555D01*
X86212005Y-77663180D01*
X86177446Y-77644708D01*
X86147153Y-77619847D01*
X86122292Y-77589554D01*
X86103820Y-77554995D01*
X86092445Y-77517499D01*
X86088000Y-77472362D01*
X86088000Y-76733638D01*
X86092445Y-76688501D01*
X86103820Y-76651005D01*
X86122292Y-76616446D01*
X86147153Y-76586153D01*
X86177446Y-76561292D01*
X86212005Y-76542820D01*
X86249501Y-76531445D01*
X86294638Y-76527000D01*
X86933362Y-76527000D01*
X86978499Y-76531445D01*
G37*
G36*
X100059499Y-76390445D02*
G01*
X100096995Y-76401820D01*
X100131554Y-76420292D01*
X100161847Y-76445153D01*
X100186708Y-76475446D01*
X100205180Y-76510005D01*
X100216555Y-76547501D01*
X100221000Y-76592638D01*
X100221000Y-77331362D01*
X100216555Y-77376499D01*
X100205180Y-77413995D01*
X100186708Y-77448554D01*
X100161847Y-77478847D01*
X100131554Y-77503708D01*
X100096995Y-77522180D01*
X100059499Y-77533555D01*
X100014362Y-77538000D01*
X99375638Y-77538000D01*
X99330501Y-77533555D01*
X99293005Y-77522180D01*
X99258446Y-77503708D01*
X99228153Y-77478847D01*
X99203292Y-77448554D01*
X99184820Y-77413995D01*
X99173445Y-77376499D01*
X99169000Y-77331362D01*
X99169000Y-76592638D01*
X99173445Y-76547501D01*
X99184820Y-76510005D01*
X99203292Y-76475446D01*
X99228153Y-76445153D01*
X99258446Y-76420292D01*
X99293005Y-76401820D01*
X99330501Y-76390445D01*
X99375638Y-76386000D01*
X100014362Y-76386000D01*
X100059499Y-76390445D01*
G37*
G36*
X101583499Y-76376445D02*
G01*
X101620995Y-76387820D01*
X101655554Y-76406292D01*
X101685847Y-76431153D01*
X101710708Y-76461446D01*
X101729180Y-76496005D01*
X101740555Y-76533501D01*
X101745000Y-76578638D01*
X101745000Y-77317362D01*
X101740555Y-77362499D01*
X101729180Y-77399995D01*
X101710708Y-77434554D01*
X101685847Y-77464847D01*
X101655554Y-77489708D01*
X101620995Y-77508180D01*
X101583499Y-77519555D01*
X101538362Y-77524000D01*
X100899638Y-77524000D01*
X100854501Y-77519555D01*
X100817005Y-77508180D01*
X100782446Y-77489708D01*
X100752153Y-77464847D01*
X100727292Y-77434554D01*
X100708820Y-77399995D01*
X100697445Y-77362499D01*
X100693000Y-77317362D01*
X100693000Y-76578638D01*
X100697445Y-76533501D01*
X100708820Y-76496005D01*
X100727292Y-76461446D01*
X100752153Y-76431153D01*
X100782446Y-76406292D01*
X100817005Y-76387820D01*
X100854501Y-76376445D01*
X100899638Y-76372000D01*
X101538362Y-76372000D01*
X101583499Y-76376445D01*
G37*
G36*
X111176062Y-74447181D02*
G01*
X111210981Y-74457774D01*
X111243163Y-74474976D01*
X111271373Y-74498127D01*
X111294524Y-74526337D01*
X111311726Y-74558519D01*
X111322319Y-74593438D01*
X111326500Y-74635895D01*
X111326500Y-77002105D01*
X111322319Y-77044562D01*
X111311726Y-77079481D01*
X111294524Y-77111663D01*
X111271373Y-77139873D01*
X111243163Y-77163024D01*
X111210981Y-77180226D01*
X111176062Y-77190819D01*
X111133605Y-77195000D01*
X109992395Y-77195000D01*
X109949938Y-77190819D01*
X109915019Y-77180226D01*
X109882837Y-77163024D01*
X109854627Y-77139873D01*
X109831476Y-77111663D01*
X109814274Y-77079481D01*
X109803681Y-77044562D01*
X109799500Y-77002105D01*
X109799500Y-74635895D01*
X109803681Y-74593438D01*
X109814274Y-74558519D01*
X109831476Y-74526337D01*
X109854627Y-74498127D01*
X109882837Y-74474976D01*
X109915019Y-74457774D01*
X109949938Y-74447181D01*
X109992395Y-74443000D01*
X111133605Y-74443000D01*
X111176062Y-74447181D01*
G37*
G36*
X114151062Y-74447181D02*
G01*
X114185981Y-74457774D01*
X114218163Y-74474976D01*
X114246373Y-74498127D01*
X114269524Y-74526337D01*
X114286726Y-74558519D01*
X114297319Y-74593438D01*
X114301500Y-74635895D01*
X114301500Y-77002105D01*
X114297319Y-77044562D01*
X114286726Y-77079481D01*
X114269524Y-77111663D01*
X114246373Y-77139873D01*
X114218163Y-77163024D01*
X114185981Y-77180226D01*
X114151062Y-77190819D01*
X114108605Y-77195000D01*
X112967395Y-77195000D01*
X112924938Y-77190819D01*
X112890019Y-77180226D01*
X112857837Y-77163024D01*
X112829627Y-77139873D01*
X112806476Y-77111663D01*
X112789274Y-77079481D01*
X112778681Y-77044562D01*
X112774500Y-77002105D01*
X112774500Y-74635895D01*
X112778681Y-74593438D01*
X112789274Y-74558519D01*
X112806476Y-74526337D01*
X112829627Y-74498127D01*
X112857837Y-74474976D01*
X112890019Y-74457774D01*
X112924938Y-74447181D01*
X112967395Y-74443000D01*
X114108605Y-74443000D01*
X114151062Y-74447181D01*
G37*
G36*
X83041499Y-76009445D02*
G01*
X83078995Y-76020820D01*
X83113554Y-76039292D01*
X83143847Y-76064153D01*
X83168708Y-76094446D01*
X83187180Y-76129005D01*
X83198555Y-76166501D01*
X83203000Y-76211638D01*
X83203000Y-76950362D01*
X83198555Y-76995499D01*
X83187180Y-77032995D01*
X83168708Y-77067554D01*
X83143847Y-77097847D01*
X83113554Y-77122708D01*
X83078995Y-77141180D01*
X83041499Y-77152555D01*
X82996362Y-77157000D01*
X82357638Y-77157000D01*
X82312501Y-77152555D01*
X82275005Y-77141180D01*
X82240446Y-77122708D01*
X82210153Y-77097847D01*
X82185292Y-77067554D01*
X82166820Y-77032995D01*
X82155445Y-76995499D01*
X82151000Y-76950362D01*
X82151000Y-76211638D01*
X82155445Y-76166501D01*
X82166820Y-76129005D01*
X82185292Y-76094446D01*
X82210153Y-76064153D01*
X82240446Y-76039292D01*
X82275005Y-76020820D01*
X82312501Y-76009445D01*
X82357638Y-76005000D01*
X82996362Y-76005000D01*
X83041499Y-76009445D01*
G37*
G36*
X109085000Y-76466000D02*
G01*
X108183000Y-76466000D01*
X108183000Y-74664000D01*
X109085000Y-74664000D01*
X109085000Y-76466000D01*
G37*
G36*
X105685000Y-76466000D02*
G01*
X104783000Y-76466000D01*
X104783000Y-74664000D01*
X105685000Y-74664000D01*
X105685000Y-76466000D01*
G37*
G36*
X104026562Y-74424681D02*
G01*
X104061481Y-74435274D01*
X104093663Y-74452476D01*
X104121873Y-74475627D01*
X104145024Y-74503837D01*
X104162226Y-74536019D01*
X104172819Y-74570938D01*
X104177000Y-74613395D01*
X104177000Y-75754605D01*
X104172819Y-75797062D01*
X104162226Y-75831981D01*
X104145024Y-75864163D01*
X104121873Y-75892373D01*
X104093663Y-75915524D01*
X104061481Y-75932726D01*
X104026562Y-75943319D01*
X103984105Y-75947500D01*
X102517895Y-75947500D01*
X102475438Y-75943319D01*
X102440519Y-75932726D01*
X102408337Y-75915524D01*
X102380127Y-75892373D01*
X102356976Y-75864163D01*
X102339774Y-75831981D01*
X102329181Y-75797062D01*
X102325000Y-75754605D01*
X102325000Y-74613395D01*
X102329181Y-74570938D01*
X102339774Y-74536019D01*
X102356976Y-74503837D01*
X102380127Y-74475627D01*
X102408337Y-74452476D01*
X102440519Y-74435274D01*
X102475438Y-74424681D01*
X102517895Y-74420500D01*
X103984105Y-74420500D01*
X104026562Y-74424681D01*
G37*
G36*
X100059499Y-74640445D02*
G01*
X100096995Y-74651820D01*
X100131554Y-74670292D01*
X100161847Y-74695153D01*
X100186708Y-74725446D01*
X100205180Y-74760005D01*
X100216555Y-74797501D01*
X100221000Y-74842638D01*
X100221000Y-75581362D01*
X100216555Y-75626499D01*
X100205180Y-75663995D01*
X100186708Y-75698554D01*
X100161847Y-75728847D01*
X100131554Y-75753708D01*
X100096995Y-75772180D01*
X100059499Y-75783555D01*
X100014362Y-75788000D01*
X99375638Y-75788000D01*
X99330501Y-75783555D01*
X99293005Y-75772180D01*
X99258446Y-75753708D01*
X99228153Y-75728847D01*
X99203292Y-75698554D01*
X99184820Y-75663995D01*
X99173445Y-75626499D01*
X99169000Y-75581362D01*
X99169000Y-74842638D01*
X99173445Y-74797501D01*
X99184820Y-74760005D01*
X99203292Y-74725446D01*
X99228153Y-74695153D01*
X99258446Y-74670292D01*
X99293005Y-74651820D01*
X99330501Y-74640445D01*
X99375638Y-74636000D01*
X100014362Y-74636000D01*
X100059499Y-74640445D01*
G37*
G36*
X101583499Y-74626445D02*
G01*
X101620995Y-74637820D01*
X101655554Y-74656292D01*
X101685847Y-74681153D01*
X101710708Y-74711446D01*
X101729180Y-74746005D01*
X101740555Y-74783501D01*
X101745000Y-74828638D01*
X101745000Y-75567362D01*
X101740555Y-75612499D01*
X101729180Y-75649995D01*
X101710708Y-75684554D01*
X101685847Y-75714847D01*
X101655554Y-75739708D01*
X101620995Y-75758180D01*
X101583499Y-75769555D01*
X101538362Y-75774000D01*
X100899638Y-75774000D01*
X100854501Y-75769555D01*
X100817005Y-75758180D01*
X100782446Y-75739708D01*
X100752153Y-75714847D01*
X100727292Y-75684554D01*
X100708820Y-75649995D01*
X100697445Y-75612499D01*
X100693000Y-75567362D01*
X100693000Y-74828638D01*
X100697445Y-74783501D01*
X100708820Y-74746005D01*
X100727292Y-74711446D01*
X100752153Y-74681153D01*
X100782446Y-74656292D01*
X100817005Y-74637820D01*
X100854501Y-74626445D01*
X100899638Y-74622000D01*
X101538362Y-74622000D01*
X101583499Y-74626445D01*
G37*
G36*
X85278499Y-74535445D02*
G01*
X85315995Y-74546820D01*
X85350554Y-74565292D01*
X85380847Y-74590153D01*
X85405708Y-74620446D01*
X85424180Y-74655005D01*
X85435555Y-74692501D01*
X85440000Y-74737638D01*
X85440000Y-75376362D01*
X85435555Y-75421499D01*
X85424180Y-75458995D01*
X85405708Y-75493554D01*
X85380847Y-75523847D01*
X85350554Y-75548708D01*
X85315995Y-75567180D01*
X85278499Y-75578555D01*
X85233362Y-75583000D01*
X84494638Y-75583000D01*
X84449501Y-75578555D01*
X84412005Y-75567180D01*
X84377446Y-75548708D01*
X84347153Y-75523847D01*
X84322292Y-75493554D01*
X84303820Y-75458995D01*
X84292445Y-75421499D01*
X84288000Y-75376362D01*
X84288000Y-74737638D01*
X84292445Y-74692501D01*
X84303820Y-74655005D01*
X84322292Y-74620446D01*
X84347153Y-74590153D01*
X84377446Y-74565292D01*
X84412005Y-74546820D01*
X84449501Y-74535445D01*
X84494638Y-74531000D01*
X85233362Y-74531000D01*
X85278499Y-74535445D01*
G37*
G36*
X87028499Y-74535445D02*
G01*
X87065995Y-74546820D01*
X87100554Y-74565292D01*
X87130847Y-74590153D01*
X87155708Y-74620446D01*
X87174180Y-74655005D01*
X87185555Y-74692501D01*
X87190000Y-74737638D01*
X87190000Y-75376362D01*
X87185555Y-75421499D01*
X87174180Y-75458995D01*
X87155708Y-75493554D01*
X87130847Y-75523847D01*
X87100554Y-75548708D01*
X87065995Y-75567180D01*
X87028499Y-75578555D01*
X86983362Y-75583000D01*
X86244638Y-75583000D01*
X86199501Y-75578555D01*
X86162005Y-75567180D01*
X86127446Y-75548708D01*
X86097153Y-75523847D01*
X86072292Y-75493554D01*
X86053820Y-75458995D01*
X86042445Y-75421499D01*
X86038000Y-75376362D01*
X86038000Y-74737638D01*
X86042445Y-74692501D01*
X86053820Y-74655005D01*
X86072292Y-74620446D01*
X86097153Y-74590153D01*
X86127446Y-74565292D01*
X86162005Y-74546820D01*
X86199501Y-74535445D01*
X86244638Y-74531000D01*
X86983362Y-74531000D01*
X87028499Y-74535445D01*
G37*
M02*
