M48
; DRILL file {KiCad (5.1.5)-2} date 13-3-2021 02:14:39
; FORMAT={-:-/ absolute / inch / decimal}
; #@! TF.CreationDate,2021-03-13T02:14:39+01:00
; #@! TF.GenerationSoftware,Kicad,Pcbnew,(5.1.5)-2
; #@! TF.FileFunction,Plated,1,2,PTH
FMAT,2
INCH
T1C0.0118
T2C0.0157
T3C0.0197
T4C0.0236
T5C0.0394
T6C0.0433
%
G90
G05
T1
X3.853Y-4.0112
X3.878Y-4.1462
X3.913Y-3.7637
X4.093Y-4.0462
X4.123Y-4.3162
X4.128Y-4.1412
X4.153Y-3.7512
X4.173Y-4.1412
X4.205Y-4.305
X4.238Y-4.1412
X4.238Y-4.2862
X4.2558Y-3.9308
X4.296Y-4.006
X4.2985Y-3.9685
X4.305Y-4.05
X4.33Y-4.1
X4.3402Y-3.8848
X4.345Y-3.81
X4.3581Y-4.0
X4.395Y-4.13
X4.405Y-3.97
X4.445Y-3.82
X4.45Y-4.145
X4.49Y-4.145
T2
X2.6Y-4.595
X2.665Y-4.525
X2.675Y-3.35
X2.68Y-4.16
X2.68Y-4.205
X2.69Y-4.78
X2.725Y-4.16
X2.725Y-4.205
X2.735Y-4.815
X2.805Y-3.485
X2.805Y-4.195
X2.815Y-4.545
X2.835Y-3.565
X2.835Y-3.72
X2.8377Y-3.78
X2.84Y-4.22
X2.9Y-3.2
X2.9Y-4.225
X2.915Y-4.515
X2.925Y-4.555
X2.95Y-3.515
X2.98Y-4.535
X2.99Y-3.26
X2.99Y-4.435
X3.01Y-3.215
X3.015Y-4.74
X3.02Y-3.52
X3.035Y-3.26
X3.06Y-4.74
X3.07Y-3.525
X3.08Y-3.74
X3.09Y-4.545
X3.1Y-4.74
X3.105Y-4.435
X3.145Y-4.13
X3.145Y-4.18
X3.15Y-3.865
X3.195Y-4.13
X3.195Y-4.18
X3.205Y-3.91
X3.205Y-4.525
X3.245Y-4.18
X3.26Y-3.905
X3.265Y-3.74
X3.33Y-4.625
X3.34Y-3.57
X3.34Y-4.445
X3.38Y-4.265
X3.385Y-3.495
X3.405Y-4.7
X3.47Y-4.41
X3.51Y-3.525
X3.565Y-4.735
X3.665Y-4.0
X3.68Y-3.645
X3.68Y-3.95
X3.705Y-3.99
X3.75Y-4.69
X3.77Y-3.755
X3.77Y-3.795
X3.77Y-3.835
X3.785Y-4.075
X3.79Y-4.65
X3.83Y-4.61
X3.833Y-4.1062
X3.87Y-4.57
X3.925Y-4.32
X3.965Y-3.845
X3.965Y-3.885
X3.97Y-3.935
X3.97Y-4.315
X4.015Y-4.315
X4.1Y-3.235
X4.1Y-3.405
X4.13Y-4.455
X4.155Y-3.235
X4.155Y-3.435
X4.19Y-3.91
X4.215Y-3.04
X4.215Y-3.13
X4.22Y-3.085
X4.225Y-4.4265
X4.285Y-3.25
X4.395Y-3.25
X4.4125Y-3.1325
X4.445Y-3.31
X4.49Y-4.01
X4.49Y-4.05
X4.535Y-3.095
X4.535Y-3.145
X4.535Y-3.19
X4.535Y-3.235
X4.63Y-4.01
X4.63Y-4.05
T3
X3.18Y-3.09
X3.18Y-3.175
X4.425Y-3.585
X4.54Y-3.395
X4.545Y-4.45
X4.58Y-3.81
T5
X3.495Y-3.665
X3.495Y-3.765
X3.495Y-3.865
X3.495Y-3.965
X3.495Y-4.065
X3.595Y-3.665
X3.595Y-3.765
X3.595Y-3.865
X3.595Y-3.965
X3.595Y-4.065
X3.765Y-3.925
X2.705Y-3.055
X2.705Y-3.155
X2.705Y-3.255
X2.805Y-3.055
X2.805Y-3.155
X2.805Y-3.255
X3.773Y-3.6462
X3.873Y-3.6462
X3.973Y-3.6462
X4.073Y-3.6462
X4.173Y-3.6462
X4.273Y-3.6462
X4.373Y-3.6462
X4.473Y-3.6462
X3.615Y-4.35
X3.615Y-4.45
X3.615Y-4.55
X3.615Y-4.65
X3.773Y-4.3912
X3.873Y-4.3912
X3.973Y-4.3912
X4.073Y-4.3912
X4.173Y-4.3912
X4.273Y-4.3912
X4.373Y-4.3912
X4.473Y-4.3912
T6
X2.945Y-4.645
X3.045Y-4.645
X2.96Y-3.13
X3.06Y-3.13
X2.685Y-4.645
X2.785Y-4.645
T4
G00X3.5149Y-3.0361
M15
G01X3.5149Y-3.0676
M16
G05
G00X3.5149Y-3.1943
M15
G01X3.5149Y-3.2376
M16
G05
G00X3.8551Y-3.0361
M15
G01X3.8551Y-3.0676
M16
G05
G00X3.8551Y-3.1943
M15
G01X3.8551Y-3.2376
M16
G05
T0
M30
