G04 #@! TF.GenerationSoftware,KiCad,Pcbnew,(5.1.5)-2*
G04 #@! TF.CreationDate,2021-03-29T00:27:03+02:00*
G04 #@! TF.ProjectId,Versie1,56657273-6965-4312-9e6b-696361645f70,rev?*
G04 #@! TF.SameCoordinates,Original*
G04 #@! TF.FileFunction,Soldermask,Bot*
G04 #@! TF.FilePolarity,Negative*
%FSLAX46Y46*%
G04 Gerber Fmt 4.6, Leading zero omitted, Abs format (unit mm)*
G04 Created by KiCad (PCBNEW (5.1.5)-2) date 2021-03-29 00:27:03*
%MOMM*%
%LPD*%
G04 APERTURE LIST*
%ADD10C,0.100000*%
G04 APERTURE END LIST*
D10*
G36*
X115375256Y-118391298D02*
G01*
X115481579Y-118412447D01*
X115782042Y-118536903D01*
X116052451Y-118717585D01*
X116282415Y-118947549D01*
X116463097Y-119217958D01*
X116587553Y-119518421D01*
X116651000Y-119837391D01*
X116651000Y-120162609D01*
X116587553Y-120481579D01*
X116463097Y-120782042D01*
X116282415Y-121052451D01*
X116052451Y-121282415D01*
X115782042Y-121463097D01*
X115481579Y-121587553D01*
X115375256Y-121608702D01*
X115162611Y-121651000D01*
X114837389Y-121651000D01*
X114624744Y-121608702D01*
X114518421Y-121587553D01*
X114217958Y-121463097D01*
X113947549Y-121282415D01*
X113717585Y-121052451D01*
X113536903Y-120782042D01*
X113412447Y-120481579D01*
X113349000Y-120162609D01*
X113349000Y-119837391D01*
X113412447Y-119518421D01*
X113536903Y-119217958D01*
X113717585Y-118947549D01*
X113947549Y-118717585D01*
X114217958Y-118536903D01*
X114518421Y-118412447D01*
X114624744Y-118391298D01*
X114837389Y-118349000D01*
X115162611Y-118349000D01*
X115375256Y-118391298D01*
G37*
G36*
X63375256Y-118391298D02*
G01*
X63481579Y-118412447D01*
X63782042Y-118536903D01*
X64052451Y-118717585D01*
X64282415Y-118947549D01*
X64463097Y-119217958D01*
X64587553Y-119518421D01*
X64651000Y-119837391D01*
X64651000Y-120162609D01*
X64587553Y-120481579D01*
X64463097Y-120782042D01*
X64282415Y-121052451D01*
X64052451Y-121282415D01*
X63782042Y-121463097D01*
X63481579Y-121587553D01*
X63375256Y-121608702D01*
X63162611Y-121651000D01*
X62837389Y-121651000D01*
X62624744Y-121608702D01*
X62518421Y-121587553D01*
X62217958Y-121463097D01*
X61947549Y-121282415D01*
X61717585Y-121052451D01*
X61536903Y-120782042D01*
X61412447Y-120481579D01*
X61349000Y-120162609D01*
X61349000Y-119837391D01*
X61412447Y-119518421D01*
X61536903Y-119217958D01*
X61717585Y-118947549D01*
X61947549Y-118717585D01*
X62217958Y-118536903D01*
X62518421Y-118412447D01*
X62624744Y-118391298D01*
X62837389Y-118349000D01*
X63162611Y-118349000D01*
X63375256Y-118391298D01*
G37*
G36*
X78444000Y-119084000D02*
G01*
X76242000Y-119084000D01*
X76242000Y-116882000D01*
X78444000Y-116882000D01*
X78444000Y-119084000D01*
G37*
G36*
X75017795Y-116903156D02*
G01*
X75124150Y-116924311D01*
X75324520Y-117007307D01*
X75504844Y-117127795D01*
X75658205Y-117281156D01*
X75778693Y-117461480D01*
X75778693Y-117461481D01*
X75861689Y-117661850D01*
X75904000Y-117874561D01*
X75904000Y-118091439D01*
X75861689Y-118304150D01*
X75833248Y-118372812D01*
X75778693Y-118504520D01*
X75658205Y-118684844D01*
X75504844Y-118838205D01*
X75324520Y-118958693D01*
X75281829Y-118976376D01*
X75124150Y-119041689D01*
X75017794Y-119062845D01*
X74911440Y-119084000D01*
X74694560Y-119084000D01*
X74588206Y-119062845D01*
X74481850Y-119041689D01*
X74324171Y-118976376D01*
X74281480Y-118958693D01*
X74101156Y-118838205D01*
X73947795Y-118684844D01*
X73827307Y-118504520D01*
X73772752Y-118372812D01*
X73744311Y-118304150D01*
X73702000Y-118091439D01*
X73702000Y-117874561D01*
X73744311Y-117661850D01*
X73827307Y-117461481D01*
X73827307Y-117461480D01*
X73947795Y-117281156D01*
X74101156Y-117127795D01*
X74281480Y-117007307D01*
X74481850Y-116924311D01*
X74588205Y-116903156D01*
X74694560Y-116882000D01*
X74911440Y-116882000D01*
X75017795Y-116903156D01*
G37*
G36*
X71840000Y-119084000D02*
G01*
X69638000Y-119084000D01*
X69638000Y-116882000D01*
X71840000Y-116882000D01*
X71840000Y-119084000D01*
G37*
G36*
X68413795Y-116903156D02*
G01*
X68520150Y-116924311D01*
X68720520Y-117007307D01*
X68900844Y-117127795D01*
X69054205Y-117281156D01*
X69174693Y-117461480D01*
X69174693Y-117461481D01*
X69257689Y-117661850D01*
X69300000Y-117874561D01*
X69300000Y-118091439D01*
X69257689Y-118304150D01*
X69229248Y-118372812D01*
X69174693Y-118504520D01*
X69054205Y-118684844D01*
X68900844Y-118838205D01*
X68720520Y-118958693D01*
X68677829Y-118976376D01*
X68520150Y-119041689D01*
X68413794Y-119062845D01*
X68307440Y-119084000D01*
X68090560Y-119084000D01*
X67984206Y-119062845D01*
X67877850Y-119041689D01*
X67720171Y-118976376D01*
X67677480Y-118958693D01*
X67497156Y-118838205D01*
X67343795Y-118684844D01*
X67223307Y-118504520D01*
X67168752Y-118372812D01*
X67140311Y-118304150D01*
X67098000Y-118091439D01*
X67098000Y-117874561D01*
X67140311Y-117661850D01*
X67223307Y-117461481D01*
X67223307Y-117461480D01*
X67343795Y-117281156D01*
X67497156Y-117127795D01*
X67677480Y-117007307D01*
X67877850Y-116924311D01*
X67984205Y-116903156D01*
X68090560Y-116882000D01*
X68307440Y-116882000D01*
X68413795Y-116903156D01*
G37*
G36*
X91934512Y-117213927D02*
G01*
X92083812Y-117243624D01*
X92247784Y-117311544D01*
X92395354Y-117410147D01*
X92520853Y-117535646D01*
X92619456Y-117683216D01*
X92687376Y-117847188D01*
X92722000Y-118021259D01*
X92722000Y-118198741D01*
X92687376Y-118372812D01*
X92619456Y-118536784D01*
X92520853Y-118684354D01*
X92395354Y-118809853D01*
X92247784Y-118908456D01*
X92083812Y-118976376D01*
X91934512Y-119006073D01*
X91909742Y-119011000D01*
X91732258Y-119011000D01*
X91707488Y-119006073D01*
X91558188Y-118976376D01*
X91394216Y-118908456D01*
X91246646Y-118809853D01*
X91121147Y-118684354D01*
X91022544Y-118536784D01*
X90954624Y-118372812D01*
X90920000Y-118198741D01*
X90920000Y-118021259D01*
X90954624Y-117847188D01*
X91022544Y-117683216D01*
X91121147Y-117535646D01*
X91246646Y-117410147D01*
X91394216Y-117311544D01*
X91558188Y-117243624D01*
X91707488Y-117213927D01*
X91732258Y-117209000D01*
X91909742Y-117209000D01*
X91934512Y-117213927D01*
G37*
G36*
X91934512Y-114673927D02*
G01*
X92083812Y-114703624D01*
X92247784Y-114771544D01*
X92395354Y-114870147D01*
X92520853Y-114995646D01*
X92619456Y-115143216D01*
X92687376Y-115307188D01*
X92722000Y-115481259D01*
X92722000Y-115658741D01*
X92687376Y-115832812D01*
X92619456Y-115996784D01*
X92520853Y-116144354D01*
X92395354Y-116269853D01*
X92247784Y-116368456D01*
X92083812Y-116436376D01*
X91934512Y-116466073D01*
X91909742Y-116471000D01*
X91732258Y-116471000D01*
X91707488Y-116466073D01*
X91558188Y-116436376D01*
X91394216Y-116368456D01*
X91246646Y-116269853D01*
X91121147Y-116144354D01*
X91022544Y-115996784D01*
X90954624Y-115832812D01*
X90920000Y-115658741D01*
X90920000Y-115481259D01*
X90954624Y-115307188D01*
X91022544Y-115143216D01*
X91121147Y-114995646D01*
X91246646Y-114870147D01*
X91394216Y-114771544D01*
X91558188Y-114703624D01*
X91707488Y-114673927D01*
X91732258Y-114669000D01*
X91909742Y-114669000D01*
X91934512Y-114673927D01*
G37*
G36*
X91934512Y-112133927D02*
G01*
X92083812Y-112163624D01*
X92247784Y-112231544D01*
X92395354Y-112330147D01*
X92520853Y-112455646D01*
X92619456Y-112603216D01*
X92687376Y-112767188D01*
X92722000Y-112941259D01*
X92722000Y-113118741D01*
X92687376Y-113292812D01*
X92619456Y-113456784D01*
X92520853Y-113604354D01*
X92395354Y-113729853D01*
X92247784Y-113828456D01*
X92083812Y-113896376D01*
X91934512Y-113926073D01*
X91909742Y-113931000D01*
X91732258Y-113931000D01*
X91707488Y-113926073D01*
X91558188Y-113896376D01*
X91394216Y-113828456D01*
X91246646Y-113729853D01*
X91121147Y-113604354D01*
X91022544Y-113456784D01*
X90954624Y-113292812D01*
X90920000Y-113118741D01*
X90920000Y-112941259D01*
X90954624Y-112767188D01*
X91022544Y-112603216D01*
X91121147Y-112455646D01*
X91246646Y-112330147D01*
X91394216Y-112231544D01*
X91558188Y-112163624D01*
X91707488Y-112133927D01*
X91732258Y-112129000D01*
X91909742Y-112129000D01*
X91934512Y-112133927D01*
G37*
G36*
X96736000Y-112437500D02*
G01*
X94934000Y-112437500D01*
X94934000Y-110635500D01*
X96736000Y-110635500D01*
X96736000Y-112437500D01*
G37*
G36*
X106108512Y-110640427D02*
G01*
X106257812Y-110670124D01*
X106421784Y-110738044D01*
X106569354Y-110836647D01*
X106694853Y-110962146D01*
X106793456Y-111109716D01*
X106861376Y-111273688D01*
X106896000Y-111447759D01*
X106896000Y-111625241D01*
X106861376Y-111799312D01*
X106793456Y-111963284D01*
X106694853Y-112110854D01*
X106569354Y-112236353D01*
X106421784Y-112334956D01*
X106257812Y-112402876D01*
X106108512Y-112432573D01*
X106083742Y-112437500D01*
X105906258Y-112437500D01*
X105881488Y-112432573D01*
X105732188Y-112402876D01*
X105568216Y-112334956D01*
X105420646Y-112236353D01*
X105295147Y-112110854D01*
X105196544Y-111963284D01*
X105128624Y-111799312D01*
X105094000Y-111625241D01*
X105094000Y-111447759D01*
X105128624Y-111273688D01*
X105196544Y-111109716D01*
X105295147Y-110962146D01*
X105420646Y-110836647D01*
X105568216Y-110738044D01*
X105732188Y-110670124D01*
X105881488Y-110640427D01*
X105906258Y-110635500D01*
X106083742Y-110635500D01*
X106108512Y-110640427D01*
G37*
G36*
X103568512Y-110640427D02*
G01*
X103717812Y-110670124D01*
X103881784Y-110738044D01*
X104029354Y-110836647D01*
X104154853Y-110962146D01*
X104253456Y-111109716D01*
X104321376Y-111273688D01*
X104356000Y-111447759D01*
X104356000Y-111625241D01*
X104321376Y-111799312D01*
X104253456Y-111963284D01*
X104154853Y-112110854D01*
X104029354Y-112236353D01*
X103881784Y-112334956D01*
X103717812Y-112402876D01*
X103568512Y-112432573D01*
X103543742Y-112437500D01*
X103366258Y-112437500D01*
X103341488Y-112432573D01*
X103192188Y-112402876D01*
X103028216Y-112334956D01*
X102880646Y-112236353D01*
X102755147Y-112110854D01*
X102656544Y-111963284D01*
X102588624Y-111799312D01*
X102554000Y-111625241D01*
X102554000Y-111447759D01*
X102588624Y-111273688D01*
X102656544Y-111109716D01*
X102755147Y-110962146D01*
X102880646Y-110836647D01*
X103028216Y-110738044D01*
X103192188Y-110670124D01*
X103341488Y-110640427D01*
X103366258Y-110635500D01*
X103543742Y-110635500D01*
X103568512Y-110640427D01*
G37*
G36*
X101028512Y-110640427D02*
G01*
X101177812Y-110670124D01*
X101341784Y-110738044D01*
X101489354Y-110836647D01*
X101614853Y-110962146D01*
X101713456Y-111109716D01*
X101781376Y-111273688D01*
X101816000Y-111447759D01*
X101816000Y-111625241D01*
X101781376Y-111799312D01*
X101713456Y-111963284D01*
X101614853Y-112110854D01*
X101489354Y-112236353D01*
X101341784Y-112334956D01*
X101177812Y-112402876D01*
X101028512Y-112432573D01*
X101003742Y-112437500D01*
X100826258Y-112437500D01*
X100801488Y-112432573D01*
X100652188Y-112402876D01*
X100488216Y-112334956D01*
X100340646Y-112236353D01*
X100215147Y-112110854D01*
X100116544Y-111963284D01*
X100048624Y-111799312D01*
X100014000Y-111625241D01*
X100014000Y-111447759D01*
X100048624Y-111273688D01*
X100116544Y-111109716D01*
X100215147Y-110962146D01*
X100340646Y-110836647D01*
X100488216Y-110738044D01*
X100652188Y-110670124D01*
X100801488Y-110640427D01*
X100826258Y-110635500D01*
X101003742Y-110635500D01*
X101028512Y-110640427D01*
G37*
G36*
X98488512Y-110640427D02*
G01*
X98637812Y-110670124D01*
X98801784Y-110738044D01*
X98949354Y-110836647D01*
X99074853Y-110962146D01*
X99173456Y-111109716D01*
X99241376Y-111273688D01*
X99276000Y-111447759D01*
X99276000Y-111625241D01*
X99241376Y-111799312D01*
X99173456Y-111963284D01*
X99074853Y-112110854D01*
X98949354Y-112236353D01*
X98801784Y-112334956D01*
X98637812Y-112402876D01*
X98488512Y-112432573D01*
X98463742Y-112437500D01*
X98286258Y-112437500D01*
X98261488Y-112432573D01*
X98112188Y-112402876D01*
X97948216Y-112334956D01*
X97800646Y-112236353D01*
X97675147Y-112110854D01*
X97576544Y-111963284D01*
X97508624Y-111799312D01*
X97474000Y-111625241D01*
X97474000Y-111447759D01*
X97508624Y-111273688D01*
X97576544Y-111109716D01*
X97675147Y-110962146D01*
X97800646Y-110836647D01*
X97948216Y-110738044D01*
X98112188Y-110670124D01*
X98261488Y-110640427D01*
X98286258Y-110635500D01*
X98463742Y-110635500D01*
X98488512Y-110640427D01*
G37*
G36*
X111188512Y-110640427D02*
G01*
X111337812Y-110670124D01*
X111501784Y-110738044D01*
X111649354Y-110836647D01*
X111774853Y-110962146D01*
X111873456Y-111109716D01*
X111941376Y-111273688D01*
X111976000Y-111447759D01*
X111976000Y-111625241D01*
X111941376Y-111799312D01*
X111873456Y-111963284D01*
X111774853Y-112110854D01*
X111649354Y-112236353D01*
X111501784Y-112334956D01*
X111337812Y-112402876D01*
X111188512Y-112432573D01*
X111163742Y-112437500D01*
X110986258Y-112437500D01*
X110961488Y-112432573D01*
X110812188Y-112402876D01*
X110648216Y-112334956D01*
X110500646Y-112236353D01*
X110375147Y-112110854D01*
X110276544Y-111963284D01*
X110208624Y-111799312D01*
X110174000Y-111625241D01*
X110174000Y-111447759D01*
X110208624Y-111273688D01*
X110276544Y-111109716D01*
X110375147Y-110962146D01*
X110500646Y-110836647D01*
X110648216Y-110738044D01*
X110812188Y-110670124D01*
X110961488Y-110640427D01*
X110986258Y-110635500D01*
X111163742Y-110635500D01*
X111188512Y-110640427D01*
G37*
G36*
X113728512Y-110640427D02*
G01*
X113877812Y-110670124D01*
X114041784Y-110738044D01*
X114189354Y-110836647D01*
X114314853Y-110962146D01*
X114413456Y-111109716D01*
X114481376Y-111273688D01*
X114516000Y-111447759D01*
X114516000Y-111625241D01*
X114481376Y-111799312D01*
X114413456Y-111963284D01*
X114314853Y-112110854D01*
X114189354Y-112236353D01*
X114041784Y-112334956D01*
X113877812Y-112402876D01*
X113728512Y-112432573D01*
X113703742Y-112437500D01*
X113526258Y-112437500D01*
X113501488Y-112432573D01*
X113352188Y-112402876D01*
X113188216Y-112334956D01*
X113040646Y-112236353D01*
X112915147Y-112110854D01*
X112816544Y-111963284D01*
X112748624Y-111799312D01*
X112714000Y-111625241D01*
X112714000Y-111447759D01*
X112748624Y-111273688D01*
X112816544Y-111109716D01*
X112915147Y-110962146D01*
X113040646Y-110836647D01*
X113188216Y-110738044D01*
X113352188Y-110670124D01*
X113501488Y-110640427D01*
X113526258Y-110635500D01*
X113703742Y-110635500D01*
X113728512Y-110640427D01*
G37*
G36*
X108648512Y-110640427D02*
G01*
X108797812Y-110670124D01*
X108961784Y-110738044D01*
X109109354Y-110836647D01*
X109234853Y-110962146D01*
X109333456Y-111109716D01*
X109401376Y-111273688D01*
X109436000Y-111447759D01*
X109436000Y-111625241D01*
X109401376Y-111799312D01*
X109333456Y-111963284D01*
X109234853Y-112110854D01*
X109109354Y-112236353D01*
X108961784Y-112334956D01*
X108797812Y-112402876D01*
X108648512Y-112432573D01*
X108623742Y-112437500D01*
X108446258Y-112437500D01*
X108421488Y-112432573D01*
X108272188Y-112402876D01*
X108108216Y-112334956D01*
X107960646Y-112236353D01*
X107835147Y-112110854D01*
X107736544Y-111963284D01*
X107668624Y-111799312D01*
X107634000Y-111625241D01*
X107634000Y-111447759D01*
X107668624Y-111273688D01*
X107736544Y-111109716D01*
X107835147Y-110962146D01*
X107960646Y-110836647D01*
X108108216Y-110738044D01*
X108272188Y-110670124D01*
X108421488Y-110640427D01*
X108446258Y-110635500D01*
X108623742Y-110635500D01*
X108648512Y-110640427D01*
G37*
G36*
X92722000Y-111391000D02*
G01*
X90920000Y-111391000D01*
X90920000Y-109589000D01*
X92722000Y-109589000D01*
X92722000Y-111391000D01*
G37*
G36*
X96182000Y-108497000D02*
G01*
X93780000Y-108497000D01*
X93780000Y-106895000D01*
X96182000Y-106895000D01*
X96182000Y-108497000D01*
G37*
G36*
X96197000Y-105957000D02*
G01*
X93795000Y-105957000D01*
X93795000Y-104355000D01*
X96197000Y-104355000D01*
X96197000Y-105957000D01*
G37*
G36*
X88886512Y-102354927D02*
G01*
X89035812Y-102384624D01*
X89199784Y-102452544D01*
X89347354Y-102551147D01*
X89472853Y-102676646D01*
X89571456Y-102824216D01*
X89639376Y-102988188D01*
X89674000Y-103162259D01*
X89674000Y-103339741D01*
X89639376Y-103513812D01*
X89571456Y-103677784D01*
X89472853Y-103825354D01*
X89347354Y-103950853D01*
X89199784Y-104049456D01*
X89035812Y-104117376D01*
X88886512Y-104147073D01*
X88861742Y-104152000D01*
X88684258Y-104152000D01*
X88659488Y-104147073D01*
X88510188Y-104117376D01*
X88346216Y-104049456D01*
X88198646Y-103950853D01*
X88073147Y-103825354D01*
X87974544Y-103677784D01*
X87906624Y-103513812D01*
X87872000Y-103339741D01*
X87872000Y-103162259D01*
X87906624Y-102988188D01*
X87974544Y-102824216D01*
X88073147Y-102676646D01*
X88198646Y-102551147D01*
X88346216Y-102452544D01*
X88510188Y-102384624D01*
X88659488Y-102354927D01*
X88684258Y-102350000D01*
X88861742Y-102350000D01*
X88886512Y-102354927D01*
G37*
G36*
X91426512Y-102354927D02*
G01*
X91575812Y-102384624D01*
X91739784Y-102452544D01*
X91887354Y-102551147D01*
X92012853Y-102676646D01*
X92111456Y-102824216D01*
X92179376Y-102988188D01*
X92214000Y-103162259D01*
X92214000Y-103339741D01*
X92179376Y-103513812D01*
X92111456Y-103677784D01*
X92012853Y-103825354D01*
X91887354Y-103950853D01*
X91739784Y-104049456D01*
X91575812Y-104117376D01*
X91426512Y-104147073D01*
X91401742Y-104152000D01*
X91224258Y-104152000D01*
X91199488Y-104147073D01*
X91050188Y-104117376D01*
X90886216Y-104049456D01*
X90738646Y-103950853D01*
X90613147Y-103825354D01*
X90514544Y-103677784D01*
X90446624Y-103513812D01*
X90412000Y-103339741D01*
X90412000Y-103162259D01*
X90446624Y-102988188D01*
X90514544Y-102824216D01*
X90613147Y-102676646D01*
X90738646Y-102551147D01*
X90886216Y-102452544D01*
X91050188Y-102384624D01*
X91199488Y-102354927D01*
X91224258Y-102350000D01*
X91401742Y-102350000D01*
X91426512Y-102354927D01*
G37*
G36*
X113215000Y-104082500D02*
G01*
X110813000Y-104082500D01*
X110813000Y-102480500D01*
X113215000Y-102480500D01*
X113215000Y-104082500D01*
G37*
G36*
X88886512Y-99814927D02*
G01*
X89035812Y-99844624D01*
X89199784Y-99912544D01*
X89347354Y-100011147D01*
X89472853Y-100136646D01*
X89571456Y-100284216D01*
X89639376Y-100448188D01*
X89674000Y-100622259D01*
X89674000Y-100799741D01*
X89639376Y-100973812D01*
X89571456Y-101137784D01*
X89472853Y-101285354D01*
X89347354Y-101410853D01*
X89199784Y-101509456D01*
X89035812Y-101577376D01*
X88886512Y-101607073D01*
X88861742Y-101612000D01*
X88684258Y-101612000D01*
X88659488Y-101607073D01*
X88510188Y-101577376D01*
X88346216Y-101509456D01*
X88198646Y-101410853D01*
X88073147Y-101285354D01*
X87974544Y-101137784D01*
X87906624Y-100973812D01*
X87872000Y-100799741D01*
X87872000Y-100622259D01*
X87906624Y-100448188D01*
X87974544Y-100284216D01*
X88073147Y-100136646D01*
X88198646Y-100011147D01*
X88346216Y-99912544D01*
X88510188Y-99844624D01*
X88659488Y-99814927D01*
X88684258Y-99810000D01*
X88861742Y-99810000D01*
X88886512Y-99814927D01*
G37*
G36*
X91426512Y-99814927D02*
G01*
X91575812Y-99844624D01*
X91739784Y-99912544D01*
X91887354Y-100011147D01*
X92012853Y-100136646D01*
X92111456Y-100284216D01*
X92179376Y-100448188D01*
X92214000Y-100622259D01*
X92214000Y-100799741D01*
X92179376Y-100973812D01*
X92111456Y-101137784D01*
X92012853Y-101285354D01*
X91887354Y-101410853D01*
X91739784Y-101509456D01*
X91575812Y-101577376D01*
X91426512Y-101607073D01*
X91401742Y-101612000D01*
X91224258Y-101612000D01*
X91199488Y-101607073D01*
X91050188Y-101577376D01*
X90886216Y-101509456D01*
X90738646Y-101410853D01*
X90613147Y-101285354D01*
X90514544Y-101137784D01*
X90446624Y-100973812D01*
X90412000Y-100799741D01*
X90412000Y-100622259D01*
X90446624Y-100448188D01*
X90514544Y-100284216D01*
X90613147Y-100136646D01*
X90738646Y-100011147D01*
X90886216Y-99912544D01*
X91050188Y-99844624D01*
X91199488Y-99814927D01*
X91224258Y-99810000D01*
X91401742Y-99810000D01*
X91426512Y-99814927D01*
G37*
G36*
X96532000Y-100596000D02*
G01*
X94730000Y-100596000D01*
X94730000Y-98794000D01*
X96532000Y-98794000D01*
X96532000Y-100596000D01*
G37*
G36*
X91426512Y-97274927D02*
G01*
X91575812Y-97304624D01*
X91739784Y-97372544D01*
X91887354Y-97471147D01*
X92012853Y-97596646D01*
X92111456Y-97744216D01*
X92179376Y-97908188D01*
X92214000Y-98082259D01*
X92214000Y-98259741D01*
X92179376Y-98433812D01*
X92111456Y-98597784D01*
X92012853Y-98745354D01*
X91887354Y-98870853D01*
X91739784Y-98969456D01*
X91575812Y-99037376D01*
X91426512Y-99067073D01*
X91401742Y-99072000D01*
X91224258Y-99072000D01*
X91199488Y-99067073D01*
X91050188Y-99037376D01*
X90886216Y-98969456D01*
X90738646Y-98870853D01*
X90613147Y-98745354D01*
X90514544Y-98597784D01*
X90446624Y-98433812D01*
X90412000Y-98259741D01*
X90412000Y-98082259D01*
X90446624Y-97908188D01*
X90514544Y-97744216D01*
X90613147Y-97596646D01*
X90738646Y-97471147D01*
X90886216Y-97372544D01*
X91050188Y-97304624D01*
X91199488Y-97274927D01*
X91224258Y-97270000D01*
X91401742Y-97270000D01*
X91426512Y-97274927D01*
G37*
G36*
X88886512Y-97274927D02*
G01*
X89035812Y-97304624D01*
X89199784Y-97372544D01*
X89347354Y-97471147D01*
X89472853Y-97596646D01*
X89571456Y-97744216D01*
X89639376Y-97908188D01*
X89674000Y-98082259D01*
X89674000Y-98259741D01*
X89639376Y-98433812D01*
X89571456Y-98597784D01*
X89472853Y-98745354D01*
X89347354Y-98870853D01*
X89199784Y-98969456D01*
X89035812Y-99037376D01*
X88886512Y-99067073D01*
X88861742Y-99072000D01*
X88684258Y-99072000D01*
X88659488Y-99067073D01*
X88510188Y-99037376D01*
X88346216Y-98969456D01*
X88198646Y-98870853D01*
X88073147Y-98745354D01*
X87974544Y-98597784D01*
X87906624Y-98433812D01*
X87872000Y-98259741D01*
X87872000Y-98082259D01*
X87906624Y-97908188D01*
X87974544Y-97744216D01*
X88073147Y-97596646D01*
X88198646Y-97471147D01*
X88346216Y-97372544D01*
X88510188Y-97304624D01*
X88659488Y-97274927D01*
X88684258Y-97270000D01*
X88861742Y-97270000D01*
X88886512Y-97274927D01*
G37*
G36*
X88886512Y-94734927D02*
G01*
X89035812Y-94764624D01*
X89199784Y-94832544D01*
X89347354Y-94931147D01*
X89472853Y-95056646D01*
X89571456Y-95204216D01*
X89639376Y-95368188D01*
X89674000Y-95542259D01*
X89674000Y-95719741D01*
X89639376Y-95893812D01*
X89571456Y-96057784D01*
X89472853Y-96205354D01*
X89347354Y-96330853D01*
X89199784Y-96429456D01*
X89035812Y-96497376D01*
X88886512Y-96527073D01*
X88861742Y-96532000D01*
X88684258Y-96532000D01*
X88659488Y-96527073D01*
X88510188Y-96497376D01*
X88346216Y-96429456D01*
X88198646Y-96330853D01*
X88073147Y-96205354D01*
X87974544Y-96057784D01*
X87906624Y-95893812D01*
X87872000Y-95719741D01*
X87872000Y-95542259D01*
X87906624Y-95368188D01*
X87974544Y-95204216D01*
X88073147Y-95056646D01*
X88198646Y-94931147D01*
X88346216Y-94832544D01*
X88510188Y-94764624D01*
X88659488Y-94734927D01*
X88684258Y-94730000D01*
X88861742Y-94730000D01*
X88886512Y-94734927D01*
G37*
G36*
X91426512Y-94734927D02*
G01*
X91575812Y-94764624D01*
X91739784Y-94832544D01*
X91887354Y-94931147D01*
X92012853Y-95056646D01*
X92111456Y-95204216D01*
X92179376Y-95368188D01*
X92214000Y-95542259D01*
X92214000Y-95719741D01*
X92179376Y-95893812D01*
X92111456Y-96057784D01*
X92012853Y-96205354D01*
X91887354Y-96330853D01*
X91739784Y-96429456D01*
X91575812Y-96497376D01*
X91426512Y-96527073D01*
X91401742Y-96532000D01*
X91224258Y-96532000D01*
X91199488Y-96527073D01*
X91050188Y-96497376D01*
X90886216Y-96429456D01*
X90738646Y-96330853D01*
X90613147Y-96205354D01*
X90514544Y-96057784D01*
X90446624Y-95893812D01*
X90412000Y-95719741D01*
X90412000Y-95542259D01*
X90446624Y-95368188D01*
X90514544Y-95204216D01*
X90613147Y-95056646D01*
X90738646Y-94931147D01*
X90886216Y-94832544D01*
X91050188Y-94764624D01*
X91199488Y-94734927D01*
X91224258Y-94730000D01*
X91401742Y-94730000D01*
X91426512Y-94734927D01*
G37*
G36*
X113514000Y-96051000D02*
G01*
X109812000Y-96051000D01*
X109812000Y-94449000D01*
X113514000Y-94449000D01*
X113514000Y-96051000D01*
G37*
G36*
X91426512Y-92194927D02*
G01*
X91575812Y-92224624D01*
X91739784Y-92292544D01*
X91887354Y-92391147D01*
X92012853Y-92516646D01*
X92111456Y-92664216D01*
X92179376Y-92828188D01*
X92209073Y-92977488D01*
X92214000Y-93002258D01*
X92214000Y-93179742D01*
X92212386Y-93187854D01*
X92179376Y-93353812D01*
X92111456Y-93517784D01*
X92012853Y-93665354D01*
X91887354Y-93790853D01*
X91739784Y-93889456D01*
X91575812Y-93957376D01*
X91426512Y-93987073D01*
X91401742Y-93992000D01*
X91224258Y-93992000D01*
X91199488Y-93987073D01*
X91050188Y-93957376D01*
X90886216Y-93889456D01*
X90738646Y-93790853D01*
X90613147Y-93665354D01*
X90514544Y-93517784D01*
X90446624Y-93353812D01*
X90413614Y-93187854D01*
X90412000Y-93179742D01*
X90412000Y-93002258D01*
X90416927Y-92977488D01*
X90446624Y-92828188D01*
X90514544Y-92664216D01*
X90613147Y-92516646D01*
X90738646Y-92391147D01*
X90886216Y-92292544D01*
X91050188Y-92224624D01*
X91199488Y-92194927D01*
X91224258Y-92190000D01*
X91401742Y-92190000D01*
X91426512Y-92194927D01*
G37*
G36*
X89674000Y-93992000D02*
G01*
X87872000Y-93992000D01*
X87872000Y-92190000D01*
X89674000Y-92190000D01*
X89674000Y-93992000D01*
G37*
G36*
X98488512Y-91717427D02*
G01*
X98637812Y-91747124D01*
X98801784Y-91815044D01*
X98949354Y-91913647D01*
X99074853Y-92039146D01*
X99173456Y-92186716D01*
X99241376Y-92350688D01*
X99271073Y-92499988D01*
X99274387Y-92516647D01*
X99276000Y-92524759D01*
X99276000Y-92702241D01*
X99241376Y-92876312D01*
X99173456Y-93040284D01*
X99074853Y-93187854D01*
X98949354Y-93313353D01*
X98801784Y-93411956D01*
X98637812Y-93479876D01*
X98488512Y-93509573D01*
X98463742Y-93514500D01*
X98286258Y-93514500D01*
X98261488Y-93509573D01*
X98112188Y-93479876D01*
X97948216Y-93411956D01*
X97800646Y-93313353D01*
X97675147Y-93187854D01*
X97576544Y-93040284D01*
X97508624Y-92876312D01*
X97474000Y-92702241D01*
X97474000Y-92524759D01*
X97475614Y-92516647D01*
X97478927Y-92499988D01*
X97508624Y-92350688D01*
X97576544Y-92186716D01*
X97675147Y-92039146D01*
X97800646Y-91913647D01*
X97948216Y-91815044D01*
X98112188Y-91747124D01*
X98261488Y-91717427D01*
X98286258Y-91712500D01*
X98463742Y-91712500D01*
X98488512Y-91717427D01*
G37*
G36*
X96736000Y-93514500D02*
G01*
X94934000Y-93514500D01*
X94934000Y-91712500D01*
X96736000Y-91712500D01*
X96736000Y-93514500D01*
G37*
G36*
X113728512Y-91717427D02*
G01*
X113877812Y-91747124D01*
X114041784Y-91815044D01*
X114189354Y-91913647D01*
X114314853Y-92039146D01*
X114413456Y-92186716D01*
X114481376Y-92350688D01*
X114511073Y-92499988D01*
X114514387Y-92516647D01*
X114516000Y-92524759D01*
X114516000Y-92702241D01*
X114481376Y-92876312D01*
X114413456Y-93040284D01*
X114314853Y-93187854D01*
X114189354Y-93313353D01*
X114041784Y-93411956D01*
X113877812Y-93479876D01*
X113728512Y-93509573D01*
X113703742Y-93514500D01*
X113526258Y-93514500D01*
X113501488Y-93509573D01*
X113352188Y-93479876D01*
X113188216Y-93411956D01*
X113040646Y-93313353D01*
X112915147Y-93187854D01*
X112816544Y-93040284D01*
X112748624Y-92876312D01*
X112714000Y-92702241D01*
X112714000Y-92524759D01*
X112715614Y-92516647D01*
X112718927Y-92499988D01*
X112748624Y-92350688D01*
X112816544Y-92186716D01*
X112915147Y-92039146D01*
X113040646Y-91913647D01*
X113188216Y-91815044D01*
X113352188Y-91747124D01*
X113501488Y-91717427D01*
X113526258Y-91712500D01*
X113703742Y-91712500D01*
X113728512Y-91717427D01*
G37*
G36*
X111188512Y-91717427D02*
G01*
X111337812Y-91747124D01*
X111501784Y-91815044D01*
X111649354Y-91913647D01*
X111774853Y-92039146D01*
X111873456Y-92186716D01*
X111941376Y-92350688D01*
X111971073Y-92499988D01*
X111974387Y-92516647D01*
X111976000Y-92524759D01*
X111976000Y-92702241D01*
X111941376Y-92876312D01*
X111873456Y-93040284D01*
X111774853Y-93187854D01*
X111649354Y-93313353D01*
X111501784Y-93411956D01*
X111337812Y-93479876D01*
X111188512Y-93509573D01*
X111163742Y-93514500D01*
X110986258Y-93514500D01*
X110961488Y-93509573D01*
X110812188Y-93479876D01*
X110648216Y-93411956D01*
X110500646Y-93313353D01*
X110375147Y-93187854D01*
X110276544Y-93040284D01*
X110208624Y-92876312D01*
X110174000Y-92702241D01*
X110174000Y-92524759D01*
X110175614Y-92516647D01*
X110178927Y-92499988D01*
X110208624Y-92350688D01*
X110276544Y-92186716D01*
X110375147Y-92039146D01*
X110500646Y-91913647D01*
X110648216Y-91815044D01*
X110812188Y-91747124D01*
X110961488Y-91717427D01*
X110986258Y-91712500D01*
X111163742Y-91712500D01*
X111188512Y-91717427D01*
G37*
G36*
X108648512Y-91717427D02*
G01*
X108797812Y-91747124D01*
X108961784Y-91815044D01*
X109109354Y-91913647D01*
X109234853Y-92039146D01*
X109333456Y-92186716D01*
X109401376Y-92350688D01*
X109431073Y-92499988D01*
X109434387Y-92516647D01*
X109436000Y-92524759D01*
X109436000Y-92702241D01*
X109401376Y-92876312D01*
X109333456Y-93040284D01*
X109234853Y-93187854D01*
X109109354Y-93313353D01*
X108961784Y-93411956D01*
X108797812Y-93479876D01*
X108648512Y-93509573D01*
X108623742Y-93514500D01*
X108446258Y-93514500D01*
X108421488Y-93509573D01*
X108272188Y-93479876D01*
X108108216Y-93411956D01*
X107960646Y-93313353D01*
X107835147Y-93187854D01*
X107736544Y-93040284D01*
X107668624Y-92876312D01*
X107634000Y-92702241D01*
X107634000Y-92524759D01*
X107635614Y-92516647D01*
X107638927Y-92499988D01*
X107668624Y-92350688D01*
X107736544Y-92186716D01*
X107835147Y-92039146D01*
X107960646Y-91913647D01*
X108108216Y-91815044D01*
X108272188Y-91747124D01*
X108421488Y-91717427D01*
X108446258Y-91712500D01*
X108623742Y-91712500D01*
X108648512Y-91717427D01*
G37*
G36*
X106108512Y-91717427D02*
G01*
X106257812Y-91747124D01*
X106421784Y-91815044D01*
X106569354Y-91913647D01*
X106694853Y-92039146D01*
X106793456Y-92186716D01*
X106861376Y-92350688D01*
X106891073Y-92499988D01*
X106894387Y-92516647D01*
X106896000Y-92524759D01*
X106896000Y-92702241D01*
X106861376Y-92876312D01*
X106793456Y-93040284D01*
X106694853Y-93187854D01*
X106569354Y-93313353D01*
X106421784Y-93411956D01*
X106257812Y-93479876D01*
X106108512Y-93509573D01*
X106083742Y-93514500D01*
X105906258Y-93514500D01*
X105881488Y-93509573D01*
X105732188Y-93479876D01*
X105568216Y-93411956D01*
X105420646Y-93313353D01*
X105295147Y-93187854D01*
X105196544Y-93040284D01*
X105128624Y-92876312D01*
X105094000Y-92702241D01*
X105094000Y-92524759D01*
X105095614Y-92516647D01*
X105098927Y-92499988D01*
X105128624Y-92350688D01*
X105196544Y-92186716D01*
X105295147Y-92039146D01*
X105420646Y-91913647D01*
X105568216Y-91815044D01*
X105732188Y-91747124D01*
X105881488Y-91717427D01*
X105906258Y-91712500D01*
X106083742Y-91712500D01*
X106108512Y-91717427D01*
G37*
G36*
X103568512Y-91717427D02*
G01*
X103717812Y-91747124D01*
X103881784Y-91815044D01*
X104029354Y-91913647D01*
X104154853Y-92039146D01*
X104253456Y-92186716D01*
X104321376Y-92350688D01*
X104351073Y-92499988D01*
X104354387Y-92516647D01*
X104356000Y-92524759D01*
X104356000Y-92702241D01*
X104321376Y-92876312D01*
X104253456Y-93040284D01*
X104154853Y-93187854D01*
X104029354Y-93313353D01*
X103881784Y-93411956D01*
X103717812Y-93479876D01*
X103568512Y-93509573D01*
X103543742Y-93514500D01*
X103366258Y-93514500D01*
X103341488Y-93509573D01*
X103192188Y-93479876D01*
X103028216Y-93411956D01*
X102880646Y-93313353D01*
X102755147Y-93187854D01*
X102656544Y-93040284D01*
X102588624Y-92876312D01*
X102554000Y-92702241D01*
X102554000Y-92524759D01*
X102555614Y-92516647D01*
X102558927Y-92499988D01*
X102588624Y-92350688D01*
X102656544Y-92186716D01*
X102755147Y-92039146D01*
X102880646Y-91913647D01*
X103028216Y-91815044D01*
X103192188Y-91747124D01*
X103341488Y-91717427D01*
X103366258Y-91712500D01*
X103543742Y-91712500D01*
X103568512Y-91717427D01*
G37*
G36*
X101028512Y-91717427D02*
G01*
X101177812Y-91747124D01*
X101341784Y-91815044D01*
X101489354Y-91913647D01*
X101614853Y-92039146D01*
X101713456Y-92186716D01*
X101781376Y-92350688D01*
X101811073Y-92499988D01*
X101814387Y-92516647D01*
X101816000Y-92524759D01*
X101816000Y-92702241D01*
X101781376Y-92876312D01*
X101713456Y-93040284D01*
X101614853Y-93187854D01*
X101489354Y-93313353D01*
X101341784Y-93411956D01*
X101177812Y-93479876D01*
X101028512Y-93509573D01*
X101003742Y-93514500D01*
X100826258Y-93514500D01*
X100801488Y-93509573D01*
X100652188Y-93479876D01*
X100488216Y-93411956D01*
X100340646Y-93313353D01*
X100215147Y-93187854D01*
X100116544Y-93040284D01*
X100048624Y-92876312D01*
X100014000Y-92702241D01*
X100014000Y-92524759D01*
X100015614Y-92516647D01*
X100018927Y-92499988D01*
X100048624Y-92350688D01*
X100116544Y-92186716D01*
X100215147Y-92039146D01*
X100340646Y-91913647D01*
X100488216Y-91815044D01*
X100652188Y-91747124D01*
X100801488Y-91717427D01*
X100826258Y-91712500D01*
X101003742Y-91712500D01*
X101028512Y-91717427D01*
G37*
G36*
X105195000Y-90482000D02*
G01*
X103593000Y-90482000D01*
X103593000Y-88080000D01*
X105195000Y-88080000D01*
X105195000Y-90482000D01*
G37*
G36*
X102592000Y-90463000D02*
G01*
X98890000Y-90463000D01*
X98890000Y-88861000D01*
X102592000Y-88861000D01*
X102592000Y-90463000D01*
G37*
G36*
X97863000Y-90463000D02*
G01*
X94161000Y-90463000D01*
X94161000Y-88861000D01*
X97863000Y-88861000D01*
X97863000Y-90463000D01*
G37*
G36*
X109976256Y-85386298D02*
G01*
X110082579Y-85407447D01*
X110383042Y-85531903D01*
X110653451Y-85712585D01*
X110883415Y-85942549D01*
X111064097Y-86212958D01*
X111188553Y-86513421D01*
X111252000Y-86832391D01*
X111252000Y-87157609D01*
X111188553Y-87476579D01*
X111064097Y-87777042D01*
X110883415Y-88047451D01*
X110653451Y-88277415D01*
X110383042Y-88458097D01*
X110082579Y-88582553D01*
X109976256Y-88603702D01*
X109763611Y-88646000D01*
X109438389Y-88646000D01*
X109225744Y-88603702D01*
X109119421Y-88582553D01*
X108818958Y-88458097D01*
X108548549Y-88277415D01*
X108318585Y-88047451D01*
X108137903Y-87777042D01*
X108013447Y-87476579D01*
X107950000Y-87157609D01*
X107950000Y-86832391D01*
X108013447Y-86513421D01*
X108137903Y-86212958D01*
X108318585Y-85942549D01*
X108548549Y-85712585D01*
X108818958Y-85531903D01*
X109119421Y-85407447D01*
X109225744Y-85386298D01*
X109438389Y-85344000D01*
X109763611Y-85344000D01*
X109976256Y-85386298D01*
G37*
G36*
X105918900Y-85671000D02*
G01*
X104316900Y-85671000D01*
X104316900Y-83269000D01*
X105918900Y-83269000D01*
X105918900Y-85671000D01*
G37*
G36*
X103366200Y-85671000D02*
G01*
X101764200Y-85671000D01*
X101764200Y-83269000D01*
X103366200Y-83269000D01*
X103366200Y-85671000D01*
G37*
G36*
X68820512Y-81780927D02*
G01*
X68969812Y-81810624D01*
X69133784Y-81878544D01*
X69281354Y-81977147D01*
X69406853Y-82102646D01*
X69505456Y-82250216D01*
X69573376Y-82414188D01*
X69608000Y-82588259D01*
X69608000Y-82765741D01*
X69573376Y-82939812D01*
X69505456Y-83103784D01*
X69406853Y-83251354D01*
X69281354Y-83376853D01*
X69133784Y-83475456D01*
X68969812Y-83543376D01*
X68820512Y-83573073D01*
X68795742Y-83578000D01*
X68618258Y-83578000D01*
X68593488Y-83573073D01*
X68444188Y-83543376D01*
X68280216Y-83475456D01*
X68132646Y-83376853D01*
X68007147Y-83251354D01*
X67908544Y-83103784D01*
X67840624Y-82939812D01*
X67806000Y-82765741D01*
X67806000Y-82588259D01*
X67840624Y-82414188D01*
X67908544Y-82250216D01*
X68007147Y-82102646D01*
X68132646Y-81977147D01*
X68280216Y-81878544D01*
X68444188Y-81810624D01*
X68593488Y-81780927D01*
X68618258Y-81776000D01*
X68795742Y-81776000D01*
X68820512Y-81780927D01*
G37*
G36*
X72148000Y-83578000D02*
G01*
X70346000Y-83578000D01*
X70346000Y-81776000D01*
X72148000Y-81776000D01*
X72148000Y-83578000D01*
G37*
G36*
X98017213Y-80642249D02*
G01*
X98111652Y-80670897D01*
X98198687Y-80717418D01*
X98274975Y-80780025D01*
X98337582Y-80856313D01*
X98384103Y-80943348D01*
X98412751Y-81037787D01*
X98420000Y-81111388D01*
X98420000Y-82260612D01*
X98412751Y-82334213D01*
X98384103Y-82428652D01*
X98337582Y-82515687D01*
X98274975Y-82591975D01*
X98198687Y-82654582D01*
X98111651Y-82701103D01*
X98017212Y-82729751D01*
X97919000Y-82739424D01*
X97820787Y-82729751D01*
X97726348Y-82701103D01*
X97639313Y-82654582D01*
X97563025Y-82591975D01*
X97500418Y-82515687D01*
X97453897Y-82428651D01*
X97425249Y-82334212D01*
X97418000Y-82260611D01*
X97418001Y-81111388D01*
X97425250Y-81037787D01*
X97453898Y-80943348D01*
X97500419Y-80856313D01*
X97563026Y-80780025D01*
X97639314Y-80717418D01*
X97726349Y-80670897D01*
X97820788Y-80642249D01*
X97919000Y-80632576D01*
X98017213Y-80642249D01*
G37*
G36*
X89377213Y-80642249D02*
G01*
X89471652Y-80670897D01*
X89558687Y-80717418D01*
X89634975Y-80780025D01*
X89697582Y-80856313D01*
X89744103Y-80943348D01*
X89772751Y-81037787D01*
X89780000Y-81111388D01*
X89780000Y-82260612D01*
X89772751Y-82334213D01*
X89744103Y-82428652D01*
X89697582Y-82515687D01*
X89634975Y-82591975D01*
X89558687Y-82654582D01*
X89471651Y-82701103D01*
X89377212Y-82729751D01*
X89279000Y-82739424D01*
X89180787Y-82729751D01*
X89086348Y-82701103D01*
X88999313Y-82654582D01*
X88923025Y-82591975D01*
X88860418Y-82515687D01*
X88813897Y-82428651D01*
X88785249Y-82334212D01*
X88778000Y-82260611D01*
X88778001Y-81111388D01*
X88785250Y-81037787D01*
X88813898Y-80943348D01*
X88860419Y-80856313D01*
X88923026Y-80780025D01*
X88999314Y-80717418D01*
X89086349Y-80670897D01*
X89180788Y-80642249D01*
X89279000Y-80632576D01*
X89377213Y-80642249D01*
G37*
G36*
X96591383Y-80868489D02*
G01*
X96591386Y-80868490D01*
X96591385Y-80868490D01*
X96655258Y-80894946D01*
X96712748Y-80933360D01*
X96761640Y-80982252D01*
X96800054Y-81039742D01*
X96821624Y-81091818D01*
X96826511Y-81103617D01*
X96840000Y-81171430D01*
X96840000Y-81240570D01*
X96826511Y-81308383D01*
X96826510Y-81308385D01*
X96800054Y-81372258D01*
X96761640Y-81429748D01*
X96712748Y-81478640D01*
X96655258Y-81517054D01*
X96603182Y-81538624D01*
X96591383Y-81543511D01*
X96523570Y-81557000D01*
X96454430Y-81557000D01*
X96386617Y-81543511D01*
X96374818Y-81538624D01*
X96322742Y-81517054D01*
X96265252Y-81478640D01*
X96216360Y-81429748D01*
X96177946Y-81372258D01*
X96151490Y-81308385D01*
X96151489Y-81308383D01*
X96138000Y-81240570D01*
X96138000Y-81171430D01*
X96151489Y-81103617D01*
X96156376Y-81091818D01*
X96177946Y-81039742D01*
X96216360Y-80982252D01*
X96265252Y-80933360D01*
X96322742Y-80894946D01*
X96386615Y-80868490D01*
X96386614Y-80868490D01*
X96386617Y-80868489D01*
X96454430Y-80855000D01*
X96523570Y-80855000D01*
X96591383Y-80868489D01*
G37*
G36*
X90811383Y-80868489D02*
G01*
X90811386Y-80868490D01*
X90811385Y-80868490D01*
X90875258Y-80894946D01*
X90932748Y-80933360D01*
X90981640Y-80982252D01*
X91020054Y-81039742D01*
X91041624Y-81091818D01*
X91046511Y-81103617D01*
X91060000Y-81171430D01*
X91060000Y-81240570D01*
X91046511Y-81308383D01*
X91046510Y-81308385D01*
X91020054Y-81372258D01*
X90981640Y-81429748D01*
X90932748Y-81478640D01*
X90875258Y-81517054D01*
X90823182Y-81538624D01*
X90811383Y-81543511D01*
X90743570Y-81557000D01*
X90674430Y-81557000D01*
X90606617Y-81543511D01*
X90594818Y-81538624D01*
X90542742Y-81517054D01*
X90485252Y-81478640D01*
X90436360Y-81429748D01*
X90397946Y-81372258D01*
X90371490Y-81308385D01*
X90371489Y-81308383D01*
X90358000Y-81240570D01*
X90358000Y-81171430D01*
X90371489Y-81103617D01*
X90376376Y-81091818D01*
X90397946Y-81039742D01*
X90436360Y-80982252D01*
X90485252Y-80933360D01*
X90542742Y-80894946D01*
X90606615Y-80868490D01*
X90606614Y-80868490D01*
X90606617Y-80868489D01*
X90674430Y-80855000D01*
X90743570Y-80855000D01*
X90811383Y-80868489D01*
G37*
G36*
X71360512Y-79240927D02*
G01*
X71509812Y-79270624D01*
X71673784Y-79338544D01*
X71821354Y-79437147D01*
X71946853Y-79562646D01*
X72045456Y-79710216D01*
X72113376Y-79874188D01*
X72148000Y-80048259D01*
X72148000Y-80225741D01*
X72113376Y-80399812D01*
X72045456Y-80563784D01*
X71946853Y-80711354D01*
X71821354Y-80836853D01*
X71673784Y-80935456D01*
X71509812Y-81003376D01*
X71360512Y-81033073D01*
X71335742Y-81038000D01*
X71158258Y-81038000D01*
X71133488Y-81033073D01*
X70984188Y-81003376D01*
X70820216Y-80935456D01*
X70672646Y-80836853D01*
X70547147Y-80711354D01*
X70448544Y-80563784D01*
X70380624Y-80399812D01*
X70346000Y-80225741D01*
X70346000Y-80048259D01*
X70380624Y-79874188D01*
X70448544Y-79710216D01*
X70547147Y-79562646D01*
X70672646Y-79437147D01*
X70820216Y-79338544D01*
X70984188Y-79270624D01*
X71133488Y-79240927D01*
X71158258Y-79236000D01*
X71335742Y-79236000D01*
X71360512Y-79240927D01*
G37*
G36*
X68820512Y-79240927D02*
G01*
X68969812Y-79270624D01*
X69133784Y-79338544D01*
X69281354Y-79437147D01*
X69406853Y-79562646D01*
X69505456Y-79710216D01*
X69573376Y-79874188D01*
X69608000Y-80048259D01*
X69608000Y-80225741D01*
X69573376Y-80399812D01*
X69505456Y-80563784D01*
X69406853Y-80711354D01*
X69281354Y-80836853D01*
X69133784Y-80935456D01*
X68969812Y-81003376D01*
X68820512Y-81033073D01*
X68795742Y-81038000D01*
X68618258Y-81038000D01*
X68593488Y-81033073D01*
X68444188Y-81003376D01*
X68280216Y-80935456D01*
X68132646Y-80836853D01*
X68007147Y-80711354D01*
X67908544Y-80563784D01*
X67840624Y-80399812D01*
X67806000Y-80225741D01*
X67806000Y-80048259D01*
X67840624Y-79874188D01*
X67908544Y-79710216D01*
X68007147Y-79562646D01*
X68132646Y-79437147D01*
X68280216Y-79338544D01*
X68444188Y-79270624D01*
X68593488Y-79240927D01*
X68618258Y-79236000D01*
X68795742Y-79236000D01*
X68820512Y-79240927D01*
G37*
G36*
X75398794Y-78422155D02*
G01*
X75505150Y-78443311D01*
X75597534Y-78481578D01*
X75705520Y-78526307D01*
X75885844Y-78646795D01*
X76039205Y-78800156D01*
X76159693Y-78980480D01*
X76242689Y-79180851D01*
X76285000Y-79393560D01*
X76285000Y-79610440D01*
X76242689Y-79823149D01*
X76159693Y-80023520D01*
X76039205Y-80203844D01*
X75885844Y-80357205D01*
X75705520Y-80477693D01*
X75605334Y-80519191D01*
X75505150Y-80560689D01*
X75489600Y-80563782D01*
X75292440Y-80603000D01*
X75075560Y-80603000D01*
X74878400Y-80563782D01*
X74862850Y-80560689D01*
X74762666Y-80519191D01*
X74662480Y-80477693D01*
X74482156Y-80357205D01*
X74328795Y-80203844D01*
X74208307Y-80023520D01*
X74125311Y-79823149D01*
X74083000Y-79610440D01*
X74083000Y-79393560D01*
X74125311Y-79180851D01*
X74208307Y-78980480D01*
X74328795Y-78800156D01*
X74482156Y-78646795D01*
X74662480Y-78526307D01*
X74770466Y-78481578D01*
X74862850Y-78443311D01*
X74969206Y-78422155D01*
X75075560Y-78401000D01*
X75292440Y-78401000D01*
X75398794Y-78422155D01*
G37*
G36*
X78825000Y-80603000D02*
G01*
X76623000Y-80603000D01*
X76623000Y-78401000D01*
X78825000Y-78401000D01*
X78825000Y-80603000D01*
G37*
G36*
X63375256Y-76391298D02*
G01*
X63481579Y-76412447D01*
X63782042Y-76536903D01*
X64052451Y-76717585D01*
X64282415Y-76947549D01*
X64463097Y-77217958D01*
X64583344Y-77508259D01*
X64587553Y-77518422D01*
X64651000Y-77837389D01*
X64651000Y-78162611D01*
X64608702Y-78375256D01*
X64587553Y-78481579D01*
X64463097Y-78782042D01*
X64282415Y-79052451D01*
X64052451Y-79282415D01*
X63782042Y-79463097D01*
X63481579Y-79587553D01*
X63375256Y-79608702D01*
X63162611Y-79651000D01*
X62837389Y-79651000D01*
X62624744Y-79608702D01*
X62518421Y-79587553D01*
X62217958Y-79463097D01*
X61947549Y-79282415D01*
X61717585Y-79052451D01*
X61536903Y-78782042D01*
X61412447Y-78481579D01*
X61391298Y-78375256D01*
X61349000Y-78162611D01*
X61349000Y-77837389D01*
X61412447Y-77518422D01*
X61416657Y-77508259D01*
X61536903Y-77217958D01*
X61717585Y-76947549D01*
X61947549Y-76717585D01*
X62217958Y-76536903D01*
X62518421Y-76412447D01*
X62624744Y-76391298D01*
X62837389Y-76349000D01*
X63162611Y-76349000D01*
X63375256Y-76391298D01*
G37*
G36*
X68820512Y-76700927D02*
G01*
X68969812Y-76730624D01*
X69133784Y-76798544D01*
X69281354Y-76897147D01*
X69406853Y-77022646D01*
X69505456Y-77170216D01*
X69573376Y-77334188D01*
X69608000Y-77508259D01*
X69608000Y-77685741D01*
X69573376Y-77859812D01*
X69505456Y-78023784D01*
X69406853Y-78171354D01*
X69281354Y-78296853D01*
X69133784Y-78395456D01*
X68969812Y-78463376D01*
X68820512Y-78493073D01*
X68795742Y-78498000D01*
X68618258Y-78498000D01*
X68593488Y-78493073D01*
X68444188Y-78463376D01*
X68280216Y-78395456D01*
X68132646Y-78296853D01*
X68007147Y-78171354D01*
X67908544Y-78023784D01*
X67840624Y-77859812D01*
X67806000Y-77685741D01*
X67806000Y-77508259D01*
X67840624Y-77334188D01*
X67908544Y-77170216D01*
X68007147Y-77022646D01*
X68132646Y-76897147D01*
X68280216Y-76798544D01*
X68444188Y-76730624D01*
X68593488Y-76700927D01*
X68618258Y-76696000D01*
X68795742Y-76696000D01*
X68820512Y-76700927D01*
G37*
G36*
X71360512Y-76700927D02*
G01*
X71509812Y-76730624D01*
X71673784Y-76798544D01*
X71821354Y-76897147D01*
X71946853Y-77022646D01*
X72045456Y-77170216D01*
X72113376Y-77334188D01*
X72148000Y-77508259D01*
X72148000Y-77685741D01*
X72113376Y-77859812D01*
X72045456Y-78023784D01*
X71946853Y-78171354D01*
X71821354Y-78296853D01*
X71673784Y-78395456D01*
X71509812Y-78463376D01*
X71360512Y-78493073D01*
X71335742Y-78498000D01*
X71158258Y-78498000D01*
X71133488Y-78493073D01*
X70984188Y-78463376D01*
X70820216Y-78395456D01*
X70672646Y-78296853D01*
X70547147Y-78171354D01*
X70448544Y-78023784D01*
X70380624Y-77859812D01*
X70346000Y-77685741D01*
X70346000Y-77508259D01*
X70380624Y-77334188D01*
X70448544Y-77170216D01*
X70547147Y-77022646D01*
X70672646Y-76897147D01*
X70820216Y-76798544D01*
X70984188Y-76730624D01*
X71133488Y-76700927D01*
X71158258Y-76696000D01*
X71335742Y-76696000D01*
X71360512Y-76700927D01*
G37*
G36*
X89377213Y-76622249D02*
G01*
X89471652Y-76650897D01*
X89558687Y-76697418D01*
X89634975Y-76760025D01*
X89697582Y-76836313D01*
X89744103Y-76923348D01*
X89772751Y-77017787D01*
X89780000Y-77091388D01*
X89780000Y-77940612D01*
X89772751Y-78014213D01*
X89744103Y-78108652D01*
X89697582Y-78195687D01*
X89634975Y-78271975D01*
X89558687Y-78334582D01*
X89471651Y-78381103D01*
X89377212Y-78409751D01*
X89279000Y-78419424D01*
X89180787Y-78409751D01*
X89086348Y-78381103D01*
X88999313Y-78334582D01*
X88923025Y-78271975D01*
X88860418Y-78195687D01*
X88813897Y-78108651D01*
X88785249Y-78014212D01*
X88778000Y-77940611D01*
X88778000Y-77091398D01*
X88785250Y-77017786D01*
X88806557Y-76947549D01*
X88813898Y-76923348D01*
X88860419Y-76836313D01*
X88923026Y-76760025D01*
X88999314Y-76697418D01*
X89086349Y-76650897D01*
X89180788Y-76622249D01*
X89279000Y-76612576D01*
X89377213Y-76622249D01*
G37*
G36*
X98017213Y-76622249D02*
G01*
X98111652Y-76650897D01*
X98198687Y-76697418D01*
X98274975Y-76760025D01*
X98337582Y-76836313D01*
X98384103Y-76923348D01*
X98412751Y-77017787D01*
X98420000Y-77091388D01*
X98420000Y-77940612D01*
X98412751Y-78014213D01*
X98384103Y-78108652D01*
X98337582Y-78195687D01*
X98274975Y-78271975D01*
X98198687Y-78334582D01*
X98111651Y-78381103D01*
X98017212Y-78409751D01*
X97919000Y-78419424D01*
X97820787Y-78409751D01*
X97726348Y-78381103D01*
X97639313Y-78334582D01*
X97563025Y-78271975D01*
X97500418Y-78195687D01*
X97453897Y-78108651D01*
X97425249Y-78014212D01*
X97418000Y-77940611D01*
X97418000Y-77091398D01*
X97425250Y-77017786D01*
X97446557Y-76947549D01*
X97453898Y-76923348D01*
X97500419Y-76836313D01*
X97563026Y-76760025D01*
X97639314Y-76697418D01*
X97726349Y-76650897D01*
X97820788Y-76622249D01*
X97919000Y-76612576D01*
X98017213Y-76622249D01*
G37*
M02*
