G04 #@! TF.GenerationSoftware,KiCad,Pcbnew,(5.1.5)-2*
G04 #@! TF.CreationDate,2021-03-29T00:27:03+02:00*
G04 #@! TF.ProjectId,Versie1,56657273-6965-4312-9e6b-696361645f70,rev?*
G04 #@! TF.SameCoordinates,Original*
G04 #@! TF.FileFunction,Legend,Bot*
G04 #@! TF.FilePolarity,Positive*
%FSLAX46Y46*%
G04 Gerber Fmt 4.6, Leading zero omitted, Abs format (unit mm)*
G04 Created by KiCad (PCBNEW (5.1.5)-2) date 2021-03-29 00:27:03*
%MOMM*%
%LPD*%
G04 APERTURE LIST*
%ADD10C,0.120000*%
%ADD11C,0.150000*%
G04 APERTURE END LIST*
D10*
X105394000Y-87881000D02*
X103394000Y-87881000D01*
X105394000Y-90681000D02*
X105394000Y-87881000D01*
X103394000Y-90681000D02*
X105394000Y-90681000D01*
X103394000Y-87881000D02*
X103394000Y-90681000D01*
X99441000Y-88462000D02*
X99741000Y-88162000D01*
X99141000Y-88162000D02*
X99741000Y-88162000D01*
X99441000Y-88462000D02*
X99141000Y-88162000D01*
X98691000Y-88662000D02*
X98691000Y-90662000D01*
X102791000Y-88662000D02*
X98691000Y-88662000D01*
X102791000Y-90662000D02*
X102791000Y-88662000D01*
X98691000Y-90662000D02*
X102791000Y-90662000D01*
X93962000Y-90662000D02*
X98062000Y-90662000D01*
X98062000Y-90662000D02*
X98062000Y-88662000D01*
X98062000Y-88662000D02*
X93962000Y-88662000D01*
X93962000Y-88662000D02*
X93962000Y-90662000D01*
X94712000Y-88462000D02*
X94412000Y-88162000D01*
X94412000Y-88162000D02*
X95012000Y-88162000D01*
X94712000Y-88462000D02*
X95012000Y-88162000D01*
X113414000Y-102281500D02*
X110614000Y-102281500D01*
X110614000Y-102281500D02*
X110614000Y-104281500D01*
X110614000Y-104281500D02*
X113414000Y-104281500D01*
X113414000Y-104281500D02*
X113414000Y-102281500D01*
X109613000Y-96250000D02*
X113713000Y-96250000D01*
X113713000Y-96250000D02*
X113713000Y-94250000D01*
X113713000Y-94250000D02*
X109613000Y-94250000D01*
X109613000Y-94250000D02*
X109613000Y-96250000D01*
X110363000Y-94050000D02*
X110063000Y-93750000D01*
X110063000Y-93750000D02*
X110663000Y-93750000D01*
X110363000Y-94050000D02*
X110663000Y-93750000D01*
X93581000Y-108696000D02*
X96381000Y-108696000D01*
X96381000Y-108696000D02*
X96381000Y-106696000D01*
X96381000Y-106696000D02*
X93581000Y-106696000D01*
X93581000Y-106696000D02*
X93581000Y-108696000D01*
X93596000Y-104156000D02*
X93596000Y-106156000D01*
X96396000Y-104156000D02*
X93596000Y-104156000D01*
X96396000Y-106156000D02*
X96396000Y-104156000D01*
X93596000Y-106156000D02*
X96396000Y-106156000D01*
X101565200Y-85870000D02*
X103565200Y-85870000D01*
X101565200Y-83070000D02*
X101565200Y-85870000D01*
X103565200Y-83070000D02*
X101565200Y-83070000D01*
X103565200Y-85870000D02*
X103565200Y-83070000D01*
X106117900Y-85870000D02*
X106117900Y-83070000D01*
X106117900Y-83070000D02*
X104117900Y-83070000D01*
X104117900Y-83070000D02*
X104117900Y-85870000D01*
X104117900Y-85870000D02*
X106117900Y-85870000D01*
D11*
X102046380Y-88447666D02*
X102760666Y-88447666D01*
X102903523Y-88400047D01*
X102998761Y-88304809D01*
X103046380Y-88161952D01*
X103046380Y-88066714D01*
X103046380Y-88923857D02*
X102046380Y-88923857D01*
X102046380Y-89304809D01*
X102094000Y-89400047D01*
X102141619Y-89447666D01*
X102236857Y-89495285D01*
X102379714Y-89495285D01*
X102474952Y-89447666D01*
X102522571Y-89400047D01*
X102570190Y-89304809D01*
X102570190Y-88923857D01*
X102046380Y-89828619D02*
X102046380Y-90447666D01*
X102427333Y-90114333D01*
X102427333Y-90257190D01*
X102474952Y-90352428D01*
X102522571Y-90400047D01*
X102617809Y-90447666D01*
X102855904Y-90447666D01*
X102951142Y-90400047D01*
X102998761Y-90352428D01*
X103046380Y-90257190D01*
X103046380Y-89971476D01*
X102998761Y-89876238D01*
X102951142Y-89828619D01*
X101671333Y-86574380D02*
X101671333Y-87288666D01*
X101718952Y-87431523D01*
X101814190Y-87526761D01*
X101957047Y-87574380D01*
X102052285Y-87574380D01*
X101195142Y-87574380D02*
X101195142Y-86574380D01*
X100814190Y-86574380D01*
X100718952Y-86622000D01*
X100671333Y-86669619D01*
X100623714Y-86764857D01*
X100623714Y-86907714D01*
X100671333Y-87002952D01*
X100718952Y-87050571D01*
X100814190Y-87098190D01*
X101195142Y-87098190D01*
X99766571Y-86907714D02*
X99766571Y-87574380D01*
X100004666Y-86526761D02*
X100242761Y-87241047D01*
X99623714Y-87241047D01*
X96845333Y-86574380D02*
X96845333Y-87288666D01*
X96892952Y-87431523D01*
X96988190Y-87526761D01*
X97131047Y-87574380D01*
X97226285Y-87574380D01*
X96369142Y-87574380D02*
X96369142Y-86574380D01*
X95988190Y-86574380D01*
X95892952Y-86622000D01*
X95845333Y-86669619D01*
X95797714Y-86764857D01*
X95797714Y-86907714D01*
X95845333Y-87002952D01*
X95892952Y-87050571D01*
X95988190Y-87098190D01*
X96369142Y-87098190D01*
X94892952Y-86574380D02*
X95369142Y-86574380D01*
X95416761Y-87050571D01*
X95369142Y-87002952D01*
X95273904Y-86955333D01*
X95035809Y-86955333D01*
X94940571Y-87002952D01*
X94892952Y-87050571D01*
X94845333Y-87145809D01*
X94845333Y-87383904D01*
X94892952Y-87479142D01*
X94940571Y-87526761D01*
X95035809Y-87574380D01*
X95273904Y-87574380D01*
X95369142Y-87526761D01*
X95416761Y-87479142D01*
X114006380Y-102417666D02*
X114720666Y-102417666D01*
X114863523Y-102370047D01*
X114958761Y-102274809D01*
X115006380Y-102131952D01*
X115006380Y-102036714D01*
X115006380Y-102893857D02*
X114006380Y-102893857D01*
X114006380Y-103274809D01*
X114054000Y-103370047D01*
X114101619Y-103417666D01*
X114196857Y-103465285D01*
X114339714Y-103465285D01*
X114434952Y-103417666D01*
X114482571Y-103370047D01*
X114530190Y-103274809D01*
X114530190Y-102893857D01*
X114006380Y-104322428D02*
X114006380Y-104131952D01*
X114054000Y-104036714D01*
X114101619Y-103989095D01*
X114244476Y-103893857D01*
X114434952Y-103846238D01*
X114815904Y-103846238D01*
X114911142Y-103893857D01*
X114958761Y-103941476D01*
X115006380Y-104036714D01*
X115006380Y-104227190D01*
X114958761Y-104322428D01*
X114911142Y-104370047D01*
X114815904Y-104417666D01*
X114577809Y-104417666D01*
X114482571Y-104370047D01*
X114434952Y-104322428D01*
X114387333Y-104227190D01*
X114387333Y-104036714D01*
X114434952Y-103941476D01*
X114482571Y-103893857D01*
X114577809Y-103846238D01*
X114387380Y-94289666D02*
X115101666Y-94289666D01*
X115244523Y-94242047D01*
X115339761Y-94146809D01*
X115387380Y-94003952D01*
X115387380Y-93908714D01*
X115387380Y-94765857D02*
X114387380Y-94765857D01*
X114387380Y-95146809D01*
X114435000Y-95242047D01*
X114482619Y-95289666D01*
X114577857Y-95337285D01*
X114720714Y-95337285D01*
X114815952Y-95289666D01*
X114863571Y-95242047D01*
X114911190Y-95146809D01*
X114911190Y-94765857D01*
X114387380Y-95670619D02*
X114387380Y-96337285D01*
X115387380Y-95908714D01*
X95814333Y-108948380D02*
X95814333Y-109662666D01*
X95861952Y-109805523D01*
X95957190Y-109900761D01*
X96100047Y-109948380D01*
X96195285Y-109948380D01*
X95338142Y-109948380D02*
X95338142Y-108948380D01*
X94957190Y-108948380D01*
X94861952Y-108996000D01*
X94814333Y-109043619D01*
X94766714Y-109138857D01*
X94766714Y-109281714D01*
X94814333Y-109376952D01*
X94861952Y-109424571D01*
X94957190Y-109472190D01*
X95338142Y-109472190D01*
X93814333Y-109948380D02*
X94385761Y-109948380D01*
X94100047Y-109948380D02*
X94100047Y-108948380D01*
X94195285Y-109091238D01*
X94290523Y-109186476D01*
X94385761Y-109234095D01*
X95956333Y-102449380D02*
X95956333Y-103163666D01*
X96003952Y-103306523D01*
X96099190Y-103401761D01*
X96242047Y-103449380D01*
X96337285Y-103449380D01*
X95480142Y-103449380D02*
X95480142Y-102449380D01*
X95099190Y-102449380D01*
X95003952Y-102497000D01*
X94956333Y-102544619D01*
X94908714Y-102639857D01*
X94908714Y-102782714D01*
X94956333Y-102877952D01*
X95003952Y-102925571D01*
X95099190Y-102973190D01*
X95480142Y-102973190D01*
X94527761Y-102544619D02*
X94480142Y-102497000D01*
X94384904Y-102449380D01*
X94146809Y-102449380D01*
X94051571Y-102497000D01*
X94003952Y-102544619D01*
X93956333Y-102639857D01*
X93956333Y-102735095D01*
X94003952Y-102877952D01*
X94575380Y-103449380D01*
X93956333Y-103449380D01*
X103817580Y-83636666D02*
X104531866Y-83636666D01*
X104674723Y-83589047D01*
X104769961Y-83493809D01*
X104817580Y-83350952D01*
X104817580Y-83255714D01*
X104817580Y-84112857D02*
X103817580Y-84112857D01*
X103817580Y-84493809D01*
X103865200Y-84589047D01*
X103912819Y-84636666D01*
X104008057Y-84684285D01*
X104150914Y-84684285D01*
X104246152Y-84636666D01*
X104293771Y-84589047D01*
X104341390Y-84493809D01*
X104341390Y-84112857D01*
X104246152Y-85255714D02*
X104198533Y-85160476D01*
X104150914Y-85112857D01*
X104055676Y-85065238D01*
X104008057Y-85065238D01*
X103912819Y-85112857D01*
X103865200Y-85160476D01*
X103817580Y-85255714D01*
X103817580Y-85446190D01*
X103865200Y-85541428D01*
X103912819Y-85589047D01*
X104008057Y-85636666D01*
X104055676Y-85636666D01*
X104150914Y-85589047D01*
X104198533Y-85541428D01*
X104246152Y-85446190D01*
X104246152Y-85255714D01*
X104293771Y-85160476D01*
X104341390Y-85112857D01*
X104436628Y-85065238D01*
X104627104Y-85065238D01*
X104722342Y-85112857D01*
X104769961Y-85160476D01*
X104817580Y-85255714D01*
X104817580Y-85446190D01*
X104769961Y-85541428D01*
X104722342Y-85589047D01*
X104627104Y-85636666D01*
X104436628Y-85636666D01*
X104341390Y-85589047D01*
X104293771Y-85541428D01*
X104246152Y-85446190D01*
X106370280Y-83636666D02*
X107084566Y-83636666D01*
X107227423Y-83589047D01*
X107322661Y-83493809D01*
X107370280Y-83350952D01*
X107370280Y-83255714D01*
X107370280Y-84112857D02*
X106370280Y-84112857D01*
X106370280Y-84493809D01*
X106417900Y-84589047D01*
X106465519Y-84636666D01*
X106560757Y-84684285D01*
X106703614Y-84684285D01*
X106798852Y-84636666D01*
X106846471Y-84589047D01*
X106894090Y-84493809D01*
X106894090Y-84112857D01*
X107370280Y-85160476D02*
X107370280Y-85350952D01*
X107322661Y-85446190D01*
X107275042Y-85493809D01*
X107132185Y-85589047D01*
X106941709Y-85636666D01*
X106560757Y-85636666D01*
X106465519Y-85589047D01*
X106417900Y-85541428D01*
X106370280Y-85446190D01*
X106370280Y-85255714D01*
X106417900Y-85160476D01*
X106465519Y-85112857D01*
X106560757Y-85065238D01*
X106798852Y-85065238D01*
X106894090Y-85112857D01*
X106941709Y-85160476D01*
X106989328Y-85255714D01*
X106989328Y-85446190D01*
X106941709Y-85541428D01*
X106894090Y-85589047D01*
X106798852Y-85636666D01*
M02*
