G04 #@! TF.GenerationSoftware,KiCad,Pcbnew,(5.1.5)-2*
G04 #@! TF.CreationDate,2021-03-29T00:27:03+02:00*
G04 #@! TF.ProjectId,Versie1,56657273-6965-4312-9e6b-696361645f70,rev?*
G04 #@! TF.SameCoordinates,Original*
G04 #@! TF.FileFunction,Legend,Top*
G04 #@! TF.FilePolarity,Positive*
%FSLAX46Y46*%
G04 Gerber Fmt 4.6, Leading zero omitted, Abs format (unit mm)*
G04 Created by KiCad (PCBNEW (5.1.5)-2) date 2021-03-29 00:27:03*
%MOMM*%
%LPD*%
G04 APERTURE LIST*
%ADD10C,0.150000*%
%ADD11C,0.120000*%
%ADD12C,0.100000*%
%ADD13C,0.250000*%
%ADD14C,0.200000*%
%ADD15C,0.152400*%
%ADD16C,0.254000*%
G04 APERTURE END LIST*
D10*
X62730428Y-85145571D02*
X63063761Y-85145571D01*
X63206619Y-85669380D02*
X62730428Y-85669380D01*
X62730428Y-84669380D01*
X63206619Y-84669380D01*
X63587571Y-85621761D02*
X63730428Y-85669380D01*
X63968523Y-85669380D01*
X64063761Y-85621761D01*
X64111380Y-85574142D01*
X64159000Y-85478904D01*
X64159000Y-85383666D01*
X64111380Y-85288428D01*
X64063761Y-85240809D01*
X63968523Y-85193190D01*
X63778047Y-85145571D01*
X63682809Y-85097952D01*
X63635190Y-85050333D01*
X63587571Y-84955095D01*
X63587571Y-84859857D01*
X63635190Y-84764619D01*
X63682809Y-84717000D01*
X63778047Y-84669380D01*
X64016142Y-84669380D01*
X64159000Y-84717000D01*
X64587571Y-85669380D02*
X64587571Y-84669380D01*
X64968523Y-84669380D01*
X65063761Y-84717000D01*
X65111380Y-84764619D01*
X65159000Y-84859857D01*
X65159000Y-85002714D01*
X65111380Y-85097952D01*
X65063761Y-85145571D01*
X64968523Y-85193190D01*
X64587571Y-85193190D01*
X65349476Y-85764619D02*
X66111380Y-85764619D01*
X66206619Y-84669380D02*
X66778047Y-84669380D01*
X66492333Y-85669380D02*
X66492333Y-84669380D01*
X67016142Y-84669380D02*
X67682809Y-85669380D01*
X67682809Y-84669380D02*
X67016142Y-85669380D01*
X68063761Y-85669380D02*
X68063761Y-84669380D01*
X68301857Y-84669380D01*
X68444714Y-84717000D01*
X68539952Y-84812238D01*
X68587571Y-84907476D01*
X68635190Y-85097952D01*
X68635190Y-85240809D01*
X68587571Y-85431285D01*
X68539952Y-85526523D01*
X68444714Y-85621761D01*
X68301857Y-85669380D01*
X68063761Y-85669380D01*
X93900809Y-118816380D02*
X93900809Y-117816380D01*
X94567476Y-117816380D02*
X94757952Y-117816380D01*
X94853190Y-117864000D01*
X94948428Y-117959238D01*
X94996047Y-118149714D01*
X94996047Y-118483047D01*
X94948428Y-118673523D01*
X94853190Y-118768761D01*
X94757952Y-118816380D01*
X94567476Y-118816380D01*
X94472238Y-118768761D01*
X94377000Y-118673523D01*
X94329380Y-118483047D01*
X94329380Y-118149714D01*
X94377000Y-117959238D01*
X94472238Y-117864000D01*
X94567476Y-117816380D01*
X95329380Y-117816380D02*
X95948428Y-117816380D01*
X95615095Y-118197333D01*
X95757952Y-118197333D01*
X95853190Y-118244952D01*
X95900809Y-118292571D01*
X95948428Y-118387809D01*
X95948428Y-118625904D01*
X95900809Y-118721142D01*
X95853190Y-118768761D01*
X95757952Y-118816380D01*
X95472238Y-118816380D01*
X95377000Y-118768761D01*
X95329380Y-118721142D01*
X96424619Y-118816380D02*
X96615095Y-118816380D01*
X96710333Y-118768761D01*
X96757952Y-118721142D01*
X96853190Y-118578285D01*
X96900809Y-118387809D01*
X96900809Y-118006857D01*
X96853190Y-117911619D01*
X96805571Y-117864000D01*
X96710333Y-117816380D01*
X96519857Y-117816380D01*
X96424619Y-117864000D01*
X96377000Y-117911619D01*
X96329380Y-118006857D01*
X96329380Y-118244952D01*
X96377000Y-118340190D01*
X96424619Y-118387809D01*
X96519857Y-118435428D01*
X96710333Y-118435428D01*
X96805571Y-118387809D01*
X96853190Y-118340190D01*
X96900809Y-118244952D01*
X86915809Y-89876380D02*
X87534857Y-89876380D01*
X87201523Y-90257333D01*
X87344380Y-90257333D01*
X87439619Y-90304952D01*
X87487238Y-90352571D01*
X87534857Y-90447809D01*
X87534857Y-90685904D01*
X87487238Y-90781142D01*
X87439619Y-90828761D01*
X87344380Y-90876380D01*
X87058666Y-90876380D01*
X86963428Y-90828761D01*
X86915809Y-90781142D01*
X87963428Y-90781142D02*
X88011047Y-90828761D01*
X87963428Y-90876380D01*
X87915809Y-90828761D01*
X87963428Y-90781142D01*
X87963428Y-90876380D01*
X88344380Y-89876380D02*
X88963428Y-89876380D01*
X88630095Y-90257333D01*
X88772952Y-90257333D01*
X88868190Y-90304952D01*
X88915809Y-90352571D01*
X88963428Y-90447809D01*
X88963428Y-90685904D01*
X88915809Y-90781142D01*
X88868190Y-90828761D01*
X88772952Y-90876380D01*
X88487238Y-90876380D01*
X88392000Y-90828761D01*
X88344380Y-90781142D01*
X89249142Y-89876380D02*
X89582476Y-90876380D01*
X89915809Y-89876380D01*
X114004285Y-90199714D02*
X113647142Y-90449714D01*
X114004285Y-90628285D02*
X113254285Y-90628285D01*
X113254285Y-90342571D01*
X113290000Y-90271142D01*
X113325714Y-90235428D01*
X113397142Y-90199714D01*
X113504285Y-90199714D01*
X113575714Y-90235428D01*
X113611428Y-90271142D01*
X113647142Y-90342571D01*
X113647142Y-90628285D01*
X113968571Y-89914000D02*
X114004285Y-89806857D01*
X114004285Y-89628285D01*
X113968571Y-89556857D01*
X113932857Y-89521142D01*
X113861428Y-89485428D01*
X113790000Y-89485428D01*
X113718571Y-89521142D01*
X113682857Y-89556857D01*
X113647142Y-89628285D01*
X113611428Y-89771142D01*
X113575714Y-89842571D01*
X113540000Y-89878285D01*
X113468571Y-89914000D01*
X113397142Y-89914000D01*
X113325714Y-89878285D01*
X113290000Y-89842571D01*
X113254285Y-89771142D01*
X113254285Y-89592571D01*
X113290000Y-89485428D01*
X113254285Y-89271142D02*
X113254285Y-88842571D01*
X114004285Y-89056857D02*
X113254285Y-89056857D01*
X109894857Y-94585285D02*
X110073428Y-95335285D01*
X110216285Y-94799571D01*
X110359142Y-95335285D01*
X110537714Y-94585285D01*
X110787714Y-95121000D02*
X111144857Y-95121000D01*
X110716285Y-95335285D02*
X110966285Y-94585285D01*
X111216285Y-95335285D01*
X111466285Y-95335285D02*
X111466285Y-94585285D01*
X111894857Y-95335285D02*
X111573428Y-94906714D01*
X111894857Y-94585285D02*
X111466285Y-95013857D01*
X112216285Y-94942428D02*
X112466285Y-94942428D01*
X112573428Y-95335285D02*
X112216285Y-95335285D01*
X112216285Y-94585285D01*
X112573428Y-94585285D01*
X108598857Y-90168000D02*
X108634571Y-90203714D01*
X108670285Y-90310857D01*
X108670285Y-90382285D01*
X108634571Y-90489428D01*
X108563142Y-90560857D01*
X108491714Y-90596571D01*
X108348857Y-90632285D01*
X108241714Y-90632285D01*
X108098857Y-90596571D01*
X108027428Y-90560857D01*
X107956000Y-90489428D01*
X107920285Y-90382285D01*
X107920285Y-90310857D01*
X107956000Y-90203714D01*
X107991714Y-90168000D01*
X108634571Y-89882285D02*
X108670285Y-89775142D01*
X108670285Y-89596571D01*
X108634571Y-89525142D01*
X108598857Y-89489428D01*
X108527428Y-89453714D01*
X108456000Y-89453714D01*
X108384571Y-89489428D01*
X108348857Y-89525142D01*
X108313142Y-89596571D01*
X108277428Y-89739428D01*
X108241714Y-89810857D01*
X108206000Y-89846571D01*
X108134571Y-89882285D01*
X108063142Y-89882285D01*
X107991714Y-89846571D01*
X107956000Y-89810857D01*
X107920285Y-89739428D01*
X107920285Y-89560857D01*
X107956000Y-89453714D01*
X106257285Y-90713571D02*
X105507285Y-90713571D01*
X106043000Y-90463571D01*
X105507285Y-90213571D01*
X106257285Y-90213571D01*
X105507285Y-89713571D02*
X105507285Y-89570714D01*
X105543000Y-89499285D01*
X105614428Y-89427857D01*
X105757285Y-89392142D01*
X106007285Y-89392142D01*
X106150142Y-89427857D01*
X106221571Y-89499285D01*
X106257285Y-89570714D01*
X106257285Y-89713571D01*
X106221571Y-89785000D01*
X106150142Y-89856428D01*
X106007285Y-89892142D01*
X105757285Y-89892142D01*
X105614428Y-89856428D01*
X105543000Y-89785000D01*
X105507285Y-89713571D01*
X106221571Y-89106428D02*
X106257285Y-88999285D01*
X106257285Y-88820714D01*
X106221571Y-88749285D01*
X106185857Y-88713571D01*
X106114428Y-88677857D01*
X106043000Y-88677857D01*
X105971571Y-88713571D01*
X105935857Y-88749285D01*
X105900142Y-88820714D01*
X105864428Y-88963571D01*
X105828714Y-89035000D01*
X105793000Y-89070714D01*
X105721571Y-89106428D01*
X105650142Y-89106428D01*
X105578714Y-89070714D01*
X105543000Y-89035000D01*
X105507285Y-88963571D01*
X105507285Y-88785000D01*
X105543000Y-88677857D01*
X106257285Y-88356428D02*
X105507285Y-88356428D01*
X103717285Y-90713571D02*
X102967285Y-90713571D01*
X103503000Y-90463571D01*
X102967285Y-90213571D01*
X103717285Y-90213571D01*
X103717285Y-89856428D02*
X102967285Y-89856428D01*
X103681571Y-89535000D02*
X103717285Y-89427857D01*
X103717285Y-89249285D01*
X103681571Y-89177857D01*
X103645857Y-89142142D01*
X103574428Y-89106428D01*
X103503000Y-89106428D01*
X103431571Y-89142142D01*
X103395857Y-89177857D01*
X103360142Y-89249285D01*
X103324428Y-89392142D01*
X103288714Y-89463571D01*
X103253000Y-89499285D01*
X103181571Y-89535000D01*
X103110142Y-89535000D01*
X103038714Y-89499285D01*
X103003000Y-89463571D01*
X102967285Y-89392142D01*
X102967285Y-89213571D01*
X103003000Y-89106428D01*
X102967285Y-88642142D02*
X102967285Y-88499285D01*
X103003000Y-88427857D01*
X103074428Y-88356428D01*
X103217285Y-88320714D01*
X103467285Y-88320714D01*
X103610142Y-88356428D01*
X103681571Y-88427857D01*
X103717285Y-88499285D01*
X103717285Y-88642142D01*
X103681571Y-88713571D01*
X103610142Y-88785000D01*
X103467285Y-88820714D01*
X103217285Y-88820714D01*
X103074428Y-88785000D01*
X103003000Y-88713571D01*
X102967285Y-88642142D01*
X101141571Y-90753285D02*
X101177285Y-90646142D01*
X101177285Y-90467571D01*
X101141571Y-90396142D01*
X101105857Y-90360428D01*
X101034428Y-90324714D01*
X100963000Y-90324714D01*
X100891571Y-90360428D01*
X100855857Y-90396142D01*
X100820142Y-90467571D01*
X100784428Y-90610428D01*
X100748714Y-90681857D01*
X100713000Y-90717571D01*
X100641571Y-90753285D01*
X100570142Y-90753285D01*
X100498714Y-90717571D01*
X100463000Y-90681857D01*
X100427285Y-90610428D01*
X100427285Y-90431857D01*
X100463000Y-90324714D01*
X101105857Y-89574714D02*
X101141571Y-89610428D01*
X101177285Y-89717571D01*
X101177285Y-89789000D01*
X101141571Y-89896142D01*
X101070142Y-89967571D01*
X100998714Y-90003285D01*
X100855857Y-90039000D01*
X100748714Y-90039000D01*
X100605857Y-90003285D01*
X100534428Y-89967571D01*
X100463000Y-89896142D01*
X100427285Y-89789000D01*
X100427285Y-89717571D01*
X100463000Y-89610428D01*
X100498714Y-89574714D01*
X101177285Y-89253285D02*
X100427285Y-89253285D01*
X101177285Y-88824714D02*
X100748714Y-89146142D01*
X100427285Y-88824714D02*
X100855857Y-89253285D01*
X97887285Y-90769142D02*
X97887285Y-90304857D01*
X98173000Y-90554857D01*
X98173000Y-90447714D01*
X98208714Y-90376285D01*
X98244428Y-90340571D01*
X98315857Y-90304857D01*
X98494428Y-90304857D01*
X98565857Y-90340571D01*
X98601571Y-90376285D01*
X98637285Y-90447714D01*
X98637285Y-90662000D01*
X98601571Y-90733428D01*
X98565857Y-90769142D01*
X98565857Y-89983428D02*
X98601571Y-89947714D01*
X98637285Y-89983428D01*
X98601571Y-90019142D01*
X98565857Y-89983428D01*
X98637285Y-89983428D01*
X97887285Y-89697714D02*
X97887285Y-89233428D01*
X98173000Y-89483428D01*
X98173000Y-89376285D01*
X98208714Y-89304857D01*
X98244428Y-89269142D01*
X98315857Y-89233428D01*
X98494428Y-89233428D01*
X98565857Y-89269142D01*
X98601571Y-89304857D01*
X98637285Y-89376285D01*
X98637285Y-89590571D01*
X98601571Y-89662000D01*
X98565857Y-89697714D01*
X97887285Y-89019142D02*
X98637285Y-88769142D01*
X97887285Y-88519142D01*
X95383000Y-90106428D02*
X95347285Y-90177857D01*
X95347285Y-90285000D01*
X95383000Y-90392142D01*
X95454428Y-90463571D01*
X95525857Y-90499285D01*
X95668714Y-90535000D01*
X95775857Y-90535000D01*
X95918714Y-90499285D01*
X95990142Y-90463571D01*
X96061571Y-90392142D01*
X96097285Y-90285000D01*
X96097285Y-90213571D01*
X96061571Y-90106428D01*
X96025857Y-90070714D01*
X95775857Y-90070714D01*
X95775857Y-90213571D01*
X96097285Y-89749285D02*
X95347285Y-89749285D01*
X96097285Y-89320714D01*
X95347285Y-89320714D01*
X96097285Y-88963571D02*
X95347285Y-88963571D01*
X95347285Y-88785000D01*
X95383000Y-88677857D01*
X95454428Y-88606428D01*
X95525857Y-88570714D01*
X95668714Y-88535000D01*
X95775857Y-88535000D01*
X95918714Y-88570714D01*
X95990142Y-88606428D01*
X96061571Y-88677857D01*
X96097285Y-88785000D01*
X96097285Y-88963571D01*
X114004285Y-114978571D02*
X113254285Y-114978571D01*
X114004285Y-114621428D02*
X113254285Y-114621428D01*
X114004285Y-114192857D01*
X113254285Y-114192857D01*
X113254285Y-113942857D02*
X113254285Y-113514285D01*
X114004285Y-113728571D02*
X113254285Y-113728571D01*
X111464285Y-114837714D02*
X111107142Y-115087714D01*
X111464285Y-115266285D02*
X110714285Y-115266285D01*
X110714285Y-114980571D01*
X110750000Y-114909142D01*
X110785714Y-114873428D01*
X110857142Y-114837714D01*
X110964285Y-114837714D01*
X111035714Y-114873428D01*
X111071428Y-114909142D01*
X111107142Y-114980571D01*
X111107142Y-115266285D01*
X111428571Y-114552000D02*
X111464285Y-114444857D01*
X111464285Y-114266285D01*
X111428571Y-114194857D01*
X111392857Y-114159142D01*
X111321428Y-114123428D01*
X111250000Y-114123428D01*
X111178571Y-114159142D01*
X111142857Y-114194857D01*
X111107142Y-114266285D01*
X111071428Y-114409142D01*
X111035714Y-114480571D01*
X111000000Y-114516285D01*
X110928571Y-114552000D01*
X110857142Y-114552000D01*
X110785714Y-114516285D01*
X110750000Y-114480571D01*
X110714285Y-114409142D01*
X110714285Y-114230571D01*
X110750000Y-114123428D01*
X110714285Y-113909142D02*
X110714285Y-113480571D01*
X111464285Y-113694857D02*
X110714285Y-113694857D01*
X108888571Y-115319857D02*
X108924285Y-115212714D01*
X108924285Y-115034142D01*
X108888571Y-114962714D01*
X108852857Y-114927000D01*
X108781428Y-114891285D01*
X108710000Y-114891285D01*
X108638571Y-114927000D01*
X108602857Y-114962714D01*
X108567142Y-115034142D01*
X108531428Y-115177000D01*
X108495714Y-115248428D01*
X108460000Y-115284142D01*
X108388571Y-115319857D01*
X108317142Y-115319857D01*
X108245714Y-115284142D01*
X108210000Y-115248428D01*
X108174285Y-115177000D01*
X108174285Y-114998428D01*
X108210000Y-114891285D01*
X108852857Y-114141285D02*
X108888571Y-114177000D01*
X108924285Y-114284142D01*
X108924285Y-114355571D01*
X108888571Y-114462714D01*
X108817142Y-114534142D01*
X108745714Y-114569857D01*
X108602857Y-114605571D01*
X108495714Y-114605571D01*
X108352857Y-114569857D01*
X108281428Y-114534142D01*
X108210000Y-114462714D01*
X108174285Y-114355571D01*
X108174285Y-114284142D01*
X108210000Y-114177000D01*
X108245714Y-114141285D01*
X108924285Y-113462714D02*
X108924285Y-113819857D01*
X108174285Y-113819857D01*
X106221571Y-115464714D02*
X106257285Y-115357571D01*
X106257285Y-115179000D01*
X106221571Y-115107571D01*
X106185857Y-115071857D01*
X106114428Y-115036142D01*
X106043000Y-115036142D01*
X105971571Y-115071857D01*
X105935857Y-115107571D01*
X105900142Y-115179000D01*
X105864428Y-115321857D01*
X105828714Y-115393285D01*
X105793000Y-115429000D01*
X105721571Y-115464714D01*
X105650142Y-115464714D01*
X105578714Y-115429000D01*
X105543000Y-115393285D01*
X105507285Y-115321857D01*
X105507285Y-115143285D01*
X105543000Y-115036142D01*
X106257285Y-114714714D02*
X105507285Y-114714714D01*
X105507285Y-114536142D01*
X105543000Y-114429000D01*
X105614428Y-114357571D01*
X105685857Y-114321857D01*
X105828714Y-114286142D01*
X105935857Y-114286142D01*
X106078714Y-114321857D01*
X106150142Y-114357571D01*
X106221571Y-114429000D01*
X106257285Y-114536142D01*
X106257285Y-114714714D01*
X106043000Y-114000428D02*
X106043000Y-113643285D01*
X106257285Y-114071857D02*
X105507285Y-113821857D01*
X106257285Y-113571857D01*
X103094285Y-115788142D02*
X103094285Y-115323857D01*
X103380000Y-115573857D01*
X103380000Y-115466714D01*
X103415714Y-115395285D01*
X103451428Y-115359571D01*
X103522857Y-115323857D01*
X103701428Y-115323857D01*
X103772857Y-115359571D01*
X103808571Y-115395285D01*
X103844285Y-115466714D01*
X103844285Y-115681000D01*
X103808571Y-115752428D01*
X103772857Y-115788142D01*
X103772857Y-115002428D02*
X103808571Y-114966714D01*
X103844285Y-115002428D01*
X103808571Y-115038142D01*
X103772857Y-115002428D01*
X103844285Y-115002428D01*
X103094285Y-114716714D02*
X103094285Y-114252428D01*
X103380000Y-114502428D01*
X103380000Y-114395285D01*
X103415714Y-114323857D01*
X103451428Y-114288142D01*
X103522857Y-114252428D01*
X103701428Y-114252428D01*
X103772857Y-114288142D01*
X103808571Y-114323857D01*
X103844285Y-114395285D01*
X103844285Y-114609571D01*
X103808571Y-114681000D01*
X103772857Y-114716714D01*
X103094285Y-114038142D02*
X103844285Y-113788142D01*
X103094285Y-113538142D01*
X100590000Y-115125428D02*
X100554285Y-115196857D01*
X100554285Y-115304000D01*
X100590000Y-115411142D01*
X100661428Y-115482571D01*
X100732857Y-115518285D01*
X100875714Y-115554000D01*
X100982857Y-115554000D01*
X101125714Y-115518285D01*
X101197142Y-115482571D01*
X101268571Y-115411142D01*
X101304285Y-115304000D01*
X101304285Y-115232571D01*
X101268571Y-115125428D01*
X101232857Y-115089714D01*
X100982857Y-115089714D01*
X100982857Y-115232571D01*
X101304285Y-114768285D02*
X100554285Y-114768285D01*
X101304285Y-114339714D01*
X100554285Y-114339714D01*
X101304285Y-113982571D02*
X100554285Y-113982571D01*
X100554285Y-113804000D01*
X100590000Y-113696857D01*
X100661428Y-113625428D01*
X100732857Y-113589714D01*
X100875714Y-113554000D01*
X100982857Y-113554000D01*
X101125714Y-113589714D01*
X101197142Y-113625428D01*
X101268571Y-113696857D01*
X101304285Y-113804000D01*
X101304285Y-113982571D01*
X98764285Y-115337714D02*
X98014285Y-115337714D01*
X98014285Y-115052000D01*
X98050000Y-114980571D01*
X98085714Y-114944857D01*
X98157142Y-114909142D01*
X98264285Y-114909142D01*
X98335714Y-114944857D01*
X98371428Y-114980571D01*
X98407142Y-115052000D01*
X98407142Y-115337714D01*
X98728571Y-114623428D02*
X98764285Y-114516285D01*
X98764285Y-114337714D01*
X98728571Y-114266285D01*
X98692857Y-114230571D01*
X98621428Y-114194857D01*
X98550000Y-114194857D01*
X98478571Y-114230571D01*
X98442857Y-114266285D01*
X98407142Y-114337714D01*
X98371428Y-114480571D01*
X98335714Y-114552000D01*
X98300000Y-114587714D01*
X98228571Y-114623428D01*
X98157142Y-114623428D01*
X98085714Y-114587714D01*
X98050000Y-114552000D01*
X98014285Y-114480571D01*
X98014285Y-114302000D01*
X98050000Y-114194857D01*
X98764285Y-113480571D02*
X98764285Y-113909142D01*
X98764285Y-113694857D02*
X98014285Y-113694857D01*
X98121428Y-113766285D01*
X98192857Y-113837714D01*
X98228571Y-113909142D01*
X96224285Y-115591714D02*
X95474285Y-115591714D01*
X95474285Y-115306000D01*
X95510000Y-115234571D01*
X95545714Y-115198857D01*
X95617142Y-115163142D01*
X95724285Y-115163142D01*
X95795714Y-115198857D01*
X95831428Y-115234571D01*
X95867142Y-115306000D01*
X95867142Y-115591714D01*
X96188571Y-114877428D02*
X96224285Y-114770285D01*
X96224285Y-114591714D01*
X96188571Y-114520285D01*
X96152857Y-114484571D01*
X96081428Y-114448857D01*
X96010000Y-114448857D01*
X95938571Y-114484571D01*
X95902857Y-114520285D01*
X95867142Y-114591714D01*
X95831428Y-114734571D01*
X95795714Y-114806000D01*
X95760000Y-114841714D01*
X95688571Y-114877428D01*
X95617142Y-114877428D01*
X95545714Y-114841714D01*
X95510000Y-114806000D01*
X95474285Y-114734571D01*
X95474285Y-114556000D01*
X95510000Y-114448857D01*
X95474285Y-113984571D02*
X95474285Y-113913142D01*
X95510000Y-113841714D01*
X95545714Y-113806000D01*
X95617142Y-113770285D01*
X95760000Y-113734571D01*
X95938571Y-113734571D01*
X96081428Y-113770285D01*
X96152857Y-113806000D01*
X96188571Y-113841714D01*
X96224285Y-113913142D01*
X96224285Y-113984571D01*
X96188571Y-114056000D01*
X96152857Y-114091714D01*
X96081428Y-114127428D01*
X95938571Y-114163142D01*
X95760000Y-114163142D01*
X95617142Y-114127428D01*
X95545714Y-114091714D01*
X95510000Y-114056000D01*
X95474285Y-113984571D01*
X98163809Y-118944380D02*
X98163809Y-117944380D01*
X98735238Y-118944380D02*
X98306666Y-118372952D01*
X98735238Y-117944380D02*
X98163809Y-118515809D01*
X99163809Y-118944380D02*
X99163809Y-118277714D01*
X99163809Y-117944380D02*
X99116190Y-117992000D01*
X99163809Y-118039619D01*
X99211428Y-117992000D01*
X99163809Y-117944380D01*
X99163809Y-118039619D01*
X99640000Y-118277714D02*
X99640000Y-118944380D01*
X99640000Y-118372952D02*
X99687619Y-118325333D01*
X99782857Y-118277714D01*
X99925714Y-118277714D01*
X100020952Y-118325333D01*
X100068571Y-118420571D01*
X100068571Y-118944380D01*
X100925714Y-118896761D02*
X100830476Y-118944380D01*
X100640000Y-118944380D01*
X100544761Y-118896761D01*
X100497142Y-118801523D01*
X100497142Y-118420571D01*
X100544761Y-118325333D01*
X100640000Y-118277714D01*
X100830476Y-118277714D01*
X100925714Y-118325333D01*
X100973333Y-118420571D01*
X100973333Y-118515809D01*
X100497142Y-118611047D01*
X101259047Y-118277714D02*
X101640000Y-118277714D01*
X101401904Y-117944380D02*
X101401904Y-118801523D01*
X101449523Y-118896761D01*
X101544761Y-118944380D01*
X101640000Y-118944380D01*
X101973333Y-118944380D02*
X101973333Y-118277714D01*
X101973333Y-117944380D02*
X101925714Y-117992000D01*
X101973333Y-118039619D01*
X102020952Y-117992000D01*
X101973333Y-117944380D01*
X101973333Y-118039619D01*
X102878095Y-118896761D02*
X102782857Y-118944380D01*
X102592380Y-118944380D01*
X102497142Y-118896761D01*
X102449523Y-118849142D01*
X102401904Y-118753904D01*
X102401904Y-118468190D01*
X102449523Y-118372952D01*
X102497142Y-118325333D01*
X102592380Y-118277714D01*
X102782857Y-118277714D01*
X102878095Y-118325333D01*
X103306666Y-118563428D02*
X104068571Y-118563428D01*
X104497142Y-118658666D02*
X104973333Y-118658666D01*
X104401904Y-118944380D02*
X104735238Y-117944380D01*
X105068571Y-118944380D01*
X105401904Y-118277714D02*
X105401904Y-118944380D01*
X105401904Y-118372952D02*
X105449523Y-118325333D01*
X105544761Y-118277714D01*
X105687619Y-118277714D01*
X105782857Y-118325333D01*
X105830476Y-118420571D01*
X105830476Y-118944380D01*
X106735238Y-118944380D02*
X106735238Y-118420571D01*
X106687619Y-118325333D01*
X106592380Y-118277714D01*
X106401904Y-118277714D01*
X106306666Y-118325333D01*
X106735238Y-118896761D02*
X106640000Y-118944380D01*
X106401904Y-118944380D01*
X106306666Y-118896761D01*
X106259047Y-118801523D01*
X106259047Y-118706285D01*
X106306666Y-118611047D01*
X106401904Y-118563428D01*
X106640000Y-118563428D01*
X106735238Y-118515809D01*
X107354285Y-118944380D02*
X107259047Y-118896761D01*
X107211428Y-118801523D01*
X107211428Y-117944380D01*
X107640000Y-118277714D02*
X107878095Y-118944380D01*
X108116190Y-118277714D02*
X107878095Y-118944380D01*
X107782857Y-119182476D01*
X107735238Y-119230095D01*
X107640000Y-119277714D01*
X108449523Y-118896761D02*
X108544761Y-118944380D01*
X108735238Y-118944380D01*
X108830476Y-118896761D01*
X108878095Y-118801523D01*
X108878095Y-118753904D01*
X108830476Y-118658666D01*
X108735238Y-118611047D01*
X108592380Y-118611047D01*
X108497142Y-118563428D01*
X108449523Y-118468190D01*
X108449523Y-118420571D01*
X108497142Y-118325333D01*
X108592380Y-118277714D01*
X108735238Y-118277714D01*
X108830476Y-118325333D01*
X109306666Y-118944380D02*
X109306666Y-118277714D01*
X109306666Y-117944380D02*
X109259047Y-117992000D01*
X109306666Y-118039619D01*
X109354285Y-117992000D01*
X109306666Y-117944380D01*
X109306666Y-118039619D01*
X109735238Y-118896761D02*
X109830476Y-118944380D01*
X110020952Y-118944380D01*
X110116190Y-118896761D01*
X110163809Y-118801523D01*
X110163809Y-118753904D01*
X110116190Y-118658666D01*
X110020952Y-118611047D01*
X109878095Y-118611047D01*
X109782857Y-118563428D01*
X109735238Y-118468190D01*
X109735238Y-118420571D01*
X109782857Y-118325333D01*
X109878095Y-118277714D01*
X110020952Y-118277714D01*
X110116190Y-118325333D01*
X98901904Y-120499142D02*
X98854285Y-120546761D01*
X98711428Y-120594380D01*
X98616190Y-120594380D01*
X98473333Y-120546761D01*
X98378095Y-120451523D01*
X98330476Y-120356285D01*
X98282857Y-120165809D01*
X98282857Y-120022952D01*
X98330476Y-119832476D01*
X98378095Y-119737238D01*
X98473333Y-119642000D01*
X98616190Y-119594380D01*
X98711428Y-119594380D01*
X98854285Y-119642000D01*
X98901904Y-119689619D01*
X99520952Y-119594380D02*
X99711428Y-119594380D01*
X99806666Y-119642000D01*
X99901904Y-119737238D01*
X99949523Y-119927714D01*
X99949523Y-120261047D01*
X99901904Y-120451523D01*
X99806666Y-120546761D01*
X99711428Y-120594380D01*
X99520952Y-120594380D01*
X99425714Y-120546761D01*
X99330476Y-120451523D01*
X99282857Y-120261047D01*
X99282857Y-119927714D01*
X99330476Y-119737238D01*
X99425714Y-119642000D01*
X99520952Y-119594380D01*
X100378095Y-120594380D02*
X100378095Y-119594380D01*
X100759047Y-119594380D01*
X100854285Y-119642000D01*
X100901904Y-119689619D01*
X100949523Y-119784857D01*
X100949523Y-119927714D01*
X100901904Y-120022952D01*
X100854285Y-120070571D01*
X100759047Y-120118190D01*
X100378095Y-120118190D01*
X101378095Y-120594380D02*
X101378095Y-119594380D01*
X101616190Y-119594380D01*
X101759047Y-119642000D01*
X101854285Y-119737238D01*
X101901904Y-119832476D01*
X101949523Y-120022952D01*
X101949523Y-120165809D01*
X101901904Y-120356285D01*
X101854285Y-120451523D01*
X101759047Y-120546761D01*
X101616190Y-120594380D01*
X101378095Y-120594380D01*
X103092380Y-120546761D02*
X103235238Y-120594380D01*
X103473333Y-120594380D01*
X103568571Y-120546761D01*
X103616190Y-120499142D01*
X103663809Y-120403904D01*
X103663809Y-120308666D01*
X103616190Y-120213428D01*
X103568571Y-120165809D01*
X103473333Y-120118190D01*
X103282857Y-120070571D01*
X103187619Y-120022952D01*
X103140000Y-119975333D01*
X103092380Y-119880095D01*
X103092380Y-119784857D01*
X103140000Y-119689619D01*
X103187619Y-119642000D01*
X103282857Y-119594380D01*
X103520952Y-119594380D01*
X103663809Y-119642000D01*
X104092380Y-120594380D02*
X104092380Y-119594380D01*
X104520952Y-120594380D02*
X104520952Y-120070571D01*
X104473333Y-119975333D01*
X104378095Y-119927714D01*
X104235238Y-119927714D01*
X104140000Y-119975333D01*
X104092380Y-120022952D01*
X104997142Y-120594380D02*
X104997142Y-119927714D01*
X104997142Y-119594380D02*
X104949523Y-119642000D01*
X104997142Y-119689619D01*
X105044761Y-119642000D01*
X104997142Y-119594380D01*
X104997142Y-119689619D01*
X105473333Y-120594380D02*
X105473333Y-119927714D01*
X105473333Y-120118190D02*
X105520952Y-120022952D01*
X105568571Y-119975333D01*
X105663809Y-119927714D01*
X105759047Y-119927714D01*
X105949523Y-119927714D02*
X106330476Y-119927714D01*
X106092380Y-119594380D02*
X106092380Y-120451523D01*
X106140000Y-120546761D01*
X106235238Y-120594380D01*
X106330476Y-120594380D01*
X107425714Y-120594380D02*
X107425714Y-119594380D01*
X107806666Y-119594380D01*
X107901904Y-119642000D01*
X107949523Y-119689619D01*
X107997142Y-119784857D01*
X107997142Y-119927714D01*
X107949523Y-120022952D01*
X107901904Y-120070571D01*
X107806666Y-120118190D01*
X107425714Y-120118190D01*
X108997142Y-120499142D02*
X108949523Y-120546761D01*
X108806666Y-120594380D01*
X108711428Y-120594380D01*
X108568571Y-120546761D01*
X108473333Y-120451523D01*
X108425714Y-120356285D01*
X108378095Y-120165809D01*
X108378095Y-120022952D01*
X108425714Y-119832476D01*
X108473333Y-119737238D01*
X108568571Y-119642000D01*
X108711428Y-119594380D01*
X108806666Y-119594380D01*
X108949523Y-119642000D01*
X108997142Y-119689619D01*
X109759047Y-120070571D02*
X109901904Y-120118190D01*
X109949523Y-120165809D01*
X109997142Y-120261047D01*
X109997142Y-120403904D01*
X109949523Y-120499142D01*
X109901904Y-120546761D01*
X109806666Y-120594380D01*
X109425714Y-120594380D01*
X109425714Y-119594380D01*
X109759047Y-119594380D01*
X109854285Y-119642000D01*
X109901904Y-119689619D01*
X109949523Y-119784857D01*
X109949523Y-119880095D01*
X109901904Y-119975333D01*
X109854285Y-120022952D01*
X109759047Y-120070571D01*
X109425714Y-120070571D01*
X100425714Y-121244380D02*
X100759047Y-122244380D01*
X101092380Y-121244380D01*
X101806666Y-122196761D02*
X101711428Y-122244380D01*
X101520952Y-122244380D01*
X101425714Y-122196761D01*
X101378095Y-122101523D01*
X101378095Y-121720571D01*
X101425714Y-121625333D01*
X101520952Y-121577714D01*
X101711428Y-121577714D01*
X101806666Y-121625333D01*
X101854285Y-121720571D01*
X101854285Y-121815809D01*
X101378095Y-121911047D01*
X102282857Y-122244380D02*
X102282857Y-121577714D01*
X102282857Y-121768190D02*
X102330476Y-121672952D01*
X102378095Y-121625333D01*
X102473333Y-121577714D01*
X102568571Y-121577714D01*
X102854285Y-122196761D02*
X102949523Y-122244380D01*
X103140000Y-122244380D01*
X103235238Y-122196761D01*
X103282857Y-122101523D01*
X103282857Y-122053904D01*
X103235238Y-121958666D01*
X103140000Y-121911047D01*
X102997142Y-121911047D01*
X102901904Y-121863428D01*
X102854285Y-121768190D01*
X102854285Y-121720571D01*
X102901904Y-121625333D01*
X102997142Y-121577714D01*
X103140000Y-121577714D01*
X103235238Y-121625333D01*
X103711428Y-122244380D02*
X103711428Y-121577714D01*
X103711428Y-121244380D02*
X103663809Y-121292000D01*
X103711428Y-121339619D01*
X103759047Y-121292000D01*
X103711428Y-121244380D01*
X103711428Y-121339619D01*
X104568571Y-122196761D02*
X104473333Y-122244380D01*
X104282857Y-122244380D01*
X104187619Y-122196761D01*
X104140000Y-122101523D01*
X104140000Y-121720571D01*
X104187619Y-121625333D01*
X104282857Y-121577714D01*
X104473333Y-121577714D01*
X104568571Y-121625333D01*
X104616190Y-121720571D01*
X104616190Y-121815809D01*
X104140000Y-121911047D01*
X106330476Y-122244380D02*
X105759047Y-122244380D01*
X106044761Y-122244380D02*
X106044761Y-121244380D01*
X105949523Y-121387238D01*
X105854285Y-121482476D01*
X105759047Y-121530095D01*
X106759047Y-122149142D02*
X106806666Y-122196761D01*
X106759047Y-122244380D01*
X106711428Y-122196761D01*
X106759047Y-122149142D01*
X106759047Y-122244380D01*
X107425714Y-121244380D02*
X107520952Y-121244380D01*
X107616190Y-121292000D01*
X107663809Y-121339619D01*
X107711428Y-121434857D01*
X107759047Y-121625333D01*
X107759047Y-121863428D01*
X107711428Y-122053904D01*
X107663809Y-122149142D01*
X107616190Y-122196761D01*
X107520952Y-122244380D01*
X107425714Y-122244380D01*
X107330476Y-122196761D01*
X107282857Y-122149142D01*
X107235238Y-122053904D01*
X107187619Y-121863428D01*
X107187619Y-121625333D01*
X107235238Y-121434857D01*
X107282857Y-121339619D01*
X107330476Y-121292000D01*
X107425714Y-121244380D01*
X77150980Y-74883971D02*
X77293838Y-74931590D01*
X77341457Y-74979209D01*
X77389076Y-75074447D01*
X77389076Y-75217304D01*
X77341457Y-75312542D01*
X77293838Y-75360161D01*
X77198600Y-75407780D01*
X76817647Y-75407780D01*
X76817647Y-74407780D01*
X77150980Y-74407780D01*
X77246219Y-74455400D01*
X77293838Y-74503019D01*
X77341457Y-74598257D01*
X77341457Y-74693495D01*
X77293838Y-74788733D01*
X77246219Y-74836352D01*
X77150980Y-74883971D01*
X76817647Y-74883971D01*
X77817647Y-75026828D02*
X78579552Y-75026828D01*
X78198600Y-75407780D02*
X78198600Y-74645876D01*
X74737980Y-74972871D02*
X74880838Y-75020490D01*
X74928457Y-75068109D01*
X74976076Y-75163347D01*
X74976076Y-75306204D01*
X74928457Y-75401442D01*
X74880838Y-75449061D01*
X74785600Y-75496680D01*
X74404647Y-75496680D01*
X74404647Y-74496680D01*
X74737980Y-74496680D01*
X74833219Y-74544300D01*
X74880838Y-74591919D01*
X74928457Y-74687157D01*
X74928457Y-74782395D01*
X74880838Y-74877633D01*
X74833219Y-74925252D01*
X74737980Y-74972871D01*
X74404647Y-74972871D01*
X75404647Y-75115728D02*
X76166552Y-75115728D01*
X76695419Y-122791480D02*
X76695419Y-121791480D01*
X77028752Y-122505766D01*
X77362085Y-121791480D01*
X77362085Y-122791480D01*
X77838276Y-122410528D02*
X78600180Y-122410528D01*
X73964919Y-122854980D02*
X73964919Y-121854980D01*
X74298252Y-122569266D01*
X74631585Y-121854980D01*
X74631585Y-122854980D01*
X75107776Y-122474028D02*
X75869680Y-122474028D01*
X75488728Y-122854980D02*
X75488728Y-122093076D01*
X70632676Y-122905780D02*
X70299342Y-122429590D01*
X70061247Y-122905780D02*
X70061247Y-121905780D01*
X70442200Y-121905780D01*
X70537438Y-121953400D01*
X70585057Y-122001019D01*
X70632676Y-122096257D01*
X70632676Y-122239114D01*
X70585057Y-122334352D01*
X70537438Y-122381971D01*
X70442200Y-122429590D01*
X70061247Y-122429590D01*
X71061247Y-122524828D02*
X71823152Y-122524828D01*
X67902176Y-122842280D02*
X67568842Y-122366090D01*
X67330747Y-122842280D02*
X67330747Y-121842280D01*
X67711700Y-121842280D01*
X67806938Y-121889900D01*
X67854557Y-121937519D01*
X67902176Y-122032757D01*
X67902176Y-122175614D01*
X67854557Y-122270852D01*
X67806938Y-122318471D01*
X67711700Y-122366090D01*
X67330747Y-122366090D01*
X68330747Y-122461328D02*
X69092652Y-122461328D01*
X68711700Y-122842280D02*
X68711700Y-122080376D01*
D11*
X113282000Y-83850267D02*
X113282000Y-83507733D01*
X114302000Y-83850267D02*
X114302000Y-83507733D01*
X88107733Y-111381000D02*
X88450267Y-111381000D01*
X88107733Y-110361000D02*
X88450267Y-110361000D01*
X81405000Y-120172267D02*
X81405000Y-119829733D01*
X82425000Y-120172267D02*
X82425000Y-119829733D01*
X80901000Y-120200267D02*
X80901000Y-119857733D01*
X79881000Y-120200267D02*
X79881000Y-119857733D01*
D12*
X102633000Y-103413500D02*
X102633000Y-104213500D01*
X107833000Y-104213500D02*
X107833000Y-103413500D01*
X107833000Y-101213500D02*
X107833000Y-100413500D01*
X102633000Y-101213500D02*
X102633000Y-100413500D01*
X102933000Y-100113500D02*
X102933000Y-100113500D01*
X103033000Y-100113500D02*
X103033000Y-100113500D01*
X103033000Y-100113500D02*
G75*
G03X102933000Y-100113500I-50000J0D01*
G01*
X102933000Y-100113500D02*
G75*
G03X103033000Y-100113500I50000J0D01*
G01*
D11*
X102116000Y-75071500D02*
X102116000Y-79131500D01*
X102116000Y-79131500D02*
X104386000Y-79131500D01*
X104386000Y-79131500D02*
X104386000Y-75071500D01*
X100627500Y-81653000D02*
X104687500Y-81653000D01*
X100627500Y-79383000D02*
X100627500Y-81653000D01*
X104687500Y-79383000D02*
X100627500Y-79383000D01*
D12*
X79937000Y-86413000D02*
G75*
G02X79937000Y-86313000I0J50000D01*
G01*
X79937000Y-86313000D02*
G75*
G02X79937000Y-86413000I0J-50000D01*
G01*
X79937000Y-86313000D02*
X79937000Y-86313000D01*
X79937000Y-86413000D02*
X79937000Y-86413000D01*
D11*
X87443000Y-104581000D02*
X92643000Y-104581000D01*
X87443000Y-94361000D02*
X87443000Y-104581000D01*
X92643000Y-91761000D02*
X92643000Y-104581000D01*
X87443000Y-94361000D02*
X90043000Y-94361000D01*
X90043000Y-94361000D02*
X90043000Y-91761000D01*
X90043000Y-91761000D02*
X92643000Y-91761000D01*
X87443000Y-93091000D02*
X87443000Y-91761000D01*
X87443000Y-91761000D02*
X88773000Y-91761000D01*
X72577000Y-76267000D02*
X67377000Y-76267000D01*
X72577000Y-81407000D02*
X72577000Y-76267000D01*
X67377000Y-84007000D02*
X67377000Y-76267000D01*
X72577000Y-81407000D02*
X69977000Y-81407000D01*
X69977000Y-81407000D02*
X69977000Y-84007000D01*
X69977000Y-84007000D02*
X67377000Y-84007000D01*
X72577000Y-82677000D02*
X72577000Y-84007000D01*
X72577000Y-84007000D02*
X71247000Y-84007000D01*
X114945000Y-93943500D02*
X114945000Y-91283500D01*
X97105000Y-93943500D02*
X114945000Y-93943500D01*
X97105000Y-91283500D02*
X114945000Y-91283500D01*
X97105000Y-93943500D02*
X97105000Y-91283500D01*
X95835000Y-93943500D02*
X94505000Y-93943500D01*
X94505000Y-93943500D02*
X94505000Y-92613500D01*
X94505000Y-112866500D02*
X94505000Y-111536500D01*
X95835000Y-112866500D02*
X94505000Y-112866500D01*
X97105000Y-112866500D02*
X97105000Y-110206500D01*
X97105000Y-110206500D02*
X114945000Y-110206500D01*
X97105000Y-112866500D02*
X114945000Y-112866500D01*
X114945000Y-112866500D02*
X114945000Y-110206500D01*
X94301000Y-101025000D02*
X96961000Y-101025000D01*
X94301000Y-100965000D02*
X94301000Y-101025000D01*
X96961000Y-100965000D02*
X96961000Y-101025000D01*
X94301000Y-100965000D02*
X96961000Y-100965000D01*
X94301000Y-99695000D02*
X94301000Y-98365000D01*
X94301000Y-98365000D02*
X95631000Y-98365000D01*
X89025000Y-115565000D02*
X89025000Y-114635000D01*
X89025000Y-112405000D02*
X89025000Y-113335000D01*
X89025000Y-112405000D02*
X86865000Y-112405000D01*
X89025000Y-115565000D02*
X87565000Y-115565000D01*
X82024000Y-115560000D02*
X80564000Y-115560000D01*
X82024000Y-112400000D02*
X79864000Y-112400000D01*
X82024000Y-112400000D02*
X82024000Y-113330000D01*
X82024000Y-115560000D02*
X82024000Y-114630000D01*
X85532500Y-115560000D02*
X84072500Y-115560000D01*
X85532500Y-112400000D02*
X83372500Y-112400000D01*
X85532500Y-112400000D02*
X85532500Y-113330000D01*
X85532500Y-115560000D02*
X85532500Y-114630000D01*
X75382000Y-113282000D02*
X76312000Y-113282000D01*
X78542000Y-113282000D02*
X77612000Y-113282000D01*
X78542000Y-113282000D02*
X78542000Y-111122000D01*
X75382000Y-113282000D02*
X75382000Y-111822000D01*
X85100000Y-110120000D02*
X85880000Y-110120000D01*
X85880000Y-110120000D02*
X85880000Y-109120000D01*
X85100000Y-91880000D02*
X85880000Y-91880000D01*
X85880000Y-91880000D02*
X85880000Y-92880000D01*
X60135000Y-110120000D02*
X60135000Y-91880000D01*
X60135000Y-91880000D02*
X66555000Y-91880000D01*
X60135000Y-110120000D02*
X66555000Y-110120000D01*
X66555000Y-110120000D02*
X66555000Y-110500000D01*
X71262000Y-112693267D02*
X71262000Y-112350733D01*
X72282000Y-112693267D02*
X72282000Y-112350733D01*
X66673000Y-112350733D02*
X66673000Y-112693267D01*
X67693000Y-112350733D02*
X67693000Y-112693267D01*
X80262000Y-85402267D02*
X80262000Y-85059733D01*
X81282000Y-85402267D02*
X81282000Y-85059733D01*
X68197000Y-112336733D02*
X68197000Y-112679267D01*
X69217000Y-112336733D02*
X69217000Y-112679267D01*
X103707000Y-107047233D02*
X103707000Y-107389767D01*
X104727000Y-107047233D02*
X104727000Y-107389767D01*
X98881000Y-97878767D02*
X98881000Y-97536233D01*
X99901000Y-97878767D02*
X99901000Y-97536233D01*
X102441000Y-107047233D02*
X102441000Y-107389767D01*
X101421000Y-107047233D02*
X101421000Y-107389767D01*
X102695000Y-97864767D02*
X102695000Y-97522233D01*
X101675000Y-97864767D02*
X101675000Y-97522233D01*
X108333000Y-97522233D02*
X108333000Y-97864767D01*
X107313000Y-97522233D02*
X107313000Y-97864767D01*
X69738000Y-112693267D02*
X69738000Y-112350733D01*
X70758000Y-112693267D02*
X70758000Y-112350733D01*
X88107733Y-109857000D02*
X88450267Y-109857000D01*
X88107733Y-108837000D02*
X88450267Y-108837000D01*
X88206733Y-106428000D02*
X88549267Y-106428000D01*
X88206733Y-105408000D02*
X88549267Y-105408000D01*
X94617000Y-95953733D02*
X94617000Y-96296267D01*
X93597000Y-95953733D02*
X93597000Y-96296267D01*
X82806000Y-85031733D02*
X82806000Y-85374267D01*
X81786000Y-85031733D02*
X81786000Y-85374267D01*
X99135000Y-107047233D02*
X99135000Y-107389767D01*
X100155000Y-107047233D02*
X100155000Y-107389767D01*
X74928000Y-85680733D02*
X74928000Y-86023267D01*
X75948000Y-85680733D02*
X75948000Y-86023267D01*
X96849000Y-107047233D02*
X96849000Y-107389767D01*
X97869000Y-107047233D02*
X97869000Y-107389767D01*
X100205000Y-76258267D02*
X100205000Y-75915733D01*
X99185000Y-76258267D02*
X99185000Y-75915733D01*
X98881000Y-102616233D02*
X98881000Y-102958767D01*
X99901000Y-102616233D02*
X99901000Y-102958767D01*
X107013000Y-107047233D02*
X107013000Y-107389767D01*
X105993000Y-107047233D02*
X105993000Y-107389767D01*
X100709000Y-75901733D02*
X100709000Y-76244267D01*
X101729000Y-75901733D02*
X101729000Y-76244267D01*
X100205000Y-79330733D02*
X100205000Y-79673267D01*
X99185000Y-79330733D02*
X99185000Y-79673267D01*
X108279000Y-107389767D02*
X108279000Y-107047233D01*
X109299000Y-107389767D02*
X109299000Y-107047233D01*
X109853000Y-107389767D02*
X109853000Y-107047233D01*
X110873000Y-107389767D02*
X110873000Y-107047233D01*
X111377000Y-107389767D02*
X111377000Y-107047233D01*
X112397000Y-107389767D02*
X112397000Y-107047233D01*
X111889000Y-98850267D02*
X111889000Y-98507733D01*
X110869000Y-98850267D02*
X110869000Y-98507733D01*
X113413000Y-99372267D02*
X113413000Y-99029733D01*
X112393000Y-99372267D02*
X112393000Y-99029733D01*
X88093733Y-116076000D02*
X88436267Y-116076000D01*
X88093733Y-117096000D02*
X88436267Y-117096000D01*
X81094733Y-116076000D02*
X81437267Y-116076000D01*
X81094733Y-117096000D02*
X81437267Y-117096000D01*
X84551733Y-116076000D02*
X84894267Y-116076000D01*
X84551733Y-117096000D02*
X84894267Y-117096000D01*
X74551000Y-112693267D02*
X74551000Y-112350733D01*
X73531000Y-112693267D02*
X73531000Y-112350733D01*
X108075000Y-79913267D02*
X108075000Y-79570733D01*
X109095000Y-79913267D02*
X109095000Y-79570733D01*
X114302000Y-87279267D02*
X114302000Y-86936733D01*
X113282000Y-87279267D02*
X113282000Y-86936733D01*
D13*
X114139000Y-77729000D02*
G75*
G03X114139000Y-77729000I-125000J0D01*
G01*
D11*
X90491000Y-119440000D02*
X93151000Y-119440000D01*
X90491000Y-111760000D02*
X90491000Y-119440000D01*
X93151000Y-111760000D02*
X93151000Y-119440000D01*
X90491000Y-111760000D02*
X93151000Y-111760000D01*
X90491000Y-110490000D02*
X90491000Y-109160000D01*
X90491000Y-109160000D02*
X91821000Y-109160000D01*
X89129000Y-74916000D02*
X98069000Y-74916000D01*
X89129000Y-80426000D02*
X89129000Y-78626000D01*
X89129000Y-74916000D02*
X89129000Y-76376000D01*
X98069000Y-74916000D02*
X98069000Y-76376000D01*
X98069000Y-80426000D02*
X98069000Y-78626000D01*
X111448436Y-74459000D02*
X112652564Y-74459000D01*
X111448436Y-77179000D02*
X112652564Y-77179000D01*
D14*
X84350000Y-121192000D02*
G75*
G02X84550000Y-121192000I100000J0D01*
G01*
X84550000Y-121192000D02*
G75*
G02X84350000Y-121192000I-100000J0D01*
G01*
D12*
X85950000Y-117992000D02*
X87150000Y-117992000D01*
X85950000Y-120792000D02*
X87150000Y-120792000D01*
D14*
X84550000Y-121192000D02*
X84550000Y-121192000D01*
X84350000Y-121192000D02*
X84350000Y-121192000D01*
D11*
X104334000Y-98665000D02*
X105684000Y-98665000D01*
X104334000Y-96915000D02*
X105684000Y-96915000D01*
X79584000Y-75892000D02*
X79184000Y-75892000D01*
X79584000Y-76532000D02*
X79584000Y-75892000D01*
X73564000Y-82872000D02*
X73564000Y-76132000D01*
X79344000Y-82872000D02*
X79344000Y-76132000D01*
X79344000Y-76132000D02*
X73564000Y-76132000D01*
X79344000Y-82872000D02*
X73564000Y-82872000D01*
X79344000Y-81752000D02*
X73564000Y-81752000D01*
X79344000Y-76652000D02*
X73564000Y-76652000D01*
X72359000Y-115133000D02*
X66579000Y-115133000D01*
X72359000Y-120233000D02*
X66579000Y-120233000D01*
X72359000Y-121353000D02*
X66579000Y-121353000D01*
X72359000Y-114613000D02*
X66579000Y-114613000D01*
X72359000Y-121353000D02*
X72359000Y-114613000D01*
X66579000Y-121353000D02*
X66579000Y-114613000D01*
X72599000Y-115013000D02*
X72599000Y-114373000D01*
X72599000Y-114373000D02*
X72199000Y-114373000D01*
X78963000Y-115133000D02*
X73183000Y-115133000D01*
X78963000Y-120233000D02*
X73183000Y-120233000D01*
X78963000Y-121353000D02*
X73183000Y-121353000D01*
X78963000Y-114613000D02*
X73183000Y-114613000D01*
X78963000Y-121353000D02*
X78963000Y-114613000D01*
X73183000Y-121353000D02*
X73183000Y-114613000D01*
X79203000Y-115013000D02*
X79203000Y-114373000D01*
X79203000Y-114373000D02*
X78803000Y-114373000D01*
D14*
X109429000Y-74594000D02*
G75*
G03X109429000Y-74594000I-100000J0D01*
G01*
X105434000Y-76815000D02*
X108434000Y-76815000D01*
X105434000Y-74315000D02*
X108434000Y-74315000D01*
D11*
X85567733Y-75567000D02*
X85910267Y-75567000D01*
X85567733Y-74547000D02*
X85910267Y-74547000D01*
X83187000Y-77284733D02*
X83187000Y-77627267D01*
X82167000Y-77284733D02*
X82167000Y-77627267D01*
X85879000Y-77178000D02*
X85879000Y-79638000D01*
X85879000Y-79638000D02*
X87349000Y-79638000D01*
X87349000Y-79638000D02*
X87349000Y-77178000D01*
X85402267Y-80262000D02*
X85059733Y-80262000D01*
X85402267Y-81282000D02*
X85059733Y-81282000D01*
X85402267Y-82806000D02*
X85059733Y-82806000D01*
X85402267Y-81786000D02*
X85059733Y-81786000D01*
D15*
X85328635Y-75768201D02*
G75*
G03X85471699Y-75804747I66864J-36546D01*
G01*
X85775799Y-78734580D02*
X85775799Y-77184914D01*
X83515199Y-77184914D02*
X83515199Y-78734580D01*
D10*
X115435142Y-85052142D02*
X115387523Y-85099761D01*
X115244666Y-85147380D01*
X115149428Y-85147380D01*
X115006571Y-85099761D01*
X114911333Y-85004523D01*
X114863714Y-84909285D01*
X114816095Y-84718809D01*
X114816095Y-84575952D01*
X114863714Y-84385476D01*
X114911333Y-84290238D01*
X115006571Y-84195000D01*
X115149428Y-84147380D01*
X115244666Y-84147380D01*
X115387523Y-84195000D01*
X115435142Y-84242619D01*
X116387523Y-85147380D02*
X115816095Y-85147380D01*
X116101809Y-85147380D02*
X116101809Y-84147380D01*
X116006571Y-84290238D01*
X115911333Y-84385476D01*
X115816095Y-84433095D01*
X117244666Y-84480714D02*
X117244666Y-85147380D01*
X117006571Y-84099761D02*
X116768476Y-84814047D01*
X117387523Y-84814047D01*
X114238095Y-116252380D02*
X114238095Y-115252380D01*
X114238095Y-115728571D02*
X114809523Y-115728571D01*
X114809523Y-116252380D02*
X114809523Y-115252380D01*
X115714285Y-115585714D02*
X115714285Y-116252380D01*
X115476190Y-115204761D02*
X115238095Y-115919047D01*
X115857142Y-115919047D01*
X86685380Y-111037666D02*
X86209190Y-111371000D01*
X86685380Y-111609095D02*
X85685380Y-111609095D01*
X85685380Y-111228142D01*
X85733000Y-111132904D01*
X85780619Y-111085285D01*
X85875857Y-111037666D01*
X86018714Y-111037666D01*
X86113952Y-111085285D01*
X86161571Y-111132904D01*
X86209190Y-111228142D01*
X86209190Y-111609095D01*
X85685380Y-110180523D02*
X85685380Y-110371000D01*
X85733000Y-110466238D01*
X85780619Y-110513857D01*
X85923476Y-110609095D01*
X86113952Y-110656714D01*
X86494904Y-110656714D01*
X86590142Y-110609095D01*
X86637761Y-110561476D01*
X86685380Y-110466238D01*
X86685380Y-110275761D01*
X86637761Y-110180523D01*
X86590142Y-110132904D01*
X86494904Y-110085285D01*
X86256809Y-110085285D01*
X86161571Y-110132904D01*
X86113952Y-110180523D01*
X86066333Y-110275761D01*
X86066333Y-110466238D01*
X86113952Y-110561476D01*
X86161571Y-110609095D01*
X86256809Y-110656714D01*
X81875333Y-123134380D02*
X81542000Y-122658190D01*
X81303904Y-123134380D02*
X81303904Y-122134380D01*
X81684857Y-122134380D01*
X81780095Y-122182000D01*
X81827714Y-122229619D01*
X81875333Y-122324857D01*
X81875333Y-122467714D01*
X81827714Y-122562952D01*
X81780095Y-122610571D01*
X81684857Y-122658190D01*
X81303904Y-122658190D01*
X82827714Y-123134380D02*
X82256285Y-123134380D01*
X82542000Y-123134380D02*
X82542000Y-122134380D01*
X82446761Y-122277238D01*
X82351523Y-122372476D01*
X82256285Y-122420095D01*
X79970333Y-123134380D02*
X79637000Y-122658190D01*
X79398904Y-123134380D02*
X79398904Y-122134380D01*
X79779857Y-122134380D01*
X79875095Y-122182000D01*
X79922714Y-122229619D01*
X79970333Y-122324857D01*
X79970333Y-122467714D01*
X79922714Y-122562952D01*
X79875095Y-122610571D01*
X79779857Y-122658190D01*
X79398904Y-122658190D01*
X80351285Y-122229619D02*
X80398904Y-122182000D01*
X80494142Y-122134380D01*
X80732238Y-122134380D01*
X80827476Y-122182000D01*
X80875095Y-122229619D01*
X80922714Y-122324857D01*
X80922714Y-122420095D01*
X80875095Y-122562952D01*
X80303666Y-123134380D01*
X80922714Y-123134380D01*
X108839095Y-91870380D02*
X108839095Y-90870380D01*
X108839095Y-91346571D02*
X109410523Y-91346571D01*
X109410523Y-91870380D02*
X109410523Y-90870380D01*
X109839095Y-90965619D02*
X109886714Y-90918000D01*
X109981952Y-90870380D01*
X110220047Y-90870380D01*
X110315285Y-90918000D01*
X110362904Y-90965619D01*
X110410523Y-91060857D01*
X110410523Y-91156095D01*
X110362904Y-91298952D01*
X109791476Y-91870380D01*
X110410523Y-91870380D01*
D16*
X109431666Y-103650142D02*
X109431666Y-103045380D01*
X109794523Y-103771095D02*
X108524523Y-103347761D01*
X109794523Y-102924428D01*
X109673571Y-101775380D02*
X109734047Y-101835857D01*
X109794523Y-102017285D01*
X109794523Y-102138238D01*
X109734047Y-102319666D01*
X109613095Y-102440619D01*
X109492142Y-102501095D01*
X109250238Y-102561571D01*
X109068809Y-102561571D01*
X108826904Y-102501095D01*
X108705952Y-102440619D01*
X108585000Y-102319666D01*
X108524523Y-102138238D01*
X108524523Y-102017285D01*
X108585000Y-101835857D01*
X108645476Y-101775380D01*
X109794523Y-100565857D02*
X109794523Y-101291571D01*
X109794523Y-100928714D02*
X108524523Y-100928714D01*
X108705952Y-101049666D01*
X108826904Y-101170619D01*
X108887380Y-101291571D01*
D10*
X102512904Y-77160380D02*
X102512904Y-76160380D01*
X102751000Y-76160380D01*
X102893857Y-76208000D01*
X102989095Y-76303238D01*
X103036714Y-76398476D01*
X103084333Y-76588952D01*
X103084333Y-76731809D01*
X103036714Y-76922285D01*
X102989095Y-77017523D01*
X102893857Y-77112761D01*
X102751000Y-77160380D01*
X102512904Y-77160380D01*
X103465285Y-76255619D02*
X103512904Y-76208000D01*
X103608142Y-76160380D01*
X103846238Y-76160380D01*
X103941476Y-76208000D01*
X103989095Y-76255619D01*
X104036714Y-76350857D01*
X104036714Y-76446095D01*
X103989095Y-76588952D01*
X103417666Y-77160380D01*
X104036714Y-77160380D01*
X102385904Y-83002380D02*
X102385904Y-82002380D01*
X102624000Y-82002380D01*
X102766857Y-82050000D01*
X102862095Y-82145238D01*
X102909714Y-82240476D01*
X102957333Y-82430952D01*
X102957333Y-82573809D01*
X102909714Y-82764285D01*
X102862095Y-82859523D01*
X102766857Y-82954761D01*
X102624000Y-83002380D01*
X102385904Y-83002380D01*
X103290666Y-82002380D02*
X103909714Y-82002380D01*
X103576380Y-82383333D01*
X103719238Y-82383333D01*
X103814476Y-82430952D01*
X103862095Y-82478571D01*
X103909714Y-82573809D01*
X103909714Y-82811904D01*
X103862095Y-82907142D01*
X103814476Y-82954761D01*
X103719238Y-83002380D01*
X103433523Y-83002380D01*
X103338285Y-82954761D01*
X103290666Y-82907142D01*
D16*
X76865238Y-89093523D02*
X76865238Y-87823523D01*
X78195714Y-88972571D02*
X78135238Y-89033047D01*
X77953809Y-89093523D01*
X77832857Y-89093523D01*
X77651428Y-89033047D01*
X77530476Y-88912095D01*
X77470000Y-88791142D01*
X77409523Y-88549238D01*
X77409523Y-88367809D01*
X77470000Y-88125904D01*
X77530476Y-88004952D01*
X77651428Y-87884000D01*
X77832857Y-87823523D01*
X77953809Y-87823523D01*
X78135238Y-87884000D01*
X78195714Y-87944476D01*
X79405238Y-89093523D02*
X78679523Y-89093523D01*
X79042380Y-89093523D02*
X79042380Y-87823523D01*
X78921428Y-88004952D01*
X78800476Y-88125904D01*
X78679523Y-88186380D01*
D10*
X90852666Y-89876380D02*
X90852666Y-90590666D01*
X90805047Y-90733523D01*
X90709809Y-90828761D01*
X90566952Y-90876380D01*
X90471714Y-90876380D01*
X91233619Y-89876380D02*
X91852666Y-89876380D01*
X91519333Y-90257333D01*
X91662190Y-90257333D01*
X91757428Y-90304952D01*
X91805047Y-90352571D01*
X91852666Y-90447809D01*
X91852666Y-90685904D01*
X91805047Y-90781142D01*
X91757428Y-90828761D01*
X91662190Y-90876380D01*
X91376476Y-90876380D01*
X91281238Y-90828761D01*
X91233619Y-90781142D01*
X69643666Y-84459380D02*
X69643666Y-85173666D01*
X69596047Y-85316523D01*
X69500809Y-85411761D01*
X69357952Y-85459380D01*
X69262714Y-85459380D01*
X70548428Y-84792714D02*
X70548428Y-85459380D01*
X70310333Y-84411761D02*
X70072238Y-85126047D01*
X70691285Y-85126047D01*
X92957380Y-92946833D02*
X93671666Y-92946833D01*
X93814523Y-92994452D01*
X93909761Y-93089690D01*
X93957380Y-93232547D01*
X93957380Y-93327785D01*
X92957380Y-91994452D02*
X92957380Y-92470642D01*
X93433571Y-92518261D01*
X93385952Y-92470642D01*
X93338333Y-92375404D01*
X93338333Y-92137309D01*
X93385952Y-92042071D01*
X93433571Y-91994452D01*
X93528809Y-91946833D01*
X93766904Y-91946833D01*
X93862142Y-91994452D01*
X93909761Y-92042071D01*
X93957380Y-92137309D01*
X93957380Y-92375404D01*
X93909761Y-92470642D01*
X93862142Y-92518261D01*
X92957380Y-111869833D02*
X93671666Y-111869833D01*
X93814523Y-111917452D01*
X93909761Y-112012690D01*
X93957380Y-112155547D01*
X93957380Y-112250785D01*
X92957380Y-110965071D02*
X92957380Y-111155547D01*
X93005000Y-111250785D01*
X93052619Y-111298404D01*
X93195476Y-111393642D01*
X93385952Y-111441261D01*
X93766904Y-111441261D01*
X93862142Y-111393642D01*
X93909761Y-111346023D01*
X93957380Y-111250785D01*
X93957380Y-111060309D01*
X93909761Y-110965071D01*
X93862142Y-110917452D01*
X93766904Y-110869833D01*
X93528809Y-110869833D01*
X93433571Y-110917452D01*
X93385952Y-110965071D01*
X93338333Y-111060309D01*
X93338333Y-111250785D01*
X93385952Y-111346023D01*
X93433571Y-111393642D01*
X93528809Y-111441261D01*
X95297666Y-101814380D02*
X95297666Y-102528666D01*
X95250047Y-102671523D01*
X95154809Y-102766761D01*
X95011952Y-102814380D01*
X94916714Y-102814380D01*
X95678619Y-101814380D02*
X96345285Y-101814380D01*
X95916714Y-102814380D01*
X88169761Y-112032619D02*
X88074523Y-111985000D01*
X87979285Y-111889761D01*
X87836428Y-111746904D01*
X87741190Y-111699285D01*
X87645952Y-111699285D01*
X87693571Y-111937380D02*
X87598333Y-111889761D01*
X87503095Y-111794523D01*
X87455476Y-111604047D01*
X87455476Y-111270714D01*
X87503095Y-111080238D01*
X87598333Y-110985000D01*
X87693571Y-110937380D01*
X87884047Y-110937380D01*
X87979285Y-110985000D01*
X88074523Y-111080238D01*
X88122142Y-111270714D01*
X88122142Y-111604047D01*
X88074523Y-111794523D01*
X87979285Y-111889761D01*
X87884047Y-111937380D01*
X87693571Y-111937380D01*
X89074523Y-111937380D02*
X88503095Y-111937380D01*
X88788809Y-111937380D02*
X88788809Y-110937380D01*
X88693571Y-111080238D01*
X88598333Y-111175476D01*
X88503095Y-111223095D01*
X81168761Y-112027619D02*
X81073523Y-111980000D01*
X80978285Y-111884761D01*
X80835428Y-111741904D01*
X80740190Y-111694285D01*
X80644952Y-111694285D01*
X80692571Y-111932380D02*
X80597333Y-111884761D01*
X80502095Y-111789523D01*
X80454476Y-111599047D01*
X80454476Y-111265714D01*
X80502095Y-111075238D01*
X80597333Y-110980000D01*
X80692571Y-110932380D01*
X80883047Y-110932380D01*
X80978285Y-110980000D01*
X81073523Y-111075238D01*
X81121142Y-111265714D01*
X81121142Y-111599047D01*
X81073523Y-111789523D01*
X80978285Y-111884761D01*
X80883047Y-111932380D01*
X80692571Y-111932380D01*
X81454476Y-110932380D02*
X82073523Y-110932380D01*
X81740190Y-111313333D01*
X81883047Y-111313333D01*
X81978285Y-111360952D01*
X82025904Y-111408571D01*
X82073523Y-111503809D01*
X82073523Y-111741904D01*
X82025904Y-111837142D01*
X81978285Y-111884761D01*
X81883047Y-111932380D01*
X81597333Y-111932380D01*
X81502095Y-111884761D01*
X81454476Y-111837142D01*
X84677261Y-112027619D02*
X84582023Y-111980000D01*
X84486785Y-111884761D01*
X84343928Y-111741904D01*
X84248690Y-111694285D01*
X84153452Y-111694285D01*
X84201071Y-111932380D02*
X84105833Y-111884761D01*
X84010595Y-111789523D01*
X83962976Y-111599047D01*
X83962976Y-111265714D01*
X84010595Y-111075238D01*
X84105833Y-110980000D01*
X84201071Y-110932380D01*
X84391547Y-110932380D01*
X84486785Y-110980000D01*
X84582023Y-111075238D01*
X84629642Y-111265714D01*
X84629642Y-111599047D01*
X84582023Y-111789523D01*
X84486785Y-111884761D01*
X84391547Y-111932380D01*
X84201071Y-111932380D01*
X85486785Y-111265714D02*
X85486785Y-111932380D01*
X85248690Y-110884761D02*
X85010595Y-111599047D01*
X85629642Y-111599047D01*
X79795619Y-111728238D02*
X79748000Y-111823476D01*
X79652761Y-111918714D01*
X79509904Y-112061571D01*
X79462285Y-112156809D01*
X79462285Y-112252047D01*
X79700380Y-112204428D02*
X79652761Y-112299666D01*
X79557523Y-112394904D01*
X79367047Y-112442523D01*
X79033714Y-112442523D01*
X78843238Y-112394904D01*
X78748000Y-112299666D01*
X78700380Y-112204428D01*
X78700380Y-112013952D01*
X78748000Y-111918714D01*
X78843238Y-111823476D01*
X79033714Y-111775857D01*
X79367047Y-111775857D01*
X79557523Y-111823476D01*
X79652761Y-111918714D01*
X79700380Y-112013952D01*
X79700380Y-112204428D01*
X78795619Y-111394904D02*
X78748000Y-111347285D01*
X78700380Y-111252047D01*
X78700380Y-111013952D01*
X78748000Y-110918714D01*
X78795619Y-110871095D01*
X78890857Y-110823476D01*
X78986095Y-110823476D01*
X79128952Y-110871095D01*
X79700380Y-111442523D01*
X79700380Y-110823476D01*
X67778380Y-101726904D02*
X68587904Y-101726904D01*
X68683142Y-101679285D01*
X68730761Y-101631666D01*
X68778380Y-101536428D01*
X68778380Y-101345952D01*
X68730761Y-101250714D01*
X68683142Y-101203095D01*
X68587904Y-101155476D01*
X67778380Y-101155476D01*
X68778380Y-100155476D02*
X68778380Y-100726904D01*
X68778380Y-100441190D02*
X67778380Y-100441190D01*
X67921238Y-100536428D01*
X68016476Y-100631666D01*
X68064095Y-100726904D01*
X62238095Y-83383380D02*
X62238095Y-82383380D01*
X62238095Y-82859571D02*
X62809523Y-82859571D01*
X62809523Y-83383380D02*
X62809523Y-82383380D01*
X63809523Y-83383380D02*
X63238095Y-83383380D01*
X63523809Y-83383380D02*
X63523809Y-82383380D01*
X63428571Y-82526238D01*
X63333333Y-82621476D01*
X63238095Y-82669095D01*
X62238095Y-116252380D02*
X62238095Y-115252380D01*
X62238095Y-115728571D02*
X62809523Y-115728571D01*
X62809523Y-116252380D02*
X62809523Y-115252380D01*
X63190476Y-115252380D02*
X63809523Y-115252380D01*
X63476190Y-115633333D01*
X63619047Y-115633333D01*
X63714285Y-115680952D01*
X63761904Y-115728571D01*
X63809523Y-115823809D01*
X63809523Y-116061904D01*
X63761904Y-116157142D01*
X63714285Y-116204761D01*
X63619047Y-116252380D01*
X63333333Y-116252380D01*
X63238095Y-116204761D01*
X63190476Y-116157142D01*
X72239142Y-115228666D02*
X72286761Y-115276285D01*
X72334380Y-115419142D01*
X72334380Y-115514380D01*
X72286761Y-115657238D01*
X72191523Y-115752476D01*
X72096285Y-115800095D01*
X71905809Y-115847714D01*
X71762952Y-115847714D01*
X71572476Y-115800095D01*
X71477238Y-115752476D01*
X71382000Y-115657238D01*
X71334380Y-115514380D01*
X71334380Y-115419142D01*
X71382000Y-115276285D01*
X71429619Y-115228666D01*
X72334380Y-114276285D02*
X72334380Y-114847714D01*
X72334380Y-114562000D02*
X71334380Y-114562000D01*
X71477238Y-114657238D01*
X71572476Y-114752476D01*
X71620095Y-114847714D01*
X67667142Y-115355666D02*
X67714761Y-115403285D01*
X67762380Y-115546142D01*
X67762380Y-115641380D01*
X67714761Y-115784238D01*
X67619523Y-115879476D01*
X67524285Y-115927095D01*
X67333809Y-115974714D01*
X67190952Y-115974714D01*
X67000476Y-115927095D01*
X66905238Y-115879476D01*
X66810000Y-115784238D01*
X66762380Y-115641380D01*
X66762380Y-115546142D01*
X66810000Y-115403285D01*
X66857619Y-115355666D01*
X67095714Y-114498523D02*
X67762380Y-114498523D01*
X66714761Y-114736619D02*
X67429047Y-114974714D01*
X67429047Y-114355666D01*
X81129142Y-88685666D02*
X81176761Y-88733285D01*
X81224380Y-88876142D01*
X81224380Y-88971380D01*
X81176761Y-89114238D01*
X81081523Y-89209476D01*
X80986285Y-89257095D01*
X80795809Y-89304714D01*
X80652952Y-89304714D01*
X80462476Y-89257095D01*
X80367238Y-89209476D01*
X80272000Y-89114238D01*
X80224380Y-88971380D01*
X80224380Y-88876142D01*
X80272000Y-88733285D01*
X80319619Y-88685666D01*
X80652952Y-88114238D02*
X80605333Y-88209476D01*
X80557714Y-88257095D01*
X80462476Y-88304714D01*
X80414857Y-88304714D01*
X80319619Y-88257095D01*
X80272000Y-88209476D01*
X80224380Y-88114238D01*
X80224380Y-87923761D01*
X80272000Y-87828523D01*
X80319619Y-87780904D01*
X80414857Y-87733285D01*
X80462476Y-87733285D01*
X80557714Y-87780904D01*
X80605333Y-87828523D01*
X80652952Y-87923761D01*
X80652952Y-88114238D01*
X80700571Y-88209476D01*
X80748190Y-88257095D01*
X80843428Y-88304714D01*
X81033904Y-88304714D01*
X81129142Y-88257095D01*
X81176761Y-88209476D01*
X81224380Y-88114238D01*
X81224380Y-87923761D01*
X81176761Y-87828523D01*
X81129142Y-87780904D01*
X81033904Y-87733285D01*
X80843428Y-87733285D01*
X80748190Y-87780904D01*
X80700571Y-87828523D01*
X80652952Y-87923761D01*
X69064142Y-115482666D02*
X69111761Y-115530285D01*
X69159380Y-115673142D01*
X69159380Y-115768380D01*
X69111761Y-115911238D01*
X69016523Y-116006476D01*
X68921285Y-116054095D01*
X68730809Y-116101714D01*
X68587952Y-116101714D01*
X68397476Y-116054095D01*
X68302238Y-116006476D01*
X68207000Y-115911238D01*
X68159380Y-115768380D01*
X68159380Y-115673142D01*
X68207000Y-115530285D01*
X68254619Y-115482666D01*
X68159380Y-114577904D02*
X68159380Y-115054095D01*
X68635571Y-115101714D01*
X68587952Y-115054095D01*
X68540333Y-114958857D01*
X68540333Y-114720761D01*
X68587952Y-114625523D01*
X68635571Y-114577904D01*
X68730809Y-114530285D01*
X68968904Y-114530285D01*
X69064142Y-114577904D01*
X69111761Y-114625523D01*
X69159380Y-114720761D01*
X69159380Y-114958857D01*
X69111761Y-115054095D01*
X69064142Y-115101714D01*
X104100333Y-109831142D02*
X104052714Y-109878761D01*
X103909857Y-109926380D01*
X103814619Y-109926380D01*
X103671761Y-109878761D01*
X103576523Y-109783523D01*
X103528904Y-109688285D01*
X103481285Y-109497809D01*
X103481285Y-109354952D01*
X103528904Y-109164476D01*
X103576523Y-109069238D01*
X103671761Y-108974000D01*
X103814619Y-108926380D01*
X103909857Y-108926380D01*
X104052714Y-108974000D01*
X104100333Y-109021619D01*
X104957476Y-108926380D02*
X104767000Y-108926380D01*
X104671761Y-108974000D01*
X104624142Y-109021619D01*
X104528904Y-109164476D01*
X104481285Y-109354952D01*
X104481285Y-109735904D01*
X104528904Y-109831142D01*
X104576523Y-109878761D01*
X104671761Y-109926380D01*
X104862238Y-109926380D01*
X104957476Y-109878761D01*
X105005095Y-109831142D01*
X105052714Y-109735904D01*
X105052714Y-109497809D01*
X105005095Y-109402571D01*
X104957476Y-109354952D01*
X104862238Y-109307333D01*
X104671761Y-109307333D01*
X104576523Y-109354952D01*
X104528904Y-109402571D01*
X104481285Y-109497809D01*
X98401142Y-97956666D02*
X98448761Y-98004285D01*
X98496380Y-98147142D01*
X98496380Y-98242380D01*
X98448761Y-98385238D01*
X98353523Y-98480476D01*
X98258285Y-98528095D01*
X98067809Y-98575714D01*
X97924952Y-98575714D01*
X97734476Y-98528095D01*
X97639238Y-98480476D01*
X97544000Y-98385238D01*
X97496380Y-98242380D01*
X97496380Y-98147142D01*
X97544000Y-98004285D01*
X97591619Y-97956666D01*
X97496380Y-97623333D02*
X97496380Y-96956666D01*
X98496380Y-97385238D01*
X101814333Y-105513142D02*
X101766714Y-105560761D01*
X101623857Y-105608380D01*
X101528619Y-105608380D01*
X101385761Y-105560761D01*
X101290523Y-105465523D01*
X101242904Y-105370285D01*
X101195285Y-105179809D01*
X101195285Y-105036952D01*
X101242904Y-104846476D01*
X101290523Y-104751238D01*
X101385761Y-104656000D01*
X101528619Y-104608380D01*
X101623857Y-104608380D01*
X101766714Y-104656000D01*
X101814333Y-104703619D01*
X102290523Y-105608380D02*
X102481000Y-105608380D01*
X102576238Y-105560761D01*
X102623857Y-105513142D01*
X102719095Y-105370285D01*
X102766714Y-105179809D01*
X102766714Y-104798857D01*
X102719095Y-104703619D01*
X102671476Y-104656000D01*
X102576238Y-104608380D01*
X102385761Y-104608380D01*
X102290523Y-104656000D01*
X102242904Y-104703619D01*
X102195285Y-104798857D01*
X102195285Y-105036952D01*
X102242904Y-105132190D01*
X102290523Y-105179809D01*
X102385761Y-105227428D01*
X102576238Y-105227428D01*
X102671476Y-105179809D01*
X102719095Y-105132190D01*
X102766714Y-105036952D01*
X101112142Y-98305857D02*
X101159761Y-98353476D01*
X101207380Y-98496333D01*
X101207380Y-98591571D01*
X101159761Y-98734428D01*
X101064523Y-98829666D01*
X100969285Y-98877285D01*
X100778809Y-98924904D01*
X100635952Y-98924904D01*
X100445476Y-98877285D01*
X100350238Y-98829666D01*
X100255000Y-98734428D01*
X100207380Y-98591571D01*
X100207380Y-98496333D01*
X100255000Y-98353476D01*
X100302619Y-98305857D01*
X101207380Y-97353476D02*
X101207380Y-97924904D01*
X101207380Y-97639190D02*
X100207380Y-97639190D01*
X100350238Y-97734428D01*
X100445476Y-97829666D01*
X100493095Y-97924904D01*
X100207380Y-96734428D02*
X100207380Y-96639190D01*
X100255000Y-96543952D01*
X100302619Y-96496333D01*
X100397857Y-96448714D01*
X100588333Y-96401095D01*
X100826428Y-96401095D01*
X101016904Y-96448714D01*
X101112142Y-96496333D01*
X101159761Y-96543952D01*
X101207380Y-96639190D01*
X101207380Y-96734428D01*
X101159761Y-96829666D01*
X101112142Y-96877285D01*
X101016904Y-96924904D01*
X100826428Y-96972523D01*
X100588333Y-96972523D01*
X100397857Y-96924904D01*
X100302619Y-96877285D01*
X100255000Y-96829666D01*
X100207380Y-96734428D01*
X107180142Y-95607142D02*
X107132523Y-95654761D01*
X106989666Y-95702380D01*
X106894428Y-95702380D01*
X106751571Y-95654761D01*
X106656333Y-95559523D01*
X106608714Y-95464285D01*
X106561095Y-95273809D01*
X106561095Y-95130952D01*
X106608714Y-94940476D01*
X106656333Y-94845238D01*
X106751571Y-94750000D01*
X106894428Y-94702380D01*
X106989666Y-94702380D01*
X107132523Y-94750000D01*
X107180142Y-94797619D01*
X108132523Y-95702380D02*
X107561095Y-95702380D01*
X107846809Y-95702380D02*
X107846809Y-94702380D01*
X107751571Y-94845238D01*
X107656333Y-94940476D01*
X107561095Y-94988095D01*
X109084904Y-95702380D02*
X108513476Y-95702380D01*
X108799190Y-95702380D02*
X108799190Y-94702380D01*
X108703952Y-94845238D01*
X108608714Y-94940476D01*
X108513476Y-94988095D01*
X70810380Y-115355666D02*
X70334190Y-115689000D01*
X70810380Y-115927095D02*
X69810380Y-115927095D01*
X69810380Y-115546142D01*
X69858000Y-115450904D01*
X69905619Y-115403285D01*
X70000857Y-115355666D01*
X70143714Y-115355666D01*
X70238952Y-115403285D01*
X70286571Y-115450904D01*
X70334190Y-115546142D01*
X70334190Y-115927095D01*
X69810380Y-115022333D02*
X69810380Y-114403285D01*
X70191333Y-114736619D01*
X70191333Y-114593761D01*
X70238952Y-114498523D01*
X70286571Y-114450904D01*
X70381809Y-114403285D01*
X70619904Y-114403285D01*
X70715142Y-114450904D01*
X70762761Y-114498523D01*
X70810380Y-114593761D01*
X70810380Y-114879476D01*
X70762761Y-114974714D01*
X70715142Y-115022333D01*
X88112333Y-108369380D02*
X87779000Y-107893190D01*
X87540904Y-108369380D02*
X87540904Y-107369380D01*
X87921857Y-107369380D01*
X88017095Y-107417000D01*
X88064714Y-107464619D01*
X88112333Y-107559857D01*
X88112333Y-107702714D01*
X88064714Y-107797952D01*
X88017095Y-107845571D01*
X87921857Y-107893190D01*
X87540904Y-107893190D01*
X88969476Y-107702714D02*
X88969476Y-108369380D01*
X88731380Y-107321761D02*
X88493285Y-108036047D01*
X89112333Y-108036047D01*
X88211333Y-104940380D02*
X87878000Y-104464190D01*
X87639904Y-104940380D02*
X87639904Y-103940380D01*
X88020857Y-103940380D01*
X88116095Y-103988000D01*
X88163714Y-104035619D01*
X88211333Y-104130857D01*
X88211333Y-104273714D01*
X88163714Y-104368952D01*
X88116095Y-104416571D01*
X88020857Y-104464190D01*
X87639904Y-104464190D01*
X89116095Y-103940380D02*
X88639904Y-103940380D01*
X88592285Y-104416571D01*
X88639904Y-104368952D01*
X88735142Y-104321333D01*
X88973238Y-104321333D01*
X89068476Y-104368952D01*
X89116095Y-104416571D01*
X89163714Y-104511809D01*
X89163714Y-104749904D01*
X89116095Y-104845142D01*
X89068476Y-104892761D01*
X88973238Y-104940380D01*
X88735142Y-104940380D01*
X88639904Y-104892761D01*
X88592285Y-104845142D01*
X95989380Y-96178666D02*
X95513190Y-96512000D01*
X95989380Y-96750095D02*
X94989380Y-96750095D01*
X94989380Y-96369142D01*
X95037000Y-96273904D01*
X95084619Y-96226285D01*
X95179857Y-96178666D01*
X95322714Y-96178666D01*
X95417952Y-96226285D01*
X95465571Y-96273904D01*
X95513190Y-96369142D01*
X95513190Y-96750095D01*
X94989380Y-95845333D02*
X94989380Y-95178666D01*
X95989380Y-95607238D01*
X82748380Y-89034857D02*
X82272190Y-89368190D01*
X82748380Y-89606285D02*
X81748380Y-89606285D01*
X81748380Y-89225333D01*
X81796000Y-89130095D01*
X81843619Y-89082476D01*
X81938857Y-89034857D01*
X82081714Y-89034857D01*
X82176952Y-89082476D01*
X82224571Y-89130095D01*
X82272190Y-89225333D01*
X82272190Y-89606285D01*
X82748380Y-88082476D02*
X82748380Y-88653904D01*
X82748380Y-88368190D02*
X81748380Y-88368190D01*
X81891238Y-88463428D01*
X81986476Y-88558666D01*
X82034095Y-88653904D01*
X81843619Y-87701523D02*
X81796000Y-87653904D01*
X81748380Y-87558666D01*
X81748380Y-87320571D01*
X81796000Y-87225333D01*
X81843619Y-87177714D01*
X81938857Y-87130095D01*
X82034095Y-87130095D01*
X82176952Y-87177714D01*
X82748380Y-87749142D01*
X82748380Y-87130095D01*
X99052142Y-109926380D02*
X98718809Y-109450190D01*
X98480714Y-109926380D02*
X98480714Y-108926380D01*
X98861666Y-108926380D01*
X98956904Y-108974000D01*
X99004523Y-109021619D01*
X99052142Y-109116857D01*
X99052142Y-109259714D01*
X99004523Y-109354952D01*
X98956904Y-109402571D01*
X98861666Y-109450190D01*
X98480714Y-109450190D01*
X100004523Y-109926380D02*
X99433095Y-109926380D01*
X99718809Y-109926380D02*
X99718809Y-108926380D01*
X99623571Y-109069238D01*
X99528333Y-109164476D01*
X99433095Y-109212095D01*
X100623571Y-108926380D02*
X100718809Y-108926380D01*
X100814047Y-108974000D01*
X100861666Y-109021619D01*
X100909285Y-109116857D01*
X100956904Y-109307333D01*
X100956904Y-109545428D01*
X100909285Y-109735904D01*
X100861666Y-109831142D01*
X100814047Y-109878761D01*
X100718809Y-109926380D01*
X100623571Y-109926380D01*
X100528333Y-109878761D01*
X100480714Y-109831142D01*
X100433095Y-109735904D01*
X100385476Y-109545428D01*
X100385476Y-109307333D01*
X100433095Y-109116857D01*
X100480714Y-109021619D01*
X100528333Y-108974000D01*
X100623571Y-108926380D01*
X74366380Y-86494857D02*
X73890190Y-86828190D01*
X74366380Y-87066285D02*
X73366380Y-87066285D01*
X73366380Y-86685333D01*
X73414000Y-86590095D01*
X73461619Y-86542476D01*
X73556857Y-86494857D01*
X73699714Y-86494857D01*
X73794952Y-86542476D01*
X73842571Y-86590095D01*
X73890190Y-86685333D01*
X73890190Y-87066285D01*
X74366380Y-85542476D02*
X74366380Y-86113904D01*
X74366380Y-85828190D02*
X73366380Y-85828190D01*
X73509238Y-85923428D01*
X73604476Y-86018666D01*
X73652095Y-86113904D01*
X73366380Y-84637714D02*
X73366380Y-85113904D01*
X73842571Y-85161523D01*
X73794952Y-85113904D01*
X73747333Y-85018666D01*
X73747333Y-84780571D01*
X73794952Y-84685333D01*
X73842571Y-84637714D01*
X73937809Y-84590095D01*
X74175904Y-84590095D01*
X74271142Y-84637714D01*
X74318761Y-84685333D01*
X74366380Y-84780571D01*
X74366380Y-85018666D01*
X74318761Y-85113904D01*
X74271142Y-85161523D01*
X97274142Y-105354380D02*
X96940809Y-104878190D01*
X96702714Y-105354380D02*
X96702714Y-104354380D01*
X97083666Y-104354380D01*
X97178904Y-104402000D01*
X97226523Y-104449619D01*
X97274142Y-104544857D01*
X97274142Y-104687714D01*
X97226523Y-104782952D01*
X97178904Y-104830571D01*
X97083666Y-104878190D01*
X96702714Y-104878190D01*
X98226523Y-105354380D02*
X97655095Y-105354380D01*
X97940809Y-105354380D02*
X97940809Y-104354380D01*
X97845571Y-104497238D01*
X97750333Y-104592476D01*
X97655095Y-104640095D01*
X99178904Y-105354380D02*
X98607476Y-105354380D01*
X98893190Y-105354380D02*
X98893190Y-104354380D01*
X98797952Y-104497238D01*
X98702714Y-104592476D01*
X98607476Y-104640095D01*
X95575380Y-77223857D02*
X95099190Y-77557190D01*
X95575380Y-77795285D02*
X94575380Y-77795285D01*
X94575380Y-77414333D01*
X94623000Y-77319095D01*
X94670619Y-77271476D01*
X94765857Y-77223857D01*
X94908714Y-77223857D01*
X95003952Y-77271476D01*
X95051571Y-77319095D01*
X95099190Y-77414333D01*
X95099190Y-77795285D01*
X95575380Y-76271476D02*
X95575380Y-76842904D01*
X95575380Y-76557190D02*
X94575380Y-76557190D01*
X94718238Y-76652428D01*
X94813476Y-76747666D01*
X94861095Y-76842904D01*
X94575380Y-75938142D02*
X94575380Y-75271476D01*
X95575380Y-75700047D01*
X101925380Y-103131857D02*
X101449190Y-103465190D01*
X101925380Y-103703285D02*
X100925380Y-103703285D01*
X100925380Y-103322333D01*
X100973000Y-103227095D01*
X101020619Y-103179476D01*
X101115857Y-103131857D01*
X101258714Y-103131857D01*
X101353952Y-103179476D01*
X101401571Y-103227095D01*
X101449190Y-103322333D01*
X101449190Y-103703285D01*
X101925380Y-102179476D02*
X101925380Y-102750904D01*
X101925380Y-102465190D02*
X100925380Y-102465190D01*
X101068238Y-102560428D01*
X101163476Y-102655666D01*
X101211095Y-102750904D01*
X100925380Y-101846142D02*
X100925380Y-101227095D01*
X101306333Y-101560428D01*
X101306333Y-101417571D01*
X101353952Y-101322333D01*
X101401571Y-101274714D01*
X101496809Y-101227095D01*
X101734904Y-101227095D01*
X101830142Y-101274714D01*
X101877761Y-101322333D01*
X101925380Y-101417571D01*
X101925380Y-101703285D01*
X101877761Y-101798523D01*
X101830142Y-101846142D01*
X105910142Y-105608380D02*
X105576809Y-105132190D01*
X105338714Y-105608380D02*
X105338714Y-104608380D01*
X105719666Y-104608380D01*
X105814904Y-104656000D01*
X105862523Y-104703619D01*
X105910142Y-104798857D01*
X105910142Y-104941714D01*
X105862523Y-105036952D01*
X105814904Y-105084571D01*
X105719666Y-105132190D01*
X105338714Y-105132190D01*
X106862523Y-105608380D02*
X106291095Y-105608380D01*
X106576809Y-105608380D02*
X106576809Y-104608380D01*
X106481571Y-104751238D01*
X106386333Y-104846476D01*
X106291095Y-104894095D01*
X107719666Y-104941714D02*
X107719666Y-105608380D01*
X107481571Y-104560761D02*
X107243476Y-105275047D01*
X107862523Y-105275047D01*
X97099380Y-77223857D02*
X96623190Y-77557190D01*
X97099380Y-77795285D02*
X96099380Y-77795285D01*
X96099380Y-77414333D01*
X96147000Y-77319095D01*
X96194619Y-77271476D01*
X96289857Y-77223857D01*
X96432714Y-77223857D01*
X96527952Y-77271476D01*
X96575571Y-77319095D01*
X96623190Y-77414333D01*
X96623190Y-77795285D01*
X97099380Y-76271476D02*
X97099380Y-76842904D01*
X97099380Y-76557190D02*
X96099380Y-76557190D01*
X96242238Y-76652428D01*
X96337476Y-76747666D01*
X96385095Y-76842904D01*
X96099380Y-75414333D02*
X96099380Y-75604809D01*
X96147000Y-75700047D01*
X96194619Y-75747666D01*
X96337476Y-75842904D01*
X96527952Y-75890523D01*
X96908904Y-75890523D01*
X97004142Y-75842904D01*
X97051761Y-75795285D01*
X97099380Y-75700047D01*
X97099380Y-75509571D01*
X97051761Y-75414333D01*
X97004142Y-75366714D01*
X96908904Y-75319095D01*
X96670809Y-75319095D01*
X96575571Y-75366714D01*
X96527952Y-75414333D01*
X96480333Y-75509571D01*
X96480333Y-75700047D01*
X96527952Y-75795285D01*
X96575571Y-75842904D01*
X96670809Y-75890523D01*
X100147380Y-83319857D02*
X99671190Y-83653190D01*
X100147380Y-83891285D02*
X99147380Y-83891285D01*
X99147380Y-83510333D01*
X99195000Y-83415095D01*
X99242619Y-83367476D01*
X99337857Y-83319857D01*
X99480714Y-83319857D01*
X99575952Y-83367476D01*
X99623571Y-83415095D01*
X99671190Y-83510333D01*
X99671190Y-83891285D01*
X100147380Y-82367476D02*
X100147380Y-82938904D01*
X100147380Y-82653190D02*
X99147380Y-82653190D01*
X99290238Y-82748428D01*
X99385476Y-82843666D01*
X99433095Y-82938904D01*
X100147380Y-81891285D02*
X100147380Y-81700809D01*
X100099761Y-81605571D01*
X100052142Y-81557952D01*
X99909285Y-81462714D01*
X99718809Y-81415095D01*
X99337857Y-81415095D01*
X99242619Y-81462714D01*
X99195000Y-81510333D01*
X99147380Y-81605571D01*
X99147380Y-81796047D01*
X99195000Y-81891285D01*
X99242619Y-81938904D01*
X99337857Y-81986523D01*
X99575952Y-81986523D01*
X99671190Y-81938904D01*
X99718809Y-81891285D01*
X99766428Y-81796047D01*
X99766428Y-81605571D01*
X99718809Y-81510333D01*
X99671190Y-81462714D01*
X99575952Y-81415095D01*
X108323142Y-109926380D02*
X107989809Y-109450190D01*
X107751714Y-109926380D02*
X107751714Y-108926380D01*
X108132666Y-108926380D01*
X108227904Y-108974000D01*
X108275523Y-109021619D01*
X108323142Y-109116857D01*
X108323142Y-109259714D01*
X108275523Y-109354952D01*
X108227904Y-109402571D01*
X108132666Y-109450190D01*
X107751714Y-109450190D01*
X109275523Y-109926380D02*
X108704095Y-109926380D01*
X108989809Y-109926380D02*
X108989809Y-108926380D01*
X108894571Y-109069238D01*
X108799333Y-109164476D01*
X108704095Y-109212095D01*
X109846952Y-109354952D02*
X109751714Y-109307333D01*
X109704095Y-109259714D01*
X109656476Y-109164476D01*
X109656476Y-109116857D01*
X109704095Y-109021619D01*
X109751714Y-108974000D01*
X109846952Y-108926380D01*
X110037428Y-108926380D01*
X110132666Y-108974000D01*
X110180285Y-109021619D01*
X110227904Y-109116857D01*
X110227904Y-109164476D01*
X110180285Y-109259714D01*
X110132666Y-109307333D01*
X110037428Y-109354952D01*
X109846952Y-109354952D01*
X109751714Y-109402571D01*
X109704095Y-109450190D01*
X109656476Y-109545428D01*
X109656476Y-109735904D01*
X109704095Y-109831142D01*
X109751714Y-109878761D01*
X109846952Y-109926380D01*
X110037428Y-109926380D01*
X110132666Y-109878761D01*
X110180285Y-109831142D01*
X110227904Y-109735904D01*
X110227904Y-109545428D01*
X110180285Y-109450190D01*
X110132666Y-109402571D01*
X110037428Y-109354952D01*
X109593142Y-105481380D02*
X109259809Y-105005190D01*
X109021714Y-105481380D02*
X109021714Y-104481380D01*
X109402666Y-104481380D01*
X109497904Y-104529000D01*
X109545523Y-104576619D01*
X109593142Y-104671857D01*
X109593142Y-104814714D01*
X109545523Y-104909952D01*
X109497904Y-104957571D01*
X109402666Y-105005190D01*
X109021714Y-105005190D01*
X109974095Y-104576619D02*
X110021714Y-104529000D01*
X110116952Y-104481380D01*
X110355047Y-104481380D01*
X110450285Y-104529000D01*
X110497904Y-104576619D01*
X110545523Y-104671857D01*
X110545523Y-104767095D01*
X110497904Y-104909952D01*
X109926476Y-105481380D01*
X110545523Y-105481380D01*
X111164571Y-104481380D02*
X111259809Y-104481380D01*
X111355047Y-104529000D01*
X111402666Y-104576619D01*
X111450285Y-104671857D01*
X111497904Y-104862333D01*
X111497904Y-105100428D01*
X111450285Y-105290904D01*
X111402666Y-105386142D01*
X111355047Y-105433761D01*
X111259809Y-105481380D01*
X111164571Y-105481380D01*
X111069333Y-105433761D01*
X111021714Y-105386142D01*
X110974095Y-105290904D01*
X110926476Y-105100428D01*
X110926476Y-104862333D01*
X110974095Y-104671857D01*
X111021714Y-104576619D01*
X111069333Y-104529000D01*
X111164571Y-104481380D01*
X111371142Y-109926380D02*
X111037809Y-109450190D01*
X110799714Y-109926380D02*
X110799714Y-108926380D01*
X111180666Y-108926380D01*
X111275904Y-108974000D01*
X111323523Y-109021619D01*
X111371142Y-109116857D01*
X111371142Y-109259714D01*
X111323523Y-109354952D01*
X111275904Y-109402571D01*
X111180666Y-109450190D01*
X110799714Y-109450190D01*
X111752095Y-109021619D02*
X111799714Y-108974000D01*
X111894952Y-108926380D01*
X112133047Y-108926380D01*
X112228285Y-108974000D01*
X112275904Y-109021619D01*
X112323523Y-109116857D01*
X112323523Y-109212095D01*
X112275904Y-109354952D01*
X111704476Y-109926380D01*
X112323523Y-109926380D01*
X113275904Y-109926380D02*
X112704476Y-109926380D01*
X112990190Y-109926380D02*
X112990190Y-108926380D01*
X112894952Y-109069238D01*
X112799714Y-109164476D01*
X112704476Y-109212095D01*
X110401380Y-99321857D02*
X109925190Y-99655190D01*
X110401380Y-99893285D02*
X109401380Y-99893285D01*
X109401380Y-99512333D01*
X109449000Y-99417095D01*
X109496619Y-99369476D01*
X109591857Y-99321857D01*
X109734714Y-99321857D01*
X109829952Y-99369476D01*
X109877571Y-99417095D01*
X109925190Y-99512333D01*
X109925190Y-99893285D01*
X109496619Y-98940904D02*
X109449000Y-98893285D01*
X109401380Y-98798047D01*
X109401380Y-98559952D01*
X109449000Y-98464714D01*
X109496619Y-98417095D01*
X109591857Y-98369476D01*
X109687095Y-98369476D01*
X109829952Y-98417095D01*
X110401380Y-98988523D01*
X110401380Y-98369476D01*
X109496619Y-97988523D02*
X109449000Y-97940904D01*
X109401380Y-97845666D01*
X109401380Y-97607571D01*
X109449000Y-97512333D01*
X109496619Y-97464714D01*
X109591857Y-97417095D01*
X109687095Y-97417095D01*
X109829952Y-97464714D01*
X110401380Y-98036142D01*
X110401380Y-97417095D01*
X114879380Y-99843857D02*
X114403190Y-100177190D01*
X114879380Y-100415285D02*
X113879380Y-100415285D01*
X113879380Y-100034333D01*
X113927000Y-99939095D01*
X113974619Y-99891476D01*
X114069857Y-99843857D01*
X114212714Y-99843857D01*
X114307952Y-99891476D01*
X114355571Y-99939095D01*
X114403190Y-100034333D01*
X114403190Y-100415285D01*
X113974619Y-99462904D02*
X113927000Y-99415285D01*
X113879380Y-99320047D01*
X113879380Y-99081952D01*
X113927000Y-98986714D01*
X113974619Y-98939095D01*
X114069857Y-98891476D01*
X114165095Y-98891476D01*
X114307952Y-98939095D01*
X114879380Y-99510523D01*
X114879380Y-98891476D01*
X113879380Y-98558142D02*
X113879380Y-97939095D01*
X114260333Y-98272428D01*
X114260333Y-98129571D01*
X114307952Y-98034333D01*
X114355571Y-97986714D01*
X114450809Y-97939095D01*
X114688904Y-97939095D01*
X114784142Y-97986714D01*
X114831761Y-98034333D01*
X114879380Y-98129571D01*
X114879380Y-98415285D01*
X114831761Y-98510523D01*
X114784142Y-98558142D01*
X90114380Y-119387857D02*
X89638190Y-119721190D01*
X90114380Y-119959285D02*
X89114380Y-119959285D01*
X89114380Y-119578333D01*
X89162000Y-119483095D01*
X89209619Y-119435476D01*
X89304857Y-119387857D01*
X89447714Y-119387857D01*
X89542952Y-119435476D01*
X89590571Y-119483095D01*
X89638190Y-119578333D01*
X89638190Y-119959285D01*
X89209619Y-119006904D02*
X89162000Y-118959285D01*
X89114380Y-118864047D01*
X89114380Y-118625952D01*
X89162000Y-118530714D01*
X89209619Y-118483095D01*
X89304857Y-118435476D01*
X89400095Y-118435476D01*
X89542952Y-118483095D01*
X90114380Y-119054523D01*
X90114380Y-118435476D01*
X89114380Y-117530714D02*
X89114380Y-118006904D01*
X89590571Y-118054523D01*
X89542952Y-118006904D01*
X89495333Y-117911666D01*
X89495333Y-117673571D01*
X89542952Y-117578333D01*
X89590571Y-117530714D01*
X89685809Y-117483095D01*
X89923904Y-117483095D01*
X90019142Y-117530714D01*
X90066761Y-117578333D01*
X90114380Y-117673571D01*
X90114380Y-117911666D01*
X90066761Y-118006904D01*
X90019142Y-118054523D01*
X80637142Y-118308380D02*
X80303809Y-117832190D01*
X80065714Y-118308380D02*
X80065714Y-117308380D01*
X80446666Y-117308380D01*
X80541904Y-117356000D01*
X80589523Y-117403619D01*
X80637142Y-117498857D01*
X80637142Y-117641714D01*
X80589523Y-117736952D01*
X80541904Y-117784571D01*
X80446666Y-117832190D01*
X80065714Y-117832190D01*
X81018095Y-117403619D02*
X81065714Y-117356000D01*
X81160952Y-117308380D01*
X81399047Y-117308380D01*
X81494285Y-117356000D01*
X81541904Y-117403619D01*
X81589523Y-117498857D01*
X81589523Y-117594095D01*
X81541904Y-117736952D01*
X80970476Y-118308380D01*
X81589523Y-118308380D01*
X82446666Y-117308380D02*
X82256190Y-117308380D01*
X82160952Y-117356000D01*
X82113333Y-117403619D01*
X82018095Y-117546476D01*
X81970476Y-117736952D01*
X81970476Y-118117904D01*
X82018095Y-118213142D01*
X82065714Y-118260761D01*
X82160952Y-118308380D01*
X82351428Y-118308380D01*
X82446666Y-118260761D01*
X82494285Y-118213142D01*
X82541904Y-118117904D01*
X82541904Y-117879809D01*
X82494285Y-117784571D01*
X82446666Y-117736952D01*
X82351428Y-117689333D01*
X82160952Y-117689333D01*
X82065714Y-117736952D01*
X82018095Y-117784571D01*
X81970476Y-117879809D01*
X83431142Y-118308380D02*
X83097809Y-117832190D01*
X82859714Y-118308380D02*
X82859714Y-117308380D01*
X83240666Y-117308380D01*
X83335904Y-117356000D01*
X83383523Y-117403619D01*
X83431142Y-117498857D01*
X83431142Y-117641714D01*
X83383523Y-117736952D01*
X83335904Y-117784571D01*
X83240666Y-117832190D01*
X82859714Y-117832190D01*
X83812095Y-117403619D02*
X83859714Y-117356000D01*
X83954952Y-117308380D01*
X84193047Y-117308380D01*
X84288285Y-117356000D01*
X84335904Y-117403619D01*
X84383523Y-117498857D01*
X84383523Y-117594095D01*
X84335904Y-117736952D01*
X83764476Y-118308380D01*
X84383523Y-118308380D01*
X84716857Y-117308380D02*
X85383523Y-117308380D01*
X84954952Y-118308380D01*
X74620380Y-116085857D02*
X74144190Y-116419190D01*
X74620380Y-116657285D02*
X73620380Y-116657285D01*
X73620380Y-116276333D01*
X73668000Y-116181095D01*
X73715619Y-116133476D01*
X73810857Y-116085857D01*
X73953714Y-116085857D01*
X74048952Y-116133476D01*
X74096571Y-116181095D01*
X74144190Y-116276333D01*
X74144190Y-116657285D01*
X73715619Y-115704904D02*
X73668000Y-115657285D01*
X73620380Y-115562047D01*
X73620380Y-115323952D01*
X73668000Y-115228714D01*
X73715619Y-115181095D01*
X73810857Y-115133476D01*
X73906095Y-115133476D01*
X74048952Y-115181095D01*
X74620380Y-115752523D01*
X74620380Y-115133476D01*
X73953714Y-114276333D02*
X74620380Y-114276333D01*
X73572761Y-114514428D02*
X74287047Y-114752523D01*
X74287047Y-114133476D01*
X107512142Y-80384857D02*
X107559761Y-80432476D01*
X107607380Y-80575333D01*
X107607380Y-80670571D01*
X107559761Y-80813428D01*
X107464523Y-80908666D01*
X107369285Y-80956285D01*
X107178809Y-81003904D01*
X107035952Y-81003904D01*
X106845476Y-80956285D01*
X106750238Y-80908666D01*
X106655000Y-80813428D01*
X106607380Y-80670571D01*
X106607380Y-80575333D01*
X106655000Y-80432476D01*
X106702619Y-80384857D01*
X107607380Y-79432476D02*
X107607380Y-80003904D01*
X107607380Y-79718190D02*
X106607380Y-79718190D01*
X106750238Y-79813428D01*
X106845476Y-79908666D01*
X106893095Y-80003904D01*
X106702619Y-79051523D02*
X106655000Y-79003904D01*
X106607380Y-78908666D01*
X106607380Y-78670571D01*
X106655000Y-78575333D01*
X106702619Y-78527714D01*
X106797857Y-78480095D01*
X106893095Y-78480095D01*
X107035952Y-78527714D01*
X107607380Y-79099142D01*
X107607380Y-78480095D01*
X112625142Y-88004857D02*
X112672761Y-88052476D01*
X112720380Y-88195333D01*
X112720380Y-88290571D01*
X112672761Y-88433428D01*
X112577523Y-88528666D01*
X112482285Y-88576285D01*
X112291809Y-88623904D01*
X112148952Y-88623904D01*
X111958476Y-88576285D01*
X111863238Y-88528666D01*
X111768000Y-88433428D01*
X111720380Y-88290571D01*
X111720380Y-88195333D01*
X111768000Y-88052476D01*
X111815619Y-88004857D01*
X112720380Y-87052476D02*
X112720380Y-87623904D01*
X112720380Y-87338190D02*
X111720380Y-87338190D01*
X111863238Y-87433428D01*
X111958476Y-87528666D01*
X112006095Y-87623904D01*
X111720380Y-86719142D02*
X111720380Y-86100095D01*
X112101333Y-86433428D01*
X112101333Y-86290571D01*
X112148952Y-86195333D01*
X112196571Y-86147714D01*
X112291809Y-86100095D01*
X112529904Y-86100095D01*
X112625142Y-86147714D01*
X112672761Y-86195333D01*
X112720380Y-86290571D01*
X112720380Y-86576285D01*
X112672761Y-86671523D01*
X112625142Y-86719142D01*
D16*
X112588523Y-80868761D02*
X111318523Y-80868761D01*
X112467571Y-79538285D02*
X112528047Y-79598761D01*
X112588523Y-79780190D01*
X112588523Y-79901142D01*
X112528047Y-80082571D01*
X112407095Y-80203523D01*
X112286142Y-80264000D01*
X112044238Y-80324476D01*
X111862809Y-80324476D01*
X111620904Y-80264000D01*
X111499952Y-80203523D01*
X111379000Y-80082571D01*
X111318523Y-79901142D01*
X111318523Y-79780190D01*
X111379000Y-79598761D01*
X111439476Y-79538285D01*
X111439476Y-79054476D02*
X111379000Y-78994000D01*
X111318523Y-78873047D01*
X111318523Y-78570666D01*
X111379000Y-78449714D01*
X111439476Y-78389238D01*
X111560428Y-78328761D01*
X111681380Y-78328761D01*
X111862809Y-78389238D01*
X112588523Y-79114952D01*
X112588523Y-78328761D01*
D10*
X91487666Y-107612380D02*
X91487666Y-108326666D01*
X91440047Y-108469523D01*
X91344809Y-108564761D01*
X91201952Y-108612380D01*
X91106714Y-108612380D01*
X92487666Y-108612380D02*
X91916238Y-108612380D01*
X92201952Y-108612380D02*
X92201952Y-107612380D01*
X92106714Y-107755238D01*
X92011476Y-107850476D01*
X91916238Y-107898095D01*
X93265666Y-83788380D02*
X93265666Y-84502666D01*
X93218047Y-84645523D01*
X93122809Y-84740761D01*
X92979952Y-84788380D01*
X92884714Y-84788380D01*
X93694238Y-83883619D02*
X93741857Y-83836000D01*
X93837095Y-83788380D01*
X94075190Y-83788380D01*
X94170428Y-83836000D01*
X94218047Y-83883619D01*
X94265666Y-83978857D01*
X94265666Y-84074095D01*
X94218047Y-84216952D01*
X93646619Y-84788380D01*
X94265666Y-84788380D01*
X116022380Y-76112666D02*
X116022380Y-76588857D01*
X115022380Y-76588857D01*
X116022380Y-75255523D02*
X116022380Y-75826952D01*
X116022380Y-75541238D02*
X115022380Y-75541238D01*
X115165238Y-75636476D01*
X115260476Y-75731714D01*
X115308095Y-75826952D01*
D16*
X85192809Y-123510523D02*
X84588047Y-123510523D01*
X84588047Y-122240523D01*
X85616142Y-122845285D02*
X86039476Y-122845285D01*
X86220904Y-123510523D02*
X85616142Y-123510523D01*
X85616142Y-122240523D01*
X86220904Y-122240523D01*
X86765190Y-123510523D02*
X86765190Y-122240523D01*
X87067571Y-122240523D01*
X87249000Y-122301000D01*
X87369952Y-122421952D01*
X87430428Y-122542904D01*
X87490904Y-122784809D01*
X87490904Y-122966238D01*
X87430428Y-123208142D01*
X87369952Y-123329095D01*
X87249000Y-123450047D01*
X87067571Y-123510523D01*
X86765190Y-123510523D01*
X88700428Y-123510523D02*
X87974714Y-123510523D01*
X88337571Y-123510523D02*
X88337571Y-122240523D01*
X88216619Y-122421952D01*
X88095666Y-122542904D01*
X87974714Y-122603380D01*
D10*
X104532809Y-95766190D02*
X104532809Y-96242380D01*
X104199476Y-95242380D02*
X104532809Y-95766190D01*
X104866142Y-95242380D01*
X105723285Y-96242380D02*
X105151857Y-96242380D01*
X105437571Y-96242380D02*
X105437571Y-95242380D01*
X105342333Y-95385238D01*
X105247095Y-95480476D01*
X105151857Y-95528095D01*
X73636285Y-83621571D02*
X73779142Y-83669190D01*
X73826761Y-83716809D01*
X73874380Y-83812047D01*
X73874380Y-83954904D01*
X73826761Y-84050142D01*
X73779142Y-84097761D01*
X73683904Y-84145380D01*
X73302952Y-84145380D01*
X73302952Y-83145380D01*
X73636285Y-83145380D01*
X73731523Y-83193000D01*
X73779142Y-83240619D01*
X73826761Y-83335857D01*
X73826761Y-83431095D01*
X73779142Y-83526333D01*
X73731523Y-83573952D01*
X73636285Y-83621571D01*
X73302952Y-83621571D01*
X74160095Y-83145380D02*
X74731523Y-83145380D01*
X74445809Y-84145380D02*
X74445809Y-83145380D01*
X75588666Y-84145380D02*
X75017238Y-84145380D01*
X75302952Y-84145380D02*
X75302952Y-83145380D01*
X75207714Y-83288238D01*
X75112476Y-83383476D01*
X75017238Y-83431095D01*
X69135666Y-120452380D02*
X69135666Y-121166666D01*
X69088047Y-121309523D01*
X68992809Y-121404761D01*
X68849952Y-121452380D01*
X68754714Y-121452380D01*
X69754714Y-120880952D02*
X69659476Y-120833333D01*
X69611857Y-120785714D01*
X69564238Y-120690476D01*
X69564238Y-120642857D01*
X69611857Y-120547619D01*
X69659476Y-120500000D01*
X69754714Y-120452380D01*
X69945190Y-120452380D01*
X70040428Y-120500000D01*
X70088047Y-120547619D01*
X70135666Y-120642857D01*
X70135666Y-120690476D01*
X70088047Y-120785714D01*
X70040428Y-120833333D01*
X69945190Y-120880952D01*
X69754714Y-120880952D01*
X69659476Y-120928571D01*
X69611857Y-120976190D01*
X69564238Y-121071428D01*
X69564238Y-121261904D01*
X69611857Y-121357142D01*
X69659476Y-121404761D01*
X69754714Y-121452380D01*
X69945190Y-121452380D01*
X70040428Y-121404761D01*
X70088047Y-121357142D01*
X70135666Y-121261904D01*
X70135666Y-121071428D01*
X70088047Y-120976190D01*
X70040428Y-120928571D01*
X69945190Y-120880952D01*
X75739666Y-120452380D02*
X75739666Y-121166666D01*
X75692047Y-121309523D01*
X75596809Y-121404761D01*
X75453952Y-121452380D01*
X75358714Y-121452380D01*
X76263476Y-121452380D02*
X76453952Y-121452380D01*
X76549190Y-121404761D01*
X76596809Y-121357142D01*
X76692047Y-121214285D01*
X76739666Y-121023809D01*
X76739666Y-120642857D01*
X76692047Y-120547619D01*
X76644428Y-120500000D01*
X76549190Y-120452380D01*
X76358714Y-120452380D01*
X76263476Y-120500000D01*
X76215857Y-120547619D01*
X76168238Y-120642857D01*
X76168238Y-120880952D01*
X76215857Y-120976190D01*
X76263476Y-121023809D01*
X76358714Y-121071428D01*
X76549190Y-121071428D01*
X76644428Y-121023809D01*
X76692047Y-120976190D01*
X76739666Y-120880952D01*
D16*
X105505380Y-76285047D02*
X105686809Y-76345523D01*
X105989190Y-76345523D01*
X106110142Y-76285047D01*
X106170619Y-76224571D01*
X106231095Y-76103619D01*
X106231095Y-75982666D01*
X106170619Y-75861714D01*
X106110142Y-75801238D01*
X105989190Y-75740761D01*
X105747285Y-75680285D01*
X105626333Y-75619809D01*
X105565857Y-75559333D01*
X105505380Y-75438380D01*
X105505380Y-75317428D01*
X105565857Y-75196476D01*
X105626333Y-75136000D01*
X105747285Y-75075523D01*
X106049666Y-75075523D01*
X106231095Y-75136000D01*
X107440619Y-76345523D02*
X106714904Y-76345523D01*
X107077761Y-76345523D02*
X107077761Y-75075523D01*
X106956809Y-75256952D01*
X106835857Y-75377904D01*
X106714904Y-75438380D01*
D10*
X83796142Y-75223666D02*
X83843761Y-75271285D01*
X83891380Y-75414142D01*
X83891380Y-75509380D01*
X83843761Y-75652238D01*
X83748523Y-75747476D01*
X83653285Y-75795095D01*
X83462809Y-75842714D01*
X83319952Y-75842714D01*
X83129476Y-75795095D01*
X83034238Y-75747476D01*
X82939000Y-75652238D01*
X82891380Y-75509380D01*
X82891380Y-75414142D01*
X82939000Y-75271285D01*
X82986619Y-75223666D01*
X82986619Y-74842714D02*
X82939000Y-74795095D01*
X82891380Y-74699857D01*
X82891380Y-74461761D01*
X82939000Y-74366523D01*
X82986619Y-74318904D01*
X83081857Y-74271285D01*
X83177095Y-74271285D01*
X83319952Y-74318904D01*
X83891380Y-74890333D01*
X83891380Y-74271285D01*
X81637142Y-77622666D02*
X81684761Y-77670285D01*
X81732380Y-77813142D01*
X81732380Y-77908380D01*
X81684761Y-78051238D01*
X81589523Y-78146476D01*
X81494285Y-78194095D01*
X81303809Y-78241714D01*
X81160952Y-78241714D01*
X80970476Y-78194095D01*
X80875238Y-78146476D01*
X80780000Y-78051238D01*
X80732380Y-77908380D01*
X80732380Y-77813142D01*
X80780000Y-77670285D01*
X80827619Y-77622666D01*
X80732380Y-77289333D02*
X80732380Y-76670285D01*
X81113333Y-77003619D01*
X81113333Y-76860761D01*
X81160952Y-76765523D01*
X81208571Y-76717904D01*
X81303809Y-76670285D01*
X81541904Y-76670285D01*
X81637142Y-76717904D01*
X81684761Y-76765523D01*
X81732380Y-76860761D01*
X81732380Y-77146476D01*
X81684761Y-77241714D01*
X81637142Y-77289333D01*
X88463380Y-78843095D02*
X87463380Y-78843095D01*
X87463380Y-78605000D01*
X87511000Y-78462142D01*
X87606238Y-78366904D01*
X87701476Y-78319285D01*
X87891952Y-78271666D01*
X88034809Y-78271666D01*
X88225285Y-78319285D01*
X88320523Y-78366904D01*
X88415761Y-78462142D01*
X88463380Y-78605000D01*
X88463380Y-78843095D01*
X88463380Y-77319285D02*
X88463380Y-77890714D01*
X88463380Y-77605000D02*
X87463380Y-77605000D01*
X87606238Y-77700238D01*
X87701476Y-77795476D01*
X87749095Y-77890714D01*
X88082380Y-80811666D02*
X87606190Y-81145000D01*
X88082380Y-81383095D02*
X87082380Y-81383095D01*
X87082380Y-81002142D01*
X87130000Y-80906904D01*
X87177619Y-80859285D01*
X87272857Y-80811666D01*
X87415714Y-80811666D01*
X87510952Y-80859285D01*
X87558571Y-80906904D01*
X87606190Y-81002142D01*
X87606190Y-81383095D01*
X87510952Y-80240238D02*
X87463333Y-80335476D01*
X87415714Y-80383095D01*
X87320476Y-80430714D01*
X87272857Y-80430714D01*
X87177619Y-80383095D01*
X87130000Y-80335476D01*
X87082380Y-80240238D01*
X87082380Y-80049761D01*
X87130000Y-79954523D01*
X87177619Y-79906904D01*
X87272857Y-79859285D01*
X87320476Y-79859285D01*
X87415714Y-79906904D01*
X87463333Y-79954523D01*
X87510952Y-80049761D01*
X87510952Y-80240238D01*
X87558571Y-80335476D01*
X87606190Y-80383095D01*
X87701428Y-80430714D01*
X87891904Y-80430714D01*
X87987142Y-80383095D01*
X88034761Y-80335476D01*
X88082380Y-80240238D01*
X88082380Y-80049761D01*
X88034761Y-79954523D01*
X87987142Y-79906904D01*
X87891904Y-79859285D01*
X87701428Y-79859285D01*
X87606190Y-79906904D01*
X87558571Y-79954523D01*
X87510952Y-80049761D01*
X88082380Y-82589666D02*
X87606190Y-82923000D01*
X88082380Y-83161095D02*
X87082380Y-83161095D01*
X87082380Y-82780142D01*
X87130000Y-82684904D01*
X87177619Y-82637285D01*
X87272857Y-82589666D01*
X87415714Y-82589666D01*
X87510952Y-82637285D01*
X87558571Y-82684904D01*
X87606190Y-82780142D01*
X87606190Y-83161095D01*
X88082380Y-82113476D02*
X88082380Y-81923000D01*
X88034761Y-81827761D01*
X87987142Y-81780142D01*
X87844285Y-81684904D01*
X87653809Y-81637285D01*
X87272857Y-81637285D01*
X87177619Y-81684904D01*
X87130000Y-81732523D01*
X87082380Y-81827761D01*
X87082380Y-82018238D01*
X87130000Y-82113476D01*
X87177619Y-82161095D01*
X87272857Y-82208714D01*
X87510952Y-82208714D01*
X87606190Y-82161095D01*
X87653809Y-82113476D01*
X87701428Y-82018238D01*
X87701428Y-81827761D01*
X87653809Y-81732523D01*
X87606190Y-81684904D01*
X87510952Y-81637285D01*
X82129380Y-80771904D02*
X82938904Y-80771904D01*
X83034142Y-80724285D01*
X83081761Y-80676666D01*
X83129380Y-80581428D01*
X83129380Y-80390952D01*
X83081761Y-80295714D01*
X83034142Y-80248095D01*
X82938904Y-80200476D01*
X82129380Y-80200476D01*
X82224619Y-79771904D02*
X82177000Y-79724285D01*
X82129380Y-79629047D01*
X82129380Y-79390952D01*
X82177000Y-79295714D01*
X82224619Y-79248095D01*
X82319857Y-79200476D01*
X82415095Y-79200476D01*
X82557952Y-79248095D01*
X83129380Y-79819523D01*
X83129380Y-79200476D01*
X83002380Y-87954476D02*
X82002380Y-87954476D01*
X82716666Y-87621142D01*
X82002380Y-87287809D01*
X83002380Y-87287809D01*
X82907142Y-86240190D02*
X82954761Y-86287809D01*
X83002380Y-86430666D01*
X83002380Y-86525904D01*
X82954761Y-86668761D01*
X82859523Y-86764000D01*
X82764285Y-86811619D01*
X82573809Y-86859238D01*
X82430952Y-86859238D01*
X82240476Y-86811619D01*
X82145238Y-86764000D01*
X82050000Y-86668761D01*
X82002380Y-86525904D01*
X82002380Y-86430666D01*
X82050000Y-86287809D01*
X82097619Y-86240190D01*
X83002380Y-85811619D02*
X82002380Y-85811619D01*
X82002380Y-85430666D01*
X82050000Y-85335428D01*
X82097619Y-85287809D01*
X82192857Y-85240190D01*
X82335714Y-85240190D01*
X82430952Y-85287809D01*
X82478571Y-85335428D01*
X82526190Y-85430666D01*
X82526190Y-85811619D01*
X82002380Y-84906857D02*
X82002380Y-84240190D01*
X83002380Y-84668761D01*
X82002380Y-83954476D02*
X82002380Y-83335428D01*
X82383333Y-83668761D01*
X82383333Y-83525904D01*
X82430952Y-83430666D01*
X82478571Y-83383047D01*
X82573809Y-83335428D01*
X82811904Y-83335428D01*
X82907142Y-83383047D01*
X82954761Y-83430666D01*
X83002380Y-83525904D01*
X83002380Y-83811619D01*
X82954761Y-83906857D01*
X82907142Y-83954476D01*
X82430952Y-82764000D02*
X82383333Y-82859238D01*
X82335714Y-82906857D01*
X82240476Y-82954476D01*
X82192857Y-82954476D01*
X82097619Y-82906857D01*
X82050000Y-82859238D01*
X82002380Y-82764000D01*
X82002380Y-82573523D01*
X82050000Y-82478285D01*
X82097619Y-82430666D01*
X82192857Y-82383047D01*
X82240476Y-82383047D01*
X82335714Y-82430666D01*
X82383333Y-82478285D01*
X82430952Y-82573523D01*
X82430952Y-82764000D01*
X82478571Y-82859238D01*
X82526190Y-82906857D01*
X82621428Y-82954476D01*
X82811904Y-82954476D01*
X82907142Y-82906857D01*
X82954761Y-82859238D01*
X83002380Y-82764000D01*
X83002380Y-82573523D01*
X82954761Y-82478285D01*
X82907142Y-82430666D01*
X82811904Y-82383047D01*
X82621428Y-82383047D01*
X82526190Y-82430666D01*
X82478571Y-82478285D01*
X82430952Y-82573523D01*
X82002380Y-82049714D02*
X82002380Y-81430666D01*
X82383333Y-81764000D01*
X82383333Y-81621142D01*
X82430952Y-81525904D01*
X82478571Y-81478285D01*
X82573809Y-81430666D01*
X82811904Y-81430666D01*
X82907142Y-81478285D01*
X82954761Y-81525904D01*
X83002380Y-81621142D01*
X83002380Y-81906857D01*
X82954761Y-82002095D01*
X82907142Y-82049714D01*
X83002380Y-80478285D02*
X83002380Y-81049714D01*
X83002380Y-80764000D02*
X82002380Y-80764000D01*
X82145238Y-80859238D01*
X82240476Y-80954476D01*
X82288095Y-81049714D01*
X82002380Y-80192571D02*
X82002380Y-79621142D01*
X83002380Y-79906857D02*
X82002380Y-79906857D01*
X82621428Y-79287809D02*
X82621428Y-78525904D01*
X82097619Y-78097333D02*
X82050000Y-78049714D01*
X82002380Y-77954476D01*
X82002380Y-77716380D01*
X82050000Y-77621142D01*
X82097619Y-77573523D01*
X82192857Y-77525904D01*
X82288095Y-77525904D01*
X82430952Y-77573523D01*
X83002380Y-78144952D01*
X83002380Y-77525904D01*
X82716666Y-77144952D02*
X82716666Y-76668761D01*
X83002380Y-77240190D02*
X82002380Y-76906857D01*
X83002380Y-76573523D01*
X82002380Y-76383047D02*
X82002380Y-75811619D01*
X83002380Y-76097333D02*
X82002380Y-76097333D01*
X83002380Y-75478285D02*
X82002380Y-75478285D01*
X83097619Y-75240190D02*
X83097619Y-74478285D01*
X83002380Y-74240190D02*
X82002380Y-74240190D01*
X82716666Y-73906857D01*
X82002380Y-73573523D01*
X83002380Y-73573523D01*
X82907142Y-72525904D02*
X82954761Y-72573523D01*
X83002380Y-72716380D01*
X83002380Y-72811619D01*
X82954761Y-72954476D01*
X82859523Y-73049714D01*
X82764285Y-73097333D01*
X82573809Y-73144952D01*
X82430952Y-73144952D01*
X82240476Y-73097333D01*
X82145238Y-73049714D01*
X82050000Y-72954476D01*
X82002380Y-72811619D01*
X82002380Y-72716380D01*
X82050000Y-72573523D01*
X82097619Y-72525904D01*
X84097879Y-77959747D02*
X84335975Y-77959747D01*
X84240737Y-78197842D02*
X84335975Y-77959747D01*
X84240737Y-77721651D01*
X84526451Y-78102604D02*
X84335975Y-77959747D01*
X84526451Y-77816889D01*
M02*
