G04 #@! TF.GenerationSoftware,KiCad,Pcbnew,(5.1.5)-2*
G04 #@! TF.CreationDate,2021-03-29T00:27:02+02:00*
G04 #@! TF.ProjectId,Versie1,56657273-6965-4312-9e6b-696361645f70,rev?*
G04 #@! TF.SameCoordinates,Original*
G04 #@! TF.FileFunction,Paste,Top*
G04 #@! TF.FilePolarity,Positive*
%FSLAX46Y46*%
G04 Gerber Fmt 4.6, Leading zero omitted, Abs format (unit mm)*
G04 Created by KiCad (PCBNEW (5.1.5)-2) date 2021-03-29 00:27:02*
%MOMM*%
%LPD*%
G04 APERTURE LIST*
%ADD10C,0.100000*%
%ADD11R,0.250000X1.075000*%
%ADD12R,0.975000X0.250000*%
%ADD13R,1.800000X1.800000*%
%ADD14R,0.500000X0.750000*%
%ADD15R,0.500000X0.400000*%
%ADD16R,0.900000X0.800000*%
%ADD17R,0.800000X0.900000*%
%ADD18R,5.000000X5.000000*%
%ADD19R,0.900000X2.000000*%
%ADD20R,2.000000X0.900000*%
%ADD21R,2.750000X1.750000*%
%ADD22R,0.800000X0.300000*%
%ADD23R,0.300000X0.800000*%
%ADD24R,0.300000X1.160000*%
%ADD25R,0.600000X1.160000*%
%ADD26R,1.500000X0.900000*%
%ADD27R,1.000000X1.800000*%
%ADD28R,0.800000X1.700000*%
%ADD29R,1.549400X1.752600*%
%ADD30R,0.254000X0.812800*%
G04 APERTURE END LIST*
D10*
G36*
X114052779Y-84030144D02*
G01*
X114075834Y-84033563D01*
X114098443Y-84039227D01*
X114120387Y-84047079D01*
X114141457Y-84057044D01*
X114161448Y-84069026D01*
X114180168Y-84082910D01*
X114197438Y-84098562D01*
X114213090Y-84115832D01*
X114226974Y-84134552D01*
X114238956Y-84154543D01*
X114248921Y-84175613D01*
X114256773Y-84197557D01*
X114262437Y-84220166D01*
X114265856Y-84243221D01*
X114267000Y-84266500D01*
X114267000Y-84841500D01*
X114265856Y-84864779D01*
X114262437Y-84887834D01*
X114256773Y-84910443D01*
X114248921Y-84932387D01*
X114238956Y-84953457D01*
X114226974Y-84973448D01*
X114213090Y-84992168D01*
X114197438Y-85009438D01*
X114180168Y-85025090D01*
X114161448Y-85038974D01*
X114141457Y-85050956D01*
X114120387Y-85060921D01*
X114098443Y-85068773D01*
X114075834Y-85074437D01*
X114052779Y-85077856D01*
X114029500Y-85079000D01*
X113554500Y-85079000D01*
X113531221Y-85077856D01*
X113508166Y-85074437D01*
X113485557Y-85068773D01*
X113463613Y-85060921D01*
X113442543Y-85050956D01*
X113422552Y-85038974D01*
X113403832Y-85025090D01*
X113386562Y-85009438D01*
X113370910Y-84992168D01*
X113357026Y-84973448D01*
X113345044Y-84953457D01*
X113335079Y-84932387D01*
X113327227Y-84910443D01*
X113321563Y-84887834D01*
X113318144Y-84864779D01*
X113317000Y-84841500D01*
X113317000Y-84266500D01*
X113318144Y-84243221D01*
X113321563Y-84220166D01*
X113327227Y-84197557D01*
X113335079Y-84175613D01*
X113345044Y-84154543D01*
X113357026Y-84134552D01*
X113370910Y-84115832D01*
X113386562Y-84098562D01*
X113403832Y-84082910D01*
X113422552Y-84069026D01*
X113442543Y-84057044D01*
X113463613Y-84047079D01*
X113485557Y-84039227D01*
X113508166Y-84033563D01*
X113531221Y-84030144D01*
X113554500Y-84029000D01*
X114029500Y-84029000D01*
X114052779Y-84030144D01*
G37*
G36*
X114052779Y-82280144D02*
G01*
X114075834Y-82283563D01*
X114098443Y-82289227D01*
X114120387Y-82297079D01*
X114141457Y-82307044D01*
X114161448Y-82319026D01*
X114180168Y-82332910D01*
X114197438Y-82348562D01*
X114213090Y-82365832D01*
X114226974Y-82384552D01*
X114238956Y-82404543D01*
X114248921Y-82425613D01*
X114256773Y-82447557D01*
X114262437Y-82470166D01*
X114265856Y-82493221D01*
X114267000Y-82516500D01*
X114267000Y-83091500D01*
X114265856Y-83114779D01*
X114262437Y-83137834D01*
X114256773Y-83160443D01*
X114248921Y-83182387D01*
X114238956Y-83203457D01*
X114226974Y-83223448D01*
X114213090Y-83242168D01*
X114197438Y-83259438D01*
X114180168Y-83275090D01*
X114161448Y-83288974D01*
X114141457Y-83300956D01*
X114120387Y-83310921D01*
X114098443Y-83318773D01*
X114075834Y-83324437D01*
X114052779Y-83327856D01*
X114029500Y-83329000D01*
X113554500Y-83329000D01*
X113531221Y-83327856D01*
X113508166Y-83324437D01*
X113485557Y-83318773D01*
X113463613Y-83310921D01*
X113442543Y-83300956D01*
X113422552Y-83288974D01*
X113403832Y-83275090D01*
X113386562Y-83259438D01*
X113370910Y-83242168D01*
X113357026Y-83223448D01*
X113345044Y-83203457D01*
X113335079Y-83182387D01*
X113327227Y-83160443D01*
X113321563Y-83137834D01*
X113318144Y-83114779D01*
X113317000Y-83091500D01*
X113317000Y-82516500D01*
X113318144Y-82493221D01*
X113321563Y-82470166D01*
X113327227Y-82447557D01*
X113335079Y-82425613D01*
X113345044Y-82404543D01*
X113357026Y-82384552D01*
X113370910Y-82365832D01*
X113386562Y-82348562D01*
X113403832Y-82332910D01*
X113422552Y-82319026D01*
X113442543Y-82307044D01*
X113463613Y-82297079D01*
X113485557Y-82289227D01*
X113508166Y-82283563D01*
X113531221Y-82280144D01*
X113554500Y-82279000D01*
X114029500Y-82279000D01*
X114052779Y-82280144D01*
G37*
G36*
X89464779Y-110397144D02*
G01*
X89487834Y-110400563D01*
X89510443Y-110406227D01*
X89532387Y-110414079D01*
X89553457Y-110424044D01*
X89573448Y-110436026D01*
X89592168Y-110449910D01*
X89609438Y-110465562D01*
X89625090Y-110482832D01*
X89638974Y-110501552D01*
X89650956Y-110521543D01*
X89660921Y-110542613D01*
X89668773Y-110564557D01*
X89674437Y-110587166D01*
X89677856Y-110610221D01*
X89679000Y-110633500D01*
X89679000Y-111108500D01*
X89677856Y-111131779D01*
X89674437Y-111154834D01*
X89668773Y-111177443D01*
X89660921Y-111199387D01*
X89650956Y-111220457D01*
X89638974Y-111240448D01*
X89625090Y-111259168D01*
X89609438Y-111276438D01*
X89592168Y-111292090D01*
X89573448Y-111305974D01*
X89553457Y-111317956D01*
X89532387Y-111327921D01*
X89510443Y-111335773D01*
X89487834Y-111341437D01*
X89464779Y-111344856D01*
X89441500Y-111346000D01*
X88866500Y-111346000D01*
X88843221Y-111344856D01*
X88820166Y-111341437D01*
X88797557Y-111335773D01*
X88775613Y-111327921D01*
X88754543Y-111317956D01*
X88734552Y-111305974D01*
X88715832Y-111292090D01*
X88698562Y-111276438D01*
X88682910Y-111259168D01*
X88669026Y-111240448D01*
X88657044Y-111220457D01*
X88647079Y-111199387D01*
X88639227Y-111177443D01*
X88633563Y-111154834D01*
X88630144Y-111131779D01*
X88629000Y-111108500D01*
X88629000Y-110633500D01*
X88630144Y-110610221D01*
X88633563Y-110587166D01*
X88639227Y-110564557D01*
X88647079Y-110542613D01*
X88657044Y-110521543D01*
X88669026Y-110501552D01*
X88682910Y-110482832D01*
X88698562Y-110465562D01*
X88715832Y-110449910D01*
X88734552Y-110436026D01*
X88754543Y-110424044D01*
X88775613Y-110414079D01*
X88797557Y-110406227D01*
X88820166Y-110400563D01*
X88843221Y-110397144D01*
X88866500Y-110396000D01*
X89441500Y-110396000D01*
X89464779Y-110397144D01*
G37*
G36*
X87714779Y-110397144D02*
G01*
X87737834Y-110400563D01*
X87760443Y-110406227D01*
X87782387Y-110414079D01*
X87803457Y-110424044D01*
X87823448Y-110436026D01*
X87842168Y-110449910D01*
X87859438Y-110465562D01*
X87875090Y-110482832D01*
X87888974Y-110501552D01*
X87900956Y-110521543D01*
X87910921Y-110542613D01*
X87918773Y-110564557D01*
X87924437Y-110587166D01*
X87927856Y-110610221D01*
X87929000Y-110633500D01*
X87929000Y-111108500D01*
X87927856Y-111131779D01*
X87924437Y-111154834D01*
X87918773Y-111177443D01*
X87910921Y-111199387D01*
X87900956Y-111220457D01*
X87888974Y-111240448D01*
X87875090Y-111259168D01*
X87859438Y-111276438D01*
X87842168Y-111292090D01*
X87823448Y-111305974D01*
X87803457Y-111317956D01*
X87782387Y-111327921D01*
X87760443Y-111335773D01*
X87737834Y-111341437D01*
X87714779Y-111344856D01*
X87691500Y-111346000D01*
X87116500Y-111346000D01*
X87093221Y-111344856D01*
X87070166Y-111341437D01*
X87047557Y-111335773D01*
X87025613Y-111327921D01*
X87004543Y-111317956D01*
X86984552Y-111305974D01*
X86965832Y-111292090D01*
X86948562Y-111276438D01*
X86932910Y-111259168D01*
X86919026Y-111240448D01*
X86907044Y-111220457D01*
X86897079Y-111199387D01*
X86889227Y-111177443D01*
X86883563Y-111154834D01*
X86880144Y-111131779D01*
X86879000Y-111108500D01*
X86879000Y-110633500D01*
X86880144Y-110610221D01*
X86883563Y-110587166D01*
X86889227Y-110564557D01*
X86897079Y-110542613D01*
X86907044Y-110521543D01*
X86919026Y-110501552D01*
X86932910Y-110482832D01*
X86948562Y-110465562D01*
X86965832Y-110449910D01*
X86984552Y-110436026D01*
X87004543Y-110424044D01*
X87025613Y-110414079D01*
X87047557Y-110406227D01*
X87070166Y-110400563D01*
X87093221Y-110397144D01*
X87116500Y-110396000D01*
X87691500Y-110396000D01*
X87714779Y-110397144D01*
G37*
G36*
X82175779Y-120352144D02*
G01*
X82198834Y-120355563D01*
X82221443Y-120361227D01*
X82243387Y-120369079D01*
X82264457Y-120379044D01*
X82284448Y-120391026D01*
X82303168Y-120404910D01*
X82320438Y-120420562D01*
X82336090Y-120437832D01*
X82349974Y-120456552D01*
X82361956Y-120476543D01*
X82371921Y-120497613D01*
X82379773Y-120519557D01*
X82385437Y-120542166D01*
X82388856Y-120565221D01*
X82390000Y-120588500D01*
X82390000Y-121163500D01*
X82388856Y-121186779D01*
X82385437Y-121209834D01*
X82379773Y-121232443D01*
X82371921Y-121254387D01*
X82361956Y-121275457D01*
X82349974Y-121295448D01*
X82336090Y-121314168D01*
X82320438Y-121331438D01*
X82303168Y-121347090D01*
X82284448Y-121360974D01*
X82264457Y-121372956D01*
X82243387Y-121382921D01*
X82221443Y-121390773D01*
X82198834Y-121396437D01*
X82175779Y-121399856D01*
X82152500Y-121401000D01*
X81677500Y-121401000D01*
X81654221Y-121399856D01*
X81631166Y-121396437D01*
X81608557Y-121390773D01*
X81586613Y-121382921D01*
X81565543Y-121372956D01*
X81545552Y-121360974D01*
X81526832Y-121347090D01*
X81509562Y-121331438D01*
X81493910Y-121314168D01*
X81480026Y-121295448D01*
X81468044Y-121275457D01*
X81458079Y-121254387D01*
X81450227Y-121232443D01*
X81444563Y-121209834D01*
X81441144Y-121186779D01*
X81440000Y-121163500D01*
X81440000Y-120588500D01*
X81441144Y-120565221D01*
X81444563Y-120542166D01*
X81450227Y-120519557D01*
X81458079Y-120497613D01*
X81468044Y-120476543D01*
X81480026Y-120456552D01*
X81493910Y-120437832D01*
X81509562Y-120420562D01*
X81526832Y-120404910D01*
X81545552Y-120391026D01*
X81565543Y-120379044D01*
X81586613Y-120369079D01*
X81608557Y-120361227D01*
X81631166Y-120355563D01*
X81654221Y-120352144D01*
X81677500Y-120351000D01*
X82152500Y-120351000D01*
X82175779Y-120352144D01*
G37*
G36*
X82175779Y-118602144D02*
G01*
X82198834Y-118605563D01*
X82221443Y-118611227D01*
X82243387Y-118619079D01*
X82264457Y-118629044D01*
X82284448Y-118641026D01*
X82303168Y-118654910D01*
X82320438Y-118670562D01*
X82336090Y-118687832D01*
X82349974Y-118706552D01*
X82361956Y-118726543D01*
X82371921Y-118747613D01*
X82379773Y-118769557D01*
X82385437Y-118792166D01*
X82388856Y-118815221D01*
X82390000Y-118838500D01*
X82390000Y-119413500D01*
X82388856Y-119436779D01*
X82385437Y-119459834D01*
X82379773Y-119482443D01*
X82371921Y-119504387D01*
X82361956Y-119525457D01*
X82349974Y-119545448D01*
X82336090Y-119564168D01*
X82320438Y-119581438D01*
X82303168Y-119597090D01*
X82284448Y-119610974D01*
X82264457Y-119622956D01*
X82243387Y-119632921D01*
X82221443Y-119640773D01*
X82198834Y-119646437D01*
X82175779Y-119649856D01*
X82152500Y-119651000D01*
X81677500Y-119651000D01*
X81654221Y-119649856D01*
X81631166Y-119646437D01*
X81608557Y-119640773D01*
X81586613Y-119632921D01*
X81565543Y-119622956D01*
X81545552Y-119610974D01*
X81526832Y-119597090D01*
X81509562Y-119581438D01*
X81493910Y-119564168D01*
X81480026Y-119545448D01*
X81468044Y-119525457D01*
X81458079Y-119504387D01*
X81450227Y-119482443D01*
X81444563Y-119459834D01*
X81441144Y-119436779D01*
X81440000Y-119413500D01*
X81440000Y-118838500D01*
X81441144Y-118815221D01*
X81444563Y-118792166D01*
X81450227Y-118769557D01*
X81458079Y-118747613D01*
X81468044Y-118726543D01*
X81480026Y-118706552D01*
X81493910Y-118687832D01*
X81509562Y-118670562D01*
X81526832Y-118654910D01*
X81545552Y-118641026D01*
X81565543Y-118629044D01*
X81586613Y-118619079D01*
X81608557Y-118611227D01*
X81631166Y-118605563D01*
X81654221Y-118602144D01*
X81677500Y-118601000D01*
X82152500Y-118601000D01*
X82175779Y-118602144D01*
G37*
G36*
X80651779Y-118630144D02*
G01*
X80674834Y-118633563D01*
X80697443Y-118639227D01*
X80719387Y-118647079D01*
X80740457Y-118657044D01*
X80760448Y-118669026D01*
X80779168Y-118682910D01*
X80796438Y-118698562D01*
X80812090Y-118715832D01*
X80825974Y-118734552D01*
X80837956Y-118754543D01*
X80847921Y-118775613D01*
X80855773Y-118797557D01*
X80861437Y-118820166D01*
X80864856Y-118843221D01*
X80866000Y-118866500D01*
X80866000Y-119441500D01*
X80864856Y-119464779D01*
X80861437Y-119487834D01*
X80855773Y-119510443D01*
X80847921Y-119532387D01*
X80837956Y-119553457D01*
X80825974Y-119573448D01*
X80812090Y-119592168D01*
X80796438Y-119609438D01*
X80779168Y-119625090D01*
X80760448Y-119638974D01*
X80740457Y-119650956D01*
X80719387Y-119660921D01*
X80697443Y-119668773D01*
X80674834Y-119674437D01*
X80651779Y-119677856D01*
X80628500Y-119679000D01*
X80153500Y-119679000D01*
X80130221Y-119677856D01*
X80107166Y-119674437D01*
X80084557Y-119668773D01*
X80062613Y-119660921D01*
X80041543Y-119650956D01*
X80021552Y-119638974D01*
X80002832Y-119625090D01*
X79985562Y-119609438D01*
X79969910Y-119592168D01*
X79956026Y-119573448D01*
X79944044Y-119553457D01*
X79934079Y-119532387D01*
X79926227Y-119510443D01*
X79920563Y-119487834D01*
X79917144Y-119464779D01*
X79916000Y-119441500D01*
X79916000Y-118866500D01*
X79917144Y-118843221D01*
X79920563Y-118820166D01*
X79926227Y-118797557D01*
X79934079Y-118775613D01*
X79944044Y-118754543D01*
X79956026Y-118734552D01*
X79969910Y-118715832D01*
X79985562Y-118698562D01*
X80002832Y-118682910D01*
X80021552Y-118669026D01*
X80041543Y-118657044D01*
X80062613Y-118647079D01*
X80084557Y-118639227D01*
X80107166Y-118633563D01*
X80130221Y-118630144D01*
X80153500Y-118629000D01*
X80628500Y-118629000D01*
X80651779Y-118630144D01*
G37*
G36*
X80651779Y-120380144D02*
G01*
X80674834Y-120383563D01*
X80697443Y-120389227D01*
X80719387Y-120397079D01*
X80740457Y-120407044D01*
X80760448Y-120419026D01*
X80779168Y-120432910D01*
X80796438Y-120448562D01*
X80812090Y-120465832D01*
X80825974Y-120484552D01*
X80837956Y-120504543D01*
X80847921Y-120525613D01*
X80855773Y-120547557D01*
X80861437Y-120570166D01*
X80864856Y-120593221D01*
X80866000Y-120616500D01*
X80866000Y-121191500D01*
X80864856Y-121214779D01*
X80861437Y-121237834D01*
X80855773Y-121260443D01*
X80847921Y-121282387D01*
X80837956Y-121303457D01*
X80825974Y-121323448D01*
X80812090Y-121342168D01*
X80796438Y-121359438D01*
X80779168Y-121375090D01*
X80760448Y-121388974D01*
X80740457Y-121400956D01*
X80719387Y-121410921D01*
X80697443Y-121418773D01*
X80674834Y-121424437D01*
X80651779Y-121427856D01*
X80628500Y-121429000D01*
X80153500Y-121429000D01*
X80130221Y-121427856D01*
X80107166Y-121424437D01*
X80084557Y-121418773D01*
X80062613Y-121410921D01*
X80041543Y-121400956D01*
X80021552Y-121388974D01*
X80002832Y-121375090D01*
X79985562Y-121359438D01*
X79969910Y-121342168D01*
X79956026Y-121323448D01*
X79944044Y-121303457D01*
X79934079Y-121282387D01*
X79926227Y-121260443D01*
X79920563Y-121237834D01*
X79917144Y-121214779D01*
X79916000Y-121191500D01*
X79916000Y-120616500D01*
X79917144Y-120593221D01*
X79920563Y-120570166D01*
X79926227Y-120547557D01*
X79934079Y-120525613D01*
X79944044Y-120504543D01*
X79956026Y-120484552D01*
X79969910Y-120465832D01*
X79985562Y-120448562D01*
X80002832Y-120432910D01*
X80021552Y-120419026D01*
X80041543Y-120407044D01*
X80062613Y-120397079D01*
X80084557Y-120389227D01*
X80107166Y-120383563D01*
X80130221Y-120380144D01*
X80153500Y-120379000D01*
X80628500Y-120379000D01*
X80651779Y-120380144D01*
G37*
D11*
X102983000Y-100551500D03*
D12*
X102720000Y-101563500D03*
X102720000Y-102063500D03*
X102720000Y-102563500D03*
X102720000Y-103063500D03*
D11*
X102920000Y-104076500D03*
X103483000Y-104076500D03*
X103983000Y-104076500D03*
X104483000Y-104076500D03*
X104983000Y-104076500D03*
X105483000Y-104076500D03*
X105983000Y-104076500D03*
X106483000Y-104076500D03*
X106983000Y-104076500D03*
X107496000Y-104076500D03*
D12*
X107746000Y-103063500D03*
X107746000Y-102563500D03*
X107746000Y-102063500D03*
X107746000Y-101563500D03*
D11*
X107546000Y-100551500D03*
X106983000Y-100551500D03*
X106483000Y-100551500D03*
X105983000Y-100551500D03*
X105483000Y-100551500D03*
X104983000Y-100551500D03*
X104483000Y-100551500D03*
X103983000Y-100551500D03*
X103483000Y-100551500D03*
D10*
G36*
X103900504Y-77447704D02*
G01*
X103924773Y-77451304D01*
X103948571Y-77457265D01*
X103971671Y-77465530D01*
X103993849Y-77476020D01*
X104014893Y-77488633D01*
X104034598Y-77503247D01*
X104052777Y-77519723D01*
X104069253Y-77537902D01*
X104083867Y-77557607D01*
X104096480Y-77578651D01*
X104106970Y-77600829D01*
X104115235Y-77623929D01*
X104121196Y-77647727D01*
X104124796Y-77671996D01*
X104126000Y-77696500D01*
X104126000Y-78621500D01*
X104124796Y-78646004D01*
X104121196Y-78670273D01*
X104115235Y-78694071D01*
X104106970Y-78717171D01*
X104096480Y-78739349D01*
X104083867Y-78760393D01*
X104069253Y-78780098D01*
X104052777Y-78798277D01*
X104034598Y-78814753D01*
X104014893Y-78829367D01*
X103993849Y-78841980D01*
X103971671Y-78852470D01*
X103948571Y-78860735D01*
X103924773Y-78866696D01*
X103900504Y-78870296D01*
X103876000Y-78871500D01*
X102626000Y-78871500D01*
X102601496Y-78870296D01*
X102577227Y-78866696D01*
X102553429Y-78860735D01*
X102530329Y-78852470D01*
X102508151Y-78841980D01*
X102487107Y-78829367D01*
X102467402Y-78814753D01*
X102449223Y-78798277D01*
X102432747Y-78780098D01*
X102418133Y-78760393D01*
X102405520Y-78739349D01*
X102395030Y-78717171D01*
X102386765Y-78694071D01*
X102380804Y-78670273D01*
X102377204Y-78646004D01*
X102376000Y-78621500D01*
X102376000Y-77696500D01*
X102377204Y-77671996D01*
X102380804Y-77647727D01*
X102386765Y-77623929D01*
X102395030Y-77600829D01*
X102405520Y-77578651D01*
X102418133Y-77557607D01*
X102432747Y-77537902D01*
X102449223Y-77519723D01*
X102467402Y-77503247D01*
X102487107Y-77488633D01*
X102508151Y-77476020D01*
X102530329Y-77465530D01*
X102553429Y-77457265D01*
X102577227Y-77451304D01*
X102601496Y-77447704D01*
X102626000Y-77446500D01*
X103876000Y-77446500D01*
X103900504Y-77447704D01*
G37*
G36*
X103900504Y-74472704D02*
G01*
X103924773Y-74476304D01*
X103948571Y-74482265D01*
X103971671Y-74490530D01*
X103993849Y-74501020D01*
X104014893Y-74513633D01*
X104034598Y-74528247D01*
X104052777Y-74544723D01*
X104069253Y-74562902D01*
X104083867Y-74582607D01*
X104096480Y-74603651D01*
X104106970Y-74625829D01*
X104115235Y-74648929D01*
X104121196Y-74672727D01*
X104124796Y-74696996D01*
X104126000Y-74721500D01*
X104126000Y-75646500D01*
X104124796Y-75671004D01*
X104121196Y-75695273D01*
X104115235Y-75719071D01*
X104106970Y-75742171D01*
X104096480Y-75764349D01*
X104083867Y-75785393D01*
X104069253Y-75805098D01*
X104052777Y-75823277D01*
X104034598Y-75839753D01*
X104014893Y-75854367D01*
X103993849Y-75866980D01*
X103971671Y-75877470D01*
X103948571Y-75885735D01*
X103924773Y-75891696D01*
X103900504Y-75895296D01*
X103876000Y-75896500D01*
X102626000Y-75896500D01*
X102601496Y-75895296D01*
X102577227Y-75891696D01*
X102553429Y-75885735D01*
X102530329Y-75877470D01*
X102508151Y-75866980D01*
X102487107Y-75854367D01*
X102467402Y-75839753D01*
X102449223Y-75823277D01*
X102432747Y-75805098D01*
X102418133Y-75785393D01*
X102405520Y-75764349D01*
X102395030Y-75742171D01*
X102386765Y-75719071D01*
X102380804Y-75695273D01*
X102377204Y-75671004D01*
X102376000Y-75646500D01*
X102376000Y-74721500D01*
X102377204Y-74696996D01*
X102380804Y-74672727D01*
X102386765Y-74648929D01*
X102395030Y-74625829D01*
X102405520Y-74603651D01*
X102418133Y-74582607D01*
X102432747Y-74562902D01*
X102449223Y-74544723D01*
X102467402Y-74528247D01*
X102487107Y-74513633D01*
X102508151Y-74501020D01*
X102530329Y-74490530D01*
X102553429Y-74482265D01*
X102577227Y-74476304D01*
X102601496Y-74472704D01*
X102626000Y-74471500D01*
X103876000Y-74471500D01*
X103900504Y-74472704D01*
G37*
G36*
X105062004Y-79644204D02*
G01*
X105086273Y-79647804D01*
X105110071Y-79653765D01*
X105133171Y-79662030D01*
X105155349Y-79672520D01*
X105176393Y-79685133D01*
X105196098Y-79699747D01*
X105214277Y-79716223D01*
X105230753Y-79734402D01*
X105245367Y-79754107D01*
X105257980Y-79775151D01*
X105268470Y-79797329D01*
X105276735Y-79820429D01*
X105282696Y-79844227D01*
X105286296Y-79868496D01*
X105287500Y-79893000D01*
X105287500Y-81143000D01*
X105286296Y-81167504D01*
X105282696Y-81191773D01*
X105276735Y-81215571D01*
X105268470Y-81238671D01*
X105257980Y-81260849D01*
X105245367Y-81281893D01*
X105230753Y-81301598D01*
X105214277Y-81319777D01*
X105196098Y-81336253D01*
X105176393Y-81350867D01*
X105155349Y-81363480D01*
X105133171Y-81373970D01*
X105110071Y-81382235D01*
X105086273Y-81388196D01*
X105062004Y-81391796D01*
X105037500Y-81393000D01*
X104112500Y-81393000D01*
X104087996Y-81391796D01*
X104063727Y-81388196D01*
X104039929Y-81382235D01*
X104016829Y-81373970D01*
X103994651Y-81363480D01*
X103973607Y-81350867D01*
X103953902Y-81336253D01*
X103935723Y-81319777D01*
X103919247Y-81301598D01*
X103904633Y-81281893D01*
X103892020Y-81260849D01*
X103881530Y-81238671D01*
X103873265Y-81215571D01*
X103867304Y-81191773D01*
X103863704Y-81167504D01*
X103862500Y-81143000D01*
X103862500Y-79893000D01*
X103863704Y-79868496D01*
X103867304Y-79844227D01*
X103873265Y-79820429D01*
X103881530Y-79797329D01*
X103892020Y-79775151D01*
X103904633Y-79754107D01*
X103919247Y-79734402D01*
X103935723Y-79716223D01*
X103953902Y-79699747D01*
X103973607Y-79685133D01*
X103994651Y-79672520D01*
X104016829Y-79662030D01*
X104039929Y-79653765D01*
X104063727Y-79647804D01*
X104087996Y-79644204D01*
X104112500Y-79643000D01*
X105037500Y-79643000D01*
X105062004Y-79644204D01*
G37*
G36*
X102087004Y-79644204D02*
G01*
X102111273Y-79647804D01*
X102135071Y-79653765D01*
X102158171Y-79662030D01*
X102180349Y-79672520D01*
X102201393Y-79685133D01*
X102221098Y-79699747D01*
X102239277Y-79716223D01*
X102255753Y-79734402D01*
X102270367Y-79754107D01*
X102282980Y-79775151D01*
X102293470Y-79797329D01*
X102301735Y-79820429D01*
X102307696Y-79844227D01*
X102311296Y-79868496D01*
X102312500Y-79893000D01*
X102312500Y-81143000D01*
X102311296Y-81167504D01*
X102307696Y-81191773D01*
X102301735Y-81215571D01*
X102293470Y-81238671D01*
X102282980Y-81260849D01*
X102270367Y-81281893D01*
X102255753Y-81301598D01*
X102239277Y-81319777D01*
X102221098Y-81336253D01*
X102201393Y-81350867D01*
X102180349Y-81363480D01*
X102158171Y-81373970D01*
X102135071Y-81382235D01*
X102111273Y-81388196D01*
X102087004Y-81391796D01*
X102062500Y-81393000D01*
X101137500Y-81393000D01*
X101112996Y-81391796D01*
X101088727Y-81388196D01*
X101064929Y-81382235D01*
X101041829Y-81373970D01*
X101019651Y-81363480D01*
X100998607Y-81350867D01*
X100978902Y-81336253D01*
X100960723Y-81319777D01*
X100944247Y-81301598D01*
X100929633Y-81281893D01*
X100917020Y-81260849D01*
X100906530Y-81238671D01*
X100898265Y-81215571D01*
X100892304Y-81191773D01*
X100888704Y-81167504D01*
X100887500Y-81143000D01*
X100887500Y-79893000D01*
X100888704Y-79868496D01*
X100892304Y-79844227D01*
X100898265Y-79820429D01*
X100906530Y-79797329D01*
X100917020Y-79775151D01*
X100929633Y-79754107D01*
X100944247Y-79734402D01*
X100960723Y-79716223D01*
X100978902Y-79699747D01*
X100998607Y-79685133D01*
X101019651Y-79672520D01*
X101041829Y-79662030D01*
X101064929Y-79653765D01*
X101088727Y-79647804D01*
X101112996Y-79644204D01*
X101137500Y-79643000D01*
X102062500Y-79643000D01*
X102087004Y-79644204D01*
G37*
D13*
X78137000Y-85113000D03*
D14*
X76787000Y-85713000D03*
D15*
X76787000Y-84938000D03*
X76787000Y-84338000D03*
X79487000Y-84338000D03*
X79487000Y-84938000D03*
D14*
X79487000Y-85713000D03*
D16*
X87265000Y-113035000D03*
X87265000Y-114935000D03*
X89265000Y-113985000D03*
X82264000Y-113980000D03*
X80264000Y-114930000D03*
X80264000Y-113030000D03*
X85772500Y-113980000D03*
X83772500Y-114930000D03*
X83772500Y-113030000D03*
D17*
X77912000Y-111522000D03*
X76012000Y-111522000D03*
X76962000Y-113522000D03*
D18*
X75245000Y-102000000D03*
D19*
X67745000Y-109500000D03*
X69015000Y-109500000D03*
X70285000Y-109500000D03*
X71555000Y-109500000D03*
X72825000Y-109500000D03*
X74095000Y-109500000D03*
X75365000Y-109500000D03*
X76635000Y-109500000D03*
X77905000Y-109500000D03*
X79175000Y-109500000D03*
X80445000Y-109500000D03*
X81715000Y-109500000D03*
X82985000Y-109500000D03*
X84255000Y-109500000D03*
D20*
X85255000Y-106715000D03*
X85255000Y-105445000D03*
X85255000Y-104175000D03*
X85255000Y-102905000D03*
X85255000Y-101635000D03*
X85255000Y-100365000D03*
X85255000Y-99095000D03*
X85255000Y-97825000D03*
X85255000Y-96555000D03*
X85255000Y-95285000D03*
D19*
X84255000Y-92500000D03*
X82985000Y-92500000D03*
X81715000Y-92500000D03*
X80445000Y-92500000D03*
X79175000Y-92500000D03*
X77905000Y-92500000D03*
X76635000Y-92500000D03*
X75365000Y-92500000D03*
X74095000Y-92500000D03*
X72825000Y-92500000D03*
X71555000Y-92500000D03*
X70285000Y-92500000D03*
X69015000Y-92500000D03*
X67745000Y-92500000D03*
D10*
G36*
X72032779Y-112873144D02*
G01*
X72055834Y-112876563D01*
X72078443Y-112882227D01*
X72100387Y-112890079D01*
X72121457Y-112900044D01*
X72141448Y-112912026D01*
X72160168Y-112925910D01*
X72177438Y-112941562D01*
X72193090Y-112958832D01*
X72206974Y-112977552D01*
X72218956Y-112997543D01*
X72228921Y-113018613D01*
X72236773Y-113040557D01*
X72242437Y-113063166D01*
X72245856Y-113086221D01*
X72247000Y-113109500D01*
X72247000Y-113684500D01*
X72245856Y-113707779D01*
X72242437Y-113730834D01*
X72236773Y-113753443D01*
X72228921Y-113775387D01*
X72218956Y-113796457D01*
X72206974Y-113816448D01*
X72193090Y-113835168D01*
X72177438Y-113852438D01*
X72160168Y-113868090D01*
X72141448Y-113881974D01*
X72121457Y-113893956D01*
X72100387Y-113903921D01*
X72078443Y-113911773D01*
X72055834Y-113917437D01*
X72032779Y-113920856D01*
X72009500Y-113922000D01*
X71534500Y-113922000D01*
X71511221Y-113920856D01*
X71488166Y-113917437D01*
X71465557Y-113911773D01*
X71443613Y-113903921D01*
X71422543Y-113893956D01*
X71402552Y-113881974D01*
X71383832Y-113868090D01*
X71366562Y-113852438D01*
X71350910Y-113835168D01*
X71337026Y-113816448D01*
X71325044Y-113796457D01*
X71315079Y-113775387D01*
X71307227Y-113753443D01*
X71301563Y-113730834D01*
X71298144Y-113707779D01*
X71297000Y-113684500D01*
X71297000Y-113109500D01*
X71298144Y-113086221D01*
X71301563Y-113063166D01*
X71307227Y-113040557D01*
X71315079Y-113018613D01*
X71325044Y-112997543D01*
X71337026Y-112977552D01*
X71350910Y-112958832D01*
X71366562Y-112941562D01*
X71383832Y-112925910D01*
X71402552Y-112912026D01*
X71422543Y-112900044D01*
X71443613Y-112890079D01*
X71465557Y-112882227D01*
X71488166Y-112876563D01*
X71511221Y-112873144D01*
X71534500Y-112872000D01*
X72009500Y-112872000D01*
X72032779Y-112873144D01*
G37*
G36*
X72032779Y-111123144D02*
G01*
X72055834Y-111126563D01*
X72078443Y-111132227D01*
X72100387Y-111140079D01*
X72121457Y-111150044D01*
X72141448Y-111162026D01*
X72160168Y-111175910D01*
X72177438Y-111191562D01*
X72193090Y-111208832D01*
X72206974Y-111227552D01*
X72218956Y-111247543D01*
X72228921Y-111268613D01*
X72236773Y-111290557D01*
X72242437Y-111313166D01*
X72245856Y-111336221D01*
X72247000Y-111359500D01*
X72247000Y-111934500D01*
X72245856Y-111957779D01*
X72242437Y-111980834D01*
X72236773Y-112003443D01*
X72228921Y-112025387D01*
X72218956Y-112046457D01*
X72206974Y-112066448D01*
X72193090Y-112085168D01*
X72177438Y-112102438D01*
X72160168Y-112118090D01*
X72141448Y-112131974D01*
X72121457Y-112143956D01*
X72100387Y-112153921D01*
X72078443Y-112161773D01*
X72055834Y-112167437D01*
X72032779Y-112170856D01*
X72009500Y-112172000D01*
X71534500Y-112172000D01*
X71511221Y-112170856D01*
X71488166Y-112167437D01*
X71465557Y-112161773D01*
X71443613Y-112153921D01*
X71422543Y-112143956D01*
X71402552Y-112131974D01*
X71383832Y-112118090D01*
X71366562Y-112102438D01*
X71350910Y-112085168D01*
X71337026Y-112066448D01*
X71325044Y-112046457D01*
X71315079Y-112025387D01*
X71307227Y-112003443D01*
X71301563Y-111980834D01*
X71298144Y-111957779D01*
X71297000Y-111934500D01*
X71297000Y-111359500D01*
X71298144Y-111336221D01*
X71301563Y-111313166D01*
X71307227Y-111290557D01*
X71315079Y-111268613D01*
X71325044Y-111247543D01*
X71337026Y-111227552D01*
X71350910Y-111208832D01*
X71366562Y-111191562D01*
X71383832Y-111175910D01*
X71402552Y-111162026D01*
X71422543Y-111150044D01*
X71443613Y-111140079D01*
X71465557Y-111132227D01*
X71488166Y-111126563D01*
X71511221Y-111123144D01*
X71534500Y-111122000D01*
X72009500Y-111122000D01*
X72032779Y-111123144D01*
G37*
G36*
X67443779Y-112873144D02*
G01*
X67466834Y-112876563D01*
X67489443Y-112882227D01*
X67511387Y-112890079D01*
X67532457Y-112900044D01*
X67552448Y-112912026D01*
X67571168Y-112925910D01*
X67588438Y-112941562D01*
X67604090Y-112958832D01*
X67617974Y-112977552D01*
X67629956Y-112997543D01*
X67639921Y-113018613D01*
X67647773Y-113040557D01*
X67653437Y-113063166D01*
X67656856Y-113086221D01*
X67658000Y-113109500D01*
X67658000Y-113684500D01*
X67656856Y-113707779D01*
X67653437Y-113730834D01*
X67647773Y-113753443D01*
X67639921Y-113775387D01*
X67629956Y-113796457D01*
X67617974Y-113816448D01*
X67604090Y-113835168D01*
X67588438Y-113852438D01*
X67571168Y-113868090D01*
X67552448Y-113881974D01*
X67532457Y-113893956D01*
X67511387Y-113903921D01*
X67489443Y-113911773D01*
X67466834Y-113917437D01*
X67443779Y-113920856D01*
X67420500Y-113922000D01*
X66945500Y-113922000D01*
X66922221Y-113920856D01*
X66899166Y-113917437D01*
X66876557Y-113911773D01*
X66854613Y-113903921D01*
X66833543Y-113893956D01*
X66813552Y-113881974D01*
X66794832Y-113868090D01*
X66777562Y-113852438D01*
X66761910Y-113835168D01*
X66748026Y-113816448D01*
X66736044Y-113796457D01*
X66726079Y-113775387D01*
X66718227Y-113753443D01*
X66712563Y-113730834D01*
X66709144Y-113707779D01*
X66708000Y-113684500D01*
X66708000Y-113109500D01*
X66709144Y-113086221D01*
X66712563Y-113063166D01*
X66718227Y-113040557D01*
X66726079Y-113018613D01*
X66736044Y-112997543D01*
X66748026Y-112977552D01*
X66761910Y-112958832D01*
X66777562Y-112941562D01*
X66794832Y-112925910D01*
X66813552Y-112912026D01*
X66833543Y-112900044D01*
X66854613Y-112890079D01*
X66876557Y-112882227D01*
X66899166Y-112876563D01*
X66922221Y-112873144D01*
X66945500Y-112872000D01*
X67420500Y-112872000D01*
X67443779Y-112873144D01*
G37*
G36*
X67443779Y-111123144D02*
G01*
X67466834Y-111126563D01*
X67489443Y-111132227D01*
X67511387Y-111140079D01*
X67532457Y-111150044D01*
X67552448Y-111162026D01*
X67571168Y-111175910D01*
X67588438Y-111191562D01*
X67604090Y-111208832D01*
X67617974Y-111227552D01*
X67629956Y-111247543D01*
X67639921Y-111268613D01*
X67647773Y-111290557D01*
X67653437Y-111313166D01*
X67656856Y-111336221D01*
X67658000Y-111359500D01*
X67658000Y-111934500D01*
X67656856Y-111957779D01*
X67653437Y-111980834D01*
X67647773Y-112003443D01*
X67639921Y-112025387D01*
X67629956Y-112046457D01*
X67617974Y-112066448D01*
X67604090Y-112085168D01*
X67588438Y-112102438D01*
X67571168Y-112118090D01*
X67552448Y-112131974D01*
X67532457Y-112143956D01*
X67511387Y-112153921D01*
X67489443Y-112161773D01*
X67466834Y-112167437D01*
X67443779Y-112170856D01*
X67420500Y-112172000D01*
X66945500Y-112172000D01*
X66922221Y-112170856D01*
X66899166Y-112167437D01*
X66876557Y-112161773D01*
X66854613Y-112153921D01*
X66833543Y-112143956D01*
X66813552Y-112131974D01*
X66794832Y-112118090D01*
X66777562Y-112102438D01*
X66761910Y-112085168D01*
X66748026Y-112066448D01*
X66736044Y-112046457D01*
X66726079Y-112025387D01*
X66718227Y-112003443D01*
X66712563Y-111980834D01*
X66709144Y-111957779D01*
X66708000Y-111934500D01*
X66708000Y-111359500D01*
X66709144Y-111336221D01*
X66712563Y-111313166D01*
X66718227Y-111290557D01*
X66726079Y-111268613D01*
X66736044Y-111247543D01*
X66748026Y-111227552D01*
X66761910Y-111208832D01*
X66777562Y-111191562D01*
X66794832Y-111175910D01*
X66813552Y-111162026D01*
X66833543Y-111150044D01*
X66854613Y-111140079D01*
X66876557Y-111132227D01*
X66899166Y-111126563D01*
X66922221Y-111123144D01*
X66945500Y-111122000D01*
X67420500Y-111122000D01*
X67443779Y-111123144D01*
G37*
G36*
X81032779Y-85582144D02*
G01*
X81055834Y-85585563D01*
X81078443Y-85591227D01*
X81100387Y-85599079D01*
X81121457Y-85609044D01*
X81141448Y-85621026D01*
X81160168Y-85634910D01*
X81177438Y-85650562D01*
X81193090Y-85667832D01*
X81206974Y-85686552D01*
X81218956Y-85706543D01*
X81228921Y-85727613D01*
X81236773Y-85749557D01*
X81242437Y-85772166D01*
X81245856Y-85795221D01*
X81247000Y-85818500D01*
X81247000Y-86393500D01*
X81245856Y-86416779D01*
X81242437Y-86439834D01*
X81236773Y-86462443D01*
X81228921Y-86484387D01*
X81218956Y-86505457D01*
X81206974Y-86525448D01*
X81193090Y-86544168D01*
X81177438Y-86561438D01*
X81160168Y-86577090D01*
X81141448Y-86590974D01*
X81121457Y-86602956D01*
X81100387Y-86612921D01*
X81078443Y-86620773D01*
X81055834Y-86626437D01*
X81032779Y-86629856D01*
X81009500Y-86631000D01*
X80534500Y-86631000D01*
X80511221Y-86629856D01*
X80488166Y-86626437D01*
X80465557Y-86620773D01*
X80443613Y-86612921D01*
X80422543Y-86602956D01*
X80402552Y-86590974D01*
X80383832Y-86577090D01*
X80366562Y-86561438D01*
X80350910Y-86544168D01*
X80337026Y-86525448D01*
X80325044Y-86505457D01*
X80315079Y-86484387D01*
X80307227Y-86462443D01*
X80301563Y-86439834D01*
X80298144Y-86416779D01*
X80297000Y-86393500D01*
X80297000Y-85818500D01*
X80298144Y-85795221D01*
X80301563Y-85772166D01*
X80307227Y-85749557D01*
X80315079Y-85727613D01*
X80325044Y-85706543D01*
X80337026Y-85686552D01*
X80350910Y-85667832D01*
X80366562Y-85650562D01*
X80383832Y-85634910D01*
X80402552Y-85621026D01*
X80422543Y-85609044D01*
X80443613Y-85599079D01*
X80465557Y-85591227D01*
X80488166Y-85585563D01*
X80511221Y-85582144D01*
X80534500Y-85581000D01*
X81009500Y-85581000D01*
X81032779Y-85582144D01*
G37*
G36*
X81032779Y-83832144D02*
G01*
X81055834Y-83835563D01*
X81078443Y-83841227D01*
X81100387Y-83849079D01*
X81121457Y-83859044D01*
X81141448Y-83871026D01*
X81160168Y-83884910D01*
X81177438Y-83900562D01*
X81193090Y-83917832D01*
X81206974Y-83936552D01*
X81218956Y-83956543D01*
X81228921Y-83977613D01*
X81236773Y-83999557D01*
X81242437Y-84022166D01*
X81245856Y-84045221D01*
X81247000Y-84068500D01*
X81247000Y-84643500D01*
X81245856Y-84666779D01*
X81242437Y-84689834D01*
X81236773Y-84712443D01*
X81228921Y-84734387D01*
X81218956Y-84755457D01*
X81206974Y-84775448D01*
X81193090Y-84794168D01*
X81177438Y-84811438D01*
X81160168Y-84827090D01*
X81141448Y-84840974D01*
X81121457Y-84852956D01*
X81100387Y-84862921D01*
X81078443Y-84870773D01*
X81055834Y-84876437D01*
X81032779Y-84879856D01*
X81009500Y-84881000D01*
X80534500Y-84881000D01*
X80511221Y-84879856D01*
X80488166Y-84876437D01*
X80465557Y-84870773D01*
X80443613Y-84862921D01*
X80422543Y-84852956D01*
X80402552Y-84840974D01*
X80383832Y-84827090D01*
X80366562Y-84811438D01*
X80350910Y-84794168D01*
X80337026Y-84775448D01*
X80325044Y-84755457D01*
X80315079Y-84734387D01*
X80307227Y-84712443D01*
X80301563Y-84689834D01*
X80298144Y-84666779D01*
X80297000Y-84643500D01*
X80297000Y-84068500D01*
X80298144Y-84045221D01*
X80301563Y-84022166D01*
X80307227Y-83999557D01*
X80315079Y-83977613D01*
X80325044Y-83956543D01*
X80337026Y-83936552D01*
X80350910Y-83917832D01*
X80366562Y-83900562D01*
X80383832Y-83884910D01*
X80402552Y-83871026D01*
X80422543Y-83859044D01*
X80443613Y-83849079D01*
X80465557Y-83841227D01*
X80488166Y-83835563D01*
X80511221Y-83832144D01*
X80534500Y-83831000D01*
X81009500Y-83831000D01*
X81032779Y-83832144D01*
G37*
G36*
X68967779Y-112859144D02*
G01*
X68990834Y-112862563D01*
X69013443Y-112868227D01*
X69035387Y-112876079D01*
X69056457Y-112886044D01*
X69076448Y-112898026D01*
X69095168Y-112911910D01*
X69112438Y-112927562D01*
X69128090Y-112944832D01*
X69141974Y-112963552D01*
X69153956Y-112983543D01*
X69163921Y-113004613D01*
X69171773Y-113026557D01*
X69177437Y-113049166D01*
X69180856Y-113072221D01*
X69182000Y-113095500D01*
X69182000Y-113670500D01*
X69180856Y-113693779D01*
X69177437Y-113716834D01*
X69171773Y-113739443D01*
X69163921Y-113761387D01*
X69153956Y-113782457D01*
X69141974Y-113802448D01*
X69128090Y-113821168D01*
X69112438Y-113838438D01*
X69095168Y-113854090D01*
X69076448Y-113867974D01*
X69056457Y-113879956D01*
X69035387Y-113889921D01*
X69013443Y-113897773D01*
X68990834Y-113903437D01*
X68967779Y-113906856D01*
X68944500Y-113908000D01*
X68469500Y-113908000D01*
X68446221Y-113906856D01*
X68423166Y-113903437D01*
X68400557Y-113897773D01*
X68378613Y-113889921D01*
X68357543Y-113879956D01*
X68337552Y-113867974D01*
X68318832Y-113854090D01*
X68301562Y-113838438D01*
X68285910Y-113821168D01*
X68272026Y-113802448D01*
X68260044Y-113782457D01*
X68250079Y-113761387D01*
X68242227Y-113739443D01*
X68236563Y-113716834D01*
X68233144Y-113693779D01*
X68232000Y-113670500D01*
X68232000Y-113095500D01*
X68233144Y-113072221D01*
X68236563Y-113049166D01*
X68242227Y-113026557D01*
X68250079Y-113004613D01*
X68260044Y-112983543D01*
X68272026Y-112963552D01*
X68285910Y-112944832D01*
X68301562Y-112927562D01*
X68318832Y-112911910D01*
X68337552Y-112898026D01*
X68357543Y-112886044D01*
X68378613Y-112876079D01*
X68400557Y-112868227D01*
X68423166Y-112862563D01*
X68446221Y-112859144D01*
X68469500Y-112858000D01*
X68944500Y-112858000D01*
X68967779Y-112859144D01*
G37*
G36*
X68967779Y-111109144D02*
G01*
X68990834Y-111112563D01*
X69013443Y-111118227D01*
X69035387Y-111126079D01*
X69056457Y-111136044D01*
X69076448Y-111148026D01*
X69095168Y-111161910D01*
X69112438Y-111177562D01*
X69128090Y-111194832D01*
X69141974Y-111213552D01*
X69153956Y-111233543D01*
X69163921Y-111254613D01*
X69171773Y-111276557D01*
X69177437Y-111299166D01*
X69180856Y-111322221D01*
X69182000Y-111345500D01*
X69182000Y-111920500D01*
X69180856Y-111943779D01*
X69177437Y-111966834D01*
X69171773Y-111989443D01*
X69163921Y-112011387D01*
X69153956Y-112032457D01*
X69141974Y-112052448D01*
X69128090Y-112071168D01*
X69112438Y-112088438D01*
X69095168Y-112104090D01*
X69076448Y-112117974D01*
X69056457Y-112129956D01*
X69035387Y-112139921D01*
X69013443Y-112147773D01*
X68990834Y-112153437D01*
X68967779Y-112156856D01*
X68944500Y-112158000D01*
X68469500Y-112158000D01*
X68446221Y-112156856D01*
X68423166Y-112153437D01*
X68400557Y-112147773D01*
X68378613Y-112139921D01*
X68357543Y-112129956D01*
X68337552Y-112117974D01*
X68318832Y-112104090D01*
X68301562Y-112088438D01*
X68285910Y-112071168D01*
X68272026Y-112052448D01*
X68260044Y-112032457D01*
X68250079Y-112011387D01*
X68242227Y-111989443D01*
X68236563Y-111966834D01*
X68233144Y-111943779D01*
X68232000Y-111920500D01*
X68232000Y-111345500D01*
X68233144Y-111322221D01*
X68236563Y-111299166D01*
X68242227Y-111276557D01*
X68250079Y-111254613D01*
X68260044Y-111233543D01*
X68272026Y-111213552D01*
X68285910Y-111194832D01*
X68301562Y-111177562D01*
X68318832Y-111161910D01*
X68337552Y-111148026D01*
X68357543Y-111136044D01*
X68378613Y-111126079D01*
X68400557Y-111118227D01*
X68423166Y-111112563D01*
X68446221Y-111109144D01*
X68469500Y-111108000D01*
X68944500Y-111108000D01*
X68967779Y-111109144D01*
G37*
G36*
X104477779Y-107569644D02*
G01*
X104500834Y-107573063D01*
X104523443Y-107578727D01*
X104545387Y-107586579D01*
X104566457Y-107596544D01*
X104586448Y-107608526D01*
X104605168Y-107622410D01*
X104622438Y-107638062D01*
X104638090Y-107655332D01*
X104651974Y-107674052D01*
X104663956Y-107694043D01*
X104673921Y-107715113D01*
X104681773Y-107737057D01*
X104687437Y-107759666D01*
X104690856Y-107782721D01*
X104692000Y-107806000D01*
X104692000Y-108381000D01*
X104690856Y-108404279D01*
X104687437Y-108427334D01*
X104681773Y-108449943D01*
X104673921Y-108471887D01*
X104663956Y-108492957D01*
X104651974Y-108512948D01*
X104638090Y-108531668D01*
X104622438Y-108548938D01*
X104605168Y-108564590D01*
X104586448Y-108578474D01*
X104566457Y-108590456D01*
X104545387Y-108600421D01*
X104523443Y-108608273D01*
X104500834Y-108613937D01*
X104477779Y-108617356D01*
X104454500Y-108618500D01*
X103979500Y-108618500D01*
X103956221Y-108617356D01*
X103933166Y-108613937D01*
X103910557Y-108608273D01*
X103888613Y-108600421D01*
X103867543Y-108590456D01*
X103847552Y-108578474D01*
X103828832Y-108564590D01*
X103811562Y-108548938D01*
X103795910Y-108531668D01*
X103782026Y-108512948D01*
X103770044Y-108492957D01*
X103760079Y-108471887D01*
X103752227Y-108449943D01*
X103746563Y-108427334D01*
X103743144Y-108404279D01*
X103742000Y-108381000D01*
X103742000Y-107806000D01*
X103743144Y-107782721D01*
X103746563Y-107759666D01*
X103752227Y-107737057D01*
X103760079Y-107715113D01*
X103770044Y-107694043D01*
X103782026Y-107674052D01*
X103795910Y-107655332D01*
X103811562Y-107638062D01*
X103828832Y-107622410D01*
X103847552Y-107608526D01*
X103867543Y-107596544D01*
X103888613Y-107586579D01*
X103910557Y-107578727D01*
X103933166Y-107573063D01*
X103956221Y-107569644D01*
X103979500Y-107568500D01*
X104454500Y-107568500D01*
X104477779Y-107569644D01*
G37*
G36*
X104477779Y-105819644D02*
G01*
X104500834Y-105823063D01*
X104523443Y-105828727D01*
X104545387Y-105836579D01*
X104566457Y-105846544D01*
X104586448Y-105858526D01*
X104605168Y-105872410D01*
X104622438Y-105888062D01*
X104638090Y-105905332D01*
X104651974Y-105924052D01*
X104663956Y-105944043D01*
X104673921Y-105965113D01*
X104681773Y-105987057D01*
X104687437Y-106009666D01*
X104690856Y-106032721D01*
X104692000Y-106056000D01*
X104692000Y-106631000D01*
X104690856Y-106654279D01*
X104687437Y-106677334D01*
X104681773Y-106699943D01*
X104673921Y-106721887D01*
X104663956Y-106742957D01*
X104651974Y-106762948D01*
X104638090Y-106781668D01*
X104622438Y-106798938D01*
X104605168Y-106814590D01*
X104586448Y-106828474D01*
X104566457Y-106840456D01*
X104545387Y-106850421D01*
X104523443Y-106858273D01*
X104500834Y-106863937D01*
X104477779Y-106867356D01*
X104454500Y-106868500D01*
X103979500Y-106868500D01*
X103956221Y-106867356D01*
X103933166Y-106863937D01*
X103910557Y-106858273D01*
X103888613Y-106850421D01*
X103867543Y-106840456D01*
X103847552Y-106828474D01*
X103828832Y-106814590D01*
X103811562Y-106798938D01*
X103795910Y-106781668D01*
X103782026Y-106762948D01*
X103770044Y-106742957D01*
X103760079Y-106721887D01*
X103752227Y-106699943D01*
X103746563Y-106677334D01*
X103743144Y-106654279D01*
X103742000Y-106631000D01*
X103742000Y-106056000D01*
X103743144Y-106032721D01*
X103746563Y-106009666D01*
X103752227Y-105987057D01*
X103760079Y-105965113D01*
X103770044Y-105944043D01*
X103782026Y-105924052D01*
X103795910Y-105905332D01*
X103811562Y-105888062D01*
X103828832Y-105872410D01*
X103847552Y-105858526D01*
X103867543Y-105846544D01*
X103888613Y-105836579D01*
X103910557Y-105828727D01*
X103933166Y-105823063D01*
X103956221Y-105819644D01*
X103979500Y-105818500D01*
X104454500Y-105818500D01*
X104477779Y-105819644D01*
G37*
G36*
X99651779Y-98058644D02*
G01*
X99674834Y-98062063D01*
X99697443Y-98067727D01*
X99719387Y-98075579D01*
X99740457Y-98085544D01*
X99760448Y-98097526D01*
X99779168Y-98111410D01*
X99796438Y-98127062D01*
X99812090Y-98144332D01*
X99825974Y-98163052D01*
X99837956Y-98183043D01*
X99847921Y-98204113D01*
X99855773Y-98226057D01*
X99861437Y-98248666D01*
X99864856Y-98271721D01*
X99866000Y-98295000D01*
X99866000Y-98870000D01*
X99864856Y-98893279D01*
X99861437Y-98916334D01*
X99855773Y-98938943D01*
X99847921Y-98960887D01*
X99837956Y-98981957D01*
X99825974Y-99001948D01*
X99812090Y-99020668D01*
X99796438Y-99037938D01*
X99779168Y-99053590D01*
X99760448Y-99067474D01*
X99740457Y-99079456D01*
X99719387Y-99089421D01*
X99697443Y-99097273D01*
X99674834Y-99102937D01*
X99651779Y-99106356D01*
X99628500Y-99107500D01*
X99153500Y-99107500D01*
X99130221Y-99106356D01*
X99107166Y-99102937D01*
X99084557Y-99097273D01*
X99062613Y-99089421D01*
X99041543Y-99079456D01*
X99021552Y-99067474D01*
X99002832Y-99053590D01*
X98985562Y-99037938D01*
X98969910Y-99020668D01*
X98956026Y-99001948D01*
X98944044Y-98981957D01*
X98934079Y-98960887D01*
X98926227Y-98938943D01*
X98920563Y-98916334D01*
X98917144Y-98893279D01*
X98916000Y-98870000D01*
X98916000Y-98295000D01*
X98917144Y-98271721D01*
X98920563Y-98248666D01*
X98926227Y-98226057D01*
X98934079Y-98204113D01*
X98944044Y-98183043D01*
X98956026Y-98163052D01*
X98969910Y-98144332D01*
X98985562Y-98127062D01*
X99002832Y-98111410D01*
X99021552Y-98097526D01*
X99041543Y-98085544D01*
X99062613Y-98075579D01*
X99084557Y-98067727D01*
X99107166Y-98062063D01*
X99130221Y-98058644D01*
X99153500Y-98057500D01*
X99628500Y-98057500D01*
X99651779Y-98058644D01*
G37*
G36*
X99651779Y-96308644D02*
G01*
X99674834Y-96312063D01*
X99697443Y-96317727D01*
X99719387Y-96325579D01*
X99740457Y-96335544D01*
X99760448Y-96347526D01*
X99779168Y-96361410D01*
X99796438Y-96377062D01*
X99812090Y-96394332D01*
X99825974Y-96413052D01*
X99837956Y-96433043D01*
X99847921Y-96454113D01*
X99855773Y-96476057D01*
X99861437Y-96498666D01*
X99864856Y-96521721D01*
X99866000Y-96545000D01*
X99866000Y-97120000D01*
X99864856Y-97143279D01*
X99861437Y-97166334D01*
X99855773Y-97188943D01*
X99847921Y-97210887D01*
X99837956Y-97231957D01*
X99825974Y-97251948D01*
X99812090Y-97270668D01*
X99796438Y-97287938D01*
X99779168Y-97303590D01*
X99760448Y-97317474D01*
X99740457Y-97329456D01*
X99719387Y-97339421D01*
X99697443Y-97347273D01*
X99674834Y-97352937D01*
X99651779Y-97356356D01*
X99628500Y-97357500D01*
X99153500Y-97357500D01*
X99130221Y-97356356D01*
X99107166Y-97352937D01*
X99084557Y-97347273D01*
X99062613Y-97339421D01*
X99041543Y-97329456D01*
X99021552Y-97317474D01*
X99002832Y-97303590D01*
X98985562Y-97287938D01*
X98969910Y-97270668D01*
X98956026Y-97251948D01*
X98944044Y-97231957D01*
X98934079Y-97210887D01*
X98926227Y-97188943D01*
X98920563Y-97166334D01*
X98917144Y-97143279D01*
X98916000Y-97120000D01*
X98916000Y-96545000D01*
X98917144Y-96521721D01*
X98920563Y-96498666D01*
X98926227Y-96476057D01*
X98934079Y-96454113D01*
X98944044Y-96433043D01*
X98956026Y-96413052D01*
X98969910Y-96394332D01*
X98985562Y-96377062D01*
X99002832Y-96361410D01*
X99021552Y-96347526D01*
X99041543Y-96335544D01*
X99062613Y-96325579D01*
X99084557Y-96317727D01*
X99107166Y-96312063D01*
X99130221Y-96308644D01*
X99153500Y-96307500D01*
X99628500Y-96307500D01*
X99651779Y-96308644D01*
G37*
G36*
X102191779Y-105819644D02*
G01*
X102214834Y-105823063D01*
X102237443Y-105828727D01*
X102259387Y-105836579D01*
X102280457Y-105846544D01*
X102300448Y-105858526D01*
X102319168Y-105872410D01*
X102336438Y-105888062D01*
X102352090Y-105905332D01*
X102365974Y-105924052D01*
X102377956Y-105944043D01*
X102387921Y-105965113D01*
X102395773Y-105987057D01*
X102401437Y-106009666D01*
X102404856Y-106032721D01*
X102406000Y-106056000D01*
X102406000Y-106631000D01*
X102404856Y-106654279D01*
X102401437Y-106677334D01*
X102395773Y-106699943D01*
X102387921Y-106721887D01*
X102377956Y-106742957D01*
X102365974Y-106762948D01*
X102352090Y-106781668D01*
X102336438Y-106798938D01*
X102319168Y-106814590D01*
X102300448Y-106828474D01*
X102280457Y-106840456D01*
X102259387Y-106850421D01*
X102237443Y-106858273D01*
X102214834Y-106863937D01*
X102191779Y-106867356D01*
X102168500Y-106868500D01*
X101693500Y-106868500D01*
X101670221Y-106867356D01*
X101647166Y-106863937D01*
X101624557Y-106858273D01*
X101602613Y-106850421D01*
X101581543Y-106840456D01*
X101561552Y-106828474D01*
X101542832Y-106814590D01*
X101525562Y-106798938D01*
X101509910Y-106781668D01*
X101496026Y-106762948D01*
X101484044Y-106742957D01*
X101474079Y-106721887D01*
X101466227Y-106699943D01*
X101460563Y-106677334D01*
X101457144Y-106654279D01*
X101456000Y-106631000D01*
X101456000Y-106056000D01*
X101457144Y-106032721D01*
X101460563Y-106009666D01*
X101466227Y-105987057D01*
X101474079Y-105965113D01*
X101484044Y-105944043D01*
X101496026Y-105924052D01*
X101509910Y-105905332D01*
X101525562Y-105888062D01*
X101542832Y-105872410D01*
X101561552Y-105858526D01*
X101581543Y-105846544D01*
X101602613Y-105836579D01*
X101624557Y-105828727D01*
X101647166Y-105823063D01*
X101670221Y-105819644D01*
X101693500Y-105818500D01*
X102168500Y-105818500D01*
X102191779Y-105819644D01*
G37*
G36*
X102191779Y-107569644D02*
G01*
X102214834Y-107573063D01*
X102237443Y-107578727D01*
X102259387Y-107586579D01*
X102280457Y-107596544D01*
X102300448Y-107608526D01*
X102319168Y-107622410D01*
X102336438Y-107638062D01*
X102352090Y-107655332D01*
X102365974Y-107674052D01*
X102377956Y-107694043D01*
X102387921Y-107715113D01*
X102395773Y-107737057D01*
X102401437Y-107759666D01*
X102404856Y-107782721D01*
X102406000Y-107806000D01*
X102406000Y-108381000D01*
X102404856Y-108404279D01*
X102401437Y-108427334D01*
X102395773Y-108449943D01*
X102387921Y-108471887D01*
X102377956Y-108492957D01*
X102365974Y-108512948D01*
X102352090Y-108531668D01*
X102336438Y-108548938D01*
X102319168Y-108564590D01*
X102300448Y-108578474D01*
X102280457Y-108590456D01*
X102259387Y-108600421D01*
X102237443Y-108608273D01*
X102214834Y-108613937D01*
X102191779Y-108617356D01*
X102168500Y-108618500D01*
X101693500Y-108618500D01*
X101670221Y-108617356D01*
X101647166Y-108613937D01*
X101624557Y-108608273D01*
X101602613Y-108600421D01*
X101581543Y-108590456D01*
X101561552Y-108578474D01*
X101542832Y-108564590D01*
X101525562Y-108548938D01*
X101509910Y-108531668D01*
X101496026Y-108512948D01*
X101484044Y-108492957D01*
X101474079Y-108471887D01*
X101466227Y-108449943D01*
X101460563Y-108427334D01*
X101457144Y-108404279D01*
X101456000Y-108381000D01*
X101456000Y-107806000D01*
X101457144Y-107782721D01*
X101460563Y-107759666D01*
X101466227Y-107737057D01*
X101474079Y-107715113D01*
X101484044Y-107694043D01*
X101496026Y-107674052D01*
X101509910Y-107655332D01*
X101525562Y-107638062D01*
X101542832Y-107622410D01*
X101561552Y-107608526D01*
X101581543Y-107596544D01*
X101602613Y-107586579D01*
X101624557Y-107578727D01*
X101647166Y-107573063D01*
X101670221Y-107569644D01*
X101693500Y-107568500D01*
X102168500Y-107568500D01*
X102191779Y-107569644D01*
G37*
G36*
X102445779Y-96294644D02*
G01*
X102468834Y-96298063D01*
X102491443Y-96303727D01*
X102513387Y-96311579D01*
X102534457Y-96321544D01*
X102554448Y-96333526D01*
X102573168Y-96347410D01*
X102590438Y-96363062D01*
X102606090Y-96380332D01*
X102619974Y-96399052D01*
X102631956Y-96419043D01*
X102641921Y-96440113D01*
X102649773Y-96462057D01*
X102655437Y-96484666D01*
X102658856Y-96507721D01*
X102660000Y-96531000D01*
X102660000Y-97106000D01*
X102658856Y-97129279D01*
X102655437Y-97152334D01*
X102649773Y-97174943D01*
X102641921Y-97196887D01*
X102631956Y-97217957D01*
X102619974Y-97237948D01*
X102606090Y-97256668D01*
X102590438Y-97273938D01*
X102573168Y-97289590D01*
X102554448Y-97303474D01*
X102534457Y-97315456D01*
X102513387Y-97325421D01*
X102491443Y-97333273D01*
X102468834Y-97338937D01*
X102445779Y-97342356D01*
X102422500Y-97343500D01*
X101947500Y-97343500D01*
X101924221Y-97342356D01*
X101901166Y-97338937D01*
X101878557Y-97333273D01*
X101856613Y-97325421D01*
X101835543Y-97315456D01*
X101815552Y-97303474D01*
X101796832Y-97289590D01*
X101779562Y-97273938D01*
X101763910Y-97256668D01*
X101750026Y-97237948D01*
X101738044Y-97217957D01*
X101728079Y-97196887D01*
X101720227Y-97174943D01*
X101714563Y-97152334D01*
X101711144Y-97129279D01*
X101710000Y-97106000D01*
X101710000Y-96531000D01*
X101711144Y-96507721D01*
X101714563Y-96484666D01*
X101720227Y-96462057D01*
X101728079Y-96440113D01*
X101738044Y-96419043D01*
X101750026Y-96399052D01*
X101763910Y-96380332D01*
X101779562Y-96363062D01*
X101796832Y-96347410D01*
X101815552Y-96333526D01*
X101835543Y-96321544D01*
X101856613Y-96311579D01*
X101878557Y-96303727D01*
X101901166Y-96298063D01*
X101924221Y-96294644D01*
X101947500Y-96293500D01*
X102422500Y-96293500D01*
X102445779Y-96294644D01*
G37*
G36*
X102445779Y-98044644D02*
G01*
X102468834Y-98048063D01*
X102491443Y-98053727D01*
X102513387Y-98061579D01*
X102534457Y-98071544D01*
X102554448Y-98083526D01*
X102573168Y-98097410D01*
X102590438Y-98113062D01*
X102606090Y-98130332D01*
X102619974Y-98149052D01*
X102631956Y-98169043D01*
X102641921Y-98190113D01*
X102649773Y-98212057D01*
X102655437Y-98234666D01*
X102658856Y-98257721D01*
X102660000Y-98281000D01*
X102660000Y-98856000D01*
X102658856Y-98879279D01*
X102655437Y-98902334D01*
X102649773Y-98924943D01*
X102641921Y-98946887D01*
X102631956Y-98967957D01*
X102619974Y-98987948D01*
X102606090Y-99006668D01*
X102590438Y-99023938D01*
X102573168Y-99039590D01*
X102554448Y-99053474D01*
X102534457Y-99065456D01*
X102513387Y-99075421D01*
X102491443Y-99083273D01*
X102468834Y-99088937D01*
X102445779Y-99092356D01*
X102422500Y-99093500D01*
X101947500Y-99093500D01*
X101924221Y-99092356D01*
X101901166Y-99088937D01*
X101878557Y-99083273D01*
X101856613Y-99075421D01*
X101835543Y-99065456D01*
X101815552Y-99053474D01*
X101796832Y-99039590D01*
X101779562Y-99023938D01*
X101763910Y-99006668D01*
X101750026Y-98987948D01*
X101738044Y-98967957D01*
X101728079Y-98946887D01*
X101720227Y-98924943D01*
X101714563Y-98902334D01*
X101711144Y-98879279D01*
X101710000Y-98856000D01*
X101710000Y-98281000D01*
X101711144Y-98257721D01*
X101714563Y-98234666D01*
X101720227Y-98212057D01*
X101728079Y-98190113D01*
X101738044Y-98169043D01*
X101750026Y-98149052D01*
X101763910Y-98130332D01*
X101779562Y-98113062D01*
X101796832Y-98097410D01*
X101815552Y-98083526D01*
X101835543Y-98071544D01*
X101856613Y-98061579D01*
X101878557Y-98053727D01*
X101901166Y-98048063D01*
X101924221Y-98044644D01*
X101947500Y-98043500D01*
X102422500Y-98043500D01*
X102445779Y-98044644D01*
G37*
G36*
X108083779Y-96294644D02*
G01*
X108106834Y-96298063D01*
X108129443Y-96303727D01*
X108151387Y-96311579D01*
X108172457Y-96321544D01*
X108192448Y-96333526D01*
X108211168Y-96347410D01*
X108228438Y-96363062D01*
X108244090Y-96380332D01*
X108257974Y-96399052D01*
X108269956Y-96419043D01*
X108279921Y-96440113D01*
X108287773Y-96462057D01*
X108293437Y-96484666D01*
X108296856Y-96507721D01*
X108298000Y-96531000D01*
X108298000Y-97106000D01*
X108296856Y-97129279D01*
X108293437Y-97152334D01*
X108287773Y-97174943D01*
X108279921Y-97196887D01*
X108269956Y-97217957D01*
X108257974Y-97237948D01*
X108244090Y-97256668D01*
X108228438Y-97273938D01*
X108211168Y-97289590D01*
X108192448Y-97303474D01*
X108172457Y-97315456D01*
X108151387Y-97325421D01*
X108129443Y-97333273D01*
X108106834Y-97338937D01*
X108083779Y-97342356D01*
X108060500Y-97343500D01*
X107585500Y-97343500D01*
X107562221Y-97342356D01*
X107539166Y-97338937D01*
X107516557Y-97333273D01*
X107494613Y-97325421D01*
X107473543Y-97315456D01*
X107453552Y-97303474D01*
X107434832Y-97289590D01*
X107417562Y-97273938D01*
X107401910Y-97256668D01*
X107388026Y-97237948D01*
X107376044Y-97217957D01*
X107366079Y-97196887D01*
X107358227Y-97174943D01*
X107352563Y-97152334D01*
X107349144Y-97129279D01*
X107348000Y-97106000D01*
X107348000Y-96531000D01*
X107349144Y-96507721D01*
X107352563Y-96484666D01*
X107358227Y-96462057D01*
X107366079Y-96440113D01*
X107376044Y-96419043D01*
X107388026Y-96399052D01*
X107401910Y-96380332D01*
X107417562Y-96363062D01*
X107434832Y-96347410D01*
X107453552Y-96333526D01*
X107473543Y-96321544D01*
X107494613Y-96311579D01*
X107516557Y-96303727D01*
X107539166Y-96298063D01*
X107562221Y-96294644D01*
X107585500Y-96293500D01*
X108060500Y-96293500D01*
X108083779Y-96294644D01*
G37*
G36*
X108083779Y-98044644D02*
G01*
X108106834Y-98048063D01*
X108129443Y-98053727D01*
X108151387Y-98061579D01*
X108172457Y-98071544D01*
X108192448Y-98083526D01*
X108211168Y-98097410D01*
X108228438Y-98113062D01*
X108244090Y-98130332D01*
X108257974Y-98149052D01*
X108269956Y-98169043D01*
X108279921Y-98190113D01*
X108287773Y-98212057D01*
X108293437Y-98234666D01*
X108296856Y-98257721D01*
X108298000Y-98281000D01*
X108298000Y-98856000D01*
X108296856Y-98879279D01*
X108293437Y-98902334D01*
X108287773Y-98924943D01*
X108279921Y-98946887D01*
X108269956Y-98967957D01*
X108257974Y-98987948D01*
X108244090Y-99006668D01*
X108228438Y-99023938D01*
X108211168Y-99039590D01*
X108192448Y-99053474D01*
X108172457Y-99065456D01*
X108151387Y-99075421D01*
X108129443Y-99083273D01*
X108106834Y-99088937D01*
X108083779Y-99092356D01*
X108060500Y-99093500D01*
X107585500Y-99093500D01*
X107562221Y-99092356D01*
X107539166Y-99088937D01*
X107516557Y-99083273D01*
X107494613Y-99075421D01*
X107473543Y-99065456D01*
X107453552Y-99053474D01*
X107434832Y-99039590D01*
X107417562Y-99023938D01*
X107401910Y-99006668D01*
X107388026Y-98987948D01*
X107376044Y-98967957D01*
X107366079Y-98946887D01*
X107358227Y-98924943D01*
X107352563Y-98902334D01*
X107349144Y-98879279D01*
X107348000Y-98856000D01*
X107348000Y-98281000D01*
X107349144Y-98257721D01*
X107352563Y-98234666D01*
X107358227Y-98212057D01*
X107366079Y-98190113D01*
X107376044Y-98169043D01*
X107388026Y-98149052D01*
X107401910Y-98130332D01*
X107417562Y-98113062D01*
X107434832Y-98097410D01*
X107453552Y-98083526D01*
X107473543Y-98071544D01*
X107494613Y-98061579D01*
X107516557Y-98053727D01*
X107539166Y-98048063D01*
X107562221Y-98044644D01*
X107585500Y-98043500D01*
X108060500Y-98043500D01*
X108083779Y-98044644D01*
G37*
G36*
X70508779Y-112873144D02*
G01*
X70531834Y-112876563D01*
X70554443Y-112882227D01*
X70576387Y-112890079D01*
X70597457Y-112900044D01*
X70617448Y-112912026D01*
X70636168Y-112925910D01*
X70653438Y-112941562D01*
X70669090Y-112958832D01*
X70682974Y-112977552D01*
X70694956Y-112997543D01*
X70704921Y-113018613D01*
X70712773Y-113040557D01*
X70718437Y-113063166D01*
X70721856Y-113086221D01*
X70723000Y-113109500D01*
X70723000Y-113684500D01*
X70721856Y-113707779D01*
X70718437Y-113730834D01*
X70712773Y-113753443D01*
X70704921Y-113775387D01*
X70694956Y-113796457D01*
X70682974Y-113816448D01*
X70669090Y-113835168D01*
X70653438Y-113852438D01*
X70636168Y-113868090D01*
X70617448Y-113881974D01*
X70597457Y-113893956D01*
X70576387Y-113903921D01*
X70554443Y-113911773D01*
X70531834Y-113917437D01*
X70508779Y-113920856D01*
X70485500Y-113922000D01*
X70010500Y-113922000D01*
X69987221Y-113920856D01*
X69964166Y-113917437D01*
X69941557Y-113911773D01*
X69919613Y-113903921D01*
X69898543Y-113893956D01*
X69878552Y-113881974D01*
X69859832Y-113868090D01*
X69842562Y-113852438D01*
X69826910Y-113835168D01*
X69813026Y-113816448D01*
X69801044Y-113796457D01*
X69791079Y-113775387D01*
X69783227Y-113753443D01*
X69777563Y-113730834D01*
X69774144Y-113707779D01*
X69773000Y-113684500D01*
X69773000Y-113109500D01*
X69774144Y-113086221D01*
X69777563Y-113063166D01*
X69783227Y-113040557D01*
X69791079Y-113018613D01*
X69801044Y-112997543D01*
X69813026Y-112977552D01*
X69826910Y-112958832D01*
X69842562Y-112941562D01*
X69859832Y-112925910D01*
X69878552Y-112912026D01*
X69898543Y-112900044D01*
X69919613Y-112890079D01*
X69941557Y-112882227D01*
X69964166Y-112876563D01*
X69987221Y-112873144D01*
X70010500Y-112872000D01*
X70485500Y-112872000D01*
X70508779Y-112873144D01*
G37*
G36*
X70508779Y-111123144D02*
G01*
X70531834Y-111126563D01*
X70554443Y-111132227D01*
X70576387Y-111140079D01*
X70597457Y-111150044D01*
X70617448Y-111162026D01*
X70636168Y-111175910D01*
X70653438Y-111191562D01*
X70669090Y-111208832D01*
X70682974Y-111227552D01*
X70694956Y-111247543D01*
X70704921Y-111268613D01*
X70712773Y-111290557D01*
X70718437Y-111313166D01*
X70721856Y-111336221D01*
X70723000Y-111359500D01*
X70723000Y-111934500D01*
X70721856Y-111957779D01*
X70718437Y-111980834D01*
X70712773Y-112003443D01*
X70704921Y-112025387D01*
X70694956Y-112046457D01*
X70682974Y-112066448D01*
X70669090Y-112085168D01*
X70653438Y-112102438D01*
X70636168Y-112118090D01*
X70617448Y-112131974D01*
X70597457Y-112143956D01*
X70576387Y-112153921D01*
X70554443Y-112161773D01*
X70531834Y-112167437D01*
X70508779Y-112170856D01*
X70485500Y-112172000D01*
X70010500Y-112172000D01*
X69987221Y-112170856D01*
X69964166Y-112167437D01*
X69941557Y-112161773D01*
X69919613Y-112153921D01*
X69898543Y-112143956D01*
X69878552Y-112131974D01*
X69859832Y-112118090D01*
X69842562Y-112102438D01*
X69826910Y-112085168D01*
X69813026Y-112066448D01*
X69801044Y-112046457D01*
X69791079Y-112025387D01*
X69783227Y-112003443D01*
X69777563Y-111980834D01*
X69774144Y-111957779D01*
X69773000Y-111934500D01*
X69773000Y-111359500D01*
X69774144Y-111336221D01*
X69777563Y-111313166D01*
X69783227Y-111290557D01*
X69791079Y-111268613D01*
X69801044Y-111247543D01*
X69813026Y-111227552D01*
X69826910Y-111208832D01*
X69842562Y-111191562D01*
X69859832Y-111175910D01*
X69878552Y-111162026D01*
X69898543Y-111150044D01*
X69919613Y-111140079D01*
X69941557Y-111132227D01*
X69964166Y-111126563D01*
X69987221Y-111123144D01*
X70010500Y-111122000D01*
X70485500Y-111122000D01*
X70508779Y-111123144D01*
G37*
G36*
X89464779Y-108873144D02*
G01*
X89487834Y-108876563D01*
X89510443Y-108882227D01*
X89532387Y-108890079D01*
X89553457Y-108900044D01*
X89573448Y-108912026D01*
X89592168Y-108925910D01*
X89609438Y-108941562D01*
X89625090Y-108958832D01*
X89638974Y-108977552D01*
X89650956Y-108997543D01*
X89660921Y-109018613D01*
X89668773Y-109040557D01*
X89674437Y-109063166D01*
X89677856Y-109086221D01*
X89679000Y-109109500D01*
X89679000Y-109584500D01*
X89677856Y-109607779D01*
X89674437Y-109630834D01*
X89668773Y-109653443D01*
X89660921Y-109675387D01*
X89650956Y-109696457D01*
X89638974Y-109716448D01*
X89625090Y-109735168D01*
X89609438Y-109752438D01*
X89592168Y-109768090D01*
X89573448Y-109781974D01*
X89553457Y-109793956D01*
X89532387Y-109803921D01*
X89510443Y-109811773D01*
X89487834Y-109817437D01*
X89464779Y-109820856D01*
X89441500Y-109822000D01*
X88866500Y-109822000D01*
X88843221Y-109820856D01*
X88820166Y-109817437D01*
X88797557Y-109811773D01*
X88775613Y-109803921D01*
X88754543Y-109793956D01*
X88734552Y-109781974D01*
X88715832Y-109768090D01*
X88698562Y-109752438D01*
X88682910Y-109735168D01*
X88669026Y-109716448D01*
X88657044Y-109696457D01*
X88647079Y-109675387D01*
X88639227Y-109653443D01*
X88633563Y-109630834D01*
X88630144Y-109607779D01*
X88629000Y-109584500D01*
X88629000Y-109109500D01*
X88630144Y-109086221D01*
X88633563Y-109063166D01*
X88639227Y-109040557D01*
X88647079Y-109018613D01*
X88657044Y-108997543D01*
X88669026Y-108977552D01*
X88682910Y-108958832D01*
X88698562Y-108941562D01*
X88715832Y-108925910D01*
X88734552Y-108912026D01*
X88754543Y-108900044D01*
X88775613Y-108890079D01*
X88797557Y-108882227D01*
X88820166Y-108876563D01*
X88843221Y-108873144D01*
X88866500Y-108872000D01*
X89441500Y-108872000D01*
X89464779Y-108873144D01*
G37*
G36*
X87714779Y-108873144D02*
G01*
X87737834Y-108876563D01*
X87760443Y-108882227D01*
X87782387Y-108890079D01*
X87803457Y-108900044D01*
X87823448Y-108912026D01*
X87842168Y-108925910D01*
X87859438Y-108941562D01*
X87875090Y-108958832D01*
X87888974Y-108977552D01*
X87900956Y-108997543D01*
X87910921Y-109018613D01*
X87918773Y-109040557D01*
X87924437Y-109063166D01*
X87927856Y-109086221D01*
X87929000Y-109109500D01*
X87929000Y-109584500D01*
X87927856Y-109607779D01*
X87924437Y-109630834D01*
X87918773Y-109653443D01*
X87910921Y-109675387D01*
X87900956Y-109696457D01*
X87888974Y-109716448D01*
X87875090Y-109735168D01*
X87859438Y-109752438D01*
X87842168Y-109768090D01*
X87823448Y-109781974D01*
X87803457Y-109793956D01*
X87782387Y-109803921D01*
X87760443Y-109811773D01*
X87737834Y-109817437D01*
X87714779Y-109820856D01*
X87691500Y-109822000D01*
X87116500Y-109822000D01*
X87093221Y-109820856D01*
X87070166Y-109817437D01*
X87047557Y-109811773D01*
X87025613Y-109803921D01*
X87004543Y-109793956D01*
X86984552Y-109781974D01*
X86965832Y-109768090D01*
X86948562Y-109752438D01*
X86932910Y-109735168D01*
X86919026Y-109716448D01*
X86907044Y-109696457D01*
X86897079Y-109675387D01*
X86889227Y-109653443D01*
X86883563Y-109630834D01*
X86880144Y-109607779D01*
X86879000Y-109584500D01*
X86879000Y-109109500D01*
X86880144Y-109086221D01*
X86883563Y-109063166D01*
X86889227Y-109040557D01*
X86897079Y-109018613D01*
X86907044Y-108997543D01*
X86919026Y-108977552D01*
X86932910Y-108958832D01*
X86948562Y-108941562D01*
X86965832Y-108925910D01*
X86984552Y-108912026D01*
X87004543Y-108900044D01*
X87025613Y-108890079D01*
X87047557Y-108882227D01*
X87070166Y-108876563D01*
X87093221Y-108873144D01*
X87116500Y-108872000D01*
X87691500Y-108872000D01*
X87714779Y-108873144D01*
G37*
G36*
X89563779Y-105444144D02*
G01*
X89586834Y-105447563D01*
X89609443Y-105453227D01*
X89631387Y-105461079D01*
X89652457Y-105471044D01*
X89672448Y-105483026D01*
X89691168Y-105496910D01*
X89708438Y-105512562D01*
X89724090Y-105529832D01*
X89737974Y-105548552D01*
X89749956Y-105568543D01*
X89759921Y-105589613D01*
X89767773Y-105611557D01*
X89773437Y-105634166D01*
X89776856Y-105657221D01*
X89778000Y-105680500D01*
X89778000Y-106155500D01*
X89776856Y-106178779D01*
X89773437Y-106201834D01*
X89767773Y-106224443D01*
X89759921Y-106246387D01*
X89749956Y-106267457D01*
X89737974Y-106287448D01*
X89724090Y-106306168D01*
X89708438Y-106323438D01*
X89691168Y-106339090D01*
X89672448Y-106352974D01*
X89652457Y-106364956D01*
X89631387Y-106374921D01*
X89609443Y-106382773D01*
X89586834Y-106388437D01*
X89563779Y-106391856D01*
X89540500Y-106393000D01*
X88965500Y-106393000D01*
X88942221Y-106391856D01*
X88919166Y-106388437D01*
X88896557Y-106382773D01*
X88874613Y-106374921D01*
X88853543Y-106364956D01*
X88833552Y-106352974D01*
X88814832Y-106339090D01*
X88797562Y-106323438D01*
X88781910Y-106306168D01*
X88768026Y-106287448D01*
X88756044Y-106267457D01*
X88746079Y-106246387D01*
X88738227Y-106224443D01*
X88732563Y-106201834D01*
X88729144Y-106178779D01*
X88728000Y-106155500D01*
X88728000Y-105680500D01*
X88729144Y-105657221D01*
X88732563Y-105634166D01*
X88738227Y-105611557D01*
X88746079Y-105589613D01*
X88756044Y-105568543D01*
X88768026Y-105548552D01*
X88781910Y-105529832D01*
X88797562Y-105512562D01*
X88814832Y-105496910D01*
X88833552Y-105483026D01*
X88853543Y-105471044D01*
X88874613Y-105461079D01*
X88896557Y-105453227D01*
X88919166Y-105447563D01*
X88942221Y-105444144D01*
X88965500Y-105443000D01*
X89540500Y-105443000D01*
X89563779Y-105444144D01*
G37*
G36*
X87813779Y-105444144D02*
G01*
X87836834Y-105447563D01*
X87859443Y-105453227D01*
X87881387Y-105461079D01*
X87902457Y-105471044D01*
X87922448Y-105483026D01*
X87941168Y-105496910D01*
X87958438Y-105512562D01*
X87974090Y-105529832D01*
X87987974Y-105548552D01*
X87999956Y-105568543D01*
X88009921Y-105589613D01*
X88017773Y-105611557D01*
X88023437Y-105634166D01*
X88026856Y-105657221D01*
X88028000Y-105680500D01*
X88028000Y-106155500D01*
X88026856Y-106178779D01*
X88023437Y-106201834D01*
X88017773Y-106224443D01*
X88009921Y-106246387D01*
X87999956Y-106267457D01*
X87987974Y-106287448D01*
X87974090Y-106306168D01*
X87958438Y-106323438D01*
X87941168Y-106339090D01*
X87922448Y-106352974D01*
X87902457Y-106364956D01*
X87881387Y-106374921D01*
X87859443Y-106382773D01*
X87836834Y-106388437D01*
X87813779Y-106391856D01*
X87790500Y-106393000D01*
X87215500Y-106393000D01*
X87192221Y-106391856D01*
X87169166Y-106388437D01*
X87146557Y-106382773D01*
X87124613Y-106374921D01*
X87103543Y-106364956D01*
X87083552Y-106352974D01*
X87064832Y-106339090D01*
X87047562Y-106323438D01*
X87031910Y-106306168D01*
X87018026Y-106287448D01*
X87006044Y-106267457D01*
X86996079Y-106246387D01*
X86988227Y-106224443D01*
X86982563Y-106201834D01*
X86979144Y-106178779D01*
X86978000Y-106155500D01*
X86978000Y-105680500D01*
X86979144Y-105657221D01*
X86982563Y-105634166D01*
X86988227Y-105611557D01*
X86996079Y-105589613D01*
X87006044Y-105568543D01*
X87018026Y-105548552D01*
X87031910Y-105529832D01*
X87047562Y-105512562D01*
X87064832Y-105496910D01*
X87083552Y-105483026D01*
X87103543Y-105471044D01*
X87124613Y-105461079D01*
X87146557Y-105453227D01*
X87169166Y-105447563D01*
X87192221Y-105444144D01*
X87215500Y-105443000D01*
X87790500Y-105443000D01*
X87813779Y-105444144D01*
G37*
G36*
X94367779Y-94726144D02*
G01*
X94390834Y-94729563D01*
X94413443Y-94735227D01*
X94435387Y-94743079D01*
X94456457Y-94753044D01*
X94476448Y-94765026D01*
X94495168Y-94778910D01*
X94512438Y-94794562D01*
X94528090Y-94811832D01*
X94541974Y-94830552D01*
X94553956Y-94850543D01*
X94563921Y-94871613D01*
X94571773Y-94893557D01*
X94577437Y-94916166D01*
X94580856Y-94939221D01*
X94582000Y-94962500D01*
X94582000Y-95537500D01*
X94580856Y-95560779D01*
X94577437Y-95583834D01*
X94571773Y-95606443D01*
X94563921Y-95628387D01*
X94553956Y-95649457D01*
X94541974Y-95669448D01*
X94528090Y-95688168D01*
X94512438Y-95705438D01*
X94495168Y-95721090D01*
X94476448Y-95734974D01*
X94456457Y-95746956D01*
X94435387Y-95756921D01*
X94413443Y-95764773D01*
X94390834Y-95770437D01*
X94367779Y-95773856D01*
X94344500Y-95775000D01*
X93869500Y-95775000D01*
X93846221Y-95773856D01*
X93823166Y-95770437D01*
X93800557Y-95764773D01*
X93778613Y-95756921D01*
X93757543Y-95746956D01*
X93737552Y-95734974D01*
X93718832Y-95721090D01*
X93701562Y-95705438D01*
X93685910Y-95688168D01*
X93672026Y-95669448D01*
X93660044Y-95649457D01*
X93650079Y-95628387D01*
X93642227Y-95606443D01*
X93636563Y-95583834D01*
X93633144Y-95560779D01*
X93632000Y-95537500D01*
X93632000Y-94962500D01*
X93633144Y-94939221D01*
X93636563Y-94916166D01*
X93642227Y-94893557D01*
X93650079Y-94871613D01*
X93660044Y-94850543D01*
X93672026Y-94830552D01*
X93685910Y-94811832D01*
X93701562Y-94794562D01*
X93718832Y-94778910D01*
X93737552Y-94765026D01*
X93757543Y-94753044D01*
X93778613Y-94743079D01*
X93800557Y-94735227D01*
X93823166Y-94729563D01*
X93846221Y-94726144D01*
X93869500Y-94725000D01*
X94344500Y-94725000D01*
X94367779Y-94726144D01*
G37*
G36*
X94367779Y-96476144D02*
G01*
X94390834Y-96479563D01*
X94413443Y-96485227D01*
X94435387Y-96493079D01*
X94456457Y-96503044D01*
X94476448Y-96515026D01*
X94495168Y-96528910D01*
X94512438Y-96544562D01*
X94528090Y-96561832D01*
X94541974Y-96580552D01*
X94553956Y-96600543D01*
X94563921Y-96621613D01*
X94571773Y-96643557D01*
X94577437Y-96666166D01*
X94580856Y-96689221D01*
X94582000Y-96712500D01*
X94582000Y-97287500D01*
X94580856Y-97310779D01*
X94577437Y-97333834D01*
X94571773Y-97356443D01*
X94563921Y-97378387D01*
X94553956Y-97399457D01*
X94541974Y-97419448D01*
X94528090Y-97438168D01*
X94512438Y-97455438D01*
X94495168Y-97471090D01*
X94476448Y-97484974D01*
X94456457Y-97496956D01*
X94435387Y-97506921D01*
X94413443Y-97514773D01*
X94390834Y-97520437D01*
X94367779Y-97523856D01*
X94344500Y-97525000D01*
X93869500Y-97525000D01*
X93846221Y-97523856D01*
X93823166Y-97520437D01*
X93800557Y-97514773D01*
X93778613Y-97506921D01*
X93757543Y-97496956D01*
X93737552Y-97484974D01*
X93718832Y-97471090D01*
X93701562Y-97455438D01*
X93685910Y-97438168D01*
X93672026Y-97419448D01*
X93660044Y-97399457D01*
X93650079Y-97378387D01*
X93642227Y-97356443D01*
X93636563Y-97333834D01*
X93633144Y-97310779D01*
X93632000Y-97287500D01*
X93632000Y-96712500D01*
X93633144Y-96689221D01*
X93636563Y-96666166D01*
X93642227Y-96643557D01*
X93650079Y-96621613D01*
X93660044Y-96600543D01*
X93672026Y-96580552D01*
X93685910Y-96561832D01*
X93701562Y-96544562D01*
X93718832Y-96528910D01*
X93737552Y-96515026D01*
X93757543Y-96503044D01*
X93778613Y-96493079D01*
X93800557Y-96485227D01*
X93823166Y-96479563D01*
X93846221Y-96476144D01*
X93869500Y-96475000D01*
X94344500Y-96475000D01*
X94367779Y-96476144D01*
G37*
G36*
X82556779Y-83804144D02*
G01*
X82579834Y-83807563D01*
X82602443Y-83813227D01*
X82624387Y-83821079D01*
X82645457Y-83831044D01*
X82665448Y-83843026D01*
X82684168Y-83856910D01*
X82701438Y-83872562D01*
X82717090Y-83889832D01*
X82730974Y-83908552D01*
X82742956Y-83928543D01*
X82752921Y-83949613D01*
X82760773Y-83971557D01*
X82766437Y-83994166D01*
X82769856Y-84017221D01*
X82771000Y-84040500D01*
X82771000Y-84615500D01*
X82769856Y-84638779D01*
X82766437Y-84661834D01*
X82760773Y-84684443D01*
X82752921Y-84706387D01*
X82742956Y-84727457D01*
X82730974Y-84747448D01*
X82717090Y-84766168D01*
X82701438Y-84783438D01*
X82684168Y-84799090D01*
X82665448Y-84812974D01*
X82645457Y-84824956D01*
X82624387Y-84834921D01*
X82602443Y-84842773D01*
X82579834Y-84848437D01*
X82556779Y-84851856D01*
X82533500Y-84853000D01*
X82058500Y-84853000D01*
X82035221Y-84851856D01*
X82012166Y-84848437D01*
X81989557Y-84842773D01*
X81967613Y-84834921D01*
X81946543Y-84824956D01*
X81926552Y-84812974D01*
X81907832Y-84799090D01*
X81890562Y-84783438D01*
X81874910Y-84766168D01*
X81861026Y-84747448D01*
X81849044Y-84727457D01*
X81839079Y-84706387D01*
X81831227Y-84684443D01*
X81825563Y-84661834D01*
X81822144Y-84638779D01*
X81821000Y-84615500D01*
X81821000Y-84040500D01*
X81822144Y-84017221D01*
X81825563Y-83994166D01*
X81831227Y-83971557D01*
X81839079Y-83949613D01*
X81849044Y-83928543D01*
X81861026Y-83908552D01*
X81874910Y-83889832D01*
X81890562Y-83872562D01*
X81907832Y-83856910D01*
X81926552Y-83843026D01*
X81946543Y-83831044D01*
X81967613Y-83821079D01*
X81989557Y-83813227D01*
X82012166Y-83807563D01*
X82035221Y-83804144D01*
X82058500Y-83803000D01*
X82533500Y-83803000D01*
X82556779Y-83804144D01*
G37*
G36*
X82556779Y-85554144D02*
G01*
X82579834Y-85557563D01*
X82602443Y-85563227D01*
X82624387Y-85571079D01*
X82645457Y-85581044D01*
X82665448Y-85593026D01*
X82684168Y-85606910D01*
X82701438Y-85622562D01*
X82717090Y-85639832D01*
X82730974Y-85658552D01*
X82742956Y-85678543D01*
X82752921Y-85699613D01*
X82760773Y-85721557D01*
X82766437Y-85744166D01*
X82769856Y-85767221D01*
X82771000Y-85790500D01*
X82771000Y-86365500D01*
X82769856Y-86388779D01*
X82766437Y-86411834D01*
X82760773Y-86434443D01*
X82752921Y-86456387D01*
X82742956Y-86477457D01*
X82730974Y-86497448D01*
X82717090Y-86516168D01*
X82701438Y-86533438D01*
X82684168Y-86549090D01*
X82665448Y-86562974D01*
X82645457Y-86574956D01*
X82624387Y-86584921D01*
X82602443Y-86592773D01*
X82579834Y-86598437D01*
X82556779Y-86601856D01*
X82533500Y-86603000D01*
X82058500Y-86603000D01*
X82035221Y-86601856D01*
X82012166Y-86598437D01*
X81989557Y-86592773D01*
X81967613Y-86584921D01*
X81946543Y-86574956D01*
X81926552Y-86562974D01*
X81907832Y-86549090D01*
X81890562Y-86533438D01*
X81874910Y-86516168D01*
X81861026Y-86497448D01*
X81849044Y-86477457D01*
X81839079Y-86456387D01*
X81831227Y-86434443D01*
X81825563Y-86411834D01*
X81822144Y-86388779D01*
X81821000Y-86365500D01*
X81821000Y-85790500D01*
X81822144Y-85767221D01*
X81825563Y-85744166D01*
X81831227Y-85721557D01*
X81839079Y-85699613D01*
X81849044Y-85678543D01*
X81861026Y-85658552D01*
X81874910Y-85639832D01*
X81890562Y-85622562D01*
X81907832Y-85606910D01*
X81926552Y-85593026D01*
X81946543Y-85581044D01*
X81967613Y-85571079D01*
X81989557Y-85563227D01*
X82012166Y-85557563D01*
X82035221Y-85554144D01*
X82058500Y-85553000D01*
X82533500Y-85553000D01*
X82556779Y-85554144D01*
G37*
G36*
X99905779Y-107569644D02*
G01*
X99928834Y-107573063D01*
X99951443Y-107578727D01*
X99973387Y-107586579D01*
X99994457Y-107596544D01*
X100014448Y-107608526D01*
X100033168Y-107622410D01*
X100050438Y-107638062D01*
X100066090Y-107655332D01*
X100079974Y-107674052D01*
X100091956Y-107694043D01*
X100101921Y-107715113D01*
X100109773Y-107737057D01*
X100115437Y-107759666D01*
X100118856Y-107782721D01*
X100120000Y-107806000D01*
X100120000Y-108381000D01*
X100118856Y-108404279D01*
X100115437Y-108427334D01*
X100109773Y-108449943D01*
X100101921Y-108471887D01*
X100091956Y-108492957D01*
X100079974Y-108512948D01*
X100066090Y-108531668D01*
X100050438Y-108548938D01*
X100033168Y-108564590D01*
X100014448Y-108578474D01*
X99994457Y-108590456D01*
X99973387Y-108600421D01*
X99951443Y-108608273D01*
X99928834Y-108613937D01*
X99905779Y-108617356D01*
X99882500Y-108618500D01*
X99407500Y-108618500D01*
X99384221Y-108617356D01*
X99361166Y-108613937D01*
X99338557Y-108608273D01*
X99316613Y-108600421D01*
X99295543Y-108590456D01*
X99275552Y-108578474D01*
X99256832Y-108564590D01*
X99239562Y-108548938D01*
X99223910Y-108531668D01*
X99210026Y-108512948D01*
X99198044Y-108492957D01*
X99188079Y-108471887D01*
X99180227Y-108449943D01*
X99174563Y-108427334D01*
X99171144Y-108404279D01*
X99170000Y-108381000D01*
X99170000Y-107806000D01*
X99171144Y-107782721D01*
X99174563Y-107759666D01*
X99180227Y-107737057D01*
X99188079Y-107715113D01*
X99198044Y-107694043D01*
X99210026Y-107674052D01*
X99223910Y-107655332D01*
X99239562Y-107638062D01*
X99256832Y-107622410D01*
X99275552Y-107608526D01*
X99295543Y-107596544D01*
X99316613Y-107586579D01*
X99338557Y-107578727D01*
X99361166Y-107573063D01*
X99384221Y-107569644D01*
X99407500Y-107568500D01*
X99882500Y-107568500D01*
X99905779Y-107569644D01*
G37*
G36*
X99905779Y-105819644D02*
G01*
X99928834Y-105823063D01*
X99951443Y-105828727D01*
X99973387Y-105836579D01*
X99994457Y-105846544D01*
X100014448Y-105858526D01*
X100033168Y-105872410D01*
X100050438Y-105888062D01*
X100066090Y-105905332D01*
X100079974Y-105924052D01*
X100091956Y-105944043D01*
X100101921Y-105965113D01*
X100109773Y-105987057D01*
X100115437Y-106009666D01*
X100118856Y-106032721D01*
X100120000Y-106056000D01*
X100120000Y-106631000D01*
X100118856Y-106654279D01*
X100115437Y-106677334D01*
X100109773Y-106699943D01*
X100101921Y-106721887D01*
X100091956Y-106742957D01*
X100079974Y-106762948D01*
X100066090Y-106781668D01*
X100050438Y-106798938D01*
X100033168Y-106814590D01*
X100014448Y-106828474D01*
X99994457Y-106840456D01*
X99973387Y-106850421D01*
X99951443Y-106858273D01*
X99928834Y-106863937D01*
X99905779Y-106867356D01*
X99882500Y-106868500D01*
X99407500Y-106868500D01*
X99384221Y-106867356D01*
X99361166Y-106863937D01*
X99338557Y-106858273D01*
X99316613Y-106850421D01*
X99295543Y-106840456D01*
X99275552Y-106828474D01*
X99256832Y-106814590D01*
X99239562Y-106798938D01*
X99223910Y-106781668D01*
X99210026Y-106762948D01*
X99198044Y-106742957D01*
X99188079Y-106721887D01*
X99180227Y-106699943D01*
X99174563Y-106677334D01*
X99171144Y-106654279D01*
X99170000Y-106631000D01*
X99170000Y-106056000D01*
X99171144Y-106032721D01*
X99174563Y-106009666D01*
X99180227Y-105987057D01*
X99188079Y-105965113D01*
X99198044Y-105944043D01*
X99210026Y-105924052D01*
X99223910Y-105905332D01*
X99239562Y-105888062D01*
X99256832Y-105872410D01*
X99275552Y-105858526D01*
X99295543Y-105846544D01*
X99316613Y-105836579D01*
X99338557Y-105828727D01*
X99361166Y-105823063D01*
X99384221Y-105819644D01*
X99407500Y-105818500D01*
X99882500Y-105818500D01*
X99905779Y-105819644D01*
G37*
G36*
X75698779Y-86203144D02*
G01*
X75721834Y-86206563D01*
X75744443Y-86212227D01*
X75766387Y-86220079D01*
X75787457Y-86230044D01*
X75807448Y-86242026D01*
X75826168Y-86255910D01*
X75843438Y-86271562D01*
X75859090Y-86288832D01*
X75872974Y-86307552D01*
X75884956Y-86327543D01*
X75894921Y-86348613D01*
X75902773Y-86370557D01*
X75908437Y-86393166D01*
X75911856Y-86416221D01*
X75913000Y-86439500D01*
X75913000Y-87014500D01*
X75911856Y-87037779D01*
X75908437Y-87060834D01*
X75902773Y-87083443D01*
X75894921Y-87105387D01*
X75884956Y-87126457D01*
X75872974Y-87146448D01*
X75859090Y-87165168D01*
X75843438Y-87182438D01*
X75826168Y-87198090D01*
X75807448Y-87211974D01*
X75787457Y-87223956D01*
X75766387Y-87233921D01*
X75744443Y-87241773D01*
X75721834Y-87247437D01*
X75698779Y-87250856D01*
X75675500Y-87252000D01*
X75200500Y-87252000D01*
X75177221Y-87250856D01*
X75154166Y-87247437D01*
X75131557Y-87241773D01*
X75109613Y-87233921D01*
X75088543Y-87223956D01*
X75068552Y-87211974D01*
X75049832Y-87198090D01*
X75032562Y-87182438D01*
X75016910Y-87165168D01*
X75003026Y-87146448D01*
X74991044Y-87126457D01*
X74981079Y-87105387D01*
X74973227Y-87083443D01*
X74967563Y-87060834D01*
X74964144Y-87037779D01*
X74963000Y-87014500D01*
X74963000Y-86439500D01*
X74964144Y-86416221D01*
X74967563Y-86393166D01*
X74973227Y-86370557D01*
X74981079Y-86348613D01*
X74991044Y-86327543D01*
X75003026Y-86307552D01*
X75016910Y-86288832D01*
X75032562Y-86271562D01*
X75049832Y-86255910D01*
X75068552Y-86242026D01*
X75088543Y-86230044D01*
X75109613Y-86220079D01*
X75131557Y-86212227D01*
X75154166Y-86206563D01*
X75177221Y-86203144D01*
X75200500Y-86202000D01*
X75675500Y-86202000D01*
X75698779Y-86203144D01*
G37*
G36*
X75698779Y-84453144D02*
G01*
X75721834Y-84456563D01*
X75744443Y-84462227D01*
X75766387Y-84470079D01*
X75787457Y-84480044D01*
X75807448Y-84492026D01*
X75826168Y-84505910D01*
X75843438Y-84521562D01*
X75859090Y-84538832D01*
X75872974Y-84557552D01*
X75884956Y-84577543D01*
X75894921Y-84598613D01*
X75902773Y-84620557D01*
X75908437Y-84643166D01*
X75911856Y-84666221D01*
X75913000Y-84689500D01*
X75913000Y-85264500D01*
X75911856Y-85287779D01*
X75908437Y-85310834D01*
X75902773Y-85333443D01*
X75894921Y-85355387D01*
X75884956Y-85376457D01*
X75872974Y-85396448D01*
X75859090Y-85415168D01*
X75843438Y-85432438D01*
X75826168Y-85448090D01*
X75807448Y-85461974D01*
X75787457Y-85473956D01*
X75766387Y-85483921D01*
X75744443Y-85491773D01*
X75721834Y-85497437D01*
X75698779Y-85500856D01*
X75675500Y-85502000D01*
X75200500Y-85502000D01*
X75177221Y-85500856D01*
X75154166Y-85497437D01*
X75131557Y-85491773D01*
X75109613Y-85483921D01*
X75088543Y-85473956D01*
X75068552Y-85461974D01*
X75049832Y-85448090D01*
X75032562Y-85432438D01*
X75016910Y-85415168D01*
X75003026Y-85396448D01*
X74991044Y-85376457D01*
X74981079Y-85355387D01*
X74973227Y-85333443D01*
X74967563Y-85310834D01*
X74964144Y-85287779D01*
X74963000Y-85264500D01*
X74963000Y-84689500D01*
X74964144Y-84666221D01*
X74967563Y-84643166D01*
X74973227Y-84620557D01*
X74981079Y-84598613D01*
X74991044Y-84577543D01*
X75003026Y-84557552D01*
X75016910Y-84538832D01*
X75032562Y-84521562D01*
X75049832Y-84505910D01*
X75068552Y-84492026D01*
X75088543Y-84480044D01*
X75109613Y-84470079D01*
X75131557Y-84462227D01*
X75154166Y-84456563D01*
X75177221Y-84453144D01*
X75200500Y-84452000D01*
X75675500Y-84452000D01*
X75698779Y-84453144D01*
G37*
G36*
X97619779Y-107569644D02*
G01*
X97642834Y-107573063D01*
X97665443Y-107578727D01*
X97687387Y-107586579D01*
X97708457Y-107596544D01*
X97728448Y-107608526D01*
X97747168Y-107622410D01*
X97764438Y-107638062D01*
X97780090Y-107655332D01*
X97793974Y-107674052D01*
X97805956Y-107694043D01*
X97815921Y-107715113D01*
X97823773Y-107737057D01*
X97829437Y-107759666D01*
X97832856Y-107782721D01*
X97834000Y-107806000D01*
X97834000Y-108381000D01*
X97832856Y-108404279D01*
X97829437Y-108427334D01*
X97823773Y-108449943D01*
X97815921Y-108471887D01*
X97805956Y-108492957D01*
X97793974Y-108512948D01*
X97780090Y-108531668D01*
X97764438Y-108548938D01*
X97747168Y-108564590D01*
X97728448Y-108578474D01*
X97708457Y-108590456D01*
X97687387Y-108600421D01*
X97665443Y-108608273D01*
X97642834Y-108613937D01*
X97619779Y-108617356D01*
X97596500Y-108618500D01*
X97121500Y-108618500D01*
X97098221Y-108617356D01*
X97075166Y-108613937D01*
X97052557Y-108608273D01*
X97030613Y-108600421D01*
X97009543Y-108590456D01*
X96989552Y-108578474D01*
X96970832Y-108564590D01*
X96953562Y-108548938D01*
X96937910Y-108531668D01*
X96924026Y-108512948D01*
X96912044Y-108492957D01*
X96902079Y-108471887D01*
X96894227Y-108449943D01*
X96888563Y-108427334D01*
X96885144Y-108404279D01*
X96884000Y-108381000D01*
X96884000Y-107806000D01*
X96885144Y-107782721D01*
X96888563Y-107759666D01*
X96894227Y-107737057D01*
X96902079Y-107715113D01*
X96912044Y-107694043D01*
X96924026Y-107674052D01*
X96937910Y-107655332D01*
X96953562Y-107638062D01*
X96970832Y-107622410D01*
X96989552Y-107608526D01*
X97009543Y-107596544D01*
X97030613Y-107586579D01*
X97052557Y-107578727D01*
X97075166Y-107573063D01*
X97098221Y-107569644D01*
X97121500Y-107568500D01*
X97596500Y-107568500D01*
X97619779Y-107569644D01*
G37*
G36*
X97619779Y-105819644D02*
G01*
X97642834Y-105823063D01*
X97665443Y-105828727D01*
X97687387Y-105836579D01*
X97708457Y-105846544D01*
X97728448Y-105858526D01*
X97747168Y-105872410D01*
X97764438Y-105888062D01*
X97780090Y-105905332D01*
X97793974Y-105924052D01*
X97805956Y-105944043D01*
X97815921Y-105965113D01*
X97823773Y-105987057D01*
X97829437Y-106009666D01*
X97832856Y-106032721D01*
X97834000Y-106056000D01*
X97834000Y-106631000D01*
X97832856Y-106654279D01*
X97829437Y-106677334D01*
X97823773Y-106699943D01*
X97815921Y-106721887D01*
X97805956Y-106742957D01*
X97793974Y-106762948D01*
X97780090Y-106781668D01*
X97764438Y-106798938D01*
X97747168Y-106814590D01*
X97728448Y-106828474D01*
X97708457Y-106840456D01*
X97687387Y-106850421D01*
X97665443Y-106858273D01*
X97642834Y-106863937D01*
X97619779Y-106867356D01*
X97596500Y-106868500D01*
X97121500Y-106868500D01*
X97098221Y-106867356D01*
X97075166Y-106863937D01*
X97052557Y-106858273D01*
X97030613Y-106850421D01*
X97009543Y-106840456D01*
X96989552Y-106828474D01*
X96970832Y-106814590D01*
X96953562Y-106798938D01*
X96937910Y-106781668D01*
X96924026Y-106762948D01*
X96912044Y-106742957D01*
X96902079Y-106721887D01*
X96894227Y-106699943D01*
X96888563Y-106677334D01*
X96885144Y-106654279D01*
X96884000Y-106631000D01*
X96884000Y-106056000D01*
X96885144Y-106032721D01*
X96888563Y-106009666D01*
X96894227Y-105987057D01*
X96902079Y-105965113D01*
X96912044Y-105944043D01*
X96924026Y-105924052D01*
X96937910Y-105905332D01*
X96953562Y-105888062D01*
X96970832Y-105872410D01*
X96989552Y-105858526D01*
X97009543Y-105846544D01*
X97030613Y-105836579D01*
X97052557Y-105828727D01*
X97075166Y-105823063D01*
X97098221Y-105819644D01*
X97121500Y-105818500D01*
X97596500Y-105818500D01*
X97619779Y-105819644D01*
G37*
G36*
X99955779Y-74688144D02*
G01*
X99978834Y-74691563D01*
X100001443Y-74697227D01*
X100023387Y-74705079D01*
X100044457Y-74715044D01*
X100064448Y-74727026D01*
X100083168Y-74740910D01*
X100100438Y-74756562D01*
X100116090Y-74773832D01*
X100129974Y-74792552D01*
X100141956Y-74812543D01*
X100151921Y-74833613D01*
X100159773Y-74855557D01*
X100165437Y-74878166D01*
X100168856Y-74901221D01*
X100170000Y-74924500D01*
X100170000Y-75499500D01*
X100168856Y-75522779D01*
X100165437Y-75545834D01*
X100159773Y-75568443D01*
X100151921Y-75590387D01*
X100141956Y-75611457D01*
X100129974Y-75631448D01*
X100116090Y-75650168D01*
X100100438Y-75667438D01*
X100083168Y-75683090D01*
X100064448Y-75696974D01*
X100044457Y-75708956D01*
X100023387Y-75718921D01*
X100001443Y-75726773D01*
X99978834Y-75732437D01*
X99955779Y-75735856D01*
X99932500Y-75737000D01*
X99457500Y-75737000D01*
X99434221Y-75735856D01*
X99411166Y-75732437D01*
X99388557Y-75726773D01*
X99366613Y-75718921D01*
X99345543Y-75708956D01*
X99325552Y-75696974D01*
X99306832Y-75683090D01*
X99289562Y-75667438D01*
X99273910Y-75650168D01*
X99260026Y-75631448D01*
X99248044Y-75611457D01*
X99238079Y-75590387D01*
X99230227Y-75568443D01*
X99224563Y-75545834D01*
X99221144Y-75522779D01*
X99220000Y-75499500D01*
X99220000Y-74924500D01*
X99221144Y-74901221D01*
X99224563Y-74878166D01*
X99230227Y-74855557D01*
X99238079Y-74833613D01*
X99248044Y-74812543D01*
X99260026Y-74792552D01*
X99273910Y-74773832D01*
X99289562Y-74756562D01*
X99306832Y-74740910D01*
X99325552Y-74727026D01*
X99345543Y-74715044D01*
X99366613Y-74705079D01*
X99388557Y-74697227D01*
X99411166Y-74691563D01*
X99434221Y-74688144D01*
X99457500Y-74687000D01*
X99932500Y-74687000D01*
X99955779Y-74688144D01*
G37*
G36*
X99955779Y-76438144D02*
G01*
X99978834Y-76441563D01*
X100001443Y-76447227D01*
X100023387Y-76455079D01*
X100044457Y-76465044D01*
X100064448Y-76477026D01*
X100083168Y-76490910D01*
X100100438Y-76506562D01*
X100116090Y-76523832D01*
X100129974Y-76542552D01*
X100141956Y-76562543D01*
X100151921Y-76583613D01*
X100159773Y-76605557D01*
X100165437Y-76628166D01*
X100168856Y-76651221D01*
X100170000Y-76674500D01*
X100170000Y-77249500D01*
X100168856Y-77272779D01*
X100165437Y-77295834D01*
X100159773Y-77318443D01*
X100151921Y-77340387D01*
X100141956Y-77361457D01*
X100129974Y-77381448D01*
X100116090Y-77400168D01*
X100100438Y-77417438D01*
X100083168Y-77433090D01*
X100064448Y-77446974D01*
X100044457Y-77458956D01*
X100023387Y-77468921D01*
X100001443Y-77476773D01*
X99978834Y-77482437D01*
X99955779Y-77485856D01*
X99932500Y-77487000D01*
X99457500Y-77487000D01*
X99434221Y-77485856D01*
X99411166Y-77482437D01*
X99388557Y-77476773D01*
X99366613Y-77468921D01*
X99345543Y-77458956D01*
X99325552Y-77446974D01*
X99306832Y-77433090D01*
X99289562Y-77417438D01*
X99273910Y-77400168D01*
X99260026Y-77381448D01*
X99248044Y-77361457D01*
X99238079Y-77340387D01*
X99230227Y-77318443D01*
X99224563Y-77295834D01*
X99221144Y-77272779D01*
X99220000Y-77249500D01*
X99220000Y-76674500D01*
X99221144Y-76651221D01*
X99224563Y-76628166D01*
X99230227Y-76605557D01*
X99238079Y-76583613D01*
X99248044Y-76562543D01*
X99260026Y-76542552D01*
X99273910Y-76523832D01*
X99289562Y-76506562D01*
X99306832Y-76490910D01*
X99325552Y-76477026D01*
X99345543Y-76465044D01*
X99366613Y-76455079D01*
X99388557Y-76447227D01*
X99411166Y-76441563D01*
X99434221Y-76438144D01*
X99457500Y-76437000D01*
X99932500Y-76437000D01*
X99955779Y-76438144D01*
G37*
G36*
X99651779Y-103138644D02*
G01*
X99674834Y-103142063D01*
X99697443Y-103147727D01*
X99719387Y-103155579D01*
X99740457Y-103165544D01*
X99760448Y-103177526D01*
X99779168Y-103191410D01*
X99796438Y-103207062D01*
X99812090Y-103224332D01*
X99825974Y-103243052D01*
X99837956Y-103263043D01*
X99847921Y-103284113D01*
X99855773Y-103306057D01*
X99861437Y-103328666D01*
X99864856Y-103351721D01*
X99866000Y-103375000D01*
X99866000Y-103950000D01*
X99864856Y-103973279D01*
X99861437Y-103996334D01*
X99855773Y-104018943D01*
X99847921Y-104040887D01*
X99837956Y-104061957D01*
X99825974Y-104081948D01*
X99812090Y-104100668D01*
X99796438Y-104117938D01*
X99779168Y-104133590D01*
X99760448Y-104147474D01*
X99740457Y-104159456D01*
X99719387Y-104169421D01*
X99697443Y-104177273D01*
X99674834Y-104182937D01*
X99651779Y-104186356D01*
X99628500Y-104187500D01*
X99153500Y-104187500D01*
X99130221Y-104186356D01*
X99107166Y-104182937D01*
X99084557Y-104177273D01*
X99062613Y-104169421D01*
X99041543Y-104159456D01*
X99021552Y-104147474D01*
X99002832Y-104133590D01*
X98985562Y-104117938D01*
X98969910Y-104100668D01*
X98956026Y-104081948D01*
X98944044Y-104061957D01*
X98934079Y-104040887D01*
X98926227Y-104018943D01*
X98920563Y-103996334D01*
X98917144Y-103973279D01*
X98916000Y-103950000D01*
X98916000Y-103375000D01*
X98917144Y-103351721D01*
X98920563Y-103328666D01*
X98926227Y-103306057D01*
X98934079Y-103284113D01*
X98944044Y-103263043D01*
X98956026Y-103243052D01*
X98969910Y-103224332D01*
X98985562Y-103207062D01*
X99002832Y-103191410D01*
X99021552Y-103177526D01*
X99041543Y-103165544D01*
X99062613Y-103155579D01*
X99084557Y-103147727D01*
X99107166Y-103142063D01*
X99130221Y-103138644D01*
X99153500Y-103137500D01*
X99628500Y-103137500D01*
X99651779Y-103138644D01*
G37*
G36*
X99651779Y-101388644D02*
G01*
X99674834Y-101392063D01*
X99697443Y-101397727D01*
X99719387Y-101405579D01*
X99740457Y-101415544D01*
X99760448Y-101427526D01*
X99779168Y-101441410D01*
X99796438Y-101457062D01*
X99812090Y-101474332D01*
X99825974Y-101493052D01*
X99837956Y-101513043D01*
X99847921Y-101534113D01*
X99855773Y-101556057D01*
X99861437Y-101578666D01*
X99864856Y-101601721D01*
X99866000Y-101625000D01*
X99866000Y-102200000D01*
X99864856Y-102223279D01*
X99861437Y-102246334D01*
X99855773Y-102268943D01*
X99847921Y-102290887D01*
X99837956Y-102311957D01*
X99825974Y-102331948D01*
X99812090Y-102350668D01*
X99796438Y-102367938D01*
X99779168Y-102383590D01*
X99760448Y-102397474D01*
X99740457Y-102409456D01*
X99719387Y-102419421D01*
X99697443Y-102427273D01*
X99674834Y-102432937D01*
X99651779Y-102436356D01*
X99628500Y-102437500D01*
X99153500Y-102437500D01*
X99130221Y-102436356D01*
X99107166Y-102432937D01*
X99084557Y-102427273D01*
X99062613Y-102419421D01*
X99041543Y-102409456D01*
X99021552Y-102397474D01*
X99002832Y-102383590D01*
X98985562Y-102367938D01*
X98969910Y-102350668D01*
X98956026Y-102331948D01*
X98944044Y-102311957D01*
X98934079Y-102290887D01*
X98926227Y-102268943D01*
X98920563Y-102246334D01*
X98917144Y-102223279D01*
X98916000Y-102200000D01*
X98916000Y-101625000D01*
X98917144Y-101601721D01*
X98920563Y-101578666D01*
X98926227Y-101556057D01*
X98934079Y-101534113D01*
X98944044Y-101513043D01*
X98956026Y-101493052D01*
X98969910Y-101474332D01*
X98985562Y-101457062D01*
X99002832Y-101441410D01*
X99021552Y-101427526D01*
X99041543Y-101415544D01*
X99062613Y-101405579D01*
X99084557Y-101397727D01*
X99107166Y-101392063D01*
X99130221Y-101388644D01*
X99153500Y-101387500D01*
X99628500Y-101387500D01*
X99651779Y-101388644D01*
G37*
G36*
X106763779Y-105819644D02*
G01*
X106786834Y-105823063D01*
X106809443Y-105828727D01*
X106831387Y-105836579D01*
X106852457Y-105846544D01*
X106872448Y-105858526D01*
X106891168Y-105872410D01*
X106908438Y-105888062D01*
X106924090Y-105905332D01*
X106937974Y-105924052D01*
X106949956Y-105944043D01*
X106959921Y-105965113D01*
X106967773Y-105987057D01*
X106973437Y-106009666D01*
X106976856Y-106032721D01*
X106978000Y-106056000D01*
X106978000Y-106631000D01*
X106976856Y-106654279D01*
X106973437Y-106677334D01*
X106967773Y-106699943D01*
X106959921Y-106721887D01*
X106949956Y-106742957D01*
X106937974Y-106762948D01*
X106924090Y-106781668D01*
X106908438Y-106798938D01*
X106891168Y-106814590D01*
X106872448Y-106828474D01*
X106852457Y-106840456D01*
X106831387Y-106850421D01*
X106809443Y-106858273D01*
X106786834Y-106863937D01*
X106763779Y-106867356D01*
X106740500Y-106868500D01*
X106265500Y-106868500D01*
X106242221Y-106867356D01*
X106219166Y-106863937D01*
X106196557Y-106858273D01*
X106174613Y-106850421D01*
X106153543Y-106840456D01*
X106133552Y-106828474D01*
X106114832Y-106814590D01*
X106097562Y-106798938D01*
X106081910Y-106781668D01*
X106068026Y-106762948D01*
X106056044Y-106742957D01*
X106046079Y-106721887D01*
X106038227Y-106699943D01*
X106032563Y-106677334D01*
X106029144Y-106654279D01*
X106028000Y-106631000D01*
X106028000Y-106056000D01*
X106029144Y-106032721D01*
X106032563Y-106009666D01*
X106038227Y-105987057D01*
X106046079Y-105965113D01*
X106056044Y-105944043D01*
X106068026Y-105924052D01*
X106081910Y-105905332D01*
X106097562Y-105888062D01*
X106114832Y-105872410D01*
X106133552Y-105858526D01*
X106153543Y-105846544D01*
X106174613Y-105836579D01*
X106196557Y-105828727D01*
X106219166Y-105823063D01*
X106242221Y-105819644D01*
X106265500Y-105818500D01*
X106740500Y-105818500D01*
X106763779Y-105819644D01*
G37*
G36*
X106763779Y-107569644D02*
G01*
X106786834Y-107573063D01*
X106809443Y-107578727D01*
X106831387Y-107586579D01*
X106852457Y-107596544D01*
X106872448Y-107608526D01*
X106891168Y-107622410D01*
X106908438Y-107638062D01*
X106924090Y-107655332D01*
X106937974Y-107674052D01*
X106949956Y-107694043D01*
X106959921Y-107715113D01*
X106967773Y-107737057D01*
X106973437Y-107759666D01*
X106976856Y-107782721D01*
X106978000Y-107806000D01*
X106978000Y-108381000D01*
X106976856Y-108404279D01*
X106973437Y-108427334D01*
X106967773Y-108449943D01*
X106959921Y-108471887D01*
X106949956Y-108492957D01*
X106937974Y-108512948D01*
X106924090Y-108531668D01*
X106908438Y-108548938D01*
X106891168Y-108564590D01*
X106872448Y-108578474D01*
X106852457Y-108590456D01*
X106831387Y-108600421D01*
X106809443Y-108608273D01*
X106786834Y-108613937D01*
X106763779Y-108617356D01*
X106740500Y-108618500D01*
X106265500Y-108618500D01*
X106242221Y-108617356D01*
X106219166Y-108613937D01*
X106196557Y-108608273D01*
X106174613Y-108600421D01*
X106153543Y-108590456D01*
X106133552Y-108578474D01*
X106114832Y-108564590D01*
X106097562Y-108548938D01*
X106081910Y-108531668D01*
X106068026Y-108512948D01*
X106056044Y-108492957D01*
X106046079Y-108471887D01*
X106038227Y-108449943D01*
X106032563Y-108427334D01*
X106029144Y-108404279D01*
X106028000Y-108381000D01*
X106028000Y-107806000D01*
X106029144Y-107782721D01*
X106032563Y-107759666D01*
X106038227Y-107737057D01*
X106046079Y-107715113D01*
X106056044Y-107694043D01*
X106068026Y-107674052D01*
X106081910Y-107655332D01*
X106097562Y-107638062D01*
X106114832Y-107622410D01*
X106133552Y-107608526D01*
X106153543Y-107596544D01*
X106174613Y-107586579D01*
X106196557Y-107578727D01*
X106219166Y-107573063D01*
X106242221Y-107569644D01*
X106265500Y-107568500D01*
X106740500Y-107568500D01*
X106763779Y-107569644D01*
G37*
G36*
X101479779Y-76424144D02*
G01*
X101502834Y-76427563D01*
X101525443Y-76433227D01*
X101547387Y-76441079D01*
X101568457Y-76451044D01*
X101588448Y-76463026D01*
X101607168Y-76476910D01*
X101624438Y-76492562D01*
X101640090Y-76509832D01*
X101653974Y-76528552D01*
X101665956Y-76548543D01*
X101675921Y-76569613D01*
X101683773Y-76591557D01*
X101689437Y-76614166D01*
X101692856Y-76637221D01*
X101694000Y-76660500D01*
X101694000Y-77235500D01*
X101692856Y-77258779D01*
X101689437Y-77281834D01*
X101683773Y-77304443D01*
X101675921Y-77326387D01*
X101665956Y-77347457D01*
X101653974Y-77367448D01*
X101640090Y-77386168D01*
X101624438Y-77403438D01*
X101607168Y-77419090D01*
X101588448Y-77432974D01*
X101568457Y-77444956D01*
X101547387Y-77454921D01*
X101525443Y-77462773D01*
X101502834Y-77468437D01*
X101479779Y-77471856D01*
X101456500Y-77473000D01*
X100981500Y-77473000D01*
X100958221Y-77471856D01*
X100935166Y-77468437D01*
X100912557Y-77462773D01*
X100890613Y-77454921D01*
X100869543Y-77444956D01*
X100849552Y-77432974D01*
X100830832Y-77419090D01*
X100813562Y-77403438D01*
X100797910Y-77386168D01*
X100784026Y-77367448D01*
X100772044Y-77347457D01*
X100762079Y-77326387D01*
X100754227Y-77304443D01*
X100748563Y-77281834D01*
X100745144Y-77258779D01*
X100744000Y-77235500D01*
X100744000Y-76660500D01*
X100745144Y-76637221D01*
X100748563Y-76614166D01*
X100754227Y-76591557D01*
X100762079Y-76569613D01*
X100772044Y-76548543D01*
X100784026Y-76528552D01*
X100797910Y-76509832D01*
X100813562Y-76492562D01*
X100830832Y-76476910D01*
X100849552Y-76463026D01*
X100869543Y-76451044D01*
X100890613Y-76441079D01*
X100912557Y-76433227D01*
X100935166Y-76427563D01*
X100958221Y-76424144D01*
X100981500Y-76423000D01*
X101456500Y-76423000D01*
X101479779Y-76424144D01*
G37*
G36*
X101479779Y-74674144D02*
G01*
X101502834Y-74677563D01*
X101525443Y-74683227D01*
X101547387Y-74691079D01*
X101568457Y-74701044D01*
X101588448Y-74713026D01*
X101607168Y-74726910D01*
X101624438Y-74742562D01*
X101640090Y-74759832D01*
X101653974Y-74778552D01*
X101665956Y-74798543D01*
X101675921Y-74819613D01*
X101683773Y-74841557D01*
X101689437Y-74864166D01*
X101692856Y-74887221D01*
X101694000Y-74910500D01*
X101694000Y-75485500D01*
X101692856Y-75508779D01*
X101689437Y-75531834D01*
X101683773Y-75554443D01*
X101675921Y-75576387D01*
X101665956Y-75597457D01*
X101653974Y-75617448D01*
X101640090Y-75636168D01*
X101624438Y-75653438D01*
X101607168Y-75669090D01*
X101588448Y-75682974D01*
X101568457Y-75694956D01*
X101547387Y-75704921D01*
X101525443Y-75712773D01*
X101502834Y-75718437D01*
X101479779Y-75721856D01*
X101456500Y-75723000D01*
X100981500Y-75723000D01*
X100958221Y-75721856D01*
X100935166Y-75718437D01*
X100912557Y-75712773D01*
X100890613Y-75704921D01*
X100869543Y-75694956D01*
X100849552Y-75682974D01*
X100830832Y-75669090D01*
X100813562Y-75653438D01*
X100797910Y-75636168D01*
X100784026Y-75617448D01*
X100772044Y-75597457D01*
X100762079Y-75576387D01*
X100754227Y-75554443D01*
X100748563Y-75531834D01*
X100745144Y-75508779D01*
X100744000Y-75485500D01*
X100744000Y-74910500D01*
X100745144Y-74887221D01*
X100748563Y-74864166D01*
X100754227Y-74841557D01*
X100762079Y-74819613D01*
X100772044Y-74798543D01*
X100784026Y-74778552D01*
X100797910Y-74759832D01*
X100813562Y-74742562D01*
X100830832Y-74726910D01*
X100849552Y-74713026D01*
X100869543Y-74701044D01*
X100890613Y-74691079D01*
X100912557Y-74683227D01*
X100935166Y-74677563D01*
X100958221Y-74674144D01*
X100981500Y-74673000D01*
X101456500Y-74673000D01*
X101479779Y-74674144D01*
G37*
G36*
X99955779Y-78103144D02*
G01*
X99978834Y-78106563D01*
X100001443Y-78112227D01*
X100023387Y-78120079D01*
X100044457Y-78130044D01*
X100064448Y-78142026D01*
X100083168Y-78155910D01*
X100100438Y-78171562D01*
X100116090Y-78188832D01*
X100129974Y-78207552D01*
X100141956Y-78227543D01*
X100151921Y-78248613D01*
X100159773Y-78270557D01*
X100165437Y-78293166D01*
X100168856Y-78316221D01*
X100170000Y-78339500D01*
X100170000Y-78914500D01*
X100168856Y-78937779D01*
X100165437Y-78960834D01*
X100159773Y-78983443D01*
X100151921Y-79005387D01*
X100141956Y-79026457D01*
X100129974Y-79046448D01*
X100116090Y-79065168D01*
X100100438Y-79082438D01*
X100083168Y-79098090D01*
X100064448Y-79111974D01*
X100044457Y-79123956D01*
X100023387Y-79133921D01*
X100001443Y-79141773D01*
X99978834Y-79147437D01*
X99955779Y-79150856D01*
X99932500Y-79152000D01*
X99457500Y-79152000D01*
X99434221Y-79150856D01*
X99411166Y-79147437D01*
X99388557Y-79141773D01*
X99366613Y-79133921D01*
X99345543Y-79123956D01*
X99325552Y-79111974D01*
X99306832Y-79098090D01*
X99289562Y-79082438D01*
X99273910Y-79065168D01*
X99260026Y-79046448D01*
X99248044Y-79026457D01*
X99238079Y-79005387D01*
X99230227Y-78983443D01*
X99224563Y-78960834D01*
X99221144Y-78937779D01*
X99220000Y-78914500D01*
X99220000Y-78339500D01*
X99221144Y-78316221D01*
X99224563Y-78293166D01*
X99230227Y-78270557D01*
X99238079Y-78248613D01*
X99248044Y-78227543D01*
X99260026Y-78207552D01*
X99273910Y-78188832D01*
X99289562Y-78171562D01*
X99306832Y-78155910D01*
X99325552Y-78142026D01*
X99345543Y-78130044D01*
X99366613Y-78120079D01*
X99388557Y-78112227D01*
X99411166Y-78106563D01*
X99434221Y-78103144D01*
X99457500Y-78102000D01*
X99932500Y-78102000D01*
X99955779Y-78103144D01*
G37*
G36*
X99955779Y-79853144D02*
G01*
X99978834Y-79856563D01*
X100001443Y-79862227D01*
X100023387Y-79870079D01*
X100044457Y-79880044D01*
X100064448Y-79892026D01*
X100083168Y-79905910D01*
X100100438Y-79921562D01*
X100116090Y-79938832D01*
X100129974Y-79957552D01*
X100141956Y-79977543D01*
X100151921Y-79998613D01*
X100159773Y-80020557D01*
X100165437Y-80043166D01*
X100168856Y-80066221D01*
X100170000Y-80089500D01*
X100170000Y-80664500D01*
X100168856Y-80687779D01*
X100165437Y-80710834D01*
X100159773Y-80733443D01*
X100151921Y-80755387D01*
X100141956Y-80776457D01*
X100129974Y-80796448D01*
X100116090Y-80815168D01*
X100100438Y-80832438D01*
X100083168Y-80848090D01*
X100064448Y-80861974D01*
X100044457Y-80873956D01*
X100023387Y-80883921D01*
X100001443Y-80891773D01*
X99978834Y-80897437D01*
X99955779Y-80900856D01*
X99932500Y-80902000D01*
X99457500Y-80902000D01*
X99434221Y-80900856D01*
X99411166Y-80897437D01*
X99388557Y-80891773D01*
X99366613Y-80883921D01*
X99345543Y-80873956D01*
X99325552Y-80861974D01*
X99306832Y-80848090D01*
X99289562Y-80832438D01*
X99273910Y-80815168D01*
X99260026Y-80796448D01*
X99248044Y-80776457D01*
X99238079Y-80755387D01*
X99230227Y-80733443D01*
X99224563Y-80710834D01*
X99221144Y-80687779D01*
X99220000Y-80664500D01*
X99220000Y-80089500D01*
X99221144Y-80066221D01*
X99224563Y-80043166D01*
X99230227Y-80020557D01*
X99238079Y-79998613D01*
X99248044Y-79977543D01*
X99260026Y-79957552D01*
X99273910Y-79938832D01*
X99289562Y-79921562D01*
X99306832Y-79905910D01*
X99325552Y-79892026D01*
X99345543Y-79880044D01*
X99366613Y-79870079D01*
X99388557Y-79862227D01*
X99411166Y-79856563D01*
X99434221Y-79853144D01*
X99457500Y-79852000D01*
X99932500Y-79852000D01*
X99955779Y-79853144D01*
G37*
G36*
X109049779Y-107569644D02*
G01*
X109072834Y-107573063D01*
X109095443Y-107578727D01*
X109117387Y-107586579D01*
X109138457Y-107596544D01*
X109158448Y-107608526D01*
X109177168Y-107622410D01*
X109194438Y-107638062D01*
X109210090Y-107655332D01*
X109223974Y-107674052D01*
X109235956Y-107694043D01*
X109245921Y-107715113D01*
X109253773Y-107737057D01*
X109259437Y-107759666D01*
X109262856Y-107782721D01*
X109264000Y-107806000D01*
X109264000Y-108381000D01*
X109262856Y-108404279D01*
X109259437Y-108427334D01*
X109253773Y-108449943D01*
X109245921Y-108471887D01*
X109235956Y-108492957D01*
X109223974Y-108512948D01*
X109210090Y-108531668D01*
X109194438Y-108548938D01*
X109177168Y-108564590D01*
X109158448Y-108578474D01*
X109138457Y-108590456D01*
X109117387Y-108600421D01*
X109095443Y-108608273D01*
X109072834Y-108613937D01*
X109049779Y-108617356D01*
X109026500Y-108618500D01*
X108551500Y-108618500D01*
X108528221Y-108617356D01*
X108505166Y-108613937D01*
X108482557Y-108608273D01*
X108460613Y-108600421D01*
X108439543Y-108590456D01*
X108419552Y-108578474D01*
X108400832Y-108564590D01*
X108383562Y-108548938D01*
X108367910Y-108531668D01*
X108354026Y-108512948D01*
X108342044Y-108492957D01*
X108332079Y-108471887D01*
X108324227Y-108449943D01*
X108318563Y-108427334D01*
X108315144Y-108404279D01*
X108314000Y-108381000D01*
X108314000Y-107806000D01*
X108315144Y-107782721D01*
X108318563Y-107759666D01*
X108324227Y-107737057D01*
X108332079Y-107715113D01*
X108342044Y-107694043D01*
X108354026Y-107674052D01*
X108367910Y-107655332D01*
X108383562Y-107638062D01*
X108400832Y-107622410D01*
X108419552Y-107608526D01*
X108439543Y-107596544D01*
X108460613Y-107586579D01*
X108482557Y-107578727D01*
X108505166Y-107573063D01*
X108528221Y-107569644D01*
X108551500Y-107568500D01*
X109026500Y-107568500D01*
X109049779Y-107569644D01*
G37*
G36*
X109049779Y-105819644D02*
G01*
X109072834Y-105823063D01*
X109095443Y-105828727D01*
X109117387Y-105836579D01*
X109138457Y-105846544D01*
X109158448Y-105858526D01*
X109177168Y-105872410D01*
X109194438Y-105888062D01*
X109210090Y-105905332D01*
X109223974Y-105924052D01*
X109235956Y-105944043D01*
X109245921Y-105965113D01*
X109253773Y-105987057D01*
X109259437Y-106009666D01*
X109262856Y-106032721D01*
X109264000Y-106056000D01*
X109264000Y-106631000D01*
X109262856Y-106654279D01*
X109259437Y-106677334D01*
X109253773Y-106699943D01*
X109245921Y-106721887D01*
X109235956Y-106742957D01*
X109223974Y-106762948D01*
X109210090Y-106781668D01*
X109194438Y-106798938D01*
X109177168Y-106814590D01*
X109158448Y-106828474D01*
X109138457Y-106840456D01*
X109117387Y-106850421D01*
X109095443Y-106858273D01*
X109072834Y-106863937D01*
X109049779Y-106867356D01*
X109026500Y-106868500D01*
X108551500Y-106868500D01*
X108528221Y-106867356D01*
X108505166Y-106863937D01*
X108482557Y-106858273D01*
X108460613Y-106850421D01*
X108439543Y-106840456D01*
X108419552Y-106828474D01*
X108400832Y-106814590D01*
X108383562Y-106798938D01*
X108367910Y-106781668D01*
X108354026Y-106762948D01*
X108342044Y-106742957D01*
X108332079Y-106721887D01*
X108324227Y-106699943D01*
X108318563Y-106677334D01*
X108315144Y-106654279D01*
X108314000Y-106631000D01*
X108314000Y-106056000D01*
X108315144Y-106032721D01*
X108318563Y-106009666D01*
X108324227Y-105987057D01*
X108332079Y-105965113D01*
X108342044Y-105944043D01*
X108354026Y-105924052D01*
X108367910Y-105905332D01*
X108383562Y-105888062D01*
X108400832Y-105872410D01*
X108419552Y-105858526D01*
X108439543Y-105846544D01*
X108460613Y-105836579D01*
X108482557Y-105828727D01*
X108505166Y-105823063D01*
X108528221Y-105819644D01*
X108551500Y-105818500D01*
X109026500Y-105818500D01*
X109049779Y-105819644D01*
G37*
G36*
X110623779Y-107569644D02*
G01*
X110646834Y-107573063D01*
X110669443Y-107578727D01*
X110691387Y-107586579D01*
X110712457Y-107596544D01*
X110732448Y-107608526D01*
X110751168Y-107622410D01*
X110768438Y-107638062D01*
X110784090Y-107655332D01*
X110797974Y-107674052D01*
X110809956Y-107694043D01*
X110819921Y-107715113D01*
X110827773Y-107737057D01*
X110833437Y-107759666D01*
X110836856Y-107782721D01*
X110838000Y-107806000D01*
X110838000Y-108381000D01*
X110836856Y-108404279D01*
X110833437Y-108427334D01*
X110827773Y-108449943D01*
X110819921Y-108471887D01*
X110809956Y-108492957D01*
X110797974Y-108512948D01*
X110784090Y-108531668D01*
X110768438Y-108548938D01*
X110751168Y-108564590D01*
X110732448Y-108578474D01*
X110712457Y-108590456D01*
X110691387Y-108600421D01*
X110669443Y-108608273D01*
X110646834Y-108613937D01*
X110623779Y-108617356D01*
X110600500Y-108618500D01*
X110125500Y-108618500D01*
X110102221Y-108617356D01*
X110079166Y-108613937D01*
X110056557Y-108608273D01*
X110034613Y-108600421D01*
X110013543Y-108590456D01*
X109993552Y-108578474D01*
X109974832Y-108564590D01*
X109957562Y-108548938D01*
X109941910Y-108531668D01*
X109928026Y-108512948D01*
X109916044Y-108492957D01*
X109906079Y-108471887D01*
X109898227Y-108449943D01*
X109892563Y-108427334D01*
X109889144Y-108404279D01*
X109888000Y-108381000D01*
X109888000Y-107806000D01*
X109889144Y-107782721D01*
X109892563Y-107759666D01*
X109898227Y-107737057D01*
X109906079Y-107715113D01*
X109916044Y-107694043D01*
X109928026Y-107674052D01*
X109941910Y-107655332D01*
X109957562Y-107638062D01*
X109974832Y-107622410D01*
X109993552Y-107608526D01*
X110013543Y-107596544D01*
X110034613Y-107586579D01*
X110056557Y-107578727D01*
X110079166Y-107573063D01*
X110102221Y-107569644D01*
X110125500Y-107568500D01*
X110600500Y-107568500D01*
X110623779Y-107569644D01*
G37*
G36*
X110623779Y-105819644D02*
G01*
X110646834Y-105823063D01*
X110669443Y-105828727D01*
X110691387Y-105836579D01*
X110712457Y-105846544D01*
X110732448Y-105858526D01*
X110751168Y-105872410D01*
X110768438Y-105888062D01*
X110784090Y-105905332D01*
X110797974Y-105924052D01*
X110809956Y-105944043D01*
X110819921Y-105965113D01*
X110827773Y-105987057D01*
X110833437Y-106009666D01*
X110836856Y-106032721D01*
X110838000Y-106056000D01*
X110838000Y-106631000D01*
X110836856Y-106654279D01*
X110833437Y-106677334D01*
X110827773Y-106699943D01*
X110819921Y-106721887D01*
X110809956Y-106742957D01*
X110797974Y-106762948D01*
X110784090Y-106781668D01*
X110768438Y-106798938D01*
X110751168Y-106814590D01*
X110732448Y-106828474D01*
X110712457Y-106840456D01*
X110691387Y-106850421D01*
X110669443Y-106858273D01*
X110646834Y-106863937D01*
X110623779Y-106867356D01*
X110600500Y-106868500D01*
X110125500Y-106868500D01*
X110102221Y-106867356D01*
X110079166Y-106863937D01*
X110056557Y-106858273D01*
X110034613Y-106850421D01*
X110013543Y-106840456D01*
X109993552Y-106828474D01*
X109974832Y-106814590D01*
X109957562Y-106798938D01*
X109941910Y-106781668D01*
X109928026Y-106762948D01*
X109916044Y-106742957D01*
X109906079Y-106721887D01*
X109898227Y-106699943D01*
X109892563Y-106677334D01*
X109889144Y-106654279D01*
X109888000Y-106631000D01*
X109888000Y-106056000D01*
X109889144Y-106032721D01*
X109892563Y-106009666D01*
X109898227Y-105987057D01*
X109906079Y-105965113D01*
X109916044Y-105944043D01*
X109928026Y-105924052D01*
X109941910Y-105905332D01*
X109957562Y-105888062D01*
X109974832Y-105872410D01*
X109993552Y-105858526D01*
X110013543Y-105846544D01*
X110034613Y-105836579D01*
X110056557Y-105828727D01*
X110079166Y-105823063D01*
X110102221Y-105819644D01*
X110125500Y-105818500D01*
X110600500Y-105818500D01*
X110623779Y-105819644D01*
G37*
G36*
X112147779Y-107569644D02*
G01*
X112170834Y-107573063D01*
X112193443Y-107578727D01*
X112215387Y-107586579D01*
X112236457Y-107596544D01*
X112256448Y-107608526D01*
X112275168Y-107622410D01*
X112292438Y-107638062D01*
X112308090Y-107655332D01*
X112321974Y-107674052D01*
X112333956Y-107694043D01*
X112343921Y-107715113D01*
X112351773Y-107737057D01*
X112357437Y-107759666D01*
X112360856Y-107782721D01*
X112362000Y-107806000D01*
X112362000Y-108381000D01*
X112360856Y-108404279D01*
X112357437Y-108427334D01*
X112351773Y-108449943D01*
X112343921Y-108471887D01*
X112333956Y-108492957D01*
X112321974Y-108512948D01*
X112308090Y-108531668D01*
X112292438Y-108548938D01*
X112275168Y-108564590D01*
X112256448Y-108578474D01*
X112236457Y-108590456D01*
X112215387Y-108600421D01*
X112193443Y-108608273D01*
X112170834Y-108613937D01*
X112147779Y-108617356D01*
X112124500Y-108618500D01*
X111649500Y-108618500D01*
X111626221Y-108617356D01*
X111603166Y-108613937D01*
X111580557Y-108608273D01*
X111558613Y-108600421D01*
X111537543Y-108590456D01*
X111517552Y-108578474D01*
X111498832Y-108564590D01*
X111481562Y-108548938D01*
X111465910Y-108531668D01*
X111452026Y-108512948D01*
X111440044Y-108492957D01*
X111430079Y-108471887D01*
X111422227Y-108449943D01*
X111416563Y-108427334D01*
X111413144Y-108404279D01*
X111412000Y-108381000D01*
X111412000Y-107806000D01*
X111413144Y-107782721D01*
X111416563Y-107759666D01*
X111422227Y-107737057D01*
X111430079Y-107715113D01*
X111440044Y-107694043D01*
X111452026Y-107674052D01*
X111465910Y-107655332D01*
X111481562Y-107638062D01*
X111498832Y-107622410D01*
X111517552Y-107608526D01*
X111537543Y-107596544D01*
X111558613Y-107586579D01*
X111580557Y-107578727D01*
X111603166Y-107573063D01*
X111626221Y-107569644D01*
X111649500Y-107568500D01*
X112124500Y-107568500D01*
X112147779Y-107569644D01*
G37*
G36*
X112147779Y-105819644D02*
G01*
X112170834Y-105823063D01*
X112193443Y-105828727D01*
X112215387Y-105836579D01*
X112236457Y-105846544D01*
X112256448Y-105858526D01*
X112275168Y-105872410D01*
X112292438Y-105888062D01*
X112308090Y-105905332D01*
X112321974Y-105924052D01*
X112333956Y-105944043D01*
X112343921Y-105965113D01*
X112351773Y-105987057D01*
X112357437Y-106009666D01*
X112360856Y-106032721D01*
X112362000Y-106056000D01*
X112362000Y-106631000D01*
X112360856Y-106654279D01*
X112357437Y-106677334D01*
X112351773Y-106699943D01*
X112343921Y-106721887D01*
X112333956Y-106742957D01*
X112321974Y-106762948D01*
X112308090Y-106781668D01*
X112292438Y-106798938D01*
X112275168Y-106814590D01*
X112256448Y-106828474D01*
X112236457Y-106840456D01*
X112215387Y-106850421D01*
X112193443Y-106858273D01*
X112170834Y-106863937D01*
X112147779Y-106867356D01*
X112124500Y-106868500D01*
X111649500Y-106868500D01*
X111626221Y-106867356D01*
X111603166Y-106863937D01*
X111580557Y-106858273D01*
X111558613Y-106850421D01*
X111537543Y-106840456D01*
X111517552Y-106828474D01*
X111498832Y-106814590D01*
X111481562Y-106798938D01*
X111465910Y-106781668D01*
X111452026Y-106762948D01*
X111440044Y-106742957D01*
X111430079Y-106721887D01*
X111422227Y-106699943D01*
X111416563Y-106677334D01*
X111413144Y-106654279D01*
X111412000Y-106631000D01*
X111412000Y-106056000D01*
X111413144Y-106032721D01*
X111416563Y-106009666D01*
X111422227Y-105987057D01*
X111430079Y-105965113D01*
X111440044Y-105944043D01*
X111452026Y-105924052D01*
X111465910Y-105905332D01*
X111481562Y-105888062D01*
X111498832Y-105872410D01*
X111517552Y-105858526D01*
X111537543Y-105846544D01*
X111558613Y-105836579D01*
X111580557Y-105828727D01*
X111603166Y-105823063D01*
X111626221Y-105819644D01*
X111649500Y-105818500D01*
X112124500Y-105818500D01*
X112147779Y-105819644D01*
G37*
G36*
X111639779Y-97280144D02*
G01*
X111662834Y-97283563D01*
X111685443Y-97289227D01*
X111707387Y-97297079D01*
X111728457Y-97307044D01*
X111748448Y-97319026D01*
X111767168Y-97332910D01*
X111784438Y-97348562D01*
X111800090Y-97365832D01*
X111813974Y-97384552D01*
X111825956Y-97404543D01*
X111835921Y-97425613D01*
X111843773Y-97447557D01*
X111849437Y-97470166D01*
X111852856Y-97493221D01*
X111854000Y-97516500D01*
X111854000Y-98091500D01*
X111852856Y-98114779D01*
X111849437Y-98137834D01*
X111843773Y-98160443D01*
X111835921Y-98182387D01*
X111825956Y-98203457D01*
X111813974Y-98223448D01*
X111800090Y-98242168D01*
X111784438Y-98259438D01*
X111767168Y-98275090D01*
X111748448Y-98288974D01*
X111728457Y-98300956D01*
X111707387Y-98310921D01*
X111685443Y-98318773D01*
X111662834Y-98324437D01*
X111639779Y-98327856D01*
X111616500Y-98329000D01*
X111141500Y-98329000D01*
X111118221Y-98327856D01*
X111095166Y-98324437D01*
X111072557Y-98318773D01*
X111050613Y-98310921D01*
X111029543Y-98300956D01*
X111009552Y-98288974D01*
X110990832Y-98275090D01*
X110973562Y-98259438D01*
X110957910Y-98242168D01*
X110944026Y-98223448D01*
X110932044Y-98203457D01*
X110922079Y-98182387D01*
X110914227Y-98160443D01*
X110908563Y-98137834D01*
X110905144Y-98114779D01*
X110904000Y-98091500D01*
X110904000Y-97516500D01*
X110905144Y-97493221D01*
X110908563Y-97470166D01*
X110914227Y-97447557D01*
X110922079Y-97425613D01*
X110932044Y-97404543D01*
X110944026Y-97384552D01*
X110957910Y-97365832D01*
X110973562Y-97348562D01*
X110990832Y-97332910D01*
X111009552Y-97319026D01*
X111029543Y-97307044D01*
X111050613Y-97297079D01*
X111072557Y-97289227D01*
X111095166Y-97283563D01*
X111118221Y-97280144D01*
X111141500Y-97279000D01*
X111616500Y-97279000D01*
X111639779Y-97280144D01*
G37*
G36*
X111639779Y-99030144D02*
G01*
X111662834Y-99033563D01*
X111685443Y-99039227D01*
X111707387Y-99047079D01*
X111728457Y-99057044D01*
X111748448Y-99069026D01*
X111767168Y-99082910D01*
X111784438Y-99098562D01*
X111800090Y-99115832D01*
X111813974Y-99134552D01*
X111825956Y-99154543D01*
X111835921Y-99175613D01*
X111843773Y-99197557D01*
X111849437Y-99220166D01*
X111852856Y-99243221D01*
X111854000Y-99266500D01*
X111854000Y-99841500D01*
X111852856Y-99864779D01*
X111849437Y-99887834D01*
X111843773Y-99910443D01*
X111835921Y-99932387D01*
X111825956Y-99953457D01*
X111813974Y-99973448D01*
X111800090Y-99992168D01*
X111784438Y-100009438D01*
X111767168Y-100025090D01*
X111748448Y-100038974D01*
X111728457Y-100050956D01*
X111707387Y-100060921D01*
X111685443Y-100068773D01*
X111662834Y-100074437D01*
X111639779Y-100077856D01*
X111616500Y-100079000D01*
X111141500Y-100079000D01*
X111118221Y-100077856D01*
X111095166Y-100074437D01*
X111072557Y-100068773D01*
X111050613Y-100060921D01*
X111029543Y-100050956D01*
X111009552Y-100038974D01*
X110990832Y-100025090D01*
X110973562Y-100009438D01*
X110957910Y-99992168D01*
X110944026Y-99973448D01*
X110932044Y-99953457D01*
X110922079Y-99932387D01*
X110914227Y-99910443D01*
X110908563Y-99887834D01*
X110905144Y-99864779D01*
X110904000Y-99841500D01*
X110904000Y-99266500D01*
X110905144Y-99243221D01*
X110908563Y-99220166D01*
X110914227Y-99197557D01*
X110922079Y-99175613D01*
X110932044Y-99154543D01*
X110944026Y-99134552D01*
X110957910Y-99115832D01*
X110973562Y-99098562D01*
X110990832Y-99082910D01*
X111009552Y-99069026D01*
X111029543Y-99057044D01*
X111050613Y-99047079D01*
X111072557Y-99039227D01*
X111095166Y-99033563D01*
X111118221Y-99030144D01*
X111141500Y-99029000D01*
X111616500Y-99029000D01*
X111639779Y-99030144D01*
G37*
G36*
X113163779Y-97802144D02*
G01*
X113186834Y-97805563D01*
X113209443Y-97811227D01*
X113231387Y-97819079D01*
X113252457Y-97829044D01*
X113272448Y-97841026D01*
X113291168Y-97854910D01*
X113308438Y-97870562D01*
X113324090Y-97887832D01*
X113337974Y-97906552D01*
X113349956Y-97926543D01*
X113359921Y-97947613D01*
X113367773Y-97969557D01*
X113373437Y-97992166D01*
X113376856Y-98015221D01*
X113378000Y-98038500D01*
X113378000Y-98613500D01*
X113376856Y-98636779D01*
X113373437Y-98659834D01*
X113367773Y-98682443D01*
X113359921Y-98704387D01*
X113349956Y-98725457D01*
X113337974Y-98745448D01*
X113324090Y-98764168D01*
X113308438Y-98781438D01*
X113291168Y-98797090D01*
X113272448Y-98810974D01*
X113252457Y-98822956D01*
X113231387Y-98832921D01*
X113209443Y-98840773D01*
X113186834Y-98846437D01*
X113163779Y-98849856D01*
X113140500Y-98851000D01*
X112665500Y-98851000D01*
X112642221Y-98849856D01*
X112619166Y-98846437D01*
X112596557Y-98840773D01*
X112574613Y-98832921D01*
X112553543Y-98822956D01*
X112533552Y-98810974D01*
X112514832Y-98797090D01*
X112497562Y-98781438D01*
X112481910Y-98764168D01*
X112468026Y-98745448D01*
X112456044Y-98725457D01*
X112446079Y-98704387D01*
X112438227Y-98682443D01*
X112432563Y-98659834D01*
X112429144Y-98636779D01*
X112428000Y-98613500D01*
X112428000Y-98038500D01*
X112429144Y-98015221D01*
X112432563Y-97992166D01*
X112438227Y-97969557D01*
X112446079Y-97947613D01*
X112456044Y-97926543D01*
X112468026Y-97906552D01*
X112481910Y-97887832D01*
X112497562Y-97870562D01*
X112514832Y-97854910D01*
X112533552Y-97841026D01*
X112553543Y-97829044D01*
X112574613Y-97819079D01*
X112596557Y-97811227D01*
X112619166Y-97805563D01*
X112642221Y-97802144D01*
X112665500Y-97801000D01*
X113140500Y-97801000D01*
X113163779Y-97802144D01*
G37*
G36*
X113163779Y-99552144D02*
G01*
X113186834Y-99555563D01*
X113209443Y-99561227D01*
X113231387Y-99569079D01*
X113252457Y-99579044D01*
X113272448Y-99591026D01*
X113291168Y-99604910D01*
X113308438Y-99620562D01*
X113324090Y-99637832D01*
X113337974Y-99656552D01*
X113349956Y-99676543D01*
X113359921Y-99697613D01*
X113367773Y-99719557D01*
X113373437Y-99742166D01*
X113376856Y-99765221D01*
X113378000Y-99788500D01*
X113378000Y-100363500D01*
X113376856Y-100386779D01*
X113373437Y-100409834D01*
X113367773Y-100432443D01*
X113359921Y-100454387D01*
X113349956Y-100475457D01*
X113337974Y-100495448D01*
X113324090Y-100514168D01*
X113308438Y-100531438D01*
X113291168Y-100547090D01*
X113272448Y-100560974D01*
X113252457Y-100572956D01*
X113231387Y-100582921D01*
X113209443Y-100590773D01*
X113186834Y-100596437D01*
X113163779Y-100599856D01*
X113140500Y-100601000D01*
X112665500Y-100601000D01*
X112642221Y-100599856D01*
X112619166Y-100596437D01*
X112596557Y-100590773D01*
X112574613Y-100582921D01*
X112553543Y-100572956D01*
X112533552Y-100560974D01*
X112514832Y-100547090D01*
X112497562Y-100531438D01*
X112481910Y-100514168D01*
X112468026Y-100495448D01*
X112456044Y-100475457D01*
X112446079Y-100454387D01*
X112438227Y-100432443D01*
X112432563Y-100409834D01*
X112429144Y-100386779D01*
X112428000Y-100363500D01*
X112428000Y-99788500D01*
X112429144Y-99765221D01*
X112432563Y-99742166D01*
X112438227Y-99719557D01*
X112446079Y-99697613D01*
X112456044Y-99676543D01*
X112468026Y-99656552D01*
X112481910Y-99637832D01*
X112497562Y-99620562D01*
X112514832Y-99604910D01*
X112533552Y-99591026D01*
X112553543Y-99579044D01*
X112574613Y-99569079D01*
X112596557Y-99561227D01*
X112619166Y-99555563D01*
X112642221Y-99552144D01*
X112665500Y-99551000D01*
X113140500Y-99551000D01*
X113163779Y-99552144D01*
G37*
G36*
X87700779Y-116112144D02*
G01*
X87723834Y-116115563D01*
X87746443Y-116121227D01*
X87768387Y-116129079D01*
X87789457Y-116139044D01*
X87809448Y-116151026D01*
X87828168Y-116164910D01*
X87845438Y-116180562D01*
X87861090Y-116197832D01*
X87874974Y-116216552D01*
X87886956Y-116236543D01*
X87896921Y-116257613D01*
X87904773Y-116279557D01*
X87910437Y-116302166D01*
X87913856Y-116325221D01*
X87915000Y-116348500D01*
X87915000Y-116823500D01*
X87913856Y-116846779D01*
X87910437Y-116869834D01*
X87904773Y-116892443D01*
X87896921Y-116914387D01*
X87886956Y-116935457D01*
X87874974Y-116955448D01*
X87861090Y-116974168D01*
X87845438Y-116991438D01*
X87828168Y-117007090D01*
X87809448Y-117020974D01*
X87789457Y-117032956D01*
X87768387Y-117042921D01*
X87746443Y-117050773D01*
X87723834Y-117056437D01*
X87700779Y-117059856D01*
X87677500Y-117061000D01*
X87102500Y-117061000D01*
X87079221Y-117059856D01*
X87056166Y-117056437D01*
X87033557Y-117050773D01*
X87011613Y-117042921D01*
X86990543Y-117032956D01*
X86970552Y-117020974D01*
X86951832Y-117007090D01*
X86934562Y-116991438D01*
X86918910Y-116974168D01*
X86905026Y-116955448D01*
X86893044Y-116935457D01*
X86883079Y-116914387D01*
X86875227Y-116892443D01*
X86869563Y-116869834D01*
X86866144Y-116846779D01*
X86865000Y-116823500D01*
X86865000Y-116348500D01*
X86866144Y-116325221D01*
X86869563Y-116302166D01*
X86875227Y-116279557D01*
X86883079Y-116257613D01*
X86893044Y-116236543D01*
X86905026Y-116216552D01*
X86918910Y-116197832D01*
X86934562Y-116180562D01*
X86951832Y-116164910D01*
X86970552Y-116151026D01*
X86990543Y-116139044D01*
X87011613Y-116129079D01*
X87033557Y-116121227D01*
X87056166Y-116115563D01*
X87079221Y-116112144D01*
X87102500Y-116111000D01*
X87677500Y-116111000D01*
X87700779Y-116112144D01*
G37*
G36*
X89450779Y-116112144D02*
G01*
X89473834Y-116115563D01*
X89496443Y-116121227D01*
X89518387Y-116129079D01*
X89539457Y-116139044D01*
X89559448Y-116151026D01*
X89578168Y-116164910D01*
X89595438Y-116180562D01*
X89611090Y-116197832D01*
X89624974Y-116216552D01*
X89636956Y-116236543D01*
X89646921Y-116257613D01*
X89654773Y-116279557D01*
X89660437Y-116302166D01*
X89663856Y-116325221D01*
X89665000Y-116348500D01*
X89665000Y-116823500D01*
X89663856Y-116846779D01*
X89660437Y-116869834D01*
X89654773Y-116892443D01*
X89646921Y-116914387D01*
X89636956Y-116935457D01*
X89624974Y-116955448D01*
X89611090Y-116974168D01*
X89595438Y-116991438D01*
X89578168Y-117007090D01*
X89559448Y-117020974D01*
X89539457Y-117032956D01*
X89518387Y-117042921D01*
X89496443Y-117050773D01*
X89473834Y-117056437D01*
X89450779Y-117059856D01*
X89427500Y-117061000D01*
X88852500Y-117061000D01*
X88829221Y-117059856D01*
X88806166Y-117056437D01*
X88783557Y-117050773D01*
X88761613Y-117042921D01*
X88740543Y-117032956D01*
X88720552Y-117020974D01*
X88701832Y-117007090D01*
X88684562Y-116991438D01*
X88668910Y-116974168D01*
X88655026Y-116955448D01*
X88643044Y-116935457D01*
X88633079Y-116914387D01*
X88625227Y-116892443D01*
X88619563Y-116869834D01*
X88616144Y-116846779D01*
X88615000Y-116823500D01*
X88615000Y-116348500D01*
X88616144Y-116325221D01*
X88619563Y-116302166D01*
X88625227Y-116279557D01*
X88633079Y-116257613D01*
X88643044Y-116236543D01*
X88655026Y-116216552D01*
X88668910Y-116197832D01*
X88684562Y-116180562D01*
X88701832Y-116164910D01*
X88720552Y-116151026D01*
X88740543Y-116139044D01*
X88761613Y-116129079D01*
X88783557Y-116121227D01*
X88806166Y-116115563D01*
X88829221Y-116112144D01*
X88852500Y-116111000D01*
X89427500Y-116111000D01*
X89450779Y-116112144D01*
G37*
G36*
X80701779Y-116112144D02*
G01*
X80724834Y-116115563D01*
X80747443Y-116121227D01*
X80769387Y-116129079D01*
X80790457Y-116139044D01*
X80810448Y-116151026D01*
X80829168Y-116164910D01*
X80846438Y-116180562D01*
X80862090Y-116197832D01*
X80875974Y-116216552D01*
X80887956Y-116236543D01*
X80897921Y-116257613D01*
X80905773Y-116279557D01*
X80911437Y-116302166D01*
X80914856Y-116325221D01*
X80916000Y-116348500D01*
X80916000Y-116823500D01*
X80914856Y-116846779D01*
X80911437Y-116869834D01*
X80905773Y-116892443D01*
X80897921Y-116914387D01*
X80887956Y-116935457D01*
X80875974Y-116955448D01*
X80862090Y-116974168D01*
X80846438Y-116991438D01*
X80829168Y-117007090D01*
X80810448Y-117020974D01*
X80790457Y-117032956D01*
X80769387Y-117042921D01*
X80747443Y-117050773D01*
X80724834Y-117056437D01*
X80701779Y-117059856D01*
X80678500Y-117061000D01*
X80103500Y-117061000D01*
X80080221Y-117059856D01*
X80057166Y-117056437D01*
X80034557Y-117050773D01*
X80012613Y-117042921D01*
X79991543Y-117032956D01*
X79971552Y-117020974D01*
X79952832Y-117007090D01*
X79935562Y-116991438D01*
X79919910Y-116974168D01*
X79906026Y-116955448D01*
X79894044Y-116935457D01*
X79884079Y-116914387D01*
X79876227Y-116892443D01*
X79870563Y-116869834D01*
X79867144Y-116846779D01*
X79866000Y-116823500D01*
X79866000Y-116348500D01*
X79867144Y-116325221D01*
X79870563Y-116302166D01*
X79876227Y-116279557D01*
X79884079Y-116257613D01*
X79894044Y-116236543D01*
X79906026Y-116216552D01*
X79919910Y-116197832D01*
X79935562Y-116180562D01*
X79952832Y-116164910D01*
X79971552Y-116151026D01*
X79991543Y-116139044D01*
X80012613Y-116129079D01*
X80034557Y-116121227D01*
X80057166Y-116115563D01*
X80080221Y-116112144D01*
X80103500Y-116111000D01*
X80678500Y-116111000D01*
X80701779Y-116112144D01*
G37*
G36*
X82451779Y-116112144D02*
G01*
X82474834Y-116115563D01*
X82497443Y-116121227D01*
X82519387Y-116129079D01*
X82540457Y-116139044D01*
X82560448Y-116151026D01*
X82579168Y-116164910D01*
X82596438Y-116180562D01*
X82612090Y-116197832D01*
X82625974Y-116216552D01*
X82637956Y-116236543D01*
X82647921Y-116257613D01*
X82655773Y-116279557D01*
X82661437Y-116302166D01*
X82664856Y-116325221D01*
X82666000Y-116348500D01*
X82666000Y-116823500D01*
X82664856Y-116846779D01*
X82661437Y-116869834D01*
X82655773Y-116892443D01*
X82647921Y-116914387D01*
X82637956Y-116935457D01*
X82625974Y-116955448D01*
X82612090Y-116974168D01*
X82596438Y-116991438D01*
X82579168Y-117007090D01*
X82560448Y-117020974D01*
X82540457Y-117032956D01*
X82519387Y-117042921D01*
X82497443Y-117050773D01*
X82474834Y-117056437D01*
X82451779Y-117059856D01*
X82428500Y-117061000D01*
X81853500Y-117061000D01*
X81830221Y-117059856D01*
X81807166Y-117056437D01*
X81784557Y-117050773D01*
X81762613Y-117042921D01*
X81741543Y-117032956D01*
X81721552Y-117020974D01*
X81702832Y-117007090D01*
X81685562Y-116991438D01*
X81669910Y-116974168D01*
X81656026Y-116955448D01*
X81644044Y-116935457D01*
X81634079Y-116914387D01*
X81626227Y-116892443D01*
X81620563Y-116869834D01*
X81617144Y-116846779D01*
X81616000Y-116823500D01*
X81616000Y-116348500D01*
X81617144Y-116325221D01*
X81620563Y-116302166D01*
X81626227Y-116279557D01*
X81634079Y-116257613D01*
X81644044Y-116236543D01*
X81656026Y-116216552D01*
X81669910Y-116197832D01*
X81685562Y-116180562D01*
X81702832Y-116164910D01*
X81721552Y-116151026D01*
X81741543Y-116139044D01*
X81762613Y-116129079D01*
X81784557Y-116121227D01*
X81807166Y-116115563D01*
X81830221Y-116112144D01*
X81853500Y-116111000D01*
X82428500Y-116111000D01*
X82451779Y-116112144D01*
G37*
G36*
X84158779Y-116112144D02*
G01*
X84181834Y-116115563D01*
X84204443Y-116121227D01*
X84226387Y-116129079D01*
X84247457Y-116139044D01*
X84267448Y-116151026D01*
X84286168Y-116164910D01*
X84303438Y-116180562D01*
X84319090Y-116197832D01*
X84332974Y-116216552D01*
X84344956Y-116236543D01*
X84354921Y-116257613D01*
X84362773Y-116279557D01*
X84368437Y-116302166D01*
X84371856Y-116325221D01*
X84373000Y-116348500D01*
X84373000Y-116823500D01*
X84371856Y-116846779D01*
X84368437Y-116869834D01*
X84362773Y-116892443D01*
X84354921Y-116914387D01*
X84344956Y-116935457D01*
X84332974Y-116955448D01*
X84319090Y-116974168D01*
X84303438Y-116991438D01*
X84286168Y-117007090D01*
X84267448Y-117020974D01*
X84247457Y-117032956D01*
X84226387Y-117042921D01*
X84204443Y-117050773D01*
X84181834Y-117056437D01*
X84158779Y-117059856D01*
X84135500Y-117061000D01*
X83560500Y-117061000D01*
X83537221Y-117059856D01*
X83514166Y-117056437D01*
X83491557Y-117050773D01*
X83469613Y-117042921D01*
X83448543Y-117032956D01*
X83428552Y-117020974D01*
X83409832Y-117007090D01*
X83392562Y-116991438D01*
X83376910Y-116974168D01*
X83363026Y-116955448D01*
X83351044Y-116935457D01*
X83341079Y-116914387D01*
X83333227Y-116892443D01*
X83327563Y-116869834D01*
X83324144Y-116846779D01*
X83323000Y-116823500D01*
X83323000Y-116348500D01*
X83324144Y-116325221D01*
X83327563Y-116302166D01*
X83333227Y-116279557D01*
X83341079Y-116257613D01*
X83351044Y-116236543D01*
X83363026Y-116216552D01*
X83376910Y-116197832D01*
X83392562Y-116180562D01*
X83409832Y-116164910D01*
X83428552Y-116151026D01*
X83448543Y-116139044D01*
X83469613Y-116129079D01*
X83491557Y-116121227D01*
X83514166Y-116115563D01*
X83537221Y-116112144D01*
X83560500Y-116111000D01*
X84135500Y-116111000D01*
X84158779Y-116112144D01*
G37*
G36*
X85908779Y-116112144D02*
G01*
X85931834Y-116115563D01*
X85954443Y-116121227D01*
X85976387Y-116129079D01*
X85997457Y-116139044D01*
X86017448Y-116151026D01*
X86036168Y-116164910D01*
X86053438Y-116180562D01*
X86069090Y-116197832D01*
X86082974Y-116216552D01*
X86094956Y-116236543D01*
X86104921Y-116257613D01*
X86112773Y-116279557D01*
X86118437Y-116302166D01*
X86121856Y-116325221D01*
X86123000Y-116348500D01*
X86123000Y-116823500D01*
X86121856Y-116846779D01*
X86118437Y-116869834D01*
X86112773Y-116892443D01*
X86104921Y-116914387D01*
X86094956Y-116935457D01*
X86082974Y-116955448D01*
X86069090Y-116974168D01*
X86053438Y-116991438D01*
X86036168Y-117007090D01*
X86017448Y-117020974D01*
X85997457Y-117032956D01*
X85976387Y-117042921D01*
X85954443Y-117050773D01*
X85931834Y-117056437D01*
X85908779Y-117059856D01*
X85885500Y-117061000D01*
X85310500Y-117061000D01*
X85287221Y-117059856D01*
X85264166Y-117056437D01*
X85241557Y-117050773D01*
X85219613Y-117042921D01*
X85198543Y-117032956D01*
X85178552Y-117020974D01*
X85159832Y-117007090D01*
X85142562Y-116991438D01*
X85126910Y-116974168D01*
X85113026Y-116955448D01*
X85101044Y-116935457D01*
X85091079Y-116914387D01*
X85083227Y-116892443D01*
X85077563Y-116869834D01*
X85074144Y-116846779D01*
X85073000Y-116823500D01*
X85073000Y-116348500D01*
X85074144Y-116325221D01*
X85077563Y-116302166D01*
X85083227Y-116279557D01*
X85091079Y-116257613D01*
X85101044Y-116236543D01*
X85113026Y-116216552D01*
X85126910Y-116197832D01*
X85142562Y-116180562D01*
X85159832Y-116164910D01*
X85178552Y-116151026D01*
X85198543Y-116139044D01*
X85219613Y-116129079D01*
X85241557Y-116121227D01*
X85264166Y-116115563D01*
X85287221Y-116112144D01*
X85310500Y-116111000D01*
X85885500Y-116111000D01*
X85908779Y-116112144D01*
G37*
G36*
X74301779Y-111123144D02*
G01*
X74324834Y-111126563D01*
X74347443Y-111132227D01*
X74369387Y-111140079D01*
X74390457Y-111150044D01*
X74410448Y-111162026D01*
X74429168Y-111175910D01*
X74446438Y-111191562D01*
X74462090Y-111208832D01*
X74475974Y-111227552D01*
X74487956Y-111247543D01*
X74497921Y-111268613D01*
X74505773Y-111290557D01*
X74511437Y-111313166D01*
X74514856Y-111336221D01*
X74516000Y-111359500D01*
X74516000Y-111934500D01*
X74514856Y-111957779D01*
X74511437Y-111980834D01*
X74505773Y-112003443D01*
X74497921Y-112025387D01*
X74487956Y-112046457D01*
X74475974Y-112066448D01*
X74462090Y-112085168D01*
X74446438Y-112102438D01*
X74429168Y-112118090D01*
X74410448Y-112131974D01*
X74390457Y-112143956D01*
X74369387Y-112153921D01*
X74347443Y-112161773D01*
X74324834Y-112167437D01*
X74301779Y-112170856D01*
X74278500Y-112172000D01*
X73803500Y-112172000D01*
X73780221Y-112170856D01*
X73757166Y-112167437D01*
X73734557Y-112161773D01*
X73712613Y-112153921D01*
X73691543Y-112143956D01*
X73671552Y-112131974D01*
X73652832Y-112118090D01*
X73635562Y-112102438D01*
X73619910Y-112085168D01*
X73606026Y-112066448D01*
X73594044Y-112046457D01*
X73584079Y-112025387D01*
X73576227Y-112003443D01*
X73570563Y-111980834D01*
X73567144Y-111957779D01*
X73566000Y-111934500D01*
X73566000Y-111359500D01*
X73567144Y-111336221D01*
X73570563Y-111313166D01*
X73576227Y-111290557D01*
X73584079Y-111268613D01*
X73594044Y-111247543D01*
X73606026Y-111227552D01*
X73619910Y-111208832D01*
X73635562Y-111191562D01*
X73652832Y-111175910D01*
X73671552Y-111162026D01*
X73691543Y-111150044D01*
X73712613Y-111140079D01*
X73734557Y-111132227D01*
X73757166Y-111126563D01*
X73780221Y-111123144D01*
X73803500Y-111122000D01*
X74278500Y-111122000D01*
X74301779Y-111123144D01*
G37*
G36*
X74301779Y-112873144D02*
G01*
X74324834Y-112876563D01*
X74347443Y-112882227D01*
X74369387Y-112890079D01*
X74390457Y-112900044D01*
X74410448Y-112912026D01*
X74429168Y-112925910D01*
X74446438Y-112941562D01*
X74462090Y-112958832D01*
X74475974Y-112977552D01*
X74487956Y-112997543D01*
X74497921Y-113018613D01*
X74505773Y-113040557D01*
X74511437Y-113063166D01*
X74514856Y-113086221D01*
X74516000Y-113109500D01*
X74516000Y-113684500D01*
X74514856Y-113707779D01*
X74511437Y-113730834D01*
X74505773Y-113753443D01*
X74497921Y-113775387D01*
X74487956Y-113796457D01*
X74475974Y-113816448D01*
X74462090Y-113835168D01*
X74446438Y-113852438D01*
X74429168Y-113868090D01*
X74410448Y-113881974D01*
X74390457Y-113893956D01*
X74369387Y-113903921D01*
X74347443Y-113911773D01*
X74324834Y-113917437D01*
X74301779Y-113920856D01*
X74278500Y-113922000D01*
X73803500Y-113922000D01*
X73780221Y-113920856D01*
X73757166Y-113917437D01*
X73734557Y-113911773D01*
X73712613Y-113903921D01*
X73691543Y-113893956D01*
X73671552Y-113881974D01*
X73652832Y-113868090D01*
X73635562Y-113852438D01*
X73619910Y-113835168D01*
X73606026Y-113816448D01*
X73594044Y-113796457D01*
X73584079Y-113775387D01*
X73576227Y-113753443D01*
X73570563Y-113730834D01*
X73567144Y-113707779D01*
X73566000Y-113684500D01*
X73566000Y-113109500D01*
X73567144Y-113086221D01*
X73570563Y-113063166D01*
X73576227Y-113040557D01*
X73584079Y-113018613D01*
X73594044Y-112997543D01*
X73606026Y-112977552D01*
X73619910Y-112958832D01*
X73635562Y-112941562D01*
X73652832Y-112925910D01*
X73671552Y-112912026D01*
X73691543Y-112900044D01*
X73712613Y-112890079D01*
X73734557Y-112882227D01*
X73757166Y-112876563D01*
X73780221Y-112873144D01*
X73803500Y-112872000D01*
X74278500Y-112872000D01*
X74301779Y-112873144D01*
G37*
G36*
X108845779Y-80093144D02*
G01*
X108868834Y-80096563D01*
X108891443Y-80102227D01*
X108913387Y-80110079D01*
X108934457Y-80120044D01*
X108954448Y-80132026D01*
X108973168Y-80145910D01*
X108990438Y-80161562D01*
X109006090Y-80178832D01*
X109019974Y-80197552D01*
X109031956Y-80217543D01*
X109041921Y-80238613D01*
X109049773Y-80260557D01*
X109055437Y-80283166D01*
X109058856Y-80306221D01*
X109060000Y-80329500D01*
X109060000Y-80904500D01*
X109058856Y-80927779D01*
X109055437Y-80950834D01*
X109049773Y-80973443D01*
X109041921Y-80995387D01*
X109031956Y-81016457D01*
X109019974Y-81036448D01*
X109006090Y-81055168D01*
X108990438Y-81072438D01*
X108973168Y-81088090D01*
X108954448Y-81101974D01*
X108934457Y-81113956D01*
X108913387Y-81123921D01*
X108891443Y-81131773D01*
X108868834Y-81137437D01*
X108845779Y-81140856D01*
X108822500Y-81142000D01*
X108347500Y-81142000D01*
X108324221Y-81140856D01*
X108301166Y-81137437D01*
X108278557Y-81131773D01*
X108256613Y-81123921D01*
X108235543Y-81113956D01*
X108215552Y-81101974D01*
X108196832Y-81088090D01*
X108179562Y-81072438D01*
X108163910Y-81055168D01*
X108150026Y-81036448D01*
X108138044Y-81016457D01*
X108128079Y-80995387D01*
X108120227Y-80973443D01*
X108114563Y-80950834D01*
X108111144Y-80927779D01*
X108110000Y-80904500D01*
X108110000Y-80329500D01*
X108111144Y-80306221D01*
X108114563Y-80283166D01*
X108120227Y-80260557D01*
X108128079Y-80238613D01*
X108138044Y-80217543D01*
X108150026Y-80197552D01*
X108163910Y-80178832D01*
X108179562Y-80161562D01*
X108196832Y-80145910D01*
X108215552Y-80132026D01*
X108235543Y-80120044D01*
X108256613Y-80110079D01*
X108278557Y-80102227D01*
X108301166Y-80096563D01*
X108324221Y-80093144D01*
X108347500Y-80092000D01*
X108822500Y-80092000D01*
X108845779Y-80093144D01*
G37*
G36*
X108845779Y-78343144D02*
G01*
X108868834Y-78346563D01*
X108891443Y-78352227D01*
X108913387Y-78360079D01*
X108934457Y-78370044D01*
X108954448Y-78382026D01*
X108973168Y-78395910D01*
X108990438Y-78411562D01*
X109006090Y-78428832D01*
X109019974Y-78447552D01*
X109031956Y-78467543D01*
X109041921Y-78488613D01*
X109049773Y-78510557D01*
X109055437Y-78533166D01*
X109058856Y-78556221D01*
X109060000Y-78579500D01*
X109060000Y-79154500D01*
X109058856Y-79177779D01*
X109055437Y-79200834D01*
X109049773Y-79223443D01*
X109041921Y-79245387D01*
X109031956Y-79266457D01*
X109019974Y-79286448D01*
X109006090Y-79305168D01*
X108990438Y-79322438D01*
X108973168Y-79338090D01*
X108954448Y-79351974D01*
X108934457Y-79363956D01*
X108913387Y-79373921D01*
X108891443Y-79381773D01*
X108868834Y-79387437D01*
X108845779Y-79390856D01*
X108822500Y-79392000D01*
X108347500Y-79392000D01*
X108324221Y-79390856D01*
X108301166Y-79387437D01*
X108278557Y-79381773D01*
X108256613Y-79373921D01*
X108235543Y-79363956D01*
X108215552Y-79351974D01*
X108196832Y-79338090D01*
X108179562Y-79322438D01*
X108163910Y-79305168D01*
X108150026Y-79286448D01*
X108138044Y-79266457D01*
X108128079Y-79245387D01*
X108120227Y-79223443D01*
X108114563Y-79200834D01*
X108111144Y-79177779D01*
X108110000Y-79154500D01*
X108110000Y-78579500D01*
X108111144Y-78556221D01*
X108114563Y-78533166D01*
X108120227Y-78510557D01*
X108128079Y-78488613D01*
X108138044Y-78467543D01*
X108150026Y-78447552D01*
X108163910Y-78428832D01*
X108179562Y-78411562D01*
X108196832Y-78395910D01*
X108215552Y-78382026D01*
X108235543Y-78370044D01*
X108256613Y-78360079D01*
X108278557Y-78352227D01*
X108301166Y-78346563D01*
X108324221Y-78343144D01*
X108347500Y-78342000D01*
X108822500Y-78342000D01*
X108845779Y-78343144D01*
G37*
G36*
X114052779Y-85709144D02*
G01*
X114075834Y-85712563D01*
X114098443Y-85718227D01*
X114120387Y-85726079D01*
X114141457Y-85736044D01*
X114161448Y-85748026D01*
X114180168Y-85761910D01*
X114197438Y-85777562D01*
X114213090Y-85794832D01*
X114226974Y-85813552D01*
X114238956Y-85833543D01*
X114248921Y-85854613D01*
X114256773Y-85876557D01*
X114262437Y-85899166D01*
X114265856Y-85922221D01*
X114267000Y-85945500D01*
X114267000Y-86520500D01*
X114265856Y-86543779D01*
X114262437Y-86566834D01*
X114256773Y-86589443D01*
X114248921Y-86611387D01*
X114238956Y-86632457D01*
X114226974Y-86652448D01*
X114213090Y-86671168D01*
X114197438Y-86688438D01*
X114180168Y-86704090D01*
X114161448Y-86717974D01*
X114141457Y-86729956D01*
X114120387Y-86739921D01*
X114098443Y-86747773D01*
X114075834Y-86753437D01*
X114052779Y-86756856D01*
X114029500Y-86758000D01*
X113554500Y-86758000D01*
X113531221Y-86756856D01*
X113508166Y-86753437D01*
X113485557Y-86747773D01*
X113463613Y-86739921D01*
X113442543Y-86729956D01*
X113422552Y-86717974D01*
X113403832Y-86704090D01*
X113386562Y-86688438D01*
X113370910Y-86671168D01*
X113357026Y-86652448D01*
X113345044Y-86632457D01*
X113335079Y-86611387D01*
X113327227Y-86589443D01*
X113321563Y-86566834D01*
X113318144Y-86543779D01*
X113317000Y-86520500D01*
X113317000Y-85945500D01*
X113318144Y-85922221D01*
X113321563Y-85899166D01*
X113327227Y-85876557D01*
X113335079Y-85854613D01*
X113345044Y-85833543D01*
X113357026Y-85813552D01*
X113370910Y-85794832D01*
X113386562Y-85777562D01*
X113403832Y-85761910D01*
X113422552Y-85748026D01*
X113442543Y-85736044D01*
X113463613Y-85726079D01*
X113485557Y-85718227D01*
X113508166Y-85712563D01*
X113531221Y-85709144D01*
X113554500Y-85708000D01*
X114029500Y-85708000D01*
X114052779Y-85709144D01*
G37*
G36*
X114052779Y-87459144D02*
G01*
X114075834Y-87462563D01*
X114098443Y-87468227D01*
X114120387Y-87476079D01*
X114141457Y-87486044D01*
X114161448Y-87498026D01*
X114180168Y-87511910D01*
X114197438Y-87527562D01*
X114213090Y-87544832D01*
X114226974Y-87563552D01*
X114238956Y-87583543D01*
X114248921Y-87604613D01*
X114256773Y-87626557D01*
X114262437Y-87649166D01*
X114265856Y-87672221D01*
X114267000Y-87695500D01*
X114267000Y-88270500D01*
X114265856Y-88293779D01*
X114262437Y-88316834D01*
X114256773Y-88339443D01*
X114248921Y-88361387D01*
X114238956Y-88382457D01*
X114226974Y-88402448D01*
X114213090Y-88421168D01*
X114197438Y-88438438D01*
X114180168Y-88454090D01*
X114161448Y-88467974D01*
X114141457Y-88479956D01*
X114120387Y-88489921D01*
X114098443Y-88497773D01*
X114075834Y-88503437D01*
X114052779Y-88506856D01*
X114029500Y-88508000D01*
X113554500Y-88508000D01*
X113531221Y-88506856D01*
X113508166Y-88503437D01*
X113485557Y-88497773D01*
X113463613Y-88489921D01*
X113442543Y-88479956D01*
X113422552Y-88467974D01*
X113403832Y-88454090D01*
X113386562Y-88438438D01*
X113370910Y-88421168D01*
X113357026Y-88402448D01*
X113345044Y-88382457D01*
X113335079Y-88361387D01*
X113327227Y-88339443D01*
X113321563Y-88316834D01*
X113318144Y-88293779D01*
X113317000Y-88270500D01*
X113317000Y-87695500D01*
X113318144Y-87672221D01*
X113321563Y-87649166D01*
X113327227Y-87626557D01*
X113335079Y-87604613D01*
X113345044Y-87583543D01*
X113357026Y-87563552D01*
X113370910Y-87544832D01*
X113386562Y-87527562D01*
X113403832Y-87511910D01*
X113422552Y-87498026D01*
X113442543Y-87486044D01*
X113463613Y-87476079D01*
X113485557Y-87468227D01*
X113508166Y-87462563D01*
X113531221Y-87459144D01*
X113554500Y-87458000D01*
X114029500Y-87458000D01*
X114052779Y-87459144D01*
G37*
D21*
X112014000Y-79629000D03*
D22*
X114014000Y-78879000D03*
X114014000Y-79379000D03*
X114014000Y-79879000D03*
X114014000Y-80379000D03*
D23*
X113264000Y-81129000D03*
X112764000Y-81129000D03*
X112264000Y-81129000D03*
X111764000Y-81129000D03*
X111264000Y-81129000D03*
X110764000Y-81129000D03*
D22*
X110014000Y-80379000D03*
X110014000Y-79879000D03*
X110014000Y-79379000D03*
X110014000Y-78879000D03*
D23*
X110764000Y-78129000D03*
X111264000Y-78129000D03*
X111764000Y-78129000D03*
X112264000Y-78129000D03*
X112764000Y-78129000D03*
X113264000Y-78129000D03*
D24*
X94349000Y-82266000D03*
X93849000Y-82266000D03*
X93349000Y-82266000D03*
X95349000Y-82266000D03*
X94849000Y-82266000D03*
X92349000Y-82266000D03*
X92849000Y-82266000D03*
X91849000Y-82266000D03*
D25*
X95999000Y-82266000D03*
X95999000Y-82266000D03*
X96799000Y-82266000D03*
X96799000Y-82266000D03*
X91199000Y-82266000D03*
X90399000Y-82266000D03*
X91199000Y-82266000D03*
X90399000Y-82266000D03*
D10*
G36*
X111050004Y-74495204D02*
G01*
X111074273Y-74498804D01*
X111098071Y-74504765D01*
X111121171Y-74513030D01*
X111143349Y-74523520D01*
X111164393Y-74536133D01*
X111184098Y-74550747D01*
X111202277Y-74567223D01*
X111218753Y-74585402D01*
X111233367Y-74605107D01*
X111245980Y-74626151D01*
X111256470Y-74648329D01*
X111264735Y-74671429D01*
X111270696Y-74695227D01*
X111274296Y-74719496D01*
X111275500Y-74744000D01*
X111275500Y-76894000D01*
X111274296Y-76918504D01*
X111270696Y-76942773D01*
X111264735Y-76966571D01*
X111256470Y-76989671D01*
X111245980Y-77011849D01*
X111233367Y-77032893D01*
X111218753Y-77052598D01*
X111202277Y-77070777D01*
X111184098Y-77087253D01*
X111164393Y-77101867D01*
X111143349Y-77114480D01*
X111121171Y-77124970D01*
X111098071Y-77133235D01*
X111074273Y-77139196D01*
X111050004Y-77142796D01*
X111025500Y-77144000D01*
X110100500Y-77144000D01*
X110075996Y-77142796D01*
X110051727Y-77139196D01*
X110027929Y-77133235D01*
X110004829Y-77124970D01*
X109982651Y-77114480D01*
X109961607Y-77101867D01*
X109941902Y-77087253D01*
X109923723Y-77070777D01*
X109907247Y-77052598D01*
X109892633Y-77032893D01*
X109880020Y-77011849D01*
X109869530Y-76989671D01*
X109861265Y-76966571D01*
X109855304Y-76942773D01*
X109851704Y-76918504D01*
X109850500Y-76894000D01*
X109850500Y-74744000D01*
X109851704Y-74719496D01*
X109855304Y-74695227D01*
X109861265Y-74671429D01*
X109869530Y-74648329D01*
X109880020Y-74626151D01*
X109892633Y-74605107D01*
X109907247Y-74585402D01*
X109923723Y-74567223D01*
X109941902Y-74550747D01*
X109961607Y-74536133D01*
X109982651Y-74523520D01*
X110004829Y-74513030D01*
X110027929Y-74504765D01*
X110051727Y-74498804D01*
X110075996Y-74495204D01*
X110100500Y-74494000D01*
X111025500Y-74494000D01*
X111050004Y-74495204D01*
G37*
G36*
X114025004Y-74495204D02*
G01*
X114049273Y-74498804D01*
X114073071Y-74504765D01*
X114096171Y-74513030D01*
X114118349Y-74523520D01*
X114139393Y-74536133D01*
X114159098Y-74550747D01*
X114177277Y-74567223D01*
X114193753Y-74585402D01*
X114208367Y-74605107D01*
X114220980Y-74626151D01*
X114231470Y-74648329D01*
X114239735Y-74671429D01*
X114245696Y-74695227D01*
X114249296Y-74719496D01*
X114250500Y-74744000D01*
X114250500Y-76894000D01*
X114249296Y-76918504D01*
X114245696Y-76942773D01*
X114239735Y-76966571D01*
X114231470Y-76989671D01*
X114220980Y-77011849D01*
X114208367Y-77032893D01*
X114193753Y-77052598D01*
X114177277Y-77070777D01*
X114159098Y-77087253D01*
X114139393Y-77101867D01*
X114118349Y-77114480D01*
X114096171Y-77124970D01*
X114073071Y-77133235D01*
X114049273Y-77139196D01*
X114025004Y-77142796D01*
X114000500Y-77144000D01*
X113075500Y-77144000D01*
X113050996Y-77142796D01*
X113026727Y-77139196D01*
X113002929Y-77133235D01*
X112979829Y-77124970D01*
X112957651Y-77114480D01*
X112936607Y-77101867D01*
X112916902Y-77087253D01*
X112898723Y-77070777D01*
X112882247Y-77052598D01*
X112867633Y-77032893D01*
X112855020Y-77011849D01*
X112844530Y-76989671D01*
X112836265Y-76966571D01*
X112830304Y-76942773D01*
X112826704Y-76918504D01*
X112825500Y-76894000D01*
X112825500Y-74744000D01*
X112826704Y-74719496D01*
X112830304Y-74695227D01*
X112836265Y-74671429D01*
X112844530Y-74648329D01*
X112855020Y-74626151D01*
X112867633Y-74605107D01*
X112882247Y-74585402D01*
X112898723Y-74567223D01*
X112916902Y-74550747D01*
X112936607Y-74536133D01*
X112957651Y-74523520D01*
X112979829Y-74513030D01*
X113002929Y-74504765D01*
X113026727Y-74498804D01*
X113050996Y-74495204D01*
X113075500Y-74494000D01*
X114000500Y-74494000D01*
X114025004Y-74495204D01*
G37*
D26*
X88100000Y-118642000D03*
X85000000Y-118642000D03*
X88100000Y-120142000D03*
X85000000Y-120142000D03*
D27*
X106259000Y-97790000D03*
X103759000Y-97790000D03*
D28*
X105234000Y-75565000D03*
X108634000Y-75565000D03*
D10*
G36*
X86924779Y-74583144D02*
G01*
X86947834Y-74586563D01*
X86970443Y-74592227D01*
X86992387Y-74600079D01*
X87013457Y-74610044D01*
X87033448Y-74622026D01*
X87052168Y-74635910D01*
X87069438Y-74651562D01*
X87085090Y-74668832D01*
X87098974Y-74687552D01*
X87110956Y-74707543D01*
X87120921Y-74728613D01*
X87128773Y-74750557D01*
X87134437Y-74773166D01*
X87137856Y-74796221D01*
X87139000Y-74819500D01*
X87139000Y-75294500D01*
X87137856Y-75317779D01*
X87134437Y-75340834D01*
X87128773Y-75363443D01*
X87120921Y-75385387D01*
X87110956Y-75406457D01*
X87098974Y-75426448D01*
X87085090Y-75445168D01*
X87069438Y-75462438D01*
X87052168Y-75478090D01*
X87033448Y-75491974D01*
X87013457Y-75503956D01*
X86992387Y-75513921D01*
X86970443Y-75521773D01*
X86947834Y-75527437D01*
X86924779Y-75530856D01*
X86901500Y-75532000D01*
X86326500Y-75532000D01*
X86303221Y-75530856D01*
X86280166Y-75527437D01*
X86257557Y-75521773D01*
X86235613Y-75513921D01*
X86214543Y-75503956D01*
X86194552Y-75491974D01*
X86175832Y-75478090D01*
X86158562Y-75462438D01*
X86142910Y-75445168D01*
X86129026Y-75426448D01*
X86117044Y-75406457D01*
X86107079Y-75385387D01*
X86099227Y-75363443D01*
X86093563Y-75340834D01*
X86090144Y-75317779D01*
X86089000Y-75294500D01*
X86089000Y-74819500D01*
X86090144Y-74796221D01*
X86093563Y-74773166D01*
X86099227Y-74750557D01*
X86107079Y-74728613D01*
X86117044Y-74707543D01*
X86129026Y-74687552D01*
X86142910Y-74668832D01*
X86158562Y-74651562D01*
X86175832Y-74635910D01*
X86194552Y-74622026D01*
X86214543Y-74610044D01*
X86235613Y-74600079D01*
X86257557Y-74592227D01*
X86280166Y-74586563D01*
X86303221Y-74583144D01*
X86326500Y-74582000D01*
X86901500Y-74582000D01*
X86924779Y-74583144D01*
G37*
G36*
X85174779Y-74583144D02*
G01*
X85197834Y-74586563D01*
X85220443Y-74592227D01*
X85242387Y-74600079D01*
X85263457Y-74610044D01*
X85283448Y-74622026D01*
X85302168Y-74635910D01*
X85319438Y-74651562D01*
X85335090Y-74668832D01*
X85348974Y-74687552D01*
X85360956Y-74707543D01*
X85370921Y-74728613D01*
X85378773Y-74750557D01*
X85384437Y-74773166D01*
X85387856Y-74796221D01*
X85389000Y-74819500D01*
X85389000Y-75294500D01*
X85387856Y-75317779D01*
X85384437Y-75340834D01*
X85378773Y-75363443D01*
X85370921Y-75385387D01*
X85360956Y-75406457D01*
X85348974Y-75426448D01*
X85335090Y-75445168D01*
X85319438Y-75462438D01*
X85302168Y-75478090D01*
X85283448Y-75491974D01*
X85263457Y-75503956D01*
X85242387Y-75513921D01*
X85220443Y-75521773D01*
X85197834Y-75527437D01*
X85174779Y-75530856D01*
X85151500Y-75532000D01*
X84576500Y-75532000D01*
X84553221Y-75530856D01*
X84530166Y-75527437D01*
X84507557Y-75521773D01*
X84485613Y-75513921D01*
X84464543Y-75503956D01*
X84444552Y-75491974D01*
X84425832Y-75478090D01*
X84408562Y-75462438D01*
X84392910Y-75445168D01*
X84379026Y-75426448D01*
X84367044Y-75406457D01*
X84357079Y-75385387D01*
X84349227Y-75363443D01*
X84343563Y-75340834D01*
X84340144Y-75317779D01*
X84339000Y-75294500D01*
X84339000Y-74819500D01*
X84340144Y-74796221D01*
X84343563Y-74773166D01*
X84349227Y-74750557D01*
X84357079Y-74728613D01*
X84367044Y-74707543D01*
X84379026Y-74687552D01*
X84392910Y-74668832D01*
X84408562Y-74651562D01*
X84425832Y-74635910D01*
X84444552Y-74622026D01*
X84464543Y-74610044D01*
X84485613Y-74600079D01*
X84507557Y-74592227D01*
X84530166Y-74586563D01*
X84553221Y-74583144D01*
X84576500Y-74582000D01*
X85151500Y-74582000D01*
X85174779Y-74583144D01*
G37*
G36*
X82937779Y-76057144D02*
G01*
X82960834Y-76060563D01*
X82983443Y-76066227D01*
X83005387Y-76074079D01*
X83026457Y-76084044D01*
X83046448Y-76096026D01*
X83065168Y-76109910D01*
X83082438Y-76125562D01*
X83098090Y-76142832D01*
X83111974Y-76161552D01*
X83123956Y-76181543D01*
X83133921Y-76202613D01*
X83141773Y-76224557D01*
X83147437Y-76247166D01*
X83150856Y-76270221D01*
X83152000Y-76293500D01*
X83152000Y-76868500D01*
X83150856Y-76891779D01*
X83147437Y-76914834D01*
X83141773Y-76937443D01*
X83133921Y-76959387D01*
X83123956Y-76980457D01*
X83111974Y-77000448D01*
X83098090Y-77019168D01*
X83082438Y-77036438D01*
X83065168Y-77052090D01*
X83046448Y-77065974D01*
X83026457Y-77077956D01*
X83005387Y-77087921D01*
X82983443Y-77095773D01*
X82960834Y-77101437D01*
X82937779Y-77104856D01*
X82914500Y-77106000D01*
X82439500Y-77106000D01*
X82416221Y-77104856D01*
X82393166Y-77101437D01*
X82370557Y-77095773D01*
X82348613Y-77087921D01*
X82327543Y-77077956D01*
X82307552Y-77065974D01*
X82288832Y-77052090D01*
X82271562Y-77036438D01*
X82255910Y-77019168D01*
X82242026Y-77000448D01*
X82230044Y-76980457D01*
X82220079Y-76959387D01*
X82212227Y-76937443D01*
X82206563Y-76914834D01*
X82203144Y-76891779D01*
X82202000Y-76868500D01*
X82202000Y-76293500D01*
X82203144Y-76270221D01*
X82206563Y-76247166D01*
X82212227Y-76224557D01*
X82220079Y-76202613D01*
X82230044Y-76181543D01*
X82242026Y-76161552D01*
X82255910Y-76142832D01*
X82271562Y-76125562D01*
X82288832Y-76109910D01*
X82307552Y-76096026D01*
X82327543Y-76084044D01*
X82348613Y-76074079D01*
X82370557Y-76066227D01*
X82393166Y-76060563D01*
X82416221Y-76057144D01*
X82439500Y-76056000D01*
X82914500Y-76056000D01*
X82937779Y-76057144D01*
G37*
G36*
X82937779Y-77807144D02*
G01*
X82960834Y-77810563D01*
X82983443Y-77816227D01*
X83005387Y-77824079D01*
X83026457Y-77834044D01*
X83046448Y-77846026D01*
X83065168Y-77859910D01*
X83082438Y-77875562D01*
X83098090Y-77892832D01*
X83111974Y-77911552D01*
X83123956Y-77931543D01*
X83133921Y-77952613D01*
X83141773Y-77974557D01*
X83147437Y-77997166D01*
X83150856Y-78020221D01*
X83152000Y-78043500D01*
X83152000Y-78618500D01*
X83150856Y-78641779D01*
X83147437Y-78664834D01*
X83141773Y-78687443D01*
X83133921Y-78709387D01*
X83123956Y-78730457D01*
X83111974Y-78750448D01*
X83098090Y-78769168D01*
X83082438Y-78786438D01*
X83065168Y-78802090D01*
X83046448Y-78815974D01*
X83026457Y-78827956D01*
X83005387Y-78837921D01*
X82983443Y-78845773D01*
X82960834Y-78851437D01*
X82937779Y-78854856D01*
X82914500Y-78856000D01*
X82439500Y-78856000D01*
X82416221Y-78854856D01*
X82393166Y-78851437D01*
X82370557Y-78845773D01*
X82348613Y-78837921D01*
X82327543Y-78827956D01*
X82307552Y-78815974D01*
X82288832Y-78802090D01*
X82271562Y-78786438D01*
X82255910Y-78769168D01*
X82242026Y-78750448D01*
X82230044Y-78730457D01*
X82220079Y-78709387D01*
X82212227Y-78687443D01*
X82206563Y-78664834D01*
X82203144Y-78641779D01*
X82202000Y-78618500D01*
X82202000Y-78043500D01*
X82203144Y-78020221D01*
X82206563Y-77997166D01*
X82212227Y-77974557D01*
X82220079Y-77952613D01*
X82230044Y-77931543D01*
X82242026Y-77911552D01*
X82255910Y-77892832D01*
X82271562Y-77875562D01*
X82288832Y-77859910D01*
X82307552Y-77846026D01*
X82327543Y-77834044D01*
X82348613Y-77824079D01*
X82370557Y-77816227D01*
X82393166Y-77810563D01*
X82416221Y-77807144D01*
X82439500Y-77806000D01*
X82914500Y-77806000D01*
X82937779Y-77807144D01*
G37*
G36*
X86874779Y-78329144D02*
G01*
X86897834Y-78332563D01*
X86920443Y-78338227D01*
X86942387Y-78346079D01*
X86963457Y-78356044D01*
X86983448Y-78368026D01*
X87002168Y-78381910D01*
X87019438Y-78397562D01*
X87035090Y-78414832D01*
X87048974Y-78433552D01*
X87060956Y-78453543D01*
X87070921Y-78474613D01*
X87078773Y-78496557D01*
X87084437Y-78519166D01*
X87087856Y-78542221D01*
X87089000Y-78565500D01*
X87089000Y-79140500D01*
X87087856Y-79163779D01*
X87084437Y-79186834D01*
X87078773Y-79209443D01*
X87070921Y-79231387D01*
X87060956Y-79252457D01*
X87048974Y-79272448D01*
X87035090Y-79291168D01*
X87019438Y-79308438D01*
X87002168Y-79324090D01*
X86983448Y-79337974D01*
X86963457Y-79349956D01*
X86942387Y-79359921D01*
X86920443Y-79367773D01*
X86897834Y-79373437D01*
X86874779Y-79376856D01*
X86851500Y-79378000D01*
X86376500Y-79378000D01*
X86353221Y-79376856D01*
X86330166Y-79373437D01*
X86307557Y-79367773D01*
X86285613Y-79359921D01*
X86264543Y-79349956D01*
X86244552Y-79337974D01*
X86225832Y-79324090D01*
X86208562Y-79308438D01*
X86192910Y-79291168D01*
X86179026Y-79272448D01*
X86167044Y-79252457D01*
X86157079Y-79231387D01*
X86149227Y-79209443D01*
X86143563Y-79186834D01*
X86140144Y-79163779D01*
X86139000Y-79140500D01*
X86139000Y-78565500D01*
X86140144Y-78542221D01*
X86143563Y-78519166D01*
X86149227Y-78496557D01*
X86157079Y-78474613D01*
X86167044Y-78453543D01*
X86179026Y-78433552D01*
X86192910Y-78414832D01*
X86208562Y-78397562D01*
X86225832Y-78381910D01*
X86244552Y-78368026D01*
X86264543Y-78356044D01*
X86285613Y-78346079D01*
X86307557Y-78338227D01*
X86330166Y-78332563D01*
X86353221Y-78329144D01*
X86376500Y-78328000D01*
X86851500Y-78328000D01*
X86874779Y-78329144D01*
G37*
G36*
X86874779Y-76579144D02*
G01*
X86897834Y-76582563D01*
X86920443Y-76588227D01*
X86942387Y-76596079D01*
X86963457Y-76606044D01*
X86983448Y-76618026D01*
X87002168Y-76631910D01*
X87019438Y-76647562D01*
X87035090Y-76664832D01*
X87048974Y-76683552D01*
X87060956Y-76703543D01*
X87070921Y-76724613D01*
X87078773Y-76746557D01*
X87084437Y-76769166D01*
X87087856Y-76792221D01*
X87089000Y-76815500D01*
X87089000Y-77390500D01*
X87087856Y-77413779D01*
X87084437Y-77436834D01*
X87078773Y-77459443D01*
X87070921Y-77481387D01*
X87060956Y-77502457D01*
X87048974Y-77522448D01*
X87035090Y-77541168D01*
X87019438Y-77558438D01*
X87002168Y-77574090D01*
X86983448Y-77587974D01*
X86963457Y-77599956D01*
X86942387Y-77609921D01*
X86920443Y-77617773D01*
X86897834Y-77623437D01*
X86874779Y-77626856D01*
X86851500Y-77628000D01*
X86376500Y-77628000D01*
X86353221Y-77626856D01*
X86330166Y-77623437D01*
X86307557Y-77617773D01*
X86285613Y-77609921D01*
X86264543Y-77599956D01*
X86244552Y-77587974D01*
X86225832Y-77574090D01*
X86208562Y-77558438D01*
X86192910Y-77541168D01*
X86179026Y-77522448D01*
X86167044Y-77502457D01*
X86157079Y-77481387D01*
X86149227Y-77459443D01*
X86143563Y-77436834D01*
X86140144Y-77413779D01*
X86139000Y-77390500D01*
X86139000Y-76815500D01*
X86140144Y-76792221D01*
X86143563Y-76769166D01*
X86149227Y-76746557D01*
X86157079Y-76724613D01*
X86167044Y-76703543D01*
X86179026Y-76683552D01*
X86192910Y-76664832D01*
X86208562Y-76647562D01*
X86225832Y-76631910D01*
X86244552Y-76618026D01*
X86264543Y-76606044D01*
X86285613Y-76596079D01*
X86307557Y-76588227D01*
X86330166Y-76582563D01*
X86353221Y-76579144D01*
X86376500Y-76578000D01*
X86851500Y-76578000D01*
X86874779Y-76579144D01*
G37*
G36*
X84666779Y-80298144D02*
G01*
X84689834Y-80301563D01*
X84712443Y-80307227D01*
X84734387Y-80315079D01*
X84755457Y-80325044D01*
X84775448Y-80337026D01*
X84794168Y-80350910D01*
X84811438Y-80366562D01*
X84827090Y-80383832D01*
X84840974Y-80402552D01*
X84852956Y-80422543D01*
X84862921Y-80443613D01*
X84870773Y-80465557D01*
X84876437Y-80488166D01*
X84879856Y-80511221D01*
X84881000Y-80534500D01*
X84881000Y-81009500D01*
X84879856Y-81032779D01*
X84876437Y-81055834D01*
X84870773Y-81078443D01*
X84862921Y-81100387D01*
X84852956Y-81121457D01*
X84840974Y-81141448D01*
X84827090Y-81160168D01*
X84811438Y-81177438D01*
X84794168Y-81193090D01*
X84775448Y-81206974D01*
X84755457Y-81218956D01*
X84734387Y-81228921D01*
X84712443Y-81236773D01*
X84689834Y-81242437D01*
X84666779Y-81245856D01*
X84643500Y-81247000D01*
X84068500Y-81247000D01*
X84045221Y-81245856D01*
X84022166Y-81242437D01*
X83999557Y-81236773D01*
X83977613Y-81228921D01*
X83956543Y-81218956D01*
X83936552Y-81206974D01*
X83917832Y-81193090D01*
X83900562Y-81177438D01*
X83884910Y-81160168D01*
X83871026Y-81141448D01*
X83859044Y-81121457D01*
X83849079Y-81100387D01*
X83841227Y-81078443D01*
X83835563Y-81055834D01*
X83832144Y-81032779D01*
X83831000Y-81009500D01*
X83831000Y-80534500D01*
X83832144Y-80511221D01*
X83835563Y-80488166D01*
X83841227Y-80465557D01*
X83849079Y-80443613D01*
X83859044Y-80422543D01*
X83871026Y-80402552D01*
X83884910Y-80383832D01*
X83900562Y-80366562D01*
X83917832Y-80350910D01*
X83936552Y-80337026D01*
X83956543Y-80325044D01*
X83977613Y-80315079D01*
X83999557Y-80307227D01*
X84022166Y-80301563D01*
X84045221Y-80298144D01*
X84068500Y-80297000D01*
X84643500Y-80297000D01*
X84666779Y-80298144D01*
G37*
G36*
X86416779Y-80298144D02*
G01*
X86439834Y-80301563D01*
X86462443Y-80307227D01*
X86484387Y-80315079D01*
X86505457Y-80325044D01*
X86525448Y-80337026D01*
X86544168Y-80350910D01*
X86561438Y-80366562D01*
X86577090Y-80383832D01*
X86590974Y-80402552D01*
X86602956Y-80422543D01*
X86612921Y-80443613D01*
X86620773Y-80465557D01*
X86626437Y-80488166D01*
X86629856Y-80511221D01*
X86631000Y-80534500D01*
X86631000Y-81009500D01*
X86629856Y-81032779D01*
X86626437Y-81055834D01*
X86620773Y-81078443D01*
X86612921Y-81100387D01*
X86602956Y-81121457D01*
X86590974Y-81141448D01*
X86577090Y-81160168D01*
X86561438Y-81177438D01*
X86544168Y-81193090D01*
X86525448Y-81206974D01*
X86505457Y-81218956D01*
X86484387Y-81228921D01*
X86462443Y-81236773D01*
X86439834Y-81242437D01*
X86416779Y-81245856D01*
X86393500Y-81247000D01*
X85818500Y-81247000D01*
X85795221Y-81245856D01*
X85772166Y-81242437D01*
X85749557Y-81236773D01*
X85727613Y-81228921D01*
X85706543Y-81218956D01*
X85686552Y-81206974D01*
X85667832Y-81193090D01*
X85650562Y-81177438D01*
X85634910Y-81160168D01*
X85621026Y-81141448D01*
X85609044Y-81121457D01*
X85599079Y-81100387D01*
X85591227Y-81078443D01*
X85585563Y-81055834D01*
X85582144Y-81032779D01*
X85581000Y-81009500D01*
X85581000Y-80534500D01*
X85582144Y-80511221D01*
X85585563Y-80488166D01*
X85591227Y-80465557D01*
X85599079Y-80443613D01*
X85609044Y-80422543D01*
X85621026Y-80402552D01*
X85634910Y-80383832D01*
X85650562Y-80366562D01*
X85667832Y-80350910D01*
X85686552Y-80337026D01*
X85706543Y-80325044D01*
X85727613Y-80315079D01*
X85749557Y-80307227D01*
X85772166Y-80301563D01*
X85795221Y-80298144D01*
X85818500Y-80297000D01*
X86393500Y-80297000D01*
X86416779Y-80298144D01*
G37*
G36*
X86416779Y-81822144D02*
G01*
X86439834Y-81825563D01*
X86462443Y-81831227D01*
X86484387Y-81839079D01*
X86505457Y-81849044D01*
X86525448Y-81861026D01*
X86544168Y-81874910D01*
X86561438Y-81890562D01*
X86577090Y-81907832D01*
X86590974Y-81926552D01*
X86602956Y-81946543D01*
X86612921Y-81967613D01*
X86620773Y-81989557D01*
X86626437Y-82012166D01*
X86629856Y-82035221D01*
X86631000Y-82058500D01*
X86631000Y-82533500D01*
X86629856Y-82556779D01*
X86626437Y-82579834D01*
X86620773Y-82602443D01*
X86612921Y-82624387D01*
X86602956Y-82645457D01*
X86590974Y-82665448D01*
X86577090Y-82684168D01*
X86561438Y-82701438D01*
X86544168Y-82717090D01*
X86525448Y-82730974D01*
X86505457Y-82742956D01*
X86484387Y-82752921D01*
X86462443Y-82760773D01*
X86439834Y-82766437D01*
X86416779Y-82769856D01*
X86393500Y-82771000D01*
X85818500Y-82771000D01*
X85795221Y-82769856D01*
X85772166Y-82766437D01*
X85749557Y-82760773D01*
X85727613Y-82752921D01*
X85706543Y-82742956D01*
X85686552Y-82730974D01*
X85667832Y-82717090D01*
X85650562Y-82701438D01*
X85634910Y-82684168D01*
X85621026Y-82665448D01*
X85609044Y-82645457D01*
X85599079Y-82624387D01*
X85591227Y-82602443D01*
X85585563Y-82579834D01*
X85582144Y-82556779D01*
X85581000Y-82533500D01*
X85581000Y-82058500D01*
X85582144Y-82035221D01*
X85585563Y-82012166D01*
X85591227Y-81989557D01*
X85599079Y-81967613D01*
X85609044Y-81946543D01*
X85621026Y-81926552D01*
X85634910Y-81907832D01*
X85650562Y-81890562D01*
X85667832Y-81874910D01*
X85686552Y-81861026D01*
X85706543Y-81849044D01*
X85727613Y-81839079D01*
X85749557Y-81831227D01*
X85772166Y-81825563D01*
X85795221Y-81822144D01*
X85818500Y-81821000D01*
X86393500Y-81821000D01*
X86416779Y-81822144D01*
G37*
G36*
X84666779Y-81822144D02*
G01*
X84689834Y-81825563D01*
X84712443Y-81831227D01*
X84734387Y-81839079D01*
X84755457Y-81849044D01*
X84775448Y-81861026D01*
X84794168Y-81874910D01*
X84811438Y-81890562D01*
X84827090Y-81907832D01*
X84840974Y-81926552D01*
X84852956Y-81946543D01*
X84862921Y-81967613D01*
X84870773Y-81989557D01*
X84876437Y-82012166D01*
X84879856Y-82035221D01*
X84881000Y-82058500D01*
X84881000Y-82533500D01*
X84879856Y-82556779D01*
X84876437Y-82579834D01*
X84870773Y-82602443D01*
X84862921Y-82624387D01*
X84852956Y-82645457D01*
X84840974Y-82665448D01*
X84827090Y-82684168D01*
X84811438Y-82701438D01*
X84794168Y-82717090D01*
X84775448Y-82730974D01*
X84755457Y-82742956D01*
X84734387Y-82752921D01*
X84712443Y-82760773D01*
X84689834Y-82766437D01*
X84666779Y-82769856D01*
X84643500Y-82771000D01*
X84068500Y-82771000D01*
X84045221Y-82769856D01*
X84022166Y-82766437D01*
X83999557Y-82760773D01*
X83977613Y-82752921D01*
X83956543Y-82742956D01*
X83936552Y-82730974D01*
X83917832Y-82717090D01*
X83900562Y-82701438D01*
X83884910Y-82684168D01*
X83871026Y-82665448D01*
X83859044Y-82645457D01*
X83849079Y-82624387D01*
X83841227Y-82602443D01*
X83835563Y-82579834D01*
X83832144Y-82556779D01*
X83831000Y-82533500D01*
X83831000Y-82058500D01*
X83832144Y-82035221D01*
X83835563Y-82012166D01*
X83841227Y-81989557D01*
X83849079Y-81967613D01*
X83859044Y-81946543D01*
X83871026Y-81926552D01*
X83884910Y-81907832D01*
X83900562Y-81890562D01*
X83917832Y-81874910D01*
X83936552Y-81861026D01*
X83956543Y-81849044D01*
X83977613Y-81839079D01*
X83999557Y-81831227D01*
X84022166Y-81825563D01*
X84045221Y-81822144D01*
X84068500Y-81821000D01*
X84643500Y-81821000D01*
X84666779Y-81822144D01*
G37*
D29*
X84645499Y-77959747D03*
D30*
X85395500Y-79356747D03*
X84895499Y-79356747D03*
X84395499Y-79356747D03*
X83895498Y-79356747D03*
X83895498Y-76562747D03*
X84395499Y-76562747D03*
X84895499Y-76562747D03*
X85395500Y-76562747D03*
M02*
